<svg version="1.1" id="Layer_1" xmlns="http://www.w3.org/2000/svg" xmlns:xlink="http://www.w3.org/1999/xlink" x="0px" y="0px"
	 viewBox="0 0 321.1 1052.1" style="enable-background:new 0 0 321.1 1052.1;" xml:space="preserve">
<style type="text/css">
	.st0{fill:#FFFFFF;}
	.st1{fill:#444444;}
</style>
<path d="M1329.6,4284.7c-1.1,1-2.2,2.7-3.5,2.9c-1.2,0.1-2.6-1.3-4.9-2.6c2-1.8,3.5-3.9,4.2-3.6
	C1327,4281.8,1328.2,4283.5,1329.6,4284.7z"/>
<path d="M1399.5,4130.6c-0.8-0.3-1.5-0.5-2.3-0.8c0.6-0.9,1.1-1.9,1.7-2.8c0.6,0.5,1.6,1,1.8,1.7
	C1400.7,4129.1,1399.9,4129.9,1399.5,4130.6z"/>
<path d="M3154.3,1671.6c-0.5-0.1-1.1-0.2-1.6-0.4c0.1-0.3,0.2-0.8,0.3-0.8c0.5,0.1,1.1,0.2,1.6,0.3
	C3154.5,1671,3154.4,1671.3,3154.3,1671.6z"/>
<path class="st0" d="M1439.4,4074.7c7.7,2.6,8.4,8,7.4,15.7C1439.3,4086.2,1440.4,4080,1439.4,4074.7z"/>
<path class="st0" d="M1326.1,4287.5c-1.2,0.1-2.6-1.3-4.9-2.6c2-1.8,3.5-3.9,4.2-3.6c1.6,0.5,2.8,2.2,4.1,3.4
	C1328.4,4285.7,1327.4,4287.4,1326.1,4287.5z"/>
<path class="st0" d="M1329.6,4284.7c-1.1,1-2.2,2.7-3.5,2.9c-1.2,0.1-2.6-1.3-4.9-2.6c2-1.8,3.5-3.9,4.2-3.6
	C1327,4281.8,1328.2,4283.5,1329.6,4284.7z"/>
<g>
	<path d="M210.4,85.9C210.5,85.9,210.5,85.9,210.4,85.9C210.5,85.9,210.5,85.9,210.4,85.9C210.5,85.9,210.5,85.9,210.4,85.9z"/>
	<path d="M202.9,84.7c0.1,0,0.1-0.1,0.2-0.1c0.1,0,0.2-0.1,0.3-0.1c0.1,0,0.1,0,0.2-0.1c0.2-0.1,0.3-0.1,0.5-0.2
		c0.4-0.2,0.8-0.3,1.2-0.3c0.5-0.1,0.8-0.2,1.1-0.2c0.6-0.1,2-0.2,3.8,0.1c0.8,0.2,1.8,0.4,2.9,1c0.1,0.1,0.3,0.1,0.4,0.2
		c0.1,0.1,0.3,0.2,0.4,0.3c0.6,0.5,1.1,1,1.3,1.3l0.1,0.1c0,0.1,0.1,0.1,0.1,0.2c1.4,0.6,2.1,0.7,2.4,0.5c0.1,0,0.4-0.2,0.5-0.1
		c0.2,0.1,0.1,0.6-0.2,0.9c-0.3,0.3-0.8,0.3-0.9,0.3c-0.9,0-1.5-0.7-1.8-1c-0.6-0.2-1.3-0.4-1.9-0.7c-0.3,0.7-0.8,1.6-1.5,2.3
		c-0.1,0.1-0.2,0.2-0.3,0.3c-0.2,0.2-0.4,0.3-0.6,0.4c-0.5,0.3-1.4,0.9-2.4,0.6c-0.2-0.1-0.9-0.3-1.9-1.8c-0.1-0.1-0.1-0.2-0.2-0.3
		c0-0.1-0.1-0.1-0.1-0.2c-0.3-0.6-0.7-1.4-1-2.3c0,0,0-0.1,0-0.1l-1.1,0l-1.5,0c-0.1-0.2-0.2-0.4-0.4-0.5c-0.1-0.1-0.3-0.2-0.4-0.2
		C202.4,85.2,202.8,84.8,202.9,84.7z M212,87.9c0.3-0.1,0.6-0.6,0.6-0.9c0-0.1-0.2-0.3-0.4-0.5c-0.2-0.1-0.3-0.2-0.4-0.2
		c0,0,0,0-0.1,0c-0.3,0.1-0.5,0.5-0.9,1C211.4,87.6,211.8,88,212,87.9z M210.5,85.9C210.5,85.9,210.5,85.9,210.5,85.9
		C210.5,85.9,210.5,85.9,210.5,85.9C210.5,85.9,210.5,85.9,210.5,85.9z"/>
	<path d="M211.8,86.4c0.2,0.1,0.3,0.1,0.5,0.2C212.1,86.4,212,86.4,211.8,86.4C211.8,86.4,211.8,86.4,211.8,86.4z"/>
	<path d="M211.8,86.4C211.8,86.4,211.8,86.4,211.8,86.4c0.2,0,0.3,0.1,0.5,0.2c0.2,0.1,0.3,0.3,0.4,0.5c0,0.3-0.3,0.8-0.6,0.9
		c-0.2,0.1-0.6-0.3-1.2-0.6C211.3,86.9,211.5,86.5,211.8,86.4z"/>
	<path d="M204.4,85.8C204.4,85.9,204.4,85.9,204.4,85.8l1.1,0.1c0,0,0-0.1,0-0.1L204.4,85.8z"/>
	<path class="st1" d="M226.9,53.5c0.1,1,0.2,2,0.5,2.9c2.6,7.1,2.6,14.3,1.9,21.7c-2.1-17.9-7.7-33.7-15.6-45.4
		c1.1,0.5,2.1,1.2,2.9,2C222.1,39.8,225.8,45.9,226.9,53.5z"/>
	<path d="M9.3,1013.7c0-0.1-0.1-0.3-0.2-0.4c0,0-0.1-0.1-0.1-0.2c-0.5-4.3-0.6-8.7-1.3-13c0.4-0.2,0.7-0.5,1.1-0.7
		c0.2-2.2,0.2-2.9-1-2.9c-0.1-1.1-0.6-2.1-1.9-2.6c-0.9-0.4-2-0.4-3.1-0.1c0.2-2.4,0.2-4.8-0.2-7.1c-0.1-0.6-0.2-1.2-0.3-1.7
		c0.4-1.1,0.5-2.2,0.5-3.5c-0.1-6,0.2-12,2.2-17.7c0.4-1,0.4-2.1,0.5-3.2c0.1-1.7,0.1-3.5,0-5.2c0-0.8-0.2-1.7-0.3-2.8
		c-0.4,0.1-0.8,0.2-1.1,0.3c0.1-0.7,0.1-1.3,0.1-2c2-2,2.8-4.9,3.3-8.1c0-0.2,0.1-0.4,0.2-0.6c0.9-2.3,1.4-4.5,0.8-7
		c-0.3-1.3-0.3-2.8-0.1-4.2c1-8.2,2-16.4,3.1-24.6c0.3-2.3-0.3-4.4-1.8-5.7c-2-1.7-2.2-3.7-2.1-5.9c0.4-9,1.5-18,4-26.7
		c0.4-1.3,1.1-2.4,1.3-3.7c1.6-7.4,3.1-14.8,3.2-22.4c0-1.2,0.2-2.4,0.4-3.6c1.8-9.2,2.8-18.5,2.9-27.9c0.1-8.2,1.2-16.3,3-24.2
		c1.5-6.5,3.4-12.8,5.4-19.1c1.6-5.1,3.7-10,5.8-14.9c1.3-3.1,3-6,4.4-9.1c0.6-1.3,0.9-2.7,1-4c0.3-4,1.4-7.7,3.6-11
		c1.3-2,2.5-4.1,3.6-6.2c0.3-0.6,0.3-1.5,0.1-2.2c-1-3.2-0.2-6,1.8-8.6c1.2-1.6,1.4-3.3,1.1-5.2c-0.4-2.5-0.7-5,1.3-7.1
		c0.5-0.5,0.5-1.4,0.6-2.2c0.2-2.3,0.4-4.5,0.6-6.8c0.2-2.1,0.5-4.1,1.9-5.8c0.5-0.6,0.6-1.6,0.7-2.4c0.3-6.6,0.6-13.2,1.9-19.8
		c0.5-2.8,0.8-5.6,0.9-8.4c0.3-8.4,0.5-16.9,0.7-25.3c0-1.5-0.3-3-0.7-4.4c-0.5-1.4-0.5-2.5,0.2-3.7c0.5-1,1-2.2,1-3.3
		c0.1-3.6,0.6-8,0-11.5c-0.5-2.6-2.3-5-2.2-7.7c0.1-2,0.8-4,1.4-5.9c1.6-5.7,2-11.8,1.2-17.6c1.1,0.5,1.6,1.7,2.1,2.8
		c0.5,1.1,1.2,2.2,2.4,2.5c4.2,1,0.4-9-0.4-10.4c2.3,0.7,4.1,2.8,4.6,5.1c-0.7-1.7-0.1-3.7,0.9-5.2c1-1.5,2.4-2.8,3.6-4.2
		c1.6-1.9,2.6-4.2,3.2-6.6c0.6-2.8,0.5-5.8,0.4-8.7c-0.2-4.3-0.4-8.7-0.6-13.1c0-0.6-0.1-1.3-0.7-1.6c-0.5-0.2-1.1,0.1-1.6,0.4
		c-4.5,3.1-12.9,5.5-12,12.3c0.2,1.7,0.8,3.4,1.1,5.1c0.4,3-0.4,6.2-2.2,8.7c1.8-0.8,3.5-1.6,5.3-2.4c0.3-0.2-4.1,6.3-4.5,6.9
		c-1.6,2.4,2.1,5.6,1.9,8.1c-2.1-0.4-3.2-2.6-4.7-4.2c-2.1-2.1-3.5-4.4-3.5-7.5c0-3.7-2.2-7.3-5.6-8.1c-4.4-1-7.3-3.7-10.1-6.8
		c-1.1-1.3-1.9-1.5-3.6-1.1c-4.8,1.3-9.7,2.3-14.6,3.4c-0.4-3.9-1-7.7-1.5-11.5c-0.2-1.5,0.2-2.8,0.2-4.2c0-2.1-0.9-4-1.5-6
		c-0.7-2.3-1.1-4.6-1.4-7c-0.5-3.2-0.9-6.4-1.4-9.7c0-6.3-1.8-13.1-2.7-19.3c-0.9-6.3-1.7-12.6-3.1-18.9c-1.5-6.5-2.6-13.2-3.7-19.8
		c-0.6-3.4-0.9-6.8-1.3-10.3c-0.3-2.5-0.5-4.9-0.7-7.4c-0.4-3.8-0.8-7.7-1.2-11.5c-0.1-1.2,0-2.4-0.1-3.6c-0.4-4.7-1-9.4-1.4-14.2
		c-0.1-1.5,0.3-3,0.3-4.5c0-2.8-0.6-5.6-0.2-8.4c0.4-3.5,1.5-6.9,2.3-10.4c2.3-1.5,1.7-3.8,1.7-5.9c0-1.8,0-3.5,0-5.2
		c1.4-29.6,2.2-59,7.8-88.2c1.3-6.5,2.7-13.1,2.1-19.7c-0.2-1.8-0.5-3.5-0.2-5.3c0.7-5,5.7-9.4,8.4-13.5c3.6-5.6,5.1-11,7.7-16.8
		c0.6-1.3,1.1-2.6,1.2-4c0.1-1.7-0.5-3.4-0.2-5c0.2-1.2,0.8-2.2,1.4-3.2c2.7-5.3,3.2-11.3,4.6-17.1c1.9-8.2,5.6-13.5,13.5-16.4
		c3-1.1,6-2.9,9.4-1.4c0.7,0.3,1.7-0.2,2.5-0.5c0.2-0.1,0-0.9,0-1.4c2.5-0.9,5-1.9,7.6-2.6c5.4-1.3,10.6-3.3,16.2-3.5
		c3.4-0.1,6.9-0.6,10.1-2.2c5.6-2.8,11.6-3.6,17.8-3.9c2.4-0.1,4.7-0.5,7.1,0.2c1.4,0.4,2.8,0.1,3.9-1c1.3-1.2,2.6-2.3,4.2-3.2
		c2.1-1.2,3.5-2.8,4.5-5c1-2.1,2.5-3.8,4.6-5.6c-0.9,4.8,0.2,8.8,1.7,12.7c2.2,5.2,4.7,10.3,6.9,15.5c1.2,2.8,2.1,5.7,3,8.6
		c0.9,2.9,1.6,5.9,2.5,8.8c0.9,2.7,2.1,5.3,3,8c6.3,17.1,12.2,34.3,16.9,51.9c1.9,7,3.6,13.9,5.6,20.9c0.3,1.2,0.1,2.8,2,3.7
		c0-1.8,0.1-3.3,0-4.8c-0.1-2.6-0.3-5.2-0.5-7.8c-0.1-1,0.1-2-0.1-2.9c-0.8-3.3-0.5-6.5-0.3-9.8c0.1-1.7-0.2-3.4-0.5-5.1
		c-0.3-1.6-0.8-3.1-1-4.7c-0.4-4.9-0.7-9.8-0.9-14.7c-0.1-1.2-0.2-2.4,0-3.6c0.7-3.7,0.4-7.4,0.1-11.1c-0.2-2.3-0.9-4.1-2.5-5.8
		c-2.3-2.4-4.7-4.8-6.2-8c4.3-5.8,8.7-11.4,14.9-15.8c-1-0.4-1.5-0.8-2.1-0.8c-2.7,0.1-4.8-1.1-7-2.4c-2.6-1.6-5.4-2.8-8.3-3.8
		c-3.3-1.1-5.8-2.8-7.6-5.8c-1.2-2-2.7-4-4.4-5.6c-2.4-2.2-5.1-4.1-7.7-6c-1.8-1.3-3.3-2.8-3.6-5.2c-0.6-4-1.2-8-1.7-12.1
		c0,0,0-0.1,0-0.1c-0.1-1.2,0.6-2.5,0.3-3.5c-0.7-2.5-0.2-5-0.2-7.5c0-2.2-0.2-4.3-0.4-6.5c-0.2-2.2-0.6-4.5-0.4-6.7
		c0.4-4.7-0.3-9.1-2.1-13.3c1.9-3.6,2.1-6.1,0.5-8.7c-2,2.5-2.3,5.3-2.3,8.2c-2.8-0.3-4.9-2.4-4.9-4.8c0-2.7,3.9-6,7.2-6.1
		c1.9-4.6,1.1-7.7-2.9-9.9c-1.4-0.8-2.1-1.6-1.9-3.4c0.2-1-0.4-2.1-0.5-3.2c-0.4-3.2-0.8-6.5-1-9.7c-0.1-2.1-0.2-4.2-0.3-6.3
		c-0.1-2-0.2-4-0.4-6c-0.1-1.8-1.2-3.7-1.1-5.4c0.3-3.6,1.2-7.1,3.4-10.1c2.5-3.4,4.9-7,7.8-10c2.4-2.6,4.3-5.9,7.9-7.1
		c0.1,0,0.1,0,0.2-0.1c0,0,0-0.1,0-0.2c-0.2-3,0.9-4.2,3.9-4.4c0.1,0,0.2,0,0.3,0c0.3,0,0.5,0,0.7,0.1c4.1,1.7,5.8-1,7.4-4
		c0.1-0.2,0.2-0.4,0.3-0.6c0.5-1.5,1.6-1.8,3-2c1.4-0.2,2.8-0.6,3.9-1.3c1.4-0.8,2.6-1.7,3.9-2.7c0.5-0.4,1-0.7,1.5-1.1
		c1.7-1.2,4.1-2.1,4.8-3.7c0.9-2,2.7-2.9,3.3-4.7c4.4,0.7,7.7,3.7,11.8,4.6c0.2-0.2,0.3-0.4,0.5-0.6c-1-1.9-2-3.9-3.1-5.8
		c0.2-0.1,0.4-0.3,0.6-0.4c1.7,1.9,3.6,3.8,5,5.9c1.5,2.1,3.4,2.8,5.8,2.8c2.8,0,5.6,0.1,8.3,1.2c4.1,1.6,6.6,4.8,8.8,8.4
		c1,1.7,2.2,3.3,3.5,4.6c2,2,3.4,4,2.2,6.9c-0.1,0.3,0,0.8,0,1.2c0.2,0,0.3,0.1,0.5,0.1c0.3-0.6,0.5-1.3,0.8-2
		c0.8,1.6,1.7,2.9,2,4.3c0.4,2.1-2.4,2-2.9,3.8c0.1,0.3,0.2,0.7,0.4,1c1.7,2.1,3.5,4.1,5,6.4c0.7,1.1,1.1,2.5,1.3,3.9
		c0.4,3.1,0.7,6.2,1,9.4c0.5,5.4,2.1,10.6,0.8,16.1c-1.6,6.4-2.9,12.9-4.3,19.3c-0.1,0.6-0.7,1.1-1.4,2.1c0-0.1-0.1-0.2-0.1-0.3
		c-0.3-0.8-0.5-1.2-0.6-1.6c-0.8-4.8-1-9.6-0.5-14.3c0.1-0.4,0.1-0.8,0.1-1.3c0.8-7.3,0.8-14.6-1.9-21.7c-0.3-0.9-0.4-1.9-0.5-2.9
		c-1.1-7.6-4.8-13.8-10.3-18.8c-0.8-0.8-1.8-1.4-2.9-2c-0.8-0.4-1.6-0.8-2.4-1c-2.2-0.8-4.7-0.8-6.9-1.7c-2.2-0.9-4.4-1.1-6.7-1.1
		c-3.1,0.1-6.3,0.2-9.4,0.3c-1.1,0-2.3-0.1-3.2,0.3c-3.5,1.8-7.1,2.5-11,1.9c-1.3-0.2-2.6,0.2-3.9,0.3c-3.3,0.3-5.2,2.8-7.1,4.9
		c-1,1.1-0.8,3.3-1,5c-0.2,1.3-0.2,2.7-0.4,4.7c-1.2-1.4-1.9-2.1-2.8-3.1c-0.1,1-0.3,1.7-0.3,2.3c0.1,1.9,0.3,3.7,0.3,5.6
		c0,4.1-2.6,7.8-6.4,9.4c-1,0.4-1.9,1.1-2.7,1.8c-1.3,1.1-2.5,2.4-3.9,3.4c-1.2,0.8-1.5,1.8-1,3.1c0.6,1.4,0.4,2.7-0.1,4.1
		c-0.4,1-0.4,2.2-0.4,3.2c0.3,4.7-0.4,9.4-1.6,13.9c-1.4,5.7-2.1,11.3-0.2,17.1c0.7,2,1.9,19.5,3,20.9c1.1,1.4,5.7,13.8,7.1,13.5
		c1-0.2,7.7,1.8,8.9,1.5c0.5,1,3.1-1.5,3.7-0.4c1.1,2,0.6-12.3,2.6-13.5c1.5-0.9,1.8-3.5,3.2-4.5c1-0.6,2.8-2.4,3.9-2.5
		c4.2-0.4,6.3,0.6,9.5-1.5c-1.2-2.6-5.2-6.8-7.6-7.8c-1.6-0.7-1.8-1.7-1.7-3.1c0.2-2,1.6-3.4,3.9-4c0.1,2.5-1.9,5.6,1.7,7.5
		c0.5-0.6,0.9-1.2,1.3-1.6c1.5-1.5,4-1.7,5.7-0.5c1.5,1,1.5,2,0.3,4.5c-0.4,0.8-0.6,2-0.2,2.8c1,2.1,0.3,3.5-1.5,4.7
		c-0.5,0.3-1,0.6-1.2,1.1c-1.1,1.9-2.8,2.9-5,3.2c-1.3,0.2-10.1,1-10.1,2.6c3.1,0,13.8-0.2,16.8-0.2c1.1,0,2.2,0.1,3.2,0.3
		c1.8,0.3,3.6,0.8,5.4,0.8c2,0.1,3.6,0.6,4.9,2.1c0.6,0.7,1.1,1.3,2.6,1.2c3.6-0.2,0-3.2-4.6-6.2c-1.9-1.2-3.6-2.5-3.8-5.5
		c-0.9,1-1.4,1.8-2.1,2.2c-0.9,0.6-2.3,0.1-2.2-1c0.1-2.4,0.4-4.8,2.7-6.4c1.5-1,3.5-1.2,3.7,0.6c0.5,6.3,5,7.4,9.7,7.9
		c1.7,0.2,2.7,1.7,3.4,3.3c0.6,1.2,2.5,15.9,2.5,14.1c0.1,4.3,6.2,1,7.8-0.4c0.8-0.7,2.6-12.5,3.4-13.3c2.3-2.2,1.7-7.3,2.8-10.3
		c0.8-2.3,0.7-5.1,2.6-7.5c0.1-0.1,0.2-0.2,0.2-0.3c0.1,1.2,0.2,1.7,0.2,2.2c-0.5,2.8-1.4,5.5-2.2,8.3c-0.4,1.4-0.7,2.7-1,4.1
		c-0.2,1.1-0.3,2.3-0.4,3.5c0,0.5-0.5,1-0.8,1.4c-0.2,0.3-0.4,0.6-0.5,0.9c-1.2,2.1-1.9,4.4-2.4,6.8c-0.3,1.2-0.4,2.5-0.6,3.7
		c-0.6,5-0.6,10-0.9,15c-0.3,3.7-0.5,7.4-2.6,10.6c-0.8,1.3-1.5,2.7-2.3,3.9c-1.3,2-1.6,4.2-0.5,6.2c1,1.8,2.4,3.3,4.6,4
		c1.1,0.4,2.3,0.8,3.2,1.5c4.2,3,8.2,6.4,12.2,9.7c0.8,0.6,1.6,1.3,2.6,1.5c2.4,0.6,5.3-0.2,7.8,0.2c3.1,0.5,6,1.9,8.7,3.4
		c5.6,3,10.8,7,17.2,8.4c1.1,0.2,2.2,0.4,3.2-0.1c1-0.5,1.7-1.7,1.2-2.7c1.2,2.3,7.3,4.7,9.3,7.4c3.1,4,4.8,8.9,5.2,14
		c0.5,6.7,2.6,12.9,4.1,19.4c1.7,7.6,3.7,15.2,3.7,23.1c0,2-0.1,3.9,0.1,5.9c0.5,6.1,1.1,12.1,0.7,18.2c-0.3,4.7-0.2,9.4-0.3,14
		c0,4.1-0.2,8.3,0.2,12.4c0.7,7.1,1.6,14.2,2.6,21.3c1.2,8.2,2.5,16.3,3.8,24.5c0.6,3.8,1,7.6,2,11.4c1,3.8,0.9,8,1.1,12
		c0.1,2.7-0.3,5.4-0.3,8.1c0.1,4.5,0.7,8.9,0.5,13.3c-0.3,5.2-1,10.4-1.8,15.5c-0.5,3.2-0.6,6.1,0.5,9.3c1.1,2.9,1.4,6.1,2.1,9.2
		c1,4.6,0.2,9.2-1.5,13.4c-1.6,3.9-2.4,7.7-2.1,12c0.3,5-0.3,10-0.5,15c-0.1,3-0.2,6.1-0.5,9.1c-0.6,5.4-1.4,10.8-2.1,16.2
		c-0.7,5.3-1.2,10.6-1.9,15.9c-0.2,1.7-1,3.1-2.8,3.7c0.1-3.3,0.1-3.3-2.1-4.4c0.7,1.4,1.4,2.9,2.1,4.4c-1.9,1.1-1.3,2.9-0.8,4.4
		c1.1,3.5,1.3,7,0,10.5c-0.7,2.1-0.7,4.5-1.1,6.8c-0.4,2.3-0.4,4.7-1.3,6.7c-1.7,3.7-3.6,7.3-5.9,10.5c-1.9,2.5-2.5,5.1-2.7,8.1
		c-0.3,5.5-0.2,11.1-1.6,16.5c-0.7,2.5-1.1,5.2-0.9,7.8c0.4,5.3-1.6,9.5-4.8,13.4c-1.5,1.7-2.6,3.8-3.8,5.7
		c-1.5,2.2-2.8,4.4-4.5,6.4c-1.1,1.3-2,2.5-2.1,4.3c-0.2,3.3-0.6,6.5-0.9,9.7c-0.4,3.9-0.7,7.8-1.1,11.7c-0.2,1.7-0.3,3.5-0.8,5.1
		c-1.4,4.9-2.1,10-2.2,15.1c-0.1,6-1,11.9-2.4,17.8c-0.4,1.5-0.1,3.2-0.2,4.8c0,1.5,0.3,3.2-0.3,4.4c-1.3,3-1.3,5.9-0.9,8.9
		c0.5,3.1,0.7,6.3-0.2,9.4c-0.3,1.1-0.1,2.3,0,3.5c0.1,1.9,0.4,3.9,0.4,5.8c0.2,6.5,0.4,13,0.4,19.5c0,3.5,1.8,6.6,1.9,10.2
		c0.3,7.4,0.9,14.8,0.9,22.2c-0.1,10-0.3,20-1.7,30c-0.9,6.8-1.3,13.5,0.6,20.4c1.6,5.7,2.1,11.8,3,17.7c0.8,5.3,0.3,10.4-3.3,14.8
		c-0.5,0.6-0.6,1.9-0.4,2.7c0.7,2.4,0.6,4.5-1.5,6.2c-0.8,0.7-1.1,1.7-0.4,2.7c1.1,1.5,1,3.2,1.1,5c0.2,3,0.7,5.9,4.4,6.8
		c0.6,0.1,1,0.8,1.4,1.2c1.1,1.2,2.1,2.5,3,3.8c1.4,2,4.2,3.3,3.4,6.5c-0.1,0.3,0.2,0.6,0.4,0.9c2.4,3.2,3.9,6.8,5.6,10.4
		c0.3,0.6,0.6,1.2,1.1,1.6c1.3,1.3,2.7,2.5,2.4,4.7c0,0.5,0.6,1.2,1.1,1.5c1.5,1,3.5,1.7,4.5,3c2.8,4.2,8.8,5,10.5,10.3
		c0.1,0.2,0.6,0.1,0.9,0.3c2.3,2,4.9,3.7,6.8,6c2.8,3.4,5.5,7,7.7,10.8c2.4,4.1,5,8.1,5.8,13c0.2,1.2,1,2.4,1.7,3.5
		c1,1.5,1.1,2.9,0.4,4.6c-0.5,1.1-0.4,2.5-0.9,3.7c-0.6,1.6-1.1,3.5-2.3,4.5c-1.9,1.5-4.2,2.8-6.5,3.5c-3.4,1-6.6,3.4-10.4,1.7
		c-3.3,0.8-6.4-0.1-9.5-1.3c-3.2-1.3-6.5-2.5-9.6-3.9c-2.5-1.2-5-2.5-7.4-3.9c-2.1-1.2-4.2-2.3-6.1-3.7c-2.8-2.1-5.5-4.4-8.2-6.7
		c-1.2-1-2.2-2.1-3.3-3.1c-0.8-0.7-1.6-1.5-2.6-2c-1.5-0.7-2.3-1.5-2.4-3.4c-0.2-3.2-2.1-4.1-5-3c-0.1,0-0.2,0-0.3-0.1
		c-0.1-0.7,0.2-1.9-0.2-2.1c-1.5-0.9-2.8-2-3.8-3.4c-0.8-1-1.8-2.1-2.9-2.6c-1.6-0.6-3.5-1.3-5.1-0.9c-2.5,0.5-3.9-0.2-4.9-2.3
		c-1.6,0.1-2.2,0.9-2.4,2.3c-0.1,1.3-0.5,2.5-2.1,2.8c0.1-1.2,0.6-2.4,0.2-3.2c-0.4-0.8-1.6-1.1-2-1.4c0.1-0.9,0.4-2.3,0.1-2.5
		c-1.1-0.6-2.5-0.7-3.6-1.2c-1.2-0.5-0.4-2.2-2.1-3c-4.9-2.2-7.6-8.8-6.2-14c0.4-1.4,1.5-2.6,1.7-4c0.3-2,0.3-4.2-0.1-6.2
		c-0.5-2.8-0.2-5.6,0.2-8.3c0.3-1.9,0.2-3.5-1-4.8c1.8-3.2,2.1-6.6,1.4-9.7c-0.5-2-1.4-4.1-2.1-6.1c-1-2.8-1.1-5.5-1.2-8.3
		c-0.1-1.5-0.1-2.9-0.9-4.4c-1.4-2.7-1.3-5.7,0.1-8.5c1-2,2.4-3.9,3.4-6c0.7-1.4,1.4-3.1,1.3-4.6c-0.2-2-1.1-3.9-1.7-5.9
		c-0.8-2.3-1.7-4.4-2.3-6.7c-0.7-2.7-0.8-5.6-1.7-8.3c-2-5.9-2.6-12.1-3.4-18.3c-0.5-3.5-0.8-6.9-1.4-10.3c-0.4-2.4-1.4-4.8-1.8-7.2
		c-1.4-9-2.5-18.1-2.2-27.3c0.2-4.2,0.9-8.5,0.6-12.7c-0.4-5.8-1.2-11.7-4.6-16.8c-1.9-2.8-2.4-5.8-1.2-9c0.6-1.6,0.1-3.2-0.4-4.8
		c-1.5-5.2-3.2-10.4-4.1-15.8c-1.5-9-3-18-4-27.1c-1-8.8-2.9-17.4-5.3-25.9c-0.7-2.6-1.7-5.2-2.5-7.8c-3.3-10.2-6.5-20.3-9.7-30.5
		c-0.4-1.3-1-2.4-3-2.4c-1.9,3.7-3.9,7.5-6,11.3c-0.9,1.6-2,3.1-3,4.6c-1.6,2.4-3.5,4.7-4.7,7.3c-2.5,5.4-4.7,11-6.8,16.6
		c-4,10.5-8,21-11.9,31.5c-2.6,6.9-4.9,14-7.3,21c-2.4,7-4.8,14-7.3,20.9c-1.7,4.8-3.5,9.6-5.5,14.2c-0.7,1.7-1.3,3.2-1,5
		c0.3,2.4-0.4,4.6-1.6,6.5c-1.5,2.3-3.3,4.3-4.9,6.5c-0.7,0.9-1.4,1.9-1.7,3c-1.3,5.3-4,9.8-8,13.7c-2.3,2.2-4,4.8-5,7.9
		c-1.3,4.2-2.8,8.2-4.1,12.4c-1.3,3.9-2.6,7.8-3.6,11.8c-1.6,6.8-2.6,13.7-4.3,20.4c-1.7,6.7-4.1,13.3-6,20
		c-0.8,2.6-1.7,5.3-1.5,7.9c0.5,6.8-1.6,13.2-2.5,19.7c-0.7,5.7-3.7,10.9-6.8,15.7c-1.1,1.7-1.1,3.2-0.4,4.9c0.8,2,1.4,4.1,2.3,6.1
		c1.6,4,1.3,7.8-1.2,11.5c-0.5,0.7-0.9,1.6-1.5,2.1c-1.8,1.6-1.3,3.2-0.3,5c1,1.7,1.8,3.5,2.5,5.3c0.8,2.1,0.5,4-1.2,5.7
		c-1.2,1.3-2.1,2.8-2.9,4.3c-1.7,3.3-1.7,3.6,0.9,6.2c3.2,3,5.8,6.2,4.7,11c0,0.2,0,0.4,0.1,0.6c1.5,4.1-0.1,7.2-2.9,10
		c-0.6,0.6-1,1.6-1.2,2.5c-0.3,1.3-0.5,2.6-0.5,3.9c0,0.9,0,2,0.4,2.8c0.7,1.4,1.5,2.8,2.5,3.8L76,1006c-0.1,0.4-0.2,0.9-0.3,1.6
		c-0.3,2,0.4,3.5,1,5c1,2.5,1,5.4,3.1,7.4c0.2,0.2,0.2,0.6,0.2,0.9c0.4,2,1,4,1.2,6c0.2,2,0.4,4.2,0.1,6.1c-0.4,2.2-1.5,4.3-2.3,6.4
		c-0.4,1-0.9,1.9-1.5,2.8c-0.9,1.3-8.1,6.1-9.6,6.5c-0.6,0.2-1.3,0.4-1.9,0.4c-2.1-0.2-3.9,0.6-5.7,1.7c-0.9,0.6-2.2,0.5-3.4,0.6
		c-1.1,0.1-2.3-0.3-3.2,0.1c-1.8,0.9-3.4,0.6-5.1,0c-1.2-0.4-2.7-1.2-3.7-0.8c-3.4,1.1-5.7-0.2-8.4-2.3c-3.5-2.8-7.5-4.9-11.3-7.3
		c-3.7-2.3-6.6-5.5-9.9-8.2c-1-0.8-1.4-2.3-2-3.6c-0.7-1.4-0.9-3.1-2-4c-1.8-1.5-1.8-3-1.4-5.1C10.9,1016.6,10.9,1015,9.3,1013.7z
		 M67.9,392c0-0.3-0.3-0.5-0.7-1.2c-1.4,1.9-1.8,3.7-1.9,5.5c-0.3,4.8-1.1,9.5-2.5,14.1c-0.9,3.1-2.1,5.9-4.2,8.4
		c-1.2,1.5-1.5,3-0.9,4.8c1.1,3.1,2,6.2,3,9.3c0.2,0.5,0.5,0.9,0.8,1.4c1.6-0.6,1.5-2,1.7-3c0.7-3.5,1.4-7,2-10.5
		c0.7-4.4,1.4-8.8,2-13.2c0.3-2.3,0.7-4.5,0.7-6.8C68.2,397.8,68,394.9,67.9,392z M149.5,59.3c0.3-0.4,0.7-0.7,0.9-1.2
		c0.1-0.1-0.3-0.5-0.6-0.9c-0.4,0.5-0.8,0.8-1,1.2C148.8,58.7,149.2,59,149.5,59.3z M185.8,132.2c-0.6,0-1.1-0.1-2.4-0.1
		c0.8,0.7,1.1,1.1,1.4,1.1c0.3,0.1,0.7-0.2,1.1-0.3C185.9,132.7,185.8,132.4,185.8,132.2z M191.5,513.2c1.2-0.1,2-0.8,2.1-2
		c0.1-1.1-1-2.2-2.2-2.3c-1.4-0.1-2.4,0.7-2.5,1.9C189,512,190.3,513.3,191.5,513.2z M206,508.3c1.1-0.1,2.2-0.1,3.2-0.4
		c3.1-0.6,6.2-1.1,9.2-2c2.3-0.7,4.6-1.4,7-1.1c4.3,0.5,8-1.6,12-2.6c1.2-0.3,1.7-1.4,1.3-2.6c-0.4-1.3-1-2.6-1.8-3.8
		c-0.6-0.9-1.4-1.7-2.3-2.3c-4-3.1-5.1-7.3-2.2-13.2c1.4-2.7,2.1-5.5,2.2-8.4c0.3-9.3,1-18.5-0.3-27.8c-0.3-2.5-0.6-5-1.1-7.4
		c-0.8-3.5-1.3-7.1-1-10.7c0.2-1.7,0.4-3.5,0.9-5.1c1.7-5.4,2.2-10.8,0.9-16.5c-1.1-4.7-0.8-9.5,0.2-14.3c0.6-2.7,0.8-5.6,0.8-8.4
		c0.1-4.9,0.1-9.8,0.8-14.7c0.6-4.2,0.4-8.5,0-12.7c-0.4-4-0.1-7.9,0.8-11.7c0.4-1.9,0.3-3.4-0.5-5c-0.5-0.9-0.7-2.1-0.6-3.2
		c0.4-4.3,1.9-8.3,4.3-11.8c2.7-3.7,2.9-4.1-1-7.2c0.4-4.2,1.4-8.4,3.5-12.3c1.2-2.2,1.8-4.3,1.4-6.8c-0.5-2.8-0.6-5.6-0.8-8.4
		c-0.5-5.2-1.1-10.4-1.7-15.6c0-0.2-0.1-0.4-0.1-0.6c-0.5-3.5-0.8-7.1-1.6-10.6c-1.6-7.5-3-15.2-6.7-22.2c-1.4-2.7-1.8-6-2.9-8.9
		c-2.2-6.4-4.5-12.8-6.8-19.1c-0.8-2.1-1.7-4.3-4.1-5.2c-1.4-0.6-1.9-1.8-1.8-3.2c0.1-2.3-0.5-4.3-1.6-6.5c-1.2-2.4-1.3-5.5-1.6-8.3
		c-0.3-2.7-0.3-5.4-0.6-8.1c-0.1-1.1-0.6-2.3-0.9-3.3c-2.1-0.5-3.4,0.2-4.6,1.6c-2.2,2.7-4.8,4.6-8.4,5.1c-2.7,0.4-5.3,1.8-7.6,4
		c2.6,2.5,5.2,4.4,7.2,6.9c2,2.5,3.6,5.5,5.2,8.3c1.6,2.8,3,5.7,4.5,8.6c-0.2,0.1-0.3,0.3-0.5,0.4c-3.7-2.8-7.4-5.6-11.1-8.3
		c-5.6,4.2-7.5,8.7-5.7,14.6c0.5,1.6,1,3.2,2,4.4c7.3,9.7,9.9,21,11.5,32.7c1.3,8.7,2.3,17.5,2.9,26.3c0.5,7.3,1,14.6,2.3,21.8
		c1.2,7,2.3,14,3.7,20.9c0.6,2.9,0.3,5.3-1.8,7.5c-2.4,2.6-3.2,5.6-3.3,9.2c-0.2,11-1,22-1.3,33c-0.4,16.6-0.6,33.1-0.9,49.7
		c-0.3,17.1-0.5,34.3-0.7,51.4c0,2.3-0.2,4.6,0,6.9c0.3,2.9-0.7,5.2-2.6,7.4c-4.9,5.4-9.6,11-14.7,17
		C194.6,507.6,200.1,508.8,206,508.3z M192.2,191.9c-1.2-1.7-2.1-3.1-3.2-4.7h-3.2C187.7,190.1,189,191.1,192.2,191.9z M185,144.4
		c2.2-1.1,4-0.4,5.8,0.8c0.6,0.4,1.2,0.9,1.9,1.3c4.4,2.5,8.1,1,9.7-3.7c1.6-4.7,1.6-4.7-2.9-6.2c-1.9-0.6-3.7-1.2-5.5-2
		c-0.7-0.3-1.4-1-1.9-1.6c-1.5-1.9-3.6-2.1-5-0.1c-1.5,2.1-3.7,2.3-5.8,1.8c-1.6-0.4-2.9-0.6-4.2,0.6c-1.3,1.2-2.4,0.3-3.3-0.9
		c-0.7-0.9-1.6-1.3-2.5-0.6c-0.8,0.6-1.6,1.4-2.3,2c0.4,0.7,0.5,1.2,0.7,1.5c2.6,3.3,5.2,6.5,10,6.5c0.7,0,1.5,0.4,2.2,0.5
		C182.9,144.4,184.1,144.8,185,144.4z M182.7,504.2c0-0.3,0-0.7,0-1c-1-0.5-2-0.9-3.5-1.6c-0.3,1.2-0.5,2.1-0.9,3.6
		C180.2,504.8,181.5,504.5,182.7,504.2z M60.2,955.3c1.8-1,1.5-2.5,1.8-3.8C60.2,952.2,60,953.5,60.2,955.3z"/>
	<path d="M156.8,75.6c2.1-1.8,4-4.3,6.5-5.2c3.5-1.3,7.3-1.7,11.2-1.7c3.6,0.1,6.4,1,9,3.6c1.3,1.3,1.8,2.1,0.7,3.5
		c-0.4,0.6-0.6,1.1-0.7,1.7c-3.4-1.1-13-2.9-13.2-2.8c-0.1,0-0.5,0.1-1.1,0.2c0.1-0.1,0.2-0.1,0.3-0.2c-3-0.6-5.4-0.5-7.6,1.1
		c-1.5,1.1-3.1,2-5.2,1.4C156.7,76.6,156.5,75.9,156.8,75.6z M161.7,81.7c1.3,1.4,2.4,0.7,3.4,0.2c4.5-1.9,8.5-1.7,12.1,0.6
		c-0.1,0.3-0.2,0.5-0.3,0.8c-0.5-0.5-1.1-0.8-2.1-0.8c-0.4,1-0.7,1.9-1.1,2.8c-1.5,3.2-3.8,3.5-6,0.7c-0.5-0.6-1-1.3-1.7-2.1
		c-2.8,3.7-2.9,3.7-5.7,1.5C160.9,84.3,161.3,83.1,161.7,81.7z M172.9,83.8c0.3-0.1,0.6-0.6,0.6-0.9c0-0.3-0.5-0.7-0.8-0.7
		c-0.3,0-0.5,0.5-1,1C172.3,83.5,172.7,83.9,172.9,83.8z"/>
	<path d="M202.9,85.8C202.9,85.8,202.9,85.9,202.9,85.8l1.5,0.1l1.1,0c0,0,0-0.1,0-0.1l-1.1,0L202.9,85.8z"/>
	<path d="M203.5,84.4c0.2-0.1,0.3-0.1,0.5-0.2c0.4-0.2,0.8-0.3,1.2-0.3l-0.4-0.1C204.4,84.1,203.9,84.3,203.5,84.4z"/>
	<path d="M202.1,85.1c0.2,0.1,0.6-0.3,0.8-0.4C202.7,84.8,202.4,85,202.1,85.1z"/>
	<path d="M202,85.1C202.1,85.1,202.1,85.1,202,85.1c0.2,0,0.4,0.1,0.5,0.2C202.4,85.2,202.3,85.1,202,85.1
		C202.1,85.1,202.1,85.1,202,85.1z"/>
	<path d="M215.8,79.1c-0.5-0.1-4.7-1-4.7-1l-6.4-0.3l-3.2,0.3h-1.3c0.1-0.6,0.3-1.2,0.4-1.7c0.8-2.8,2.3-3.9,5.1-4
		c1.6,0,3.2,0.1,4.9,0.2c5.6,0.3,10,2.7,12.9,7.6c0.8,1.3,1.2,2.5-0.3,4C221,81.9,218.8,79.7,215.8,79.1
		C215.8,79.1,215.8,79.1,215.8,79.1z"/>
	<path d="M125.7,97c-0.2,2,0.4,3.6,2.1,5.3C128.2,99.7,126.9,98.4,125.7,97z"/>
	<path d="M195.2,112.8c1,0.2,1.9,0.4,2.9,0.7c0.7-1.2,0.9-2.3-0.5-2.7C196.4,110.5,195.5,111.2,195.2,112.8z"/>
	<path d="M107.5,257.1c0.3,0.3,0.4,0.5,0.7,0.7c0,0,0.4-0.3,0.4-0.4c-0.1-0.3-0.3-0.5-0.5-0.7C108.1,256.7,107.8,256.9,107.5,257.1z
		"/>
	<path d="M116.4,253.6c0.2,0.2,0.3,0.3,0.3,0.4c0.2-0.2,0.4-0.4,0.6-0.6c0,0-0.1-0.2-0.2-0.3C116.9,253.3,116.6,253.4,116.4,253.6z"
		/>
	<path class="st0" d="M187,187.6c1.9,2.9,3.2,3.8,6.4,4.7c-1.2-1.7-2.1-3.1-3.2-4.7C189.4,187.6,188.4,187.6,187,187.6z"/>
	<path class="st0" d="M298.1,528.2c0.1-3.3,0.1-3.3-2.1-4.4C296.7,525.2,297.4,526.7,298.1,528.2
		C298.1,528.2,298.1,528.2,298.1,528.2z"/>
	<path class="st0" d="M171.7,83.2c0.5,0.3,1,0.7,1.2,0.6c0.3-0.1,0.6-0.6,0.6-0.9c0-0.2-0.5-0.7-0.8-0.7
		C172.4,82.3,172.2,82.7,171.7,83.2z"/>
	<path d="M213,84.8c0.1,0.1,0.3,0.1,0.4,0.2l-0.2-0.2L213,84.8z"/>
	<path d="M210.4,85.9C210.5,85.9,210.5,85.9,210.4,85.9C210.5,85.9,210.5,85.9,210.4,85.9C210.5,85.9,210.5,85.9,210.4,85.9z"/>
	<path d="M204.6,88.1l0.1,0.2C204.7,88.2,204.7,88.1,204.6,88.1C204.7,88.1,204.7,88.1,204.6,88.1z"/>
	<path d="M229.6,93.7c0.1,0.4,0.3,0.8,0.6,1.6c0-0.4,0-0.9,0-1.3c0-5.4-0.3-10.8-0.9-15.9c0,0.4-0.1,0.8-0.1,1.3
		C228.6,84.1,228.8,88.9,229.6,93.7z"/>
	<path d="M200.2,78.1h1.3l3.2-0.3l6.4,0.3c0,0,4.2,0.9,4.7,1c0,0,0,0,0.1,0c3,0.5,5.2,2.8,7.4,5c1.5-1.5,1.1-2.7,0.3-4
		c-2.9-4.8-7.3-7.3-12.9-7.6c-1.6-0.1-3.3-0.2-4.9-0.2c-2.9,0.1-4.4,1.2-5.1,4C200.5,76.9,200.3,77.5,200.2,78.1z"/>
	<path d="M210.4,85.9C210.5,85.9,210.5,85.9,210.4,85.9C210.5,85.9,210.5,85.9,210.4,85.9C210.5,85.9,210.5,85.9,210.4,85.9z"/>
	<path d="M202.5,85.3c0.2,0.1,0.2,0.3,0.3,0.5h0.1C202.9,85.6,202.7,85.4,202.5,85.3z"/>
	<path d="M195.2,112.8c1,0.2,1.9,0.4,2.9,0.7c0.7-1.2,0.9-2.3-0.5-2.7C196.4,110.5,195.5,111.2,195.2,112.8z"/>
	<path class="st0" d="M210.9,87.3c0.6,0.3,1,0.7,1.2,0.6c0.3-0.1,0.6-0.6,0.6-0.9c0-0.1-0.2-0.3-0.4-0.5c-0.2-0.1-0.3-0.2-0.4-0.2
		c0,0,0,0-0.1,0C211.5,86.5,211.3,86.9,210.9,87.3z"/>
	<path class="st1" d="M206.4,80.1L206.4,80.1z"/>
	<path d="M214.1,87.1L214.1,87.1z"/>
</g>
</svg>
