<svg id="phone" xmlns="http://www.w3.org/2000/svg" viewBox="0 0 6095.27 1774.12"><defs><style>.cls-1{fill:#a5a5a5;}.cls-2{fill:#7a2121;}.cls-3{fill:#b7446e;}.cls-4{fill:#808082;}.cls-5{fill:#fff;}</style></defs><title>phonebooth</title><g id="phonebooth"><path class="cls-1" d="M105,676l-.44-.4L20.64,599.88h0V600l-.27,2.62v.11c-.13,1.16-.26,2.31-.38,3.47v.11c-.08.85-.17,1.71-.26,2.56V609l-1.51,13.94c-.75,7,0,.06,0,.09L11.8,681.78l-.15,1.42h0l-3,28.2Q7.94,718,7.21,724.65h0L7,726.28l1.58,1.15V1151l4.06-2.26.26-.14h0l.12-.07h0l1.12-.62h0l5.22-2.89.28-.16h0l19.86-11h.06l1-.53.09,0,15.21-8.45,1.06-.58,13.11-7.3h0l1.79-1,.17-.09,2.05-1.14.14-.08,1.28-.75.15-.08.51-.29.16-.09,1.5-.81.14-.08.65-.35.21-.12,6.55-3.63.22-.12,1-.55.17-.09L88,1107l.17-.1,1-.56.18-.1,1.33-.75.18-.1.49-.27.18-.1,1-.52.18-.11h.06l.18-.11c.9-.48,1.79-1,2.68-1.5l.08,0,11-6.13.12-.06.17-.1,1-13.3v-.09c.07-1,.13-1.9.21-2.85v0l3.12-43.54c.08-1.19.17-2.38.26-3.58q5.39-75,10.77-150c.22-3,.43-6,.65-9q.91-12.63,1.82-25.26v-.25a3.12,3.12,0,0,1,0-.68v-.22c0-.75.11-1.51.16-2.3v-.13c.22-3,.44-5.95.65-8.93h0l.09-1.28h0c.07-.86.12-1.72.19-2.58.09-1.21.19-2.43.35-3.64l.45-7.52v-.08l.63-6.46.12-1.32h0l.76-7.83v-.34c.09-1.21.18-2.4.26-3.61v-.07c.13-1.79.25-3.58.39-5.36V796l.42-5.83h0c.05-.56.08-1.12.13-1.67h0l.7-9.71v-.17c.18-2.45.35-4.91.54-7.35v-.1L131,767V767l.15-2v-.15c.08-1,.15-2,.22-3v-.1q.5-6.95,1-13.9v0c.06-.87.12-1.72.19-2.58v-.06q.54-7.67,1.11-15.34h0c.17-2.4.35-4.79.53-7.2.27-3.6,0-.06,0-.09,0-.62.08-1.25.14-1.86v-.11c.14-1.94.27-3.9.42-5.84v-.11c.06-.75.11-1.51.17-2.26v-.12c.1-1.34.19-2.69.29-4v-.06c.1-1.47.21-2.93.32-4.4Q120.31,689.8,105,676ZM7.37,726.4,7.53,725l1.08.69.37.25v1.58Z"/><path class="cls-2" d="M272.25,793.43c3.22-.51,5.31,1.24,6.95,4.24,1.13,2.09,2.72,3.67,3.34,5.48,1.5,4.12,1.86,10.54,2.15,16.51.28,6.21,1,13.17.62,17.52a8.73,8.73,0,0,1-.85,3.17c-.51,1-1.24,1.75-1.24,2.49s1,2.6,1.47,4a66,66,0,0,1,2.71,13.54c.4,6.73-.33,13.79-.62,20.52s-.29,13.85-.23,20.69c.18,13.63-.27,27.25.63,40.76s1.07,27.3,1.07,40.93-1.69,26.91-1.69,40.13c0,6.95.18,13.69.63,20.47.45,6.45,1.41,12.94,1.46,19.44.12,6.73-.56,13.54-.39,20.46.39,20.07-.11,40.76-1.07,61.23-.34,7.46-.85,12.09-.85,20.06s-1.58,16-8.2,15c-3.28-.45-5.82-6.16-6.5-9.89-1-5-.62-11.08-.45-16.51.68-16.45.45-34.43.45-50.88,0-11.76-1-22.78-.45-34.2.51-10.91.45-22.27.45-33.58s-.85-22.44-.85-33.75c0-16.55,1.08-33.81.39-50.88-.17-5.42-1.07-10.79-1.24-16-.4-11.76,1-22.84.62-33.81-.4-12.55-3-23.17-2.94-36.75,0-2,.12-4.24.23-6.33s.79-4.18.62-5.88-1.58-3.16-1.92-4.86c-1.47-8.14-1.69-19.61-.79-28.72.28-3.05,1.19-5.87,1.5-8.65.56-6.65-1.58-14.78,5-15.86Z"/><path class="cls-3" d="M248.86,1181.89a55.57,55.57,0,0,1-11.4,1.7c-21.56.23-44.59.23-67.23-1.7-10.11-.85-20.95-2.09-32.69-2.54-5.64-.23-10.73-.11-16.88-.63-5.58-.45-12.42-.45-12.87-4.62-.34-3.22,3.32-6.5,3.76-9.49-5.19-22.14-2.93-46.36-2.93-70.48,0-11.8-1.47-23.72-1.47-35.63,0-12.2-.22-24.2-.22-36.33,0-18-2.38-35.07-1.51-54,1.14-23.91.76-48.56,1.7-72.81.23-5.89,1.19-11.84,1.08-17.57-.17-4.81-1.51-10.59-1.69-16.48-.4-8-1.7-18.58,3.16-22.2-4.25-3.69,1.31-6.47,5.9-4.65.85-8.84-3.29-23.18,1.46-28.79.76-.85,2.26-1.51.45-1.93-1.5-.4-.28.34-1.07,1.93-2,4.2-5.38-.11-6.34-3.18-1.7-5.6-2.55-12.91.62-18-2,.4-4.58-.06-5.27-1.87-2.25-6,9.18-10.82,12.69-12.51a141.93,141.93,0,0,1,39.36-11.85c7.38-1.12,16-.62,24.14-1.07,3.34-.18,8,.51,12.23.67,12.4.52,23,1.65,31.94,5,6.23,2.43,12.92,3.45,18.41,6.34a96.18,96.18,0,0,1,15.23,9.52c13.37,1.36,12.35,18.93,6.35,28.38-1,1.58-3.46,3.46-3.77,4.65-.39,1.36-.17,4.08-.22,6.11-.11,4,0,7.71-.23,12-.06,2.09-.51,4.31-.17,5.95.23,1.3,2.15,3.23,2.72,4.87,1.86,5.16,2.09,12.18,2.54,19.27,1.42,20.51,2.32,41.38,2.32,62,0,27.42-4.58,54.17-3.4,82.76.63,14.11-.4,28.68-.4,43s-.75,42.53-.75,42.53.62,41.66.62,63.73c0,3.55-.11,7.17,0,10.73.45,9,1,18-5.87,20.67-4.78,1.92-7.48-.75-10.31-3.56ZM180,770.25h0c-.75.23-.45,2.38-.22,2.94,9.78-.85,21.06-.05,31.08-.62-10.17-1-20.23-1.92-30.85-2.32Zm-14.35,8.59h1.5C167.29,778,165.76,778.5,165.67,778.84Zm-49.62,3.62h0a4.93,4.93,0,0,0,2.16,2.15c.17-1.3,1.24-1.75,1.5-3-1.19-.51-2.32.76-3.62.85Zm9.55,23.47h0c1.19,9.55-.75,19.45-1.07,28.88,31.24.91,63.4,1,93.53,2.55,10.22.56,20.23,1.5,30.18,1.5-.57-10.18-2.44-21.07-.86-31.43-4.18-2-9.2-1.5-14.18-1.5-35.54,0-71.66.22-107.59-.63-.29,0-.29.58,0,.63Zm104.66,39.12h0c-1.69,2-6.27,1.08-9.72,1.3.05.76.9.76.85,1.7,9.1-1,21-1,29.55.4.23-.76.76-2,.23-2.72-5.14.68-11.64,1.75-16.9.4-.75-.29-.17-1.08-.85-1.08Zm-25.58,1.63h0c4.3-.63,9.38,1.69,11.81-.23C212.73,846.56,207.4,846.17,204.68,846.68Zm-75.55,6.5h0a8.22,8.22,0,0,0,5.09-1.87c2.54,1.3,5.93.34,9.49,0,12.27-1.24,25.88-2.14,38.83-2.14,3,0,9,.22,12-.18,1.19-.17-1.64-.22-2.76-.22-21.93,0-43.85-.28-63.75-2.09.33,2.2.84,4.24,1.07,6.5Zm67.36,2.32h0c1.35.67,5.19.22,5.48-.4-2.32-.56-4.58.85-5.48.4Zm35.16,11.42h0c-.28-.12-.56.22-.85.22-5.54.34-11.86.06-18.36.23-23.06.51-50.41-1.51-69.22,2.94-1,2.72-.46,5.94-1.47,8.88-.4,1-1.69,1.8-1.92,2.71-.34,1.31.34,3.34.45,5.09.29,5.88-.05,10.68.4,16.06.29-1.64.34-4.59,2.09-4,.45.4.45,1.24.45,2.09-.85-.06-.4-.68-.85.62-1,2.77-.62,7.53-.62,11.42v12c0,24.7,1.47,47.88,1.47,71.17,0,32.5.27,64.22-.46,95.43,31.82-.68,61.7,1.64,90.76,2.94.28-27.76.85-55.51,3.39-80.45,2.72-25.95,2.49-52.57,4-80,.75-12.72,2-26.33,1.92-40.14-.11-8-.05-14.19-1.69-19.84a5.53,5.53,0,0,1-3.4-4c-3.76,3.76-4.51-2.61-6.09-3.4Zm-107.78,15.8h0c1.47-.85,1-3.06,1-5a77,77,0,0,0-.39-10.57C124.27,872.15,123.47,877.8,123.87,882.72Zm14.75,56.81h0c-.28-4.58.62-10.23,0-13.74C138.34,930,137.72,935.51,138.62,939.53Zm-4.36,8.06h0c.22,8.76.79,17.24,1.46,25.58-.11-8.88-.67-17.31-1.07-25.95a.28.28,0,0,0-.39-.23v.6Zm-5.49,13.9h0c.29,10.29.34,22.57,1.24,33,2-2,1-5.65.85-9-.34-8.28,0-17.19-1.07-24.08-.52-.1-.46.4-1,.18Zm-5.94,71.8h0c-.11,2.49-.75,5.59-.4,7.18.23,1.13,1.65,1.81,2.1,3.17s-.06,2.26.62,3.39c-.06-21.37.11-44.26-.85-64.16.29,16.27-.75,34.87-1.5,50.41Zm13.73,35.89h0c0,1.36-.11,3.11,1.51,3-.11-7.74.28-17.3-.23-23.86.29,6.9-1.4,14.54-1.24,20.87Zm7.58,30.18h0c-.68.06-.9-.34-1.69-.17C142.28,1099.94,144,1099.7,144.14,1099.36Zm-24.93,8h0c1.92,0,.62-2.32.22-3.17C119.61,1105.53,119.09,1106.16,119.21,1107.4Zm22.83,2.37h0c.68,0,1.24,0,1.47-.45C143.06,1109.49,141.87,1108.92,142,1109.77Zm-8.64,53h0a29.37,29.37,0,0,0,6.1-.61C137.63,1162.34,133.4,1159.69,133.4,1162.74Z"/><path class="cls-4" d="M364.59,739.44c-.29-1.24-1.76-1.3-2.32-2.32-.51,0-.75.34-1,.63C361,734.8,365.27,736.56,364.59,739.44Z"/><path class="cls-4" d="M297.68,886.19c-4.07-.28-7.45,2.32-10.73,1.51.79-1.36,3.28-1.36,5.26-1.7,1.81-.33,4.46-1.46,5.49.23Z"/><path class="cls-4" d="M295.37,894.62c3.1,22,3.76,50.31,3.61,73.88-1.3-.9-.79-2.76-.85-4C296.83,942.05,297,917.09,295.37,894.62Z"/><path class="cls-4" d="M289,969.35c-2.15-4.81-1.19-10.69-1.51-16.45s-.22-11.76-.22-17.75c0-13.11-.29-27.48.45-38.61a.94.94,0,0,1,1.07-.68c.4,22.9.76,50.14.17,73.49Z"/><path class="cls-4" d="M291.57,896.09c1,.79.79,2.49.85,3.62.91,17.07,1.08,36.34,1.08,55.06,0,2.65.68,5.71-.85,7.85-1.47-.56-.85-2.43-.85-3.39-.23-20.13-.75-42.06-.85-62.53a1,1,0,0,0,.22-.62Z"/><path d="M138.21,727.29c-.86,1-1.19,2.2-2.32,2.54-3.17.85-7.23-3.56-9.5-5.48-5.7-4.92-10.73-9.11-15.59-14.36-3.17-3.39-5.66-6.16-7.63-10-.91-1.8-3.34-2.65-1.51-4.24,8.59,3,15.37,10.17,21.3,16.28,2.6,2.61,5.2,5,7.86,7.41s5.82,4.58,7.35,7.8Z"/><path d="M28.07,790.6a1.1,1.1,0,0,0,.62.23c1.47,12.72.57,30.18.85,44.15-.05.9.52-.23,1,0a2,2,0,0,1-1.64,1.86,3.5,3.5,0,0,1-1.08-2.49c-.67-5.2.06-11.08-.22-16.73-.4-9-.29-18.2-.23-26.57C27.56,790.89,28,790.94,28.07,790.6Z"/><path d="M32.47,840.46c-.56-7.52-.62-16.11-.62-24.47s.06-17,1.5-23.86c.06-.29.4-.17.4-.45.4-.06.4.22.68.22-.06,14-.4,28.84-1.08,43.48,0,1.69.18,4-.84,5.08Z"/><path d="M37.33,794.64c1.42,14,1.36,31.83,1.24,46.07-2.25-2.38-1.69-6.33-1.86-10s-.29-7.57-.45-11.42c-.34-8.27-.76-17.58.22-24,0-.57.29-.75.85-.68Z"/><path d="M178.72,812c-.75,1.19-3.16.75-5,.85-.57,1-.06,2.83,0,4,.67.28,3.67-.63,3.76.75a8.55,8.55,0,0,1-3.76.45c-.52,2.26-.12,5.43-.23,8,1.41.4,5.93-1,6.1,1.24-2.14.75-6.5.34-8.19.85-.75-5.09-1.69-12.49,0-17.07,1.58.35,5.76-.23,7.34.85Z"/><path d="M145.83,812.14c-.67,2-3.55.45-5.71.85.18,4.7.68,10.54-.61,14.36a9.1,9.1,0,0,1-2.32-.4c-1.19-3,.4-7.52,0-11-.17-1.24-1.35-2.09-.68-3.17-1.24-.56-3.84.17-4.63-.85-.06-.34.22-.4.22-.68C136.06,811.41,142.64,810.53,145.83,812.14Z"/><path d="M157.42,812.14c-1.24,1.51-4.07.34-6.73.68-.51.85-.11,2.6-.22,3.76.9.23,3.56-.75,4.63.23-.51,1.19-2.43,1-4.23,1a29.64,29.64,0,0,0,0,7.41c2.82.51,6.72-1.51,7.85.62-1.24,1.64-5.36.45-7.63,1.08-.39.45-.33,1.5-1.07,1.69-1.13-.28-1.42-1.35-2.32-1.92.62-4.81-.45-10.28.23-15.2,2.14-.29,7.29-.34,9.49.62Z"/><path d="M161.88,811.12c2,3.76-.17,10.46.85,15.21,2,1.24,5.71-1.13,6.73,1-2.83.4-7.46,1.42-9.5,0a96.73,96.73,0,0,1,0-15.6c.12-.76,1-.67,1.92-.62Z"/><path d="M184,821c-.45,2.72,1,7.41-2.31,7.18-1-4.69.16-10.91-.23-16.45a1.05,1.05,0,0,0,.62-.62c2.1,1,4.35,0,6.33.62,2.83.91,3.34,5.32,1.92,7.58C189.35,820.9,186.92,821,184,821Zm0-1h0c3.77.11,5.65-2.72,4-6.16a13.37,13.37,0,0,0-3.62-1c-.61,1.87-.33,4.69-.39,7.18Z"/><path d="M194.78,811.52a24.25,24.25,0,0,1,.67,7c1,.56,2.83.29,4,.68,1.08-2.77-1.58-7.92,2.55-7.41,1.69,3.56-.06,8.88,0,13.07,0,1.5.75,3.16-.63,4-3.33-.12-1.75-5.43-1.92-8.2-1-.4-2.54-.22-3.76-.45-.9,2.77,1.3,8.65-2.54,8.48-1-4.41-.85-12.21-.18-16.9a1.69,1.69,0,0,1,1.87-.23Z"/><path d="M210.43,812c10.73-2.49,11,17.07,2.31,17.69-2.31.18-5.48-1.07-6.55-2.31-2.32-2.55-2-9.67-.22-12.44A7.5,7.5,0,0,1,210.43,812Zm2.71,15.6h0c4.57-.75,5.14-10.06,1.5-12.66-1.35,0-2.66-1.3-3.76-.85-5.37,2-3.61,14.47,2.32,13.54Z"/><path d="M244.9,812.59c-.34,1.87-3.62.76-5.31,1.25v3.76c.85.56,2.88-.18,3.17.85-.23,1.13-1.64,1-2.94,1.07-.46,2.32-.12,5.38-.23,8,1.24.75,3.76.17,4.86,1.08-.29,1.07-1.92.85-3.17,1-2,.29-4.12,1.13-5.87,0-.39-5.08.9-12,0-17.07,1.64-1.3,7.17-.75,9.49,0Z"/><path d="M232.13,812.37c1,3.62.05,8.59.22,12.66.11,1.81.79,3.76-.62,4.86-2.15-.51-3.16-3-4-4.86-1-2-1.81-4.07-2.77-5.88-1.13,3.06,2.38,15.32-3.33,10.12a80.23,80.23,0,0,1-.23-16.9c1-.57,1.64.28,2.54.45,1.42,4.41,4.35,7.29,5.71,11.81.91-2.48-2.26-14.41,2.49-12.26Z"/><path d="M103.72,822.71c-5-1.18-8.82-3.56-13.1-5.48v-.63a1,1,0,0,1,.62-.22C96,817.88,100.5,819.66,103.72,822.71Z"/><path d="M90.29,821.73c1.18,14-.68,29.11-1.25,42.68-.06,1.58.68,4.86-.85,5.71-1.69-3.33-1.24-7.69-1.07-11.65.56-11.64,1.24-24.76,2.14-36.06a1.2,1.2,0,0,1,.63-.68Z"/><path d="M94.13,863.06c-2-1.07-1.69-4.74-1.92-7.4-.79-9.78-1.92-21.25-.85-31.26.06-.45.17-1.51.63-1.69.06-.18.75-.63.67-.23h.39c1.25,12.79.06,28,1.08,40.58Z"/><path d="M269.08,824c1.92,1.35,1.64,7,1.47,9-1.75-1.64-2.71-6.21-1.86-9Z"/><path d="M274.34,824.63c1.08,2.15,0,5.54.23,8.2.28.39.85-.51,1.47,0,.62,2.38,1.24,6.5.45,8.87-1.42-.75-1.24-2.94-1.51-4.86-.56.23.06,1.51-.45,1.7-1.41-.91-2-5.43-2.32-8.66-.17-2,.29-4.29,1.31-5.26Z"/><path d="M101.7,868.33c-3.56-.22-5.88-1.69-8.19-3.17-.23-.67.28-.67.39-1.07C96.73,865.28,99.92,866.13,101.7,868.33Z"/><path d="M276.46,867.88c.17,0,.17.11.22.23,2.38,45.14.79,93.29.5,140.64V1132.9c.12,3.33.23,8.47.29,13.11.06.51.91,3-.79,3.17-2.09.11-1.07-5.43-1-7.41V1008.92C275.38,961.6,274,914,276,868.55c.22-.17.16-.62.45-.67Z"/><path d="M90.74,869.13c.4,11.81.34,25-.85,35.9-1.87-2-1.08-5.43-1.08-8.28,0-8.82.11-19.11.85-27,.11-.29.4-.34.45-.62Z"/><path d="M33.72,900.73h.68c.17,11.29.67,23.32,1.24,33.58C32.58,925.83,32.58,911.3,33.72,900.73Z"/><path d="M102.77,909.31c-3.44,0-7.68-.75-9.49-3-.06-.33.17-.33.23-.62,2.94.45,6.95,1.7,9.26,3.62Z"/><path d="M91.81,909c1.13,1.24.63,3.33.63,4.86,0,11.7-.18,25.49-.45,36.74-2.49-1.64-2-5.76-2.1-9.1-.27-10.46.06-23,1.25-31.83a.61.61,0,0,1,.45-.67Z"/><path d="M94.3,909.59c.22-.07.22.06.22.17H95c1.19,10,0,23.63-.22,34,0,1.07.56,3.05-.85,3.56a256.11,256.11,0,0,1,0-37.37c.06-.23.4-.12.4-.39Z"/><path d="M104.24,949.39c-1.69,1-4.8,0-6.95-.22-1,0-2,.68-2.32-.4,0-.56.06-.9.63-.85a14.77,14.77,0,0,1,8.64,1.5Z"/><path d="M91,956.57c.18-.06.18.11.18.23,0,10.68,1,22.67,0,33-1.7-1.5-1.36-4.51-1.51-7.18-.28-7.68-.23-19.05.85-25.37.11-.28.39-.34.44-.63Z"/><path d="M104,988.46c-1.7,1-4.35.11-6.73,0-1.64-.06-3.67.51-4.63-.63-.06-.62-.06-1.12.62-1.07C96.73,986.59,101.31,987.16,104,988.46Z"/><path d="M105.32,1059.4c-3.76,1.64-9.38,2.6-13.51,3.17,1-1.87,4-1.87,6.33-2.32S103.11,1059.12,105.32,1059.4Z"/><path d="M40.27,1123.63c.34-.06.4.17.63.17,1,3.51.22,8.76-.79,11.65C39,1132.56,39.82,1126.9,40.27,1123.63Z"/><path d="M140.36,1127.81c-.68,9.27.28,21.25-.68,32.35,0,.23.23,3.11-1.64,2.32-1-.4-.62-1.41-.68-3.17,0-7.91-.9-17.13-1.24-24.07-.17-3.11-.17-7.92.62-9.5s2.26,0,3.62.23c3.44.56,7.34,0,11.19.17,11.36.56,21.69.11,33.56.68,15,.67,31.82,1.24,43.85,1.24,1.19,0,5.31-1.3,5.31.85,0,1.92-3.05,1-4.46.85-6.1-.51-12-.45-17.92-.45-23.67,0-48.71-.8-71.53-1.51Z"/><path d="M235.75,1128.7c.75,11.54-.91,22.5-.46,34.43-.79.68-1.64.62-2.93.46,1-.46,1-2.21,1.08-3.17.67-10.06.05-21.54,1.46-31-.06-.34.23-.4.23-.68Z"/><path d="M229.81,1137.73c1,.85.68,3.56.68,5.88a88.25,88.25,0,0,1-.68,14.19c-.9-1.87-.85-4.69-.85-7,0-4,.45-8.27.22-12.43a1,1,0,0,0,.23-.62Z"/><path d="M38.58,1139.24c.11,1-1.19,1-1.87,1.24a175.94,175.94,0,0,1-22.51,7.87h0l-1,.3H13l-.27.08c-1.35.39-2.71.75-4.06,1.16v-1.43c1.45-.5,2.9-1,4.37-1.46h0l1.42-.46h0c1.68-.54,3.37-1.07,5.05-1.59l.31-.1h0C26,1143,32.32,1141.11,38.58,1139.24Z"/><path d="M234.5,1167.49c-2.43,1.3-5.49.56-8.28.45-15.8-.75-33.91-.22-51.31-1.07-11.59-.52-23.06-.52-34.42-1-.85-.06-3.39.56-3.17-1.5,30.1-.34,62.33.56,92.29,1.92,1.42,0,3.91-.34,4.86,1.24Z"/><path d="M9,1170.25v-1C9,1169.59,9,1169.91,9,1170.25Z"/><path d="M347.58,1169.19a.62.62,0,0,1,.45.68c-8.59,7.57-16.11,16.22-25.09,23.41,7.46-8.78,16-16.46,24.64-24.08Z"/><path d="M328.42,1169.63c-1.81,2.5-4.52,4.36-7,6.34-7.4,5.94-15.08,12.5-23,18.15-.22-.63.68-1.3,1.08-1.7C308.13,1184.4,319.32,1177.37,328.42,1169.63Z"/><path d="M318.93,1171.73c.34,0,.39.18.39.46-11,8.27-21.41,17.13-33.1,24.7,1.75-2.61,4.51-4.75,7.17-6.78s5.43-4.07,8.2-6.1c5.71-4.24,11.64-8.59,17.35-12.26Z"/><path d="M87.12,1214.18c-.91,2.66-3.76,3.45-5,5.71,8.87.4,19.72-.45,29.73,0,9.66.46,20.31-.56,25.54,4.64-1.8,3.51-6.84,3.62-11.36,3.76-14.35.57-29.89.51-44.39.23-14.81-.29-27.75-1.51-42.83-2.09-2.37-.12-12.27.11-12.27-2.77,0-2.6,8.14-2.26,12.27-2.32,11.81-.11,22.82-.75,34.81-1.08,2.43,0,5.2.29,7-.22,2.94-.79,3.56-4.8,6.5-5.88Z"/><path d="M319.72,1217.13a36.53,36.53,0,0,0-4.18-.23c-10.4-.75-21-2-32.5-2.49-1,.56-2.32.75-3.39,1.24,12.72.4,25.26,1.14,37.58,1.7C318.08,1217.41,321.69,1217.52,319.72,1217.13Zm-28-49.41-2.2,1.57,0,2.26c2-.49,1-2.75,2.41-3.31A2.49,2.49,0,0,0,291.69,1167.72ZM268,784c-1.73-1.57-3.58-3.07-5.54-4.52h0c-10.88-8.09-25.2-14.41-41.42-18.06h-.13a143.86,143.86,0,0,0-20.85-3.1H200q-3.47-.27-7-.36h-.06c-2-.06-4.05-.07-6.09-.05h0c-1.63,0-3.27.07-4.91.14-14.18.67-27.48,2.26-39,5.42,0,.59,0,1.2,0,1.78a207.26,207.26,0,0,1,37.36-5.08c13.39-.63,27.52,1.24,39.05,3.76,13.46,3,25.8,7.12,36.4,12.85h0q2.35,1.26,4.57,2.63a78.82,78.82,0,0,1,7.26,5c.39.3.75.6,1.17.92l.75.64a4,4,0,0,1,.08-.5A14.92,14.92,0,0,0,268,784ZM85.12,1215.62c-2.31-.19-4.52-.38-6.65-.64-1,.34-.46-1-1.31-.85-1.58,1.36-4.8-.11-7.17,0,1.35-1.69,3.49-2.6,4.46-4.63-2.94.11-4.07,3.76-6.77,4.41-2.89.67-7.17,0-10.54.22-3.56.17-7.06.39-10.34.23-12.33-.76-25.44-1.16-38.16-1.66v3.58c3.16.09,6.32.18,9.45.18,16,0,31.37.9,45,1.91.28.58-1.77,1.6-1.73,2.34a.48.48,0,0,0,.26.38,2.45,2.45,0,0,0,.82-.42c1-.75,1.51-2,3-2.26,2-.45,4.63.75,7.4.23a11.87,11.87,0,0,1-1.33,1.75c-1.24,1.39-2.68,2.6-3.53,4.35,2-.71,3-2.81,4.26-4.37a4.77,4.77,0,0,1,2.47-1.73c1.91-.57,5.19,0,7.62.16H83l.4-.4c.54-.51,1.16-1,1.73-1.5.15-.11.28-.24.42-.36l.41-.41c.13-.14.26-.28.38-.43Zm19.22,4.14h-3.45l-3.43.06c2.45.16,4.79.26,7,.2Zm236.25,3.65c-1.86-.29-3.9-.4-5.7-.63-11.19-1.24-22.83-2.59-34-3.55-15.26-1.3-30.09-3.77-44.92-5.09,4.29-.51,10.73.75,12.65-1.87-2.09-1.58-6.39-1-9.49-1.5,4.51-.9,11.24.28,15.2-1.24a10.74,10.74,0,0,0,.62-4.41c.62.45,1.64.06,2.32,0,8.27-6.56,17.3-13.28,25.54-19.67a31.51,31.51,0,0,0,4.24-3.39c.33-.35.7-.76,1.05-1.16a23,23,0,0,0,2.21-3h0l-.13-.14a3.64,3.64,0,0,0-3.76-.31c.16-1.24-.91-1.41-1.51-1.5-2.43-.11-5.82,5.27-8,5.09-.51-3.28.17-7.75-.62-10.8-1.92,0-2-2.49-4-2.09a1.58,1.58,0,0,0-.31.09c.57,1.43.27,3.76.37,5.65-1.51.06-2.32-1.51-3.62-1.69a5.25,5.25,0,0,0-3,.66c-2.3,1.14-4.68,3.39-6.46,4.59l-2.75,1.88c-2.21,1.5-4.09,2.82-5.67,3.84-.68-2.66,2.6-3.46,4.24-4.47l.42-.27c1.64-1,3.45-2.13,5.06-3.07s3.57-2.3,5.35-3.51c1.25-.86,2.48-1.72,3.64-2.54-.32-16.37-.79-41.47-1.15-61.75v-.19h0c-.34-18.51-.59-32.93-.59-32.93v-.06l.68-16.47h0l.07-1.61v0s-.34-34.51-.43-51.75c.34,0,.63-.23.85-.85a21.81,21.81,0,0,1,1.24-8.65c.52-1.64,1.82-4,.85-4.25-2.14-.34-1.91,3.62-2.93,4.86a29.83,29.83,0,0,1,.42-3.76v-.07s-.11-3.51-.24-8.21v-.3c-.17-5.86-.37-13.48-.42-18.43h0q-.09-7-.16-14c-.06-5.36-.19-13.05-.34-20h0c-.17-9-.34-16.7-.34-16.7v-.68s.23-12.68.23-19c0-2,.44-6.08.51-6.66V887l-.67-11.07v0L287,875v-.09c-.1-3.25-.27-6.38-.56-9.33-.06-1.13-.39-2.43.23-3.39-3.92-2.8-2.26-8.33-1.71-14V848a.21.21,0,0,0,0-.11h0c.33-3.34.4-6.51.84-9,1.92-.56,1.86,1.7,3.16,1.08-.75-1.64.4-2,.63-3.62.29-1.75-.22-4-.39-6.33-.51-7.52-.63-13-2.55-19.22-2.37-7.9-4.51-13.61-10.1-16.9-.11-.56-.34-1.06-.45-1.69a69.52,69.52,0,0,0-6.77-6.41,7.17,7.17,0,0,0,0,1.31h0a2.32,2.32,0,0,1-.3,1.61,2,2,0,0,1-1.14.58,20.2,20.2,0,0,0-1-5.27c-.33-.75-2-.16-2.54-.67a118.54,118.54,0,0,0-34.61-16.67C216.59,763,201.56,760,185.46,760c-21,0-39.4,4.24-54.65,11.24h-.08a100.17,100.17,0,0,0-21.67,13.35h0l-.32.26-.26.21v-.53c-.16-1.18-1-.91-1.88-.65l-.4.12c-.68.18-1.3.21-1.51-.63-.08-.3.11-.7.48-1.17l.19-.24c1.88-2.12,6.88-5.37,8-6.17a50,50,0,0,1,10.74-5.93c.9-.28,1.5-.39,1.92-.16a20.76,20.76,0,0,1,5.06-2.72h.08c2.59-1,5.55-1.91,8.35-2.74,1.12-.34,2.26-.67,3.39-1a13.34,13.34,0,0,1,.11-1.79.59.59,0,0,1,0-.26,2.83,2.83,0,0,1,.66-1.51c-1.14-2.82-.63-7.33-.63-11.8,0-4.7-1.13-11.65,2.32-12.67,1.58-.46,3.16.34,4.63-.4.75-.38.84-1.57,1.69-2.53s2.38-1.75,2.94-2.54a7.25,7.25,0,0,0,1.5-3.77c0-3.84-4.74-6.72-4.63-1.3q-8.06-8.28-16.05-16.63l-.07-.07q-15.22-15.91-30.3-32l-.38-.4C74.34,643.19,44.15,610.55,13,579.29c-1.32-1.31-2.47-3-4.21-3.9v11.15c4,4.57,8,9,12,13.35,8.49,9.12,17.08,17.88,25.3,26.82,8.6,9.27,17,18.71,25.77,27.48,9,9,18.54,17.25,27.25,25.73-1.87.85-3.16-.57-4.24-1.64-3.22-3.28-6.16-6.67-9.27-9.73-21.82-21.82-43.48-44.11-65.1-65.93Q15.25,597.36,10,592.09l-1.43-1.23v3.4c3.62,4,7.36,7.9,11.15,11.78l.18.19c24.08,24.59,47.7,50,71.21,74.39-5.6-.29-10.68-1.08-14.36-3.17,1.64.62,4.19,1.5,5.5.14,2-1.92-1.3-6.11-2.32-7.57a38.22,38.22,0,0,0-5.09-6.11C63.3,652.32,52.16,641.33,41.31,630.1,34,622.52,27,615.55,19.67,608.9h0c-3.59-3.27-7.26-6.46-11.06-9.6v14.59q4.85,4.51,9.54,9c4,3.88,7.9,7.76,11.58,11.79,6.9,7.52,14.13,14.13,21.07,21.14S66,668.57,73,676.09c-.23,0-.29-.16-.45-.22-2.83-1.08-7.92-1.87-8.28,1.3-.34,3.51,4.41,3.57,6.56,5.27-3.22-.12-5.38,2-7,2.77-.4-3.84.76-9.27-.62-12-1.75,2.15-.45,7.29-1.3,10.34a3.39,3.39,0,0,1-2.26-2.33c-.62,1.13-2.39,3.15-2.55,4.4a57.71,57.71,0,0,1,.13-7c-.69-.64-1.38-1.3-2.06-2v12.15c-3.16.28-3,3.87-3.77,6.61-.14,2.84-.24,5.64-.27,8.38s.12,5.71-.85,8.2c-1.13-1.07-.17-2.82,0-4.4a39.61,39.61,0,0,0-.45-10.54c-.22-1.64,0-3.76-1.24-4.63-1.24,1.4-.5,3.76-.39,5.87a83.3,83.3,0,0,1-.23,9.48,2.37,2.37,0,0,1,.23.3q-1.44,5.92-2.72,12c-.19-1.72-.25-3.57-.28-5.45-.37,1.88.09,4.39.23,6.48.45,6.32.17,11.28-2.32,15a4.35,4.35,0,0,1-.61.75c-.76,3.35-1,6.39,2.31,7.35-1.69.38-4.28-2.33-6.27-3.29-.34,1.51.09,3.82-.06,5.17-9.74-6.91-19.56-13.66-29.61-20.2v1.58l-1.61-1.09L7.47,725l-.35-.23-.18,1.64h0l1.67,1.07c8,5.42,16.07,10.78,24.27,16.24,1.75,1.19,5.54,3.4,5.93,4.7.91,2.88,0,7.29,0,10.35,0,3.39-.56,6.5,0,9.9.06,1.13,1.42,0,1.51.85.17,4.68.4,10.06.62,14.58.06,1.29-.22,3.33,1.08,4,1.64-2.15.68-5.49.62-8.28-.28-8.82-.51-17.81-1.07-26.57-1-.75-1.3-2.15-1.08-4,1.82,1.5,4.41,2.2,6.16,3.76-.3,4.06-.49,8.23-.61,12.49a.21.21,0,0,0,.22.23c.22,3.5.33,8.59-.23,11.19-.05-3,.07-6.17,0-9.12-.21,9.94-.08,20.31-.19,30.61-3.69-1.81-7.52-3.61-11.37-5.38h0l-1.14-.52h0c-8.13-3.61-16.45-7.17-24.72-10.58v2.74l18.62,8.28.15.06,1.59.75c.11,0,.21.09.31.14,1.09.46,2.18,1,3.26,1.44l.22.1,1.41.62.19.09,1.75.75.16.07,1.07.49.26.11c2.65,1.18,5.26,2.37,7.87,3.56-.1,17.78.35,34.95.18,52.79-.6-.27-1.2-.53-1.79-.76.28,15,.38,30.2.38,45.42-.17.28-2.53-1.34-4-1.24-.45-14.62-.37-29.81-1.51-43.8-.3,5.39-.58,11.29-.8,17.23h0c.45,7.34,1.35,18.43.62,26.33a1.19,1.19,0,0,1-.94-.17,19.87,19.87,0,0,1-.76,6.23c-.82-.1-1.64-.2-2.47-.32h-.19a4.45,4.45,0,0,1-.71-.09h-.19Q20.79,901,8.61,899.05v2.09c8.27,1.5,16.55,3,24.6,4.77h.07l1.09.25h.14l2.65.61c.51.51,0,2,1.07,1.93.39-.33.55-.91.86-1.33.06-1.19.12-2.35.19-3.5v-.67c.28,0,.39,0,.44.22,0,1.14-.06,2.31-.09,3.5A2.12,2.12,0,0,1,41,907c-1.21,11-1.42,23.1-1.78,35,.82.76-.41,3.64.92,3.91.89-.29-.34-2.77.45-3.62a28.08,28.08,0,0,0,4,.22c.45,14,.06,28.78.17,43.08-1.17-.34-2.75-.29-4-.63.39-11.76.45-24.87-.79-35.67-.61,9.67.34,21.6.4,32.28,0,1,.51,2.72-.62,3.39-.69-12.1-1.23-27.76-2-39.27a18,18,0,0,0-1.86-.2c.06,1,.13,2,.19,3l.1.11-.09,0c.66,11.19,1,23.23,1.13,34.21-1.28-10.54-.84-22.78-1.56-33.86a4.74,4.74,0,0,0-.56,2.3c-.6,6.22.18,13.28.4,19.84.18,3.68.24,7.32.34,10.85.23.18.11,1.92.32,2.49a.49.49,0,0,1-.24-.08c.09,2.26.22,4.45.43,6.58l-2.26-.06c0,.81.07,1.69,0,2.43a4.69,4.69,0,0,0-.75,0v.09a.14.14,0,0,1,0-.09.18.18,0,0,0-.13.15,14.78,14.78,0,0,1-.26-2.65l-1.5-.05a150.08,150.08,0,0,1,.75,23c-.06,1.35-.4-2.43-.4-3.17-.33-7-.22-13.66-1-19.89-7.31-.25-14.75-.61-22.09-.91v2.09c7.28.37,14.48.76,21.25,1.37.5,12.67,0,25.79,0,38.62,1.35-1.42.22-5.2,1-7.18a76.89,76.89,0,0,0,.84,8.28c-7.48.25-15.29.66-23.1,1v2.26c8.09-.36,16.07-.91,23.55-1.17.17,1.58-.51,4,1,4.24.91-.84.17-3.39.85-4.46,1.91.17,4.61-.51,5.06,1.07.4-2.43,6.36.63,7.37-1.69-.45-1.24-2.64-.75-3.38-1.69.23-5.77,1-11.7,1.46-17.92.45-5.54,2.09-12.73,1.24-18.38-.12-1.07-1-2.09-.62-2.54,2.19-.68,1.68,1.81,1.68,2.77.85,22.89-.45,47.26-.22,69.22a337.76,337.76,0,0,0-38,5.2V1076c13.28-1.15,26-2.58,38-4.74a14.92,14.92,0,0,1,4.21,5c-13.43,2.66-28.17,4.62-42.2,7.06v3.91c17.08-2.47,34-4.36,49.8-8.19a14.41,14.41,0,0,1,3.31,4.86c-3,.28-5.95,1.18-9,1.69-14.92,2.53-29.42,6-44.12,9v15.71c11.92-2.35,23.85-4.76,35.52-7.2.51.34.22,1.58.85,1.86.56-.45,0-2,.75-2.31,4.51-.91,8.67-2.15,13.5-2.72-.16,1.42.23,3.33-.22,4.41-17.06,3.08-34.46,7.18-50.41,11.56v1.67c6.24-1.59,12.5-3.16,18.93-4.58-.75,3.06-.45,6.77-.23,10.35.12,2.43.12,5.2,1.69,6.16-.75-5-.17-12.38-.68-16.91,10.75-1.8,20.32-4.8,30.94-6.77-.4,5-.17,10.75-.23,16.06-5.9,1.69-11.79,3.5-17.66,5.35l-.17.05-1.46.46-.12,0c-10,3.16-20,6.41-30,9.3l-1,.3v1.19c1.73-.42,3.42-.75,5-1-.11,2.79-.75,6.29-.66,9.42v.3a6.79,6.79,0,0,0,.07,1.2v.35a0,0,0,0,1,0,0,10.31,10.31,0,0,0,.54,2.19,23.38,23.38,0,0,0,.51-2.49.76.76,0,0,1,0-.33h0c0-.13.05-.27.06-.4.06-.33.09-.66.13-1v-.31c.34-3,.4-6.31.44-9.62,8.27-2.45,16.41-5,24.61-7.47h.13l1.58-.47.14,0c4.83-1.44,9.69-2.86,14.62-4.2l.93-.26,2.14-.58c.11,8.65.22,15.66,0,24.25-11.93,3.51-21.26,10.8-32.36,14.36-.22-2.83,1.29-8.42-.85-9.9-1.68,2-.75,8-.45,10.75-5.26,2.57-10.84,4.9-16.37,7.24h0v1.82h0c16.85-7,33.48-14.18,50-21.49v10.34c-4.73,2.72-9.74,5.15-14.74,7.58-.23-3.12,2-8.83-.4-10.53-2.64,1.58-1.45,9.5-.45,11.19-11.38,6-23.07,12.15-34.7,18.39v5.44h.24l-.24.13v1.7a23.76,23.76,0,0,1,13.46-2.45c-1.46,1-3.16,2-5.06,3.16-1.51,1-3.43,2.66-5,3a11.41,11.41,0,0,1-3.4,0v8.5a7.77,7.77,0,0,1,2.71.67c14.4-.75,30.1.68,45.15.62-.23.68-2.37,1.51-1.46,1.92,1.61-.56,2.3-2.31,4.21-2.54s4.51,1.14,7.14.85c-.44,1.3-3.32,2.26-2.75,3.17,1.17-.45,2.36-2.55,4.21-2.94a32.12,32.12,0,0,1,4.17,0c3.48-.17,10.06,0,15.35-.23,4.38-.17,13,1.08,13.43-1.92.69-4.29-7.69-4.24-10.53-5,25.93,1.5,51.74,3.45,77.73,5.48s53.65,1.3,80,3.4c-32,.5-66.53-1.08-99.31-1.08-9.9,0-20.25-.51-28.59.39-2.19.28-10.06-.34-9.68,2.54.28,2.1,9.5,2.26,12.37,2.55,32.11,3.39,65.35,4.41,98.14,6.33-22.1,0-45.27,1.08-67,1.08a139.75,139.75,0,0,0-18,.68l-.83.12a11.7,11.7,0,0,0-2,.12c1.25.18,2.51.34,3.76.47a171.9,171.9,0,0,0,22.16.38c58.15-1.63,116.13,1.93,173.32,1.93,4.13,0,8.65.62,12.43-1.08-.6-1.76-2.69-1.7-4.11-2ZM40.73,939.67c.06-7.23.06-14.47.39-21.93.23-5,.68-10.53.23-14.81-.11-1.18-.75-1.41-.85-2.49.62-.28,3.45.51,3.76-.67.57,13.28.39,27.19.45,41C44.17,941.25,42,939.79,40.73,939.67Zm-5.32,86.15c-1.3-.11-2,.39-3.33.23,2-7.29,1.81-16.79,2.32-25.58C35.13,1007.73,36,1016.89,35.41,1025.82Zm3-43.27c.34.39.29,1.13.4,1.7H38c.29-.4.23-1.19.46-1.7Zm-.85,43c-.9-13.17,1.51-25.67.39-39.06h.63c1.24.84.11,2.88,0,4-1,11.29,1.13,24.48,1.3,35.27-.92,0-1.37-.39-2.33-.22Zm3.76-9.91c-.79-8.71-1-19.34-.85-27.64h.4c1.47.45,1.58,2,1.7,3.39.75,7.69-1.18,16.79-1.23,24.25Zm5.48-174.56c-.5-2.93-.05-8.64-.22-12.66.75,3.08.3,8.53.24,12.65Zm3.41-94.6c1,.51-.68,1.35-.62,2.32C49,748.15,50,747.13,50.22,746.49Zm.23,4.18c-.85-.17,0-.85.17-1.24.5-.44-.23.87-.17,1.26Zm233,416.62c-.5,1.76-4.18,3.11-6.1,4.41-1.57,1.06-2.88,2.26-4.17,3.15a8.78,8.78,0,0,1-2,1.1c0-3.63-.76-10.9-.76-10.9h0l.56-4.17v-.06l.2-1.4v-.14s0-1.59,0-4.51h0c-.21-25.53-1.19-152.43-1.21-220.45a4.17,4.17,0,0,1,.49-.08v0c-.25-1.51-.43-3.77-.56-5.64v-.2c-.13-1.8-.19-3.19-.19-3.19v-.36c.17-7.87.47-21.33.63-28.92v0c.08-3.38.12-5.58.12-5.58h0s-1-25.5-1.58-38c-.16-3.67-.34-7.69-.61-10.75,5,4.87,10.28,10.69,15,15.16-.9,62.81.11,129.45.45,194.07.17,35.32,0,71.06,0,107.06,0,3.41.47,7.14-.21,9.51ZM276.26,817.6c-2.83-4-5.87-7.8-8.42-12,5.77,7.86,12.09,15.16,17.31,23.63-3.43-3.48-6.07-7.61-8.89-11.62Zm-8.65-9c.16-.06.16,0,.22.22,3.56,4.93,7.18,10.06,11,15,1.13,1.51,2.77,3,3.16,4.87-2.2-.57-2.88-3.11-4-4.64-3.38-4.86-7.52-9.43-10.53-14.81.25-.05.14-.39.19-.61Zm.57-12.14c0-1.14.08-2.3.05-3.52a4.86,4.86,0,0,1,1.26-.95l.53-.27c.61-.29,1.25-.55,1.83-.87a25.89,25.89,0,0,1,2.69,2.65c6.53,7.39,9.32,18.49,10.37,31.32C279.72,817,273.73,810,268,802.67h0a1,1,0,0,0-.58-1h0a21,21,0,0,0,.75-5.1Zm-4.47,12.42c.35-.38.68-.76,1-1.11l.25-.36c.12-.2.26-.41.38-.63l.07-.12.22-.39c.12-.2.21-.39.31-.59s.18-.34.26-.52l0-.08c.11-.22.22-.43.32-.66s.2-.46.29-.7l.05-.11v1.68l.24-.45.22-.46v4.9c0,.16-.06.49-.09.76s-.05.35-.08.53h0c0,.27-.09.54-.14.81s-.12.63-.18,1c4.05,5.64,8.36,11.1,12.46,16.7.22,7.07.27,13.91.45,20.47-.68.51-1.08-.68-1.47-1-3.56-3.39-7.68-7.69-11.41-11-.62-6.77-.64-15-.63-22.22a2.07,2.07,0,0,1-.08.42c0,.29-.1.58-.14.88v.08a.79.79,0,0,1-.05.3.11.11,0,0,1,0,.08.24.24,0,0,1,0,.12c0,.26-.06.51-.08.76a119.7,119.7,0,0,0-.51,14.17c0,.46,0,.92,0,1.37v.5a9,9,0,0,0,0,1v.4c0,.49.05,1,.08,1.44v.5c0,.37.05.76.07,1.11v.21l.59.07c0,1.1-.13,3-.19,4h0l0,.69h0a91.36,91.36,0,0,0,.75,12h0c0,1-.08,2.06-.12,3.11h0v.05c-1.36,37.81-1.31,76.43-1,115.41h0q0,4.51.07,9v.05c.5,61.65,1.51,124.07,1.51,185.4,0,3.62.22,8.59-.76,9.72a2.7,2.7,0,0,1-1.87.75h0c-2,.16-4.68-.68-6.77-.36-.18-55.46-.4-111.53-.4-167,0-55.28.22-112.61-1.47-166.14-9.61-1.92-31.87-2-31.87-2h-68.3s-11.47.63-17.07.92c-4.46.19-9.08-.44-13.2.6l-.47.13a11.85,11.85,0,0,0-2,.75c-.32,1.47,1,1.3,1.83,1.57a1.26,1.26,0,0,1,.43.22.74.74,0,0,1,.28.53l-.33.15c-.17.08-.32.17-.47.25-1,.62-1.33,1.38-1.5,3-.62,6.5.06,13.54-.23,20.24,0,.67,0,1.34-.07,2-.11,3-.18,6-.23,9-.29,16.55.13,33.64.26,50.21l.76,81.06v1q-.06,13.64,0,27.22c.15,45.27.67,90.16,1.41,134.25-4.63.17-8.58-.28-13.11-.23-.39-46-.42-92.8-.52-139.79V1033c-.13-64.87-.41-130-2-193.75v-.28c0-.75,0-1.51,0-2.26,0-.34,0-.62.22-.68,5.27,0,10.54.09,15.92.15h.47c29.48.35,90.06,1.38,90.06,1.38h.05l3.29-.1h0c2.55-.06,6-.14,8.17-.14,6.85,0,13.69,0,20.43.19,4.68.14,9.32.39,13.89.83a4,4,0,0,1-.23-.34c-.07-.11-.12-.17-.17-.26s-.15-.22-.21-.34a2.07,2.07,0,0,1-.15-.25c-.1-.18-.19-.37-.27-.54l-.08-.23a1,1,0,0,0-.06-.25c0-.08,0-.23-.06-.36s0-.24,0-.37a3.6,3.6,0,0,0-.12-.8v-.09a.16.16,0,0,0,.1-.13,3,3,0,0,0,0-.3c0-.09.34-.38.52-.5v-.41a17.7,17.7,0,0,1-.65-3.47c0-4.92.35-10.35.17-15.38,0-.2.34-.17.43-.34h.13a2.68,2.68,0,0,1-.11-.63,1.78,1.78,0,0,1,.06-.57,2.35,2.35,0,0,0-.7-.14v-2.26c.32.06.59.06.64-.15.37.06.44.43.42.88l.16-.2c.06-.07.24-.28.36-.44l.08-.08c.17-.19.35-.37.54-.57a4,4,0,0,1,.29-.29c.18-.24.37-.43.56-.64Zm-.26,372.85a2.12,2.12,0,0,1,.55.14h-.65c-4.7-.16-9.46-.32-14.29-.38,4.35-.22,10.45-.64,14.39.26Zm-156.06-15.44c-7-1.37-16.27-.45-22.15-3,.06-1,.4-1.5.4-2.54,2.21-.17,4.81.17,6.17-.85-1-2.32-4.13-.75-6.33-1.5-1.59-.52-1.7-2.43-3.17-2.55,6.44-.85,14.07.76,20.23-.4-4.8-1.41-11.69-.67-17.51-1.07,2.09-.75,5.42-.35,7.63-1.08-1.13-.62-2.94-.57-4.69-.62,1.13-1.51,3.17-2.83,2.54-5.27,4-1.35,11-2,9.32-7.63,2.21-2,4-4.41,7.17-5.48C107.92,1144.21,107.17,1155.74,107.39,1166.26Zm-25.75-32.75c.11.75-1.64.4-1.87.23-.06-1.36.12-5.31,1.87-4.87.23,1.64-1.07,1.75-1,3.17C80.45,1133.06,81.59,1132.72,81.64,1133.51Zm-10.74,2.55c-.28-3.28,1.36-4.58,2.94-5.93.75.1.17,1.58.85,1.69.9-.56.28-2.66,1.07-3.39,1.19,3.11-2,3.51-2.15,5.94,0,.17.23.23.23.45,1.3.23,1.41-.75,2.32-.85-.23.9.67,1.19.22,1.64-1.36.11-2.26-.16-3.17,0C74.34,1136.4,71.69,1136,70.9,1136.06Zm-4.63-10.36c-.75-2-.29-4.81,1.24-5.72C68,1122.05,67.46,1124.75,66.27,1125.7Zm-1.7,10.11c.4-.57,0-2,.4-2.55.45.06.06,1,.62.85a5.26,5.26,0,0,1,1.7-3.15c.9,2.61-1.5,3.68-2.72,4.87ZM59.49,825.63c-.62-.28-.51-2.15-.23-2.72.51.53.12,1.89.23,2.74Zm-.23-43.87a14.23,14.23,0,0,1,.22-6.16,9.49,9.49,0,0,1-.22,6.18ZM55.88,893.24c1,3.5.85,7.41.85,11.19.16,26.79,1.8,54.33,1.69,81.69,0,.4-.17.45-.22.22-1.59-30.29-2.38-61.39-3-92.71V893c.35,0,.4.2.63.25Zm-.41-5.93a7.25,7.25,0,0,1,1.08,4.23c-1.13-.65-1.19-2.35-1.08-4.21ZM58,746.49c.28-.51.33-1.19.61-1.69a2.2,2.2,0,0,1,.63,1.69Zm.62-9.93c.11-1.19,1.75-2.6,2.32-4,.62.34.4,1.5.85,1.92C61,735.37,59.43,735.59,58.64,736.56Zm2.77-10.12c-.23.45-1.08.4-1.3.85-.39-.29.67-1.58,1.3-.85Zm.4,14.58c.95.57-.85,1.86-.85,2.94-1.53-1,.31-2.2.85-2.94Zm-2.72-16.9c.45-2.43,2.15-3.62,3.33-5.31.12,1.5,1,2.2,1.51,3.22a25.91,25.91,0,0,1-4.84,2.09Zm4.18,143.36c.34.11.57,4.52.46,5.49-.23,1.58-.4-2.26-.46-3,0-.89.06-1.29,0-2.54Zm.46-34.28c-.68-.06-.79-1.3-.46-1.69H64c.11.79-.42.9-.22,1.69Zm-.85,14.21c-.85-.27-.28-1.86-.23-2.54.51.45.13,1.75.23,2.54Zm-.45-33.35c0,.75,0,4.18-.17,2.09a7.18,7.18,0,0,1-.23-2.31c.23,0,.4,0,.4.22Zm-.62,26.4c-.63-1.64-.29-4.18-.63-6.1,2.72.84,1,3.84.63,6.1Zm.61,41.61a4.43,4.43,0,0,1,1.31,1.24,49.08,49.08,0,0,0-.23,5.94c-.9-.68-1.19-1.92-2.09-2.55,1.37-.51,1-2.76,1-4.63Zm1.11,22.57c0,22.5.68,46.41.68,68.85,0,7.47,1.19,14.76,0,21.77-1.24-19.11-1.24-40.19-1.92-60-.4-11-.91-21.61,1.24-30.65Zm2.26-181.57a3.08,3.08,0,0,1-1.7.45,1.15,1.15,0,0,1,1.53-.56l.17.09Zm-1.51-3.57c1.82-1,3.91-1.75,5.71-2.77.51,0,.23.17.23.45a35.45,35.45,0,0,0-4.86,3.56c-.39-.35-1-.58-1-1.25Zm6.77,109h.63c-.23.28-.23.76-.45,1-.39,0,0-.75-.11-1ZM71.23,808a11.64,11.64,0,0,1,0-4.63,7.59,7.59,0,0,1,.06,4.62Zm0,69c1.92,2.32.11,7.12.67,10.8-2.54-1.64-1.85-6.45-2.14-10.35.68,0,1.53.16,1.53-.47Zm2.14,3.38c.8,2.61.23,6.68.4,9.9-.89-2.5-.1-6.74-.33-9.91Zm0,11.82c1.36,2.54.23,7.63.63,11.19-1.57-2.22-.69-8-.56-11.21Zm0,12.27c.29.06.34.35.63.4.11,20.75.75,42.79,0,63.37-.12,2.71.39,5.71-.85,8.2-2-24.05.46-48,.3-72Zm12,157.5c.56,1.5,2.31,3,2.71,4-5.77-.35-11.24-1-17.07-1.3a13.92,13.92,0,0,1-.45-2.72c3.41-1.66,10.08-.18,14.88,0Zm-10-65.46c.18.11.4.16.4.45a61.27,61.27,0,0,1-.17,6.5c-.44-1.1,0-4.83-.12-7Zm.92-253a1.86,1.86,0,0,1,.4,1.5C76.22,745,76.44,744.13,76.38,743.48Zm1.08,124.2a.31.31,0,0,1,.4.16c1.46,27.65-.23,55.06-.23,82.37,0,13.45.85,27,1.5,40.3.28,6.9-.11,13.85.17,20.75.39,10.06.75,19.84.45,30.19.06.34-.22.4-.22.17.11-16.39-.34-35.56-1.25-51.1-.17-2.32.4-7.34-.85-8.42-.28-.23-1.41.45-1.07-.62,0-38.62.92-76.46,1.1-113.77Zm1.12-72v3.62c-.63,0-1,.22-.85,1-.75-.11.62-1.58.62-2.31S78.29,794.11,78.58,795.69Zm.13,38.21c.5,5.31-.76,10.63-.63,16.28.06.35-.22.4-.22.18C77.52,844.87,77.28,838.28,78.71,833.9Zm-.63-83c-.4-.85-1-2.49-.62-3.39C77.83,748.43,78.42,750,78.08,750.92Zm-1,301.79v.76h-.75v-.76Zm-.46-3c.75,0,1,.45.85,1.3C76.32,1051.15,76.27,1050.36,76.61,1049.7Zm0,6h1c-.17,1.59.29,3.51,0,4.47-.61.11-.61-.4-1.24-.22A20.34,20.34,0,0,0,76.61,1055.72Zm0-15.8c.06-1.81.06-3.68.17-5.26.29,2.6.75,7.86.23,11.19-1.31-.52-.52-4.31-.4-5.89ZM81.24,934c.45,4.91.05,12.88.23,19-.51-4.94-.12-12.86-.23-19Zm1.39,123.06c-.23.9-1.64.61-1.7,1.69a1.16,1.16,0,0,0,1.22,1.08h0c-.28.39-1.8.22-2.09,0v-4.24c.62.28.51,1.3,1,1.69.74.15,1-.13,1.53-.19ZM81.47,820.13c0-3.62,0-11.53.17-15.8a154.57,154.57,0,0,1,0,17.75c-.17,3-.17-.49-.17-1.91ZM84.41,1060c-.23.51-1.36.11-1.92.22.45-.24,1.41-.58,1.92-.18Zm22.66,72.87c-3.67,1.5-6.94,3.45-12.2,3.39q.27-16.89.75-33.59h0c.07-2.82.17-5.64.26-8.45,3.22-1,7.4-.91,9.72-2.72-3.4-.75-6.67.45-9.72.85v-9.1c3.34-1,7-1.64,10.57-2.32.51.75.06,2.49.21,3.62-3.76.51-8.08.34-10.54,2.09,1.25,1.42,3.45.11,5.09-.22,1.87-.4,3.84-.57,5.48-1,0,3.7.07,7.4.11,11.08h0c.12,12.11.31,24.13.27,36.43ZM88,1120.07c-.07-4.33,0-8.78.14-13.26h0c.32-11.29,1-22.81.71-33.8h.85c1.13.35-.75.91-.39,1.93,1.5,3.34.75,10,.39,17.69-.18,4.52-.25,9-.36,13.55h0c-.06,2.61-.14,5.22-.27,7.82-.11,2,.82,4.65-1.07,6.12Zm-8.81,2.43c-.57.39-1.24.61-1.51,1.24a3.92,3.92,0,0,1,1.3-4.41c.43.68,0,2.2.21,3.22Zm-.46,3.16c1.41,1.41-.9,2.6-1.24,3.56-.91-1.58.56-2.71,1.24-3.52Zm.46,5.27a6,6,0,0,0,.16,2.54c-.62.52-1.69,0-2.31-.22.45-1,.82-2.11,2.15-2.29Zm-1.33-13c-.79-1.19,1-1.64,1.07-2.55a.3.3,0,0,1,.38.19.06.06,0,0,1,0,0C79.38,1116.9,78.25,1117.07,77.83,1117.92Zm.93-5.8a1.9,1.9,0,0,1-.75.71,1.28,1.28,0,0,1-.07-.28v-.07c-.45-1.86-.17-4.51,1.16-5.14a5.59,5.59,0,0,1-.3,4.67.66.66,0,0,1,0,.14Zm-4.52,2.49a6,6,0,0,1-2.15,4.52,5.35,5.35,0,0,1-.07-3.31.14.14,0,0,1,0-.09,6,6,0,0,1,1.74-2.71,3.49,3.49,0,0,1,.45,1.51.34.34,0,0,1,.09.08ZM74,1127c-1.19.51-1.58,1.7-2.77,2.15-.22-2.54,1.64-3,2.55-4.47.56.4.16,1.64.27,2.32Zm-.22-6.33c.62,1.36-1.35,1.87-1.86,2.77-.35-1.13,1.46-1.74,1.92-2.77Zm-1.5-15.8a4.77,4.77,0,0,1,1.92-3.76c.88,1.81-.82,3-1.84,3.74Zm0,7.41a5.19,5.19,0,0,1,1.69-5.71c1,1.73-.19,4.88-1.61,5.68Zm.22-12.89c-.22-1.87,1.31-2,1.87-3.17.93,1.51-1.22,3-1.78,3.15Zm0-4c-.51-2.43,1.36-2.54,1.87-4,1.38,1.61-.59,3.48-1.78,4Zm.18-5.09c-1.08-2.59,1.13-3.76,2.14-5,1.11,2.58-1.16,3.63-2.06,5Zm-.4-5.65c-.51-3.16,2-3.16,2.77-5.08,1,2.74-1.5,3.76-2.69,5.06Zm1.5-7c-.9-.68,1.25-1.41,1.51-2.32.57,1-.9,1.74-1.46,2.29Zm-1.5-2.71c-.34-1,1.13-2,2.09-2.32-.32,1-1.5,1.28-2,2.29Zm-.62-4.82h1.24c.09.54-1.28,1-1.16,0Zm3.76,49.59c-.06-.56.34-.68.4-1.08.61.16.33,1.28-.26,1.06Zm.23,5.88a3.7,3.7,0,0,1,0-2.72c.5.44.39,2.15.1,2.69Zm-4.47-57.18c.23-.91-.45-1.42,0-1.92,6.27.75,14.29-.34,19.83,1.07-.5.23-.61.91-1,1.24-1,.11-1.7,0-1.92-.62-2.54,1.41-7.23.29-10.54.45.18-.5.46-1.3,0-1.69a8.29,8.29,0,0,1-6.26,1.42ZM86.4,1112c-.17,3.91.75,8.28-1.25,10.35.34-3.76-.75-9.78.23-13.74a1.55,1.55,0,0,1,.08-.23.33.33,0,0,1,.06-.1c.25-.51.75-.75.88-1.3.16-.06.22,0,.22.16v.58a37.53,37.53,0,0,1-.12,4.24Zm-.4,15.44c.45.75,0,2.43.22,3.55a11.29,11.29,0,0,1-1.5.46,4.76,4.76,0,0,1,1.38-4.06Zm-1.31-1.08c0-1.08.76-1.24,1.08-1.87,1.29.52-.29,1.71-1,1.82Zm1.51,6.11c.11.75.62,2.09.4,2.54-.63-.28-1.75-.06-2.09-.62v-1.51a4.56,4.56,0,0,1,1.78-.43Zm.66-45.4c-1.5-1-.75-3.9.39-4.63a.21.21,0,0,1,.23.19v0c-.11,3.28,0,7.52-.23,11.42,0,1.24.12,3.22-1.5,3.34.52-3.44-.33-8.08,1.2-10.4Zm.39-5.48c-.79-.22-.56.57-1.24.45.11-3-.22-6.44.23-9.1.61-.17.56.4,1.24.23,0,2.73.37,6-.14,8.38Zm-.39,16.68c-.17,1.91.79,6.77-1.07,7.62-.31-2.47-.53-6.59,1.16-7.67Zm.63,24.92c.39-.45.61-1,1.07-1.5a42.25,42.25,0,0,1,0,9.27c-2.17-.52-.47-5.55-1-7.81Zm-6.34-20.46c-.62-2-.11-4.63,1.08-5.48,1,1.43.2,4.7-1,5.44Zm-.22,7.18c-.57-2.09-.23-5,1.07-5.93.88,1.43.54,5.38-1,5.89Zm0-14.13c-.23-1.92.79-2.49,1.5-3.4a2.42,2.42,0,0,1-1.12,3.23,1.48,1.48,0,0,1-.29.12Zm.45-5.09c-.85-1.36.67-2.09,1-2.94,1.39,1-.52,2.22-.92,2.89Zm0-4c-1-1.93.56-3.22,1.24-4.24.83,1.7,0,3.74-1.15,4.19Zm-.45-15.61.57,10.46a5.35,5.35,0,0,1,1.24-4.69c.11-.75-.62-.63-1.24-.63V1073h2.09c-.31,3.1.88,7.85-2,8.48Zm2.37,20.32c.39,1.5.45,4.47-.4,5.48a23.53,23.53,0,0,1,.49-5.49Zm-.18-2.32a19.36,19.36,0,0,1,.4-4.86c.32,1.12.82,4.34-.31,4.85Zm.63-5.94c-.75-.45-.45-2.83,0-3.39a5.12,5.12,0,0,1,.09,3.39Zm0-5.87c-1-.29-.11-1.87.22-2.15.49.39.38,2-.13,2.14Zm0-3.76a59.12,59.12,0,0,1,0-11h.62c0,3.78.26,7.93-.53,11Zm-6.1,14.46c-.23-1.41.5-2,1-2.71,1.22.76,0,2.68-.92,2.74Zm0,7.41a5.39,5.39,0,0,1,1-5.31c.66,1.88.38,4.65-.92,5.33Zm.39-12.49c-.75-1,.4-1.93.85-2.49.88,1.1-.31,2-.76,2.51Zm.22-4.19a2.63,2.63,0,0,1,.63-3.16c1.22.81,0,2.73-.54,3.19Zm-.22-5.71c0-1.58.22-2.88,1.07-3.62.6,1.27.4,3.65-1,3.65Zm.45-5.48a3.48,3.48,0,0,1,.62-3.76c.88.67.21,3.32-.53,3.78Zm-3,22.57a4.84,4.84,0,0,1,.45-1.87c.45.29.57,2.19-.34,1.88Zm0,7.4c-.5-1.06.06-2.88.23-4,.44.91.55,3.4-.12,4Zm.45-12.43c-.56-.45,0-1.58.17-1.92.67.4.28,1.7-.06,1.92Zm.17-4.24c-.39-.51-.28-2.26.23-2.54a2.3,2.3,0,0,1-.12,2.55Zm0-5.48a3.1,3.1,0,0,1,.46-3.17c.55.86.39,2.83-.35,3.19Zm-.17-5.71a3.86,3.86,0,0,1,.85-3.17c.56,1,.48,3.23-.74,3.17Zm.4-5.49c-.62-.62.11-1.69.85-1.69.33,1.08-.52,1.08-.74,1.7Zm6.33,46.47c.45.51.22,2.15,0,2.71a4.71,4.71,0,0,1,.1-2.7Zm-.14-2.15c.34-1.35,0-3.33.45-4.63C83.9,1115.49,84.07,1118.31,83.09,1118.92Zm0,8c.51.11.18,1.13,0,1.3-.43-.1-.1-1.13,0-1.29Zm-.11,6.26h.86v1.24c-.9.18-.9-.48-.85-1.23Zm.75-20.62c-1-.34,0-1.42-.22-2.32,1.12.29,0,1.54.27,2.33ZM89,1136.06c-1.64-.06-6.5,1.29-6.55-1.08,2,.8,4.34,0,6.59,1.08Zm-1.18-.85c.06-.79-.62-3.77,1.25-3.4v3.67c-.41,0-.58-.43-1.2-.27Zm2-4c.26-8.4.63-17.1.93-25.76v-.08c.26-7,.46-14,.54-20.8.4,6.67.31,13.55.13,20.43v.08c-.24,9.66-.66,19.28-.13,28.22,1.07-2.94.62-9.22.85-13.91,0-1,.75-3.34.45-4,.56,1,.17,2.93.17,4.23,0,4.7-.28,11.15-.85,16.46-2.72.18-2.07-3-2.07-4.85Zm1.7-62.52c.17-.57-.28-.51-.22-1a3.61,3.61,0,0,1,2.14.85c-.18.46-1.34.07-1.87.18Zm1.28,35.62c0,1.7-.09,3.52,0,5a23.73,23.73,0,0,1-.2-4.84v-.07c0-1.55.08-3.15,0-4.42a19.15,19.15,0,0,1,.21,4.28Zm1-24.42c.4-.57.16,1.24.22,1.69-.35.57-.12-1.24-.18-1.69Zm12.55.21c-4,0-7.13.91-10.57,1.5v-2.53c3.61-.85,7.06-2,10.79-2.72-.06,1.21.28,2.85-.18,3.75Zm.33-5c-3.67.45-7.57,1.8-10.79,2.09,2.54-1.75,7-1.75,10-2.94a1.06,1.06,0,0,0,.39-.45c.83-.17.38.85.5,1.31Zm0-6a49.31,49.31,0,0,0-8.64,1.25c.06-1.25-1.51-.91-2.15-1.51-.51-4.41-6.77-3-7.8-6.95.28-.29,1-.11,1.07-.62-.56-.76-2.43-.28-2.31-1.7,6.72-.95,13-2.25,19.83-3.17.1,4.62-.07,8.59.05,12.71Zm-36.11,31.05c.75.85-.23,1.86-.63,2.32-.68-.86.3-1.86.68-2.31Zm0-4.64a2.52,2.52,0,0,1-.63,2.94,2.41,2.41,0,0,1,.68-2.94Zm0,9c.56,1.24.16,3.28-1.08,3.39a4,4,0,0,1,1.13-3.37Zm0,5.71c.56,1.5.27,4.07-.86,4.63-.45-1.44-.28-4.05.91-4.61ZM69.55,1093c.06-1.35-.29-3.17,1.3-2.94.28,1.56-.12,3.42-1.25,3Zm.85-6.33c-1.25-.11-.4-2,0-2.31.84,0,.65,2.34,0,2.34Zm1.07-27.47c-2.32.28-2-2.21-2.32-4,1,.11,2.49-.17,3.17.22-.24,1.34-.18,2.92-.8,3.83Zm-6.92-2.49c-.17.62.34.62.23,1.24-.75-.39-.57.12-1.3.23v-1.3c.55.14.5-.36,1.13-.14Zm-.65-57.27c.45.11.17,1.14,0,1.3,0,2.41-.46-.7.05-1.27ZM65,1060.24a12.45,12.45,0,0,1,.62,4.41C64.85,1063.76,62.65,1060.48,65,1060.24Zm.22-25.58c-1.07-1.59,1.42-2.83,1.92-4.25-.11,1.18-1.32,2.94-1.92,4.29Zm1.08-55.29c-.68-20.32-.57-42.4-.23-63-.25,21.24.39,42.62.23,63Zm0-203.57c.46,1.81.06,6.39.17,9.27-.46-1.76-.06-6.34-.18-9.24Zm.17-11c.85.75.29,2.6.23,3.76-.51-.78-.06-2.55-.24-3.72Zm.85,41.84c-1.41-1.13-.75-5.09-.62-7.18C67.51,801.29,67.17,804.23,67.29,806.68Zm.23-27.42c.75.12.34,1.58.22,2.09-.51-.3-.12-1.49-.23-2.11Zm1.92,128.38c-2-1.7-1-6.38-1.31-9.72,1.86,1.73.9,6.37,1.3,9.7Zm.17,8.82c.5,11,.9,23.41.45,33.58-2.2-12.21-1.35-27.53-1.7-41.55.29.06.34.34.62.4,1.19,2.29.51,5,.62,7.55ZM72,900.23c-1.59-.34-1-2.31-1.08-3.76-.17-2.54-.51-5.37-.45-7.86,2.71,1.65,1,7.7,1.52,11.6Zm-.08,10.12c-1.19-.61-.62-2.59-.68-4a19.73,19.73,0,0,1-.17-4v-.62c1.63,1.49.45,5.79.84,8.62Zm-4.4,134.84c-1.24-4,2.94-5.65,4-8.65a14,14,0,0,1-.23,8.65Zm.23,53.5c.39.63.34,2.6-.62,2.54C67,1100.05,67.12,1099.14,67.74,1098.69Zm2.71-95.88c1.64,6.17-2.49,8.48-4.63,11.65,0-4.63,3.38-7.58,4.63-11.65Zm-2.32-2.31c-.06,1.13-1.35,2.89-1.86,4.24A3.77,3.77,0,0,1,68.13,1000.5Zm1.92-3.77c-1.24-2.43-1.13-7.29.63-8.87.22,0,.17.28.22.4-.79,2.35.62,6.81-.85,8.45Zm.85,21.07c.85,6-3.9,8.28-5.71,12.27C66.61,1026.38,69.09,1021.81,70.9,1017.8Zm-3.61,21.14c.75-2.94,2.88-6.27,4-9.5C73.05,1034.08,68.59,1035.88,67.29,1038.94Zm3.84-59.53c.11,3.22.29,5.72-2.15,7.18.46-3.39-.9-8.54.86-10.53.11-1-1.13-.57-1-1.51.11-8.54-.34-16.45-.23-24.93.56,1,.51,2.6,1.86,2.72.5,8,.27,18.82.67,27.07ZM68.8,997.74a11.17,11.17,0,0,0-2.15,2.14A12.43,12.43,0,0,1,67.1,994C67.84,995,67.84,996.83,68.8,997.74ZM66.66,835c1,0-.06.84.23,1.5-.46-.15-.12-1.1-.22-1.5ZM68,786.59c-1-.4-.11-1.81,0-2.49.41.4.24,2.09,0,2.49Zm-.45,27.25c.34,1.75,0,4.64-.22,6.56a9.33,9.33,0,0,1,.23-6.56Zm2.94,197c-.91,3.56-3.61,7.18-5,11-1.29-5.76,3.12-7.69,5-11Zm-2.93,102.81a5,5,0,0,1-1.24,5.26C65.79,1117.18,67.29,1115.49,67.51,1113.66Zm-.39-2.77c.28-1-.06-2.55.62-3.17.39.87.34,3.07-.62,3.18Zm.39-5.65c-.51-.4-.17-1.7.23-1.92.51.41.11,1.71-.23,1.93Zm.45-57.81h1.51c.08.81-1.67,1-1.51,0Zm.17,1.84c.45.11,1.5-.34,1.3.4-.45-.1-1.47.35-1.3-.38ZM72,918.57c0,.51-.28.34-.22,0V911.8c.22.06.16.45.45.45.11,2.26-.17,4.28-.23,6.33ZM69.2,836.83c-.56-2.49,0-5.76,0-8.43,1.24,1.88.63,6.46,0,8.44ZM69,896.58c-1.81-2.31-.75-7.52-1-11.36,1.3,2.84.73,7.59,1,11.38ZM68,881.2c.8-.17.23,1.13.4,1.7-.68,0-.32-1.06-.4-1.68Zm.4-43.69c-.85-.23-.17-1.08-.23-1.7.52.13.12,1.2.23,1.72Zm-.23-77.73c-.79.05-.79.84-1,1.5-.45-.95-.39-3.27.62-3.56.23-.79-.79-.34-.62-1.07a2,2,0,0,0,.62-1.51c.91.81.17,3.18.39,4.65Zm-1.7-25.91c-.5-.22-.56-1-.62-1.69h1.3c.11.92-.74.86-.68,1.71Zm3,397.31a2.35,2.35,0,0,1,.4-2.77c.94.47.33,2.67-.41,2.79Zm.63,5H69c-.23-2.58,2-2.87,1.07,0Zm-.45-10.53c-.63-.46.62-.8.67-1.24.61.43-.63.77-.69,1.26Zm0-3.76c-.51-1.57-.29-4.21.66-5.07h0c.9,1.19.51,4.56-.68,5.08Zm6.77-8.47a3,3,0,0,1-.45,1.46,3.16,3.16,0,0,1-.21-1.1.09.09,0,0,1,0-.07,14.77,14.77,0,0,1,.43-3.24,7.27,7.27,0,0,1,.24,2.86.41.41,0,0,0,0,.09Zm.79,20.52a23.54,23.54,0,0,0,4.41.85v1.24c-1.58-.11-3.06-.28-4.64-.45C76.73,1135.33,77,1134.42,77.18,1134Zm3-7.85a3.74,3.74,0,0,1,1.3-3.17c1.17,1.07-.24,3-1.32,3.16Zm.22-5c0-2.14.23-4,1.51-4.86.46,1.75.46,4.86-1.52,4.86Zm.4-6.16c-.68-1.07.67-2,1.07-2.72a.36.36,0,0,1,.45.23c.1,1.47-.86,1.81-1.54,2.48ZM119,811.47c0,.5-.34.61-.23,1.24h-1V811.2c.51,0,1,0,1.24.26Zm.27-2.26c.29.68-1.24.56-1.24.22-.36-.68,1.22-.57,1.22-.23ZM117.77,815h.83c1,4.92.17,11.62.4,17.31h-2c-.09-6.1.86-11.23.81-17.31Zm-1.25-5.26H115a.6.6,0,0,1,.31-.8l.07,0h.11c.5-.17,1.24.11,1,.82Zm-.89,18.59v.05c-.06.61-.11,1.18-.17,1.69v.05a.06.06,0,0,1,0,.06v-4.48c0-4.63-.17-9.15-.45-13.54a2.38,2.38,0,0,1,.45-1h1.08s-.34,10.69-.92,17.11Zm-.92,2.91v-.49s.64-.34.75-.56v.56c0,.19-.07.57-.11.86,0-.15-.66-.38-.66-.38Zm.63.4-.12.84c-.78,0-.17-.43.1-.85Zm1.86,346.85.07-.1h0c.91,0,2.37.25,3.41.15-.11.06-.25.1-.39.18a1.71,1.71,0,0,0-.54.42h0a7.1,7.1,0,0,0-2.85-.44.7.7,0,0,0,.28-.19ZM129,852h.19c1,.1,2.1.18,3.17.24h.4c8.12.41,17.15-.27,25.3-.27,10.82,0,22-.11,32.78-.22s22,0,32.79-.4c8-.4,15.91-.23,23.89,0,2,.06,5.44.68,6.35-1.92v-.59h.62c-1.08,49.75.17,100.35,0,150.48-.29,1.08-1.47-.56-2.32,1.08-.46.85.57,3.68.85,5.71.68,5.21.34,10.18-2.16,13.06-3.22-3-3.76-13.06-1-17.07.16-.34,2.21-.34,1-2.14-1.41-2.21-4.19,1-4.86,2.54-.91,2.32-.76,5.6-.76,7.8-.1,4.36.8,11.2,5.27,11.65,2.72.28,2.89-1.51,4.24-2.55-.05,53.26.57,105.83.63,159-39.92-1-80.35-1.41-120.78-1.87q-.12-6.88-.15-13.81v-1.6c-.12-34.61,1-69.58-.46-104.25-.58-13.34.4-26.68-.24-39.88-.62-12.61-.22-25.73-.22-38.84,0-36.36.57-74.28-1-109.62-.16-2.76.18-6-1.47-8.42-1.87,1.76-1.36,5.44-1.5,8.66-1.87,48-.4,99.55-.4,148.84,0,53.31-.68,106.9-.39,158.76-.45-26.63-.45-53.65-.45-80.84,0-27-.63-54.17-.63-81.26,0-54.72.4-109.44-1.5-162.58C127.14,851.25,128,851.82,129,852Zm116.62,329.09c-.28.45-1.47.06-2.09.16C243.83,1180.77,245,1181.17,245.61,1181.06Zm-67.53-1.31c-1.3.52-3.56.06-5.26.23,1.39-.51,3.57-.06,5.28-.23Zm-7.8.12c-2.37.51-5.7.11-8.42.22,1-.5,2.88-.06,4.18-.22Zm-9.1-.76c-2.14.46-5.26.06-7.79.18.85-.45,2.59-.06,3.76-.18Zm-10.33,0c-1.59.51-4.14.06-6.11.23,1.67-.49,4.21-.09,6.13-.23Zm-21.07-.45c-.34.51-1.64.12-2.32.23.35-.43,1.59,0,2.33-.2Zm6.18.61c.76-.43,2.26,0,3.31-.18h3.39c-1.69.46-4.09.13-6.19.2h-.6Zm-14.5-368v1.51h-1.24C120.06,811.63,120.28,811,121.46,811.23Zm-1.17-1.8c.06-.76,1.64-.57,1.24.4C120.85,809.94,120.46,809.77,120.29,809.43Zm0,5.88c-.06-.34.17-.34.23-.62h.62a77.39,77.39,0,0,1,0,17.74c-1.75,0-1.08-2.49-1.08-3.61C120.06,824.53,120.4,819.61,120.29,815.31Zm2.54-5.66c-.16-.85,1.51-.4,1.7-.22.06.56-1.52.56-1.7.26Zm1.64,2.1v1.06c-.27.27-.94.17-1.5.17v-1.45C123.53,811.53,124.2,811.47,124.47,811.75ZM123,814.88c.06-.39.17-.56.45-.68h.4c.9,3.4.28,9.33.45,13.55,0,1.5,1.24,4.41-1.08,4.46A111.41,111.41,0,0,1,123,814.88Zm125.16,17.31h-.43c-27.84-.76-56.43-1.18-84.62-1.85-11.36-.29-23.85-.91-34-.23-.22-7.29.51-14,.17-20.31-.11-.35.46-.92.45-.4,38.63.83,78,1,117.21,1.23h.76a180.68,180.68,0,0,0,.42,21.58Zm-122.39-23h.12c.59,0,1.58-.27,1.79.21.21.75-1.2.91-1.76.46a.51.51,0,0,1-.15-.65Zm.2,2.32h0c.53,0,.75-.33,1.5-.23v1.92a4.72,4.72,0,0,1-1.5-.08c-.08,0-.15-.09,0-.15Zm6.35,20.32c.79-.17,1,.22,1.69.17-.11.33-1.92.56-1.69-.18Zm57,2.71h4a28.1,28.1,0,0,1-5.87.22c-3.4-.17-.63-.29,1.86-.23Zm-55.49-27c3.89-.57,8.13.33,12.43-.08h3.39c.51.47-2,.3-3.16.75h-12c-.06-.68-.4-.63-.62-.68ZM125.94,815V815h0a.37.37,0,0,1,.2-.33,2.76,2.76,0,0,1,1.21-.09h.4c-.2,2.09-.27,4.3-.27,6.53h0c0,3.77.19,7.62.27,11.2h-2c.14-4.58.25-9.2.25-13.91h0v-3.25Zm124.15-.21v-.63h.62c1,.63.45,2.32.45,3.4-.11,4.86.4,10.34.4,15.38-2.14-.23-1.35-2.61-1.24-4.19.17-4.24,0-10.12-.2-14Zm0-3.3v-.88c.75.18.87-.28,1.5-.22v1.1c-.71-.18-1.12.42-1.47,0Zm2.25,9.86V814.2h1.24c-.62,2.21.46,3.62.46,6.78-.76,0-1,.35-1.66.41Zm2.12,2.71q.18,5,.68,9.67H253c-.23-3.16-.23-6.62-.23-10.12a5.46,5.46,0,0,0,1.73.45ZM253.89,812h-1.25c0-.76-.39-.83-.22-1.51h1.47Zm3.42,15.8h-1.17V824h1C257.52,824.88,257.2,826.53,257.31,827.75Zm0,6c-2.14.45-.95-2.43-1.3-3.77h1.08C257.44,831,257.22,832.55,257.27,833.77Zm-.64-16.56c-.05,1.25.63,2.71,0,3.77-.62.16-.75-.24-1.24-.18v-3.59Zm-1.24-1.76V814.2h1.51v1.51A3.73,3.73,0,0,0,255.39,815.45ZM256.9,812c-1.19.17-1.86-.23-1.65-1.51h1.65Zm1-1.51h2V812h-1.78c-.34-.11-.17-.9-.22-1.53Zm2,19.32v4h-1.24c.34-1.42-1-4.47,1.24-4Zm-.31-6.19c-.11,1.41.22,3.33-.23,4.41a1.37,1.37,0,0,0-1-.18c.28-1.58-1-4.59,1.24-4.26Zm0-1.7c-1.7.22-2.55-5.43,0-4.86.06,1.73-.51,3.31,0,4.83Zm-1.19-6.18V814.2h1.5v1.87A2.92,2.92,0,0,1,258.4,815.71ZM262.76,797c-1.31.17-4-.06-5.94,0,1.59-2.43,4.24-3.77,5.94-6.11.62,1.77-.12,4.09,0,6Zm-1.08-7.84a45,45,0,0,0-8.19,7.77h-2.55c2.77-3.28,6.5-5.6,9.5-8.65.74-.06.68.68,1.24.85Zm-6.1-5c1.64.22,2,1.75,3.38,2.32-3.95,3.1-7.29,6.9-11,10.34-1.86-.17-4.23.29-5.7-.22-1-.23.75-1.07,1-1.51,4.07-3.73,8.65-6.9,12.27-11ZM253.49,783c-4.69,4.81-9.66,9.22-14.35,14h-5.09c-.17-.85,1-1.25,1.47-1.7,4.91-4.25,10.53-9.33,15.42-13.74.91.41,1.64,1,2.55,1.43ZM249,780.12c-4.41,3.62-8.87,7.92-13.5,12.44-1,1-3.28,3.76-4.41,4-1.64.39-3.51-.68-5.09-.23-.34-.45,1-1.41,1.69-2.09,2.32-2,5-4.13,7.57-6.34a79.46,79.46,0,0,0,10.18-9.49,27.35,27.35,0,0,1,3.56,1.65Zm-9.5-4.18c1.19-.11,2.94,1,4.24,1.51-7.23,5.94-13.85,12.5-20.69,18.81h-4c-.4-.75,1.19-1.51,2.09-2.32,5.94-5.48,12.44-11.87,18.14-17.75,0-.28.12-.28.23-.28ZM237,774.88c.34.9-2.32,2.65-3.33,3.56-5.77,5.31-11.47,12.55-17.52,17.74h-5.54c-.16-.85,1.51-1.64,2.38-2.54,6.38-6.22,13.84-13.4,19.83-20.24a12.89,12.89,0,0,1,4.18,1.44Zm-6.73-2.33c-6.1,8.32-14.8,15.8-22.15,23.63h-5.7c-.9,0,.56-.95.85-1.24,6.61-8.09,13.84-15.54,20.06-24.07,2.43.34,4.47,1.25,6.94,1.64Zm-62.66,23.6h-3c2.32-4.3,5.65-7.58,8.28-11.59,1.93,1.75,2.26,5.09,4.41,6.55.84-1,2.48-.34,4-.22a55.13,55.13,0,0,0-3.56,5.26h-8.49c1.19-3.22,4.8-5,5.09-8.42C171.33,788.91,169.41,793.09,167.59,796.15Zm-4.86.16c-1.92.17-3.16-.34-5.08-.17,4.18-5.54,9-10.46,13.11-16.06.75.63,1,1.93,1.47,2.95a118.3,118.3,0,0,0-9.5,13.28ZM203,784.94a26.42,26.42,0,0,1-4.34-.39c.06-1.72,2.68-5.26.62-6-2.26-.75-2.77,2.73-2.5,5.62h-4.16a59.15,59.15,0,0,0-.09-11.29v-.05c0-.37-.06-.75-.09-1.09.94.34,1.77.7,2.65,1.1h.06l.11,0h0a29.82,29.82,0,0,1,10.82,8A18.74,18.74,0,0,1,203,784.94Zm-.15,4.44h-1c.12-.68,1-.68,1-1.51,1,0,.06,1.17,0,1.51Zm-23.05-16.32.63-.23h0a36.7,36.7,0,0,1,8-1.75v1.73c-.06,3.59-.3,7-.21,10.76-1.24.76-2.25-.17-4,0-.67-2.08-.85-4.8,0-6.55-.84-1.13-5.59-1.24-6.32.63-.06,1.18,1.46.75,2.54.85a22.66,22.66,0,0,0,2.09,5.31c-2,.39-4.91.11-6.73,1.24,0-2-3.44-5.43-3.16-7.58.17-1.58,3.9-3.16,6.11-4,.36-.15.69-.28,1-.4Zm1.12,13.54c-1.3.28-2.94.16-2.94,1.69-1.07.06-1.13-.84-1.3-1.69,1.19-.29,3.28-.81,4.27,0Zm2.94,4.46a40.51,40.51,0,0,0,5.93.23c-.57,1.64-3,3.22-4,5-2.43.17-4.47-.51-6.56,0,1-2.33,2.83-3.8,4.64-5.27Zm8,.23c2.2-.17,3.76.34,5.93.23a25.08,25.08,0,0,1-3.84,4.63H187.2c1.23-1.92,3.06-3.28,4.64-4.86Zm11.19.46a33.86,33.86,0,0,1-3.62,4.4h-4c1.86-2,3-5.71,7.58-4.41Zm-6.11-24.14a163.18,163.18,0,0,1,24.24,3c-5,5.54-9.78,11.47-14.58,17.3.76-2.43,2.26-5.93,3.4-8.65,2-3.11,4.8-5.48,6.55-8.87-3.9.34-4.46,5.94-8.65,6.73a11.47,11.47,0,0,0-4.51-4.31,19,19,0,0,0-2.26-1.12h0a74.66,74.66,0,0,0-9-2.76c.11-2.41,3.26-1.38,4.84-1.34Zm-10.79-.4c1.3.23,1.58,1.5,2.76,1.5-5.76.34-12.66,1.76-17.35,4.87-1.86,1.24-4.46,3.95-1.46,4.63-4.36,6.33-9.27,12.1-14.13,18h-5.27c-.45-.75.68-1.12,1-1.5,7.56-8.28,15.31-17.69,22.37-26.57,3.46.2,8.66-1.53,12.06-.91Zm-14.59,1c.34,1.07-1.35,2.25-2.31,3.39-6.5,7.69-13.85,16-19.84,24.53h-6.55c7.52-9,15-18.14,22.57-27.08,2.07-.23,4.1-.51,6.13-.85ZM111.35,789c5.39-2.69,10.44-5.67,15.49-8.66-2,4.27-5.67,8.59-7.3,13.87,2.93-4.16,5.84-10.11,9-14.71l1.57-.7h.09c2.25-1,4.51-1.94,6.93-2.8.23.67-.39,1.46-.84,2.07-2.1,3.3-4.59,6.82-6.77,10.46l-.09.14a56.8,56.8,0,0,0-2.94,5.36q1.44-1.81,2.81-3.69l.09-.12c3.55-4.85,6.77-10,10.07-15,3.08-1,6.28-1.86,9.48-2.75.11,1.06-1.06,1.74-1.68,2.52-4.94,6.18-10.44,13-14.09,20.56,2.18-1.4,3.14-3.88,4.66-5.84,4.26-5.84,9.15-11.57,13.41-17.63,3.26-1,7.25-1.4,10.67-2.31.39,1-1.23,2.09-2.08,3.16-6.12,7.35-12.57,15.8-18.69,23.32H127c-4.66,0-9.44-.5-13.2.62,0,1.5,1.84,1.19,3.29,1.23-3,0-4.69,2.65-.13,3.15a108.68,108.68,0,0,0,11.42.43h2.22c42.43.63,88.91.51,130.63.4.39.84.06,2.42.17,3.6-44.39-.1-88.94-.12-133.17-.35h-.09l-10.53-.07h-1.12a15.09,15.09,0,0,0-4.73.48,6.44,6.44,0,0,0-.7.24h-.17v-1.54h0c0-4.65.23-10.44.4-15.4Zm-6-2c.62,6.68-.56,15.16,1.24,20.69a32.85,32.85,0,0,0,7,1.08c-.46,7.41.45,16-.18,23.63-1.64.46-4.35-.11-5.71.63-.84,1.35-.61,3-.61,4.63s.1,4.35.14,5.18h0v25h0c-.13,6.62-.6,32-.75,45.75v15.51c0,28.88.23,67.38.32,83.57v.07c0,4.79.05,7.6.05,7.6h0s-12.8-.8-16.89,1.29c2.26,1.24,5.54.22,8.42,0a40.75,40.75,0,0,1,8.62-.26h.24v32.51h0a194.31,194.31,0,0,0-21.51,2.77,6.1,6.1,0,0,0,.45-2.38c4-1.51,10.53-.57,14.13-2.49-4.07-.75-9.45.62-14.36.4-.28-92.55-.51-186.15-.84-278.09,2.32,1.51,5,3.76,7.63,5.49s5.42,3,7.18,5.48c3-1.2,3.32.84,5.47,2Zm-5.71-4.63c-5.14-3.28-9.72-7.07-14.58-10.54A231.57,231.57,0,0,0,84,747.17c.22-.75-.8-.33-.63-1.07.17-1.81-.28-3.06-.23-4.86.4.28.29,1,.86,1.07,1.5-1.07,1.46-3.76,1.5-6.33,11.69,10.12,23.73,20,35.2,30.41-8.11,4.18-16.08,8.61-21,16Zm6.1-100.74c9.67,9.92,19.56,20.07,29.3,30.44l.12.13c1.67,1.77,3.34,3.54,5,5.33.8.85,5.2,3.89,3.17,5.08-1.24.69-3.76-3.1-4.64-4-1.21-1.33-2.45-2.66-3.7-4l-.12-.13c-9.17-9.78-19-19.46-28.27-28.84.39-2-.76-2.48-1.08-3.76-.07-.42.22-.48.22-.26Zm-2.94-2.08a2,2,0,0,1-.22,1.24c-.62-.23-1.42-.23-1.51-1.08.71,0,.93-.34,1.72-.17Zm-6.33-4.25c.28-.61,1-.85,1.25-1.5,1.13.8,1.86,1.92,2.94,2.71-1.42,1.1-3.25-.43-4.19-1.21Zm3.16,9.72c.57-.16.4.4.86.4.22,1-.76.75-.63,1.47-.51-.17-.12-1.3-.2-1.87ZM97.3,703.44c.28-1.24-.29-2.43,0-3.62,1-4.69,6.56-4,7.35-9.66q14.8,15.23,29.76,30.31l.12.12q2.79,2.82,5.61,5.64c-3.5,5-.57,15.26-1.47,23.46-1.19.23-1.8-1.07-2.54-1.7-1.12-.92-2.26-1.85-3.39-2.81l-.12-.11c-5.07-4.2-10.25-8.6-15.26-12.91-7.12-6.16-13.9-13-21.76-18-.5,1.41,1.13,2.32,1.87,3,11.47,9.88,22.73,20.95,35,30.53l.12.1q3,2.35,6.11,4.59a46.9,46.9,0,0,0,.23,7c-2.26.68-4.79,1.44-7.35,2.31l-.13,0c-1.66.55-3.35,1.16-5,1.82-1.07.45-2.93,1.75-3.76,1.7s-3.67-2.78-4.86-3.77c-9.38-8.14-18-15.8-27.64-23.63-1.13-1-4.23-2.77-4.63-3.84a14.36,14.36,0,0,1-.45-5.49c.39-1.75,3.38-3,3.76-5.48.56-2.94-.18-5.65.45-8.2a15.89,15.89,0,0,1,2.09-5.31c1.58-2.09,5.28-3.5,5.93-6.16ZM85.89,691.62c1,.76.68,3.16,0,4-1.36-.22-2,.4-2.94.63.72-1.81,2.14-3,2.93-4.64Zm-7.81-9.08h3.76c-1,1-2.59,1.18-4,1.69C77.91,683.6,77.74,682.81,78.08,682.54Zm3.16,16c1.69,7.91-3.9,10.28-8.64,12.44C75.65,707.05,78.42,702.85,81.24,698.57ZM72,709.31c.29-2.89,2.94-5.14,4.64-7.35-.57,1.76-3.39,4.92-4.64,7.35Zm7.18-33.55a2.8,2.8,0,0,1-2.54-.22C77,675.22,78.19,675.9,79.15,675.76Zm0,10.75c-1.41,2-3.27,3.62-4.69,5.71.51-2.07,1.76-5.3,4.69-5.69Zm-7.86-3.76a4.83,4.83,0,0,1,1.92-.23c-.61,1-1.35,1.87-1.92,2.94-.24-.46.63-1.92,0-2.72Zm13.12,15.8c5.31.4,6.27-4.47,5.71-9.27,1.64-1,3.67-1.7,4.18-3.85.18,6-1.07,10.69-3.76,14.59-.51.75-1.41,1.18-1.86,1.92C86,706,85.23,711,82.12,715c-1.7.75-5.93,5.09-5.93,6.77,0,4.64,7.06,1.42,8.47-.85-1.64,3.28-5.42,4.46-5.31,9.5-.85.56-2-2.21-3.16-2.77-.12-.62.67-.45.45-1.24-2.61-2.71-7-2.55-10-4.64,1.93-2.71,5.49-3.84,7.63-6.32-.69-2.5-5,.22-5.49-.23,5.41-5.29,16-5.46,15.58-16.66ZM66.27,715c.62-1.93,3-4,4.41-5.88A7.41,7.41,0,0,1,66.27,715ZM70,683.35c.34,1.41,1,3.22,0,4.23a6.42,6.42,0,0,1-2.77-3c.59-.64,1.78-1.66,2.79-1.21Zm-4.46,4.86c1.19.62,2.59,1,3,2.32-4.12,6.27-5.94,14.92-10.17,21.06,1.42-7.93,4.58-15.9,7.18-23.37Zm-6.34,44.15a9.51,9.51,0,0,0-1,1.64c-1-.66.31-1.45,1-1.63Zm-5.48-4.85c2.2.29,2.54-2.43,4-2.15-1.36,2.21-3.56,3.62-5.27,5.49C52.24,729.89,53.27,728.36,53.75,727.51Zm.45,85.93c-.39.51-.45-3.51-.45-4.86.28-.06.17-.39.22-.63.53,1.42.09,3.73.26,5.5Zm-.85,68.4c-.45.17-.11-2.25-.23-3.16.49-.17.15,2.26.26,3.16Zm-.62-25.77c.45.45.06,3.56.17,5.08-.42-.45,0-3.56-.14-5.08Zm.17,8.64c.34,3.34.28,7.07.45,10.54-.47-2.28-.42-7-.42-10.54Zm.45-20a61.88,61.88,0,0,0,.39-8.28c.15,2.18.88,6.81-.36,8.28Zm0,219.34c-1.29-1.25-2-3-1.69-5.88,2.23.5,2.34,3.78,1.72,5.88Zm1.08-5c-.12-.9.85-.68,1-1.3.69.12.17,1.41.63,1.7-.15.33-1.44,0-1.61-.4Zm1.86-66.77a591,591,0,0,1-2.32-64c.68,17.81,1.25,38.37,2.55,56.59.24,2.44.82,5.16-.2,7.36Zm.85,3.17c.4,3.56,2.21,8.19.23,11-.71-3.1-.42-7.57-.2-11ZM59.06,1018c-.56,2.25-2.32,4.23-.45,6.33a54,54,0,0,0-.67,5.54c.09,1.11.19,2.21.29,3.33v1.25c-.75.75-.3.34-.75-.17V1033a27.44,27.44,0,0,0,.46-3.11c-.58-7.28-.75-14.3-.8-21.37.57,0,1.18.91,1.7.23.36,3,.93,6.16.25,9.27Zm.84-182.65c.76,1.86.4,4.91.85,7.17-2.17-.51-1.15-5.37-.82-7.17Zm.63-46.65c.85.4.28,2.38.22,3.17-1.09-.85-.7-2-.19-3.16Zm1.25,10.12c.84,2.48.9,6.72-.63,8.42-.7-3,.37-5.7.66-8.41Zm-.85,89.71c3.22,1.64,1.58,6.23.85,9.56-1.33-2.09-.15-6.73-.82-9.55Zm-.4,206.34a3.14,3.14,0,0,1,0,2.48,3.3,3.3,0,0,1,0-2.47Zm0,4.63a9.66,9.66,0,0,1,0,4.41,9,9,0,0,1,0-4.4Zm-.75,10.74a2.78,2.78,0,0,0,.75-1.28v-3.35c0-.06.2,0,.26.22a15.63,15.63,0,0,1-.26,3.13v2.13c-.14.45-.36,2.26-.75,1.69Zm-1.51,58.51c2.88.28,5.76-.56,8.19,0-1.74,2.37-5.42,2.83-7.79,4.64-2.83.11-5.15-.34-7.8-.4,2.06-1.8,5-2.7,7.39-4.23ZM56,1174.49c-4.8,2.77-9,6.22-17.51,5.26,4.38-3,8.79-6,17.48-5.25Zm-8.48,10.74c-3.67,2-6.15,4.47-12.88,3.17a29.42,29.42,0,0,1,5.09-3.39c3.67-2.16,6.77-3.77,13.73-3.17-1.73,1.42-3.82,2.21-6,3.4Zm10-3.17c.75,1.3,2,2.1,4.23,1.92a26.72,26.72,0,0,1-4.46,2.72c-1.35.79-3.1,2.32-4.63,2.54-2.49.46-5.15-.84-8.48-.39,4.39-2.31,7.77-5.59,13.31-6.78Zm-16.06,0a58.53,58.53,0,0,1-5.26,3.17c-3.68,2-6.73,3.51-13.55,2.77,5.45-2.76,9.46-7,18.78-5.93Zm-24.29,5.71c3.45-2,7.24-3.61,10.79-5.48.4,0,.46.17.23.23-3.82,1.64-6.64,4.25-11,5.26Zm81.06,1.7c-2.44-.68-6,.4-8,.85-3.44.75-7.06-.06-7,2.54.06,1.36,1,1.7,2.54,1.87-8,.17-16.61-.91-25.54-.62,5.53-3.76,12.14-6.45,17.51-10.35-6.9,1.82-12,5.44-17.69,8.43-.33-.11-1.12.29-1.07-.16-1,.39-2,1.8-4,2.54-2.32.75-5.09.29-5.49,2.32-.45,2.2,1.81,3.16,4.24,3.56-12.26-.34-25.55-1.47-38.65-1.7,6.39-2.77,10.46-7.8,20.46-7-1.36,1.3-3.4,1.93-4.64,3.39,2.89.12,5.15-2.94,8.28-3.62s6.38.12,10.11-.39c-2.6,2-6.28,3-8.42,5.48,2.09.57,3.91-1.24,5.71-2.32,3.39-2,5.82-4,11.81-3.62-.28-1.24-2.43-.67-3.39-1.24,3.16-1.36,5.59-4.29,9.1-5.48,7.9-2.72,23.45,1.19,34,.38C96.64,1186.36,98.89,1187.44,98.14,1189.47Zm.38-9.24c0,1-.5,1.41-.39,2.48-5.76-.28-11.36-.75-17.35-.85.91-1,2.83-1,3.17-2.49a3.45,3.45,0,0,0-2.72-1.5c-6.5-.91-14.74,1.41-20.68,1.69,2-1.51,4.69-2.32,6.55-4-5.81,1.58-9.32,5.93-17.74,4.23,4.75-2.94,8.65-6.44,17.92-5.26-1-1.51-4.46-.46-6.33-1.08,1.5-.34,3.9-3.28,5.94-3.17,1.18.06,3,2.21,5.47,2.55s6.72-.06,10.34-.23c6.5-.28,13.63.17,10.8-5.87a128.93,128.93,0,0,0,13.9.18c.91,3.84-1,9,.63,11.42-.51.51-1.87,0-2.72.22-.75-.45,1.35-1.41,1.24-2.54-2.77-2.26-6,.34-7.4,2.54-1.3.29-3.22,0-4.18.63.34,1.17,2.26.77,3.56,1.06Zm1.88,9.87v-1.7a7.4,7.4,0,0,1,4,.62C103.11,1189.42,101.07,1189.08,100.4,1190.1Zm8.93-1.2c-1,.17-2.54-.23-3.17.22a8.28,8.28,0,0,1-.84-.4,7.48,7.48,0,0,1,4,0c.5.12,1.5-.28,1.69.18Zm74.78-4.06c-13.51-.62-27.35-1.69-41.14-1.69-14,0-28,.34-41.82,0v-2.09c0-.34,0-.63.22-.68,50.24,1.6,100.26,3.42,151,4.51h.2l7.39.16h0l2.58,0c1.28,1.34,2,2.07,3.26,3.41v.3C239,1186.87,211.57,1186,184.11,1184.84ZM8.61,679.42v1.12c1,.9,2,1.79,3,2.67l.15-1.41Z"/><path class="cls-5" d="M7,726.35H7l1.61,1.11h0Z"/><path d="M336.65,1169c-8.76,8.19-19.22,16.51-29.1,24.25,1.5-2.66,4.29-4.36,6.72-6.34,7.23-5.81,15.05-12.09,22.38-17.91Z"/><path d="M355.83,1169.41c-7.91,8.53-18.06,16.73-27,24.93C337.09,1185.31,346.57,1177.44,355.83,1169.41Z"/><path d="M141.6,1232.11c-.51.05-.34-.23,0-.17,30.63.68,62.67,1.13,94.37,1.51,15.71.16,31.37,1.07,46.85,1.24a390.56,390.56,0,0,1,45.38,2.77c-7.63,1-15.42.75-23.23.39-23.11-1.07-47-.56-70.47-1.69-31.48-1.5-63.29-1.13-92.9-4Z"/><path d="M211.09,872.42c.34,2.1,3,1.36,4.63,1.47,5.2.29,11.82.34,17.07,1.24,2.26.4,3.67,1.36,6.33,1.08.45-.06,1.5-1.24,2.76-.63,1.87.85,1.47,9.27,1.47,12.84v42.23c0,19.39.4,36.87-.39,56.59-1.19,27.36-.75,55.74-1.5,84.06-.12,3.45-.23,8.48-.23,14.13,0,2.88,1.08,11.58-1.92,12.27-1.69.39-2.26-1.08-3.76-1.51-3.11-.9-8-.45-12.26-.45-4.75,0-9.55-.85-12.43-.17-1.47.29-2,1.64-3.16,1.64-.79,0-1.58-.68-2.55-1.64H191c-4.8,0-9.84-.85-13.51,0-1,.23-2,1.3-3,1.24s-1.64-1.3-2.71-1.5c-1.81-.34-4.18.22-6.32.22-6.17,0-12.43-.68-18.37-1.07-1,.9-3.39,2.82-4.63.85-5,4.86-4.24-6.11-4.24-11.43,0-32.61,1.13-65-.4-97.74-.85-18.06-.45-36.57-.45-56,0-16.4-.11-31.55.85-48.56.05-1.08.34-5.09,1.69-5.27,2.43-.34,2.26,6.22,2.32,8.2,1,23.75.75,48.68.85,73.1.75.28,2.48-.17,3.56-.23.34-11.08-.39-21.82,0-32.95.17-3.62.68-7.24.45-10.57-.17-2-1-4.13-1.24-6.11-.68-5.26-.39-10.85-.45-16s-.34-10.54.62-15.61c1-1,1.24,1.36,1.7.85,1-2.09-3.06-1.24-1.87-3.39,1.41-1.5,4.12-.75,6.33-.85,4.58-.17,9.55-1,14.75-.62,1.75.11,6.67,1.64,6.55-.23-.11-1.3-1.5-1-3.61-1.08-8.28-.16-13.74-.85-21.54-1.46-2.31-.18-7.29,0-7.57-1.51s2.1-1.8,2.94-1.86c8-1,17.17.16,26.38.16,21.31,0,43.91.17,64,2.32,2.93.34,9.94.62,8.64,4.47-.51,1.41-5.26,1.41-7,1.24-7.18-.5-17.07-2.87-24.7-1.86Zm-33.61-1.15h0c-.62.45.23,1.19,0,1.92,9.1.34,18.37.29,27.46.4,1,.06,3.22.75,3.17-1-8.76-.91-21.19-.75-30.63-1.3Zm-24.24,12h0c-.4-1.19.85-2.83-.23-3.39A4.36,4.36,0,0,0,153.24,883.31Zm84.42,2.54h0a14.36,14.36,0,0,0,.79,4.64c-.22-1.58.91-3.85-.17-4.86-.05.28-.33.22-.62.22Zm-87,13.07h0a38.23,38.23,0,0,0,0-8.42A35.4,35.4,0,0,0,150.69,898.92Zm4.63-1.25h-.22a5.44,5.44,0,0,0,.22,1.5v6.16s.86,2.83.75.76v-3.17c-.18-3.85-.34-12-.34-12h-.41Zm3.76-.62h0c.29-1.35.57-4.47-.22-5.48C159,893.32,158.58,895.64,159.08,897.05Zm2.32-4.47h0c-.28,5.71-.22,11.76-.22,17.75,3.5.4,7.62.17,11.41.23.06-5.88.34-11.48.23-17.53C169.09,893,164.68,892.42,161.4,892.58Zm58.6,2.77h0v15.8c5.48.68,12,.34,17.69.85.34-6.16.56-13.54.45-19.45-1.76,5.82-11.93,1.93-18.14,2.77Zm-42.1-2.09h0c-.17,6,.29,11.28.17,17.3,1.47.45,3.77.06,5.49.23.34-5.6.17-11.7.45-17.36a59.28,59.28,0,0,0-6.11-.16Zm9,.4h0c-.62,5.48.29,11.28,0,17.13,6.89-.23,13.84.68,20.31.16-.11-5.31.18-11-.22-16-7-.17-13.28-1-20.06-1.3Zm-33.34,9.94h0c-.45-2.6-.11-7.06-.62-8.87C153.13,897.74,152.79,901.23,153.59,903.6Zm58.26-8.48h0c-.11,5.32-.23,10.64-.45,15.8a38.29,38.29,0,0,0,6.33.46c.51-5,.05-11,.45-16.06-2-.11-4.07-.28-6.33-.23ZM156.07,915h0c.79,14.7-1.8,29.11-.22,42.23,1.3-2.82.85-6.44.85-9.89,0-10.91.17-22.5-.23-32.73-.05-.17-.17-.22-.4-.22V915Zm3.27-.4h0c-.17,13.34.29,26,.23,39.29,2.54-1.3,3.67,2.49,6.1,3.17,2.25.57,4.18-.56,7.18-.22-.29-13.63-.23-27.71-.23-41.61-3.9-.75-10.17-.4-13.28-.63Zm18.37,42.59h5.7c.34-13.54.11-27.59.17-41.38-2,.17-3.33-.34-5.26-.23-.79,13.28-.18,28-.63,41.61ZM187,916.27h0c-.06,13.62.06,27.08.22,40.53,6.27.4,13.22.16,19.83.22.12-13.85.52-26.74.23-40.63-6.39-.56-13.51-.45-20.06-.75-.22,0-.22.29-.22.63Zm24.46.85h0c-.4,13-.51,26.33-.4,39.87,2.32-.11,4.24.12,6.33.18.4-13.23.45-26.86.4-40.53-2.14.16-3.84-.23-5.88-.23a.64.64,0,0,0-.45.68Zm8.59.16h0v39.88a95.32,95.32,0,0,0,17.06-.4c-.05-13.54.45-26.45.63-39.69-5.94,0-11.76-.05-17.31-.45a.52.52,0,0,0-.4.62h0Zm-59.44,39.13h-1C159.12,957.76,161.08,957.76,160.59,956.41Zm-17.31,4.18h0c-.67,43-1.07,88.47-.22,131.55,1.69.9,3-1.51,3.76-1.51.23.68-.45,2.32.45,2.32,5.2.34,11.19.4,16.9.4,2.32,0,8.42.68,8.65-.75.05-.39-.34-1-.23-1.3-3-.63-7.34-.23-11.59-.23s-9.15.56-11.81-.62c-.9-.34-.68-1-1.3-1.5s-1.81-.11-1.87-1.08c0-41.77,1-84.34.75-127.08-.94,0-3.37-1.43-3.55-.24ZM154.7,972.4h0c0,1-.23,2.77.17,2.15-.23-4.63.85-9,.23-13.34C154.92,964.55,154.64,969.07,154.7,972.4Zm4.86-10.11h0c1.13,6.9-.9,15.27.17,21.77-.34-2,.51-7,.68-9.95.11-3.76-.17-7.69,0-12.44h-.68C159.73,962,159.51,962,159.56,962.29Zm3.28,8.87h0v-9.27c-.05-.16-.05-.45-.23-.45a30.78,30.78,0,0,0,.23,9.72Zm3.68-9.1h0c.9,13.79-.68,27.93-.85,40.53-.23,1-1,.06-1.3.85,2.14.22,5.48-.11,8.27,0v-42c-1.8.28-6-.68-6.1.62Zm10.73,41.44h0c1.58.45,4,.06,5.93.17.29-13.79.23-27.92.23-42h-5.49c-.79,13.4-.11,28.21-.67,41.83Zm9.94-41.44h0c0,13.9-.06,27.84.23,41.38,6.5-.17,12.38.28,18.76.22.18-14.07.63-28,.85-42-6.1-.52-13.16-.06-19.6-.23-.3,0-.24.34-.24.62ZM211,1003.81h6.33c-.11-14.19.18-28,.23-42-1.7-.51-4.3-.11-6.33-.23C210.76,975.26,211.16,989.79,211,1003.81Zm9.1-41.52h0c-.22,13.74-.28,27.64-.22,41.61,5.59-.18,11.28.62,16.67,0,.4-13.79.45-28,.4-42.23H220.32c-.23.06-.23.34-.17.62Zm-69.9,25.32h0c1.3-5.65.51-12.21.62-19-.4-.06-.17-.75-.62-.85C150.52,974.53,149.61,981.22,150.24,987.61Zm14.35,4.86h0c0,.22.29.16.23-.23.06-7.4.9-16.45,0-23C164.87,977.1,164.42,984.5,164.59,992.47Zm-8.65,8h0c0,1.07-.57,2.94.62,3.62,1.13-.76.63-2.32.63-3.4.05-9.55.17-19.84-.39-28.49C155.89,980.6,155.94,991.29,155.94,1000.5Zm5.09-1.24h0c1.3-2.72.51-8.28.18-11C161.25,991.85,160.45,995.81,161,999.26Zm-6.56-1.08h0a31.74,31.74,0,0,0,0-8C154.19,992.81,154.53,995.92,154.47,998.18Zm-2.54,5.27h0c.45-2.55,1.13-6.78.22-9.27A57.4,57.4,0,0,0,151.93,1003.45Zm8.64.22h0c1.81,0,1.87-3.84,1.08-5.08C161.48,1000.5,160.75,1001.81,160.57,1003.67Zm-9.71.45h0c-.05-.67.23-2.77-.17-2.37C150.75,1002.43,150.46,1004.52,150.86,1004.12Zm-.81,3.77h.64a68.38,68.38,0,0,1-.64,10.11v5.27c1,.51.75-1.5.75-2.09v-2.72c.06-3.5,1.14-8.53-.75-11.19v.62Zm4.42,11.28h0c0,.23.11.51.23.17,1.92-3.16,2.09-7.12,2.31-11.82h-2.14A102.92,102.92,0,0,1,154.47,1019.17Zm6.21-10.92h0c-1.87,2.77-.85,7.63-.85,12,0,9.84.22,19.73.22,29,4.24,0,8-.4,12.43-.23.34-13.23.34-27.93,0-41.15-4,.17-7.4-.34-11.41-.23a.58.58,0,0,0-.39.62Zm16.4,40.63h5.49q.26-20.25.62-40.53c-1.5-.45-3.84-.06-5.7-.17C177.13,1021.53,177,1035.15,177.08,1048.88Zm10.34-40.08h0c.29,13.29.29,26.86.62,40.08h17.75c.39-13.4.22-27.08.39-40.3-5.71-.57-12.61.11-18.37-.4-.28.06-.44.23-.39.62Zm23.17,40h0a55.15,55.15,0,0,1,6.16.23c.45-13.23.39-26.91.61-40.31-1.64-.51-4.12-.11-6.1-.22-.5,13.11-.61,26.74-.67,40.3Zm9.1-39.68h0c-.17,13.54.28,26.46.23,39.92,5.82-.18,11,.28,16.44.45.23-12.5.29-26.91.23-40.37-5.54-.16-10.85-.51-16.45-.62A.6.6,0,0,0,219.69,1009.08ZM154,1037.18h0c0,3.44.23,6.77.45,9.72.06.79-.56,2.43.63,2.71,1.12-.62.62-2.49.62-3.56,0-8.93.51-18,.68-26.62-.05-.12-.05-.23-.23-.23C153.57,1023.21,154,1030.11,154,1037.18Zm-4,13h0c.45-6.9,1.5-16.55-.18-22.84C150.28,1035.1,149.13,1043.47,150.06,1050.13Zm2.14-.22h0c-.17-3.45.29-7.47-.23-10.54C152.43,1043,151.18,1047.18,152.2,1049.91Zm-2.54,24.47h0c.9-6.27.17-14.19.62-20.91h-.62C149.88,1060.53,149,1067.6,149.66,1074.38Zm1.7-12.2h0c1.07-.51.62-2.61.62-4.24s.23-3.76-.22-4.41C151.18,1056,151.92,1059.74,151.36,1062.18Zm3.38-8.1h0c.12,6.39.12,13.29,0,19-.06,1.3-.45,2.88.18,2.72.67-6.84,1.07-15.8.22-22.33h-.39v.61Zm6.34-.38h0c-1.08,7.91-.11,17.41-.23,25.78,4.24.16,8-.23,12-.23-.17-8.42.29-17.31,0-25.1C168.87,1054,164.8,1054,161.08,1053.7Zm16.21.47h0c-.45,7.86,0,16.68-.17,24.88h6c-.68-7.75-.51-16.34-.62-24.7-1.41-.4-3.56-.12-5.27-.18Zm11,.15h0c-.56,8.08-.45,16.79-.85,24.92,6.17.06,11.87.63,17.92.85.34-8.27.34-17,.45-25.58-6.1.17-11.59-.22-17.52-.22Zm22.58-.1h0c-.52,8.19-.06,17.23-.23,25.77,2,.06,4,.29,5.94.4.51-8.14.05-18.31.22-26.17Zm9.36.32h0c-.45,8.08-.9,18.06,0,26.4,1.87-.28,2.32-2.15,4.41-2.31.91-.06,1.87.51,3.16.62,1.13.11,2-.28,2.77,0,2.15.75,4.07,5.6,3.56,8.65-1.37,8.8-17.23,1.15-24.08,3.7l.24,1.61c8,.85,17.51.29,25.75,1q.51-19.41.63-39.23c-5-.62-10.91-.4-16.45-.46Zm-63.62,22.38h0c.06.63.11,1.58.85,1.92,0-7.4,0-13.79-.39-21.14.56,6.17-1,13.75-.46,19.22Zm-3.5,2.19h0c.75-.23.45-1.47.62-2.32h-.69v2.32Zm-.28,4.6h0c.85-.06.39-3.33.22-3A12.65,12.65,0,0,1,152.85,1083.71Zm-2.09,0h0a2.2,2.2,0,0,0-.46-1.69C150.3,1082.7,150.25,1083.52,150.76,1083.71Zm9.89-.68h0c3.51.29,9.21.52,12,0-3.85-.39-8-.56-12-.75Zm22.57.85h0c-1.3-.67-4.41-.75-6.1-.39C178.81,1083.94,181.47,1083.43,183.22,1083.88Zm4.41.23h0c4.3.39,9.61.75,13.73,1.08,1.3.11,3.33.75,4.24-.46-.85-1-2.66-.75-4-.85-4.86-.17-9.84-.17-14.36-.17,0,.23.06.45.4.4Zm22.65,1.29h0c1.69-.27,4.46.52,5.48-.45-1-1-3.62-.51-5.48-.62v1.07Zm-61,2.68h1.3a3.67,3.67,0,0,1,.4-2.16c-.4-.27-1.08.23-1.7-.17Zm4.34-1.88h0c.62,0,1.07,0,1.24-.4C154.48,1085.92,153.41,1085.46,153.64,1086.2Zm23.5,4.69h0v2.5c9.59-.12,19.56.28,28.59,0v-2.5C196.6,1090.66,185.7,1089.58,177.14,1090.89Z"/><path d="M147.7,1134.81c-.85,6.39.17,14.19-.62,21.07,20.4.45,42.66.51,63.74,1.47,6.77.34,14-.11,19.21,2.54.23,1.7-.11,1.81.46,3.39-27.8-.75-58.27-.56-85.73-2.31-1.69-3.76-1.36-9.67-1.24-16.06.06-3.76,1-8.7.17-10.8-.4-1-.4-.45-1-1-2.31-2.09,1.31-3.33,3.4-3.62,6.55-.75,14.24.23,22.15.23,18.36,0,35.09,1.69,53.42,2.31,1.92.06,8.42-.22,8.42,2.55,0,2.37-5.65,2.09-8.28,2.09-9.89,0-19.89-1-29.1-1.24-14.53-.34-30.63-.28-45-.62Z"/></g></svg>