<svg xmlns="http://www.w3.org/2000/svg" viewBox="0 0 31.16 262"><defs><style>.cls-1{fill:#2b2b2b;}</style></defs><title>Asset 6</title><g id="Layer_2" data-name="Layer 2"><g id="Layer_1-2" data-name="Layer 1"><path class="cls-1" d="M14.66,50.28a2.13,2.13,0,0,1-2.16-1.66C8,38.21,3.85,27.71,3.63,16.13a12.9,12.9,0,0,1,.72-4.61C5.66,7.77,8.8,6.16,12.63,7.28c2.42.7,4.83,1.45,7.27,2.11,1,.26,2.1.43,1.85,1.69-.3,1.49-1.67,1.44-2.75,1.13-2-.56-3.93-1.34-5.88-2C8.83,8.65,6.58,10,6.23,14.59a46,46,0,0,0,2,16.76A170.08,170.08,0,0,0,14.66,50.28Z"/><path class="cls-1" d="M28.7,11.74c0,1.16-.64,1.48-1.4,1.81-3.27,1.4-6.43,3.07-9.91,4a3.36,3.36,0,0,0-1.41.63c-.65.59-1.24,1.53-2,.26a1.77,1.77,0,0,1,.75-2.48c1.75-1.2,3.86-1.56,5.8-2.31,4.46-1.74,4.52-1.85,1.09-5.08-1.71-1.61-3.6-3-5.42-4.5-1.19-1-1.59-2.1-.56-3.38.68-.85,1.83-.91,2.11.08.54,1.94,2.27,2.5,3.49,3.65,2.27,2.15,4.57,4.28,6.84,6.44A5.18,5.18,0,0,1,28.7,11.74Z"/><path d="M5.73,245.41a2.77,2.77,0,0,1,.46,0l.56.12.53.19a1.3,1.3,0,0,1,.39.24,1.52,1.52,0,0,1,.42,1.23,4,4,0,0,0-1.62.28A1,1,0,0,0,6,248a4.1,4.1,0,0,0-.36.76,4.68,4.68,0,0,0-.2.84,4.13,4.13,0,0,0-.07.72c0,.46,0,.9,0,1.33s.06.84.12,1.25a11.42,11.42,0,0,0,.26,1.24,11.74,11.74,0,0,0,.44,1.3,11.35,11.35,0,0,0,.51,1.07,6.17,6.17,0,0,0,.67,1,4.84,4.84,0,0,0,.81.82,2.2,2.2,0,0,0,1,.43,1.66,1.66,0,0,0,.92-.25,4.49,4.49,0,0,0,1-.74,6.74,6.74,0,0,0,.89-1.07,4.94,4.94,0,0,0,.59-1.28c0-.07.09-.25.18-.53s.2-.57.3-.89l.3-.9a4.41,4.41,0,0,0,.16-.52,14.76,14.76,0,0,1,2-4.82,3.35,3.35,0,0,1,2.79-1.57,2.66,2.66,0,0,1,1.06.23,5.84,5.84,0,0,1,1,.6,7.32,7.32,0,0,1,.88.78,7.19,7.19,0,0,1,.67.77c.22.28.45.6.69.95s.46.73.68,1.14.42.81.62,1.25a12.88,12.88,0,0,1,.5,1.3c.14.43.27.89.39,1.36s.23.94.31,1.41.16.91.21,1.33a10.12,10.12,0,0,1,.08,1.15,6,6,0,0,1-.11,1,8.38,8.38,0,0,1-.3,1.17,4.25,4.25,0,0,1-.46,1c-.18.27-.36.41-.57.41a3.17,3.17,0,0,1-.46-.05,3.46,3.46,0,0,1-.53-.14,2.57,2.57,0,0,1-.44-.22.32.32,0,0,1-.17-.28,2.18,2.18,0,0,1,.09-.6l.21-.73c.07-.28.14-.62.21-1a9.86,9.86,0,0,0-.09-3.21,13.76,13.76,0,0,0-.48-1.81,14.53,14.53,0,0,0-.69-1.71,14.07,14.07,0,0,0-.81-1.46c-.13-.2-.29-.42-.46-.66a4.88,4.88,0,0,0-.59-.69,3.72,3.72,0,0,0-.67-.53,1.47,1.47,0,0,0-.75-.21c-.36,0-.71.27-1.05.8a7.92,7.92,0,0,0-.76,1.62c-.18.55-.32,1-.43,1.47s-.31,1.12-.53,1.77-.48,1.38-.79,2.17a8.86,8.86,0,0,1-2.18,3.3,4.9,4.9,0,0,1-3.47,1.35,2.94,2.94,0,0,1-1.82-.58A6.88,6.88,0,0,1,5.65,259a12.32,12.32,0,0,1-1.33-2.36,15.45,15.45,0,0,1-.91-2.74c0-.19-.09-.42-.13-.69s-.09-.56-.13-.85-.06-.57-.08-.85a6.24,6.24,0,0,1,0-.69c0-.23,0-.52.05-.87s.08-.71.14-1.08.13-.72.21-1a3.26,3.26,0,0,1,.31-.8,3.38,3.38,0,0,1,.93-1.15A1.8,1.8,0,0,1,5.73,245.41Z"/><path d="M18.79,227.71a26.81,26.81,0,0,1,1.67,2.4,25.81,25.81,0,0,1,1.39,2.57,17.58,17.58,0,0,1,1,2.53,8.49,8.49,0,0,1,.35,2.27,5.84,5.84,0,0,1-.34,2.07,3.71,3.71,0,0,1-1.06,1.53,4.56,4.56,0,0,1-1.83,1,9.43,9.43,0,0,1-2.66.33,13.74,13.74,0,0,1-2.7-.26,12.31,12.31,0,0,1-2.34-.71,10.61,10.61,0,0,1-2-1,8.14,8.14,0,0,1-1.47-1.28,5.58,5.58,0,0,1-.93-1.4,3.52,3.52,0,0,1-.13-2.61,2.22,2.22,0,0,1,1.36-1.36,3.13,3.13,0,0,1,1-.17,3.24,3.24,0,0,1,.89.15,5.21,5.21,0,0,1,1.2.56,11,11,0,0,1,1.51,1.1,19.14,19.14,0,0,1,1.85,1.81l.59.68c.2.25.39.5.58.76s.38.51.55.76.32.48.45.69a4.92,4.92,0,0,0,1.32-.22,2.56,2.56,0,0,0,1.7-1.63,4.65,4.65,0,0,0,.24-1.6,7.4,7.4,0,0,0-.35-2.14,19.5,19.5,0,0,0-.89-2.28,25.16,25.16,0,0,0-1.19-2.24c-.43-.73-.85-1.4-1.25-2l-.11-.17a.46.46,0,0,1-.06-.16.29.29,0,0,1,.16-.23.74.74,0,0,1,.43-.11,1,1,0,0,1,.24.05,2.08,2.08,0,0,1,.32.12l.3.15A.69.69,0,0,1,18.79,227.71Zm-8.1,8.07a1.1,1.1,0,0,0-.8.28.91.91,0,0,0-.29.69,1.27,1.27,0,0,0,.1.35c.07.14.15.28.25.44a3.55,3.55,0,0,0,.35.44,2.77,2.77,0,0,0,.42.36A9.15,9.15,0,0,0,13,239.48a11.67,11.67,0,0,0,3,.58c-.57-.75-1.11-1.4-1.6-1.94a11.19,11.19,0,0,0-1.39-1.33,5.23,5.23,0,0,0-1.2-.76A2.48,2.48,0,0,0,10.69,235.78Z"/><path d="M16.84,214.26a2.08,2.08,0,0,1,1.09.38,8.71,8.71,0,0,1,1.32,1.06A14.67,14.67,0,0,1,22,219.39a11.06,11.06,0,0,1,.83,2,7.19,7.19,0,0,1,.3,2,4.35,4.35,0,0,1-1.45,3.49,6.44,6.44,0,0,1-4.26,1.23,11.33,11.33,0,0,1-1.81-.15,11.7,11.7,0,0,1-1.83-.47,11.5,11.5,0,0,1-1.76-.78,10,10,0,0,1-1.58-1.08c-.29-.26-.6-.55-.9-.86a7.1,7.1,0,0,1-.83-1.05,5.61,5.61,0,0,1-.59-1.26A4.44,4.44,0,0,1,7.92,221a2.32,2.32,0,0,1,.22-1,2.54,2.54,0,0,1,.57-.78,2.4,2.4,0,0,1,1.62-.64,3.81,3.81,0,0,1,1.77.47,8.11,8.11,0,0,1,1.81,1.34,16,16,0,0,1,1.83,2.07,32,32,0,0,1,1.81,2.68c.08.14.17.27.26.41a.4.4,0,0,0,.33.2,3.74,3.74,0,0,0,.91-.12,2.2,2.2,0,0,0,.87-.42,2.3,2.3,0,0,0,.65-.81,2.89,2.89,0,0,0,.26-1.3,7,7,0,0,0-.32-2,10.23,10.23,0,0,0-.9-2,12.45,12.45,0,0,0-1.37-1.94,15.71,15.71,0,0,0-1.7-1.76c-.34-.31-.51-.55-.51-.74a.25.25,0,0,1,.19-.23A2.13,2.13,0,0,1,16.84,214.26Zm-6.14,6.67a.54.54,0,0,0-.28.08.88.88,0,0,0-.22.21,1.3,1.3,0,0,0-.14.26.79.79,0,0,0-.05.24,2.24,2.24,0,0,0,.46,1.29,5.25,5.25,0,0,0,1.25,1.24,8.78,8.78,0,0,0,1.91,1,9.59,9.59,0,0,0,2.4.59c-.08-.13-.21-.31-.37-.53s-.34-.46-.54-.71-.39-.51-.6-.76-.38-.48-.56-.69c-.37-.44-.7-.8-1-1.09a7.12,7.12,0,0,0-.81-.68,2.39,2.39,0,0,0-.72-.35A2.55,2.55,0,0,0,10.7,220.93Z"/><path d="M7.44,186.44a.33.33,0,0,1,.19-.28.71.71,0,0,1,.34-.11,1.3,1.3,0,0,1,.64.21,3.61,3.61,0,0,1,.74.56,7,7,0,0,1,.73.85,5.93,5.93,0,0,1,.59,1c.23.52.45,1.11.66,1.75s.4,1.32.57,2,.3,1.46.42,2.23.21,1.54.27,2.32q0,.08.27.15c.18.05.41.11.69.16s.58.12.92.17l1,.15.86.13.56.09,1.38.22,1.12.16c.35,0,.68.08,1,.1s.67,0,1,.06h1.48l.54,0a.64.64,0,0,1,.24.18A3.32,3.32,0,0,1,24,199a3.19,3.19,0,0,1,.26.42.63.63,0,0,1-.12.88,1.6,1.6,0,0,1-.54.36,1.88,1.88,0,0,1-.59.17l-.38,0a16.06,16.06,0,0,1-2.24-.16c-.72-.11-1.45-.23-2.19-.38l-2.32-.46c-.8-.16-1.67-.3-2.62-.41a.57.57,0,0,0-.33.35,1.59,1.59,0,0,0-.07.48.91.91,0,0,0,0,.17v.15c0,.05,0,.17,0,.37s0,.44,0,.72,0,.57.05.88,0,.61.06.88,0,.51,0,.71,0,.33,0,.37a.81.81,0,0,1-.15.46,1.59,1.59,0,0,1-.34.39,1.52,1.52,0,0,1-.4.28.82.82,0,0,1-.35.11,1,1,0,0,1-.49-.11.93.93,0,0,1-.34-.27,1.33,1.33,0,0,1-.2-.37,1.51,1.51,0,0,1-.06-.41c0-.15,0-.36,0-.64s0-.58,0-.91,0-.69-.05-1.05,0-.71-.07-1-.06-.6-.09-.84a3.33,3.33,0,0,0-.09-.5,1.33,1.33,0,0,0-.63-.63,5.51,5.51,0,0,0-1.62-.59c-.16,0-.39-.09-.69-.14l-1-.19L5.38,198l-1.11-.19-.93-.14-.61-.06a.83.83,0,0,1-.42-.15,2.79,2.79,0,0,1-.42-.35,2.66,2.66,0,0,1-.32-.4.54.54,0,0,1,0-.72,1.67,1.67,0,0,1,.34-.36,1.59,1.59,0,0,1,.39-.23.88.88,0,0,1,.31-.09l.32,0,.61.09c.24,0,.5.08.77.14l.79.14.67.12.41.09,1.45.34,1,.21.62.12.42,0a.92.92,0,0,0,.45-.08.38.38,0,0,0,.13-.29s0-.19,0-.46-.08-.61-.13-1-.13-.88-.22-1.38-.18-1-.29-1.54-.24-1-.37-1.49a8.17,8.17,0,0,0-.44-1.25l-.48-1q-.22-.44-.42-.78c-.12-.22-.22-.41-.29-.56A.89.89,0,0,1,7.44,186.44Z"/><path d="M16.78,167.33l.37,0a2.39,2.39,0,0,1,.45.09,2.11,2.11,0,0,1,.45.18,1.6,1.6,0,0,1,.4.28,18.71,18.71,0,0,1,1.48,1.79,13.82,13.82,0,0,1,1.14,1.85,10.47,10.47,0,0,1,.72,1.79,5.63,5.63,0,0,1,.26,1.64,3.57,3.57,0,0,1-.39,1.75,3.26,3.26,0,0,1-1,1.11,4,4,0,0,1-1.46.59,8.65,8.65,0,0,1-1.69.17c-.19,0-.42,0-.67,0l-.79,0-.8-.05-.7,0a4.3,4.3,0,0,0-.77.06.8.8,0,0,0-.45.24,3.15,3.15,0,0,0,.62.75,13.58,13.58,0,0,0,1.16,1c.47.36,1,.74,1.62,1.15s1.28.82,2,1.23l1.38.8,1.4.83c.45.27.88.54,1.3.81s.77.52,1.08.76a5.74,5.74,0,0,1,.74.66.85.85,0,0,1,.27.51,1.66,1.66,0,0,1,0,.42c0,.11-.06.21-.09.29a1,1,0,0,1-.08.21.49.49,0,0,0-.05.2,6.24,6.24,0,0,1-1,.17c-.37,0-.75.07-1.13.09l-1,0h-.73a30.55,30.55,0,0,1-4.05-.28c-1.42-.19-2.9-.41-4.46-.67l-4.89-.8q-2.55-.42-5.33-.69a2,2,0,0,1-.66-.26,1.54,1.54,0,0,1-.41-.39,1.35,1.35,0,0,1-.19-.43,1.89,1.89,0,0,1-.05-.39.77.77,0,0,1,.45-.69,2.36,2.36,0,0,1,1.19-.26c.13,0,.34,0,.62.05s.59.08.94.15l1.12.2,1.18.23,1.13.23.93.19q1.54.34,3.15.63c1.07.18,2.07.35,3,.49s1.77.24,2.5.32a15.88,15.88,0,0,0,1.65.11h.93l.51,0a1,1,0,0,0,.32,0,5.49,5.49,0,0,0-1-1q-.62-.49-1.41-1l-1.74-1.12c-.63-.41-1.29-.86-2-1.37-.38-.27-.79-.58-1.24-.95a13.71,13.71,0,0,1-1.22-1.19,6.57,6.57,0,0,1-.94-1.33,2.88,2.88,0,0,1-.38-1.38c0-.21.18-.38.53-.51a4.11,4.11,0,0,1,1.38-.2,4.62,4.62,0,0,1,.7.07l1,.13,1.17.14c.41,0,.78.06,1.13.06a9.46,9.46,0,0,0,1-.05,4.23,4.23,0,0,0,1.12-.25,2.46,2.46,0,0,0,.9-.62,1.65,1.65,0,0,0,.38-1.14,7.88,7.88,0,0,0-.58-2.73,13,13,0,0,0-1.85-3.22c-.09-.12-.18-.22-.27-.32l-.25-.28a1.74,1.74,0,0,1-.19-.22.26.26,0,0,1-.08-.16s0,0,0-.06l.09-.1.11-.1S16.77,167.33,16.78,167.33Z"/><path d="M16.84,154.76a2.06,2.06,0,0,1,1.09.37,9.55,9.55,0,0,1,1.32,1.07,12.77,12.77,0,0,1,1.54,1.73,14.26,14.26,0,0,1,1.24,2,11.06,11.06,0,0,1,.83,2,7.12,7.12,0,0,1,.3,2,4.38,4.38,0,0,1-1.45,3.5,6.44,6.44,0,0,1-4.26,1.23,10.31,10.31,0,0,1-1.81-.16,11.67,11.67,0,0,1-1.83-.46,11.5,11.5,0,0,1-1.76-.78,10,10,0,0,1-1.58-1.08c-.29-.26-.6-.55-.9-.87a6.53,6.53,0,0,1-.83-1A6.05,6.05,0,0,1,8.15,163a4.48,4.48,0,0,1-.23-1.49,2.29,2.29,0,0,1,.22-1,2.54,2.54,0,0,1,.57-.78,2.48,2.48,0,0,1,1.62-.65,3.71,3.71,0,0,1,1.77.48,8.36,8.36,0,0,1,1.81,1.33,17.46,17.46,0,0,1,1.83,2.07,32.2,32.2,0,0,1,1.81,2.69l.26.4a.38.38,0,0,0,.33.2,3.7,3.7,0,0,0,.91-.11,2.34,2.34,0,0,0,.87-.42,2.3,2.3,0,0,0,.65-.81,2.89,2.89,0,0,0,.26-1.3,7.11,7.11,0,0,0-.32-2.05,10.76,10.76,0,0,0-.9-2,13.47,13.47,0,0,0-1.37-1.94,17.63,17.63,0,0,0-1.7-1.76c-.34-.3-.51-.55-.51-.73a.25.25,0,0,1,.19-.23A1.83,1.83,0,0,1,16.84,154.76Zm-6.14,6.67a.46.46,0,0,0-.28.08.88.88,0,0,0-.22.21,1.3,1.3,0,0,0-.14.26.79.79,0,0,0-.05.24,2.24,2.24,0,0,0,.46,1.29,5,5,0,0,0,1.25,1.23,8.8,8.8,0,0,0,1.91,1,10,10,0,0,0,2.4.59c-.08-.14-.21-.31-.37-.53s-.34-.46-.54-.71l-.6-.77c-.2-.25-.38-.48-.56-.68-.37-.44-.7-.8-1-1.09a6.21,6.21,0,0,0-.81-.68,2.17,2.17,0,0,0-.72-.35A2.55,2.55,0,0,0,10.7,161.43Z"/><path d="M13.36,131.29c.52,0,1.14,0,1.88.05s1.6.1,2.59.18c.6,0,1.3.09,2.09.18s1.6.18,2.44.31,1.66.28,2.47.46a18.49,18.49,0,0,1,2.15.6,8.38,8.38,0,0,1,1.58.73,5.91,5.91,0,0,1,1.31,1.06,4.64,4.64,0,0,1,.88,1.38,4.37,4.37,0,0,1,.32,1.73,5.81,5.81,0,0,1-.15,1.29,8,8,0,0,1-.44,1.3,9.63,9.63,0,0,1-.63,1.24,10.35,10.35,0,0,1-.77,1.11,10,10,0,0,1-.94,1,5.77,5.77,0,0,1-1,.72,1.91,1.91,0,0,1-1,.28c-.3,0-.45-.09-.45-.28a.34.34,0,0,1,.1-.22.79.79,0,0,1,.13-.13,1.21,1.21,0,0,1,.16-.16l.15-.12.08-.08A8.58,8.58,0,0,0,28.92,138a2.86,2.86,0,0,0-.48-1.71,3.39,3.39,0,0,0-1.25-1.06,6.78,6.78,0,0,0-1.71-.61c-.63-.14-1.25-.25-1.86-.35-.38-.06-.77-.11-1.16-.15l-1.2-.12-1.32-.12-1.48-.13a9.75,9.75,0,0,1,1.27,1.45A13.68,13.68,0,0,1,20.85,137a11.66,11.66,0,0,1,.8,2,6.53,6.53,0,0,1,.3,1.86,4.69,4.69,0,0,1-.05.58,2.7,2.7,0,0,1-.18.69,1.74,1.74,0,0,1-.34.58.63.63,0,0,1-.51.24,7.32,7.32,0,0,1-1.91-.31,19,19,0,0,1-2.19-.76c-.74-.32-1.45-.66-2.12-1a15.94,15.94,0,0,1-1.72-1.07,12.5,12.5,0,0,1-1.72-1.5,12.63,12.63,0,0,1-1.34-1.6A8,8,0,0,1,9,135.18a3.45,3.45,0,0,1-.3-1.28A5.18,5.18,0,0,1,9,132.21a2.78,2.78,0,0,1,.4-.74A1.51,1.51,0,0,1,10,131a1.15,1.15,0,0,1,.56,0l.85.12,1,.15A6.9,6.9,0,0,0,13.36,131.29Zm2.4,2.4-.83-.13c-.32,0-.66-.08-1-.1l-1.15-.08c-.4,0-.81,0-1.21,0a.71.71,0,0,0-.6.32,1.38,1.38,0,0,0-.22.78,1.88,1.88,0,0,0,.43.89,10.9,10.9,0,0,0,1.14,1.33A19,19,0,0,0,14,138.14a14.52,14.52,0,0,0,2.09,1.33,5.77,5.77,0,0,0,.93.4c.35.12.71.22,1.06.31a10.6,10.6,0,0,0,1.05.19,5.66,5.66,0,0,0,.84.07c0-.29-.11-.61-.19-1s-.18-.72-.29-1.09-.25-.75-.39-1.12a7.59,7.59,0,0,0-.48-1,7,7,0,0,0-.59-.87,6.8,6.8,0,0,0-.7-.8,4.78,4.78,0,0,0-.78-.6A2.14,2.14,0,0,0,15.76,133.69Z"/><path d="M12.38,113.56h.25a1.86,1.86,0,0,1,.34.07,2,2,0,0,1,.29.14.23.23,0,0,1,.13.21c0,.06,0,.15,0,.29s0,.27,0,.42,0,.29,0,.42,0,.23,0,.29a6.87,6.87,0,0,0,2,4.57,15.37,15.37,0,0,0,4.8,3.1c.41.17.84.33,1.28.48s.91.31,1.39.46a6.94,6.94,0,0,0,.72.16,4.83,4.83,0,0,1,.65.17.43.43,0,0,1,.22.24,3.43,3.43,0,0,1,.19.48q.09.27.15.51a1.94,1.94,0,0,1,.06.33c0,.66-.65,1-2.06,1.12-.38,0-.73,0-1,0l-.91,0c-.29,0-.59,0-.91-.08l-1.09-.1-1.72-.18c-.65-.06-1.31-.14-2-.23s-1.29-.17-1.89-.27a12.93,12.93,0,0,1-1.49-.3,2.39,2.39,0,0,1-1-.44,1.11,1.11,0,0,1-.36-.82.62.62,0,0,1,.08-.31,1,1,0,0,1,.21-.3,1.22,1.22,0,0,1,.27-.24.61.61,0,0,1,.26-.1,6.87,6.87,0,0,1,.78,0c.28,0,.57,0,.88.1l.91.17.87.21q.83.19,1.41.3c.38.08.76.14,1.12.18l1.17.15,1.55.18-.94-.42-.68-.32-.52-.27-.48-.26-.56-.32-.73-.43a12.09,12.09,0,0,1-2.72-2.16,8,8,0,0,1-1.52-2.21,5.42,5.42,0,0,1-.61-2,5.74,5.74,0,0,1,0-.89,5.11,5.11,0,0,1,.21-1,3.07,3.07,0,0,1,.41-.81A.73.73,0,0,1,12.38,113.56Z"/><path d="M12.51,92.3a2.3,2.3,0,0,1,1.05.28,6.82,6.82,0,0,1,1,.62,23.55,23.55,0,0,1,2.23,1.89c.68.66,1.32,1.32,1.92,2a10.21,10.21,0,0,1,1.48,2.09,4.28,4.28,0,0,1,.53,1.88,1.68,1.68,0,0,1-.17.71,3.51,3.51,0,0,1-.45.66,3.17,3.17,0,0,1-.66.54,3.62,3.62,0,0,1-.77.37,4.5,4.5,0,0,1-.5.13l-.52.11-.4.13c-.11,0-.16.1-.16.16s.06.12.18.25.29.27.48.43l.66.54.72.57.63.5.43.35a11.67,11.67,0,0,1,1,1.06c.35.41.66.81.95,1.22a10.31,10.31,0,0,1,.7,1.12,1.77,1.77,0,0,1,.28.76,3.13,3.13,0,0,1-.18,1,2.71,2.71,0,0,1-.53.9,2.65,2.65,0,0,1-.84.63,2.81,2.81,0,0,1-1.15.23,8.38,8.38,0,0,1-2.43-.42,19.14,19.14,0,0,1-2.77-1.12,22.4,22.4,0,0,1-2.71-1.6,14.27,14.27,0,0,1-2.23-1.89,7.71,7.71,0,0,1-1.59-2.37,6.67,6.67,0,0,1-.51-2.55.83.83,0,0,1,.1-.43,1,1,0,0,1,.26-.31,2.36,2.36,0,0,1,.35-.23l.39-.2a.85.85,0,0,0,.29-.24c.11-.13.22-.25.32-.39a3.75,3.75,0,0,1,.33-.35.43.43,0,0,1,.3-.15,2.21,2.21,0,0,1,.67.12l.85.27c.32.09.68.18,1.09.26a7.23,7.23,0,0,0,1.4.12,9,9,0,0,0,1.18-.09,6.92,6.92,0,0,0,1.25-.29,3.45,3.45,0,0,0,1-.49.87.87,0,0,0,.4-.71,1.89,1.89,0,0,0-.28-1,7.73,7.73,0,0,0-.78-1.12,26.93,26.93,0,0,0-2.46-2.68c-.89-.84-1.77-1.7-2.65-2.58a.62.62,0,0,1-.23-.43Q12,92.3,12.51,92.3Zm-1.65,11.23-.16,0a2.1,2.1,0,0,0-.26.13,1.27,1.27,0,0,0-.25.21.39.39,0,0,0-.1.27v0a3.18,3.18,0,0,0,.35,1.13,5.7,5.7,0,0,0,.9,1.28A12.7,12.7,0,0,0,12.91,108a21.3,21.3,0,0,0,2.35,1.55l.91.54a8.53,8.53,0,0,0,1.09.56,8.27,8.27,0,0,0,1.27.45,5.53,5.53,0,0,0,1.42.18.77.77,0,0,0,.68-.33,1.13,1.13,0,0,0,.23-.66,1.87,1.87,0,0,0-.39-.94,11.4,11.4,0,0,0-1-1.24c-.44-.45-.94-.9-1.5-1.37s-1.14-.89-1.73-1.29a16.24,16.24,0,0,0-1.75-1,7.29,7.29,0,0,0-1.57-.6l-.51-.1-.59-.11-.54-.08A2.21,2.21,0,0,0,10.86,103.53Z"/><path d="M9.4,72.56a1.44,1.44,0,0,1,.35.08,4.67,4.67,0,0,1,.51.19l.54.24a4,4,0,0,1,.42.21,14.87,14.87,0,0,1,2,1.27,24.35,24.35,0,0,1,2,1.61c.64.59,1.26,1.21,1.85,1.86s1.16,1.33,1.69,2,1,1.36,1.47,2,.83,1.33,1.17,2a4.55,4.55,0,0,0,.29.48l.52.78.62,1c.22.33.42.65.6,1s.33.57.44.81a1.29,1.29,0,0,1,.18.51,2.22,2.22,0,0,1-.07.57,3.66,3.66,0,0,1-.21.53,1.48,1.48,0,0,1-.3.38.53.53,0,0,1-.33.14,1.1,1.1,0,0,1-.74-.26,2.29,2.29,0,0,1-.56-.71c-.2-.4-.37-.72-.52-1a7.7,7.7,0,0,0-.4-.68,4.56,4.56,0,0,0-.4-.55c-.14-.17-.32-.35-.52-.55a9.65,9.65,0,0,0-.84-.71c-.34-.25-.71-.49-1.11-.73a13.83,13.83,0,0,0-1.27-.68c-.43-.22-.87-.41-1.3-.58a9.88,9.88,0,0,0-1.25-.39,4.58,4.58,0,0,0-1.09-.15,3,3,0,0,0-.59.07,2.22,2.22,0,0,0-.53.19,1.17,1.17,0,0,0-.41.31.72.72,0,0,0-.15.45,2.06,2.06,0,0,0,.2.84,5.3,5.3,0,0,0,.52.84,9.88,9.88,0,0,0,.66.77c.24.25.45.46.64.64.57.54,1.13,1,1.68,1.45s1.11.83,1.66,1.18,1.1.68,1.65,1,1.08.57,1.62.83l1.47.15,1.79.15c.65.06,1.26.1,1.83.13l1.62.09,1.45.1a10.75,10.75,0,0,1,1.32.19l.55.21a2.87,2.87,0,0,1,.52.28,1.45,1.45,0,0,1,.39.39,1,1,0,0,1,.15.55,1,1,0,0,1-.09.37,1.29,1.29,0,0,1-.23.39,1.7,1.7,0,0,1-.34.32.68.68,0,0,1-.4.13q-.48,0-1.17-.06L27.52,95l-1.27-.16-.81-.11c-1-.13-2.05-.25-3.19-.36s-2.4-.19-3.75-.26l-1.74,0-2,0c-.57,0-1,0-1.43-.06-1.83-.14-2.74-.62-2.74-1.44a1.1,1.1,0,0,1,.43-.86,1.42,1.42,0,0,1,.92-.38,6.7,6.7,0,0,1,1.11.11l1.23.23,1.24.23a6.69,6.69,0,0,0,1.1.11q.42,0,.42-.09c-1.21-.67-2.3-1.33-3.27-2a14.16,14.16,0,0,1-2.36-2c-.26-.28-.52-.6-.79-1a9.5,9.5,0,0,1-.73-1.06,7.38,7.38,0,0,1-.53-1.1,3,3,0,0,1-.21-1.05,2.25,2.25,0,0,1,.23-1,3,3,0,0,1,.62-.89,3.19,3.19,0,0,1,.88-.62,2.25,2.25,0,0,1,1-.23,8.13,8.13,0,0,1,1.1.1,10.44,10.44,0,0,1,1.32.28c.46.12.94.27,1.42.44s.93.36,1.37.57a12.6,12.6,0,0,1,1.22.66,5.18,5.18,0,0,1,.92.73Q18,82.17,16.94,80.83t-2.16-2.52a24.68,24.68,0,0,0-2.42-2.24,23.09,23.09,0,0,0-3-2L9,73.82c-.15-.09-.29-.17-.43-.27a3.41,3.41,0,0,1-.33-.28A.36.36,0,0,1,8.09,73c0-.06.05-.12.16-.18a2.54,2.54,0,0,1,.39-.13l.44-.1Z"/><path d="M14.54,54.89l.42,0c.2,0,.4,0,.62.08l.61.1a1.62,1.62,0,0,1,.4.12,13.69,13.69,0,0,1,1.91,1.26A10.14,10.14,0,0,1,20.1,58a7.51,7.51,0,0,1,1.1,1.69,4,4,0,0,1,.42,1.75,4.14,4.14,0,0,1-.22,1.45,2.94,2.94,0,0,1-.57,1,3.09,3.09,0,0,1-.81.64,5.3,5.3,0,0,1-.93.37,8.08,8.08,0,0,1-.92.21l-.82.13a3.54,3.54,0,0,1-.6,0,12.69,12.69,0,0,1-1.31-.07,13.33,13.33,0,0,0-1.36-.07,4.3,4.3,0,0,0-.77.06.65.65,0,0,0-.45.24,5.05,5.05,0,0,0,.63.59l.74.6.85.68c.31.23.64.51,1,.81a4.29,4.29,0,0,0,.55.36l1.05.6c.42.23.88.49,1.37.78s1,.57,1.52.88,1,.61,1.5.93.91.6,1.28.88a8.76,8.76,0,0,1,.9.77,1,1,0,0,1,.34.59,1.63,1.63,0,0,1-.05.43c0,.11-.06.2-.08.29a2.2,2.2,0,0,1-.09.21.43.43,0,0,0,0,.19,5.49,5.49,0,0,1-1,.18l-1.13.08-1,0h-.73a32.34,32.34,0,0,1-4.05-.28c-1.42-.19-2.9-.41-4.46-.67l-4.88-.81q-2.55-.41-5.34-.69A2.55,2.55,0,0,1,1,72.65a2.8,2.8,0,0,1-.54-.35,1.37,1.37,0,0,1-.33-.37A.56.56,0,0,1,0,71.65H0a.8.8,0,0,1,.21-.42,1.64,1.64,0,0,1,.47-.37,2.85,2.85,0,0,1,.64-.26,2.46,2.46,0,0,1,.72-.1,1.83,1.83,0,0,1,.49.06l.78.17.61.14.53.11.59.12.78.14,1.06.19.58.1,1.15.19,1.53.26,1.72.29,1.71.28,1.53.24,1.16.17a4.57,4.57,0,0,0,.59.07l.38,0,.5,0,.57,0h.58a4.7,4.7,0,0,0,.54,0,1.36,1.36,0,0,0,.43-.09,4.73,4.73,0,0,0-.74-.77c-.31-.27-.65-.56-1-.85s-.79-.59-1.22-.89l-1.28-.9-1.23-.88c-.39-.28-.74-.55-1-.81a7.5,7.5,0,0,1-.7-.46c-.26-.19-.51-.4-.77-.61s-.49-.44-.7-.66-.4-.43-.54-.61A2.87,2.87,0,0,1,10,64.51a4,4,0,0,1-.1-.89c0-.09.07-.18.21-.26a2.59,2.59,0,0,1,.5-.22,4.15,4.15,0,0,1,.63-.16,3.25,3.25,0,0,1,.57-.06,4.84,4.84,0,0,1,.65.06l.93.14,1.08.14a10,10,0,0,0,1.08.06H16c.27,0,.59-.05,1-.1A4.15,4.15,0,0,0,18,62.94a2.5,2.5,0,0,0,.89-.6,1.58,1.58,0,0,0,.37-1.09A3.46,3.46,0,0,0,19,59.9a5.3,5.3,0,0,0-.78-1.28A10,10,0,0,0,17,57.32c-.49-.44-1.06-.91-1.7-1.4a3,3,0,0,1-.56-.56,1,1,0,0,1-.23-.41A.05.05,0,0,1,14.54,54.89Z"/></g></g></svg>