<svg xmlns="http://www.w3.org/2000/svg" viewBox="0 0 42.47 242.54"><g id="Layer_2" ><path  d="M26.05,165.42A21,21,0,0,1,14.64,160c-1-.89-1.81-1.95-1.27-3.46s1.88-1.91,3.43-2c3.27-.12,6.39.07,8.58,3.41.77-2.59-1.09-4.6-.31-6.76,5.29,3,5.28,14.81,0,18.25.1.15.17.36.31.44,1.4.79,4.05.54,3.51,3.06s-3.05,1.64-4.7,1.42c-5-.64-9.89-1.56-15.08-2.4,0,2.52.37,4.12,3.58,4,2.92-.13,5.88.57,8.83.86,1,.1,2.27,1.07,3-.77.26-.67,1.17-.23,1.7.14a2.47,2.47,0,0,1,1.18,2.23,1.42,1.42,0,0,1-1.53,1.4q-3.45-.12-6.89-.39c-2.72-.2-5.42-.48-8.39-.76.54,2.5,1,4.62,1.46,6.72.16.7.91,1.57-.26,1.87-.93.24-1.22-.72-1.45-1.44a35.39,35.39,0,0,1-1.52-5c-.29-1.75-1-2.45-2.81-2.26a24.8,24.8,0,0,1-4,0c-.79,0-2,.33-2-1,0-1.14,1.11-1.18,2-1.31s2-.15,2.93-.37,2.51.78,2.71-.81c.17-1.27.42-2.94-1.17-3.81-.69-.37-1.66-.73-1-1.61a2.35,2.35,0,0,1,2.6-.69c3.92.9,7.9,1.54,12.44,2.39-2.29-1.9-1.87-2.83.23-3.27C22.58,167.67,24.67,167.78,26.05,165.42Z"/><path  d="M17.41,63.43a2.7,2.7,0,0,1-2.71-2.12C9.21,48.11,4.05,34.81,3.92,20.19a16.38,16.38,0,0,1,1-5.81C6.6,9.66,10.58,7.68,15.4,9.13c3,.92,6.08,1.89,9.14,2.76,1.21.34,2.65.56,2.31,2.16-.39,1.87-2.12,1.79-3.48,1.39-2.51-.74-4.94-1.75-7.4-2.65-5.39-2-8.25-.29-8.75,5.48A58.38,58.38,0,0,0,9.57,39.45C11.87,47.44,14.08,55.45,17.41,63.43Z"/><path  d="M26.81,128.36c1.28,2.68,3,5.17,2.71,8.31-.31,3.67-2.58,5.16-5.86,3.53a13,13,0,0,1-7.09-9.37,4,4,0,0,1,.54-3.17,1.46,1.46,0,0,1,2-.51c.71.34.56.74.38,1.51-.72,3.05,2.52,8.42,5.48,9.58,2.07.81,2.24-.6,2.4-2,.36-3.11-2.22-7.6-5.09-9a17,17,0,0,1-2.36-1.11,1.45,1.45,0,0,1-.64-2,1.34,1.34,0,0,1,1.73-.57c3.57,1.34,7.37,1,11,1.62a12.89,12.89,0,0,1,10,15.9c-.26.91-.63,1.68-1.76,1.57s-.93-.84-1-1.66a32.24,32.24,0,0,0-.87-4.85C36.83,129.92,33.71,127.79,26.81,128.36Z"/><path  d="M22.18,211.56c.29.7.58,1.74,1.39,1.53s1.22-1.16,1.35-2.08c.43-3,0-6.1-.05-9.69,3.17,2.33,3.24,5.44,3,8.13-.42,4-1.07,7.9-1.38,11.91s-3.09,5-6.23,2.58a12.23,12.23,0,0,1-4.89-8.63c-.24-2.37.25-4.54,3.76-4-.78-2.54-1.62-4.92-1.07-7.44.21-1,.4-2.06,1.58-2.28a2.23,2.23,0,0,1,2.5,1.71c.83,2.23,1.95,4.43,1.59,6.95-2.84.5-1.89-2.25-2.93-3.08C21.14,208.48,22.07,209.9,22.18,211.56Z"/><path  d="M10.31,235.28a13,13,0,0,0,3.76,4.27c1.78-3.32,2.7-6.86,5.17-9.6,3.71-4.12,7-3.66,9.22,1.43a12.16,12.16,0,0,1,1.13,5.1c-.08,3.34-2.45,5.92-5.41,5.91-2.53,0-3.78-1.77-4-5.62.2-.05.54-.18.57-.13.86,1.51,1.46,3.39,3.85,2.53s1.93-2.9,1.82-4.73a8.46,8.46,0,0,0-.58-2.54c-1-2.57-2.16-2.78-4-.79s-3,4.8-4.09,7.46c-1.92,4.82-4,5.21-7.57,1.37a24.67,24.67,0,0,1-5.06-8c-.58-1.53-1.32-3.43.7-4.34s2.52,1.09,3.34,2.32C8.5,231.91,10.29,233.4,10.31,235.28Z"/><path  d="M35.61,15c0,1.47-.81,1.86-1.79,2.26C29.68,19,25.67,21,21.27,22.1a4.33,4.33,0,0,0-1.79.78c-.83.74-1.58,1.92-2.52.31a2.26,2.26,0,0,1,1-3.13c2.23-1.49,4.88-1.91,7.34-2.84,5.65-2.13,5.73-2.28,1.44-6.39C24.6,8.78,22.23,7,20,5.08,18.47,3.84,18,2.41,19.29.8,20.16-.26,21.61-.32,22,.93c.66,2.45,2.83,3.19,4.36,4.66,2.84,2.74,5.71,5.46,8.55,8.21A5.12,5.12,0,0,1,35.61,15Z"/></g></svg>