<svg xmlns="http://www.w3.org/2000/svg" xmlns:xlink="http://www.w3.org/1999/xlink" viewBox="0 0 12257.34 1301.73"><defs><style>.cls-1,.cls-10,.cls-11,.cls-12,.cls-13,.cls-14,.cls-15,.cls-16,.cls-17,.cls-18,.cls-19,.cls-20,.cls-21,.cls-22,.cls-23,.cls-24,.cls-25,.cls-26,.cls-27,.cls-28,.cls-29,.cls-30,.cls-31,.cls-32,.cls-33,.cls-34,.cls-35,.cls-36,.cls-37,.cls-38,.cls-39,.cls-4,.cls-40,.cls-41,.cls-42,.cls-43,.cls-44,.cls-45,.cls-46,.cls-47,.cls-48,.cls-49,.cls-5,.cls-50,.cls-51,.cls-52,.cls-53,.cls-54,.cls-55,.cls-56,.cls-57,.cls-58,.cls-59,.cls-6,.cls-60,.cls-61,.cls-62,.cls-63,.cls-64,.cls-65,.cls-66,.cls-67,.cls-68,.cls-69,.cls-7,.cls-70,.cls-8,.cls-9{stroke:#afafaf;stroke-miterlimit:10;stroke-width:12px;}.cls-1,.cls-2{fill:url(#linear-gradient);}.cls-1{clip-rule:evenodd;}.cls-10,.cls-11,.cls-12,.cls-13,.cls-14,.cls-15,.cls-16,.cls-17,.cls-18,.cls-19,.cls-2,.cls-20,.cls-21,.cls-22,.cls-23,.cls-24,.cls-25,.cls-26,.cls-27,.cls-28,.cls-29,.cls-30,.cls-31,.cls-32,.cls-33,.cls-34,.cls-35,.cls-36,.cls-37,.cls-38,.cls-39,.cls-4,.cls-40,.cls-41,.cls-42,.cls-43,.cls-44,.cls-45,.cls-46,.cls-47,.cls-48,.cls-49,.cls-5,.cls-50,.cls-51,.cls-52,.cls-53,.cls-54,.cls-55,.cls-56,.cls-57,.cls-58,.cls-59,.cls-6,.cls-60,.cls-61,.cls-62,.cls-63,.cls-64,.cls-65,.cls-66,.cls-67,.cls-68,.cls-69,.cls-7,.cls-70,.cls-8,.cls-9{fill-rule:evenodd;}.cls-3{clip-path:url(#clip-path);}.cls-4{fill:url(#linear-gradient-3);}.cls-5{fill:url(#linear-gradient-4);}.cls-6{fill:url(#linear-gradient-5);}.cls-7{fill:url(#linear-gradient-6);}.cls-8{fill:url(#linear-gradient-7);}.cls-9{fill:url(#linear-gradient-8);}.cls-10{fill:url(#linear-gradient-9);}.cls-11{fill:url(#linear-gradient-10);}.cls-12{fill:url(#linear-gradient-11);}.cls-13{fill:url(#linear-gradient-12);}.cls-14{fill:url(#linear-gradient-13);}.cls-15{fill:url(#linear-gradient-14);}.cls-16{fill:url(#linear-gradient-15);}.cls-17{fill:url(#linear-gradient-16);}.cls-18{fill:url(#linear-gradient-17);}.cls-19{fill:url(#linear-gradient-18);}.cls-20{fill:url(#linear-gradient-19);}.cls-21{fill:url(#linear-gradient-20);}.cls-22{fill:url(#linear-gradient-21);}.cls-23{fill:url(#linear-gradient-22);}.cls-24{fill:url(#linear-gradient-23);}.cls-25{fill:url(#linear-gradient-24);}.cls-26{fill:url(#linear-gradient-25);}.cls-27{fill:url(#linear-gradient-26);}.cls-28{fill:url(#linear-gradient-27);}.cls-29{fill:url(#linear-gradient-28);}.cls-30{fill:url(#linear-gradient-29);}.cls-31{fill:url(#linear-gradient-30);}.cls-32{fill:url(#linear-gradient-31);}.cls-33{fill:url(#linear-gradient-32);}.cls-34{fill:url(#linear-gradient-33);}.cls-35{fill:url(#linear-gradient-34);}.cls-36{fill:url(#linear-gradient-35);}.cls-37{fill:url(#linear-gradient-36);}.cls-38{fill:url(#linear-gradient-37);}.cls-39{fill:url(#linear-gradient-38);}.cls-40{fill:url(#linear-gradient-39);}.cls-41{fill:url(#linear-gradient-40);}.cls-42{fill:url(#linear-gradient-41);}.cls-43{fill:url(#linear-gradient-42);}.cls-44{fill:url(#linear-gradient-43);}.cls-45{fill:url(#linear-gradient-44);}.cls-46{fill:url(#linear-gradient-45);}.cls-47{fill:url(#linear-gradient-46);}.cls-48{fill:url(#linear-gradient-47);}.cls-49{fill:url(#linear-gradient-48);}.cls-50{fill:url(#linear-gradient-49);}.cls-51{fill:url(#linear-gradient-50);}.cls-52{fill:url(#linear-gradient-51);}.cls-53{fill:url(#linear-gradient-52);}.cls-54{fill:url(#linear-gradient-53);}.cls-55{fill:url(#linear-gradient-54);}.cls-56{fill:url(#linear-gradient-55);}.cls-57{fill:url(#linear-gradient-56);}.cls-58{fill:url(#linear-gradient-57);}.cls-59{fill:url(#linear-gradient-58);}.cls-60{fill:url(#linear-gradient-59);}.cls-61{fill:url(#linear-gradient-60);}.cls-62{fill:url(#linear-gradient-61);}.cls-63{fill:url(#linear-gradient-62);}.cls-64{fill:url(#linear-gradient-63);}.cls-65{fill:url(#linear-gradient-64);}.cls-66{fill:url(#linear-gradient-65);}.cls-67{fill:url(#linear-gradient-66);}.cls-68{fill:url(#linear-gradient-67);}.cls-69{fill:url(#linear-gradient-68);}.cls-70{fill:none;}</style><linearGradient id="linear-gradient" x1="1213.48" y1="2045.83" x2="345.94" y2="543.21" gradientTransform="matrix(1.24, -0.02, 0.03, 0.81, -610.79, 277.66)" gradientUnits="userSpaceOnUse"><stop offset="0" stop-color="#d4d4d4"/><stop offset="1" stop-color="#b3b3b3"/></linearGradient><clipPath id="clip-path" transform="translate(9269.69 -1008.25)"><polygon class="cls-1" points="-1828.06 1374.17 2409.61 1325.16 2420.27 1031.9 1757.54 1014.26 -1828.06 1374.17"/></clipPath><linearGradient id="linear-gradient-3" x1="1711.27" y1="1708.13" x2="1379.54" y2="1006.51" gradientTransform="matrix(2.16, -0.03, 0.06, 1.32, 6495.84, -1416.24)" xlink:href="#linear-gradient"/><linearGradient id="linear-gradient-4" x1="1761.09" y1="1551.04" x2="1330.95" y2="806.01" gradientTransform="translate(9240.49 -990) rotate(-1.46)" xlink:href="#linear-gradient"/><linearGradient id="linear-gradient-5" x1="1419.39" y1="1111.38" x2="1384.28" y2="1056.19" gradientTransform="matrix(1.17, 0.06, -0.03, 1.14, 9693.59, -1256.64)" xlink:href="#linear-gradient"/><linearGradient id="linear-gradient-6" x1="1295.8" y1="1168.76" x2="1243.85" y2="1087.09" gradientTransform="matrix(1.17, 0.06, -0.03, 1.14, 9693.59, -1256.64)" xlink:href="#linear-gradient"/><linearGradient id="linear-gradient-7" x1="1529.84" y1="1085.78" x2="1505.93" y2="1048.19" gradientTransform="matrix(1.17, 0.06, -0.03, 1.14, 9693.59, -1256.64)" xlink:href="#linear-gradient"/><linearGradient id="linear-gradient-8" x1="1575.93" y1="1089.33" x2="1555.63" y2="1057.4" gradientTransform="matrix(1.17, 0.06, -0.03, 1.14, 9693.59, -1256.64)" xlink:href="#linear-gradient"/><linearGradient id="linear-gradient-9" x1="1645.55" y1="1081.82" x2="1628.38" y2="1054.82" gradientTransform="matrix(1.17, 0.06, -0.03, 1.14, 9693.59, -1256.64)" xlink:href="#linear-gradient"/><linearGradient id="linear-gradient-10" x1="1107.67" y1="1131.62" x2="1038.53" y2="1022.92" gradientTransform="matrix(1.17, 0.06, -0.03, 1.14, 9693.59, -1256.64)" xlink:href="#linear-gradient"/><linearGradient id="linear-gradient-11" x1="853.55" y1="1218.47" x2="736.94" y2="1035.12" gradientTransform="matrix(1.17, 0.06, -0.03, 1.14, 9693.59, -1256.64)" xlink:href="#linear-gradient"/><linearGradient id="linear-gradient-12" x1="1242.6" y1="1108.76" x2="1190.88" y2="1027.45" gradientTransform="matrix(1.17, 0.06, -0.03, 1.14, 9693.59, -1256.64)" xlink:href="#linear-gradient"/><linearGradient id="linear-gradient-13" x1="1291.83" y1="1113.06" x2="1244.3" y2="1038.33" gradientTransform="matrix(1.17, 0.06, -0.03, 1.14, 9693.59, -1256.64)" xlink:href="#linear-gradient"/><linearGradient id="linear-gradient-14" x1="1513" y1="1127.95" x2="1486.52" y2="1086.32" gradientTransform="matrix(1.17, 0.06, -0.03, 1.14, 9693.59, -1256.64)" xlink:href="#linear-gradient"/><linearGradient id="linear-gradient-15" x1="1124.32" y1="1177.03" x2="1050.32" y2="1060.67" gradientTransform="matrix(1.17, 0.06, -0.03, 1.14, 9693.59, -1256.64)" xlink:href="#linear-gradient"/><linearGradient id="linear-gradient-16" x1="1397.39" y1="1095.63" x2="1361.57" y2="1039.31" gradientTransform="matrix(1.17, 0.06, -0.03, 1.14, 9693.59, -1256.64)" xlink:href="#linear-gradient"/><linearGradient id="linear-gradient-17" x1="1457.84" y1="1123.24" x2="1425.88" y2="1072.99" gradientTransform="matrix(1.17, 0.06, -0.03, 1.14, 9693.59, -1256.64)" xlink:href="#linear-gradient"/><linearGradient id="linear-gradient-18" x1="1606.18" y1="1114.24" x2="1584.78" y2="1080.6" gradientTransform="matrix(1.17, 0.06, -0.03, 1.14, 9693.59, -1256.64)" xlink:href="#linear-gradient"/><linearGradient id="linear-gradient-19" x1="1066.63" y1="1170.41" x2="986.37" y2="1044.21" gradientTransform="matrix(1.17, 0.06, -0.03, 1.14, 9693.59, -1256.64)" xlink:href="#linear-gradient"/><linearGradient id="linear-gradient-20" x1="1282.01" y1="1142.81" x2="1230.3" y2="1061.5" gradientTransform="matrix(1.17, 0.06, -0.03, 1.14, 9693.59, -1256.64)" xlink:href="#linear-gradient"/><linearGradient id="linear-gradient-21" x1="1892.31" y1="1107.59" x2="1864.9" y2="1064.49" gradientTransform="matrix(1.17, 0.06, -0.03, 1.14, 9693.59, -1256.64)" xlink:href="#linear-gradient"/><linearGradient id="linear-gradient-22" x1="1910.26" y1="1146.85" x2="1873.67" y2="1089.33" gradientTransform="matrix(1.17, 0.06, -0.03, 1.14, 9693.59, -1256.64)" xlink:href="#linear-gradient"/><linearGradient id="linear-gradient-23" x1="1927.59" y1="1090.34" x2="1902.95" y2="1051.61" gradientTransform="matrix(1.17, 0.06, -0.03, 1.14, 9693.59, -1256.64)" xlink:href="#linear-gradient"/><linearGradient id="linear-gradient-24" x1="1971.64" y1="1097.04" x2="1944.83" y2="1054.89" gradientTransform="matrix(1.17, 0.06, -0.03, 1.14, 9693.59, -1256.64)" xlink:href="#linear-gradient"/><linearGradient id="linear-gradient-25" x1="2000.68" y1="1090.55" x2="1974.96" y2="1050.11" gradientTransform="matrix(1.17, 0.06, -0.03, 1.14, 9693.59, -1256.64)" xlink:href="#linear-gradient"/><linearGradient id="linear-gradient-26" x1="1687.21" y1="1098.18" x2="1666.74" y2="1066" gradientTransform="matrix(1.17, 0.06, -0.03, 1.14, 9693.59, -1256.64)" xlink:href="#linear-gradient"/><linearGradient id="linear-gradient-27" x1="1654.93" y1="1138.21" x2="1628.41" y2="1096.51" gradientTransform="matrix(1.17, 0.06, -0.03, 1.14, 9693.59, -1256.64)" xlink:href="#linear-gradient"/><linearGradient id="linear-gradient-28" x1="1747.11" y1="1090.73" x2="1726.32" y2="1058.05" gradientTransform="matrix(1.17, 0.06, -0.03, 1.14, 9693.59, -1256.64)" xlink:href="#linear-gradient"/><linearGradient id="linear-gradient-29" x1="1794.92" y1="1098.56" x2="1771.52" y2="1061.76" gradientTransform="matrix(1.17, 0.06, -0.03, 1.14, 9693.59, -1256.64)" xlink:href="#linear-gradient"/><linearGradient id="linear-gradient-30" x1="2003.41" y1="1129.08" x2="1968.48" y2="1074.17" gradientTransform="matrix(1.17, 0.06, -0.03, 1.14, 9693.59, -1256.64)" xlink:href="#linear-gradient"/><linearGradient id="linear-gradient-31" x1="1790.5" y1="1136.15" x2="1759.71" y2="1087.76" gradientTransform="matrix(1.17, 0.06, -0.03, 1.14, 9693.59, -1256.64)" xlink:href="#linear-gradient"/><linearGradient id="linear-gradient-32" x1="1841.95" y1="1091.3" x2="1818.91" y2="1055.08" gradientTransform="matrix(1.17, 0.06, -0.03, 1.14, 9693.59, -1256.64)" xlink:href="#linear-gradient"/><linearGradient id="linear-gradient-33" x1="1950" y1="1119.99" x2="1918.31" y2="1070.17" gradientTransform="matrix(1.17, 0.06, -0.03, 1.14, 9693.59, -1256.64)" xlink:href="#linear-gradient"/><linearGradient id="linear-gradient-34" x1="2034.58" y1="1118.49" x2="2001.74" y2="1066.86" gradientTransform="matrix(1.17, 0.06, -0.03, 1.14, 9693.59, -1256.64)" xlink:href="#linear-gradient"/><linearGradient id="linear-gradient-35" x1="1731.87" y1="1125.1" x2="1705.14" y2="1083.07" gradientTransform="matrix(1.17, 0.06, -0.03, 1.14, 9693.59, -1256.64)" xlink:href="#linear-gradient"/><linearGradient id="linear-gradient-36" x1="1847.81" y1="1123.48" x2="1818.06" y2="1076.7" gradientTransform="matrix(1.17, 0.06, -0.03, 1.14, 9693.59, -1256.64)" xlink:href="#linear-gradient"/><linearGradient id="linear-gradient-37" x1="1049.48" y1="1289.36" x2="956.51" y2="1143.19" gradientTransform="matrix(1.17, 0.06, -0.03, 1.14, 9693.59, -1256.64)" xlink:href="#linear-gradient"/><linearGradient id="linear-gradient-38" x1="282.85" y1="1704.4" x2="14.74" y2="1282.86" gradientTransform="matrix(1.17, 0.06, -0.03, 1.14, 9693.59, -1256.64)" xlink:href="#linear-gradient"/><linearGradient id="linear-gradient-39" x1="1333.41" y1="1189.34" x2="1285.75" y2="1114.41" gradientTransform="matrix(1.17, 0.06, -0.03, 1.14, 9693.59, -1256.64)" xlink:href="#linear-gradient"/><linearGradient id="linear-gradient-40" x1="1404.45" y1="1194.8" x2="1366.58" y2="1135.27" gradientTransform="matrix(1.17, 0.06, -0.03, 1.14, 9693.59, -1256.64)" xlink:href="#linear-gradient"/><linearGradient id="linear-gradient-41" x1="1541.32" y1="1167.86" x2="1512.8" y2="1123.02" gradientTransform="matrix(1.17, 0.06, -0.03, 1.14, 9693.59, -1256.64)" xlink:href="#linear-gradient"/><linearGradient id="linear-gradient-42" x1="272.07" y1="1451.12" x2="6.76" y2="1033.98" gradientTransform="matrix(1.17, 0.06, -0.03, 1.14, 9693.59, -1256.64)" xlink:href="#linear-gradient"/><linearGradient id="linear-gradient-43" x1="-3209.45" y1="3347.32" x2="-4959.31" y2="596.09" gradientTransform="matrix(1.17, 0.06, -0.03, 1.14, 9693.59, -1256.64)" xlink:href="#linear-gradient"/><linearGradient id="linear-gradient-44" x1="717.33" y1="1306.74" x2="564.01" y2="1065.69" gradientTransform="matrix(1.17, 0.06, -0.03, 1.14, 9693.59, -1256.64)" xlink:href="#linear-gradient"/><linearGradient id="linear-gradient-45" x1="790.69" y1="1317.16" x2="649.08" y2="1094.5" gradientTransform="matrix(1.17, 0.06, -0.03, 1.14, 9693.59, -1256.64)" xlink:href="#linear-gradient"/><linearGradient id="linear-gradient-46" x1="1163.28" y1="1344.32" x2="1097.23" y2="1240.48" gradientTransform="matrix(1.17, 0.06, -0.03, 1.14, 9693.59, -1256.64)" xlink:href="#linear-gradient"/><linearGradient id="linear-gradient-47" x1="-335.23" y1="1882.56" x2="-813.21" y2="1131.05" gradientTransform="matrix(1.17, 0.06, -0.03, 1.14, 9693.59, -1256.64)" xlink:href="#linear-gradient"/><linearGradient id="linear-gradient-48" x1="1070.51" y1="1234.67" x2="983.36" y2="1097.65" gradientTransform="matrix(1.17, 0.06, -0.03, 1.14, 9693.59, -1256.64)" xlink:href="#linear-gradient"/><linearGradient id="linear-gradient-49" x1="1071.98" y1="1333.2" x2="984.82" y2="1196.17" gradientTransform="matrix(1.17, 0.06, -0.03, 1.14, 9693.59, -1256.64)" xlink:href="#linear-gradient"/><linearGradient id="linear-gradient-50" x1="1417.77" y1="1270.4" x2="1375.3" y2="1203.63" gradientTransform="matrix(1.17, 0.06, -0.03, 1.14, 9693.59, -1256.64)" xlink:href="#linear-gradient"/><linearGradient id="linear-gradient-51" x1="-349.27" y1="1812.85" x2="-831.12" y2="1055.26" gradientTransform="matrix(1.17, 0.06, -0.03, 1.14, 9693.59, -1256.64)" xlink:href="#linear-gradient"/><linearGradient id="linear-gradient-52" x1="559.32" y1="1481.33" x2="357.66" y2="1164.26" gradientTransform="matrix(1.17, 0.06, -0.03, 1.14, 9693.59, -1256.64)" xlink:href="#linear-gradient"/><linearGradient id="linear-gradient-53" x1="1939.66" y1="1211.6" x2="1886.19" y2="1127.54" gradientTransform="matrix(1.17, 0.06, -0.03, 1.14, 9693.59, -1256.64)" xlink:href="#linear-gradient"/><linearGradient id="linear-gradient-54" x1="1994.81" y1="1334.83" x2="1904.21" y2="1192.39" gradientTransform="matrix(1.17, 0.06, -0.03, 1.14, 9693.59, -1256.64)" xlink:href="#linear-gradient"/><linearGradient id="linear-gradient-55" x1="1984.3" y1="1165.39" x2="1940.7" y2="1096.82" gradientTransform="matrix(1.17, 0.06, -0.03, 1.14, 9693.59, -1256.64)" xlink:href="#linear-gradient"/><linearGradient id="linear-gradient-56" x1="2051.24" y1="1177.64" x2="2002.66" y2="1101.26" gradientTransform="matrix(1.17, 0.06, -0.03, 1.14, 9693.59, -1256.64)" xlink:href="#linear-gradient"/><linearGradient id="linear-gradient-57" x1="2084.65" y1="1160.17" x2="2040.1" y2="1090.12" gradientTransform="matrix(1.17, 0.06, -0.03, 1.14, 9693.59, -1256.64)" xlink:href="#linear-gradient"/><linearGradient id="linear-gradient-58" x1="1599.17" y1="1208.02" x2="1561.51" y2="1148.81" gradientTransform="matrix(1.17, 0.06, -0.03, 1.14, 9693.59, -1256.64)" xlink:href="#linear-gradient"/><linearGradient id="linear-gradient-59" x1="1481.82" y1="1355.84" x2="1418.81" y2="1256.77" gradientTransform="matrix(1.17, 0.06, -0.03, 1.14, 9693.59, -1256.64)" xlink:href="#linear-gradient"/><linearGradient id="linear-gradient-60" x1="1707.22" y1="1181.61" x2="1669.96" y2="1123.03" gradientTransform="matrix(1.17, 0.06, -0.03, 1.14, 9693.59, -1256.64)" xlink:href="#linear-gradient"/><linearGradient id="linear-gradient-61" x1="1783.57" y1="1197.53" x2="1739.59" y2="1128.39" gradientTransform="matrix(1.17, 0.06, -0.03, 1.14, 9693.59, -1256.64)" xlink:href="#linear-gradient"/><linearGradient id="linear-gradient-62" x1="2132.54" y1="1260.96" x2="2057.19" y2="1142.48" gradientTransform="matrix(1.17, 0.06, -0.03, 1.14, 9693.59, -1256.64)" xlink:href="#linear-gradient"/><linearGradient id="linear-gradient-63" x1="1770.37" y1="1317.86" x2="1697.11" y2="1202.68" gradientTransform="matrix(1.17, 0.06, -0.03, 1.14, 9693.59, -1256.64)" xlink:href="#linear-gradient"/><linearGradient id="linear-gradient-64" x1="1857.17" y1="1174.46" x2="1815.77" y2="1109.36" gradientTransform="matrix(1.17, 0.06, -0.03, 1.14, 9693.59, -1256.64)" xlink:href="#linear-gradient"/><linearGradient id="linear-gradient-65" x1="2041.17" y1="1240.67" x2="1975.11" y2="1136.81" gradientTransform="matrix(1.17, 0.06, -0.03, 1.14, 9693.59, -1256.64)" xlink:href="#linear-gradient"/><linearGradient id="linear-gradient-66" x1="2163.2" y1="1226.49" x2="2097.6" y2="1123.36" gradientTransform="matrix(1.17, 0.06, -0.03, 1.14, 9693.59, -1256.64)" xlink:href="#linear-gradient"/><linearGradient id="linear-gradient-67" x1="1661.5" y1="1287.94" x2="1602.39" y2="1195" gradientTransform="matrix(1.17, 0.06, -0.03, 1.14, 9693.59, -1256.64)" xlink:href="#linear-gradient"/><linearGradient id="linear-gradient-68" x1="1873.67" y1="1264.06" x2="1809.17" y2="1162.65" gradientTransform="matrix(1.17, 0.06, -0.03, 1.14, 9693.59, -1256.64)" xlink:href="#linear-gradient"/></defs><title>mybase</title><g id="Layer_2" data-name="Layer 2"><g id="mybase"><polygon class="cls-2" points="7441.64 365.92 11679.3 316.91 11689.96 23.65 11027.23 6.01 7441.64 365.92"/><g class="cls-3"><polygon class="cls-4" points="7849.66 382.52 11747.62 326.8 11755.67 23.7 11147.5 6.05 7849.66 382.52"/><polygon class="cls-5" points="9976.77 157.99 11624.87 158.26 11601.36 51.79 11293.59 46.84 9976.77 157.99"/><polygon class="cls-6" points="11311.59 69.54 11204.23 66.55 11328.9 34.87 11409.76 38.48 11311.59 69.54"/><polygon class="cls-7" points="11147.15 121.57 10989.53 121.12 11204.37 66.51 11311.71 69.5 11147.15 121.57"/><polygon class="cls-8" points="11455.45 53.55 11372.13 50.38 11449.31 25.96 11515.44 29.39 11455.45 53.55"/><polygon class="cls-9" points="11515.86 64.38 11433.77 61.62 11500.67 34.8 11565.91 37.98 11515.86 64.38"/><polygon class="cls-10" points="11601.78 59.09 11530.66 56.38 11575.98 32.52 11633.99 35.53 11601.78 59.09"/><polygon class="cls-11" points="10893.83 43.51 10747.14 38.59 10991.52 10 11095.1 15.05 10893.83 43.51"/><polygon class="cls-12" points="10532.4 94.62 10292.06 91.83 10748.04 38.49 10894.56 43.41 10532.4 94.62"/><polygon class="cls-13" points="11077 39.16 10957.44 34.62 11134.22 9.6 11222.75 14.2 11077 39.16"/><polygon class="cls-14" points="11142.13 51.84 11023.57 47.86 11188.99 19.62 11276.7 23.89 11142.13 51.84"/><polygon class="cls-15" points="11437.61 105.64 11327.1 104.38 11433.23 61.84 11515.46 64.59 11437.61 105.64"/><polygon class="cls-16" points="10911.82 99.66 10732.11 97.62 11022.18 48.1 11141.01 52.07 10911.82 99.66"/><polygon class="cls-17" points="11282.36 46.94 11183.32 43.17 11303.01 18.34 11379.14 22.29 11282.36 46.94"/><polygon class="cls-18" points="11363.43 90.61 11251.47 88.57 11372.39 50.3 11455.66 53.47 11363.43 90.61"/><polygon class="cls-19" points="11553.98 94.05 11462.32 92.37 11530.82 56.3 11601.89 59.01 11553.98 94.05"/><polygon class="cls-20" points="10833.23 80.92 10653.45 77.64 10958.07 34.53 11077.52 39.07 10833.23 80.92"/><polygon class="cls-21" points="11127.95 86.26 10987.99 83.7 11183.74 43.08 11282.7 46.85 11127.95 86.26"/><polygon class="cls-22" points="11903.34 95.08 11845.35 93.81 11837.44 64.15 11886.32 66.13 11903.34 95.08"/><polygon class="cls-23" points="11928.45 137.76 11857.2 138.22 11845.34 93.78 11903.33 95.05 11928.45 137.76"/><polygon class="cls-24" points="11942.16 79.2 11893.05 77.57 11878.97 53.62 11921.4 55.68 11942.16 79.2"/><polygon class="cls-25" points="11995.85 88.05 11947.92 86.7 11925.47 61.12 11967.06 62.99 11995.85 88.05"/><polygon class="cls-26" points="12030.49 82.11 11987.18 80.67 11960.66 57.56 11998.76 59.41 12030.49 82.11"/><polygon class="cls-27" points="11653.09 78.38 11578.64 76.28 11618.17 47.31 11678.33 50.01 11653.09 78.38"/><polygon class="cls-28" points="11614.48 121.77 11517.01 121.43 11578.77 76.18 11653.18 78.28 11614.48 121.77"/><polygon class="cls-29" points="11725.86 72.02 11660.97 69.87 11683.79 44.16 11737.49 46.77 11725.86 72.02"/><polygon class="cls-30" points="11784.44 82.08 11720.87 80.29 11733.86 52.51 11786.63 54.88 11784.44 82.08"/><polygon class="cls-31" points="12036.75 123.66 11980.19 123.48 11948.09 86.89 11996.07 88.24 12036.75 123.66"/><polygon class="cls-32" points="11781.16 122.83 11701.09 122.58 11720.76 80.51 11784.42 82.3 11781.16 122.83"/><polygon class="cls-33" points="11841.03 75.82 11784.84 73.95 11786.88 49.14 11834.46 51.45 11841.03 75.82"/><polygon class="cls-34" points="11971.2 112.11 11912.98 111.46 11893 77.49 11942.09 79.12 11971.2 112.11"/><polygon class="cls-35" points="12073.97 113.21 12023.89 112.66 11987.09 80.59 12030.38 82.03 12073.97 113.21"/><polygon class="cls-36" points="11708.75 109.2 11626.86 108.29 11661.05 69.78 11725.9 71.94 11708.75 109.2"/><polygon class="cls-37" points="11850.45 110.73 11781.88 109.97 11784.84 73.87 11841.01 75.73 11850.45 110.73"/><polygon class="cls-38" points="10809.42 228.44 10524.07 239.42 10986.77 121.82 11145.07 122.23 10809.42 228.44"/><polygon class="cls-39" points="9765.27 558.84 8836.08 668.45 10524.76 239.25 10809.89 228.29 9765.27 558.84"/><polygon class="cls-40" points="11200.64 156.16 11031.06 158.31 11249.7 89.12 11362.1 91.15 11200.64 156.16"/><polygon class="cls-41" points="11300.14 178.13 11133.3 182.07 11326.84 104.49 11437.42 105.74 11300.14 178.13"/><polygon class="cls-42" points="11473.89 152.63 11344.8 154.26 11461.35 92.89 11553.31 94.55 11473.89 152.63"/><polygon class="cls-43" points="9669.4 216.66 9112.55 229.81 10284.64 92.7 10526.64 95.43 9669.4 216.66"/><polygon class="cls-44" points="5299.73 834.56 0.7 1295.75 9118.42 229.13 9673.44 216.08 5299.73 834.56"/><polygon class="cls-45" points="10329.71 167.18 9990.42 171.47 10648.74 78.31 10829.52 81.56 10329.71 167.18"/><polygon class="cls-46" points="10435.6 198.55 10093.58 206.63 10731.36 97.75 10911.24 99.78 10435.6 198.55"/><polygon class="cls-47" points="10990.68 341.32 10664.54 369.98 11131.49 182.79 11298.89 178.79 10990.68 341.32"/><polygon class="cls-48" points="8836.4 530.64 7516.21 646.65 10086.84 207.78 10430.76 199.56 8836.4 530.64"/><polygon class="cls-49" points="10835.66 160.69 10602.74 163.63 10985.07 84.3 11125.67 86.84 10835.66 160.69"/><polygon class="cls-50" points="10850.67 297.09 10524.61 318.56 11031.92 158.04 11201.26 155.91 10850.67 297.09"/><polygon class="cls-51" points="11318.73 266.13 11105.8 280.13 11345.25 154.03 11474.19 152.42 11318.73 266.13"/><polygon class="cls-52" points="8772.59 433.93 7582.02 512.33 9993.34 171.06 10331.84 166.82 8772.59 433.93"/><polygon class="cls-53" points="10109.11 345.7 9546.92 382.68 10604.33 163.3 10836.83 160.39 10109.11 345.7"/><polygon class="cls-54" points="11969.78 208.05 11877.18 213.16 11857.34 138.75 11928.74 138.26 11969.78 208.05"/><polygon class="cls-55" points="12048.19 341.4 11916.84 361.87 11877.16 213.07 11969.73 207.96 12048.19 341.4"/><polygon class="cls-56" points="12015.66 162.48 11944.02 164.24 11913.25 111.93 11971.6 112.56 12015.66 162.48"/><polygon class="cls-57" points="12098.6 177.5 12029.86 180.08 11980.27 123.56 12036.85 123.74 12098.6 177.5"/><polygon class="cls-58" points="12138.55 159.41 12079.21 160.87 12024.38 113.09 12074.55 113.63 12138.55 159.41"/><polygon class="cls-59" points="11546.5 198.19 11405.01 203.49 11516.11 122.09 11613.93 122.4 11546.5 198.19"/><polygon class="cls-60" points="11401.66 360.98 11150.41 390.02 11405.45 203.17 11546.76 197.89 11401.66 360.98"/><polygon class="cls-61" points="11680.43 170.7 11569.04 173.43 11626.38 108.84 11708.5 109.72 11680.43 170.7"/><polygon class="cls-62" points="11775.78 189.6 11667.86 193.64 11701.05 122.67 11781.15 122.93 11775.78 189.6"/><polygon class="cls-63" points="12204.32 269.54 12117.27 279.69 12030.27 180.55 12099.11 177.95 12204.32 269.54"/><polygon class="cls-64" points="11765.21 320.76 11599.37 340.1 11667.57 194.27 11775.73 190.18 11765.21 320.76"/><polygon class="cls-65" points="11865.38 166.1 11777.08 168.26 11781.83 110.47 11850.58 111.21 11865.38 166.1"/><polygon class="cls-66" points="12089.37 246.01 11996.93 254.22 11943.91 164.05 12015.5 162.31 12089.37 246.01"/><polygon class="cls-67" points="12240.67 232.47 12168.7 238.86 12079.01 160.7 12138.33 159.25 12240.67 232.47"/><polygon class="cls-68" points="11626.84 287.09 11454.56 302.4 11569.25 173.19 11680.53 170.48 11626.84 287.09"/><polygon class="cls-69" points="11891.63 263.44 11768.36 274.38 11777.1 168.05 11865.33 165.9 11891.63 263.44"/></g><polygon class="cls-70" points="7441.64 365.92 11679.3 316.91 11689.96 23.65 11027.23 6.01 7441.64 365.92"/></g></g></svg>