<svg xmlns="http://www.w3.org/2000/svg" viewBox="0 0 547.58 889.15"><defs><style>.cls-1{fill:#a5a5a5;}.cls-1,.cls-2,.cls-3,.cls-4,.cls-5{fill-rule:evenodd;}.cls-2{fill:#7a2121;}.cls-3{fill:#b7446e;}.cls-4{fill:#808082;}</style></defs><title>phonebooth</title><g id="Layer_2" data-name="Layer 2"><g id="phonebooth"><path class="cls-1" d="M7.35,810.71l198-110q19-261,38-522l-153-138Q48.85,425.72,7.35,810.71Z"/><path class="cls-2" d="M424.76,298.1c4.28-.68,7.06,1.65,9.24,5.64,1.5,2.78,3.6,4.88,4.43,7.28,1.95,5.49,2.48,14.05,2.85,21.94.38,8.27,1.35,17.51.83,23.3a11.55,11.55,0,0,1-1.13,4.2c-.67,1.28-1.65,2.33-1.65,3.31-.08,1.13,1.35,3.45,1.95,5.33,1.51,5.26,3.31,12.17,3.61,18,.52,8.94-.45,18.33-.83,27.27-.45,9.09-.37,18.41-.3,27.5.23,18.11-.37,36.22.83,54.17S446,532.29,446,550.4s-2.26,35.76-2.26,53.35c0,9.24.23,18.18.83,27.2.6,8.56,1.88,17.2,2,25.84.15,8.94-.75,18-.52,27.2.52,26.67-.16,54.17-1.43,81.37-.45,9.92-1.13,16.08-1.13,26.67s-2.1,21.19-10.89,19.91c-4.36-.6-7.74-8.19-8.64-13.15-1.27-6.61-.82-14.72-.6-21.93.9-21.87.6-45.76.6-67.62,0-15.63-1.27-30.28-.6-45.46.68-14.5.6-29.6.6-44.63s-1.12-29.83-1.12-44.86c0-22,1.42-44.93.52-67.62-.22-7.21-1.42-14.35-1.65-21.34-.53-15.62,1.28-30.35.83-44.92-.53-16.69-4-30.81-3.91-48.84,0-2.71.15-5.64.3-8.42.15-2.63,1.05-5.56.83-7.81s-2.1-4.21-2.56-6.46c-1.95-10.82-2.25-26.07-1.05-38.17.38-4.06,1.58-7.82,2-11.5.75-8.86-2.11-19.68,6.68-21.11Z"/><path class="cls-3" d="M393.66,814.5a74.29,74.29,0,0,1-15.17,2.25c-28.69.3-59.33.3-89.45-2.25-13.45-1.13-27.87-2.78-43.49-3.38-7.51-.3-14.27-.15-22.46-.83-7.43-.6-16.52-.6-17.12-6.16-.45-4.28,4.43-8.64,5-12.62-6.91-29.46-3.9-61.69-3.9-93.77,0-15.7-2-31.56-2-47.41,0-16.23-.3-32.46-.3-48.54,0-23.81-3.15-46.51-2-71.6,1.5-31.71,1-64.39,2.25-96.55.3-7.81,1.58-15.7,1.43-23.29-.23-6.38-1.95-14.05-2.25-21.86-.53-10.67-2.26-24.65,4.2-29.45-5.63-4.89,1.73-8.57,7.81-6.17,1.13-11.72-4.35-30.73,2-38.16,1-1.13,3-2,.6-2.56-2-.53-.38.45-1.43,2.56-2.7,5.56-7.13-.15-8.41-4.21-2.26-7.44-3.38-17.13.83-23.89-2.71.52-6.09-.08-7-2.48-3-8,12.17-14.35,16.82-16.61a187.71,187.71,0,0,1,52.2-15.7c9.77-1.5,21.18-.83,32-1.43,4.43-.22,10.67.68,16.22.9,16.45.68,30.57,2.18,42.36,6.69,8.26,3.23,17.13,4.58,24.42,8.41,7.58,4.06,14.19,7.82,20.2,12.63,17.72,1.8,16.37,25.09,8.41,37.64-1.35,2.1-4.58,4.58-5,6.16-.53,1.8-.23,5.41-.3,8.11-.15,5.34-.08,10.22-.3,16-.08,2.78-.68,5.71-.23,7.89.3,1.73,2.86,4.28,3.61,6.46,2.48,6.84,2.78,16.15,3.38,25.55,1.88,27.19,3.08,54.92,3.08,82.19,0,36.37-6.09,71.83-4.51,109.7.83,18.7-.53,38-.53,57s-.29,38.17-.29,57c0,28.33.82,55.38.82,84.76,0,4.73-.15,9.54,0,14.27.6,11.95,1.28,23.9-7.81,27.5-6.39,2.56-10-1-13.75-4.73ZM302.18,267.3h0c-1,.3-.6,3.15-.3,3.9,13-1.12,28-.07,41.31-.82-13.52-1.28-26.89-2.56-41-3.08ZM283.1,279h2c.15-1.13-1.88-.45-2,0Zm-65.94,4.5h0a6.62,6.62,0,0,0,2.85,2.86c.23-1.73,1.66-2.33,2-4-1.58-.68-3.08,1-4.81,1.12Zm12.69,31.19h0c1.58,12.69-1,25.84-1.42,38.39,41.53,1.2,84.27,1.28,124.3,3.38,13.6.75,26.89,2,40.11,1.95-.75-13.52-3.23-28-1.13-41.77-5.56-2.71-12.24-2-18.85-2-47.24,0-95.24.3-143-.83-.37,0-.37.75,0,.83ZM369,366.85h0c-2.25,2.63-8.33,1.43-12.91,1.73.07,1.05,1.2,1.05,1.12,2.25,12.09-1.35,27.87-1.35,39.28.53.3-1,1-2.63.3-3.61-6.83.9-15.47,2.33-22.45.53-1-.38-.23-1.43-1.13-1.43Zm-33.95,2h0c5.71-.83,12.47,2.25,15.7-.3-4.95.15-12.09-.38-15.7.3Zm-100.41,8.64h0c3.07,0,4.88-1.2,6.75-2.48,3.39,1.73,7.89.45,12.62,0,16.3-1.65,34.4-2.86,51.6-2.86,4,0,12,.3,16-.22,1.58-.23-2.18-.3-3.68-.3-29.14,0-58.28-.38-84.72-2.78.45,2.93,1.12,5.63,1.43,8.64Zm89.52,3.08h0c1.81.9,6.92.3,7.29-.53-3.08-.75-6.08,1.13-7.29.53Zm46.27,15.17h0c-.37-.14-.75.31-1.13.31-7.36.45-15.77.07-24.41.3-30.64.67-67-2-92,3.9-1.36,3.61-.6,7.89-2,11.8-.52,1.35-2.25,2.4-2.55,3.61-.45,1.72.45,4.43.6,6.76.38,7.81-.07,14.2.53,21.34.37-2.18.45-6.09,2.78-5.34.6.53.6,1.65.6,2.78-1.13-.07-.53-.9-1.13.83-1.28,3.68-.83,10-.83,15.17v16c0,32.83,2,63.64,2,94.59,0,43.2.37,85.36-.6,126.83,42.28-.9,82,2.18,120.62,3.91.37-36.89,1.12-73.78,4.51-106.92,3.6-34.49,3.3-69.87,5.33-106.32,1-16.9,2.7-35,2.55-53.34-.15-10.59-.07-18.86-2.25-26.37-2.41-.83-3.76-2.78-4.51-5.34-5,5-6-3.45-8.11-4.51Zm-142.78,21h0c2-1.12,1.35-4.05,1.35-6.68,0-4.89.08-10.37-.52-14.05-.3,6.68-1.35,14.2-.83,20.73Zm19.6,75.51h0c-.37-6.08.83-13.6,0-18.25-.37,5.55-1.2,12.92,0,18.25ZM241.05,503h0c.29,11.65,1,22.92,1.95,34-.15-11.79-.9-23-1.43-34.48,0-.23-.23-.38-.52-.3V503Zm-7,18.48h0c.38,13.68.45,30,1.65,43.81,2.63-2.63,1.35-7.52,1.13-12-.45-11,.07-22.84-1.43-32-.68-.15-.6.53-1.35.22Zm-7.89,95.42h0c-.15,3.31-1,7.44-.52,9.55.3,1.5,2.18,2.4,2.78,4.21s-.08,3,.82,4.5c-.07-28.4.15-58.83-1.12-85.28.37,21.64-1,46.36-2,67Zm18.25,47.72h0c0,1.8-.14,4.13,2,4-.15-10.3.37-23-.3-31.71.37,9.17-1.88,19.31-1.66,27.73Zm10.07,40.12h0c-.9.07-1.2-.45-2.25-.23-.23,1,2.1.68,2.25.23ZM221.37,715.4h0c2.55.07.82-3.08.3-4.21.22,1.73-.46,2.55-.3,4.21Zm30.34,3.15h0c.9,0,1.65,0,1.95-.6-.6.23-2.18-.53-1.95.6ZM240.22,789h0c2.85-.15,5.78-.15,8.11-.82-2.48.3-8.11-3.23-8.11.82Z"/><path class="cls-4" d="M547.49,226.35c-.38-1.65-2.33-1.73-3.08-3.08-.68,0-1,.45-1.36.82-.37-3.9,5.34-1.57,4.44,2.26Z"/><path class="cls-4" d="M458.56,421.4c-5.41-.38-9.92,3.08-14.27,2,1-1.8,4.35-1.8,7-2.25,2.4-.45,5.94-2,7.29.3Z"/><path class="cls-4" d="M455.48,432.59c4.13,29.23,5,66.87,4.8,98.2-1.72-1.2-1-3.68-1.12-5.33-1.73-29.83-1.58-63-3.68-92.87Z"/><path class="cls-4" d="M447.07,531.92c-2.86-6.39-1.58-14.2-2-21.87s-.3-15.62-.3-23.59c0-17.43-.37-36.51.6-51.31a1.26,1.26,0,0,1,1.43-.91c.53,30.43,1,66.65.23,97.68Z"/><path class="cls-4" d="M450.44,434.54c1.36,1.06,1.06,3.31,1.13,4.81,1.2,22.69,1.43,48.31,1.43,73.18,0,3.54.9,7.59-1.13,10.45-1.95-.75-1.12-3.23-1.12-4.51-.31-26.75-1-55.9-1.13-83.1a1.36,1.36,0,0,0,.3-.83Z"/><path class="cls-5" d="M246.6,210.19c-1.12,1.28-1.58,2.93-3.08,3.38-4.2,1.13-9.61-4.73-12.62-7.28-7.58-6.54-14.27-12.1-20.72-19.09C206,182.7,202.66,179,200,174c-1.21-2.4-4.44-3.53-2-5.64,11.42,4,20.43,13.53,28.32,21.64,3.45,3.46,6.91,6.69,10.44,9.85s7.73,6.08,9.76,10.36Z"/><path class="cls-5" d="M100.22,294.34a1.35,1.35,0,0,0,.82.31c2,16.9.75,40.12,1.13,58.68-.07,1.2.68-.31,1.35,0a2.57,2.57,0,0,1-2.18,2.47c-1-.75-1.27-2.17-1.42-3.3-.9-6.91.07-14.73-.3-22.24-.53-12-.38-24.2-.3-35.31.22-.23.82-.15.9-.61Z"/><path class="cls-5" d="M106.08,360.61c-.76-10-.83-21.41-.83-32.53s.07-22.62,2-31.71c.08-.37.53-.22.53-.6.52-.07.52.3.9.3-.08,18.64-.53,38.32-1.43,57.78-.07,2.25.23,5.26-1.12,6.76Z"/><path class="cls-5" d="M112.53,299.68c1.88,18.56,1.81,42.3,1.66,61.23-3-3.15-2.26-8.41-2.48-13.22s-.38-10.07-.6-15.18c-.45-11-1-23.36.3-31.93-.08-.75.37-1,1.12-.9Z"/><path class="cls-5" d="M300.45,322.75c-1,1.57-4.2,1-6.68,1.12-.75,1.36-.07,3.76,0,5.34.9.37,4.88-.83,5,1.05-1.2.67-3.15.6-5,.6-.68,3-.15,7.21-.3,10.67,1.88.52,7.89-1.35,8.11,1.65-2.85,1-8.64.45-10.89,1.13-1-6.76-2.25-16.61,0-22.69,2.11.45,7.66-.3,9.76,1.13Z"/><path class="cls-5" d="M256.74,323c-.9,2.63-4.73.6-7.58,1.13.22,6.23.9,14-.83,19.08a11.76,11.76,0,0,1-3.08-.52c-1.58-4,.53-10,0-14.58-.23-1.65-1.8-2.78-.9-4.21-1.65-.75-5.11.23-6.16-1.12-.07-.46.3-.53.3-.91,5.26.15,14-1,18.25,1.13Z"/><path class="cls-5" d="M272.14,323c-1.65,2-5.41.45-8.94.9-.67,1.13-.15,3.46-.3,5,1.2.3,4.73-1.06,6.16.3-.68,1.57-3.23,1.35-5.63,1.35a39,39,0,0,0,0,9.84c3.75.68,8.93-1.95,10.44.83-1.65,2.18-7.14.6-10.14,1.43-.53.6-.45,1.95-1.43,2.25-1.5-.38-1.88-1.8-3.08-2.55.83-6.39-.6-13.68.3-20.22,2.86-.37,9.69-.45,12.62.83Z"/><path class="cls-5" d="M278.07,321.62c2.63,5-.22,13.9,1.13,20.21,2.7,1.65,7.59-1.5,8.94,1.35-3.76.53-9.92,1.88-12.62,0a127.1,127.1,0,0,1,0-20.74c.15-1,1.35-.9,2.55-.82Z"/><path class="cls-5" d="M307.52,334.77c-.61,3.6,1.35,9.84-3.08,9.54-1.28-6.24.22-14.5-.31-21.87a1.49,1.49,0,0,0,.83-.82c2.78,1.27,5.78,0,8.41.82,3.76,1.21,4.44,7.07,2.56,10.07-1.35,2.11-4.58,2.18-8.41,2.26Zm0-1.36h0c5,.15,7.51-3.6,5.33-8.18a17.92,17.92,0,0,0-4.81-1.36c-.82,2.48-.45,6.24-.52,9.54Z"/><path class="cls-5" d="M321.79,322.14a32.73,32.73,0,0,1,.9,9.25c1.27.75,3.75.37,5.25.9,1.43-3.68-2.1-10.52,3.38-9.85,2.26,4.74-.07,11.8,0,17.36.08,2,1.06,4.21-.82,5.33-4.43-.15-2.33-7.21-2.56-10.89-1.35-.53-3.38-.3-5-.6-1.2,3.68,1.73,11.49-3.38,11.27-1.35-5.86-1.12-16.23-.22-22.47a2.28,2.28,0,0,1,2.48-.3Z"/><path class="cls-5" d="M342.59,322.75c14.27-3.31,14.57,22.69,3.08,23.51-3.08.23-7.28-1.42-8.71-3.08-3.08-3.38-2.7-12.85-.3-16.53a10,10,0,0,1,5.93-3.9Zm3.61,20.73h0c6.08-1,6.83-13.37,1.95-16.83-1.8,0-3.53-1.73-5-1.13-7.14,2.63-4.81,19.24,3.08,18Z"/><path class="cls-5" d="M388,323.57c-.45,2.48-4.81,1-7.06,1.66v5c1.13.75,3.83-.23,4.21,1.13-.3,1.5-2.18,1.35-3.91,1.42-.6,3.08-.15,7.14-.3,10.67,1.65,1,5,.23,6.46,1.43-.38,1.43-2.55,1.13-4.21,1.35-2.63.38-5.48,1.51-7.81,0-.52-6.76,1.21-16,0-22.69,2.18-1.73,9.54-1,12.62,0Z"/><path class="cls-5" d="M371.43,323.27c1.28,4.81.08,11.42.3,16.83.15,2.41,1,5-.82,6.46-2.86-.67-4.21-4.05-5.34-6.46-1.27-2.63-2.4-5.41-3.68-7.81-1.5,4,3.16,20.36-4.43,13.45a107.72,107.72,0,0,1-.3-22.47c1.35-.75,2.18.38,3.38.6,1.88,5.86,5.79,9.69,7.59,15.7,1.2-3.3-3-19.15,3.3-16.3Z"/><path class="cls-5" d="M200.94,337c-6.69-1.58-11.72-4.73-17.43-7.29v-.82a1.38,1.38,0,0,1,.83-.3c6.38,1.95,12.32,4.35,16.6,8.41Z"/><path class="cls-5" d="M182.91,335.59c1.58,18.64-.9,38.7-1.65,56.73-.08,2.1.9,6.46-1.13,7.59-2.25-4.44-1.65-10.22-1.42-15.48.75-15.48,1.65-32.91,2.85-47.94a1.65,1.65,0,0,1,.82-.9Z"/><path class="cls-5" d="M188,390.67c-2.63-1.43-2.25-6.31-2.56-9.85-1.05-13-2.55-28.25-1.12-41.55.07-.6.22-2,.82-2.25.08-.23,1-.83.91-.3h.52c1.65,17,.08,37.27,1.43,53.95Z"/><path class="cls-5" d="M420.55,338.75c2.56,1.8,2.18,9.24,2,12-2.33-2.18-3.61-8.26-2.48-12Z"/><path class="cls-5" d="M427.54,339.57c1.42,2.86,0,7.37.3,10.9.37.52,1.12-.68,2,0,.83,3.16,1.65,8.64.6,11.79-1.88-1-1.65-3.9-1.95-6.46-.75.3.07,2-.6,2.26-1.88-1.2-2.7-7.21-3.08-11.5-.23-2.7.38-5.71,1.73-7Z"/><path class="cls-5" d="M198.08,397.65c-4.73-.3-7.81-2.25-10.89-4.2-.3-.91.38-.91.53-1.43,3.75,1.58,8,2.7,10.36,5.63Z"/><path class="cls-5" d="M430.39,397.05c.23,0,.23.15.3.3,3.16,60,1.05,124,1.05,186.94,0,54.84-.22,109.69-.22,165,0,4.44.15,11.27.22,17.43.08.68,1.21,4-1.05,4.21-2.78.15-1.42-7.21-1.42-9.84,0-58.53-.31-117.74-.31-176.57,0-62.88-1.8-126.15.83-186.56.3-.22.23-.82.6-.9Z"/><path class="cls-5" d="M183.51,398.48c.53,15.7.45,33.21-1.13,47.71-2.47-2.63-1.42-7.21-1.42-11,0-11.72.15-25.39,1.12-35.91.16-.38.53-.45.61-.83Z"/><path class="cls-5" d="M107.73,441.16h.9c.23,15,.9,31,1.65,44.63-4-11.27-4-30.58-2.55-44.63Z"/><path class="cls-5" d="M199.51,452.13c-4.58,0-10.21-1-12.62-4-.07-.45.23-.45.3-.82,3.91.6,9.24,2.25,12.32,4.81Z"/><path class="cls-5" d="M184.94,451.22c1.5,1.66.83,4.44.83,6.47,0,15.55-.23,33.88-.61,48.83-3.3-2.18-2.62-7.66-2.78-12.09-.37-13.9.08-30.51,1.66-42.3a.85.85,0,0,1,.6-.91Z"/><path class="cls-5" d="M188.24,453c.3-.07.3.08.3.23h.6c1.58,13.3,0,31.4-.3,45.23,0,1.43.76,4.06-1.12,4.73a341.55,341.55,0,0,1,0-49.66c.07-.3.52-.15.52-.53Z"/><path class="cls-5" d="M201.46,505.4c-2.25,1.27-6.38-.08-9.24-.3-1.27-.08-2.62.9-3.08-.53-.07-.75.08-1.2.83-1.13a19.54,19.54,0,0,1,11.49,2Z"/><path class="cls-5" d="M183.81,514.94c.23-.08.23.15.23.3.07,14.2,1.27,30.13,0,43.8-2.26-1.95-1.8-6-2-9.54-.37-10.22-.3-25.32,1.13-33.73.15-.38.53-.46.6-.83Z"/><path class="cls-5" d="M201.16,557.31c-2.25,1.36-5.78.15-8.94,0-2.17-.07-4.88.68-6.15-.82-.08-.83-.08-1.51.82-1.43,4.58-.23,10.67.53,14.27,2.25Z"/><path class="cls-5" d="M202.89,651.61c-5,2.18-12.47,3.46-17.95,4.2,1.28-2.47,5.33-2.47,8.41-3.08s6.61-1.5,9.54-1.12Z"/><path class="cls-5" d="M116.44,737c.45-.08.53.23.83.23,1.35,4.65.3,11.64-1.06,15.47-1.5-3.83-.37-11.34.23-15.7Z"/><path class="cls-5" d="M249.46,742.52c-.9,12.32.37,28.25-.9,43,0,.3.3,4.13-2.18,3.08-1.28-.53-.83-1.88-.9-4.21,0-10.52-1.2-22.77-1.66-32-.22-4.13-.22-10.52.83-12.62.9-2.1,3,0,4.81.3,4.58.75,9.76,0,14.87.23,15.09.75,28.84.15,44.61.9,20.06.9,42.29,1.65,58.29,1.65,1.57,0,7.06-1.73,7.06,1.13,0,2.55-4.06,1.27-5.94,1.12-8.11-.67-15.92-.6-23.81-.6-31.47,0-64.74-1.05-95.08-2Z"/><path class="cls-5" d="M376.24,743.35c1,15.32-1.2,29.9-.6,45.75-1.05.91-2.18.83-3.91.6,1.35-.6,1.35-2.93,1.43-4.2.9-13.38.07-28.63,1.95-41.25-.07-.45.3-.53.3-.9Z"/><path class="cls-5" d="M368.35,755.74c1.28,1.13.9,4.74.9,7.82,0,6.46.08,13.07-.9,18.86-1.2-2.48-1.12-6.24-1.12-9.32,0-5.34.6-11,.3-16.53a1.38,1.38,0,0,0,.3-.83Z"/><path class="cls-5" d="M114.19,757.7c.15,1.35-1.58,1.27-2.48,1.65-17.95,8-39.81,12.85-59.49,19.08,19.23-8.26,40.79-14.35,62-20.73Z"/><path class="cls-5" d="M374.59,795.26c-3.23,1.73-7.29.75-11,.61-21-1-45.07-.31-68.2-1.43-15.39-.68-30.64-.68-45.74-1.35-1.12-.08-4.5.75-4.2-2,40-.45,82.84.76,122.65,2.56,1.88.08,5.18-.45,6.46,1.65Z"/><path class="cls-5" d="M74.38,794.74c1.05,3.45.3,9.77-.53,13.22-2.47-2.18-2.1-10-.9-13.22Z"/><path class="cls-5" d="M524.88,797.52a.85.85,0,0,1,.6.9c-11.42,10.07-21.41,21.56-33.35,31.11,9.92-11.65,21.26-21.87,32.75-32Z"/><path class="cls-5" d="M499.42,798.12c-2.41,3.3-6,5.78-9.32,8.41-9.84,7.89-20.05,16.61-30.57,24.12-.3-.83.91-1.73,1.43-2.25,11.49-10.67,26.36-20,38.46-30.28Z"/><path class="cls-5" d="M486.8,800.9c.45-.07.52.22.52.6-14.57,11-28.46,22.77-44,32.83,2.33-3.45,6-6.31,9.54-9s7.21-5.41,10.89-8.12c7.59-5.63,15.47-11.42,23.06-16.3Z"/><path class="cls-5" d="M178.71,857.32c-1.21,3.54-5,4.59-6.69,7.59,11.79.53,26.21-.6,39.51,0,12.84.6,27-.75,33.95,6.16-2.41,4.66-9.09,4.81-15.1,5-19.08.75-39.73.67-59,.3-19.68-.38-36.88-1.95-56.93-2.78-3.16-.15-16.3.15-16.3-3.68,0-3.46,10.81-3,16.3-3.09,15.7-.14,30.34-1,46.26-1.42,3.23-.07,6.91.38,9.32-.3,3.9-1,4.73-6.39,8.64-7.82Z"/><path class="cls-5" d="M165,144c4.88,2.78,11.64,3.83,19.08,4.2-31.32-32.53-62.79-66.34-94.87-99.1A397.9,397.9,0,0,1,58.61,14.8C65.29,19,70.55,25.09,76,30.58,109.38,63.94,142.8,98.5,176.45,132.16c4.13,4.06,8,8.57,12.32,12.92,1.43,1.43,3.15,3.31,5.63,2.18C182.83,136,170.22,125,158.2,113.08c-11.64-11.65-22.83-24.2-34.25-36.52-16.6-18-34.32-35.54-51-55-2.48-2.85-5.26-5.78-8.41-9.24C61.69,9.24,54,3.3,58.61,0,66.12.83,68,7.44,73.48,10.37c.82-.6-1.35-1.58-.3-2.56,3,.83,4.73,3.61,6.76,5.64,62.64,62.66,122.2,129.61,184.31,193.32-.15-7.21,6.16-3.38,6.16,1.73a9.7,9.7,0,0,1-2,5c-.75,1.05-2.71,1.95-3.91,3.38-1.12,1.28-1.27,2.86-2.25,3.38-1.95,1-4.06-.07-6.16.53-4.58,1.35-3.08,10.59-3.08,16.83,0,5.94-.67,11.94.83,15.7-1.35,1.43-1,4.44-1.13,7.06a277.13,277.13,0,0,1,49.65-6.76c17.8-.82,36.57,1.66,51.9,5,31.24,6.91,58,18.55,75.71,37.86.14.83.45,1.51.6,2.26,7.43,4.36,10.28,11.94,13.44,22.46,2.55,8.27,2.71,15.56,3.38,25.55.23,3.08.9,6.09.53,8.41-.3,2.11-1.81,2.63-.83,4.81-1.73.83-1.65-2.18-4.21-1.43-.6,3.31-.67,7.59-1.12,12.1-.68,7.59-3,15,2.25,18.78-.83,1.28-.38,3-.3,4.51,1.13,11.72.9,25.77.9,38.4,0,44.33,1,90.38,1.13,134.41,1.35-1.65,1-6.91,3.9-6.46,1.28.3-.45,3.46-1.12,5.64-1.06,3.53-2,6.91-1.66,11.49-.3.83-.67,1.2-1.12,1.13.37,74.31.45,148.84,1.95,222,2.78-.68,1.2-4.06,3.61-4.51,2.62-.52,2.78,2.86,5.33,2.78,1.05,4.06.15,10,.83,14.35,2.92.23,7.43-6.91,10.66-6.76.83.07,2.25.3,2,2,1.28-.75,4-.75,4.73.6-.38,1.66-2.4,4-3.9,5.56a40.56,40.56,0,0,1-5.64,4.51c-11,8.49-23,17.43-33.95,26.15-.9.07-2.25.6-3.08,0,.3,2.18-.3,3.75-.82,5.86-5.26,2-14.2.45-20.21,1.65,4.13.75,9.84-.07,12.62,2-2.55,3.46-11.12,1.8-16.82,2.48,19.67,1.73,39.43,5,59.71,6.76,14.87,1.28,30.34,3.08,45.21,4.73,2.41.31,5.11.46,7.59.83,1.88.38,4.66.3,5.56,2.56-5,2.25-11,1.43-16.53,1.43-76,0-153.07-4.74-230.35-2.56-11.64.3-23.29.52-34.48-1.13,9-1.8,18.85-1.65,28.62-1.65,29.06,0,60-1.43,89.53-1.43-43.79-2.55-88.18-3.91-131.07-8.41-3.83-.38-16.15-.6-16.52-3.38-.53-3.84,10-3,12.92-3.39,11.11-1.2,24.93-.52,38.15-.52,43.79,0,89.91,2.1,132.64,1.43-35.22-2.78-72.25-1.81-106.87-4.51s-69.18-5.34-103.8-7.29c3.75,1,14.94,1,14,6.69-.6,4-12.09,2.33-17.95,2.55-7.06.3-15.85.08-20.5.3-1.73.08-4.29-.3-5.56,0-2.48.53-4.06,3.31-5.64,3.91-.75-1.2,3.08-2.48,3.68-4.21-3.53.38-6.83-1.43-9.53-1.12s-3.46,2.63-5.64,3.38c-1.2-.61,1.66-1.66,2-2.56-20.13.08-41.09-1.88-60.32-.82-4.13-2-12-.38-19.07.3s-12.55,1.12-16.83,4.5c25.76,2,55.81,2.18,83,3.91,4.35.23,9-.07,13.74-.3,4.51-.23,10.22.6,14.05-.3,3.6-.83,5.1-5.71,9-5.86-1.28,2.71-4.13,3.91-5.93,6.16,3.15-.15,7.43,1.8,9.53,0,1.13-.15.38,1.58,1.73,1.13,8.71,1.05,19.15,1.35,28,3.08,2.4.52,5.93.83,6.46,3.68-8.57.22-19.38-1.28-29.45-1.73-3.22-.15-7.58-1-10.14-.22-4,1-4.95,6.68-8.93,8.11,1.57-3.23,4.65-5.11,6.46-8.11-3.68.67-7.14-.9-9.84-.31-2.41.45-2.93,3-5,3.61-1.51-1,2.4-2.7,2-3.61-18.1-1.35-38.53-2.55-59.79-2.55-10.29,0-20.88-.75-30.79-.3-10.29.53-20.66-.23-29.22,1.43-3.68.75-8,3.83-11.79,5.63-1.65.75-4.06,2-5.86,2.78C6.93,871,.47,874,0,868.77c-.52-4.73,8.79-9.08,12.62-11.49,34.17-21.41,72-40.57,108.23-59.73-1.35-2.26-2.93-12.77.6-14.88,3.16,2.26.23,9.84.53,14,6.68-3.23,13.37-6.46,19.68-10.07V772.83c-33,14.5-66.17,28.63-100.2,42.08,16.83-10.15,37.1-16.76,55.28-25.55-.45-3.61-1.65-11.57.6-14.28,2.86,2,.83,9.39,1.13,13.15,14.79-4.73,27.26-14.42,43.19-19.08.3-11.42.15-20.74,0-32.23-20.13,5.33-39.29,11.57-59,17.35-.08,6.76-.23,13.45-1.66,18.86-1.87-4.88-.22-12.47,0-18-8.56,1.36-18.7,5-27.79,5.86,7.14-3.23,14.95-4.28,22.46-6.46,21.86-6.31,43.79-13.9,66-20.21.07-7.06-.23-14.65.3-21.34-14.2,2.63-27,6.61-41.31,9,.67,6-.08,15.85.9,22.46-2.11-1.27-2.11-5-2.26-8.19-.3-4.73-.67-9.69.31-13.75-16.38,3.61-32,7.89-48,11.8,1.58-2.63,5.93-3.16,9.54-4.21a801.41,801.41,0,0,1,80.52-19.08c.6-1.43.07-4,.3-5.86-6.46.75-12,2.4-18,3.61-1,.45-.3,2.47-1,3.08-.83-.38-.45-2-1.13-2.48-31.47,6.53-64.44,13-95.69,18.78,1.13-1.58,3.91-2,5.86-2.55,6.39-1.66,13.37-3.09,20-4.44a284.71,284.71,0,0,0-36.8,5c-3.76.75-8.19,2.33-11.49.3.9-3.91,5.7-4.59,9-5.64,10.67-3.45,24.11-5.56,35.9-7.89-5.86-.07-11.94.68-18.78,1.43-4.2.45-16.29,3.38-16.29-2,0-3.68,9.76-4.66,13.14-5.34,7.44-1.5,13.22-1.35,18-3.68,30.19-4.51,58.81-12.32,88.7-17.36,4.06-.67,8-1.88,12-2.25-.6-2-2.7-4.73-4.43-6.46-23.06,5.56-47.77,8-72.7,11.79-8.19,1.21-16.53,3.16-24.94,2.48,1.43-3.45,5.78-3.45,8.94-4.2,24.63-5.64,53.32-8.79,78.56-13.75a20.26,20.26,0,0,0-5.63-6.69c-23.06,4.13-47.85,6.24-74.29,8.12-3.08.22-7.88,1.8-9.31-1.66,2.33-1.8,6.23-1.88,9.84-2.55,23.06-4.51,47.62-9.39,73.76-11.2-.3-29.23,1.42-61.61.3-92,0-1.27.67-4.58-2.26-3.68-.45.6.68,2,.83,3.38,1.13,7.52-1,17.06-1.65,24.42-.68,8.27-1.66,16.15-2,23.82,1,1.28,3.9.6,4.5,2.25-1.35,3.08-9.31-1-9.84,2.25-.6-2.1-4.2-1.2-6.76-1.42-.9,1.42.08,4.81-1.12,5.93-2-.3-1.13-3.53-1.36-5.63-22,.75-47.16,3.38-70.15,1.12,1.88-2.17,5.34-1.35,7.89-1.42,19.9-.3,41.68-1.8,61.66-2.48a99.69,99.69,0,0,1-1.12-11c-1.06,2.63.45,7.66-1.36,9.54,0-17.05.68-34.48,0-51.31-16.52-1.51-34.92-2-52.5-3.16-5.48-.38-11.26-.08-16-2.18,24-.52,51.37,1.5,77.13,2.18-.82-8.19-.67-17.21-1.12-26.37-.31-8.72-1.36-18.11-.53-26.37.15-1.21.07-3,1.43-3.61-1-1.35-3.38-1.2-5.34-1.43-.67,1-.15,3.08-.3,4.51-1.65-.23-1-2.78-1.12-4.51-15.85-1.95-33.95-2.93-50.78-4.51-5.4-.45-11.11-.15-15.39-2.78,22.83.45,43.94,2.56,65.87,3.91-.45-16.23-1.73-34.71-1.13-50.19,1.35.83.9-.83,2.25-.6-.37,15.1,1.21,34.49.83,50.49.83.53,1-1.88,2.55-1.65-2.48-12-1.5-33.66-.82-47.71,1.57,1,.75,3.23.82,4.81.23,5,.3,10.51.6,16.23.38,9.31-1.27,20,1.36,26.37.3,1.8-1.36,1.57-1.66,2.85a38.43,38.43,0,0,1,6.16.53c.6-17.43.75-35.39,2.56-51.62-2.86-.9-2.63,1.35-3.68,2.26-1.43.14-.75-1.88-1.43-2.56-23.13-5.48-48.52-8.64-71.2-14.58,2.1-1.42,5.33.3,8.11.83,20.35,3.91,41.31,7.14,62.86,9.84,1.51-4.73.83-10.07.83-15.17,0-16.61.75-35.54,1.65-51.32-17.95-6.84-37.48-12.62-56.4-19.08-6-2.11-12.32-4-17.35-7.59C54.63,356,68.9,360.12,83,364.48s28.09,8.33,40.93,14c.23-23.9-.37-46.89-.23-70.71-18.85-8.56-38.68-17.2-58-25.84-6.39-2.78-12.85-5.34-18-9.24,1.58-.53,3.39.6,4.74,1.12,23.36,9.4,49,19.91,71.27,30.88.23-20.66-.3-41.47,1.13-60.33-2.33-2.1-5.78-3-8.19-5-.3,2.48.16,4.35,1.43,5.33.75,11.65,1,23.59,1.43,35.31.07,3.69,1.35,8.12-.83,11-1.73-.9-1.35-3.6-1.42-5.33-.31-6-.61-13.15-.83-19.38-.08-1.13-1.88.37-2-1.13-.75-4.51,0-8.64,0-13.15,0-4.06,1.2-9.92,0-13.75-.53-1.73-5.56-4.66-7.89-6.24-14-9.31-27.71-18.4-41.23-27.72-5.56-3.83-11.65-6.76-15.7-11.8,22.23,13.45,43.56,27.8,64.52,42.68.22-2-.53-5.64.3-7.59.82-2.25,4.35-3.38,5.86-5.63,3.3-5,3.68-11.5,3.07-19.91-.3-4.36-1.65-10.15,2-11.8-19.23-16.68-40.26-31.56-58.59-49.14,20.51,14.65,39.74,30.58,59.71,45.76a97.05,97.05,0,0,0,.61-15.18c-.16-2.78-1.13-5.93.52-7.81,1.65,1.2,1.35,4,1.65,6.16a53.12,53.12,0,0,1,.6,14.05c-.22,2.1-1.5,4.43,0,5.86,1.28-3.31,1.06-7.21,1.13-10.9.08-7.43.53-15.17,1.13-23.06.22-3.23,1.42-8.34.82-11.2s-5.63-6-8.11-8.71c-7.13-7.74-13.29-14.13-20.5-21.64-1.21-1.2-2.93-2.63-3.08-4.43,14,10.52,25.16,23.81,37.85,35.61.75-4-.67-10.22,2.25-12.1,1.88,6-2.17,16.61,3.91,18.56,1.13-4.06-.6-10.89,1.73-13.75,1.88,3.68.3,10.9.82,16,2.11-1.06,5-3.84,9.24-3.69-2.85-2.25-9.16-2.33-8.71-7,.45-4.21,7.21-3.16,11-1.73.22.07.3.3.6.3-9.32-10-20.21-17.58-29.52-26.9s-18.85-18.11-28-28.1C89.4,73,74.45,60.11,59.73,45.46c-3.45-3.54-13.14-9.92-12-16,.38-2.18,2.71-4.43,6.39-4,2.93.45,6.76,4,9.31,5.94,20,15.4,36.58,31.18,54.38,49.66C132.21,96,147,110.6,162.41,126a49.78,49.78,0,0,1,6.75,8.11c1.36,2,5.71,7.52,3.08,10.07-1.72,1.73-5.1.6-7.28-.22Zm-33.65,24.16h0c1.05-3.68.75-8.64,5-9V141.75c-1.2-1.36-2.32-2.78-3.6-4-.08,10.3-1.5,20.82-1.43,30.36Zm59.79-27h0c1.27,1,3.68,3.08,5.56,1.65-1.43-1.05-2.41-2.56-3.91-3.61-.38.83-1.28,1.13-1.65,2Zm-23,.6h0c-1.27.15-2.85-.75-3.38-.3.53.45,2.56.9,3.38.3ZM138.9,155.2h0c-.23-2,3.75-5.94,3.68-7.07s-3.16-2.63-3.38-3.3c-.6,2.78-.23,8-.3,10.37ZM197.26,147h0c.07,1.12,1.12,1.12,2,1.42.3-.3.3-1,.3-1.65-1-.23-1.35.3-2.25.23ZM247.2,198.7h0c1.13,1.2,4.51,6.24,6.16,5.33,2.71-1.57-3.15-5.63-4.2-6.76C234,181,218.51,165,203.42,149.56c0-.3-.38-.22-.3.3.45,1.73,1.95,2.41,1.42,5,14.05,14.21,29.07,28.93,42.66,43.81Zm-89.53-44.11h0c.76-1.42,1.73-2.55,2.56-3.9a6.51,6.51,0,0,0-2.56.3c.83,1-.37,3,0,3.6Zm8.72-1.65h0c1.88-.67,4.05-1,5.33-2.25h-5c-.45.37-.23,1.43-.3,2.25ZM156,151.81h0c-1.35-.6-2.93.76-3.68,1.66a8.57,8.57,0,0,0,3.68,4c1.28-1.35.45-3.76,0-5.64Zm39.58,4.74h0c-.15-1,1.13-.68.83-2-.6,0-.38-.75-1.13-.52.15.75-.37,2.25.3,2.48Zm-41.23,37.64h0c.6.6,6.38-3,7.28.3-2.85,3.31-7.58,4.81-10.13,8.42,3.9,2.78,9.76,2.55,13.21,6.16.31,1.05-.75.82-.6,1.65,1.58.75,3.08,4.43,4.21,3.68-.15-6.69,4.88-8.26,7.06-12.62-1.88,3-11.27,7.29-11.27,1.13,0-2.26,5.64-8,7.89-9,4.13-5.26,5.11-11.95,8.71-17.36.6-1,1.81-1.57,2.48-2.55,3.61-5.18,5.26-11.42,5-19.39-.67,2.86-3.38,3.76-5.55,5.11.75,6.39-.53,12.85-7.59,12.33.53,14.87-13.52,15.1-20.73,22.16Zm7.51-30.58h0c1.88-2.78,4.36-4.88,6.23-7.59-3.9.53-5.55,4.81-6.23,7.59Zm-21.33,25.77h0c5.63-8.19,8-19.68,13.52-28-.53-1.81-2.4-2.26-4-3.08-3.46,9.91-7.66,20.51-9.54,31.1Zm51.67-15.7h0c-.37,1.58.38,3.15,0,4.81-.82,3.53-5.78,5.41-7.88,8.11a20.62,20.62,0,0,0-2.78,7.07c-.83,3.38.15,7-.6,10.89-.53,3.31-4.51,5-5,7.29-.23,1-.15,5.63.6,7.29.52,1.42,4.65,3.83,6.16,5.1,12.84,10.37,24.26,20.59,36.72,31.41,1.58,1.35,5.26,5,6.46,5s3.61-1.66,5-2.26c5.64-2.25,11.57-4.06,16.6-5.56a64.54,64.54,0,0,1-.3-9.32c-19.53-14-36.95-31.48-54.75-46.81-1-.9-3.15-2.1-2.48-4,10.44,6.61,19.46,15.71,28.92,23.9,8.19,7.06,16.75,14.27,24.93,21,1,.83,1.81,2.56,3.38,2.26,1.21-10.9-2.7-24.5,2-31.18Q225.39,185,202,160.83c-1.05,7.51-8.49,6.61-9.77,12.85ZM173.15,169h0c1.27-.3,2.1-1.13,3.9-.83.9-1.13,1.28-4.36,0-5.34-1.05,2.26-2.93,3.76-3.9,6.17ZM159.4,188.56h0c6.31-2.86,13.75-6,11.49-16.53-3.75,5.63-7.43,11.27-11.49,16.53Zm5.33-12h0c-2.25,2.93-5.78,5.94-6.15,9.77,1.65-3.23,5.4-7.44,6.15-9.77Zm-41.83,8.94h0c.3,5,.07,10.45.6,15.18q1.69-8.11,3.61-16c-1.43-2.18-3-.75-4.21.82ZM151,193.89h0a9.86,9.86,0,0,0,5.86-7.81c-1.8,2.55-5,5.25-5.86,7.81Zm5.33,2.85h0c0-.37.38-.6-.3-.6-2.4,1.36-5.18,2.33-7.58,3.69.07.9.82,1.2,1.42,1.65a47.35,47.35,0,0,1,6.46-4.74ZM141.45,206h0a33.72,33.72,0,0,0,6.46-2.78c-.75-1.36-1.88-2.33-2-4.29-1.57,2.26-3.83,3.84-4.43,7.07Zm6.69-.83h0a4,4,0,0,0,2.25-.6,1.54,1.54,0,0,0-2.25.6Zm-13.75,5.33h0c-.67,1.13-2,3.16-1.65,4.44,2.25-2.48,5.18-4.36,7-7.29-1.95-.38-2.4,3.23-5.33,2.85Zm8.41-.3h0c.3-.6,1.43-.52,1.73-1.12-.83-1-2.25.75-1.73,1.12Zm-20.2,22.47h0c-8.41-2.41.45-14.65-1.95-21-1,3.91-4.21,5.64-6.69,8.12v8.41c2.71,1.13,6.31,5,8.64,4.51Zm28.62-14h0c-.08-1.13,1.05-1.05.9-2.25h-1.73c.07,1,.15,1.95.83,2.25Zm-10.9.53h0a13,13,0,0,1,1.36-2.18c-1,.22-2.71,1.27-1.36,2.18Zm.53,3.38h0c1.05-1.28,3.15-1.58,4.21-2.78-.6-.6-.3-2.11-1.13-2.56-.75,1.88-2.93,3.76-3.08,5.34Zm33.65,7.59h0c-.75-.08-.6-1.06-1.13-1.43-.07,2.4.53,4,.3,6.46-.22,1,1.13.37.83,1.43a306.38,306.38,0,0,1,1.43,32.83c6.45,4.66,12.54,9.69,19.37,14.05,6.61-9.84,17.2-15.7,28-21.34-15.25-13.82-31.25-27-46.79-40.42-.08,3.46,0,7-2,8.42Zm-30.57,2.25h0c0-1.43,2.4-3.16,1.13-3.91-.75,1-3.16,2.63-1.13,3.91Zm21,1.43h0a2.42,2.42,0,0,0-.53-2c.08.82-.22,2,.53,2Zm-24.94,2h1.66a3,3,0,0,0-.83-2.25c-.38.67-.45,1.57-.83,2.25Zm-11.19,3.08h0c-.07-1.28,2.11-2.4.83-3.08-.3.83-1.58,2.18-.83,3.08Zm37.86,2.78h0c.45-1.2-.3-3.31-.83-4.51-.45,1.2.3,3.38.83,4.51ZM130,241.3h0c-.08-.53.9-2.26.23-1.65-.23.52-1.36,1.42-.23,1.65Zm22.16,7.89h0c-.23,1,1.12.37.82,1.43-1.35.37-1.42,3.45-.82,4.73.3-.83.3-1.88,1.35-1.95-.3-2,.67-5.11-.53-6.16a2.63,2.63,0,0,1-.82,1.95Zm269,38.17h0c-24.26-23.45-68.49-38.7-116.49-36.52-20.73,1-40,3.46-56.33,8.49-6.61,2-13.82,4.06-18,7.29-.6-.3-1.35-.15-2.55.22a66.14,66.14,0,0,0-14.27,7.89c-2,1.36-12.17,8-11.57,10.07.83,2.93,5.18-2.1,5.11,2.26,24-19.76,59-33.36,102.37-33.36,21.4,0,41.38,3.9,58.88,8.94a158.06,158.06,0,0,1,46,22.16c.75.68,2.92-.07,3.37.9.53,2.18,1.36,4.21,1.36,7,3-.67,1.42-2.85,2-5.33ZM151.52,265.19h0c.07-1.57.82-4-.3-5,.22,1.58-.38,3.91.3,5Zm-27.49,11h0c.75-3.45.6-10.22.3-14.87-.45,0-.15-.83-.6-.91.52,4.89.22,10.52.3,15.78Zm186.26-12.92h0c-4.5-.83-11.41,1.43-16,1.13-9.39,11.79-19.68,24.34-29.75,35.31-.45.52-1.95,1.05-1.35,2h7c6.46-7.82,13-15.48,18.77-23.89-4-.91-.52-4.51,2-6.17,6.23-4.13,15.39-6,23.05-6.46-1.57.08-2-1.65-3.68-1.95Zm31.7,16h0c-1.5,3.61-3.53,8.27-4.51,11.5,6.39-7.74,12.7-15.63,19.38-23a218.75,218.75,0,0,0-32.22-4c-2.1-.07-6.31-1.42-6.46,1.73,8.34,2.26,17.2,4.13,21,10.9,5.56-1.05,6.31-8.49,11.49-8.94-2.33,4.5-6,7.66-8.71,11.79ZM282.8,265.72h0c-10.13,11.87-20.05,24-30,36h8.71c8-11.27,17.73-22.39,26.37-32.61,1.27-1.5,3.53-3.08,3.08-4.51-2.71.45-5.41.83-8.12,1.13ZM211,292.17h0c-.22,7-.6,15.25-.53,21.56,66.85.45,134.22.45,201.37.6-.15-1.58.3-3.68-.22-4.81-55.81.15-118,.3-174.78-.52-5-.08-12.4.07-18.25-.61-6.16-.67-3.83-4.28.3-4.2-2-.08-4.51.37-4.51-1.66,5-1.5,11.42-.82,17.65-.82h18.78c8.19-10.07,16.82-21.34,25-31.18,1.13-1.43,3.3-2.86,2.78-4.21-4.58,1.2-9.92,1.73-14.27,3.08-5.71,8.11-12.24,15.78-17.95,23.59-2,2.63-3.31,5.94-6.24,7.82,4.88-10.07,12.24-19.24,18.86-27.5.82-1.06,2.4-2,2.25-3.38-4.28,1.2-8.56,2.32-12.69,3.68-5.56,8.56-11.05,17.35-17.35,25.24,3.52-7.44,8.93-14.72,13.14-21.34.6-.82,1.43-1.87,1.13-2.78-4,1.43-7.74,3.09-11.5,4.74-4.2,6.16-8.11,14.12-12,19.68,2.18-7.06,7.13-12.84,9.76-18.56-6.76,4-13.52,8-20.73,11.58Zm148.72-23.9h0c-8.27,11.35-17.88,21.27-26.67,32-.37.37-2.33,1.58-1.12,1.65h7.58c9.76-10.44,21.33-20.36,29.44-31.4-3.3-.53-6-1.73-9.23-2.26Zm-59,3.68h0c-2.93,1.13-7.89,3.23-8.12,5.34-.37,2.85,4.21,7.44,4.21,10.07,2.4-1.51,6.23-1.13,8.94-1.66a30.4,30.4,0,0,1-2.78-7.06c-1.43-.07-3.46.45-3.38-1.13,1-2.48,7.28-2.33,8.41-.82-1.13,2.33-.9,5.93,0,8.71,2.33-.22,3.68,1.05,5.33,0-.15-5.78.3-11,.3-16.6A46.85,46.85,0,0,0,300.76,272Zm17.95,14h5.63c-.38-3.91.3-8.64,3.38-7.59,2.78,1.05-.75,5.86-.83,8.19a34.74,34.74,0,0,0,5.86.53A26.08,26.08,0,0,0,337,281.5a42.1,42.1,0,0,0-18.48-12.4c.38,5.26.9,11.42.23,16.83Zm53.62-14.28h0c-8,9.1-17.87,18.64-26.36,26.9-1.2,1.2-3.38,2.26-3.15,3.38h7.36c8-6.91,15.62-16.53,23.28-23.59,1.35-1.2,4.88-3.53,4.43-4.73a17.23,17.23,0,0,0-5.56-2ZM177.05,642.06h0c6.54.31,13.67-1.57,19.08-.52-4.81,2.55-13.44,1.28-18.78,3.3a7.81,7.81,0,0,1-.6,3.16,267.57,267.57,0,0,1,28.09-3.68v-43.2c-3.38-.53-7.28-.08-11.26.3s-8.19,1.65-11.2,0c5.49-2.78,16.38-2.86,22.46-1.73-.82-79.57-.45-163.34.3-242.76,0-2.1-.3-4.36.83-6.16,1.8-1,5.41-.23,7.59-.83.82-10.14-.38-21.56.22-31.4a44,44,0,0,1-9.24-1.43c-2.4-7.36-.82-18.63-1.65-27.5-2.85-1.5-3.23-4.21-7.29-2.55-2.32-3.23-6.23-5-9.53-7.29-3.46-2.33-7.06-5.26-10.14-7.29.45,122.17.75,246.59,1.12,369.58ZM141.68,282.62h0a12.7,12.7,0,0,0,.3-8.19,18.52,18.52,0,0,0-.3,8.19Zm9.54,4.44h0c-.15-3.84.37-9.92-.23-12.33.15,3.84-.37,9.92.23,12.33Zm230.05-12h0c-.15,0-.3,0-.3.23-7.58,7.81-16.22,16.3-24.11,23.59-1.2,1.13-3.3,2-2.78,3.08h5.34c9.08-8.34,17.87-17.05,27.49-24.94-1.73-.68-4.06-2.1-5.64-2Zm7.89,3.08h0c-3.68,4.44-8.71,8.57-13.52,12.63-3.38,2.93-7,5.71-10.07,8.41-1,.9-2.7,2.18-2.25,2.78,2.1-.6,4.58.83,6.76.3,1.5-.37,4.51-4,5.86-5.33,6.16-6,12.09-11.72,17.95-16.53a35.43,35.43,0,0,0-4.73-2.26ZM152.94,282h0c.15-.67.75-2.63-.3-2.78.15.83-.37,2.41.3,2.78Zm119.5,19.69h0c2.55-.23,4.21.45,6.76.22a155,155,0,0,1,12.62-17.65c-.68-1.36-.9-3.08-2-3.91-5.48,7.44-11.86,14-17.42,21.34Zm124-20h0c-6.46,5.86-14,12.62-20.5,18.26-.68.6-2.18,1.13-2,2.25h6.77c6.23-6.31,12.84-12.17,19.07-18.55-1.2-.53-2.17-1.36-3.38-2ZM153.24,289h0c.3-.53.53-2.78,0-3.31-.15.91-1.27,2.78,0,3.31ZM402.6,285.7h0c-4.81,5.41-10.89,9.62-16.3,14.58-.3.53-2.62,1.65-1.35,2,2,.68,5.11.08,7.59.3,4.88-4.58,9.31-9.61,14.57-13.75-1.8-.75-2.33-2.78-4.51-3.08ZM281.68,301.93h4c2.4-4.05,4.95-9.61,8.94-11.19-.38,4.51-5.19,6.91-6.76,11.19H299.1a74.33,74.33,0,0,1,4.74-7c-2-.15-4.21-1.06-5.34.3-2.85-2-3.3-6.39-5.86-8.72-3.45,5.33-7.88,9.69-11,15.4Zm16-12.92h0c.22,1.13.3,2.33,1.72,2.25,0-2,2.18-1.87,3.91-2.25-1.28-1.05-4.06-.38-5.63,0Zm33.42,3.38h1.35c.08-.45,1.28-1.95,0-1.95-.07,1.05-1.2,1.05-1.35,1.95Zm78-1.35h0c-4,4.06-8.94,7.14-12.62,11.49h3.38a59.42,59.42,0,0,1,10.89-10.36c-.75-.23-.67-1.21-1.65-1.13Zm-265.36,5h0c.08-1.05.83-3.68-.3-4.21-.67,1.51-1.2,3.09.3,4.21Zm260.55,6.69h0c2.63-.08,6.16.22,7.89,0-.15-2.63.83-5.71,0-8.11-2.25,3.07-5.78,4.88-7.89,8.11Zm20-8.11h0c-1.65.9-3.6,1.42-4.8,2.77.07,4.51-.45,8.34-.3,12.93,7.58,9.77,15.54,19.08,22.45,29.45-1.57-19.23-6.08-35.54-17.35-45.15Zm-117,.3h0c-2.41,1.95-4.81,3.9-6.16,7,2.78-.67,5.48.23,8.71,0,1.35-2.4,4.58-4.51,5.33-6.68a54,54,0,0,1-7.88-.3Zm10.66.52h0c-2.1,2.1-4.51,3.91-6.16,6.46h8.94a33.88,33.88,0,0,0,5.11-6.16c-2.86.15-5-.52-7.89-.3Zm4.81,6.46h5.25a44.64,44.64,0,0,0,4.81-5.86c-6.08-1.73-7.58,3.16-10.06,5.86Zm-155.18-.82h0c-.37-2.11-.3,2.18-.3,3.08s-1.8,2.93-.82,3.08c-.23-1,.3-1.35,1.12-1.35v-4.81Zm-23.28,15.4h0c2-2.25,2-7.89.83-11.2-.38,3.61-1.81,7.22-.83,11.2Zm8.11-.83h0c-.15-3.23.3-7.14-.82-9.54-.23,2.78-1.06,8,.82,9.54Zm5.33,1.73h0a10,10,0,0,0,0-6.16,15.58,15.58,0,0,0,0,6.16Zm13.52,16.23h0c0,1.88,0,6.54.23,2.55a206.16,206.16,0,0,0,0-23.59c-.23,5.71-.23,16.23-.23,21Zm258.9-3.38h0c3.76,5.33,7.29,10.82,11.79,15.48-6.91-11.27-15.32-21-23-31.41,3.38,5.56,7.44,10.67,11.19,15.93ZM241.57,317.11h16c1.5,0,4.88.23,4.2-.3h-4.5c-5.71.45-11.34-.75-16.53,0,.31.07.76,0,.83.3Zm-107.18,1.13h0c0,1.8.08,7.13.6,6.46-.22-2.33.38-5.41-.3-7.29-.07.3.08.75-.3.83Zm283.91.82h0c4.06,7.14,9.54,13.23,14,19.69,1.51,2,2.41,5.41,5.34,6.16-.53-2.55-2.71-4.43-4.21-6.46-5-6.54-9.84-13.38-14.57-19.91-.07-.23-.07-.38-.3-.3-.07.3.08.75-.3.82Zm-202.57.6h2c.53-1.57-2.55-1.57-2,0Zm4-.3h0c0,.46,2,.6,1.66-.3,0-.45-2.11-.6-1.66.3Zm3.08,0h0c.23.46.75.68,1.65.53.53-1.28-1.57-1.5-1.65-.53Zm3.38.3h0c.23.46,2.33.46,2.26-.3-.3-.22-2.48-.82-2.26.3Zm6.46-.3h0c-.3-.67-1.8-.15-2.55-.3-.68,1.51,2.93,1.73,2.55.3Zm2.18.53h0c.45,8.34-.53,17.28-.22,27,13.44-.9,30-.07,45.14.3,37.7.9,75.85,1.43,113,2.48a241.71,241.71,0,0,1-.52-28.62c-52.5-.3-105.15-.53-156.83-1.66,0-.67-.75.08-.6.53Zm174.78.83h0v2.85c.67-.15.67.53,1.42.3-.22-1.12.53-3.15-.52-3.38-.08.3-.45.3-.9.23ZM395,321h0v1.12c.45.53,1-.22,2,0v-1.42c-.83-.08-1,.52-2,.3Zm3.68,1.42h1.65v-1.72h-2c-.23.9.3,1,.3,1.72Zm5.55.31h0v-2h-2.17c-.3,1.72.6,2.25,2.17,2ZM406,323h2v-2.25h-2.26c.08.82-.15,1.87.3,2.25Zm-175.9-.83h0v2c.37.45,1.43.3,2.25.3v-2.56c-1.05-.15-1.35.38-2.25.3Zm-13.75,0h0a.82.82,0,0,0-.6.83c.53,8.11.68,16.6.6,25.32.23.68-1.65,1.58-.3,1.65,1.36-8.71.68-19,1.73-27.8Zm3.38,2h1.36c-.15-.83.3-1,.3-1.66-.3-.3-1-.3-1.66-.3v2Zm3.08,0h1.65v-2c-1.57-.37-1.87.53-1.65,2Zm3.61,0h0c.75,0,1.65.15,2-.23v-1.43c-.38-.37-1.28-.3-2-.3v2Zm191.07,32.61h0c5,4.35,10.44,10.06,15.18,14.57.52.45,1.05,2,2,1.35-.23-8.71-.3-17.8-.6-27.19-5.71-7.82-11.72-15.41-17.35-23.3,0,10.67-.15,23.9.82,34.57Zm-271.81-28.4h0c.22,2.77.3-1.81.22-2.79,0-.22-.22-.29-.52-.29a9.79,9.79,0,0,0,.3,3.08Zm6.68,5.63h0c.23-2.55.75-6.39.3-8.71a12.36,12.36,0,0,0-.3,8.71Zm257.25-8.11h0c.22,6.68-.23,13.9-.23,20.43,0,2-.67,5,.83,5.64,1.28-7.89.15-18,.52-26.38,0-.22-.22-.29-.52-.29,0,.37-.53.29-.6.6Zm-14.27.52h0c.3,5.11.52,12.92.3,18.56-.15,2.1-1.2,5.26,1.65,5.56,0-6.69-.68-14-.53-20.44,0-1.42.68-3.68-.6-4.51h-.82v.83Zm3.38,8.72h0c.9-.08,1.2-.6,2.25-.53,0-4.21-1.43-6.08-.6-9H398.7v9.55Zm3.6-7.59h0a4.76,4.76,0,0,1,1.95.3v-1.95H402.3v1.65Zm3.68.3h0a3.85,3.85,0,0,0,2,.53v-2.48h-2v1.95Zm-179-1.73h0c-.38.15-.53.38-.6.9a145.39,145.39,0,0,0,.3,23c3.08-.07,1.5-3.9,1.43-5.93-.23-5.56.6-13.45-.6-18Zm3.08.9h0c.07,7.74-.08,15.25-.3,22.69h2.55c-.15-7.59-.67-16.08,0-23.59-1,.15-2.48-.37-2.25.9Zm-7-.6h0c-.07.38-.37.38-.3.83.15,5.71-.3,12.25-.3,17.95,0,1.51-.9,4.81,1.43,4.81a103.38,103.38,0,0,0,0-23.59Zm-3.68.3h0c.08,8.19-1.2,15.1-1.12,23.29h2.78c-.31-7.66.75-16.68-.53-23.29Zm188.53,9.24h0c-.68-2,.07-4.13,0-6.46-3.38-.75-2.26,6.76,0,6.46Zm-5.34-1.35h0c.68-.07.83.45,1.65.23.83-1.43-.07-3.38,0-5H402.6v4.81ZM142,340.93h0c-.15-1.13.37-2.93-.3-3.61-.38.75-.53,3.23.3,3.61ZM399.22,351.6h2.86q-.68-6.21-.9-12.85a7.3,7.3,0,0,1-2.26-.6c0,4.66,0,9.24.3,13.45Zm7.06-7.82h0a1.84,1.84,0,0,1,1.35.23c.61-1.43.16-4,.31-5.86-2.93-.45-1.28,3.6-1.66,5.63Zm-3.38,0h1.66c-.16-1.73.3-4-.31-5.33H402.9v5.33ZM125.15,361.44h0c.08-5.49.68-12.77-.3-16.83.23,5.33-.37,12.92.3,16.83Zm29.75-5.64h0c.82-2.63,1.65-8.71,0-11.19-.08,3.53-.76,7.89,0,11.19Zm2.77-9.54h0c.3-.37.3-1,.61-1.35h-.83c.15.38-.38,1.43.22,1.35Zm248.61,5.64h1.66v-5.34c-2.93-.6-1.21,3.46-1.66,5.34Zm-1.42,0h0c-.08-1.66.22-3.76-.3-5h-1.43c.45,1.81-1.13,5.64,1.73,5Zm-257.25-.53h0c-.23-1.05.45-1.2.3-2.25H147c-.45.52-.3,2.18.6,2.25Zm93.44-2h0c-.91.08-1.21-.45-2.26-.22-.3,1,2.1.67,2.26.22Zm-74.66,24.42h0c0,.3.37.23.3-.22-.15-7.52,1.5-14.58.82-21.64-1.87,5.86-1.57,14.57-1.12,21.86Zm-21.33-13.15h0c.52-3,2.78-7-.83-8.11.45,2.55,0,5.93.83,8.11Zm167-7.28h0a38.14,38.14,0,0,0,7.81-.31H314.5c-3.31-.07-7,.08-2.48.31Zm-160.2,1.95h0c-.38-.83,1.05-1.95-.3-1.95.15.52-.3,1.8.3,1.95Zm-8.12,8.11h0c-.6-3-.07-7.06-1.12-9.54-.45,2.41-1.8,8.87,1.12,9.54Zm10.07-6.68h0c-.15-.68.37-2.11-.3-2.26.07.83-.83,2,.3,2.26Zm54.68-1.13h0c3.68,148.61,2.1,303.32,3.38,451.48,6-.08,11.26.53,17.42.3-1.2-70.7-1.95-143-1.95-215.79,0-35.76-1.13-71.82-1.13-107.74,0-27-.82-55,.23-81.44.37-8.94-.53-18.26.3-26.9.3-2.63.83-3.53,3.08-4.51-.23-2-4-.3-3.38-3.08,6.23-2.93,13.67-1.65,20.8-1.95,7.44-.38,15.1-.3,22.69-.3,30.56,0,60.83-.83,90.65-.83,14.87,0,29.6,0,42.36,2.55,2.26,71.16,2,147.34,2,220.82,0,73.71.3,148.24.52,221.95,3.91-.6,9.31,1.8,11.57-.53,1.35-1.5,1.05-8.11,1.05-12.92,0-146.21-4.43-297.08-1.35-438.33-16.45-2-33.73-1.95-51.08-1.95-52.12,0-106.12-1.36-156.82-1.73-.3.07-.3.45-.3.9Zm-74.58,10.67h0c1.65-2,.67-8.12.52-11a86.13,86.13,0,0,1-.52,11Zm286.38,10.07h0c1.43,31.85,1.43,64.91,1.43,96.84,0,112.55.53,224.58,1.65,333.37,2.71-1,5-3.53,8.19-5.63,2.55-1.73,7.43-3.53,8.11-5.86.9-3.16.3-8.12.3-12.62,0-47.86.23-95.35,0-142.31-.45-85.88-1.8-174.46-.6-257.93-6.23-5.94-13.22-13.68-19.9-20.14.37,4.06.6,9.39.82,14.28Zm-273.77-6.47h0c-.15-1.05.38-2.78-.3-3.38-.07.9-.82,3,.3,3.38Zm-29.74,66.8h0c2-.15,5.11,2,5.33,1.65,0-22-.15-43.95-.6-65.67a53,53,0,0,0-7.51-2.78c2.33,20.89,2.11,44.33,2.78,66.8Zm283.91-64.54h-.83v.83c-1.2,3.45-5.71,2.62-8.41,2.55-10.59-.3-21.11-.53-31.69,0-14.35.6-29.3.38-43.49.52s-29.14.31-43.49.31c-12.47,0-26.51,1.2-38.46,0-1.42-.15-2.55-1-3.9-.53,2.48,70.63,2,143.36,2,216.09,0,36.06.83,72.12.83,108,0,36.14,0,72.05.6,107.44-.38-69,.52-140.2.52-211.05,0-65.52-1.95-134,.53-197.83.23-4.28-.45-9.17,2-11.5,2.18,3.24,1.73,7.52,1.95,11.2,2.1,47,1.35,97.37,1.35,145.68,0,17.44-.52,34.87.3,51.62.83,17.58-.45,35.31.3,53,2.26,53-.07,106.39.83,159.13,53.63.6,107.25,1.2,160.21,2.48-.08-70.63-.9-140.5-.83-211.28-1.8,1.36-2,3.76-5.63,3.39-5.94-.61-7.14-9.7-7-15.48,0-2.93-.15-7.29,1.05-10.37.9-2.11,4.59-6.31,6.46-3.38,1.58,2.4-1.12,2.4-1.35,2.85-3.61,5.33-2.93,18.71,1.35,22.69,3.31-3.83,3.76-10.44,2.86-17.36-.38-2.7-1.73-6.45-1.13-7.58,1.13-2.18,2.7,0,3.08-1.43.23-66.72-1.43-134,0-200.08Zm-267.39,16h0c-.14-2,.38-6.16-.22-6.76.15,2-.38,6.16.22,6.76Zm.61,18.79h0c-.23-4.66-.15-9.62-.61-14.06,0,4.74-.07,11,.61,14.06Zm13.14-7h0c.07.9.3,6,.6,3.9.15-1.27-.15-7.13-.6-7.28.07,1.65,0,2.18,0,3.38Zm17.42,148.16h0c-.45,1.43,1.06.53,1.43.83,1.65,1.43.9,8.11,1.13,11.19,1.2,20.66,1.8,46.14,1.65,67.93,0,.3.38.22.3-.23.38-13.75-.07-26.75-.6-40.12-.38-9.17.15-18.41-.23-27.58-.9-17.73-2-35.69-2-53.57,0-36.29,2.25-72.73.3-109.47a.42.42,0,0,0-.53-.22c-.22,49.59-1.43,99.93-1.43,151.24ZM112.84,428.76h0c-.08,2.25-1.58,8.11,1.65,7.59,1-10.6-.23-25.47-.83-35.31.3,9.09-.52,19.23-.82,27.72Zm44.83-19.61h0c0,.83-1.12.52-1.95.6.38,5.19-.52,11.57,2.86,13.75-.75-4.88,1.65-11.27-.91-14.35Zm-23.8,6.46h0c-.15-1.2.3-4.43-.3-4.21.15,1.21-.31,4.44.3,4.21Zm27.18,11.2h0c-.22-4.29.53-9.7-.52-13.15.3,4.21-.75,9.84.52,13.15ZM153.77,417h0c-.23-.75.52-2.48-.53-2.25.08.82-.37,2.17.53,2.25Zm-9.24,5h0c1.2.83,1.58,2.48,2.78,3.38a66.87,66.87,0,0,1,.3-7.89,6.05,6.05,0,0,0-1.73-1.65c0,2.48.45,5.49-1.35,6.16Zm10.07,13.15h0c-.38-5,.37-11.35-1.36-15.1.38,5.11-1.05,12,1.36,15.1Zm-16.53-6.69h0a9.54,9.54,0,0,0-1.43-5.63c-.15,2.48-.07,4.73,1.43,5.63Zm7,8.72h0c1-4.43,3.15-10.52-1.13-12.7.9,3.76-.68,9.92,1.13,12.7ZM157.15,435h0c.07,1.95-.68,4.58,1.43,5-.68-5.18,1.57-13.22-2-15.48-.08,3.31.37,7.06.6,10.45Zm4.21,9.24h0c-.53-4.74,1-11.5-.83-14.88-.15,4.21-1.35,11.95.83,14.88Zm-24.72-12.93h0c.76,41.63,1.81,82.95,3.91,123.22.07.3.38.23.3-.3.15-36.36-2-73-2.25-108.57,0-5,.15-10.21-1.13-14.87-.3-.08-.37-.38-.83-.3v.82Zm18.56,18.56h0c-.53-4.43.75-10.59-1.73-12.92.37,4.43-.9,10.67,1.73,12.92Zm-38.46-9.54h0c.15,1.43,1,1.73,1.13,3.31.6,5.63,0,13-.3,19.68-.45,9.92-.45,19.54-.53,29.15,1.73.15,4.58,2.11,5.33,1.43-.07-18.33.15-36.81-.6-54.47-.45,1.58-4.2.52-5,.9Zm40.71,2.48h0c-.3,1.65.15,3.38.22,5.33s-.67,4.51.91,5.34c-.53-3.76,1-9.47-1.13-11.5v.83Zm-42.14,1.73h0c-.75,13.52-1.42,29.15-2,42.6-.07,1.65-.83,4.51,1.43,5.11,1.65-14.88.6-33.66,1.12-48.31-.07-.23-.22-.3-.6-.3v.9Zm44.92,96.77h0c1.65-3.3,1-7.29,1.13-10.89,1-27.35.15-56.66,0-84.23-.38-.07-.46-.45-.83-.53.22,31.94-3,63.72-.3,95.65Zm-14.87-54.7h0c.9,26.3.9,54.33,2.55,79.72,1.58-9.32,0-19,0-28.93,0-29.82-.9-61.61-.9-91.51-2.86,12-2.18,26.15-1.65,40.72ZM156,506.22h0c.6-13.52.08-30.05-.6-44.63-.15-3.45.75-7-.82-10.07-.38-.07-.46-.45-.83-.52.45,18.63-.68,39,2.25,55.22ZM158,464.45h0c-.07.45.31.67.31,0,.07-2.78.45-5.41.3-8.42-.38,0-.3-.52-.61-.6v9Zm-7.28-2.86h0c-.45,27.35-.6,56.73.3,83.7.23-27.12-.6-55.52-.3-83.7ZM137.77,562.35h0c1.35-2.93.53-6.54.3-9.77-1.73-24.19-2.48-51.54-3.38-75.21a785.09,785.09,0,0,0,3.08,85Zm33.42-52.15h0c-.22-8.11.3-18.7-.3-25.24.15,8.11-.37,18.63.3,25.24Zm-58.13-12.62h0c1.13,15.48,1.88,37.72,2.85,54.7,1.51-.9.83-3.23.83-4.51-.07-14.2-1.35-30-.53-42.9,1.66,14.35,1.58,31.78,1.06,47.41,1.65.45,3.75.38,5.33.83-.15-19,.37-38.7-.23-57.26-2.1.23-3.45-.3-5.33-.3-1.05,1.13.6,4.44-.6,4.81-2.25-.45,1-6.38-2.78-5.33-1.13.45-.6,2.33-.6,2.55Zm-.53-2.85h0c-.52.15-1.65-.3-1.65.3,1,.22.75,1.65,2,1.65.15-.83-.53-1-.31-1.95Zm0,54.77h0c-.22-16.83-.75-35.54-2-52.22-.45-.07-.45-.45-.82-.6,1.95,16.53.75,36.29,2.77,52.82Zm41.84-10.67h0c-.15,1.2,1.5.68,1.35,1.95-2.33,2.71-.52,9.55-1.12,14.05,3.23-2,3-5.26,2.85-9.54-.53-11-.23-25.39-.9-36-1.8-.15-1.73-2.33-2.48-3.6-.15,11.27.45,21.79.3,33.13Zm-43.26,12.85h0c-.3-.83-.08-3.61-.53-3.31.3,1-.67,3.23.53,3.31Zm2.25.3h1.13c-.15-.75-.08-1.73-.53-2.25-.3.67-.22,1.72-.6,2.25Zm-11.19,5.64h0a2.14,2.14,0,0,1,3.08-1.13v-2h-3.68c.37.83.07,2.41.6,3.09Zm4.51-1.73h0c.75-.3,1.8-.38,2.18-1.06h-2.18v1.06ZM112.84,607h0c1.27-.23,1.87.3,3.07.3-.22-14.35-3-31.86-1.72-46.89.15-1.5,1.65-4.2,0-5.33h-.83c1.43,17.81-1.73,34.41-.52,51.92Zm3.9-50.49h0c-.15,11,.08,25.17,1.13,36.74.07-9.92,2.63-22,1.65-32.23-.15-1.81-.3-3.91-2.25-4.51ZM156,568.28h0c1.95-2.17.08-8.11,1.13-11.27-.08-.15,0-.52-.3-.52-2.33,2.1-2.48,8.56-.83,11.79Zm-48.82-4.2h0c-.3-.83.6-.53,1.13-.6.15-1.81-.3-4.21.3-5.57-2.78-.45-1.65,4.51-1.43,6.17Zm-3.38-4.21h0c1.13,8.34,1,17.28,1.43,26.67,0,1,.45,6,.53,4.21A198.57,198.57,0,0,0,104.65,559h-.53c0,.3-.37.38-.3.83Zm47.7,12.62h0a14.25,14.25,0,0,1,2.85-2.85c-1.28-1.21-1.28-3.61-2.25-5a16.18,16.18,0,0,0-.6,7.89ZM139.2,581.2h0c2.63-3.75.22-9.91-.3-14.64-.3,4.58-.68,10.51.3,14.64Zm24.41-4h0a81,81,0,0,0,.22-8.64c0-.37-.3-.45-.52-.6.15,2.86-.38,7.82.3,9.24Zm-60.91,5.64h0c0,1.5-.23,5,.3,4.21-.23-5.71.45-13.75-.53-17.66-.15,4.13.23,9.09.23,13.45Zm45.21-9.24h0c.23-.23.6-1.58,0-1.73-.68.75-.07,4.88,0,1.73Zm-42.36,33.66h0c1.8.22,2.7-.45,4.43-.3.83-11.87-.37-24.05-1.35-33.66-.68,11.64-.45,24.27-3.08,34ZM151,579h0c.68-1.8,2.4-4.13,2.48-5.63-1.58.9-3.31,3.23-2.48,5.63Zm-.6,12.93h0c2.85-4.21,8.34-7.29,6.16-15.48-1.65,5.41-6.16,9.31-6.16,15.48ZM139.5,616.82h0v1.65c-.15,1,.45.46.22-.22v-1.73c.45-3.76.38-8,1.13-11.5-2.48-2.77-.15-5.4.6-8.41.9-4.13.15-8.34-.3-12.32-.68.9-1.5-.38-2.25-.3.07,10.82.37,21.56.6,32.83Zm10.36-15.18h0c1.88-5,5.49-9.84,6.69-14.57-2.56,4.36-8.41,6.91-6.69,14.57Zm-.3,11h0c2.41-5.33,8.72-8.26,7.59-16.3-2.4,5.33-5.71,11.42-7.59,16.3Zm2.78,11.8h0c1.73-4.06,7.66-6.46,5.33-12.62-1.5,4.28-4.35,8.71-5.33,12.62Zm-2.78-5.64h0c.75-1.8,2.41-4.13,2.56-5.63-.68,1.88-4,3.53-2.56,5.63Zm15.17,7h0c-.14,2.1-1.2,7.14.53,7.89.68-4.43.08-11.42-.3-14.88-.15,2.11-.15,4.59-.23,7Zm-12.09,7.06h5a18.65,18.65,0,0,0,.3-11.49c-1.42,4-7,6.16-5.33,11.49Zm2.56,2.78h-2c-.22,1.36,2.11,1,2,0Zm0,3.08h0c.22-1-1.13-.37-1.73-.52-.23,1,1.13.37,1.73.52Zm10.66,1.73h0c.15-1.12-.15-1.73-1.13-1.73-.45.9-.37,2,1.13,1.73Zm-1.43,3.08h1.43v-1.12h-1.43v1.12ZM158,651.31h0c.83-1.2.76-3.31,1.13-5-.9-.52-2.85-.15-4.2-.3.37,2.41,0,5.71,3.07,5.34Zm6.46.6h0c.83-.23.83.45,1.66.3.37-1.28-.23-3.83,0-5.94h-1.36c-.07,2,.15,4.06-.3,5.64Zm4.51.3h0c.38.3,2.4.52,2.78,0a1.53,1.53,0,0,1-1.65-1.43c.07-1.43,2-1,2.25-2.25-.68.07-1,.45-2,.3-.67-.53-.52-1.88-1.35-2.26v5.64Zm9.54-.3h0c-.15,1.88,2.33,1.2,3.08,2.25-.08.68-1.05.45-1.43.83,1.35,5.26,9.69,3.38,10.37,9.24.82.75,2.93.3,2.85,1.95a65.21,65.21,0,0,1,11.49-1.65c-.15-5.48.08-10.74,0-16.83-9,1.2-17.42,2.93-26.36,4.21Zm-31.17-3.68h0V650c1-.15.68-.82,1.73-.29.15-.83-.53-.83-.3-1.66-.83-.3-.75.38-1.43.23Zm-12,2.85h0c.23.53,2,1,2.18.53-.6-.38.08-2.11-.83-2.26-.22.83-1.5.53-1.35,1.73Zm-1.42,6.69h0c.82-2.78.67-7.14-2.26-7.82-.37,3.76.53,6.16,2.26,7.82Zm38.68-5h0c.75-.15,2.25.38,2.55-.3-.68-.52-1.95-.07-2.55.3Zm-22.46,5.87h0c.3-1.36-.38-4.21-.83-5.87-3.08.3-.15,4.66.83,5.87Zm6.76-3.61h0a17.91,17.91,0,0,0,.6,3.61c7.74.37,15,1.27,22.68,1.72-.52-1.35-2.85-3.3-3.6-5.33-6.39-.23-15.25-2.18-19.68,0Zm.82,8.41h0a11,11,0,0,0,8.42-1.95c.6.52.22,1.58,0,2.25,4.43-.22,10.66,1.28,14-.6.3.83,1.28,1,2.56.83.52-.45.67-1.35,1.35-1.65-7.36-1.88-18-.45-26.37-1.43-.6.67.3,1.35,0,2.55Zm27,.53h0c.75-.15,2.25.37,2.55-.23a4.93,4.93,0,0,0-2.85-1.12c-.08.67.52.6.3,1.35Zm-24.71,2h-1.65c-.16,1.35,1.65.75,1.65,0Zm10.66,1.12h0c5.79.46,1.28-1.35,0,0Zm-11.49,5h0c.68-1.35,2.26-1.73,2.78-3.08-1.28.45-3.23,1.73-2.78,3.08Zm6.16-.3h0c.3-.83,1.43-.83,1.13-2.26-1,0-2,1.43-1.13,2.26Zm5.63,1.95h0c.83,0,1.81-.15,1.66.83a7.1,7.1,0,0,0-1.66,6.23c3.83-.82,2.26-7.14,2.78-11.27h-2.78v4.21Zm4.21,10.37h0c1.05-4.06.68-9.62.83-14.58h-.83a78.9,78.9,0,0,0,0,14.58Zm2.25-2.48h0c.9.15.6-.9,1.66-.6.67-3.16.15-7.51.3-11.2-.91.23-.83-.52-1.66-.3-.6,3.54-.15,8.12-.3,12.1Zm2.48,50.79h0c2.48-2,1.28-5.48,1.43-8.11.45-9.39.45-18.86.82-28.4.53-10.3,1.43-19.09-.52-23.52-.53-1.35,2-2.1.52-2.56H181c.52,20.44-1.43,42.38-1.13,62.59Zm24.41-61.76h0a1.3,1.3,0,0,1-.52.6c-3.91,1.58-9.84,1.58-13.22,3.91,4.28-.38,9.46-2.18,14.34-2.78-.15-.6.45-1.95-.6-1.73Zm-36.13,5.64h0c1-.6,1.88-4.13.83-5-1.05.75-1.65,3.38-.83,5Zm-7.06-.6h0c.76-.76,2.71-1.73,2-3.08-.3,1.2-3.16,2.17-2,3.08Zm29.45,1.95h0v3.38c4.58-.75,8.71-2,14-2,.6-1.2.15-3.37.3-5-5,1-9.54,2.48-14.34,3.61Zm-25.77,1.42h0c1.58.08,1.73-2.92,1.13-4.2a5.11,5.11,0,0,0-1.13,4.2ZM159.1,685h0c1.58-1.73,5-3.08,3.68-6.76-1,2.55-4.35,2.55-3.68,6.76Zm28.92-4h0c-.08-.6.22-3-.3-2.25.07.6-.23,3,.3,2.25Zm-20.51,2.55h0c1.88,0,2.11-3.15,1.43-4.8-1.13,1-1.43,2.7-1.43,4.8Zm37-3.38h0c-4.81.9-9.61,1.81-14,3.08v12.1c4.05-.53,8.41-2.1,12.92-1.13-3.08,2.41-8.64,2.33-12.92,3.61q-.9,27.72-1.36,55.9c7,.08,11.35-2.48,16.23-4.51.07-21.34-.38-42.07-.53-63.11-2.18.6-4.8.83-7.28,1.35-2.18.45-5.11,2.18-6.76.3,3.3-2.33,9.09-2.1,14-2.78-.22-1.5.38-3.75-.3-4.81Zm-33.35,7.59h0c1.58-.6,2.63-3.31,1.66-5.63-.9,1.35-2.93,3.08-1.66,5.63Zm7.29.53h0c-2,3.08-.9,9.24-1.43,13.75,2.11-.15,1.88-2.78,2-4.44.3-5.18.15-10.82.3-15.17a.28.28,0,0,0-.3-.3c-1.58,1-2.56,4.88-.53,6.16ZM165,686.7h0c1-.46,1.2-3.09.6-4.21-.83.6-1.28,3.08-.6,4.21Zm-8.41,1.12h0c.82,0,1-3.08,0-3.08-.53.38-1.65,2.93,0,3.08ZM182.38,747h0c-.07,2.48-.9,6.69,2.78,6.46.76-7.06,1.13-15.63,1.13-21.87,0-1.72.53-4.28-.22-5.63.45.9-.53,4.06-.61,5.34-.3,6.23.31,14.57-1.12,18.48-1.2-20.36,1.27-43.43,0-64.77-.23,20.29-1.35,41.78-2,62Zm-22.75-54.47h0c1.2-1.81,4.2-3.23,2.85-6.69-1.35,1.65-4.28,3.23-2.85,6.69Zm15.47-3.31h0c.68-.23.83-2.33.3-2.86-.45.38-1.65,2.49-.3,2.86ZM168.64,687h0c-1,.52-1.65,2.78-.83,4.2.76-.6,2.33-3.15.83-4.2Zm2.55,6.16h0c.53-.91,3.08-2.56,1.36-3.91-.46,1.13-2.48,2.1-1.36,3.91ZM165,694h0c.53-.52,1-2.55.3-3.38-.67.38-.83,2.71-.3,3.38Zm-9.54,2.26h0c1.5.6,2-1.88,1.73-3.91-2.1-.3-1.65,2.1-1.73,3.91Zm19.68.82h0c.38-.9.53-3.6,0-4.5-.6.75-1,3.9,0,4.5Zm-7.59-.3h0c.6-.67,2.18-1.88,1.13-3.3-.6.75-2.1,1.95-1.13,3.3Zm-8.11,2.56h0c1.58-.68,4.21-3.16,2.48-5.34-.68,2-3.15,2.11-2.48,5.34Zm11.19.6h0a3.21,3.21,0,0,0,2-4.51c-.91,1.2-2.26,2-2,4.51Zm-5.86-.3h0c.46-.3,1-2,.23-2.56-.3.45-1,2-.23,2.56Zm9.54,5.33h0c1.51-.67.83-5,.53-6.46a25,25,0,0,0-.53,6.46ZM143.4,702.1h0c.38-.53.53-2.78,0-3.31-.37.53-.52,2.78,0,3.31ZM156,703.52h0a3.34,3.34,0,0,0,.83-3.9,3.19,3.19,0,0,0-.83,3.9Zm11,0h0c1.28-.07,2.85-2.62,1.35-3.6-.68,1-1.65,1.73-1.35,3.6Zm-7.59,1.13h0c.75-.22,3.61-2.18,2.48-4.2-.75,1.5-2.78,1.72-2.48,4.2Zm11.49,4.51h0c1.58-1,2.63-5.33,1.43-7.29-1.58,1.13-2.25,4.66-1.43,7.29Zm6.16,4.21h0c2.48-1.13,1.2-7.59,1.43-10.15-2.25,1.43-1.95,6.92-1.43,10.15Zm-24.93-6.16h0c1.27.07,1.35-2.56.82-3.38-.82.6-1,1.8-.82,3.38Zm12-.9h0c1.21.37,1.06-2.11.6-2.48a6.33,6.33,0,0,0-.6,2.48Zm-20.73,4.5h0a12.61,12.61,0,0,0,0-5.86,12,12,0,0,0,0,5.86Zm42.89,7.07h0c-.15-3.91.38-9.92-.22-12.4.15,3.83-.38,9.92.22,12.4Zm-30.27-9h0c.53-.6,1.81-2,.83-3.08-.53.6-1.8,2-.83,3.08Zm11,4.51h0c1.73-.9,2.1-4.58,1.35-7.06a7.2,7.2,0,0,0-1.35,7.06Zm-7.89-1.43h0c1.35-1,3.61-2.56,2.55-5-1.27,1.27-2.55,2.47-2.55,5ZM174,715.32h0C175.1,714,175,710,174.5,708a31.73,31.73,0,0,0-.53,7.29Zm-21.33-2.78h0c.45-.3,1-2,.3-2.55-.52.3-1,2-.3,2.55Zm11.49,3.61h0c.91-.83.75-4.14.3-5.34-.22,1.51-1,3.91-.3,5.34Zm6.46,2.55h0c2-.67,2.48-5.93,1.43-7.89-1.73,1.2-2.18,5.11-1.43,7.89Zm-15.17-2.55h0c1.65-.15,2.18-2.86,1.43-4.51-1,1-1.58,2.33-1.43,4.51Zm-12.32-2.26h0v6.47c.08.6-.22,3,.3,2.25v-3.38c.53-1.5.15-3.91.3-5.86a.46.46,0,0,0-.6-.3v.82Zm16,7.89h0c1.88-1,3.53-5.26,2.26-7.58a6.89,6.89,0,0,0-2.26,7.58ZM176.53,717h0c-1.36,5.26.15,13.3-.3,18.26,2.62-2.78,1.42-8.56,1.65-13.75a38.83,38.83,0,0,0,.3-6.46c0-.15-.08-.3-.3-.23-.15.83-1.13,1.21-1.35,2.18Zm-8.42-1.65h0c-1.87.9-2.17,4.81-1.42,7.29,1.72-.83,2.55-5.41,1.42-7.29Zm-16,4.74h0c1.27-.16,1.35-3.09.82-4.21-.9.82-.45,2.93-.82,4.21Zm3.6,5.33h0c1.5-.75,1.88-4.13,1.13-6.16-1.58.75-1.8,4.21-1.13,6.16Zm18.55-3.08h0c-.37-1,1.13-2.7-.3-3.08.23,1.2-1,2.63.3,3.08Zm-10.44,3.08h0c.83-1,.83-4.43.3-5.86-.3,1.57-1,4.21-.3,5.86Zm6.46,0h0c.9-.9,2.18-1.35,2-3.31a.48.48,0,0,0-.6-.3c-.53,1-2.33,2.18-1.43,3.61ZM158.8,731h0c1.73-1.35,4-5.18,2.25-8.11A7.6,7.6,0,0,0,158.8,731Zm-7.81-.3h0a6.6,6.6,0,0,0,1.65-7c-.3,2.4-2.25,4.65-1.65,7Zm22.38,0h0c1.28-.82,1-4.58.6-6.16-.6,1.73-.15,4.36-.6,6.16Zm-7-1.35h0c.52-1.13,2-1.35,2-3.08a.4.4,0,0,0-.53-.3c-.15,1.2-2.47,1.8-1.42,3.38Zm3.38,4.21h0c2.63,0,2.63-4.13,1.95-6.46-1.65,1.12-1.95,3.6-1.95,6.46Zm-14.35,1.13h0c1.58-.68,2.1-5.19.9-6.77-1.27,1.13-1.57,4.66-.9,6.77Zm7.89-3.09h0c.82.3,1.2-1.2.52-1.42-.07.52-.6.68-.52,1.42Zm2.78,5.57h0c.37-.83,1.27-1.13,2-1.66-.22-1.35.3-3.38-.3-4.2-1.27,1.12-2.77,3.38-1.72,5.86ZM151,739.74h0c1.58-1.28,2.4-4.88,1.65-7.59-2,1.2-2.63,5-1.65,7.59Zm7.59-3.08h0c.67-1.2,3.3-1.88,2.47-3.68-.6,1.35-3,2.18-2.47,3.68Zm15.09.53h0c.3-.76.6-2.94,0-3.61-.37.67-.52,3,0,3.61Zm5.64-.83h0c.67,3-1.58,9.69,1.42,10.37a56.38,56.38,0,0,0,0-12.32c-.6.6-.9,1.35-1.42,2Zm-15.7,3.08h0c.37-.68.52-3,0-3.61-.38.6-.53,3,0,3.61Zm5.86.83h0c1.42-.23,3.3-2.78,1.72-4.21a5,5,0,0,0-1.72,4.21Zm-14.05-.53h0c.08-.68,1.73-1.13.9-1.65-.07.6-1.72,1-.9,1.65Zm20.21.83h0c.9-.15,3-1.73,1.42-2.48-.45.82-1.5,1-1.42,2.48Zm-18,3.68h0c1.58-.6,2.11-2.18,3.69-2.86-.16-.9.37-2.55-.31-3.08-1.2,1.88-3.68,2.56-3.38,5.94Zm9.84-4.51h0c-.9,1-2.85,2.55-1.65,4.73.45-1.28,3.53-2.85,1.65-4.73Zm5.86,3.38h0c.23-.22.68-1.58,0-1.73-.15.23-.6,1.58,0,1.73Zm2.26,4.21h0a17,17,0,0,0,2-.6c-.22-1.51.3-3.68-.3-4.74-1,1.28-2.18,2.56-1.72,5.34ZM155.2,747h0c1-.15,1.8-3.08.52-3.68-.82.45-1.28,2.7-.52,3.68Zm7,.82h0c-.9-.15-.07-2.1-1.13-2.25-2.1,1.8-4.28,3.53-3.9,7.89,1-.15,4.58.45,3.08-.6,1.2-.23,2.4.15,4.2,0,.61-.6-.6-1-.3-2.18-1.2.15-1.35,1.43-3.08,1.13,0-.3-.22-.38-.3-.6.15-3.23,4.44-3.76,2.86-7.89-1.05,1-.23,3.75-1.43,4.5Zm6.76,2.56h0c.3.22,2.63.75,2.48-.3s-1.58-.6-1.35-2c-.08-1.87,1.65-2,1.35-4.2-2.33-.6-2.55,4.65-2.48,6.46Zm-18.85.52h0c-.75.15-.23-1-.83-1.12-.52.75,0,2.63-.52,3.38,1.57-1.58,4.8-3,3.6-6.46a7,7,0,0,0-2.25,4.2Zm15.17-1.12h0c.83.3,2.25,1,3.08.3a8,8,0,0,1-.23-3.38c-1.8.22-2.25,1.73-2.85,3.08Zm14.05,2.55h0c.82-.22,1.05.3,1.65.3v-4.81c-2.48-.45-1.58,3.46-1.65,4.51Zm-3.91-3.08h0v2c.45.75,1.95.45,2.78.82.3-.6-.38-2.33-.53-3.38a6.26,6.26,0,0,0-2.25.6Zm-1.43,2h0v-1.66h-1.12c-.08,1-.08,1.88,1.12,1.66Zm-19.37,2.25H156c1.2-3.83-1.73-3.46-1.42,0Zm10.66-.6h0c2.1.22,4.06.45,6.16.6v-1.65a32.41,32.41,0,0,1-5.86-1.13c-.3.6-.6,1.8-.3,2.18Zm30.34,5.63h0c2.18,7.52-7.06,8.34-12.39,10.15.83,3.23-1.88,5-3.38,7,2.33.08,4.73,0,6.24.83-2.93,1-7.36.38-10.14,1.43,7.73.52,16.89-.45,23.28,1.42-8.19,1.58-18.33-.59-26.89.53,2,.15,2.1,2.71,4.21,3.38,2.93,1,7.06-1.12,8.41,2-1.8,1.36-5.26.91-8.19,1.13,0,1.36-.45,2.11-.52,3.38,7.81,3.31,20.13,2.11,29.44,3.91-.3-14,.67-29.3-.53-42.37-4.28,1.42-6.61,4.65-9.54,7.28Zm-14.34-5h0c-3-1.5-6.16-.38-8.71-1.43.07,3.16,6.53,1.36,8.71,1.43ZM172.85,802h0c-4.81.22-10.29.75-13.75.29-3.3-.45-5.71-3.3-7.28-3.37-2.71-.16-5.86,3.75-7.89,4.2,2.48.83,7.06-.52,8.41,1.43-12.32-1.58-17.5,3.08-23.81,7,11.19,2.25,15.85-3.53,23.59-5.64-2.48,2.26-6.09,3.38-8.72,5.34,7.89-.38,18.86-3.46,27.49-2.26,1.28.23,2.93.68,3.61,2-.45,2-3,2-4.21,3.31,8,.15,15.4.75,23.06,1.12-.15-1.42.53-2,.53-3.3-1.73-.38-4.28.15-4.74-1.43,1.28-.82,3.84-.45,5.56-.82,1.88-2.94,6.16-6.39,9.84-3.39.15,1.51-2.7,2.78-1.65,3.39,1.13-.23,2.93.37,3.61-.31-2.18-3.23.37-10.06-.83-15.17a170.78,170.78,0,0,1-18.48-.23c3.76,8-5.71,7.44-14.34,7.82Zm277.75-6.47h0c-4.36,3.16-9.84,7-14.88,10.15-2.32,1.35-5,3-7.28,4.43s-6.53,2.41-5.63,5.94c2.92-1.88,6.61-4.51,11.19-7.59,3.45-2.33,8.56-7.59,12.62-7,1.72.23,2.85,2.33,4.8,2.25-.15-2.85.38-6.38-.82-8.19ZM140.32,797h0c-3.15,2-7.06,3.23-9.83,5.64,3.53.07,6.61.67,10.36.52,3.15-2.4,8-3,10.37-6.16-3.23-.75-7.07.38-10.9,0ZM114,811.57h0c11.34,1.28,16.9-3.31,23.29-7-11.57-1-17.43,2.93-23.29,7Zm109.36-1.65h0c-1.58.14-3.91-.38-5,.22,1.57-.15,3.9.38,5-.22Zm12.09.22h0c-1,.23-2.63-.3-3.08.3.9-.15,2.63.38,3.08-.3Zm17.13.3H248c-1.43.23-3.53-.38-4.51.3,2.93-.22,6.54.38,9-.3Zm10.89.3h0c-2.56.15-5.94-.37-8.11.3,2.62-.22,6,.38,8.11-.3Zm13.74.3h-5.33c-1.58.15-3.91-.37-5,.23,3.38-.15,7.51.37,10.36-.23Zm12.09.23h-5.63c-1.73.22-4.28-.38-5.56.3,3.61-.15,8,.37,11.19-.3Zm10.37.3h0c-2.25.22-5.18-.38-7,.3,2.26-.23,5.26.37,7-.3ZM197,813.3h0v2.78c18.4.45,37,0,55.58,0,18.32,0,36.72,1.43,54.68,2.25,36.5,1.58,72.92,2.7,108.6,5.33-.37-2.55,2.1-2.17,1.65-4.8-74.13-1.43-147-4.14-220.21-6.47-.3.08-.3.46-.3.91Zm192.42,0h0c-.82.15-2.4-.38-2.78.22.83-.15,2.41.38,2.78-.22Zm24.41,1.05h0c-5.18-1.43-13.82-.83-19.9-.53,6.76.08,13.37.3,19.9.53Zm-298.18,4.2h0c-2.47,1.51-5,2.78-6.75,4.51,8.93,1.73,12.24-1.5,17.12-4.2,2.85-1.58,5.63-2.63,7.89-4.51-9.24-.83-13.37,1.35-18.26,4.2Zm-22.68,4h0c9,1,13.07-1,17.95-3.68,2.48-1.35,4.88-2.78,7-4.21-12.4-1.43-17.73,4.21-24.94,7.89Zm28.54,1.12h0c4.43-.6,8,1.13,11.27.53,2-.3,4.36-2.33,6.16-3.38a37.37,37.37,0,0,0,5.93-3.61c-2.93.23-4.66-.82-5.63-2.55-7.36,1.58-11.87,5.93-17.73,9Zm-21.25-8.41h0c.3-.08.22-.38-.3-.3-4.74,2.48-9.77,4.66-14.35,7.29,5.86-1.36,9.61-4.81,14.65-7Zm47.69,2h0c-4.66,1.58-7.89,5.49-12.09,7.29,1.28.75,4.13,0,4.5,1.65-8-.52-11.19,2.11-15.69,4.81-2.41,1.43-4.81,3.83-7.59,3.08,2.86-3.3,7.74-4.58,11.19-7.29-4.95.68-9.31-.37-13.44.53s-7.14,5-11,4.81c1.65-2,4.36-2.78,6.16-4.51-13.29-1.13-18.7,5.56-27.19,9.24,17.43.3,35.08,1.81,51.38,2.26-3.23-.53-6.24-1.81-5.64-4.74.53-2.7,4.21-2,7.29-3.08,2.7-1,4-2.85,5.33-3.38-.07.6,1,.08,1.43.23,7.58-4,14.34-8.79,23.51-11.2-7.14,5.19-15.93,8.72-23.29,13.75,11.87-.37,23.36,1.05,33.95.83-2-.23-3.3-.68-3.38-2.48-.07-3.46,4.73-2.33,9.32-3.38,2.62-.6,7.43-2,10.66-1.13,1-2.7-2-4.13-.3-6.76-14,1-34.62-4.13-45.14-.53Zm48.52,8.12h0c.9-1.36,3.61-.91,5.33-1.43-1.27-.83-3.23-.9-5.33-.83v2.26Zm7.59-1.13h0c.82-.6,2.85-.07,4.2-.3h2.25c-.22-.6-1.57-.07-2.25-.23-1.27-.37-4.13-.6-5.33,0,.38.16.68.38,1.13.53ZM66,836h0c4.65-.3,9.09,1.35,12.92.6,2.1-.45,4.65-2.71,6.68-4,2.55-1.5,4.81-2.85,6.76-4.2C79.86,827.19,73.55,832.3,66,836Zm-8.11,0h0c8.78,1,11.56-4.14,16.82-6.76-7.51.37-11.34,4.43-16.82,6.76Zm426.68,25.54h0c1.13.08,5.94.23,3.31-.3-2.18-.45-3.6-.07-5.56-.3-13.82-1-27.94-2.63-43.18-3.3-1.28.75-3.09,1-4.51,1.65,16.9.52,33.57,1.5,49.94,2.25Z"/><path class="cls-5" d="M510.31,797.29c-11.64,10.9-25.54,21.94-38.68,32.24,2-3.54,5.71-5.79,8.94-8.42,9.61-7.74,20-16.08,29.74-23.82Z"/><path class="cls-5" d="M535.84,797.82c-10.51,11.34-24,22.24-35.9,33.13,11-12,23.59-22.46,35.9-33.13Z"/><path class="cls-5" d="M251.11,881.14c-.68.08-.45-.3,0-.22,40.71.9,83.29,1.5,125.43,2,20.88.22,41.68,1.43,62.26,1.65a526.6,526.6,0,0,1,60.32,3.68c-10.14,1.28-20.51,1.06-30.87.53-30.72-1.43-62.42-.75-93.66-2.25-41.84-2-84.12-1.51-123.48-5.34Z"/><path class="cls-5" d="M343.72,403.29c.45,2.78,4,1.8,6.16,1.95,6.9.38,15.69.45,22.68,1.66,3,.52,4.88,1.8,8.41,1.42.6-.07,2-1.65,3.68-.82,2.48,1.12,2,12.32,2,17.05v56.13c0,25.77.53,49-.52,75.21-1.58,36.36-1,74.08-1.95,111.72-.15,4.59-.31,11.27-.31,18.78,0,3.84,1.43,15.41-2.55,16.31-2.25.52-3-1.43-5-2-4.13-1.2-10.67-.59-16.3-.59-6.31,0-12.69-1.13-16.52-.23-2,.37-2.63,2.18-4.21,2.18-1,0-2.1-.91-3.38-2.18H317.06c-6.39,0-13.07-1.13-18,0-1.35.3-2.62,1.73-4,1.65s-2.18-1.73-3.6-2c-2.41-.45-5.56.3-8.42.3-8.18,0-16.52-.9-24.4-1.43-1.28,1.2-4.51,3.76-6.16,1.13-6.61,6.46-5.64-8.12-5.64-15.18,0-43.35,1.51-86.4-.52-129.91-1.13-24-.6-48.61-.6-74.38,0-21.79-.15-41.92,1.12-64.54.08-1.43.45-6.76,2.26-7,3.22-.45,3,8.27,3.08,10.9,1.35,31.55,1,64.69,1.12,97.15,1,.37,3.31-.23,4.73-.3.45-14.73-.52-29,0-43.81.23-4.81.91-9.61.61-14.05-.23-2.63-1.36-5.48-1.66-8.11-.9-7-.52-14.43-.6-21.34s-.45-14,.83-20.74c1.35-1.35,1.65,1.81,2.25,1.13,1.35-2.78-4-1.65-2.48-4.51,1.88-2,5.49-1,8.41-1.13,6.09-.22,12.7-1.27,19.61-.82,2.33.15,8.86,2.18,8.71-.3-.15-1.73-2-1.35-4.81-1.43-11-.22-18.25-1.13-28.61-1.95-3.08-.23-9.69,0-10.07-2-.45-2.18,2.78-2.4,3.91-2.48,10.67-1.27,22.83.23,35.07.23,28.32,0,58.36.22,85,3.08,3.9.45,13.21.83,11.49,5.93-.68,1.88-7,1.88-9.24,1.66-9.54-.68-22.68-3.83-32.82-2.48Zm-44.92-1.73h0c-.82.6.3,1.58,0,2.55,12.1.46,24.41.38,36.5.53,1.36.08,4.29,1,4.21-1.35-11.64-1.2-28.16-1-40.71-1.73Zm-32.22,16h0c-.52-1.57,1.13-3.75-.3-4.5-.67,1.12-.22,3.6.3,4.5Zm112.21,3.38h0a18.93,18.93,0,0,0,1,6.17c-.3-2.11,1.21-5.11-.22-6.46-.08.37-.45.29-.83.29ZM263.2,438.3h0a50.44,50.44,0,0,0,0-11.19c-.3,3.3-.6,8,0,11.19Zm5.86-1.65h0c0,1.05,1.5.6,1.13,2v8.19c-.23,1.35.3,3.76.3,1v-4.2c-.38-5.11.67-11.72-.6-15.93h-.83v8.94Zm5.33-.83h0c.38-1.8.75-5.93-.3-7.29.23,2.33-.37,5.41.3,7.29Zm3.08-5.93h0c-.37,7.59-.3,15.62-.3,23.59,4.66.52,10.14.22,15.17.3.08-7.81.46-15.25.3-23.29-4.95-.08-10.81-.83-15.17-.6Zm78,3.68h0v21c7.28.9,16,.45,23.51,1.12.45-8.19.75-18,.6-25.84-2.33,7.73-15.85,2.55-24.11,3.68Zm-56.11-2.78h0c-.22,8,.38,15,.23,23,1.95.6,4.95.07,7.28.3.45-7.44.23-15.55.61-23.07a77.35,77.35,0,0,0-8.12-.22Zm12,.52h0c-.83,7.29.38,15,0,22.77,9.16-.3,18.4.9,27,.22-.16-7.06.22-14.65-.31-21.26-9.23-.22-17.65-1.28-26.66-1.73Zm-44.31,13.23h0c-.6-3.46-.15-9.39-.83-11.8.23,4-.22,8.64.83,11.8Zm77.43-11.27h0c-.15,7.06-.3,14.12-.6,21a49.51,49.51,0,0,0,8.42.61c.67-6.69.07-14.58.6-21.34-2.71-.15-5.41-.38-8.42-.3Zm-74.05,26.37h0c1.05,19.53-2.4,38.69-.3,56.13,1.72-3.76,1.12-8.57,1.12-13.15,0-14.5.23-29.91-.3-43.51-.07-.22-.22-.3-.52-.3v.83Zm4.2-.53h0c-.22,17.74.38,34.57.3,52.22,3.38-1.73,4.88,3.31,8.11,4.21,3,.75,5.56-.75,9.54-.3-.37-18.11-.3-36.82-.3-55.3-5.18-1-13.51-.53-17.65-.83Zm24.41,56.13h7.59c.45-18,.15-36.67.22-55-2.62.23-4.43-.45-7-.3-1.05,17.66-.23,37.19-.83,55.3Zm12.32-53.87h0c-.07,18.11.08,36,.3,53.87,8.34.53,17.58.22,26.36.3.15-18.41.68-35.54.31-53.95-8.49-.75-18-.6-26.67-1-.3,0-.3.38-.3.83Zm32.52,1.12h0c-.52,17.29-.67,35-.52,53,3.08-.15,5.63.15,8.41.23.53-17.59.6-35.69.53-53.88-2.86.23-5.11-.3-7.82-.3a.85.85,0,0,0-.6.9Zm11.57.23h0v53a126.36,126.36,0,0,0,22.68-.53c-.07-18,.6-35.16.83-52.75-7.89,0-15.62-.07-23-.6a.69.69,0,0,0-.53.83Zm-79.16,51.69H275c-.6,1.81,2,1.81,1.36,0Zm-23,5.86h0c-.9,57.18-1.43,117.59-.3,174.84,2.26,1.2,4-2,5-2,.3.9-.6,3.08.61,3.08,6.91.45,14.87.52,22.45.52,3.08,0,11.19.9,11.49-1,.08-.52-.45-1.35-.3-1.73-4-.82-9.76-.3-15.39-.3s-12.17.75-15.7-.82c-1.2-.46-.9-1.28-1.73-2s-2.4-.15-2.48-1.43c0-55.52,1.35-112.09,1-168.9-1.27,0-4.5-1.87-4.73-.3ZM268.54,536h0c0,1.27-.31,3.68.22,2.85-.3-6.16,1.13-12,.3-17.73-.23,4.43-.6,10.44-.52,14.88ZM275,522.23h0c1.51,9.16-1.2,20.28.23,28.92-.45-2.7.68-9.24.9-13.22.15-5-.22-10.22,0-16.53h-.9c0,.38-.3.38-.23.83Zm4.21,12.09h0V522c-.08-.22-.08-.6-.3-.6a41,41,0,0,0,.3,12.92Zm5.33-12.09h0c1.2,18.33-.9,37.11-1.12,53.87-.31,1.35-1.36.07-1.73,1.12,2.85.3,7.28-.15,11,0V521.4c-2.4.38-8-.9-8.11.83Zm14,54.77h0c2.11.6,5.34.07,7.89.22.38-18.33.3-37.11.3-55.82H299.4c-1,17.81-.15,37.49-.9,55.6Zm13.22-54.77h0c0,18.48-.07,37,.3,55,8.64-.22,16.45.38,24.94.3.22-18.7.82-37.19,1.12-55.82-8.11-.68-17.5-.07-26.06-.3-.37.07-.3.45-.3.83Zm31.7,55.29h8.41c-.15-18.85.22-37.19.3-55.82-2.25-.68-5.71-.15-8.41-.3-.68,18.18-.15,37.49-.3,56.12Zm12.09-55.29h0c-.3,18.25-.38,36.74-.3,55.29,7.44-.22,15,.83,22.16,0,.52-18.33.6-37.19.52-56.12H355.74c-.31.07-.31.45-.23.83Zm-92.91,34h0c1.73-7.52.68-16.23.83-25.25-.53-.07-.23-1.05-.83-1.13.38,9-.83,17.89,0,26.38Zm19.08,6.46h0c0,.3.37.22.3-.3.07-9.85,1.2-21.87,0-30.58.07,10.44-.53,20.28-.3,30.88Zm-11.49,10.67h0c0,1.43-.75,3.9.82,4.81,1.5-1,.83-3.09.83-4.51.07-12.7.22-26.37-.53-37.87-1.2,11.12-1.12,25.32-1.12,37.57Zm6.76-1.66h0c1.72-3.6.67-11,.22-14.65.08,4.81-1,10.07-.22,14.65Zm-8.72-1.42h0a42.16,42.16,0,0,0,0-10.67c-.37,3.53.08,7.66,0,10.67Zm-3.37,7h0c.59-3.38,1.49-9,.29-12.32a76.5,76.5,0,0,0-.29,12.32Zm11.49.3h0c2.4,0,2.48-5.1,1.42-6.76-.22,2.56-1.2,4.28-1.42,6.76Zm-12.92.61h0c-.08-.91.3-3.69-.23-3.16.08.9-.3,3.68.23,3.16Zm-.23,5h0c-.15,4.66,0,8.41,0,13.45v7c.53.67.15-2,.23-2.78v-3.61c0-4.66,1.43-11.35-.23-14.88v.83Zm5,14.88h0c0,.3.15.67.31.22,2.55-4.21,2.77-9.46,3.07-15.7h-2.85a138,138,0,0,1-.53,15.48ZM277,583.69h0c-2.48,3.68-1.13,10.14-1.13,16,0,13.07.3,26.22.3,38.47,5.63.07,10.67-.53,16.52-.3.45-17.58.45-37.12,0-54.7-5.33.23-9.84-.45-15.17-.3a.76.76,0,0,0-.52.83Zm21.33,53.87h7.28q.35-26.94.83-53.87c-2-.61-5.11-.08-7.59-.23-.45,17.73-.6,35.84-.52,54.1ZM312,584.29h0c.38,17.65.38,35.68.83,53.27h23.58c.53-17.81.3-36,.53-53.57-7.59-.75-16.75.15-24.41-.53-.38.08-.6.3-.53.83Zm30.8,53.27h0a71.26,71.26,0,0,1,8.18.3c.6-17.58.53-35.77.83-53.57-2.18-.68-5.48-.15-8.11-.3-.68,17.43-.83,35.53-.9,53.57Zm12.09-52.75h0c-.23,18,.37,35.16.3,53.05,7.73-.23,14.57.37,21.86.6.3-16.61.37-35.76.3-53.65-7.36-.22-14.43-.67-21.86-.82a.8.8,0,0,0-.6.82Zm-87.28,37.35h0c0,4.58.3,9,.6,12.92.08,1-.75,3.23.83,3.6,1.5-.82.83-3.3.83-4.73,0-11.87.67-24,.9-35.39-.08-.15-.08-.3-.3-.3-3.46,5.34-2.86,14.5-2.86,23.9Zm-5.33,17.13h0c.6-9.17,1.95-22-.22-30.36.52,10.37-1,21.49.22,30.36Zm2.85-.31h0c-.22-4.58.38-9.91-.29-14.05.59,4.81-1.06,10.37.29,14.05Zm-3.38,32.31h0c1.21-8.34.23-18.86.83-27.8h-.83c.31,9.39-.9,18.79,0,27.8Zm2.26-16h0c1.42-.68.83-3.46.83-5.63,0-2.33.29-5-.31-5.87-.75,3.23.23,8.27-.52,11.5Zm4.51-10.67h0c.14,8.49.14,17.66,0,25.24-.08,1.73-.61,3.83.22,3.61.9-9.09,1.43-21,.3-29.68h-.52v.83ZM277,644h0c-1.43,10.52-.15,23.14-.3,34.26,5.63.23,10.59-.3,16-.3-.22-11.19.38-23,0-33.36-5.33-.15-10.74-.15-15.69-.6Zm21.55.6h0c-.6,10.45-.07,22.17-.22,33.06h8.11c-.9-10.3-.68-21.71-.83-32.84-1.88-.52-4.73-.14-7.06-.22Zm14.65.22h0c-.75,10.75-.6,22.32-1.13,33.14,8.19.08,15.77.83,23.81,1.12.45-11,.45-22.61.6-34-8.11.22-15.4-.31-23.28-.31Zm30,.31h0c-.68,10.89-.08,22.91-.3,34.26,2.7.07,5.25.37,7.88.52.68-10.82.08-24.34.3-34.78Zm12.39,0h0c-.6,10.74-1.2,24,0,35.08,2.48-.37,3.08-2.85,5.86-3.08,1.2-.07,2.48.68,4.2.83,1.51.15,2.63-.37,3.68,0,2.86,1,5.41,7.44,4.73,11.49-1.8,11.58-22.45,1.73-31.69,4.81v2.26c10.67,1.12,23.28.37,34.25,1.35.45-17.21.75-34.56.83-52.14-6.69-.83-14.5-.53-21.86-.6ZM271,674.9h0c.08.83.15,2.1,1.13,2.55-.08-9.84-.08-18.33-.53-28.1.75,8.19-1.35,18.26-.6,25.55ZM266.28,678h0c1-.3.6-2,.83-3.08h-.83V678Zm-.3,5.94h0c1.13-.08.53-4.44.3-4a16.61,16.61,0,0,1-.3,4Zm-2.78,0h0a2.9,2.9,0,0,0-.6-2.26c0,.9-.07,2,.6,2.26Zm13.45-.91h0c4.65.38,12.24.68,16,0-5.1-.52-10.66-.75-16-1v1Zm29.74,1.13h0c-1.73-.9-5.86-1-8.11-.53,2.25.61,5.78-.07,8.11.53Zm5.86.3h0c5.71.53,12.77,1,18.25,1.43,1.73.15,4.43,1,5.63-.6-1.13-1.35-3.53-1-5.33-1.13-6.46-.22-13.07-.22-19.08-.22,0,.3.08.59.53.52Zm30.34,1.73h0c2.25-.38,5.93.67,7.29-.6-1.36-1.35-4.81-.68-7.29-.83v1.43Zm-81.12,3.08h1.73a4.72,4.72,0,0,1,.53-2.86c-.53-.37-1.43.31-2.26-.22v3.08Zm5.64-2h0c.82.08,1.43,0,1.65-.52-.53.14-1.95-.46-1.65.52Zm31.17,6.24h0v3.3c12.69-.15,25.91.38,37.85,0v-3.3c-12.09-.3-26.51-1.73-37.85,0Z"/><path class="cls-5" d="M259.22,751.84c-1.13,8.48.23,18.85-.83,28,27.12.6,56.71.68,84.73,2,9,.45,18.55-.16,25.53,3.37.3,2.26-.15,2.41.6,4.51-36.95-1-77.43-.75-113.93-3.08-2.26-5-1.81-12.84-1.66-21.34.08-5,1.36-11.56.23-14.35-.53-1.35-.53-.6-1.35-1.35-3.08-2.78,1.72-4.43,4.5-4.81,8.72-1,18.93.3,29.44.3,24.42,0,46.65,2.26,71,3.08,2.55.08,11.19-.3,11.19,3.39,0,3.15-7.51,2.78-11,2.78-13.15,0-26.44-1.36-38.68-1.66-19.31-.45-40.71-.37-59.79-.82Z"/></g></g></svg>