<svg xmlns="http://www.w3.org/2000/svg" xmlns:xlink="http://www.w3.org/1999/xlink" viewBox="0 0 3850 650"><defs><style>.cls-1{fill:#4d4d4d;}.cls-2{fill:url(#linear-gradient);}.cls-3{fill:#c4ffff;}.cls-10,.cls-11,.cls-12,.cls-14,.cls-3,.cls-4,.cls-7,.cls-9{fill-rule:evenodd;}.cls-15,.cls-4{fill:#8e8e8e;}.cls-5{opacity:0.45;}.cls-6,.cls-9{fill:#39bae2;}.cls-7,.cls-8{fill:#1d7c9b;}.cls-10{fill:#239fc4;}.cls-11{fill:#82e2ff;}.cls-12,.cls-13{fill:#11627a;}.cls-14{fill:#239cc2;}.cls-16{fill:#515151;}</style><linearGradient id="linear-gradient" x1="1925" y1="650" x2="1925" y2="407.13" gradientUnits="userSpaceOnUse"><stop offset="0" stop-opacity="0"/><stop offset="0.22" stop-color="#4d4d4d"/><stop offset="1" stop-color="#4d4d4d"/></linearGradient></defs><title>skyline0</title><g id="Layer_2" data-name="Layer 2"><g id="skyline0"><path class="cls-1" d="M2555.91,343.83v.6a87.43,87.43,0,0,1-8.2-3.21c-6.78-3-15.1-7.35-24.54-12.75-18.86-10.8-42.16-25.75-66.52-42.36-48.73-33.19-101.76-73-132.41-99.23-8.08-6.92-14.6-12.9-19-17.53V135.24h.73v-1.58h1.57v-2.51h-2.3V101.26h.57V96.85h-2.06L2295.12,59h1.08V57.31h-1.46l-.48-2.14h4.12V52h-3.93V48.4h1.33V47h-1.33V43.52h-1.73V47h-1.34V48.4h1.34V52h-3.94v3.15h4.13l-.49,2.14H2291V59H2292l-6.2,27.31h-5.69L2267.69,39.2h1.39V36.36H2267V29.21h.71V26.53H2267V13h.74V11.12H2267v-6h-3.23v6H2263V13h.74V26.53H2263v2.68h.71v7.15h-2.12V39.2H2263l-12.45,47.11h-5.69L2238.65,59h1.07V57.31h-1.46l-.48-2.14h4.13V52H2238V48.4h1.34V47H2238V43.52h-1.73V47h-1.34V48.4h1.34V52h-3.93v3.15h4.12l-.48,2.14h-1.46V59h1.08L2227,96.85h-2.06v4.41h.57v29.89h-2.31v2.51h1.58v1.58h.73V137H2083.55v-36.3c2.37-.66,4,2.23,5.71,3.58s5.73,5.53,5.77,5.19c.1-.87,1.11-.85,1.78-1.52.18-.18,1.71-1.33,1.79-2-1.45-.84-6.87-6.08-9.13-9.65-1.43-2.26-2.84-6-5.92-6.31V88.3h-1.68V137h-33.33v-3.81a2.87,2.87,0,1,0-4.88-2,2.78,2.78,0,0,0,.57,1.69h-8.43v-3.23h-3v-1.73h1.77v-2.43h-1.77v-3.86h-2.12v3.86h-1.77v2.43h1.77v1.73h-3v3.23h-8.43a2.83,2.83,0,0,0,.56-1.69,2.87,2.87,0,1,0-4.88,2V137h-33.66v-36.3c2.38-.66,4,2.23,5.72,3.58s5.73,5.53,5.77,5.19c.1-.87,1.1-.85,1.78-1.52.18-.18,1.7-1.33,1.78-2a45.24,45.24,0,0,1-9.12-9.65c-1.44-2.26-2.85-6-5.93-6.31V88.3h-1.68V137H1838v-1.73h.74v-1.58h1.57v-2.51H1838V101.26h.58V96.85h-2.06L1827.93,59H1829V57.31h-1.45l-.49-2.14h4.13V52h-3.94V48.4h1.34V47h-1.34V43.52h-1.73V47h-1.33V48.4h1.33V52h-3.93v3.15h4.13l-.49,2.14h-1.46V59h1.08l-6.2,27.31H1813L1800.5,39.2h1.38V36.36h-2.12V29.21h.71V26.53h-.71V13h.75V11.12h-.75v-6h-3.22v6h-.75V13h.75V26.53h-.71v2.68h.71v7.15h-2.13V39.2h1.39l-12.45,47.11h-5.7L1771.46,59h1.07V57.31h-1.46l-.48-2.14h4.12V52h-3.93V48.4h1.33V47h-1.33V43.52h-1.73V47h-1.34V48.4h1.34V52h-3.93v3.15h4.12l-.49,2.14h-1.45V59h1.07l-8.59,37.85h-2.06v4.41h.58v29.89H1756v2.51h1.57v1.58h.74v34.11c-4.45,4.63-11,10.61-19,17.53-30.65,26.25-83.68,66-132.41,99.23-24.36,16.61-47.65,31.56-66.52,42.36-9.43,5.4-17.76,9.76-24.53,12.75a87.5,87.5,0,0,1-8.21,3.21v-.6h-127.1v70.48h127.1V362.82h228.49v51.49h124.17V386.08c18.53-5.9,41.93-10.83,68.66-14.42a785.75,785.75,0,0,1,102.86-6.43c60.46,0,115.2,6.16,154.64,16.08q9,2.25,16.86,4.75v28.25h124.17V362.82h228.48v51.49H2683V343.83ZM1758.3,186.1v.73c-2.89,2.86-6.17,6-9.8,9.36-6.63,6.15-14.43,13.05-23,20.42,9-9.52,16.89-18.28,23.28-25.69,3.75-4.35,7-8.24,9.56-11.56V184h-1v2.09ZM1510,357.73h-2.46v-5.17H1510Zm10.62,0H1513v-5.17h7.68Zm10.62,0h-7.68v-5.17h7.68Zm0-10.52h-7.68v-1.88h-2.94v1.88H1513v-1.07a205,205,0,0,0,22.11-10.79c17.86-9.81,40.48-24.05,64.58-40.24,36.15-24.29,75.6-53,107.19-77.56,15.8-12.31,29.62-23.6,40.09-32.84,3.84-3.39,7.23-6.51,10.11-9.3-3.54,4.67-8.64,10.78-14.9,17.89-10.8,12.25-25.07,27.46-40.91,43.51-21.66,17.67-45.93,36.46-69.25,53.42-21.53,15.66-42.26,29.74-59.34,39.9a224,224,0,0,1-22.51,12,71.65,71.65,0,0,1-8.46,3.22,22.84,22.84,0,0,1-6.07,1.1v.78h-1.41v-1.88h-2.94Zm10.62,10.52h-7.68v-5.17h7.68Zm10.62,0h-7.69v-5.17h7.69Zm10.61,0h-7.68v-5.17h7.68Zm0-10.52h-7.68v-1.88h-2.93v1.88h-5.69a161.89,161.89,0,0,0,21.26-10.46c16.3-9.24,36.5-22.66,57.85-37.93,17.25-12.34,35.24-25.89,52.51-39.42-10.58,10.27-21.44,20.47-32.12,30.09-17.79,16.05-35,30.49-49.6,40.9a162.07,162.07,0,0,1-19.46,12.26,53.91,53.91,0,0,1-7.6,3.27,23.56,23.56,0,0,1-3.6.92v-1.51h-2.94Zm10.62,10.52h-7.68v-5.17h7.68Zm10.62,0h-7.68v-5.17h7.68Zm10.62,0h-7.68v-5.17H1595Zm0-12.4v.4c-.51.19-1,.37-1.48.52a22.09,22.09,0,0,1-4.08,1h-2.12v-1.88h-2.94v1.88h-7.68v-.44a131.28,131.28,0,0,0,16.6-9.82c14-9.5,31-23.27,48.64-38.94,20.58-18.23,42.2-39,61.51-58.57,5.84-4.76,11.49-9.45,16.88-14,13.88-11.69,26-22.44,35.34-31.3l2.82-2.72c.2,2.25.53,4.48.93,6.69-22,25.21-57.56,62-91.25,92.8-17.24,15.75-34,29.91-48.15,40.1a155.15,155.15,0,0,1-19,12q-2.65,1.35-5,2.29Zm10.62,12.4h-7.68v-5.17h7.68Zm10.62,0h-7.69v-5.17h7.69Zm10.62,0h-7.69v-5.17h7.69Zm10.61,0h-7.68v-5.17h7.68Zm10.62,0h-7.68v-5.17h7.68Zm10.62,0H1651v-5.17h7.68Zm10.62,0h-7.68v-5.17h7.68Zm10.62,0h-7.68v-5.17h7.68Zm10.62,0h-7.68v-5.17h7.68Zm10.62,0h-7.69v-5.17h7.69Zm10.62,0h-7.69v-5.17h7.69Zm10.61,0h-7.68v-5.17h7.68Zm10.62,0h-7.68v-5.17H1733Zm3,0h-.1v-5.17h.1Zm24.33-136.6H1758v2.1h2.41v8.6H1758v2.1h2.41V272.1H1758v2.09h2.41v8.61H1758v2.09h2.41V328.1H1758v2.1h2.41v17h-3.2v-1.88h-2.93v1.88h-7.68v-1.88h-2.94v1.88H1736v-1.88H1733v1.88h-7.68v-1.88h-2.94v1.88h-7.68v-1.88h-2.93v1.88h-7.69v-1.88h-2.93v1.88h-7.69v-1.88h-2.93v1.88h-7.68v-1.88h-2.94v1.88h-7.68v-1.88h-2.94v1.88h-7.68v-1.88h-2.94v1.88H1651v-1.88h-2.94v1.88h-7.68v-1.88h-2.94v1.88h-7.68v-1.88h-2.93v1.88h-7.69v-1.88h-2.93v1.88h-7.69v-1.88h-2.93v1.88h-5.32a124.16,124.16,0,0,0,16.41-9.69c13.7-9.32,30.12-22.83,47.27-38.21,25.72-23.05,53-50.29,75.13-73.79,7.82-8.33,15-16.18,21.17-23.22,0,.18.08.38.13.57Zm451.79-63.87V154.8h1.64l.36.36.36-.36h4.08v2.46Zm6.44,4.72v7.23h-6.44V162Zm-1.55-9.7,3.23-3.24,3.24,3.24Zm3.65,9.7h4.76v7.23h-4.76Zm0-4.72V154.8h4.76v2.46Zm1.07-9.7,3.69-3.7v7.39Zm3-6-4.49,4.49-4.49-4.49Zm-12,0,6,6-4.72,4.72h-2.68l-4.72-4.72,6-6Zm-9.2,20.4h6.44v7.23h-6.44Zm-1.66-9.7,3.24-3.24,3.24,3.24Zm1.66,5V154.8h6.44v2.46Zm6.07-15.68-4.49,4.49-4.5-4.49Zm-11.95,0,6,6-4.73,4.72h-2.67l-4.73-4.72,6-6Zm-2.67,15.68V154.8h.8l.36.36.36-.36h2.13l.36.36.36-.36h2.08v2.46Zm6.45,4.72v7.23h-6.45V162Zm-15-4.72V154.8H2193v2.46ZM2193,162v7.23h-6.45V162Zm-6.11-9.7,3.24-3.24,3.24,3.24Zm7.74-10.7-4.5,4.49-4.49-4.49Zm-12,0,6,6-4.72,4.72h-2.68l-4.72-4.72,6-6Zm-13.2,15.68V154.8h6.44v2.46Zm6.44,4.72v7.23h-6.44V162Zm-4.1-9.7,3.24-3.24,3.24,3.24Zm6.2,9.7h6.44v7.23H2178Zm0-4.72V154.8h2.8l.35.36.36-.36h2.13l.36.36.37-.36h.07v2.46Zm1.53-15.68-4.49,4.49-4.49-4.49Zm-12,0,6,6-4.73,4.72h-2.67l-4.73-4.72,6-6Zm-15.21,15.68V154.8h1.1l.37.36.36-.36h4.62v2.46Zm6.45,4.72v7.23h-6.45V162Zm-2.11-9.7L2160,149l3.24,3.24Zm4.21,9.7h6.44v7.23h-6.44Zm0-4.72V154.8h4.79l.36.36.36-.36h.93v2.46Zm3.52-15.68-4.49,4.49-4.49-4.49Zm-11.95,0,6,6-4.72,4.72h-2.68l-4.72-4.72,6-6Zm-17.2,15.68V154.8h.25l.36.36.36-.36h2.13l.36.36.36-.36h2.62v2.46Zm6.44,4.72v7.23h-6.44V162Zm-.1-9.7,3.24-3.24,3.24,3.24Zm2.2,9.7h6.44v7.23h-6.44Zm0-4.72V154.8h6.44v2.46Zm5.53-15.68-4.49,4.49-4.5-4.49Zm-12,0,6,6-4.72,4.72H2136l-4.71-4.72,6-6ZM2126.76,162h6.45v7.23h-6.45Zm-.2-9.7,3.24-3.24,3.24,3.24Zm.2,5V154.8h6.45v2.46Zm7.53-15.68-4.49,4.49-4.49-4.49Zm-11.95,0,6,6-4.72,4.72h-2.68l-4.72-4.72,6-6Zm-4.12,15.68V154.8h2.25l.37.36.36-.36h2.12l.36.36.36-.36h.62v2.46Zm6.44,4.72v7.23h-6.44V162Zm-15-4.72V154.8h6.44v2.46Zm6.44,4.72v7.23h-6.44V162Zm-4.64-9.7,3.24-3.24,3.24,3.24Zm7.72-10.7-4.48,4.49-4.49-4.49Zm-11.94,0,6,6-4.72,4.72h-2.67l-4.73-4.72,6-6Zm-14.67,15.68V154.8h.56l.36.36.36-.36H2099v2.46ZM2099,162v7.23h-6.45V162Zm-2.65-9.7,3.24-3.24,3.24,3.24Zm4.75,9.7h6.44v7.23h-6.44Zm0-4.72V154.8h4.25l.36.36.36-.36h1.47v2.46Zm3-15.68-4.49,4.49-4.49-4.49Zm-11.94,0,6,6-4.72,4.72h-2.68l-4.72-4.72,6-6Zm-16.67,15.68v-2.17l.07.07.36-.36h2.13l.36.36.36-.36H2082v2.46ZM2082,162v7.23h-6.44V162Zm-.64-9.7,3.23-3.24,3.24,3.24Zm2.74,9.7h6.44v7.23h-6.44Zm0-4.72V154.8h6.25l.19.19v2.27Zm5-15.68-4.5,4.49-4.49-4.49Zm-11.95,0,6,6-4.72,4.72h-2.67l-4.73-4.72,6-6ZM2067,162h6.45v7.23H2067Zm-.74-9.7,3.24-3.24,3.24,3.24Zm.74,5V154.8h6.45v2.46Zm7-15.68-4.49,4.49-4.49-4.49Zm-11.94,0,6,6-4.73,4.72h-2.67l-4.72-4.72,6-6Zm-3.59,15.68V154.8h1.72l.35.36.36-.36H2063l.36.36.36-.36h1.17v2.46Zm6.45,4.72v7.23h-6.45V162Zm-15-4.72V154.8h6.45v2.46Zm6.45,4.72v7.23h-6.45V162Zm-5.2-9.7,3.25-3.24,3.23,3.24Zm7.74-10.7-4.49,4.49-4.5-4.49Zm-10.33,1.62,4.35,4.36-4.35,4.35Zm-7.2,18.78h6.44v7.23h-6.44Zm-8.55,0h6.45v7.23h-6.45Zm-8.53,0h6.44v7.23h-6.44Zm-8.55,0h6.44v7.23h-6.44Zm-8.54,0h6.45v7.23h-6.45Zm-1.29-9.7,3.24-3.24,3.24,3.24Zm1.29,5V154.8h6.45v2.46Zm3.44-9.7,4.34-4.36v8.71Zm3-6-4.49,4.49-4.49-4.49Zm-11.95,0,6,6-4.73,4.72h-2.67l-4.72-4.72,6-6Zm-3,15.68V154.8h1.17l.36.36.36-.36h2.13l.36.36.36-.36h1.71v2.46Zm6.45,4.72v7.23h-6.45V162Zm-15-4.72V154.8h6.45v2.46Zm6.45,4.72v7.23h-6.45V162Zm-5.73-9.7L1994,149l3.24,3.24Zm7.72-10.7-4.49,4.49-4.49-4.49Zm-11.94,0,6,6-4.72,4.72h-2.67l-4.72-4.72,6-6ZM1973,157.26V155l.19-.19h6.26v2.46Zm6.45,4.72v7.23H1973V162Zm-3.74-9.7L1979,149l3.24,3.24Zm5.83,9.7H1988v7.23h-6.45Zm0-4.72V154.8h3.17l.36.36.36-.36h2.13l.35.36.08-.07v2.17Zm1.9-15.68-4.49,4.49-4.49-4.49Zm-11.94,0,6,6-4.73,4.72h-2.67l-4.72-4.72,6-6Zm-15.58,15.68V154.8h1.46l.37.36.36-.36h4.25v2.46Zm6.44,4.72v7.23h-6.44V162Zm-1.73-9.7,3.24-3.24,3.23,3.24Zm3.83,9.7h6.44v7.23h-6.44Zm0-4.72V154.8h5.16l.36.36.36-.36h.56v2.46Zm3.9-15.68-4.49,4.49-4.5-4.49Zm-11.95,0,6,6-4.73,4.72H1955l-4.72-4.72,6-6Zm-9,20.4h6.45v7.23h-6.45Zm-1.83-9.7,3.24-3.24,3.24,3.24Zm1.83,5V154.8h6.45v2.46Zm5.9-15.68-4.49,4.49-4.49-4.49Zm-12,0,6,6-4.73,4.72h-2.67l-4.72-4.72,6-6Zm-2.49,15.68V154.8h.62l.36.36.36-.36h2.13l.36.36.37-.36h2.24v2.46Zm6.44,4.72v7.23h-6.44V162Zm-15-4.72V154.8h6.44v2.46Zm6.44,4.72v7.23h-6.44V162Zm-6.27-9.7,3.24-3.24,3.23,3.24Zm7.73-10.7-4.49,4.49-4.5-4.49Zm-12,0,6,6-4.72,4.72h-2.68l-4.72-4.72,6-6Zm-13,15.68V154.8h6.45v2.46Zm6.45,4.72v7.23h-6.45V162Zm-4.28-9.7,3.24-3.24,3.24,3.24Zm6.37,9.7h6.45v7.23h-6.45Zm0-4.72V154.8h2.63l.35.36.37-.36h2.12l.36.36.37-.36h.25v2.46Zm1.36-15.68-4.49,4.49-4.49-4.49Zm-11.95,0,6,6-4.73,4.72h-2.67l-4.72-4.72,6-6Zm-15,15.68V154.8h.92l.37.36.36-.36h4.79v2.46Zm6.44,4.72v7.23h-6.44V162Zm-2.28-9.7,3.24-3.24,3.25,3.24Zm4.38,9.7h6.44v7.23h-6.44Zm0-4.72V154.8h4.62l.36.36.36-.36h1.1v2.46Zm3.35-15.68-4.49,4.49-4.49-4.49Zm-12,0,6,6-4.72,4.72h-2.68l-4.72-4.72,6-6Zm-17,15.68V154.8h.08l.36.36.36-.36H1882l.36.36.36-.36h2.8v2.46Zm6.45,4.72v7.23H1879V162Zm-.28-9.7,3.24-3.24,3.24,3.24Zm2.37,9.7H1894v7.23h-6.45Zm0-4.72V154.8H1894v2.46Zm5.36-15.68-4.49,4.49-4.49-4.49Zm-12,0,6,6-4.73,4.72h-2.67l-4.72-4.72,6-6ZM1870.49,162h6.44v7.23h-6.44Zm-.38-9.7,3.24-3.24,3.25,3.24Zm.38,5V154.8h6.44v2.46Zm7.35-15.68-4.49,4.49-4.49-4.49Zm-11.94,0,6,6-4.72,4.72h-2.68l-4.72-4.72,6-6Zm-4,15.68V154.8H1864l.37.36.35-.36h2.14l.36.36.36-.36h.79v2.46Zm6.44,4.72v7.23H1862V162Zm-15-4.72V154.8h6.45v2.46Zm6.45,4.72v7.23h-6.45V162Zm-4.82-9.7,3.24-3.24,3.24,3.24Zm7.73-10.7-4.49,4.49-4.5-4.49Zm-12,0,6,6-4.73,4.72h-2.67l-4.73-4.72,6-6Zm-6,20.4h6.45v7.23h-6.45Zm-4.92-9.7,3.25-3.24,3.23,3.24Zm4.92,5V154.8h4.08l.36.36.36-.36h1.65v2.46Zm2.82-15.68-4.49,4.49-4.5-4.49Zm-9.68,2.28,3.7,3.7-3.7,3.69Zm0,10.94h4.76v2.46H1838Zm0,7.18h4.76v7.23H1838Zm22.24,218.49V363.36l13.33,13.34Q1866.58,378.5,1860.24,380.47Zm18.34-5h0l-12.63-12.63h12.66ZM1863,357.73v-5.17h7.68v5.17Zm18.3,0h-7.68v-5.17h7.68ZM1883,374.4V363l9.37,9.37Q1887.56,373.35,1883,374.4Zm14.47-3-.17,0-8.56-8.56h8.73Zm-13.21-13.62v-5.17h7.68v5.17Zm10.61,0v-5.17h7.69v5.17Zm7,12.79v-7.7h0l8.24,6.25Q1905.93,369.78,1901.87,370.52Zm13-3.13-6-4.57h6Zm-9.36-9.66v-5.17h7.69v5.17Zm13.59,0h-3v-5.17h7.68v5.17h-4.46l-.16-.13Zm.17,9.9V363l5,3.92Zm10.57-1.63-4-3.18h4Zm-3.09-8.27v-5.17h7.68v5.17Zm14.58,7-7.08.85v-2.77h7.08Zm3.72-7h-7.68v-5.17H1945Zm.69,6.53v-1.44h15C1955.64,363.26,1950.62,363.74,1945.71,364.26Zm2.24-6.53v-5.17h7.69v5.17Zm18.31,0h-7.69v-5.17h7.69Zm10.62,0h-7.69v-5.17h7.69Zm10.61,0h-7.68v-5.17h7.68Zm10.62,0h-7.68v-5.17h7.68Zm10.62,0h-7.68v-5.17h7.68Zm10.62,0h-7.68v-5.17h7.68Zm10.62,0h-7.69v-5.17H2030Zm10.62,0h-7.69v-5.17h7.69Zm10.61,0h-7.68v-5.17h7.68Zm10.63,0h-7.69v-5.17h7.69Zm10.61,0h-7.68v-5.17h7.68Zm10.62,0h-7.68v-5.17h7.68Zm10.62,0H2086v-5.17h7.68Zm24.11,6.53c-4.93-.53-9.95-1-15.06-1.44h15.06Zm-21.17-6.53v-5.17h9v5.17Zm12,0v-5.17h7.67v5.17Zm20.69,7.85c-2.33-.29-4.7-.56-7.08-.84v-1.92h7.08Zm-10.08-7.85v-5.17h7.68v5.17Zm14.48,8.27v-3.18h4Zm-3.86-8.27v-5.17h7.68v5.17Zm14.44,9.89-5-.72,5-3.91Zm3.86-9.89h-3.68l-.1-.13-.16.13h-3.74v-5.17h7.68Zm6.58,5.09-6,4.57v-4.57Zm-3.64-5.09v-5.17h7.68v5.17Zm10.57,12.78q-4-.75-8.25-1.44l8.24-6.25h0Zm4.41.83v-8.52h8.73l-8.55,8.55Zm-4.36-13.61v-5.17h7.67v5.17Zm10.61,0v-5.17H2180v5.17Zm8.22,16.65c-3-.69-6.17-1.37-9.36-2l9.36-9.37Zm4.46,1.06h-.05V362.82h12.66Zm-2.06-17.71v-5.17h7.69v5.17Zm10.62,0v-5.17h7.68v5.17Zm9.74,22.73q-6.33-2-13.33-3.77l13.33-13.33Zm24.33-159.33h-2.41v2.1h2.41v8.6h-2.41v2.1h2.41V272.1h-2.41v2.09h2.41v8.61h-2.41v2.09h2.41V328.1h-2.41v2.1h2.41v17h-2.21v-1.88h-2.94v1.88h-7.68v-1.88h-2.94v1.88h-7.68v-1.88h-2.94v1.88h-7.68v-1.88h-2.93v1.88h-7.69v-1.88H2180v1.88h-7.69v-1.88h-2.94v1.88h-7.67v-1.88h-2.94v1.88h-7.68v-1.88h-2.94v1.88h-7.68v-1.88h-2.94v1.88h-7.68v-1.88h-2.94v1.88h-7.68v-1.88h-2.94v1.88h-7.67v-1.88h-2.94v1.88h-9v-1.88h-2.94v1.88H2086v-1.88h-2.94v1.88h-7.68v-1.88h-2.94v1.88h-7.68v-1.88h-2.93v1.88h-7.69v-1.88h-2.94v1.88h-7.68v-1.88h-2.93v1.88h-7.69v-1.88H2030v1.88h-7.69v-1.88h-2.93v1.88h-7.68v-1.88h-2.94v1.88h-7.68v-1.88h-2.94v1.88h-7.68v-1.88h-2.94v1.88h-7.68v-1.88h-2.93v1.88h-7.69v-1.88h-2.93v1.88h-7.69v-1.88h-2.93v1.88H1948v-1.88H1945v1.88h-7.68v-1.88h-2.94v1.88h-7.68v-1.88h-2.94v1.88h-7.68v-1.88h-2.93v1.88h-7.69v-1.88h-2.93v1.88h-7.69v-1.88h-2.93v1.88h-7.68v-1.88h-2.94v1.88h-7.68v-1.88h-2.94v1.88H1863v-1.88h-2.94v1.88h-7.69v-1.88h-2.92v1.88h-7.69v-1.88h-2.94v1.88h-2.92v-17h2.41v-2.1h-2.41V284.89h2.41V282.8h-2.41v-8.61h2.41V272.1h-2.41V233.93h2.41v-2.1h-2.41v-8.6h2.41v-2.1h-2.41V202.87a81.82,81.82,0,0,0,2.06-13.41h0V186.1h1V184h-1v-8.6h1v-1.47h385.5v1.47h1V184h-1v2.09h1v3.36h0a79.73,79.73,0,0,0,2.06,13.41Zm77.61-35h1V184h-1v-4.65c2.59,3.32,5.81,7.21,9.55,11.56,6.4,7.41,14.32,16.17,23.28,25.69-8.61-7.37-16.4-14.27-23-20.42-3.63-3.36-6.91-6.5-9.79-9.36Zm22.33,171.63h-.1v-5.17h.1Zm10.61,0h-7.68v-5.17h7.68Zm10.62,0h-7.68v-5.17h7.68Zm10.62,0h-7.68v-5.17h7.68Zm10.62,0h-7.68v-5.17H2370Zm10.62,0h-7.68v-5.17h7.68Zm10.62,0h-7.68v-5.17h7.68Zm10.62,0h-7.68v-5.17h7.68Zm10.62,0h-7.69v-5.17h7.69Zm10.61,0h-7.67v-5.17h7.67Zm10.63,0H2426v-5.17h7.69Zm10.61,0h-7.68v-5.17h7.68Zm10.62,0h-7.68v-5.17H2455Zm0-10.52h-7.68v-1.88h-2.94v1.88h-7.68v-1.88h-2.93v1.88H2426v-1.88h-2.94v1.88h-7.67v-1.88h-2.94v1.88h-7.69v-1.88h-2.93v1.88h-7.68v-1.88h-2.94v1.88h-7.68v-1.88h-2.94v1.88h-7.68v-1.88H2370v1.88h-7.68v-1.88h-2.94v1.88h-7.68v-1.88h-2.94v1.88h-7.68v-1.88h-2.94v1.88h-7.68v-1.88h-2.93v1.88h-7.69v-1.88h-2.93v1.88h-7.68v-1.88h-2.94v1.88h-3.19v-17h2.41v-2.1h-2.41V284.89h2.41V282.8h-2.41v-8.61h2.41V272.1h-2.41V233.93h2.41v-2.1h-2.41v-8.6h2.41v-2.1h-2.41V202.87l.12-.57c6.2,7,13.35,14.89,21.18,23.22,22.07,23.5,49.4,50.74,75.12,73.79,17.15,15.38,33.57,28.89,47.27,38.21a124.81,124.81,0,0,0,16.41,9.69h-5.31v-1.88H2455Zm10.62,10.52h-7.68v-5.17h7.68Zm10.62,0h-7.68v-5.17h7.68Zm10.62,0h-7.69v-5.17h7.69Zm0-10.52h-7.69v-1.88h-2.93v1.88h-2.13a22.28,22.28,0,0,1-4.08-1c-.48-.15-1-.33-1.47-.52v-.4h-1c-1.56-.63-3.21-1.39-5-2.29a153.65,153.65,0,0,1-19-12c-14.17-10.19-30.92-24.35-48.15-40.1-33.69-30.77-69.24-67.59-91.26-92.8.41-2.21.73-4.44.94-6.69l2.81,2.72c9.3,8.86,21.47,19.61,35.34,31.3,5.4,4.54,11,9.23,16.89,14C2379.37,259,2401,279.78,2421.57,298c17.69,15.67,34.6,29.44,48.64,38.94a129.89,129.89,0,0,0,16.6,9.82Zm10.62,10.52h-7.69v-5.17h7.69Zm10.61,0h-7.68v-5.17H2508Zm0-10.52h-7.68v-1.88h-2.93v1.51a23.27,23.27,0,0,1-3.6-.92,52.94,52.94,0,0,1-7.6-3.27,162.89,162.89,0,0,1-19.47-12.26c-14.54-10.41-31.81-24.85-49.6-40.9-10.67-9.62-21.53-19.82-32.12-30.09,17.27,13.53,35.26,27.08,52.5,39.42,21.36,15.27,41.56,28.69,57.86,37.93a162.5,162.5,0,0,0,21.26,10.46H2511v-1.88H2508Zm10.62,10.52H2511v-5.17h7.68Zm10.62,0h-7.68v-5.17h7.68Zm10.62,0h-7.68v-5.17h7.68Zm10.62,0h-7.68v-5.17h7.68Zm0-10.52h-7.68v-1.88h-2.94v1.88h-7.68v-1.88h-2.94v1.88h-1.41v-.78a22.9,22.9,0,0,1-6.07-1.1,70.91,70.91,0,0,1-8.45-3.22,221.81,221.81,0,0,1-22.51-12c-17.08-10.16-37.81-24.24-59.35-39.9-23.32-17-47.59-35.75-69.25-53.42-15.84-16.05-30.11-31.26-40.91-43.51-6.26-7.11-11.35-13.22-14.89-17.89,2.87,2.79,6.26,5.91,10.11,9.3,10.47,9.24,24.29,20.53,40.09,32.84,31.58,24.61,71,53.27,107.18,77.56,24.1,16.19,46.72,30.43,64.58,40.24a206,206,0,0,0,22.12,10.79Zm5.39,10.52h-2.46v-5.17h2.46Z"/><path class="cls-2" d="M3850,650H0V407.13H3850Z"/><g id="waterCon"><polygon id="water" class="cls-3" points="2746 630.39 1283 633 1457.41 475.71 1457.69 475.46 1461.89 471.68 1462.5 471.13 1468.36 465.84 1468.43 465.78 1480.7 454.71 1490.86 445.55 1533.61 407 2546.57 407.89 2582.12 447.55 2594 460.81 2596.01 463.05 2599.83 467.31 2746 630.39"/><path class="cls-4" d="M1860,462l-31,1q.49,72.5,1,145c-20.71,6.36-32.79,3.17-40-1a33,33,0,0,1-6-4.46c7.25,1.7,17.21,1.69,31-2.54q-.49-72.5-1-145h17V407h29Z"/><g class="cls-5"><rect class="cls-6" x="1724.49" y="463.03" width="95.29" height="140.97"/><path class="cls-7" d="M1792.7,577.49h-5.17v3.36h5.17Zm-30.33,0h-5.16v3.36h5.16Zm-5.79,0h-5.17v3.36h5.17Zm-5.17,4v4.35h5.17v-4.35Zm0,4.89v.4c0,2.72,2.56,4.15,5.17,4.25v-4.65Zm5.8,4.65c2.61-.1,5.16-1.53,5.16-4.25v-.4h-5.16Zm5.16-5.19v-4.35h-5.16v4.35Zm15.22-8.31h-5.16v3.36h5.16Zm-5.79,0h-5.17v3.36h5.17Zm-5.17,4v4.35h5.17v-4.35Zm0,4.89v.4c0,2.72,2.56,4.15,5.17,4.25v-4.65Zm5.8,4.65c2.66-.1,5.16-1.53,5.16-4.25v-.4h-5.16Zm5.16-5.19v-4.35h-5.16v4.35Zm9.32-8.31h-5.17v3.36h5.17Zm-5.17,4v4.35h5.17v-4.35Zm0,4.89v.4c0,2.72,2.5,4.15,5.17,4.25v-4.65Zm5.79,4.65c2.61-.1,5.17-1.53,5.17-4.25v-.4h-5.17Zm5.17-5.19v-4.35h-5.17v4.35Z"/><path class="cls-7" d="M1792.7,531.64h-5.17V535h5.17Zm-30.33,0h-5.16V535h5.16Zm-5.79,0h-5.17V535h5.17Zm-5.17,3.9V540h5.17v-4.41Zm0,5v.4c0,2.72,2.56,4.1,5.17,4.2v-4.6Zm5.8,4.6c2.61-.1,5.16-1.48,5.16-4.2v-.4h-5.16Zm5.16-5.14v-4.41h-5.16V540Zm15.22-8.31h-5.16V535h5.16Zm-5.79,0h-5.17V535h5.17Zm-5.17,3.9V540h5.17v-4.41Zm0,5v.4c0,2.72,2.56,4.1,5.17,4.2v-4.6Zm5.8,4.6c2.66-.1,5.16-1.48,5.16-4.2v-.4h-5.16Zm5.16-5.14v-4.41h-5.16V540Zm9.32-8.31h-5.17V535h5.17Zm-5.17,3.9V540h5.17v-4.41Zm0,5v.4c0,2.72,2.5,4.1,5.17,4.2v-4.6Zm5.79,4.6c2.61-.1,5.17-1.48,5.17-4.2v-.4h-5.17Zm5.17-5.14v-4.41h-5.17V540Z"/><path class="cls-7" d="M1792.7,481.53h-5.17v3.36h5.17Zm-30.33,0h-5.16v3.36h5.16Zm-5.79,0h-5.17v3.36h5.17Zm-5.17,3.91v4.4h5.17v-4.4Zm0,4.94v.4c0,2.72,2.56,4.11,5.17,4.25v-4.65Zm5.8,4.65c2.61-.14,5.16-1.53,5.16-4.25v-.4h-5.16Zm5.16-5.19v-4.4h-5.16v4.4Zm15.22-8.31h-5.16v3.36h5.16Zm-5.79,0h-5.17v3.36h5.17Zm-5.17,3.91v4.4h5.17v-4.4Zm0,4.94v.4c0,2.72,2.56,4.11,5.17,4.25v-4.65Zm5.8,4.65c2.66-.14,5.16-1.53,5.16-4.25v-.4h-5.16Zm5.16-5.19v-4.4h-5.16v4.4Zm9.32-8.31h-5.17v3.36h5.17Zm-5.17,3.91v4.4h5.17v-4.4Zm0,4.94v.4c0,2.72,2.5,4.11,5.17,4.25v-4.65Zm5.79,4.65c2.61-.14,5.17-1.53,5.17-4.25v-.4h-5.17Zm5.17-5.19v-4.4h-5.17v4.4Z"/><rect class="cls-6" x="1713.19" y="409.86" width="117.9" height="53.17"/><path class="cls-7" d="M1831.09,434.25a1090.82,1090.82,0,0,0,372.09,0v26.56H1831.09Z"/><polygon class="cls-7" points="1713.19 447.55 1713.19 460.81 1468.81 465.83 1468.36 465.84 1468.43 465.78 1480.7 454.71 1490.86 445.55 1713.19 447.55"/><path class="cls-7" d="M1724.5,587.38V604h-29.25c-56.39-61.88-143.37-116.85-232.75-132.87l5.86-5.29.07-.06.38.05c78.82,10,167.53,44.78,255.68,121.54Z"/><rect class="cls-6" x="1719.16" y="597.82" width="105.97" height="3.31"/><rect class="cls-6" x="1719.16" y="564.13" width="105.97" height="3.31"/><rect class="cls-6" x="1719.16" y="553.45" width="105.97" height="3.31"/><rect class="cls-6" x="1719.16" y="519.82" width="105.97" height="3.31"/><rect class="cls-6" x="1719.16" y="509.13" width="105.97" height="3.31"/><path class="cls-7" d="M1724.49,509.13h95.3v-3.36h-95.3Zm0,88.69h95.3v-3.37h-95.3Zm0-33.69h95.3v-3.31h-95.3Zm0-10.68h95.3v-3.31h-95.3Zm0-33.63h95.3v-3.37h-95.3Z"/><rect class="cls-8" x="1724.49" y="463.03" width="95.29" height="4.45"/><rect class="cls-6" x="2213.12" y="463.03" width="95.35" height="140.97"/><path class="cls-7" d="M2240.21,577.49h5.16v3.36h-5.16Zm30.32,0h5.17v3.36h-5.17Zm5.8,0h5.16v3.36h-5.16Zm5.16,4v4.35h-5.16v-4.35Zm0,4.89v.4c0,2.72-2.5,4.15-5.16,4.25v-4.65ZM2275.7,591c-2.61-.1-5.17-1.53-5.17-4.25v-.4h5.17Zm-5.17-5.19v-4.35h5.17v4.35Zm-15.22-8.31h5.17v3.36h-5.17Zm5.8,0h5.16v3.36h-5.16Zm5.16,4v4.35h-5.16v-4.35Zm0,4.89v.4c0,2.72-2.55,4.15-5.16,4.25v-4.65Zm-5.79,4.65c-2.67-.1-5.17-1.53-5.17-4.25v-.4h5.17Zm-5.17-5.19v-4.35h5.17v4.35Zm-9.31-8.31h5.17v3.36H2246Zm5.17,4v4.35H2246v-4.35Zm0,4.89v.4c0,2.72-2.5,4.15-5.17,4.25v-4.65Zm-5.8,4.65c-2.61-.1-5.16-1.53-5.16-4.25v-.4h5.16Zm-5.16-5.19v-4.35h5.16v4.35Z"/><path class="cls-7" d="M2240.21,531.64h5.16V535h-5.16Zm30.32,0h5.17V535h-5.17Zm5.8,0h5.16V535h-5.16Zm5.16,3.9V540h-5.16v-4.41Zm0,5v.4c0,2.72-2.5,4.1-5.16,4.2v-4.6Zm-5.79,4.6c-2.61-.1-5.17-1.48-5.17-4.2v-.4h5.17Zm-5.17-5.14v-4.41h5.17V540Zm-15.22-8.31h5.17V535h-5.17Zm5.8,0h5.16V535h-5.16Zm5.16,3.9V540h-5.16v-4.41Zm0,5v.4c0,2.72-2.55,4.1-5.16,4.2v-4.6Zm-5.79,4.6c-2.67-.1-5.17-1.48-5.17-4.2v-.4h5.17Zm-5.17-5.14v-4.41h5.17V540Zm-9.31-8.31h5.17V535H2246Zm5.17,3.9V540H2246v-4.41Zm0,5v.4c0,2.72-2.5,4.1-5.17,4.2v-4.6Zm-5.8,4.6c-2.61-.1-5.16-1.48-5.16-4.2v-.4h5.16Zm-5.16-5.14v-4.41h5.16V540Z"/><path class="cls-7" d="M2240.21,481.53h5.16v3.36h-5.16Zm30.32,0h5.17v3.36h-5.17Zm5.8,0h5.16v3.36h-5.16Zm5.16,3.91v4.4h-5.16v-4.4Zm0,4.94v.4c0,2.72-2.5,4.11-5.16,4.25v-4.65ZM2275.7,495c-2.61-.14-5.17-1.53-5.17-4.25v-.4h5.17Zm-5.17-5.19v-4.4h5.17v4.4Zm-15.22-8.31h5.17v3.36h-5.17Zm5.8,0h5.16v3.36h-5.16Zm5.16,3.91v4.4h-5.16v-4.4Zm0,4.94v.4c0,2.72-2.55,4.11-5.16,4.25v-4.65Zm-5.79,4.65c-2.67-.14-5.17-1.53-5.17-4.25v-.4h5.17Zm-5.17-5.19v-4.4h5.17v4.4Zm-9.31-8.31h5.17v3.36H2246Zm5.17,3.91v4.4H2246v-4.4Zm0,4.94v.4c0,2.72-2.5,4.11-5.17,4.25v-4.65Zm-5.8,4.65c-2.61-.14-5.16-1.53-5.16-4.25v-.4h5.16Zm-5.16-5.19v-4.4h5.16v4.4Z"/><rect class="cls-6" x="2201.82" y="409.86" width="117.9" height="53.17"/><polygon class="cls-7" points="2594 460.81 2319.71 460.81 2319.71 447.55 2582.12 447.55 2594 460.81"/><path class="cls-7" d="M2599.83,467.31c-99.37,7.88-199.61,68-262.17,136.69h-29.19V587.38C2408.73,500.06,2509.71,467.1,2596,463.05Z"/><rect class="cls-6" x="2207.78" y="597.82" width="105.97" height="3.31"/><rect class="cls-6" x="2207.78" y="564.13" width="105.97" height="3.31"/><rect class="cls-6" x="2207.78" y="553.45" width="105.97" height="3.31"/><rect class="cls-6" x="2207.78" y="519.82" width="105.97" height="3.31"/><rect class="cls-6" x="2207.78" y="509.13" width="105.97" height="3.31"/><path class="cls-7" d="M2308.47,509.13h-95.35v-3.36h95.35Zm0,88.69h-95.35v-3.37h95.35Zm0-33.69h-95.35v-3.31h95.35Zm0-10.68h-95.35v-3.31h95.35Zm0-33.63h-95.35v-3.37h95.35Z"/><rect class="cls-8" x="2213.12" y="463.03" width="95.35" height="4.45"/></g></g><rect class="cls-6" x="2766.5" y="351.87" width="54.42" height="62.14"/><rect class="cls-6" x="1723.97" y="142.62" width="95.32" height="212.41"/><polygon class="cls-7" points="1723.97 138.91 1819.29 138.91 1771.63 31.46 1723.97 138.91"/><rect class="cls-6" x="1718.63" y="138.91" width="106" height="3.71"/><rect class="cls-6" x="1721.3" y="81.14" width="20.28" height="57.77"/><rect class="cls-6" x="1801.68" y="81.14" width="20.28" height="57.77"/><path class="cls-9" d="M1786.91,138.91h-30.56V110c0-17.67,30.56-17.67,30.56,0Z"/><polygon class="cls-9" points="1771.63 70.84 1781.8 99.7 1761.46 99.7 1771.63 70.84"/><polygon class="cls-7" points="1811.79 52.23 1821.96 81.14 1801.68 81.14 1811.79 52.23"/><polygon class="cls-7" points="1731.41 52.23 1741.58 81.14 1721.3 81.14 1731.41 52.23"/><polygon class="cls-7" points="1765.38 45.58 1777.88 45.58 1771.63 0 1765.38 45.58"/><path class="cls-7" d="M1782.59,184.16h-10.34v-7.53h10.34Zm-11.59,0h-10.34v-7.53H1771Zm-10.34-8.75v-9.86H1771v9.86Zm0-11.08v-.88c0-6.1,5.06-9.25,10.34-9.47v10.35ZM1772.25,154c5.28.22,10.34,3.37,10.34,9.47v.88h-10.34Zm10.34,11.57v9.86h-10.34v-9.86Z"/><path class="cls-7" d="M1792.19,226.86H1787V223.1h5.17Zm-30.33,0h-5.17V223.1h5.17Zm-5.8,0h-5.17V223.1h5.17Zm-5.17-4.37v-4.93h5.17v4.93Zm0-5.54v-.44c0-3,2.56-4.66,5.17-4.77V217Zm5.8-5.21c2.61.11,5.17,1.72,5.17,4.77V217h-5.17Zm5.17,5.82v4.93h-5.17v-4.93Zm15.22,9.3h-5.17V223.1h5.17Zm-5.79,0h-5.17V223.1h5.17Zm-5.17-4.37v-4.93h5.17v4.93Zm0-5.54v-.44c0-3,2.55-4.66,5.17-4.77V217Zm5.79-5.21c2.67.11,5.17,1.72,5.17,4.77V217h-5.17Zm5.17,5.82v4.93h-5.17v-4.93Zm9.32,9.3h-5.17V223.1h5.17Zm-5.17-4.37v-4.93h5.17v4.93Zm0-5.54v-.44c0-3,2.5-4.66,5.17-4.77V217Zm5.79-5.21c2.61.11,5.17,1.72,5.17,4.77V217H1787Zm5.17,5.82v4.93H1787v-4.93Z"/><path class="cls-7" d="M1792.19,278.26H1787v-3.82h5.17Zm-30.33,0h-5.17v-3.82h5.17Zm-5.8,0h-5.17v-3.82h5.17Zm-5.17-4.43V269h5.17v4.87Zm0-5.54v-.44c0-3.05,2.56-4.6,5.17-4.71v5.15Zm5.8-5.15c2.61.11,5.17,1.66,5.17,4.71v.44h-5.17Zm5.17,5.82v4.87h-5.17V269Zm15.22,9.3h-5.17v-3.82h5.17Zm-5.79,0h-5.17v-3.82h5.17Zm-5.17-4.43V269h5.17v4.87Zm0-5.54v-.44c0-3.05,2.55-4.6,5.17-4.71v5.15Zm5.79-5.15c2.67.11,5.17,1.66,5.17,4.71v.44h-5.17Zm5.17,5.82v4.87h-5.17V269Zm9.32,9.3h-5.17v-3.82h5.17Zm-5.17-4.43V269h5.17v4.87Zm0-5.54v-.44c0-3.05,2.5-4.6,5.17-4.71v5.15Zm5.79-5.15c2.61.11,5.17,1.66,5.17,4.71v.44H1787Zm5.17,5.82v4.87H1787V269Z"/><path class="cls-7" d="M1792.19,334.31H1787v-3.76h5.17Zm-30.33,0h-5.17v-3.76h5.17Zm-5.8,0h-5.17v-3.76h5.17Zm-5.17-4.37V325h5.17v4.93Zm0-5.54V324c0-3,2.56-4.6,5.17-4.71v5.15Zm5.8-5.15c2.61.11,5.17,1.66,5.17,4.71v.44h-5.17Zm5.17,5.76v4.93h-5.17V325Zm15.22,9.3h-5.17v-3.76h5.17Zm-5.79,0h-5.17v-3.76h5.17Zm-5.17-4.37V325h5.17v4.93Zm0-5.54V324c0-3,2.55-4.6,5.17-4.71v5.15Zm5.79-5.15c2.67.11,5.17,1.66,5.17,4.71v.44h-5.17Zm5.17,5.76v4.93h-5.17V325Zm9.32,9.3h-5.17v-3.76h5.17Zm-5.17-4.37V325h5.17v4.93Zm0-5.54V324c0-3,2.5-4.6,5.17-4.71v5.15Zm5.79-5.15c2.61.11,5.17,1.66,5.17,4.71v.44H1787Zm5.17,5.76v4.93H1787V325Z"/><rect class="cls-6" x="1712.66" y="355.03" width="117.93" height="59.6"/><rect class="cls-6" x="1819.29" y="156.86" width="393.43" height="29.8"/><rect class="cls-6" x="1992.88" y="145.17" width="6.19" height="41.48"/><rect class="cls-6" x="2032.93" y="145.17" width="6.19" height="41.48"/><rect class="cls-6" x="1999.07" y="149.43" width="33.86" height="37.22"/><polygon class="cls-7" points="2016 130.82 2011.17 149.43 2020.83 149.43 2016 130.82"/><path class="cls-7" d="M2021.45,173.47h-5.11v-3.82h5.11Zm-5.79,0h-5.11v-3.82h5.11Zm-5.11-4.43v-4.87h5.11V169Zm0-5.54v-.39c0-3,2.5-4.65,5.11-4.76v5.15Zm5.79-5.15c2.61.11,5.11,1.72,5.11,4.76v.39h-5.11Zm5.11,5.82V169h-5.11v-4.87Z"/><path class="cls-7" d="M1830.59,387.26a976.12,976.12,0,0,1,372.18,0V357.52H1830.59Z"/><rect class="cls-8" x="1265.5" y="357.52" width="447.17" height="14.9"/><path class="cls-7" d="M1262.49,292.05c150,140.74,375.82,4,461.48-135.86v59.6c-182.23,177.68-366.9,154.36-461.48,101.08Z"/><rect class="cls-6" x="1718.63" y="188.43" width="106" height="3.77"/><rect class="cls-6" x="1718.63" y="200.39" width="106" height="3.77"/><rect class="cls-6" x="1718.63" y="238.11" width="106" height="3.71"/><rect class="cls-6" x="1718.63" y="250.07" width="106" height="3.71"/><rect class="cls-6" x="1718.63" y="287.73" width="106" height="3.71"/><rect class="cls-6" x="1718.63" y="299.7" width="106" height="3.71"/><rect class="cls-6" x="1211.08" y="351.87" width="54.42" height="56.61"/><rect class="cls-6" x="1214.09" y="281.92" width="48.4" height="69.95"/><polygon class="cls-9" points="1210 281.92 1210 274.44 1217.72 274.44 1217.72 278.15 1222.21 278.15 1222.21 274.44 1229.94 274.44 1229.94 278.15 1234.43 278.15 1234.43 274.44 1242.15 274.44 1242.15 278.15 1246.64 278.15 1246.64 274.44 1254.36 274.44 1254.36 278.15 1258.85 278.15 1258.85 274.44 1266.58 274.44 1266.58 281.92 1210 281.92"/><rect class="cls-8" x="1214.09" y="281.92" width="48.4" height="6.87"/><rect class="cls-8" x="1211.08" y="356.58" width="54.42" height="4.15"/><rect class="cls-8" x="1214.09" y="345" width="48.4" height="6.87"/><path class="cls-7" d="M1724,303.41h95.32v3.76H1724Zm0-160.79h95.32v3.71H1724Zm0,49.57h95.32v3.71H1724Zm0,12h95.32v3.71H1724Zm0,37.66h95.32v3.71H1724Zm0,12h95.32v3.71H1724Zm0,37.66h95.32v3.77H1724Z"/><rect class="cls-8" x="1723.97" y="350.04" width="95.32" height="4.98"/><rect class="cls-8" x="1999.07" y="149.43" width="3.98" height="37.22"/><rect class="cls-8" x="2028.95" y="149.43" width="3.98" height="37.22"/><rect class="cls-8" x="1819.29" y="156.86" width="12.5" height="29.8"/><rect class="cls-8" x="1986.63" y="156.86" width="6.25" height="29.8"/><path class="cls-7" d="M1837.24,168.87l7.55,7.37-7.55,7.42-7.62-7.42Zm140-9,7.56,7.37-7.56,7.42-7.61-7.42Zm-9.43,9,7.61,7.37-7.61,7.42-7.61-7.42Zm-9.26-9,7.62,7.37-7.62,7.42-7.55-7.42Zm-9.37,9,7.56,7.37-7.56,7.42-7.61-7.42Zm-9.26-9,7.61,7.37-7.61,7.42-7.61-7.42Zm-9.43,9,7.61,7.37-7.61,7.42-7.55-7.42Zm-9.2-9,7.55,7.37-7.55,7.42-7.61-7.42Zm-9.43,9,7.61,7.37-7.61,7.42-7.61-7.42Zm-9.26-9,7.61,7.37-7.61,7.42-7.55-7.42Zm-9.37,9,7.55,7.37-7.55,7.42-7.61-7.42Zm-9.26-9,7.61,7.37-7.61,7.42-7.61-7.42Zm-9.43,9,7.61,7.37-7.61,7.42-7.56-7.42Zm-9.2-9,7.55,7.37-7.55,7.42-7.61-7.42Zm-9.43,9,7.61,7.37-7.61,7.42-7.61-7.42Zm-9.26-9,7.61,7.37-7.61,7.42-7.56-7.42Z"/><path class="cls-7" d="M2050.14,168.87l7.61,7.37-7.61,7.42-7.61-7.42Zm140-9,7.61,7.37-7.61,7.42-7.62-7.42Zm-9.43,9,7.61,7.37-7.61,7.42-7.56-7.42Zm-9.21-9,7.56,7.37-7.56,7.42-7.61-7.42Zm-9.43,9,7.62,7.37-7.62,7.42-7.61-7.42Zm-9.25-9,7.61,7.37-7.61,7.42-7.56-7.42Zm-9.38,9,7.56,7.37-7.56,7.42-7.61-7.42Zm-9.26-9,7.62,7.37-7.62,7.42-7.61-7.42Zm-9.43,9,7.62,7.37-7.62,7.42-7.55-7.42Zm-9.2-9,7.56,7.37-7.56,7.42-7.61-7.42Zm-9.43,9,7.61,7.37-7.61,7.42-7.61-7.42Zm-9.26-9,7.61,7.37-7.61,7.42-7.55-7.42Zm-9.37,9,7.56,7.37-7.56,7.42-7.61-7.42Zm-9.26-9,7.61,7.37-7.61,7.42-7.61-7.42Zm-9.43,9,7.61,7.37-7.61,7.42-7.55-7.42Zm-9.2-9,7.55,7.37-7.55,7.42-7.61-7.42Z"/><rect class="cls-8" x="2200.22" y="156.86" width="12.5" height="29.8"/><rect class="cls-8" x="2039.12" y="156.86" width="6.25" height="29.8"/><rect class="cls-6" x="2212.71" y="142.62" width="95.37" height="212.41"/><polygon class="cls-7" points="2308.09 138.91 2212.71 138.91 2260.37 31.46 2308.09 138.91"/><rect class="cls-6" x="2207.37" y="138.91" width="106" height="3.71"/><rect class="cls-6" x="2290.42" y="81.14" width="20.28" height="57.77"/><rect class="cls-6" x="2210.04" y="81.14" width="20.28" height="57.77"/><path class="cls-9" d="M2245.09,138.91h30.56V110c0-17.67-30.56-17.67-30.56,0Z"/><polygon class="cls-9" points="2260.37 70.84 2250.2 99.7 2270.54 99.7 2260.37 70.84"/><polygon class="cls-7" points="2220.21 52.23 2210.04 81.14 2230.32 81.14 2220.21 52.23"/><polygon class="cls-7" points="2300.59 52.23 2290.42 81.14 2310.7 81.14 2300.59 52.23"/><polygon class="cls-7" points="2266.62 45.58 2254.13 45.58 2260.37 0 2266.62 45.58"/><path class="cls-7" d="M2249.41,184.16h10.34v-7.53h-10.34Zm11.59,0h10.34v-7.53H2261Zm10.34-8.75v-9.86H2261v9.86Zm0-11.08v-.88c0-6.1-5.06-9.25-10.34-9.47v10.35ZM2259.75,154c-5.28.22-10.34,3.37-10.34,9.47v.88h10.34Zm-10.34,11.57v9.86h10.34v-9.86Z"/><path class="cls-7" d="M2239.81,226.86H2245V223.1h-5.17Zm30.33,0h5.17V223.1h-5.17Zm5.8,0h5.17V223.1h-5.17Zm5.17-4.37v-4.93h-5.17v4.93Zm0-5.54v-.44c0-3-2.5-4.66-5.17-4.77V217Zm-5.8-5.21c-2.61.11-5.17,1.72-5.17,4.77V217h5.17Zm-5.17,5.82v4.93h5.17v-4.93Zm-15.22,9.3h5.17V223.1h-5.17Zm5.79,0h5.17V223.1h-5.17Zm5.17-4.37v-4.93h-5.17v4.93Zm0-5.54v-.44c0-3-2.55-4.66-5.17-4.77V217Zm-5.79-5.21c-2.67.11-5.17,1.72-5.17,4.77V217h5.17Zm-5.17,5.82v4.93h5.17v-4.93Zm-9.32,9.3h5.17V223.1h-5.17Zm5.17-4.37v-4.93h-5.17v4.93Zm0-5.54v-.44c0-3-2.5-4.66-5.17-4.77V217Zm-5.79-5.21c-2.61.11-5.17,1.72-5.17,4.77V217H2245Zm-5.17,5.82v4.93H2245v-4.93Z"/><path class="cls-7" d="M2239.81,278.26H2245v-3.82h-5.17Zm30.33,0h5.17v-3.82h-5.17Zm5.8,0h5.17v-3.82h-5.17Zm5.17-4.43V269h-5.17v4.87Zm0-5.54v-.44c0-3.05-2.5-4.6-5.17-4.71v5.15Zm-5.8-5.15c-2.61.11-5.17,1.66-5.17,4.71v.44h5.17Zm-5.17,5.82v4.87h5.17V269Zm-15.22,9.3h5.17v-3.82h-5.17Zm5.79,0h5.17v-3.82h-5.17Zm5.17-4.43V269h-5.17v4.87Zm0-5.54v-.44c0-3.05-2.55-4.6-5.17-4.71v5.15Zm-5.79-5.15c-2.67.11-5.17,1.66-5.17,4.71v.44h5.17Zm-5.17,5.82v4.87h5.17V269Zm-9.32,9.3h5.17v-3.82h-5.17Zm5.17-4.43V269h-5.17v4.87Zm0-5.54v-.44c0-3.05-2.5-4.6-5.17-4.71v5.15Zm-5.79-5.15c-2.61.11-5.17,1.66-5.17,4.71v.44H2245Zm-5.17,5.82v4.87H2245V269Z"/><path class="cls-7" d="M2239.81,334.31H2245v-3.76h-5.17Zm30.33,0h5.17v-3.76h-5.17Zm5.8,0h5.17v-3.76h-5.17Zm5.17-4.37V325h-5.17v4.93Zm0-5.54V324c0-3-2.5-4.6-5.17-4.71v5.15Zm-5.8-5.15c-2.61.11-5.17,1.66-5.17,4.71v.44h5.17Zm-5.17,5.76v4.93h5.17V325Zm-15.22,9.3h5.17v-3.76h-5.17Zm5.79,0h5.17v-3.76h-5.17Zm5.17-4.37V325h-5.17v4.93Zm0-5.54V324c0-3-2.55-4.6-5.17-4.71v5.15Zm-5.79-5.15c-2.67.11-5.17,1.66-5.17,4.71v.44h5.17Zm-5.17,5.76v4.93h5.17V325Zm-9.32,9.3h5.17v-3.76h-5.17Zm5.17-4.37V325h-5.17v4.93Zm0-5.54V324c0-3-2.5-4.6-5.17-4.71v5.15Zm-5.79-5.15c-2.61.11-5.17,1.66-5.17,4.71v.44H2245Zm-5.17,5.76v4.93H2245V325Z"/><rect class="cls-6" x="2201.41" y="355.03" width="117.93" height="59.6"/><rect class="cls-8" x="2319.34" y="357.52" width="447.17" height="14.9"/><path class="cls-7" d="M2769.51,292.05c-150,140.74-375.82,4-461.42-135.86v59.6c182.23,177.68,366.84,154.36,461.42,101.08Z"/><rect class="cls-6" x="2769.51" y="281.92" width="48.4" height="69.95"/><polygon class="cls-9" points="2822 281.92 2822 274.44 2814.28 274.44 2814.28 278.15 2809.79 278.15 2809.79 274.44 2802.06 274.44 2802.06 278.15 2797.57 278.15 2797.57 274.44 2789.85 274.44 2789.85 278.15 2785.36 278.15 2785.36 274.44 2777.64 274.44 2777.64 278.15 2773.15 278.15 2773.15 274.44 2765.42 274.44 2765.42 281.92 2822 281.92"/><rect class="cls-6" x="2207.37" y="188.43" width="106" height="3.77"/><rect class="cls-6" x="2207.37" y="200.39" width="106" height="3.77"/><rect class="cls-6" x="2207.37" y="238.11" width="106" height="3.71"/><rect class="cls-6" x="2207.37" y="250.07" width="106" height="3.71"/><rect class="cls-6" x="2207.37" y="287.73" width="106" height="3.71"/><rect class="cls-6" x="2207.37" y="299.7" width="106" height="3.71"/><rect class="cls-8" x="2769.51" y="281.92" width="48.4" height="6.87"/><rect class="cls-8" x="2766.5" y="356.58" width="54.42" height="4.15"/><rect class="cls-8" x="2769.51" y="345" width="48.4" height="6.87"/><path class="cls-7" d="M2308.09,303.41h-95.38v3.76h95.38Zm0-160.79h-95.38v3.71h95.38Zm0,49.57h-95.38v3.71h95.38Zm0,12h-95.38v3.71h95.38Zm0,37.66h-95.38v3.71h95.38Zm0,12h-95.38v3.71h95.38Zm0,37.66h-95.38v3.77h95.38Z"/><rect class="cls-8" x="2212.71" y="350.04" width="95.37" height="4.98"/><path class="cls-10" d="M1004.05,205c-117,0-212,91.06-212,203.42H1216c0-112.36-94.87-203.42-212-203.42Z"/><path class="cls-11" d="M1119.25,408.42c14.5-88.32-36-203.42-115.2-203.42-117,0-212,91.06-212,203.42Z"/><path class="cls-12" d="M914.91,223.84c-.87.38-1.79.8-2.71,1.18v7.38h8.31v-8.56Zm-3.62,1.65c-2.8,1.28-5.56,2.65-8.31,4.07v2.84h8.31ZM902.06,230c-1.42.8-2.85,1.56-4.27,2.36h4.27Zm-32.45,21.1c-1.19,1-2.34,1.9-3.53,2.84v5.73h8.3v-8.57Zm-4.45,3.6c-1.93,1.61-3.86,3.27-5.74,5h5.74ZM841,278.45c-.87,1-1.74,2-2.57,3.08V287h8.31v-8.57Zm-3.49,4.17c-1.19,1.46-2.38,2.93-3.53,4.4h3.53ZM821,305.76c-.37.62-.74,1.18-1.06,1.8v6.81h8.31v-8.61Zm-2,3.36c-1,1.75-2,3.46-2.94,5.25H819Zm-11.93,24c-1.19,2.79-2.3,5.68-3.35,8.56h6.06v-8.56Zm397.24,8.56c-1-2.88-2.16-5.77-3.35-8.56h-2.71v8.56ZM1192,314.37c-1-1.79-2-3.5-3-5.25v5.25Zm-3.9-6.81c-.32-.62-.69-1.18-1.06-1.8h-7.25v8.61h8.31Zm-14-20.54c-1.15-1.47-2.34-2.94-3.53-4.4V287Zm-4.45-5.49c-.83-1-1.7-2-2.57-3.08h-5.74V287h8.31Zm-21-21.82c-1.88-1.7-3.81-3.36-5.74-5v5ZM1142,254c-1.19-.94-2.34-1.89-3.53-2.84h-4.77v8.57h8.3ZM1110.3,232.4c-1.42-.8-2.85-1.56-4.27-2.36v2.36Zm-5.19-2.84c-2.75-1.42-5.51-2.79-8.31-4.07v6.91h8.31Zm-9.22-4.54c-.92-.38-1.84-.8-2.71-1.18h-5.6v8.56h8.31ZM819,333.12h-8.31v8.56H819Zm9.23,0H820v8.56h8.31Zm9.22,0h-8.3v8.56h8.3Zm9.23,0H838.4v8.56h8.31Zm9.22,0h-8.3v8.56h8.3Zm9.23,0h-8.31v8.56h8.31Zm9.22,0h-8.3v8.56h8.3Zm9.23,0H875.3v8.56h8.31Zm9.23,0h-8.31v8.56h8.31Zm9.22,0h-8.31v8.56h8.31Zm9.23,0H903v8.56h8.31Zm9.22,0H912.2v8.56h8.31Zm9.23,0h-8.31v8.56h8.31Zm9.27,0H930.7v8.56H939Zm9.22,0h-8.3v8.56h8.3Zm9.23,0h-8.31v8.56h8.31Zm9.22,0h-8.3v8.56h8.3Zm9.23,0H967.6v8.56h8.31Zm9.23,0h-8.31v8.56h8.31Zm9.22,0h-8.31v8.56h8.31Zm9.23,0h-8.31v8.56h8.31Zm9.22,0h-8.31v8.56h8.31Zm9.23,0h-8.31v8.56H1022Zm9.22,0H1023v8.56h8.31Zm9.23,0h-8.31v8.56h8.31Zm9.22,0h-8.3v8.56h8.3Zm9.23,0h-8.31v8.56h8.31Zm9.22,0h-8.3v8.56h8.3Zm9.28,0h-8.31v8.56h8.31Zm9.22,0h-8.31v8.56h8.31Zm9.23,0h-8.31v8.56h8.31Zm9.22,0h-8.31v8.56h8.31Zm9.23,0H1106v8.56h8.31Zm9.22,0h-8.31v8.56h8.31Zm9.23,0h-8.31v8.56h8.31Zm9.22,0h-8.3v8.56h8.3Zm9.23,0h-8.31v8.56h8.31Zm9.22,0h-8.3v8.56h8.3Zm9.23,0h-8.31v8.56h8.31Zm9.22,0h-8.3v8.56h8.3Zm9.23,0h-8.31v8.56h8.31Zm9.23,0h-8.31v8.56h8.31ZM837.48,305.76h-8.3v8.61h8.3Zm9.23,0H838.4v8.61h8.31Zm9.22,0h-8.3v8.61h8.3Zm9.23,0h-8.31v8.61h8.31Zm9.22,0h-8.3v8.61h8.3Zm9.23,0H875.3v8.61h8.31Zm9.23,0h-8.31v8.61h8.31Zm9.22,0h-8.31v8.61h8.31Zm9.23,0H903v8.61h8.31Zm9.22,0H912.2v8.61h8.31Zm9.23,0h-8.31v8.61h8.31Zm9.27,0H930.7v8.61H939Zm9.22,0h-8.3v8.61h8.3Zm9.23,0h-8.31v8.61h8.31Zm9.22,0h-8.3v8.61h8.3Zm9.23,0H967.6v8.61h8.31Zm9.23,0h-8.31v8.61h8.31Zm9.22,0h-8.31v8.61h8.31Zm9.23,0h-8.31v8.61h8.31Zm9.22,0h-8.31v8.61h8.31Zm9.23,0h-8.31v8.61H1022Zm9.22,0H1023v8.61h8.31Zm9.23,0h-8.31v8.61h8.31Zm9.22,0h-8.3v8.61h8.3Zm9.23,0h-8.31v8.61h8.31Zm9.22,0h-8.3v8.61h8.3Zm9.28,0h-8.31v8.61h8.31Zm9.22,0h-8.31v8.61h8.31Zm9.23,0h-8.31v8.61h8.31Zm9.22,0h-8.31v8.61h8.31Zm9.23,0H1106v8.61h8.31Zm9.22,0h-8.31v8.61h8.31Zm9.23,0h-8.31v8.61h8.31Zm9.22,0h-8.3v8.61h8.3Zm9.23,0h-8.31v8.61h8.31Zm9.22,0h-8.3v8.61h8.3Zm9.23,0h-8.31v8.61h8.31Zm9.22,0h-8.3v8.61h8.3Zm-323-27.31h-8.3V287h8.3Zm9.23,0h-8.31V287h8.31Zm9.22,0h-8.3V287h8.3Zm9.23,0H875.3V287h8.31Zm9.23,0h-8.31V287h8.31Zm9.22,0h-8.31V287h8.31Zm9.23,0H903V287h8.31Zm9.22,0H912.2V287h8.31Zm9.23,0h-8.31V287h8.31Zm9.27,0H930.7V287H939Zm9.22,0h-8.3V287h8.3Zm9.23,0h-8.31V287h8.31Zm9.22,0h-8.3V287h8.3Zm9.23,0H967.6V287h8.31Zm9.23,0h-8.31V287h8.31Zm9.22,0h-8.31V287h8.31Zm9.23,0h-8.31V287h8.31Zm9.22,0h-8.31V287h8.31Zm9.23,0h-8.31V287H1022Zm9.22,0H1023V287h8.31Zm9.23,0h-8.31V287h8.31Zm9.22,0h-8.3V287h8.3Zm9.23,0h-8.31V287h8.31Zm9.22,0h-8.3V287h8.3Zm9.28,0h-8.31V287h8.31Zm9.22,0h-8.31V287h8.31Zm9.23,0h-8.31V287h8.31Zm9.22,0h-8.31V287h8.31Zm9.23,0H1106V287h8.31Zm9.22,0h-8.31V287h8.31Zm9.23,0h-8.31V287h8.31Zm9.22,0h-8.3V287h8.3Zm9.23,0h-8.31V287h8.31Zm9.22,0h-8.3V287h8.3ZM883.61,251.14H875.3v8.57h8.31Zm9.23,0h-8.31v8.57h8.31Zm9.22,0h-8.31v8.57h8.31Zm9.23,0H903v8.57h8.31Zm9.22,0H912.2v8.57h8.31Zm9.23,0h-8.31v8.57h8.31Zm9.27,0H930.7v8.57H939Zm9.22,0h-8.3v8.57h8.3Zm9.23,0h-8.31v8.57h8.31Zm9.22,0h-8.3v8.57h8.3Zm9.23,0H967.6v8.57h8.31Zm9.23,0h-8.31v8.57h8.31Zm9.22,0h-8.31v8.57h8.31Zm9.23,0h-8.31v8.57h8.31Zm9.22,0h-8.31v8.57h8.31Zm9.23,0h-8.31v8.57H1022Zm9.22,0H1023v8.57h8.31Zm9.23,0h-8.31v8.57h8.31Zm9.22,0h-8.3v8.57h8.3Zm9.23,0h-8.31v8.57h8.31Zm9.22,0h-8.3v8.57h8.3Zm9.28,0h-8.31v8.57h8.31Zm9.22,0h-8.31v8.57h8.31Zm9.23,0h-8.31v8.57h8.31Zm9.22,0h-8.31v8.57h8.31Zm9.23,0H1106v8.57h8.31Zm9.22,0h-8.31v8.57h8.31Zm9.23,0h-8.31v8.57h8.31Zm-203-27.3h-8.31v8.56h8.31Zm9.27,0H930.7v8.56H939Zm9.22,0h-8.3v8.56h8.3Zm9.23,0h-8.31v8.56h8.31Zm9.22,0h-8.3v8.56h8.3Zm9.23,0H967.6v8.56h8.31Zm9.23,0h-8.31v8.56h8.31Zm9.22,0h-8.31v8.56h8.31Zm9.23,0h-8.31v8.56h8.31Zm9.22,0h-8.31v8.56h8.31Zm9.23,0h-8.31v8.56H1022Zm9.22,0H1023v8.56h8.31Zm9.23,0h-8.31v8.56h8.31Zm9.22,0h-8.3v8.56h8.3Zm9.23,0h-8.31v8.56h8.31Zm9.22,0h-8.3v8.56h8.3Zm9.28,0h-8.31v8.56h8.31Zm9.22,0h-8.31v8.56h8.31Z"/><rect class="cls-8" x="267.92" y="204.29" width="468.74" height="12.85"/><rect class="cls-8" x="229.7" y="225.81" width="506.95" height="190.55"/><path class="cls-12" d="M229.7,225.81h507v4H229.7Zm507,21.85v8.67H229.7v-8.67Zm0,26.56v8.68H229.7v-8.68Zm0,26.57v8.67H229.7v-8.67Zm0,26.56V336H229.7v-8.67Zm0,26.56v8.68H229.7v-8.68Zm0,26.57v8.67H229.7v-8.67Z"/><rect class="cls-13" x="294.02" y="204.29" width="7.78" height="212.08"/><path class="cls-9" d="M215,403.08H736.65v8.68H215Zm0-185.94H736.65v8.67H215Zm0,26.56H736.65v8.67H215Zm0,26.56H736.65v8.68H215Zm0,26.57H736.65v8.67H215Zm0,26.56H736.65v8.68H215ZM215,350H736.65v8.67H215Zm0,26.56H736.65v8.67H215Z"/><path class="cls-14" d="M294,403.08h7.79v8.68H294Zm7.79-185.94v8.67H294v-8.67Zm0,26.56v8.67H294V243.7Zm0,26.56v8.68H294v-8.68Zm0,26.57v8.67H294v-8.67Zm0,26.56v8.68H294v-8.68Zm0,26.57v8.67H294V350Zm0,26.56v8.67H294v-8.67Z"/><path class="cls-9" d="M301.81,198h61.35V416.36H301.81Zm414.47,0h81.56V416.36H716.28Z"/><rect class="cls-13" x="708.49" y="204.29" width="7.78" height="212.08"/><path class="cls-14" d="M708.49,403.08h7.79v8.68h-7.79Zm7.79-185.94v8.67h-7.79v-8.67Zm0,26.56v8.67h-7.79V243.7Zm0,26.56v8.68h-7.79v-8.68Zm0,26.57v8.67h-7.79v-8.67Zm0,26.56v8.68h-7.79v-8.68Zm0,26.57v8.67h-7.79V350Zm0,26.56v8.67h-7.79v-8.67Z"/><path class="cls-11" d="M236.73,385.19l27.46-8.67H215v8.67Zm84.43-26.56L348.62,350H215v8.67Zm84.43-26.56L433,323.39H215v8.68ZM490,305.5l27.45-8.67H215v8.67Zm84.42-26.56,27.46-8.68H215v8.68Zm84.43-26.57,27.46-8.67H215v8.67ZM215,217.14H736.65v8.67H215Z"/><path class="cls-11" d="M301.81,198h61.35V345.4l-61.35,19.3Zm414.47,36.32,81.56-25.69V198H716.28Z"/><path class="cls-15" d="M2747,598q-1,15-2,30L2548,409l3-13S2631.05,453.66,2747,598Z"/><path class="cls-16" d="M1277,604q1.26,15,2.51,30L1527,415l-3.77-13S1422.66,459.66,1277,604Z"/></g></g></svg>