<svg xmlns="http://www.w3.org/2000/svg" xmlns:xlink="http://www.w3.org/1999/xlink" viewBox="0 0 4946.31 2398"><defs><style>.cls-1{fill:none;}.cls-2,.cls-6{fill:#fff;}.cls-2{opacity:0.19;}.cls-2,.cls-3,.cls-4,.cls-5,.cls-6{isolation:isolate;}.cls-3{opacity:0.3;fill:url(#linear-gradient);}.cls-4{fill:#3482b2;opacity:0.14;}.cls-5{fill:#4e669b;}.cls-5,.cls-6{opacity:0.16;}.cls-7{fill:#c6c6c6;}</style><linearGradient id="linear-gradient" x1="4687.7" y1="-696.8" x2="7358.23" y2="-696.8" gradientTransform="matrix(-0.98, 0.19, 0.19, 0.98, 9484.41, 642.25)" gradientUnits="userSpaceOnUse"><stop offset="0" stop-color="#fff"/><stop offset="0.04" stop-color="#daf9fc"/><stop offset="0.11" stop-color="#a2f0f7"/><stop offset="0.18" stop-color="#74e8f2"/><stop offset="0.24" stop-color="#50e2ef"/><stop offset="0.3" stop-color="#36deed"/><stop offset="0.35" stop-color="#26dbeb"/><stop offset="0.4" stop-color="#21daeb"/></linearGradient></defs><title>Asset 2</title><g id="Layer_2" data-name="Layer 2"><g id="box"><rect class="cls-1" width="4938.66" height="2398"/></g><g id="sk3"><g id="skyline3"><g id="skyline3-2"><polygon class="cls-2" points="4919.7 1375.49 4919.7 1656.65 4051.41 1656.65 4542.67 1497.58 4896.07 1383.15 4919.7 1375.49"/><path class="cls-3" d="M4743.49,873.18a8.94,8.94,0,0,1,10.41,6.37h0a8.14,8.14,0,0,1-6.83,9.46l-.19,0L2124.5,1348.7Z"/><polygon class="cls-4" points="2756.88 1653.28 2793.04 1658.04 2690.55 1658.04 2576.72 1666.21 2565.64 1658.04 1897.85 1658.04 1897.85 1664.67 1776.69 1664.67 1776.69 1658.04 3.5 1658.04 3.5 1060.82 345.75 967.66 558.52 973.11 568.43 973.36 574.05 973.51 599.39 974.16 885.49 981.49 1031.84 985.25 1156.74 988.45 1225.81 990.22 1247.24 1004.59 1295.68 1037.06 1374.08 1089.63 1374.09 1089.63 1379.26 1093.1 1410.28 1113.9 1990.41 1502.88 2082.36 1564.53 2505.23 1620.17 2516.22 1621.62 2756.88 1653.28"/><polygon class="cls-5" points="2517.22 1622.62 2566.64 1659.05 1898.85 1659.05 1898.85 1665.67 1777.69 1665.67 1777.69 1659.05 4.5 1659.05 4.5 894.3 625.62 869.75 886.49 982.5 946.1 1008.26 976.07 1021.22 1025.45 1042.56 1156.49 1099.19 1165.13 1099.73 1179.65 1100.62 1284.49 1107.08 1300.55 1108.08 1300.56 1108.08 1305.24 1108.36 1411.28 1114.9 1642.88 1129.19 2045.33 1274.81 2080.04 1300.39 2400.63 1536.68 2445.74 1569.93 2446.41 1570.42 2451.64 1574.28 2506.23 1614.52 2517.22 1622.62"/><polygon class="cls-6" points="4946.31 1054.78 4946.31 1656.65 2897.64 1656.65 3019.44 1648.52 3575.27 1611.45 3787.53 1597.28 3823.71 1594.87 3945.49 1586.75 4035.95 1538.66 4946.31 1054.78"/><path class="cls-7" d="M4695.38,1678.77v-63.92h-3.6v-8.28h-11.15v8.28h-4.4v-8.28h-11.15v8.28h-4.4v-8.28h-11.15v8.28h-4.39v-8.28H4634v8.28h-4.4v-8.28h-11.15v8.28h-4.39v-8.28h-7.37v-39.3h1.63v-4.19h-1.63v-23.62h1.63v-4.2h-1.63v-23.62h1.63v-4.19h-1.63v-23.63h1.63v-4.19h-1.63V1456h1.63v-4.19h-1.63v-37.54h3.55v-3.91h1.44v-3.42h-9v-7.68h1.89v-3.56h1.31v-3.09h-8.12v-40.52h2.52v-3.53h1.19v-3.09h-3.72V1322h2.52v-3.53h1.2v-3.1h-3.72v-59.94h2.52v-3.53h1.2v-3.09h-3.72v-53.32h2.52v-3.53h1.2v-3.09h-3.27v-11.3h2v-2.65h-.87c0-1.53.26-3.42-1-4.6-.87-.85-2.23-1.3-3.09-2.17,1.07-.38,2.07-1.19,1.81-2.44a2.24,2.24,0,0,0-1.31-1.77c-.52-.24-1.39-.17-1.8-.59h1.89v-6.85h-1.39l-4.31-28.76h.78v-1.43h-1l-.51-3.42h1.07v-1.44h-1.28l-.21-1.49h1v-1.43h-1.23l-.49-3.23a1.31,1.31,0,1,0-.51,0l-.49,3.23H4586v1.43h1l-.22,1.49h-1.16v1.44h1.07l-.52,3.42h-1v1.44h.78l-4.31,28.76h-1.39v6.85h1.89c-.41.43-1.3.36-1.8.59a2.26,2.26,0,0,0-1.31,1.77c-.25,1.25.74,2.07,1.81,2.44-.87.86-2.23,1.31-3.09,2.17-.12.12-.22.25-.32.37l-3.65-3.71-4,4v4h-3.19v-4l-4-4-3.91,4v4h-3.18v-4l-3.91-4-4,4v4h-3.19v-4l-4-4-3.91,4v4h-3.19v-4l-4-4-3.65,3.71a2.25,2.25,0,0,0-.31-.37c-.87-.85-2.23-1.3-3.09-2.17,1.07-.38,2.07-1.19,1.81-2.44a2.24,2.24,0,0,0-1.31-1.77c-.51-.24-1.38-.17-1.81-.59h2.08v-6.85h-1.39l-4.31-28.76h.78v-1.43h-1l-.52-3.42h1.06v-1.44h-1.28l-.22-1.49h1v-1.43h-1.23l-.49-3.23a1.32,1.32,0,0,0,1-1.57,1.31,1.31,0,0,0-1.55-1,1.33,1.33,0,0,0,0,2.61l-.49,3.23h-1.22v1.43h1l-.23,1.49h-1.28v1.44H4514l-.52,3.42h-1v1.43h.78l-4.31,28.76h-1.39v6.85h1.89c-.41.43-1.29.36-1.81.59a2.26,2.26,0,0,0-1.21,1.8c-.25,1.25.75,2.07,1.82,2.44-.87.86-2.23,1.31-3.09,2.17-1.21,1.19-1,3.08-.94,4.6h-.88v2.65h2v11.26H4502v3.09h1.19v3.53h2.52v53.32H4502v3.09h1.19v3.53h2.52v59.94H4502v3.1h1.19V1322h2.52v23.52H4502v3.09h1.2v3.53h2.51v26.28h-7.6l-28.25-47.61a2.08,2.08,0,0,0,1.19-2.67,2,2,0,0,0-2.05-1.33h-.82v-3.29a2.91,2.91,0,0,0,0-5.5v-3.27h1.89a1.07,1.07,0,0,0,0-2.14h-1.89V1310a.9.9,0,1,0-1.8,0v2.57h-1.89a1.07,1.07,0,0,0,0,2.14h1.9v3.3a2.9,2.9,0,0,0,0,5.5v3.29h-.82a2,2,0,0,0-2.17,1.93,2.07,2.07,0,0,0,1.31,2.07l-28.25,47.61h-6.93v-26.28H4432v-3.53h1.1v-3.09h-3.71V1322h2.51v-3.53h1.2v-3.1h-3.71v-59.94h2.51v-3.53h1.2v-3.09h-3.71v-53.32h2.51v-3.53h1.2v-3.09h-3.28v-11.26h2v-2.65H4431c0-1.53.26-3.42-1-4.6-.86-.85-2.23-1.3-3.09-2.17,1.07-.38,2.07-1.19,1.81-2.44a2.21,2.21,0,0,0-1.3-1.77c-.52-.24-1.39-.17-1.81-.59h1.9v-6.85h-1.28l-4.36-28.82h.77v-1.43h-1l-.51-3.42h1.06v-1.44h-1.28l-.23-1.49h1v-1.43h-1.21l-.49-3.23a1.32,1.32,0,0,0,1.06-1.53,1.32,1.32,0,0,0-2.62.22h0a1.33,1.33,0,0,0,1,1.3l-.48,3.23h-1.23v1.43h1l-.23,1.49h-1.19v1.44h1l-.52,3.42h-1v1.43h.77l-4.3,28.76h-1.4v6.85h1.89c-.42.43-1.3.36-1.8.59a2.26,2.26,0,0,0-1.31,1.77c-.26,1.25.74,2.07,1.81,2.44-.87.86-2.23,1.31-3.09,2.17-.12.12-.21.25-.31.37l-3.65-3.71-3.91,4v4h-3.18v-4l-4-4-3.91,4v4h-3.19v-4l-3.91-4-3.91,4v4h-3.18v-4l-4-4-3.92,4v4h-3.18v-4l-4-4-3.64,3.71a1.85,1.85,0,0,0-.31-.37c-.87-.85-2.23-1.3-3.09-2.17,1.07-.38,2.07-1.19,1.82-2.44a2.24,2.24,0,0,0-1.31-1.77c-.52-.24-1.39-.17-1.81-.59h2v-6.85h-1.39l-4.26-28.76h.77v-1.43h-1l-.51-3.42h1.06v-1.44h-1.28l-.22-1.49h1v-1.43h-1.22l-.49-3.23a1.34,1.34,0,0,0,1-1.3,1.31,1.31,0,1,0-1.57,1.3l-.49,3.23h-1.23v1.43h1l-.22,1.49h-1.27v1.44h1.06l-.51,3.42h-1v1.43h.77l-4.29,28.76h-1.39v6.85h1.88c-.41.43-1.3.36-1.8.59a2.26,2.26,0,0,0-1.29,1.8c-.26,1.25.75,2.07,1.81,2.44-.86.86-2.23,1.31-3.09,2.17-1.19,1.19-1,3.08-1,4.6h-.86v2.65h2v11.26h-3.28v3.09h1.2v3.53h2.52v53.32h-3.72v3.09h1.2v3.53h2.52v59.94h-3.72v3.1h1.2V1322h2.52v23.52h-3.72v3.09h1.2v3.53h2.52v40.52h-8.12v3.09h1.3v3.53h1.9v7.68h-9v3.42h1.45v3.91h3.54v62.46h-33.57l-2.55-18.11-2.64,18.69-5.56-32.27-5.84,33.91-1.87-10.17-6.07,33.12h-2.73v16.83h-4.69v60.72h-3.73v99.36Z"/></g></g></g></g></svg>