<svg xmlns="http://www.w3.org/2000/svg" viewBox="0 0 4938.66 2398"><defs><style>.cls-1{fill:none;}.cls-2{fill:#a5a5a5;}.cls-3{fill:#7a2121;}.cls-4{fill:#b7446e;}.cls-5{fill:#808082;}.cls-6{fill:#fff;}</style></defs><title>phonebooth</title><g id="Layer_2" data-name="Layer 2"><g id="box"><rect class="cls-1" width="4938.66" height="2398"/></g><g id="phone"><g id="phonebooth"><path class="cls-2" d="M134.77,1143.22l-.58-.53L22.64,1042.06h0v.16c-.12,1.16-.25,2.32-.37,3.48v.15c-.17,1.54-.34,3.07-.5,4.61v.15c-.11,1.13-.23,2.27-.35,3.4v.15l-2,18.52c-1,9.26,0,.08,0,.12l-8.53,78.12c-.07.63-.14,1.25-.2,1.88h0l-4,37.48q-.95,8.79-1.9,17.61h0l-.24,2.17,2.09,1.53v563l5.4-3,.35-.19h0l.16-.09h.07l1.48-.82h.06l6.94-3.85.37-.21h0q13.2-7.32,26.39-14.67h.08l1.28-.71.11-.06,20.22-11.23L71,1739l17.43-9.69h0l2.38-1.32.22-.12,2.73-1.52.18-.1,1.7-1,.2-.11.68-.38.21-.12,2-1.08.18-.1.86-.47.28-.16,8.71-4.83.29-.16,1.29-.72.23-.13,1.56-.87.23-.13,1.36-.75.24-.13,1.76-1,.24-.13.65-.36.24-.13,1.27-.7.24-.14h.07l.25-.14c1.19-.65,2.37-1.32,3.56-2l.11-.06,14.67-8.15.15-.08.23-.13,1.29-17.69v-.11c.09-1.26.18-2.53.28-3.79v-.06q2.07-29,4.15-57.86c.11-1.59.23-3.17.34-4.76q7.17-99.71,14.32-199.41.44-6,.86-12,1.22-16.79,2.42-33.57v-.33a4,4,0,0,1,.07-.91v-.29c.06-1,.14-2,.21-3.06v-.17q.44-5.94.86-11.86h0l.12-1.71h0c.09-1.14.16-2.28.25-3.42.12-1.61.26-3.23.47-4.84l.6-10v-.1l.83-8.59.17-1.76h0l1-10.4v-.46c.12-1.6.24-3.19.35-4.79a.17.17,0,0,0,0-.1c.17-2.37.34-4.75.52-7.12v-.15c.19-2.58.37-5.16.56-7.75h0c.06-.74.11-1.48.17-2.22h0l.93-12.9v-.22c.24-3.26.47-6.53.72-9.78v-.12c.13-1.84.26-3.7.4-5.54v-.11c.06-.89.13-1.77.19-2.66a.67.67,0,0,0,0-.2c.11-1.34.2-2.66.3-4v-.14c.44-6.15.88-12.32,1.33-18.47v-.07c.08-1.15.16-2.28.25-3.43v-.08q.72-10.18,1.48-20.39h0q.34-4.77.7-9.56c.36-4.79,0-.08,0-.12.06-.83.11-1.66.18-2.48v-.14c.19-2.58.37-5.18.56-7.76v-.15c.08-1,.15-2,.23-3v-.16c.13-1.79.25-3.58.39-5.37v-.08c.13-1.95.28-3.9.42-5.85Q155.11,1161.56,134.77,1143.22ZM5,1210.22l.21-1.9,1.43.92.5.33v2.1Z"/><path class="cls-3" d="M357.05,1299.31c4.28-.68,7.06,1.65,9.24,5.63,1.5,2.78,3.61,4.88,4.43,7.29,2,5.48,2.48,14,2.86,21.94.37,8.26,1.35,17.51.83,23.29a11.66,11.66,0,0,1-1.13,4.21c-.68,1.28-1.65,2.33-1.65,3.31s1.35,3.46,1.95,5.33c1.5,5.26,3.3,12.17,3.61,18,.52,8.94-.45,18.33-.83,27.27-.45,9.09-.38,18.41-.3,27.5.23,18.11-.37,36.21.83,54.17s1.43,36.29,1.43,54.4-2.25,35.76-2.25,53.34c0,9.24.23,18.19.83,27.2.6,8.57,1.88,17.2,2,25.84.15,8.94-.75,18-.52,27.2.52,26.67-.15,54.17-1.43,81.37-.45,9.92-1.13,16.08-1.13,26.67s-2.1,21.19-10.89,19.91c-4.36-.6-7.74-8.19-8.64-13.15-1.28-6.61-.83-14.73-.6-21.94.9-21.87.6-45.76.6-67.62,0-15.63-1.28-30.28-.6-45.46.68-14.5.6-29.6.6-44.63s-1.13-29.83-1.13-44.86c0-22,1.43-44.93.52-67.62-.23-7.21-1.43-14.35-1.65-21.34-.53-15.63,1.27-30.35.82-44.93-.53-16.68-4-30.8-3.9-48.84,0-2.7.15-5.64.3-8.42s1.05-5.56.82-7.81-2.1-4.21-2.55-6.46c-2-10.82-2.25-26.07-1.05-38.17.37-4.06,1.58-7.81,2-11.5.74-8.84-2.11-19.65,6.68-21.08Z"/><path class="cls-4" d="M326,1815.61a75.34,75.34,0,0,1-15.15,2.26c-28.66.3-59.27.3-89.36-2.26-13.43-1.13-27.84-2.78-43.44-3.38-7.5-.3-14.26-.15-22.44-.83-7.42-.6-16.5-.6-17.11-6.15-.45-4.28,4.42-8.63,5-12.61-6.9-29.42-3.89-61.62-3.89-93.67,0-15.68-1.95-31.53-1.95-47.36,0-16.21-.3-32.16-.3-48.28,0-23.87-3.16-46.61-2-71.76,1.51-31.78,1-64.54,2.26-96.77.3-7.83,1.58-15.74,1.43-23.35-.23-6.4-2-14.08-2.25-21.91-.53-10.69-2.26-24.69,4.21-29.51-5.65-4.9,1.73-8.59,7.83-6.18,1.13-11.75-4.37-30.8,1.95-38.26,1-1.13,3-2,.6-2.56-2-.53-.38.45-1.43,2.56-2.71,5.58-7.15-.15-8.43-4.22-2.26-7.45-3.39-17.16.83-23.94-2.71.53-6.09-.08-7-2.49-3-8,12.2-14.38,16.86-16.63a187.88,187.88,0,0,1,52.32-15.74c9.8-1.5,21.23-.83,32.08-1.43,4.44-.23,10.69.68,16.25.9,16.49.68,30.64,2.18,42.46,6.7,8.28,3.24,17.17,4.59,24.47,8.43,7.6,4.07,14.23,7.83,20.24,12.65,17.76,1.81,16.41,25.16,8.43,37.73-1.35,2.1-4.59,4.59-5,6.17-.52,1.81-.23,5.43-.3,8.13-.15,5.35-.07,10.24-.3,16-.08,2.78-.68,5.72-.23,7.91.3,1.73,2.86,4.29,3.61,6.47,2.48,6.86,2.78,16.19,3.38,25.61,1.89,27.26,3.09,55,3.09,82.39,0,36.44-6.09,72-4.52,110,.83,18.75-.53,38.11-.53,57.16s-1,56.53-1,56.53.82,55.36.82,84.7c0,4.72-.15,9.53,0,14.26.6,11.94,1.28,23.87-7.8,27.47-6.35,2.55-9.94-1-13.7-4.73ZM234.47,1268.5h0c-1,.3-.6,3.16-.3,3.91,13-1.13,28-.07,41.31-.83-13.52-1.27-26.89-2.55-41-3.08Zm-19.08,11.42h2C217.54,1278.8,215.51,1279.47,215.39,1279.92Zm-65.94,4.81h0a6.59,6.59,0,0,0,2.86,2.86c.23-1.73,1.65-2.33,2-4-1.58-.68-3.08,1-4.81,1.12Zm12.69,31.19h0c1.58,12.7-1,25.85-1.43,38.39,41.53,1.2,84.27,1.28,124.31,3.38,13.59.75,26.89,2,40.11,2-.75-13.53-3.23-28-1.13-41.77-5.56-2.7-12.24-2-18.85-2-47.24,0-95.24.3-143-.83-.38,0-.38.76,0,.83Zm139.1,52h0c-2.25,2.63-8.34,1.43-12.92,1.73.07,1,1.2,1,1.13,2.25,12.09-1.35,27.87-1.35,39.28.53.3-1,1-2.63.3-3.61-6.83.9-15.47,2.33-22.46.53-1-.38-.23-1.43-1.13-1.43Zm-34,2.16h0c5.71-.83,12.47,2.25,15.7-.3C277.94,1369.93,270.85,1369.41,267.24,1370.08Zm-100.41,8.64h0c3.08,0,4.88-1.2,6.76-2.48,3.38,1.73,7.89.45,12.62,0,16.3-1.65,34.4-2.85,51.6-2.85,4,0,12,.3,16-.23,1.58-.23-2.18-.3-3.68-.3-29.14,0-58.28-.37-84.72-2.78.44,2.93,1.11,5.64,1.42,8.64Zm89.52,3.08h0c1.8.9,6.91.3,7.29-.53-3.08-.74-6.09,1.14-7.29.53ZM303.09,1397h0c-.38-.15-.75.3-1.13.3-7.36.45-15.77.08-24.41.3-30.64.68-67-2-92,3.91-1.35,3.61-.6,7.89-2,11.8-.53,1.35-2.25,2.4-2.55,3.61-.45,1.73.45,4.43.6,6.76.38,7.81-.07,14.2.53,21.34.38-2.18.45-6.09,2.78-5.33.6.53.6,1.65.6,2.78-1.13-.08-.53-.9-1.13.83-1.28,3.68-.83,10-.83,15.18v16c0,32.83,2,63.64,2,94.59,0,43.2.37,85.35-.6,126.83,42.29-.9,82,2.18,120.62,3.91.38-36.89,1.13-73.78,4.51-106.92,3.61-34.49,3.31-69.88,5.33-106.32,1-16.91,2.7-35,2.55-53.35-.15-10.59-.07-18.86-2.25-26.37-2.4-.83-3.75-2.78-4.51-5.33-5,5-6-3.47-8.1-4.52Zm-143.25,21h0c1.95-1.13,1.35-4.06,1.35-6.69,0-4.88.08-10.37-.52-14C160.37,1403.93,159.31,1411.44,159.84,1418Zm19.6,75.51h0c-.37-6.09.83-13.6,0-18.26C179.07,1480.79,178.24,1488.15,179.44,1493.49Zm-5.8,10.71h0c.3,11.65,1.05,22.92,2,34-.15-11.8-.9-23-1.43-34.49,0-.23-.23-.38-.52-.3v.79Zm-7.29,18.48h0c.38,13.67.45,30,1.65,43.8,2.63-2.63,1.35-7.51,1.13-12-.45-11,.07-22.84-1.43-32-.68-.14-.6.53-1.35.23Zm-7.89,95.42h0c-.15,3.31-1,7.44-.53,9.55.3,1.5,2.18,2.4,2.78,4.21s-.07,3,.83,4.51c-.08-28.4.15-58.83-1.13-85.28.38,21.63-1,46.35-2,67Zm18.25,47.71h0c0,1.8-.15,4.13,2,4-.15-10.29.37-23-.3-31.71.38,9.17-1.87,19.32-1.65,27.73Zm10.07,40.11h0c-.9.08-1.2-.45-2.25-.23C184.3,1706.69,186.63,1706.37,186.78,1705.92Zm-33.14,10.68h0c2.55.07.83-3.08.3-4.21C154.17,1714.12,153.49,1715,153.64,1716.6Zm30.35,3.16h0c.9,0,1.65,0,1.95-.6C185.34,1719.38,183.76,1718.63,184,1719.76Zm-11.49,70.4h0c2.85-.15,5.78-.15,8.11-.82C178.13,1789.63,172.5,1786.1,172.5,1790.16Z"/><path class="cls-5" d="M479.77,1227.55c-.38-1.65-2.33-1.73-3.08-3.08-.68,0-1,.45-1.35.83C475,1221.39,480.68,1223.72,479.77,1227.55Z"/><path class="cls-5" d="M390.85,1422.6c-5.41-.38-9.91,3.08-14.27,2,1.05-1.8,4.36-1.8,7-2.26,2.4-.44,5.93-1.94,7.29.31Z"/><path class="cls-5" d="M387.77,1433.8c4.13,29.23,5,66.87,4.81,98.2-1.73-1.2-1.05-3.68-1.13-5.33C389.72,1496.84,389.87,1463.67,387.77,1433.8Z"/><path class="cls-5" d="M379.36,1533.12c-2.86-6.39-1.58-14.2-2-21.86s-.3-15.63-.3-23.59c0-17.43-.38-36.52.6-51.32a1.24,1.24,0,0,1,1.43-.9c.52,30.43,1,66.64.22,97.67Z"/><path class="cls-5" d="M382.73,1435.75c1.35,1,1,3.31,1.13,4.81,1.2,22.69,1.43,48.31,1.43,73.18,0,3.53.9,7.59-1.13,10.44-2-.75-1.13-3.23-1.13-4.51-.3-26.75-1-55.9-1.13-83.1a1.4,1.4,0,0,0,.3-.83Z"/><path d="M178.89,1211.4c-1.13,1.28-1.58,2.93-3.08,3.38-4.21,1.13-9.61-4.73-12.62-7.29-7.58-6.54-14.27-12.1-20.73-19.08-4.21-4.51-7.51-8.19-10.14-13.22-1.2-2.4-4.43-3.53-2-5.64,11.42,4,20.43,13.52,28.31,21.64,3.46,3.46,6.91,6.69,10.44,9.84s7.74,6.09,9.77,10.37Z"/><path d="M32.51,1295.55a1.4,1.4,0,0,0,.83.3c1.95,16.91.75,40.12,1.13,58.68-.07,1.2.68-.3,1.35,0a2.6,2.6,0,0,1-2.18,2.48c-1-.75-1.28-2.18-1.43-3.31-.9-6.91.07-14.73-.3-22.24-.53-12-.38-24.19-.3-35.31C31.83,1295.93,32.43,1296,32.51,1295.55Z"/><path d="M38.36,1361.82c-.75-10-.83-21.41-.83-32.53s.08-22.62,2-31.71c.08-.38.53-.23.53-.6.53-.08.53.3.9.3-.08,18.63-.53,38.32-1.43,57.78-.06,2.25.24,5.26-1.12,6.76Z"/><path d="M44.82,1300.92c1.88,18.56,1.8,42.3,1.65,61.23-3-3.16-2.25-8.42-2.48-13.22s-.38-10.07-.6-15.18c-.45-11-1-23.37.3-31.93-.07-.75.38-1,1.13-.9Z"/><path d="M232.74,1323.92c-1,1.58-4.2,1-6.68,1.13-.75,1.35-.07,3.76,0,5.33.9.38,4.88-.83,5,1-1.2.68-3.16.6-5,.6-.68,3-.15,7.21-.3,10.67,1.88.53,7.88-1.35,8.11,1.65-2.85,1-8.64.45-10.89,1.13-1-6.76-2.25-16.6,0-22.69,2.1.46,7.66-.3,9.76,1.13Z"/><path d="M189,1324.18c-.9,2.63-4.73.6-7.59,1.13.23,6.24.9,14-.82,19.08a12.43,12.43,0,0,1-3.08-.53c-1.58-4,.53-10,0-14.58-.23-1.65-1.8-2.78-.9-4.21-1.65-.75-5.11.22-6.16-1.13-.07-.45.3-.53.3-.9C176,1323.2,184.78,1322,189,1324.18Z"/><path d="M204.43,1324.18c-1.65,2-5.41.45-8.94.9-.68,1.13-.15,3.46-.3,5,1.2.3,4.73-1,6.16.3-.68,1.58-3.23,1.35-5.63,1.35a38.58,38.58,0,0,0,0,9.84c3.75.68,8.94-2,10.44.83-1.65,2.18-7.13.6-10.14,1.43-.52.6-.45,2-1.43,2.25-1.5-.37-1.88-1.8-3.08-2.55.83-6.39-.6-13.67.3-20.21,2.85-.38,9.69-.45,12.62.83Z"/><path d="M210.36,1322.82c2.63,5-.23,13.9,1.13,20.21,2.7,1.65,7.59-1.5,8.94,1.35-3.76.53-9.91,1.88-12.62,0a128.23,128.23,0,0,1,0-20.74c.15-1,1.35-.89,2.55-.82Z"/><path d="M239.8,1336c-.6,3.61,1.35,9.84-3.08,9.54-1.28-6.23.22-14.5-.3-21.86a1.47,1.47,0,0,0,.83-.83c2.78,1.28,5.78,0,8.41.83,3.76,1.2,4.43,7.06,2.55,10.07C246.86,1335.82,243.63,1335.9,239.8,1336Zm0-1.35h0c5,.15,7.51-3.61,5.33-8.19a17.49,17.49,0,0,0-4.81-1.35c-.82,2.48-.44,6.23-.52,9.54Z"/><path d="M254.08,1323.35a32.28,32.28,0,0,1,.9,9.24c1.28.75,3.75.38,5.26.9,1.43-3.68-2.1-10.52,3.38-9.84,2.25,4.73-.07,11.8,0,17.36.07,2,1,4.21-.83,5.33-4.43-.15-2.33-7.21-2.55-10.89-1.35-.53-3.38-.3-5-.6-1.2,3.68,1.73,11.5-3.38,11.27-1.35-5.86-1.13-16.23-.23-22.46a2.24,2.24,0,0,1,2.48-.31Z"/><path d="M274.88,1323.92c14.27-3.31,14.57,22.69,3.08,23.52-3.08.23-7.29-1.43-8.71-3.08-3.08-3.38-2.7-12.85-.3-16.53A10,10,0,0,1,274.88,1323.92Zm3.6,20.74h0c6.08-1,6.84-13.37,2-16.83-1.8,0-3.53-1.73-5-1.13-7.13,2.63-4.8,19.24,3.08,18Z"/><path d="M320.7,1324.78c-.45,2.48-4.81,1-7.06,1.65v5c1.13.75,3.83-.23,4.21,1.13-.3,1.5-2.18,1.35-3.91,1.43-.6,3.08-.15,7.14-.3,10.67,1.65,1,5,.23,6.46,1.43-.38,1.43-2.55,1.13-4.21,1.35-2.63.38-5.48,1.5-7.81,0-.52-6.76,1.2-16,0-22.69,2.18-1.73,9.54-1,12.62,0Z"/><path d="M303.72,1324.48c1.28,4.81.07,11.42.3,16.83.15,2.4,1.05,5-.83,6.46-2.85-.68-4.2-4.06-5.33-6.46-1.28-2.63-2.4-5.41-3.68-7.81-1.5,4.06,3.16,20.36-4.43,13.45a106.83,106.83,0,0,1-.3-22.47c1.35-.75,2.18.38,3.38.6,1.88,5.86,5.78,9.69,7.58,15.7,1.21-3.3-3-19.16,3.31-16.3Z"/><path d="M133.06,1338.23c-6.68-1.58-11.72-4.73-17.42-7.29v-.83a1.34,1.34,0,0,1,.83-.3C122.84,1331.81,128.77,1334.17,133.06,1338.23Z"/><path d="M115.2,1336.92c1.58,18.63-.9,38.69-1.65,56.73-.08,2.1.9,6.46-1.13,7.59-2.25-4.43-1.65-10.22-1.43-15.48.75-15.48,1.65-32.91,2.85-47.94a1.63,1.63,0,0,1,.83-.9Z"/><path d="M120.31,1391.86c-2.63-1.43-2.25-6.31-2.55-9.84-1.05-13-2.55-28.25-1.13-41.55.08-.6.23-2,.83-2.25.08-.23,1-.83.9-.3h.52c1.65,17,.08,37.26,1.43,53.94Z"/><path d="M352.84,1339.92c2.55,1.8,2.18,9.24,2,12-2.33-2.18-3.6-8.26-2.48-12Z"/><path d="M359.83,1340.78c1.43,2.85,0,7.36.3,10.9.38.52,1.13-.68,1.95,0,.83,3.16,1.65,8.64.6,11.79-1.88-1-1.65-3.91-2-6.46-.75.3.07,2-.6,2.25-1.88-1.2-2.7-7.21-3.08-11.5-.23-2.7.38-5.71,1.73-7Z"/><path d="M130.37,1398.86c-4.73-.3-7.81-2.25-10.89-4.21-.3-.9.38-.9.53-1.43C123.76,1394.8,128,1395.93,130.37,1398.86Z"/><path d="M362.64,1398.26c.23,0,.23.15.3.3,3.16,60,1.05,124,.66,186.93v165c.16,4.43.31,11.27.39,17.43.08.68,1.2,4-1.05,4.21-2.78.15-1.43-7.21-1.34-9.84V1585.71c-.39-62.89-2.19-126.15.44-186.56.3-.22.22-.82.6-.89Z"/><path d="M115.8,1399.92c.53,15.7.45,33.21-1.13,47.71-2.48-2.63-1.43-7.21-1.43-11,0-11.72.15-25.4,1.13-35.91.15-.38.53-.45.6-.83Z"/><path d="M40,1441.92h.9c.23,15,.9,31,1.65,44.63C38.51,1475.28,38.51,1456,40,1441.92Z"/><path d="M131.8,1453.33c-4.58,0-10.21-1-12.62-4-.08-.45.22-.45.3-.83,3.91.6,9.24,2.26,12.32,4.81Z"/><path d="M117.23,1452.92c1.5,1.65.83,4.43.83,6.46,0,15.55-.23,33.89-.6,48.84-3.3-2.18-2.63-7.66-2.78-12.1-.37-13.9.08-30.5,1.65-42.3a.84.84,0,0,1,.6-.9Z"/><path d="M120.53,1453.69c.3-.08.3.08.3.23h.6c1.58,13.3,0,31.41-.3,45.23,0,1.43.75,4.06-1.13,4.73a343,343,0,0,1,0-49.66c.08-.31.53-.16.53-.53Z"/><path d="M133.75,1506.6c-2.25,1.28-6.38-.07-9.24-.3-1.28-.07-2.63.9-3.08-.53-.07-.75.08-1.2.83-1.13a19.54,19.54,0,0,1,11.49,2Z"/><path d="M116.1,1516.14c.23-.08.23.15.23.3.07,14.2,1.28,30.13,0,43.8-2.25-2-1.8-6-2-9.54-.37-10.22-.3-25.32,1.13-33.73.14-.37.52-.45.59-.83Z"/><path d="M133.45,1558.52c-2.25,1.35-5.78.15-8.94,0-2.18-.08-4.88.68-6.16-.83-.08-.83-.08-1.5.83-1.43C123.76,1556,129.85,1556.79,133.45,1558.52Z"/><path d="M135.18,1652.81c-5,2.18-12.47,3.46-18,4.21,1.28-2.48,5.33-2.48,8.41-3.08S132.25,1652.44,135.18,1652.81Z"/><path d="M48.73,1738.17c.45-.08.53.23.83.23,1.35,4.66.3,11.64-1.05,15.48C47,1750,48.13,1742.52,48.73,1738.17Z"/><path d="M181.75,1743.73c-.9,12.32.38,28.25-.9,43,0,.3.3,4.13-2.18,3.08-1.28-.53-.83-1.88-.9-4.21,0-10.52-1.2-22.77-1.65-32-.23-4.13-.23-10.52.82-12.62.9-2.1,3,0,4.81.3,4.58.75,9.76,0,14.87.23,15.1.75,28.84.15,44.61.9,20,.9,42.29,1.65,58.28,1.65,1.58,0,7.06-1.73,7.06,1.13,0,2.55-4.06,1.28-5.93,1.13-8.11-.68-15.92-.6-23.81-.6-31.47,0-64.74-1.06-95.08-2Z"/><path d="M308.53,1744.92c1,15.33-1.2,29.9-.6,45.76-1.05.9-2.18.82-3.9.6,1.35-.6,1.35-2.93,1.43-4.21.9-13.37.07-28.63,2-41.25-.08-.45.3-.53.3-.9Z"/><path d="M300.64,1756.92c1.28,1.13.9,4.73.9,7.81,0,6.46.08,13.07-.9,18.86-1.2-2.48-1.13-6.23-1.13-9.31,0-5.34.6-11,.3-16.53a1.38,1.38,0,0,0,.3-.82Z"/><path d="M46.48,1758.92c.15,1.35-1.58,1.28-2.48,1.65-9.21,4.13-19.46,7.4-29.92,10.46h0l-1.4.4h-.24l-.36.1c-1.79.53-3.6,1-5.4,1.55v-1.9c1.93-.67,3.86-1.3,5.81-1.94h0l1.89-.62h0c2.23-.71,4.48-1.42,6.72-2.11l.4-.13h0C29.79,1763.92,38.16,1761.41,46.48,1758.92Z"/><path d="M306.87,1796.47c-3.23,1.73-7.29.75-11,.6-21-1-45.07-.3-68.2-1.43-15.4-.68-30.65-.68-45.74-1.35-1.13-.08-4.51.75-4.21-2,40-.45,82.84.75,122.65,2.56,1.89.07,5.2-.46,6.47,1.65Z"/><path d="M7.18,1800.14v-1.28C7.16,1799.26,7.18,1799.69,7.18,1800.14Z"/><path d="M457.17,1798.73a.83.83,0,0,1,.6.9c-11.42,10.07-21.41,21.56-33.35,31.11,9.91-11.66,21.25-21.87,32.75-32Z"/><path d="M431.7,1799.32c-2.4,3.31-6,5.79-9.31,8.42-9.84,7.89-20.05,16.61-30.57,24.12-.3-.83.9-1.73,1.43-2.26C404.74,1818.94,419.61,1809.6,431.7,1799.32Z"/><path d="M419.09,1802.11c.45-.07.52.23.52.6-14.57,11-28.46,22.77-44,32.83,2.33-3.46,6-6.31,9.54-9s7.21-5.41,10.89-8.11c7.59-5.64,15.47-11.42,23.06-16.3Z"/><path d="M111,1858.53c-1.2,3.53-5,4.58-6.68,7.59,11.79.53,26.21-.6,39.51,0,12.84.6,27-.75,34,6.16-2.4,4.66-9.09,4.81-15.1,5-19.08.75-39.73.68-59,.3-19.68-.38-36.88-2-56.93-2.78-3.15-.15-16.3.15-16.3-3.68,0-3.45,10.82-3,16.3-3.08,15.7-.15,30.34-1,46.27-1.43,3.23-.07,6.91.38,9.31-.3,3.9-1,4.73-6.38,8.63-7.81Z"/><path d="M420.14,1862.44c-2.18-.45-3.61-.07-5.56-.3-13.82-1-27.94-2.63-43.19-3.31-1.28.75-3.08,1-4.51,1.65,16.91.53,33.58,1.51,49.95,2.26C418,1862.82,422.76,1863,420.14,1862.44Zm-37.26-65.67c-.93.67-1.9,1.37-2.92,2.09l.06,3c2.61-.64,1.38-3.65,3.2-4.39A3,3,0,0,0,382.88,1796.77Zm-31.48-510a94,94,0,0,0-7.36-6h0c-14.47-10.76-33.5-19.15-55.05-24h-.18a189,189,0,0,0-27.71-4.13H261c-3.07-.24-6.16-.4-9.29-.48h-.08c-2.69-.07-5.38-.09-8.1-.06h0c-2.16,0-4.34.09-6.52.19-18.85.89-36.52,3-51.83,7.2,0,.79,0,1.6-.06,2.37a275.18,275.18,0,0,1,49.65-6.76c17.8-.83,36.58,1.65,51.9,5,17.89,4,34.3,9.46,48.39,17.08h0c2.08,1.12,4.1,2.28,6.07,3.5a102.91,102.91,0,0,1,9.65,6.68c.52.4,1,.8,1.55,1.22l1,.85a4.54,4.54,0,0,1,.11-.66,22,22,0,0,0-2.05-2ZM108.33,1860.44c-3.06-.25-6-.51-8.84-.85-1.35.45-.6-1.28-1.73-1.13-2.1,1.8-6.39-.15-9.54,0,1.8-2.25,4.65-3.46,5.93-6.16-3.9.15-5.4,5-9,5.86-3.83.9-9.53.07-14,.3-4.73.22-9.38.52-13.74.3-16.39-1-33.82-1.54-50.72-2.2v4.75c4.19.12,8.4.24,12.56.24,21.26,0,41.69,1.2,59.79,2.55.38.76-2.35,2.12-2.3,3.11a.68.68,0,0,0,.35.5,3.42,3.42,0,0,0,1.09-.56c1.29-1,2-2.69,3.94-3,2.71-.6,6.16,1,9.84.3a15.38,15.38,0,0,1-1.77,2.33c-1.65,1.84-3.56,3.46-4.69,5.78,2.63-1,3.92-3.73,5.66-5.81a6.36,6.36,0,0,1,3.28-2.3c2.55-.76,6.91.07,10.14.22h.88l.53-.53c.73-.69,1.55-1.31,2.31-2,.19-.15.37-.32.55-.48l.55-.55a6.8,6.8,0,0,0,.5-.57Zm25.55,5.5H129.3l-4.57.08c3.26.22,6.37.34,9.24.26Zm314,4.85c-2.47-.38-5.18-.53-7.58-.83-14.87-1.65-30.34-3.45-45.21-4.73-20.28-1.72-40-5-59.71-6.76,5.7-.68,14.27,1,16.82-2.48-2.78-2.1-8.49-1.28-12.62-2,6-1.2,14.94.38,20.2-1.65.53-2.1,1.13-3.68.83-5.86.83.6,2.18.08,3.08,0,11-8.71,23-17.65,33.95-26.14a42.15,42.15,0,0,0,5.63-4.51c.44-.46.93-1,1.4-1.54a31.88,31.88,0,0,0,2.94-4h0l-.18-.18a4.82,4.82,0,0,0-5-.41c.22-1.65-1.2-1.88-2-2-3.23-.15-7.73,7-10.66,6.76-.68-4.36.22-10.29-.83-14.35-2.55.07-2.7-3.31-5.33-2.78a1.48,1.48,0,0,0-.41.12c.76,1.91.36,5,.49,7.51-2,.08-3.08-2-4.81-2.25a7,7,0,0,0-4,.89c-3.05,1.51-6.21,4.5-8.58,6.1l-3.66,2.49c-2.93,2-5.43,3.75-7.53,5.1-.9-3.53,3.45-4.59,5.63-5.94l.56-.35c2.18-1.34,4.58-2.84,6.73-4.08,2.32-1.45,4.74-3.06,7.11-4.67,1.66-1.14,3.29-2.28,4.84-3.38-.43-21.75-1.05-55.11-1.53-82.06v-.26h0c-.45-24.6-.79-43.77-.79-43.77v-.08l.91-21.89h0l.09-2.13v-.06s-.45-45.86-.57-68.78c.45.07.83-.3,1.13-1.13-.38-4.59.6-8,1.65-11.5.68-2.18,2.41-5.34,1.13-5.64-2.85-.45-2.55,4.81-3.9,6.46a39.83,39.83,0,0,1,.56-5v-.1s-.15-4.66-.32-10.91v-.4c-.22-7.79-.49-17.91-.56-24.49h0l-.21-18.61c-.08-7.12-.26-17.34-.45-26.59h0c-.23-11.91-.46-22.2-.46-22.2v-.9s.31-16.85.31-25.2c0-2.71.59-8.08.68-8.86v-1.15l-.89-14.71v-.07l-.08-1.16v-.12c-.14-4.31-.36-8.48-.74-12.4-.08-1.5-.53-3.22.3-4.5-5.21-3.72-3-11.07-2.27-18.59v-.19a.38.38,0,0,0,0-.15h0c.44-4.44.53-8.65,1.12-11.92,2.55-.75,2.47,2.26,4.2,1.43-1-2.18.53-2.71.83-4.81.38-2.32-.29-5.33-.52-8.41-.68-10-.83-17.28-3.38-25.54-3.15-10.51-6-18.1-13.43-22.46-.15-.75-.45-1.42-.6-2.25a90.58,90.58,0,0,0-9-8.52,10.11,10.11,0,0,0,0,1.74h0a3,3,0,0,1-.4,2.14,2.56,2.56,0,0,1-1.51.77c0-2.78-.82-4.81-1.35-7-.45-1-2.63-.22-3.38-.9a157.45,157.45,0,0,0-46-22.15c-17.48-5-37.45-8.94-58.86-8.94-27.92,0-52.36,5.63-72.63,14.93H169a132.78,132.78,0,0,0-28.81,17.75h0l-.42.34-.35.28v-.7c-.21-1.57-1.34-1.21-2.5-.87l-.53.16c-.9.24-1.72.28-2-.84-.11-.39.14-.92.63-1.55l.26-.32c2.49-2.82,9.14-7.14,10.67-8.2a66,66,0,0,1,14.27-7.88c1.2-.37,2-.52,2.55-.22a27.47,27.47,0,0,1,6.73-3.61h.1c3.45-1.39,7.38-2.54,11.11-3.64,1.48-.45,3-.89,4.5-1.29a17.18,17.18,0,0,1,.14-2.38.72.72,0,0,1,.06-.35,3.77,3.77,0,0,1,.87-2c-1.51-3.75-.83-9.75-.83-15.69,0-6.24-1.5-15.48,3.08-16.83,2.1-.61,4.2.45,6.15-.53,1-.51,1.12-2.09,2.25-3.37s3.16-2.33,3.91-3.38a9.67,9.67,0,0,0,2-5c0-5.11-6.31-8.94-6.16-1.73q-10.71-11-21.33-22.1l-.09-.1q-20.25-21.15-40.28-42.55l-.5-.54c-40.43-43.08-80.56-86.46-122-128-1.75-1.75-3.28-4.06-5.59-5.19v14.82q7.88,9.12,16,17.74c11.28,12.13,22.7,23.77,33.63,35.65,11.42,12.33,22.61,24.87,34.25,36.52,12,12,24.64,22.93,36.21,34.2-2.48,1.13-4.2-.75-5.63-2.18-4.28-4.35-8.19-8.86-12.32-12.93-29-29-57.79-58.63-86.53-87.62q-7-7-13.91-14l-1.91-1.64v4.52c4.82,5.32,9.79,10.51,14.83,15.66l.24.25c32,32.69,63.39,66.41,94.64,98.87-7.44-.38-14.2-1.43-19.09-4.21,2.18.83,5.57,2,7.31.19,2.63-2.56-1.73-8.12-3.08-10.07a50.65,50.65,0,0,0-6.77-8.12c-15.39-15.4-30.19-30-44.61-44.93-9.7-10.08-19-19.34-28.77-28.18h0c-4.77-4.34-9.64-8.58-14.69-12.76v19.39q6.43,6,12.68,12c5.33,5.16,10.5,10.32,15.39,15.67,9.17,10,18.78,18.78,28,28.1s20.21,16.91,29.52,26.91c-.3,0-.38-.22-.6-.3-3.76-1.43-10.52-2.48-11,1.73-.45,4.66,5.86,4.74,8.71,7-4.28-.15-7.14,2.63-9.24,3.68-.53-5.1,1-12.32-.83-16-2.33,2.86-.6,9.69-1.73,13.75a4.53,4.53,0,0,1-3-3.1c-.82,1.5-3.18,4.18-3.39,5.85a77.32,77.32,0,0,1,.17-9.26c-.92-.85-1.83-1.72-2.74-2.59v16.15c-4.19.37-4,5.14-5,8.79-.19,3.77-.32,7.49-.36,11.14s.15,7.59-1.13,10.9c-1.5-1.43-.23-3.76,0-5.86a53,53,0,0,0-.6-14c-.3-2.18,0-5-1.65-6.16-1.65,1.87-.67,5-.52,7.81a110.2,110.2,0,0,1-.3,12.59,3,3,0,0,1,.3.4q-1.92,7.89-3.61,16c-.25-2.28-.33-4.74-.37-7.24-.5,2.5.11,5.84.3,8.61.6,8.41.22,15-3.08,19.91a5.6,5.6,0,0,1-.82,1c-1,4.46-1.38,8.5,3.07,9.77-2.24.51-5.68-3.1-8.33-4.37-.45,2,.12,5.07-.08,6.87-12.94-9.18-26-18.16-39.35-26.85v2.1l-2.14-1.45.21-1.9-.47-.3-.24,2.17h0l2.22,1.43c10.61,7.2,21.36,14.33,32.26,21.59,2.33,1.58,7.36,4.51,7.89,6.24,1.2,3.83,0,9.69,0,13.75,0,4.51-.75,8.65,0,13.16.07,1.51,1.88,0,2,1.13.23,6.23.53,13.37.83,19.38.08,1.72-.3,4.43,1.43,5.33,2.18-2.86.91-7.29.83-11-.38-11.72-.68-23.67-1.43-35.32-1.28-1-1.73-2.86-1.43-5.34,2.41,2,5.86,2.93,8.19,5-.41,5.39-.65,10.93-.81,16.6a.27.27,0,0,0,.28.3c.3,4.66.45,11.42-.3,14.88-.06-4,.1-8.2,0-12.13-.28,13.22-.1,27-.25,40.69-4.9-2.41-10-4.8-15.12-7.15h0c-.5-.24-1-.47-1.51-.69h0c-10.81-4.8-21.86-9.53-32.86-14.07v3.65l24.76,11,.19.08,2.12,1c.14,0,.27.12.41.18,1.45.62,2.9,1.26,4.33,1.92l.3.13,1.87.83.25.11,2.32,1,.22.1,1.42.64.34.15c3.53,1.57,7,3.15,10.47,4.73-.14,23.64.46,46.45.23,70.16-.79-.35-1.59-.7-2.38-1,.38,20,.51,40.14.51,60.36-.22.38-3.36-1.78-5.29-1.64-.59-19.44-.49-39.62-2-58.22-.41,7.16-.78,15-1.07,22.9h0c.6,9.76,1.8,24.5.82,35a1.62,1.62,0,0,1-1.25-.23,26.35,26.35,0,0,1-1,8.28c-1.09-.13-2.19-.27-3.28-.42h-.26a6,6,0,0,1-.94-.12h-.26q-16.63-2.25-32.83-4.88v2.77c11,2,22,4,32.7,6.35h.1l1.45.33h.18c1.18.26,2.35.53,3.52.81.68.68,0,2.71,1.42,2.56.52-.44.73-1.21,1.15-1.77.08-1.57.16-3.12.25-4.64v-.9c.37,0,.52.07.59.3-.06,1.51-.09,3.06-.12,4.65a2.66,2.66,0,0,1,1.78.11c-1.61,14.64-1.89,30.7-2.37,46.49,1.09,1-.55,4.83,1.22,5.19,1.19-.38-.45-3.68.6-4.81,1.86,0,3.21.53,5.3.3.6,18.56.08,38.24.23,57.25-1.56-.45-3.66-.38-5.3-.83.52-15.63.59-33.06-1.05-47.41-.82,12.85.45,28.7.53,42.9,0,1.28.67,3.61-.83,4.51-.91-16.09-1.63-36.9-2.65-52.2-.8-.12-1.61-.22-2.47-.27.08,1.33.17,2.67.25,4l.13.15-.12.06c.88,14.87,1.3,30.87,1.5,45.46-1.7-14-1.11-30.28-2.07-45-.64.81-.62,2.12-.74,3.06-.81,8.26.23,17.65.53,26.37.24,4.88.31,9.72.45,14.41.3.24.15,2.56.42,3.31a.67.67,0,0,1-.31-.1c.11,3,.28,5.92.56,8.75l-3-.09c0,1.08.1,2.25,0,3.23a5.57,5.57,0,0,0-1,0v0a.24.24,0,0,0-.17.19,19.8,19.8,0,0,1-.34-3.52l-2-.07a198,198,0,0,1,1,30.61c-.08,1.8-.53-3.23-.53-4.21-.44-9.3-.3-18.16-1.39-26.43-9.71-.34-19.6-.82-29.36-1.22v2.79c9.68.49,19.25,1,28.25,1.82.67,16.83,0,34.27,0,51.32,1.79-1.88.29-6.91,1.34-9.54a99.25,99.25,0,0,0,1.12,11c-9.94.34-20.33.89-30.71,1.38v3c10.76-.48,21.36-1.21,31.31-1.55.22,2.1-.68,5.33,1.34,5.63,1.21-1.12.23-4.5,1.13-5.93,2.54.23,6.13-.67,6.73,1.43.52-3.23,8.45.83,9.79-2.25-.6-1.65-3.51-1-4.49-2.25.3-7.67,1.27-15.55,1.94-23.82.6-7.36,2.77-16.91,1.64-24.42-.15-1.43-1.27-2.78-.82-3.38,2.91-.9,2.24,2.4,2.24,3.68,1.12,30.43-.6,62.81-.3,92a448.19,448.19,0,0,0-50.55,6.91v6.75c17.66-1.52,34.5-3.42,50.5-6.3a20,20,0,0,1,5.6,6.69c-17.85,3.53-37.45,6.14-56.1,9.38v5.2c22.71-3.28,45.14-5.79,66.19-10.89,1.73,1.73,3.82,4.51,4.41,6.46-4,.37-7.92,1.57-12,2.25-19.83,3.36-39.09,8-58.64,12v20.88c15.85-3.12,31.71-6.33,47.21-9.57.68.45.3,2.1,1.13,2.48.75-.6.07-2.63,1-3.08,6-1.2,11.52-2.86,18-3.61-.22,1.88.3,4.43-.3,5.86-22.67,4.1-45.8,9.54-67,15.37v2.21c8.29-2.11,16.62-4.19,25.16-6.08-1,4.06-.6,9-.3,13.75.15,3.23.15,6.91,2.24,8.19-1-6.61-.22-16.46-.9-22.47,14.29-2.4,27-6.38,41.12-9-.53,6.69-.22,14.28-.3,21.34-7.85,2.25-15.67,4.65-23.48,7.11l-.22.07-1.94.61-.16,0C34.49,1748,21.22,1752.35,8,1756.19l-1.38.39v1.59c2.3-.56,4.55-1,6.69-1.38-.15,3.71-1,8.37-.88,12.52v.41a8.39,8.39,0,0,0,.1,1.59.28.28,0,0,0,0,.13v.4a12.75,12.75,0,0,0,.71,2.91,31.33,31.33,0,0,0,.68-3.31A.93.93,0,0,1,14,1771h0a5,5,0,0,1,.08-.54c.07-.43.12-.87.17-1.32v-.42c.45-4,.53-8.38.58-12.79,11-3.25,21.81-6.64,32.71-9.92h.17l2.1-.63.19-.06c6.42-1.92,12.88-3.8,19.43-5.59l1.24-.34,2.84-.77c.15,11.49.3,20.81,0,32.23-15.85,4.66-28.26,14.35-43,19.08-.3-3.76,1.71-11.19-1.13-13.15-2.24,2.71-1,10.67-.6,14.28-7,3.42-14.41,6.52-21.76,9.62H7v2.43H7c22.39-9.29,44.5-18.85,66.5-28.57v13.75c-6.28,3.61-12.94,6.84-19.59,10.07-.3-4.14,2.61-11.73-.52-14-3.52,2.11-1.94,12.63-.6,14.88-15.13,8-30.67,16.15-46.13,24.44v7.23H7l-.32.17v2.26a31.58,31.58,0,0,1,17.89-3.26c-1.94,1.36-4.19,2.71-6.72,4.21-2,1.28-4.56,3.53-6.65,4a15.56,15.56,0,0,1-4.52.06v11.3a10,10,0,0,1,3.61.89c19.14-1,40,.9,60,.83-.3.9-3.14,2-1.94,2.55,2.15-.75,3.06-3.08,5.6-3.38,2.7-.3,6,1.51,9.49,1.13-.59,1.73-4.41,3-3.66,4.21,1.56-.6,3.14-3.38,5.6-3.91,1.28-.3,3.82.07,5.54,0,4.63-.22,13.37,0,20.4-.3,5.83-.22,17.27,1.43,17.86-2.55.91-5.71-10.23-5.64-14-6.69,34.46,2,68.77,4.59,103.31,7.29s71.31,1.73,106.37,4.51c-42.53.67-88.43-1.43-132-1.43-13.15,0-26.91-.68-38,.52-2.91.37-13.37-.45-12.86,3.38.37,2.78,12.63,3,16.44,3.38,42.68,4.51,86.86,5.86,130.44,8.42-29.38,0-60.17,1.43-89.1,1.43-8.09,0-16.21-.1-23.88.91l-1.1.15a15.47,15.47,0,0,0-2.72.17c1.66.24,3.34.45,5,.62,9.63,1,19.54.77,29.45.51,77.29-2.17,154.35,2.56,230.36,2.56,5.48,0,11.49.82,16.52-1.43-.8-2.34-3.58-2.27-5.46-2.64ZM49.33,1493.68c.08-9.61.08-19.23.53-29.15.3-6.68.9-14,.3-19.68-.15-1.58-1-1.88-1.13-3.31.83-.38,4.58.67,5-.9.75,17.66.52,36.14.6,54.47C53.91,1495.78,51.06,1493.83,49.33,1493.68Zm-7.06,114.5c-1.73-.15-2.63.52-4.43.3,2.63-9.69,2.4-22.31,3.08-34C41.9,1584.14,43.1,1596.31,42.27,1608.18Zm4-57.51c.45.52.38,1.5.53,2.25H45.64c.39-.53.31-1.58.61-2.25Zm-1.13,57.16c-1.2-17.5,2-34.11.52-51.91h.83c1.65,1.12.15,3.83,0,5.33-1.27,15,1.51,32.53,1.73,46.88-1.22,0-1.82-.53-3.1-.3Zm5-13.17c-1-11.57-1.28-25.7-1.13-36.74h.53c2,.6,2.1,2.71,2.25,4.51,1,10.22-1.56,22.31-1.63,32.23Zm7.28-232c-.67-3.9-.07-11.49-.3-16.83,1,4.09.4,11.33.32,16.81ZM62,1236.92c1.27.68-.91,1.8-.83,3.08C60.37,1239.13,61.64,1237.77,62,1236.92Zm.3,5.56c-1.13-.23,0-1.13.23-1.65.67-.58-.31,1.15-.23,1.68Zm309.67,553.73c-.67,2.33-5.56,4.13-8.11,5.86-2.09,1.4-3.82,3-5.54,4.18a11.39,11.39,0,0,1-2.65,1.46c-.05-4.82-1-14.48-1-14.48h0l.74-5.54v-.09l.26-1.85v-.19s0-2.12-.05-6h0c-.27-33.93-1.58-202.59-1.61-293a5,5,0,0,1,.66-.1v-.06c-.34-2-.58-5-.75-7.49v-.27c-.17-2.39-.25-4.23-.25-4.23v-.49c.23-10.45.62-28.35.84-38.43v-.06c.1-4.49.16-7.41.16-7.41h0s-1.35-33.89-2.1-50.51c-.22-4.88-.45-10.22-.82-14.28,6.68,6.47,13.67,14.2,19.9,20.14-1.2,83.48.15,172.06.6,257.94.23,47,0,94.44,0,142.3,0,4.52.62,9.48-.28,12.63Zm-9.54-464.78c-3.76-5.25-7.81-10.36-11.19-15.93,7.66,10.45,16.07,20.14,23,31.41-4.55-4.63-8.06-10.12-11.81-15.45Zm-11.5-12c.22-.08.22.07.3.3,4.73,6.54,9.54,13.37,14.57,19.91,1.51,2,3.69,3.91,4.21,6.46-2.93-.75-3.83-4.13-5.33-6.16-4.5-6.46-10-12.54-14-19.68.33-.07.18-.52.25-.82Zm.76-16.14c0-1.51.1-3,.07-4.67a6.06,6.06,0,0,1,1.67-1.27l.7-.36c.81-.38,1.66-.72,2.44-1.15a33,33,0,0,1,3.57,3.52c8.68,9.83,12.39,24.58,13.78,41.63-6.9-10.35-14.85-19.65-22.42-29.4h0a1.37,1.37,0,0,0-.77-1.37h0a27.31,27.31,0,0,0,1-6.78Zm-5.94,16.51c.46-.5.9-1,1.27-1.47l.33-.48c.17-.27.35-.55.51-.84l.09-.16.29-.52c.16-.26.29-.52.42-.78s.24-.45.35-.69l.05-.11c.14-.29.29-.57.42-.87s.27-.61.39-.93l.07-.15V1315l.31-.6c.1-.2.19-.4.29-.61v5.39a4.17,4.17,0,0,1,0,.5v.63c0,.21-.07.65-.12,1s-.06.47-.1.71h0c-.06.36-.12.72-.19,1.08s-.16.84-.24,1.27c5.39,7.5,11.11,14.75,16.56,22.2.3,9.39.37,18.48.6,27.2-.9.68-1.43-.9-1.95-1.35-4.73-4.51-10.21-10.22-15.17-14.58-.82-9-.84-19.93-.83-29.53a2.68,2.68,0,0,1-.11.55c-.06.39-.13.78-.19,1.18v.1a1.19,1.19,0,0,1-.06.4.17.17,0,0,1,0,.1.48.48,0,0,1,0,.17c0,.34-.08.67-.11,1a160.1,160.1,0,0,0-.67,18.84c0,.61,0,1.22,0,1.82v.67a12.46,12.46,0,0,0,.05,1.37v.54c0,.65.06,1.28.1,1.91v.67c0,.49.07,1,.1,1.47v.28l.78.09c0,1.46-.17,4-.25,5.3h0l-.05.92h0s0,10.63,1,16h0c-.05,1.38-.11,2.75-.16,4.14h0v.06c-1.81,50.26-1.74,101.59-1.34,153.4h0q0,6,.1,12v.07c.67,81.93,2,164.9,2,246.41,0,4.81.3,11.42-1,12.92a3.7,3.7,0,0,1-2.49,1h0c-2.63.21-6.22-.91-9-.48-.23-73.71-.53-148.24-.53-222,0-73.48.3-149.67-1.95-220.82-12.77-2.55-42.36-2.64-42.36-2.64H202.18s-15.24.84-22.68,1.22c-5.93.25-12.07-.59-17.55.8l-.62.17a15.58,15.58,0,0,0-2.64,1c-.42,2,1.29,1.72,2.43,2.08a1.76,1.76,0,0,1,.58.29,1,1,0,0,1,.37.71l-.44.2c-.23.11-.43.22-.62.33-1.37.83-1.77,1.83-2,4-.82,8.64.08,18-.3,26.9,0,.9-.07,1.79-.1,2.69-.14,4-.23,8-.3,12-.38,22,.17,44.71.35,66.73l1,107.74v1.28q-.07,18.11,0,36.18c.2,60.16.89,119.83,1.88,178.42-6.16.23-11.41-.37-17.42-.3-.53-61.11-.57-123.34-.7-185.79v-4.76c-.17-86.22-.54-172.84-2.59-257.51v-.38c0-1,0-2-.07-3,0-.45,0-.82.3-.91,7,0,14,.13,21.16.2h.62c39.18.47,119.7,1.84,119.7,1.84h.06l4.38-.13h0c3.39-.09,8-.19,10.86-.19,9.11,0,18.2,0,27.15.25,6.23.19,12.39.52,18.46,1.11-.1-.15-.21-.3-.3-.45s-.16-.23-.23-.35-.2-.3-.28-.45-.13-.22-.19-.33-.26-.5-.36-.73l-.11-.3a1.77,1.77,0,0,0-.08-.33c0-.11-.06-.31-.08-.48a4,4,0,0,1,0-.49,4.18,4.18,0,0,0-.16-1.06v-.13c.12-.06.12-.11.13-.17s0-.26,0-.39.45-.51.7-.67v-.54a23.53,23.53,0,0,1-.87-4.62c0-6.54.46-13.75.23-20.44.06-.26.45-.23.57-.45h.17a3.51,3.51,0,0,1-.14-.84,2.4,2.4,0,0,1,.08-.76,3,3,0,0,0-.94-.18v-3c.43.07.79.07.86-.21.48.09.58.58.55,1.18.07-.08.13-.18.21-.27l.49-.58a.52.52,0,0,1,.1-.11c.22-.25.46-.5.72-.76a4.68,4.68,0,0,1,.38-.39c.24-.31.5-.57.75-.84Zm-.35,495.56a2.69,2.69,0,0,1,.73.18h-.86c-6.25-.21-12.58-.42-19-.5,5.79-.29,13.9-.85,19.13.34Zm-207.41-20.53c-9.31-1.81-21.63-.6-29.44-3.91.08-1.28.53-2,.53-3.38,2.93-.23,6.39.22,8.19-1.13-1.35-3.08-5.48-1-8.41-2-2.11-.68-2.26-3.23-4.21-3.38,8.56-1.13,18.7,1,26.89-.53-6.38-1.88-15.54-.9-23.28-1.43,2.78-1,7.21-.46,10.14-1.43-1.5-.83-3.9-.76-6.23-.83,1.5-2,4.21-3.76,3.38-7,5.33-1.8,14.57-2.63,12.39-10.14,2.93-2.63,5.26-5.86,9.53-7.28C138.64,1765.53,137.64,1780.85,137.94,1794.83Zm-34.23-43.52c.15,1-2.18.53-2.48.3-.08-1.8.15-7.06,2.48-6.47.3,2.18-1.42,2.33-1.35,4.21C102.13,1750.71,103.64,1750.26,103.71,1751.31Zm-14.28,3.39c-.37-4.36,1.81-6.09,3.91-7.89,1,.14.23,2.1,1.13,2.25,1.2-.75.38-3.53,1.42-4.5,1.58,4.13-2.7,4.66-2.85,7.89.07.22.3.3.3.6,1.73.3,1.88-1,3.08-1.13-.3,1.2.9,1.58.3,2.18-1.81.15-3-.22-4.21,0C94,1755.15,90.48,1754.55,89.43,1754.7Zm-6.15-13.78c-1-2.63-.38-6.39,1.65-7.59C85.64,1736.07,84.86,1739.67,83.28,1740.92ZM81,1754.36c.53-.75,0-2.63.53-3.38.6.08.08,1.28.83,1.13a7,7,0,0,1,2.26-4.19c1.19,3.46-2,4.89-3.62,6.47ZM74.27,1342.1c-.83-.37-.68-2.85-.3-3.61.67.71.15,2.51.3,3.64ZM74,1283.8a18.87,18.87,0,0,1,.3-8.19,12.73,12.73,0,0,1-.3,8.22ZM69.47,1432c1.28,4.66,1.13,9.85,1.13,14.88.22,35.61,2.4,72.21,2.25,108.57.07.53-.23.6-.3.3-2.11-40.27-3.16-81.6-3.91-123.22v-.83c.46-.05.53.26.83.33Zm-.54-7.88a9.69,9.69,0,0,1,1.43,5.63c-1.5-.87-1.58-3.13-1.43-5.6Zm3.38-187.16c.38-.68.45-1.58.82-2.25a2.88,2.88,0,0,1,.83,2.25Zm.83-13.2c.15-1.58,2.33-3.45,3.08-5.33.83.45.53,2,1.13,2.55C76.29,1222.14,74.19,1222.44,73.14,1223.72Zm3.68-13.45c-.3.6-1.43.53-1.73,1.13-.52-.38.9-2.1,1.73-1.13Zm.53,19.38c1.27.76-1.13,2.48-1.13,3.91-2-1.27.42-2.93,1.13-3.91Zm-3.61-22.46c.6-3.23,2.85-4.81,4.43-7.06.15,2,1.28,2.93,2,4.28a34.89,34.89,0,0,1-6.43,2.78Zm5.56,190.54c.45.15.75,6,.6,7.29-.3,2.1-.52-3-.6-3.91,0-1.19.07-1.72,0-3.38Zm.6-45.56c-.9-.08-1.05-1.73-.6-2.25h.9c.15,1-.56,1.2-.3,2.25Zm-1.13,18.89c-1.12-.37-.37-2.48-.3-3.38.68.6.17,2.33.3,3.38Zm-.59-44.33c.07,1,0,5.56-.23,2.78a10,10,0,0,1-.3-3.08c.3,0,.53.07.53.3Zm-.83,35.09c-.83-2.18-.38-5.56-.83-8.11,3.61,1.12,1.36,5.1.83,8.11Zm.82,55.3a5.91,5.91,0,0,1,1.73,1.65,64.89,64.89,0,0,0-.3,7.89c-1.2-.9-1.58-2.55-2.78-3.38,1.82-.68,1.35-3.68,1.35-6.16Zm1.47,30c0,29.9.9,61.68.9,91.51,0,9.92,1.58,19.61,0,28.93-1.65-25.4-1.65-53.42-2.55-79.72-.53-14.6-1.21-28.72,1.65-40.74Zm3-241.33a4,4,0,0,1-2.25.6,1.54,1.54,0,0,1,2-.75l.22.13Zm-2-4.74c2.41-1.35,5.19-2.33,7.59-3.68.68,0,.3.23.3.6a45.36,45.36,0,0,0-6.46,4.73c-.52-.47-1.27-.78-1.35-1.67Zm9,144.89h.83c-.3.37-.3,1-.6,1.35-.51,0,0-1-.14-1.37Zm.23-27.3a15.58,15.58,0,0,1,0-6.16,10.06,10.06,0,0,1,.09,6.14Zm0,91.74c2.56,3.08.15,9.46.9,14.35-3.38-2.18-2.47-8.57-2.85-13.75.91-.06,2,.21,2-.62Zm2.85,4.5c1.06,3.46.3,8.87.53,13.15-1.18-3.32-.13-9-.44-13.17Zm0,15.7c1.81,3.38.3,10.15.83,14.88-2.08-3-.91-10.69-.74-14.9Zm0,16.31c.38.08.45.46.83.53.15,27.58,1,56.88,0,84.23-.15,3.6.52,7.59-1.13,10.89-2.61-32,.62-63.74.4-95.62Zm16,209.33c.75,2,3.07,4,3.6,5.33-7.66-.46-14.94-1.36-22.68-1.73a18.39,18.39,0,0,1-.6-3.61c4.53-2.2,13.39-.24,19.78,0Zm-13.22-87c.23.15.53.22.53.6a80.41,80.41,0,0,1-.23,8.64c-.58-1.46,0-6.42-.16-9.27Zm1.22-336.3a2.47,2.47,0,0,1,.53,2C96.5,1234.92,96.8,1233.79,96.72,1232.92ZM98.15,1398a.4.4,0,0,1,.53.22c1.95,36.74-.3,73.18-.3,109.47,0,17.88,1.13,35.84,2,53.57.37,9.17-.15,18.41.22,27.58.52,13.37,1,26.37.6,40.12.08.45-.3.53-.3.23.15-21.79-.45-47.26-1.65-67.92-.23-3.08.52-9.76-1.13-11.19-.38-.3-1.88.6-1.43-.83,0-51.32,1.23-101.62,1.46-151.21Zm1.49-95.68v4.81c-.83,0-1.36.3-1.13,1.35-1-.15.83-2.1.83-3.08S99.26,1300.21,99.64,1302.31Zm.17,50.79c.67,7.06-1,14.13-.83,21.64.08.46-.3.53-.3.23C98.23,1367.68,97.92,1358.92,99.81,1353.1ZM99,1242.81c-.53-1.13-1.28-3.31-.83-4.51C98.64,1239.5,99.43,1241.61,99,1242.81Zm-1.34,401.11v1h-1v-1Zm-.62-4c1,0,1.28.6,1.13,1.73C96.64,1641.84,96.57,1640.79,97,1639.92Zm0,8h1.35c-.23,2.11.38,4.66,0,5.94-.82.15-.82-.53-1.65-.3C97.17,1652,97,1649.92,97,1647.92Zm0-21c.08-2.41.08-4.89.23-7,.38,3.46,1,10.45.3,14.88-1.73-.69-.68-5.73-.53-7.83Zm6.16-140.8c.6,6.53.07,17.13.3,25.24-.67-6.56-.15-17.08-.3-25.19ZM105,1649.68c-.3,1.2-2.18.82-2.25,2.25a1.53,1.53,0,0,0,1.62,1.43h0c-.38.52-2.4.3-2.78,0v-5.63c.82.37.67,1.73,1.35,2.25,1,.2,1.35-.18,2-.25Zm-1.54-314.88c0-4.81,0-15.33.23-21a206.28,206.28,0,0,1,0,23.59c-.23,4-.23-.66-.23-2.54Zm3.91,318.79c-.3.68-1.8.15-2.55.3.6-.33,1.87-.78,2.55-.25Zm30.12,96.85c-4.88,2-9.23,4.59-16.22,4.51q.36-22.46,1-44.64h0c.1-3.75.22-7.5.34-11.24,4.28-1.28,9.84-1.2,12.92-3.61-4.51-1-8.86.6-12.92,1.13v-12.1c4.44-1.28,9.24-2.18,14.05-3.08.68,1,.08,3.31.28,4.81-5,.68-10.74.45-14,2.78,1.65,1.88,4.58.15,6.76-.3,2.48-.52,5.11-.75,7.29-1.35q.06,7.38.14,14.73h0c.16,16.09.41,32.07.36,48.41Zm-25.39-17c-.09-5.75,0-11.66.19-17.62h0c.42-15,1.31-30.32.94-44.92h1.13c1.51.46-1,1.21-.52,2.56,2,4.44,1,13.23.52,23.52-.24,6-.33,12-.47,18h0c-.09,3.47-.19,6.94-.36,10.39-.15,2.66,1.09,6.18-1.43,8.14Zm-11.71,3.23c-.75.52-1.65.82-2,1.65-1.06-2.48.45-4.73,1.73-5.86.57.9,0,2.93.27,4.28Zm-.61,4.21c1.88,1.87-1.2,3.45-1.65,4.73-1.2-2.11.75-3.61,1.65-4.69Zm.61,7a8,8,0,0,0,.22,3.38c-.83.68-2.25,0-3.08-.3.6-1.3,1.09-2.8,2.86-3Zm-1.77-17.3c-1-1.58,1.27-2.18,1.43-3.38a.4.4,0,0,1,.51.25.43.43,0,0,1,0,0C100.71,1729.23,99.21,1729.45,98.64,1730.58Zm1.24-7.7a2.45,2.45,0,0,1-1,.94,2.49,2.49,0,0,1-.09-.37v-.09c-.6-2.47-.23-6,1.54-6.83.87,1.45.58,4.5-.4,6.2a1.28,1.28,0,0,1,0,.19Zm-6,3.31a8,8,0,0,1-2.86,6,7.16,7.16,0,0,1-.1-4.39v-.12a8,8,0,0,1,2.31-3.6,4.4,4.4,0,0,1,.6,2,.25.25,0,0,1,.12.11Zm-.31,16.4c-1.58.68-2.1,2.26-3.68,2.86-.3-3.38,2.18-4,3.38-5.94.75.53.22,2.18.37,3.08Zm-.29-8.41c.82,1.8-1.8,2.48-2.48,3.68-.46-1.5,1.94-2.32,2.55-3.68Zm-2-21c0-2.56,1.28-3.76,2.55-5,1.17,2.41-1.09,4-2.44,5Zm0,9.84a6.9,6.9,0,0,1,2.25-7.59c1.39,2.3-.26,6.49-2.14,7.56Zm.3-17.13c-.3-2.48,1.73-2.71,2.48-4.21,1.24,2-1.62,4-2.37,4.18Zm0-5.34c-.68-3.23,1.8-3.38,2.48-5.33,1.84,2.14-.79,4.62-2.37,5.3Zm.23-6.76c-1.43-3.45,1.5-5,2.85-6.69,1.47,3.43-1.54,4.82-2.74,6.66Zm-.53-7.51c-.68-4.21,2.7-4.21,3.68-6.76,1.39,3.65-2,5-3.57,6.73Zm2-9.32c-1.2-.9,1.66-1.88,2-3.08.76,1.32-1.19,2.3-1.94,3Zm-2-3.61c-.45-1.35,1.5-2.63,2.78-3.08-.42,1.32-2,1.7-2.67,3Zm-.82-6.4h1.65c.11.72-1.7,1.33-1.54,0Zm5,65.91c-.08-.75.45-.9.53-1.43.81.2.44,1.7-.35,1.4Zm.3,7.81c-.53-.59-.38-3,0-3.61.67.58.52,2.86.14,3.58Zm-5.94-76c.3-1.2-.6-1.88,0-2.55,8.33,1,19-.45,26.36,1.43-.67.3-.82,1.2-1.35,1.65-1.27.14-2.25,0-2.55-.83-3.38,1.88-9.61.38-14,.6.23-.67.6-1.73,0-2.25a11,11,0,0,1-8.32,1.89ZM110,1722.75c-.22,5.19,1,11-1.65,13.75.45-5-1-13,.3-18.26a1.15,1.15,0,0,1,.11-.31.54.54,0,0,1,.07-.13c.34-.68,1-1,1.17-1.73.22-.08.3.07.3.22v.76a50.59,50.59,0,0,1-.16,5.64Zm-.53,20.51c.6,1,.07,3.23.3,4.73a17.06,17.06,0,0,1-2,.6c-.34-2.84.84-4.11,1.84-5.39Zm-1.73-1.43c-.07-1.43,1-1.65,1.43-2.48,1.71.69-.39,2.27-1.29,2.42Zm2,8.12c.15,1,.83,2.78.53,3.38-.83-.38-2.33-.08-2.78-.83v-2a6.08,6.08,0,0,1,2.37-.58Zm.88-60.34c-2-1.28-1-5.18.52-6.16a.28.28,0,0,1,.3.26v0c-.15,4.36,0,10-.3,15.18-.07,1.65.15,4.28-2,4.43.7-4.57-.43-10.73,1.6-13.81Zm.52-7.28c-1-.3-.75.75-1.65.6.15-4-.3-8.57.3-12.1.82-.22.75.53,1.65.3,0,3.63.5,8-.18,11.14Zm-.52,22.16c-.23,2.55,1,9-1.43,10.14-.4-3.29-.7-8.77,1.55-10.2Zm.83,33.13c.52-.6.82-1.35,1.43-2a56.38,56.38,0,0,1,0,12.32c-2.89-.69-.63-7.37-1.27-10.38Zm-8.42-27.19c-.82-2.63-.15-6.16,1.43-7.29,1.32,1.9.27,6.25-1.31,7.23Zm-.3,9.54c-.75-2.78-.3-6.69,1.43-7.89,1.17,1.9.72,7.15-1.31,7.84Zm0-18.79c-.3-2.55,1-3.3,2-4.51a3.21,3.21,0,0,1-1.49,4.29,3.52,3.52,0,0,1-.39.16Zm.6-6.76c-1.12-1.8.9-2.78,1.35-3.91,1.85,1.29-.7,3-1.23,3.85Zm0-5.33c-1.27-2.56.75-4.28,1.65-5.64,1.1,2.27,0,5-1.53,5.58Zm.16-6.84a7.16,7.16,0,0,1,1.65-6.24c.15-1-.82-.83-1.65-.83v-4.26h2.78c-.41,4.13,1.17,10.44-2.66,11.27Zm3.15,27c.52,2,.6,5.94-.53,7.29a31.4,31.4,0,0,1,.65-7.3Zm-.23-3.08a25,25,0,0,1,.53-6.46c.42,1.49,1.09,5.77-.41,6.45Zm.83-7.89c-1-.6-.6-3.76,0-4.51.65.89.5,3.6.12,4.5Zm0-7.81c-1.35-.38-.15-2.48.3-2.86.65.52.5,2.62-.18,2.85Zm0-5a78.9,78.9,0,0,1,0-14.58h.83c0,5,.34,10.55-.71,14.61Zm-8.11,19.23c-.3-1.88.67-2.63,1.35-3.61,1.62,1,0,3.57-1.23,3.64Zm0,9.84a7.19,7.19,0,0,1,1.35-7.06c.87,2.51.5,6.19-1.23,7.09Zm.52-16.6c-1-1.35.53-2.56,1.13-3.31,1.17,1.46-.41,2.66-1,3.34Zm.3-5.56c-.82-1.43-.15-3.69.83-4.21,1.62,1.08,0,3.64-.71,4.24Zm-.3-7.59c0-2.1.3-3.83,1.43-4.81.79,1.68.53,4.84-1.31,4.84Zm.6-7.29c-.82-1.65-.22-4.28.83-5,1.17.9.27,4.42-.71,5Zm-4,30a6.24,6.24,0,0,1,.6-2.48c.59.38.76,2.9-.46,2.49Zm0,9.84c-.67-1.42.08-3.83.3-5.34.59,1.22.74,4.52-.16,5.35Zm.6-16.53c-.75-.6-.07-2.1.23-2.55.89.53.36,2.26-.09,2.56Zm.23-5.63c-.53-.68-.38-3,.3-3.38.82.84.37,2.86-.16,3.39Zm0-7.29c-.68-1.12-.23-3.61.6-4.21.74,1.14.52,3.77-.46,4.24Zm-.23-7.59a5.1,5.1,0,0,1,1.13-4.21c.74,1.29.63,4.3-1,4.22Zm.53-7.29c-.83-.82.15-2.25,1.13-2.25.44,1.44-.69,1.44-1,2.26Zm8.41,61.76c.6.68.3,2.86,0,3.61a6.34,6.34,0,0,1,.14-3.6Zm-.18-2.85c.45-1.8,0-4.43.6-6.16C106.71,1727.35,106.94,1731.1,105.64,1731.92Zm0,10.67c.68.15.23,1.5,0,1.73-.58-.14-.13-1.5,0-1.72Zm-.15,8.32h1.15v1.65c-1.2.24-1.2-.64-1.13-1.64Zm1-27.41c-1.27-.45-.07-1.88-.3-3.08,1.5.39,0,2,.37,3.09Zm7,31.19c-2.18-.08-8.64,1.72-8.71-1.43,2.61,1.06,5.77-.06,8.77,1.44Zm-1.56-1.13c.07-1-.83-5,1.65-4.51v4.87c-.54,0-.76-.57-1.59-.35Zm2.68-5.34c.34-11.16.83-22.72,1.24-34.24v-.1c.34-9.32.61-18.59.71-27.64.53,8.86.41,18,.18,27.15v.1c-.33,12.84-.88,25.63-.18,37.51,1.43-3.9.83-12.25,1.13-18.48.07-1.28,1-4.44.6-5.34.75,1.35.23,3.9.23,5.63,0,6.24-.38,14.81-1.13,21.87-3.62.24-2.75-4-2.75-6.45Zm2.26-83.09c.22-.76-.38-.68-.3-1.36a4.81,4.81,0,0,1,2.85,1.13c-.24.61-1.78.09-2.49.24Zm1.7,47.34c0,2.26-.12,4.68,0,6.6a31.36,31.36,0,0,1-.27-6.42v-.1c0-2.06.11-4.19,0-5.88a25.87,25.87,0,0,1,.28,5.7ZM120,1680c.53-.75.22,1.65.3,2.25-.47.76-.17-1.65-.24-2.24Zm16.68.28c-5.34,0-9.47,1.21-14,2v-3.37c4.8-1.12,9.38-2.63,14.35-3.61-.09,1.61.36,3.79-.24,5Zm.44-6.67c-4.88.6-10.06,2.4-14.34,2.78,3.38-2.33,9.31-2.33,13.22-3.91a1.32,1.32,0,0,0,.52-.6c1.11-.22.51,1.13.66,1.74Zm0-7.9a64.55,64.55,0,0,0-11.49,1.65c.08-1.65-2-1.2-2.85-2-.68-5.86-9-4-10.37-9.24.38-.38,1.35-.15,1.43-.83-.75-1-3.23-.37-3.08-2.25,8.94-1.27,17.35-3,26.36-4.21.13,6.14-.09,11.41.06,16.89Zm-48,41.26c1,1.13-.3,2.48-.83,3.08-.91-1.14.4-2.47.9-3.07Zm0-6.17a3.35,3.35,0,0,1-.83,3.91,3.19,3.19,0,0,1,.9-3.9Zm0,12c.75,1.65.22,4.36-1.43,4.51a5.37,5.37,0,0,1,1.5-4.48Zm0,7.59c.75,2,.37,5.41-1.13,6.16-.61-1.92-.38-5.38,1.2-6.13Zm-1.43-23c.08-1.8-.38-4.21,1.73-3.91.37,2.07-.16,4.55-1.66,4Zm1.13-8.41c-1.66-.15-.53-2.71,0-3.08,1.12,0,.87,3.12.07,3.12Zm1.42-36.52c-3.08.38-2.7-2.93-3.08-5.34,1.36.15,3.31-.22,4.21.3-.31,1.77-.23,3.88-1.06,5.08Zm-9.19-3.3c-.23.82.45.82.3,1.65-1-.53-.75.15-1.73.3v-1.73c.74.19.67-.47,1.5-.18Zm-.87-76.12c.6.15.23,1.51,0,1.73,0,3.2-.61-.93.07-1.69Zm1.42,80.87c.45,1.65,1.13,4.51.83,5.86C81.4,1658.6,78.47,1654.24,81.55,1653.92Zm.3-34c-1.43-2.11,1.88-3.76,2.55-5.64-.15,1.57-1.76,3.9-2.55,5.7Zm1.43-73.48c-.9-27-.75-56.35-.3-83.7-.34,28.23.52,56.64.3,83.76Zm0-270.56c.61,2.4.08,8.49.23,12.32-.61-2.34-.08-8.43-.24-12.28Zm.23-14.57c1.13,1,.38,3.45.3,5-.68-1-.08-3.39-.31-4.94Zm1.13,55.61c-1.88-1.5-1-6.76-.83-9.54C84.93,1309.75,84.48,1313.66,84.64,1316.92Zm.3-36.44c1,.15.45,2.1.3,2.78-.68-.41-.16-2-.31-2.81Zm2.55,170.63c-2.62-2.26-1.35-8.49-1.73-12.92,2.47,2.3,1.19,8.46,1.72,12.89Zm.23,11.72c.67,14.58,1.2,31.11.6,44.63-2.93-16.23-1.8-36.59-2.26-55.23.38.08.45.46.83.53,1.57,3,.67,6.58.82,10Zm3.16-21.57c-2.11-.45-1.35-3.08-1.43-5-.23-3.38-.68-7.14-.6-10.45,3.6,2.2,1.34,10.24,2,15.42Zm-.1,13.45c-1.58-.82-.82-3.45-.9-5.33s-.53-3.68-.23-5.33v-.83c2.17,2,.59,7.7,1.12,11.46Zm-5.85,179.21c-1.65-5.34,3.91-7.51,5.33-11.5a18.68,18.68,0,0,1-.3,11.5Zm.31,71.11c.52.83.45,3.45-.83,3.38C84.25,1706.83,84.41,1705.63,85.24,1705Zm3.6-127.43c2.18,8.19-3.31,11.27-6.16,15.48,0-6.16,4.5-10.07,6.16-15.48Zm-3.08-3.08c-.08,1.51-1.8,3.84-2.48,5.64C82.45,1577.75,84.18,1575.42,85.76,1574.52Zm2.55-5c-1.65-3.23-1.5-9.69.83-11.8.3,0,.23.38.3.53-1.06,3.13.82,9.06-1.13,11.24Zm1.12,28c1.13,8-5.18,11-7.58,16.3C83.73,1608.92,87,1602.85,89.43,1597.52Zm-4.79,28.09c1-3.9,3.83-8.33,5.33-12.62C92.29,1619.15,86.36,1621.55,84.64,1625.61Zm5.1-79.11c.15,4.28.38,7.59-2.85,9.54.6-4.51-1.2-11.35,1.13-14,.15-1.27-1.5-.75-1.35-2,.15-11.35-.45-21.87-.31-33.14.75,1.28.68,3.46,2.48,3.61.66,10.59.36,25,.89,36Zm-3.1,24.35a14.52,14.52,0,0,0-2.85,2.85,16.33,16.33,0,0,1,.6-7.88C85.37,1567.24,85.37,1569.65,86.64,1570.85ZM83.8,1354.53c1.35,0-.08,1.12.3,2-.6-.2-.15-1.47-.29-2Zm1.72-64.31c-1.28-.53-.15-2.41,0-3.31.54.53.31,2.78,0,3.31Zm-.6,36.22c.45,2.32-.07,6.16-.3,8.71a12.33,12.33,0,0,1,.31-8.71Zm3.91,261.84c-1.21,4.73-4.81,9.54-6.69,14.57-1.72-7.66,4.14-10.22,6.7-14.57Zm-3.9,136.64a6.62,6.62,0,0,1-1.65,7C82.64,1729.6,84.64,1727.35,84.93,1724.92Zm-.52-3.68c.37-1.28-.08-3.38.83-4.21.52,1.15.45,4.08-.83,4.23Zm.52-7.51c-.68-.53-.22-2.26.3-2.55.68.54.15,2.27-.3,2.57Zm.6-76.83h2c.11,1.07-2.22,1.37-2,0Zm.22,2.45c.6.14,2-.46,1.73.52-.6-.13-2,.47-1.73-.5Zm5.19-173.72c0,.68-.38.45-.3,0v-9c.3.08.22.6.6.6.15,3-.22,5.69-.3,8.42ZM87.18,1357c-.75-3.31-.07-7.66,0-11.2,1.65,2.5.83,8.59,0,11.22Zm-.3,79.42c-2.4-3.08-1-10-1.35-15.1,1.72,3.77,1,10.09,1.35,15.12ZM85.53,1416c1.06-.23.3,1.5.53,2.25-.9,0-.42-1.4-.53-2.23Zm.53-58.08c-1.13-.3-.23-1.43-.3-2.25.68.17.15,1.59.3,2.28Zm-.3-103.31c-1.05.07-1.05,1.12-1.35,2-.6-1.27-.52-4.35.83-4.73.3-1-1.06-.45-.83-1.43a2.61,2.61,0,0,0,.82-2c1.21,1.07.23,4.23.53,6.18Zm-2.26-34.43c-.67-.29-.75-1.27-.83-2.25H84.4c.15,1.22-1,1.14-.9,2.27Zm4,528.06c-.75-1-.3-3.23.53-3.68,1.25.62.43,3.55-.55,3.7Zm.83,6.69H86.88c-.3-3.44,2.63-3.82,1.43,0Zm-.6-14c-.83-.61.83-1.06.9-1.65.81.57-.84,1-.92,1.67Zm0-5c-.68-2.09-.38-5.59.88-6.74h0c1.2,1.59.68,6.07-.9,6.76Zm9-11.26a4.08,4.08,0,0,1-.6,1.94,4.55,4.55,0,0,1-.28-1.45v-.1a20.14,20.14,0,0,1,.58-4.31,9.79,9.79,0,0,1,.31,3.81.71.71,0,0,0,0,.12Zm1,27.28a31.6,31.6,0,0,0,5.86,1.13v1.65c-2.1-.15-4.06-.37-6.16-.6C97.18,1753.72,97.48,1752.52,97.78,1751.92Zm4-10.44a5,5,0,0,1,1.73-4.21c1.56,1.42-.32,4-1.75,4.2Zm.3-6.69c0-2.85.3-5.33,2-6.46.61,2.32.61,6.45-2,6.45Zm.52-8.19c-.9-1.42.9-2.63,1.43-3.61a.48.48,0,0,1,.6.3c.13,2-1.15,2.4-2,3.3Zm50.71-403.32c0,.67-.45.82-.3,1.65h-1.37v-2c.67,0,1.35,0,1.65.34Zm.36-3c.38.9-1.65.75-1.65.3-.47-.91,1.62-.76,1.62-.31Zm-1.94,7.65h1.1c1.27,6.53.23,15.44.53,23h-2.72c-.12-8.1,1.14-14.92,1.07-23Zm-1.66-7h-2a.81.81,0,0,1,.42-1.07l.09,0h.14c.67-.23,1.65.14,1.33,1.09Zm-1.18,24.71v.07c-.08.81-.15,1.56-.23,2.24v.07a.11.11,0,0,1,0,.08v-5.95c0-6.16-.22-12.17-.6-18a3.26,3.26,0,0,1,.6-1.26h1.43s-.45,14.21-1.22,22.74Zm-1.23,3.87v-.65s.86-.46,1-.75v.75c0,.25-.09.76-.14,1.14-.06-.2-.88-.5-.88-.5Zm.84.53c-.05.38-.1.75-.16,1.12-1-.06-.23-.58.14-1.13ZM151,1811l.09-.14h0c1.22-.06,3.15.33,4.54.2-.15.08-.33.14-.52.24a2.3,2.3,0,0,0-.72.56h0a9,9,0,0,0-3.78-.58,1.08,1.08,0,0,0,.37-.26Zm15.67-433.92h.26c1.38.13,2.79.24,4.21.31h.53c10.79.55,22.8-.35,33.62-.35,14.38,0,29.28-.15,43.57-.3s29.2.07,43.58-.53c10.61-.53,21.15-.3,31.76,0,2.71.08,7.23.91,8.43-2.55v-.78h.83c-1.43,66.12.22,133.37,0,200-.38,1.43-1.95-.75-3.08,1.43-.61,1.13.75,4.89,1.13,7.59.9,6.92.45,13.53-2.87,17.36-4.29-4-5-17.36-1.35-22.69.22-.45,2.94-.45,1.35-2.85-1.88-2.93-5.57,1.28-6.47,3.38-1.2,3.08-1,7.44-1,10.37-.14,5.79,1.06,14.88,7,15.48,3.61.38,3.84-2,5.64-3.38-.07,70.78.75,140.65.83,211.28-53.06-1.28-106.79-1.88-160.52-2.48q-.17-9.15-.2-18.36v-2.13c-.16-46,1.34-92.47-.62-138.56-.76-17.73.53-35.46-.31-53-.83-16.76-.3-34.19-.3-51.62,0-48.32.76-98.73-1.35-145.69-.22-3.68.23-8-1.95-11.19-2.49,2.33-1.81,7.22-2,11.5-2.48,63.79-.53,132.31-.53,197.83,0,70.85-.9,142.08-.52,211-.6-35.39-.6-71.3-.6-107.44,0-35.91-.83-72-.83-108,0-72.73.53-145.46-2-216.09C164.18,1376.16,165.29,1376.92,166.64,1377.12Zm155,437.38c-.37.6-1.95.08-2.78.22C319.27,1814.12,320.84,1814.65,321.64,1814.5Zm-89.75-1.73c-1.73.68-4.74.08-7,.3,1.85-.68,4.75-.08,7-.3Zm-10.37.15c-3.15.68-7.58.15-11.19.3,1.28-.67,3.83-.08,5.56-.3Zm-12.09-1c-2.85.6-7,.07-10.36.23,1.13-.6,3.45-.08,5-.23Zm-13.74,0c-2.11.67-5.49.07-8.11.3,2.21-.65,5.59-.12,8.14-.3Zm-28-.6c-.45.67-2.18.15-3.08.3.46-.57,2.11,0,3.09-.27Zm8.22.81c1-.57,3,0,4.39-.24h4.51c-2.25.61-5.44.17-8.22.26h-.8ZM156.64,1323v2H155C154.77,1323.5,155.07,1322.59,156.64,1323Zm-1.56-2.4c.08-1,2.18-.75,1.65.53C155.83,1321.25,155.31,1321,155.08,1320.57Zm0,7.82c-.08-.45.23-.45.3-.83h.83a103.39,103.39,0,0,1,0,23.59c-2.33,0-1.43-3.31-1.43-4.81C154.78,1340.64,155.23,1334.1,155.08,1328.39Zm3.38-7.52c-.22-1.13,2-.53,2.25-.3.08.75-2,.75-2.25.35Zm2.18,2.79v1.41c-.37.36-1.26.22-2,.22v-1.93C159.38,1323.36,160.27,1323.29,160.64,1323.66Zm-1.95,4.16c.08-.52.23-.75.6-.9h.53c1.2,4.51.37,12.4.6,18,.07,2,1.65,5.86-1.43,5.93A147.57,147.57,0,0,1,158.69,1327.82Zm166.36,23h-.58c-37-1-75-1.56-112.46-2.46-15.1-.38-31.7-1.2-45.14-.3-.3-9.69.68-18.63.23-27-.15-.46.6-1.21.59-.53,51.34,1.11,103.63,1.35,155.79,1.64h1a240.78,240.78,0,0,0,.57,28.68Zm-162.68-30.58h.16c.79.06,2.11-.35,2.39.28.28,1-1.6,1.21-2.34.61a.69.69,0,0,1-.21-.86Zm.27,3.09h0c.7,0,1-.44,2-.31v2.55a6.4,6.4,0,0,1-2-.11c-.11,0-.2-.11,0-.19Zm8.44,27c1-.22,1.35.3,2.25.23-.15.44-2.55.74-2.25-.24Zm75.71,3.6h5.33a37.78,37.78,0,0,1-7.81.3c-4.51-.23-.83-.39,2.48-.31ZM173,1318c5.18-.75,10.81.45,16.52-.1h4.51c.68.62-2.7.4-4.2,1h-16c-.08-.91-.53-.84-.83-.91Zm-10.44,10v-.11h0a.49.49,0,0,1,.27-.44,3.93,3.93,0,0,1,1.6-.12H165c-.26,2.79-.36,5.72-.36,8.69h0c0,5,.26,10.12.36,14.88h-2.7c.19-6.08.34-12.22.34-18.49h0v-4.18a.33.33,0,0,1,0-.14Zm165-.28v-.83h.83c1.28.83.6,3.08.6,4.51-.15,6.46.53,13.75.53,20.44-2.85-.3-1.8-3.46-1.65-5.56.23-5.64,0-13.45-.26-18.56Zm0-4.39v-1.16c1,.24,1.16-.38,2-.3v1.46c-.95-.23-1.49.56-1.95,0Zm3,13.11v-9.55h1.65c-.83,2.93.6,4.81.6,9-1,0-1.3.47-2.2.55Zm2.82,3.6q.22,6.66.9,12.85h-2.85c-.3-4.2-.3-8.79-.3-13.45a7.37,7.37,0,0,0,2.3.6Zm-.77-16.15H331c0-1-.53-1.1-.3-2h1.95Zm4.55,21h-1.55v-5h1.27C337.47,1341.11,337.05,1343.3,337.19,1344.92Zm-.05,8c-2.85.6-1.27-3.23-1.73-5h1.43C337.37,1349.19,337.07,1351.3,337.14,1352.92Zm-.85-22c-.07,1.65.83,3.6,0,5-.82.22-1-.31-1.65-.23v-4.77Zm-1.65-2.35v-1.65h2v2A4.91,4.91,0,0,0,334.64,1328.57Zm2-4.62c-1.57.23-2.47-.3-2.18-2h2.18Zm1.34-2h2.66v2h-2.37c-.45-.15-.23-1.2-.29-2Zm2.66,25.67v5.3H339c.45-1.88-1.28-5.93,1.65-5.33Zm-.42-8.23c-.15,1.88.3,4.43-.3,5.86a1.83,1.83,0,0,0-1.35-.23c.38-2.1-1.28-6.1,1.65-5.66Zm0-2.26c-2.26.3-3.39-7.21,0-6.46.08,2.3-.67,4.4,0,6.43Zm-1.58-8.21v-2h2v2.48A4,4,0,0,1,338.64,1328.92Zm5.79-24.91c-1.73.23-5.26-.07-7.89,0,2.11-3.22,5.64-5,7.89-8.11.83,2.35-.15,5.43,0,8ZM343,1293.6a59.16,59.16,0,0,0-10.89,10.32h-3.38c3.68-4.36,8.64-7.44,12.62-11.5,1-.07.9.91,1.65,1.13Zm-8.11-6.64c2.18.3,2.7,2.33,4.5,3.08-5.26,4.13-9.69,9.17-14.57,13.75-2.47-.23-5.63.38-7.58-.3-1.28-.3,1-1.42,1.35-2,5.41-5,11.49-9.17,16.3-14.57Zm-2.77-1.55c-6.24,6.39-12.85,12.25-19.08,18.56h-6.76c-.23-1.13,1.27-1.66,2-2.26,6.53-5.64,14-12.4,20.5-18.26,1.2.55,2.18,1.38,3.39,1.91Zm-5.93-3.79c-5.86,4.81-11.79,10.52-17.95,16.53-1.35,1.36-4.36,5-5.86,5.34-2.18.53-4.66-.9-6.76-.3-.45-.6,1.27-1.88,2.25-2.78,3.08-2.71,6.68-5.49,10.06-8.42,4.81-4,9.84-8.19,13.52-12.62a34.53,34.53,0,0,1,4.74,2.2Zm-12.63-5.55c1.58-.15,3.91,1.28,5.63,2-9.61,7.89-18.4,16.61-27.49,25h-5.33c-.53-1,1.58-2,2.78-3.08,7.89-7.29,16.53-15.78,24.11-23.59,0-.38.15-.38.3-.38Zm-3.39-1.42c.45,1.2-3.08,3.53-4.43,4.73-7.66,7.06-15.24,16.68-23.28,23.59H275.1c-.22-1.13,2-2.18,3.16-3.38,8.48-8.27,18.4-17.81,26.36-26.9a16.86,16.86,0,0,1,5.55,1.91Zm-8.94-3.09c-8.11,11-19.68,21-29.44,31.41h-7.58c-1.2-.07.75-1.27,1.13-1.65,8.78-10.75,18.4-20.66,26.66-32,3.23.46,5.94,1.67,9.23,2.19ZM218,1302.92h-4c3.08-5.71,7.51-10.07,11-15.4,2.56,2.32,3,6.76,5.86,8.71,1.12-1.35,3.3-.45,5.33-.3a73.38,73.38,0,0,0-4.73,7H220.13c1.58-4.29,6.38-6.69,6.76-11.2C222.91,1293.3,220.36,1298.86,218,1302.92Zm-6.46.22c-2.56.22-4.21-.45-6.76-.23,5.56-7.36,11.94-13.9,17.43-21.34,1,.83,1.27,2.56,2,3.91a154.76,154.76,0,0,0-12.62,17.66ZM264.94,1288a35.86,35.86,0,0,1-5.76-.52c.08-2.29,3.55-7,.82-8-3-1-3.68,3.62-3.32,7.46h-5.53a78.3,78.3,0,0,0-.12-15v-.06c0-.5-.08-1-.12-1.46,1.25.45,2.35.93,3.52,1.47h.08l.14.06h0A39.81,39.81,0,0,1,269,1282.63,25.65,25.65,0,0,1,264.94,1288Zm-.2,5.89h-1.35c.15-.9,1.28-.9,1.35-2,1.28,0,.08,1.55,0,2Zm-30.63-21.69.83-.3h0a48.75,48.75,0,0,1,10.67-2.32v2.29c-.09,4.77-.41,9.31-.28,14.31-1.65,1-3-.23-5.33,0-.9-2.77-1.13-6.38,0-8.71-1.12-1.5-7.43-1.65-8.41.83-.07,1.58,1.95,1,3.38,1.13a30.42,30.42,0,0,0,2.78,7.06c-2.71.52-6.53.15-8.94,1.65,0-2.63-4.58-7.22-4.2-10.07.22-2.1,5.18-4.2,8.11-5.33.48-.2.92-.38,1.39-.54Zm1.48,18c-1.72.37-3.9.22-3.9,2.25-1.43.08-1.5-1.12-1.73-2.25,1.58-.39,4.36-1.07,5.68,0Zm3.91,5.93a54.6,54.6,0,0,0,7.88.3c-.75,2.18-4,4.29-5.33,6.69-3.23.23-5.93-.68-8.71,0,1.35-3.09,3.76-5.05,6.16-7Zm10.67.31c2.93-.23,5,.45,7.89.3a33.88,33.88,0,0,1-5.11,6.16H244c1.63-2.56,4.06-4.37,6.16-6.47Zm14.88.6a46.54,46.54,0,0,1-4.81,5.86H255c2.47-2.72,4-7.6,10.07-5.87ZM256.93,1265a217,217,0,0,1,32.22,4c-6.69,7.36-13,15.25-19.38,23,1-3.24,3-7.89,4.51-11.5,2.7-4.13,6.38-7.29,8.71-11.79-5.18.45-5.93,7.89-11.49,8.94a15.3,15.3,0,0,0-6-5.73,24.55,24.55,0,0,0-3-1.48h0a98.84,98.84,0,0,0-12-3.67c.14-3.21,4.33-1.84,6.43-1.78Zm-14.35-.53c1.73.31,2.11,2,3.68,2-7.66.45-16.83,2.33-23.06,6.46-2.48,1.65-5.93,5.26-1.95,6.16-5.79,8.41-12.32,16.08-18.78,23.89h-7c-.6-1,.9-1.5,1.35-2,10.06-11,20.35-23.51,29.74-35.31,4.6.26,11.51-2,16-1.21Zm-19.38,1.35c.45,1.43-1.8,3-3.08,4.51-8.64,10.22-18.4,21.34-26.36,32.61h-8.71c10-12,19.9-24.12,30-36,2.75-.3,5.45-.67,8.15-1.13Zm-80,27.65c7.16-3.58,13.87-7.54,20.58-11.51-2.61,5.67-7.53,11.42-9.7,18.44,3.89-5.53,7.76-13.44,11.94-19.56l2.09-.92h.11c3-1.31,6-2.59,9.22-3.73.3.89-.53,1.94-1.12,2.76-2.79,4.38-6.1,9.06-9,13.89l-.12.19a76.82,76.82,0,0,0-3.91,7.12c1.28-1.6,2.53-3.24,3.74-4.9l.12-.16c4.71-6.44,9-13.31,13.38-20,4.1-1.34,8.35-2.47,12.6-3.66.15,1.42-1.41,2.32-2.23,3.36-6.57,8.21-13.88,17.31-18.73,27.32,2.9-1.86,4.18-5.15,6.19-7.76,5.67-7.76,12.16-15.38,17.83-23.44,4.33-1.34,9.63-1.86,14.18-3.06.52,1.35-1.64,2.77-2.76,4.19-8.14,9.77-16.71,21-24.85,31H164.05c-6.19,0-12.54-.67-17.54.82,0,2,2.44,1.59,4.37,1.64-4,0-6.24,3.52-.18,4.19a147.91,147.91,0,0,0,15.18.57h3c56.4.83,118.18.68,173.62.53.52,1.12.08,3.21.23,4.78-59-.13-118.21-.15-177-.46h-.11l-14-.09h-1.49a20.19,20.19,0,0,0-6.29.63c-.31.09-.61.2-.92.32h-.23v-2h0c0-6.17.31-13.87.53-20.46Zm-8-2.64c.82,8.87-.75,20.14,1.65,27.5a44.43,44.43,0,0,0,9.24,1.43c-.61,9.85.6,21.27-.23,31.41-2.18.61-5.79-.15-7.59.83-1.12,1.8-.82,4.06-.82,6.16s.14,5.78.19,6.88h0v33.19h0c-.17,8.8-.8,42.57-1,60.8v20.62c.05,38.38.31,89.56.43,111.07v.09c0,6.37.06,10.11.06,10.11h0s-17-1.07-22.44,1.71c3,1.65,7.36.3,11.19,0a53.57,53.57,0,0,1,11.46-.34h.31v43.2h0a256.87,256.87,0,0,0-28.59,3.68,8,8,0,0,0,.6-3.16c5.33-2,14-.75,18.78-3.31-5.41-1-12.55.83-19.08.53-.37-123-.68-247.41-1.12-369.6,3.08,2,6.68,5,10.14,7.29s7.21,4.06,9.54,7.29c4-1.6,4.42,1.11,7.27,2.61Zm-7.59-6.16c-6.84-4.36-12.92-9.39-19.38-14a307.59,307.59,0,0,0-1.43-32.83c.3-1-1.06-.45-.83-1.43.23-2.4-.37-4.06-.3-6.46.53.38.38,1.35,1.13,1.43,2-1.43,2-5,2-8.42,15.54,13.45,31.54,26.6,46.79,40.42-10.79,5.55-21.38,11.44-27.95,21.28Zm8.1-133.89c12.86,13.18,26,26.68,38.95,40.46l.16.17q3.33,3.51,6.63,7.08c1.06,1.13,6.91,5.18,4.21,6.76-1.65.91-5-4.13-6.16-5.33q-2.43-2.65-4.92-5.31l-.16-.17c-12.19-13-25.25-25.86-37.58-38.33.52-2.63-1-3.3-1.43-5-.09-.56.29-.64.29-.34Zm-3.9-2.77c0,.67,0,1.35-.3,1.65-.82-.3-1.88-.3-2-1.43.94.07,1.24-.46,2.29-.23Zm-8.41-5.64c.37-.82,1.27-1.13,1.66-2,1.5,1.06,2.47,2.56,3.9,3.61-1.89,1.46-4.32-.57-5.57-1.62Zm4.2,12.92c.75-.22.53.53,1.13.53.3,1.27-1,1-.83,2-.68-.23-.16-1.73-.26-2.49Zm-3.08,24.42c.38-1.65-.38-3.23,0-4.81,1.28-6.23,8.72-5.33,9.77-12.84q19.68,20.25,39.56,40.29l.16.16q3.7,3.75,7.45,7.49c-4.65,6.69-.75,20.29-2,31.18-1.58.31-2.4-1.42-3.38-2.25-1.49-1.23-3-2.47-4.5-3.74l-.16-.14c-6.74-5.59-13.63-11.43-20.28-17.16-9.47-8.19-18.48-17.28-28.92-23.89-.67,1.88,1.5,3.08,2.48,4,15.24,13.13,30.21,27.85,46.46,40.58l.16.13q4,3.12,8.13,6.1a63.08,63.08,0,0,0,.3,9.32c-3,.9-6.36,1.91-9.77,3.07l-.17.06c-2.21.74-4.46,1.55-6.66,2.43-1.42.6-3.9,2.32-5,2.25s-4.88-3.69-6.46-5c-12.47-10.82-23.89-21-36.73-31.41-1.5-1.28-5.63-3.68-6.16-5.11-.75-1.65-.83-6.31-.6-7.29.52-2.33,4.5-4,5-7.29.75-3.9-.23-7.51.6-10.89.53-2.25,1.43-5.26,2.78-7.06,2.1-2.78,7-4.66,7.88-8.19ZM109.36,1164c1.28,1,.9,4.2,0,5.33-1.81-.3-2.63.53-3.91.83,1-2.41,2.84-3.92,3.9-6.17ZM99,1151.92h5c-1.27,1.27-3.45,1.57-5.33,2.25C98.75,1153.34,98.53,1152.29,99,1151.92Zm4.2,21.31c2.25,10.52-5.18,13.67-11.49,16.53C95.75,1184.5,99.43,1178.92,103.18,1173.23Zm-12.32,14.28c.38-3.84,3.91-6.84,6.16-9.77-.75,2.33-4.5,6.54-6.16,9.77Zm9.54-44.59c-.82.6-2.85.15-3.38-.3C97.55,1142.2,99.12,1143.1,100.4,1142.92Zm0,14.28c-1.87,2.71-4.35,4.81-6.23,7.59.68-2.75,2.33-7,6.23-7.56Zm-10.44-5a6.3,6.3,0,0,1,2.55-.3c-.82,1.36-1.8,2.48-2.55,3.91-.32-.61.83-2.56,0-3.62Zm17.43,21c7.06.53,8.34-5.93,7.59-12.32,2.18-1.35,4.88-2.25,5.56-5.11.23,8-1.43,14.21-5,19.39-.68,1-1.88,1.57-2.48,2.55-3.6,5.41-4.58,12.1-8.71,17.36-2.26,1-7.89,6.77-7.89,9,0,6.16,9.39,1.88,11.27-1.13-2.18,4.36-7.21,5.93-7.06,12.62-1.13.75-2.63-2.93-4.21-3.68-.15-.82.9-.6.6-1.65-3.46-3.6-9.32-3.38-13.22-6.16,2.56-3.6,7.29-5.11,10.14-8.41-.91-3.31-6.69.3-7.29-.3,7.18-7,21.22-7.25,20.7-22.14Zm-24.11,21.88c.83-2.56,4-5.26,5.86-7.81a9.87,9.87,0,0,1-5.86,7.83Zm5-42.08c.45,1.88,1.28,4.28,0,5.63a8.6,8.6,0,0,1-3.68-4c.78-.86,2.36-2.21,3.71-1.61Zm-5.93,6.46c1.58.83,3.45,1.28,4,3.08-5.48,8.34-7.89,19.84-13.52,28,1.89-10.55,6.09-21.14,9.55-31.06Zm-8.42,58.68a13.2,13.2,0,0,0-1.35,2.18c-1.32-.88.41-1.93,1.38-2.16Zm-7.29-6.44c2.93.38,3.38-3.23,5.33-2.86-1.8,2.93-4.73,4.81-7,7.29C64.64,1214.86,66,1212.83,66.64,1211.7Zm.6,114.2c-.52.68-.6-4.66-.6-6.46.38-.07.23-.52.3-.83.7,1.88.11,5,.34,7.31Zm-1.13,90.92c-.6.22-.15-3-.3-4.21.64-.22.19,3,.34,4.21Zm-.83-34.26c.61.6.08,4.73.23,6.76-.56-.6,0-4.74-.19-6.76Zm.23,11.49c.45,4.43.37,9.39.6,14-.63-3-.56-9.26-.56-14Zm.6-26.6a82.52,82.52,0,0,0,.52-11c.2,2.89,1.17,9-.48,11Zm0,291.52c-1.72-1.65-2.62-4-2.25-7.81,3,.67,3.12,5,2.29,7.81Zm1.43-6.68c-.15-1.2,1.13-.9,1.35-1.73.91.16.23,1.88.83,2.26-.19.44-1.91,0-2.14-.53ZM70,1563.55a780.51,780.51,0,0,1-3.08-85c.9,23.67,1.65,51,3.38,75.21.32,3.25,1.09,6.86-.26,9.79Zm1.13,4.21c.53,4.73,2.93,10.89.3,14.65-.94-4.13-.56-10.07-.26-14.65Zm2.55,30.06c-.75,3-3.08,5.63-.6,8.41a73,73,0,0,0-.89,7.37c.12,1.47.25,2.94.39,4.43v1.66c-1,1-.4.45-1-.23v-1.73a36.4,36.4,0,0,0,.61-4.13c-.77-9.68-1-19-1.06-28.4.75-.07,1.57,1.2,2.25.3.49,4,1.24,8.19.34,12.32Zm1.12-242.76c1,2.48.53,6.53,1.13,9.54-2.89-.68-1.53-7.14-1.09-9.54Zm.83-62c1.13.53.38,3.16.3,4.21-1.46-1.12-.93-2.7-.26-4.2Zm1.66,13.45c1.12,3.3,1.2,8.94-.83,11.19-.94-4,.49-7.57.87-11.18Zm-1.13,119.24c4.28,2.18,2.11,8.27,1.13,12.7-1.77-2.77-.19-8.94-1.09-12.69ZM75.65,1700c.53.52.38,2.78,0,3.3-.48-.51-.33-2.77,0-3.29Zm0,6.16a12.89,12.89,0,0,1,0,5.86,11.94,11.94,0,0,1,0-5.85Zm-1,14.27a3.74,3.74,0,0,0,1-1.7v-4.46c0-.07.27.07.35.3a20,20,0,0,1-.35,4.16v2.83c-.18.6-.48,3-1,2.25Zm-2,77.77c3.83.37,7.66-.75,10.89,0-2.32,3.15-7.21,3.75-10.36,6.16-3.76.15-6.84-.45-10.37-.53,2.74-2.39,6.65-3.59,9.83-5.62Zm-3.08,7.58c-6.38,3.68-11.94,8.27-23.28,7,5.82-4,11.68-8,23.24-7ZM58.3,1820.05c-4.88,2.7-8.18,5.94-17.12,4.21,1.8-1.73,4.28-3,6.76-4.51,4.88-2.86,9-5,18.25-4.21-2.3,1.89-5.08,2.94-7.93,4.52Zm13.23-4.21c1,1.72,2.7,2.78,5.63,2.55a37.7,37.7,0,0,1-5.93,3.61c-1.8,1-4.13,3.08-6.16,3.38-3.31.61-6.84-1.12-11.27-.52,5.84-3.07,10.33-7.43,17.69-9Zm-21.34,0a81,81,0,0,1-7,4.21c-4.88,2.63-8.94,4.66-18,3.68,7.24-3.67,12.57-9.3,25-7.88Zm-32.29,7.59c4.59-2.63,9.62-4.81,14.35-7.29.53-.07.6.23.3.3-5.08,2.19-8.83,5.65-14.69,7Zm107.74,2.25c-3.24-.9-8,.53-10.67,1.13-4.58,1-9.38-.08-9.31,3.38.08,1.8,1.35,2.26,3.38,2.48-10.59.23-22.08-1.2-33.95-.82,7.36-5,16.14-8.57,23.28-13.75-9.17,2.41-15.93,7.22-23.51,11.2-.45-.15-1.5.38-1.43-.22-1.35.52-2.63,2.4-5.33,3.38-3.08,1-6.76.38-7.29,3.08-.6,2.93,2.4,4.2,5.63,4.73-16.29-.45-33.95-2-51.37-2.25,8.49-3.68,13.9-10.37,27.19-9.24-1.8,1.73-4.51,2.56-6.16,4.51,3.84.15,6.84-3.91,11-4.81s8.48.15,13.44-.53c-3.45,2.71-8.34,4-11.19,7.29,2.78.75,5.19-1.65,7.59-3.08,4.51-2.71,7.74-5.34,15.7-4.81-.38-1.65-3.23-.9-4.51-1.65,4.2-1.81,7.43-5.71,12.09-7.29,10.51-3.61,31.17,1.58,45.15.51C123.64,1821.55,126.64,1823,125.64,1825.68Zm.51-12.28c0,1.27-.67,1.87-.52,3.3-7.66-.38-15.1-1-23.06-1.13,1.21-1.35,3.76-1.28,4.21-3.31-.68-1.35-2.33-1.81-3.61-2-8.64-1.2-19.6,1.88-27.49,2.25,2.63-2,6.23-3.08,8.71-5.33-7.73,2.1-12.39,7.88-23.58,5.63,6.31-3.91,11.49-8.57,23.81-7-1.35-2-5.93-.61-8.41-1.43,2-.45,5.19-4.36,7.89-4.21,1.57.08,4,2.93,7.28,3.38,3.45.45,8.93-.08,13.74-.3,8.64-.37,18.11.23,14.35-7.8a172.61,172.61,0,0,0,18.48.23c1.21,5.11-1.35,12,.83,15.18-.68.68-2.48.07-3.61.3-1-.6,1.8-1.88,1.65-3.38-3.68-3-8,.45-9.84,3.38-1.73.38-4.28,0-5.56.83.46,1.56,3,1,4.74,1.41Zm2.49,13.12v-2.26c2.1-.07,4,0,5.33.83C132.25,1825.62,129.54,1825.17,128.64,1826.52Zm11.87-1.6c-1.35.23-3.38-.3-4.21.3-.45-.15-.75-.38-1.12-.53,1.2-.6,4-.38,5.33,0,.67.16,2-.37,2.25.23Zm99.39-5.39c-18-.82-36.35-2.25-54.68-2.25-18.55,0-37.18.45-55.58,0v-2.78c0-.45,0-.83.29-.9,66.78,2.13,133.26,4.55,200.67,6h.27l9.82.21h0l3.43.07c1.7,1.77,2.64,2.75,4.33,4.53v.4C312.83,1822.23,276.4,1821.11,239.9,1819.53ZM6.64,1147.78v1.49c1.34,1.19,2.69,2.38,4.05,3.55.06-.63.13-1.25.2-1.88Z"/><path class="cls-6" d="M4.5,1210.15h0l2.14,1.48h0Z"/><path d="M442.64,1798.5c-11.64,10.89-25.54,21.94-38.68,32.23,2-3.53,5.71-5.79,8.94-8.42,9.61-7.73,20-16.07,29.74-23.81Z"/><path d="M468.13,1799c-10.51,11.34-24,22.24-35.9,33.13C443.23,1820.15,455.82,1809.69,468.13,1799Z"/><path d="M183.4,1882.35c-.68.07-.45-.3,0-.22,40.71.9,83.29,1.5,125.43,2,20.88.22,41.69,1.43,62.27,1.65a521.92,521.92,0,0,1,60.31,3.68c-10.14,1.28-20.5,1-30.87.53-30.72-1.43-62.41-.75-93.66-2.25-41.84-2-84.12-1.51-123.48-5.34Z"/><path d="M275.76,1404.3c.45,2.78,4.06,1.8,6.16,2,6.91.38,15.7.45,22.68,1.65,3,.53,4.88,1.8,8.41,1.43.6-.08,2-1.65,3.68-.83,2.48,1.13,1.95,12.32,1.95,17.06v56.13c0,25.77.53,49-.52,75.21-1.58,36.36-1,74.08-2,111.72-.15,4.59-.3,11.27-.3,18.78,0,3.83,1.43,15.4-2.55,16.31-2.25.52-3-1.43-5-2-4.13-1.2-10.67-.6-16.3-.6-6.31,0-12.69-1.13-16.52-.23-1.95.38-2.63,2.18-4.2,2.18-1.05,0-2.1-.9-3.38-2.18H249.11c-6.38,0-13.07-1.13-18,0-1.35.3-2.63,1.73-4,1.65s-2.18-1.73-3.6-2c-2.41-.45-5.56.3-8.41.3-8.19,0-16.52-.9-24.41-1.43-1.28,1.2-4.51,3.76-6.16,1.13-6.61,6.46-5.63-8.11-5.63-15.18,0-43.35,1.5-86.4-.53-129.91-1.13-24-.6-48.61-.6-74.38,0-21.79-.15-41.93,1.13-64.54.07-1.43.45-6.76,2.25-7,3.23-.45,3,8.27,3.08,10.9,1.35,31.56,1,64.69,1.13,97.15,1,.38,3.3-.23,4.73-.3.45-14.73-.52-29,0-43.8.23-4.81.9-9.62.6-14-.23-2.63-1.35-5.48-1.65-8.11-.9-7-.52-14.43-.6-21.34s-.45-14,.83-20.74c1.35-1.35,1.65,1.8,2.25,1.13,1.35-2.78-4.06-1.65-2.48-4.51,1.88-2,5.48-1,8.41-1.13,6.09-.22,12.69-1.28,19.61-.83,2.33.15,8.86,2.18,8.71-.3-.15-1.73-2-1.35-4.81-1.43-11-.22-18.25-1.13-28.62-2-3.08-.23-9.69,0-10.06-2-.45-2.18,2.78-2.4,3.9-2.48,10.67-1.28,22.83.22,35.07.22,28.32,0,58.36.23,85,3.08,3.9.45,13.22.83,11.49,5.94-.68,1.88-7,1.88-9.24,1.65-9.55-.66-22.69-3.82-32.83-2.47Zm-44.67-1.53h0c-.83.6.3,1.58,0,2.55,12.09.45,24.41.38,36.5.53,1.35.08,4.28,1,4.21-1.35-11.64-1.21-28.17-1-40.71-1.73Zm-32.22,16h0c-.53-1.58,1.13-3.76-.3-4.51C197.89,1415.39,198.34,1417.87,198.87,1418.77Zm112.21,3.38h0a19,19,0,0,0,1.05,6.16c-.3-2.1,1.2-5.11-.23-6.46-.07.38-.44.3-.82.3Zm-115.59,17.36h0a51.05,51.05,0,0,0,0-11.19C195.19,1431.62,194.89,1436.32,195.49,1439.51Zm6.15-1.66h-.29a7.17,7.17,0,0,0,.29,2V1448s1.14,3.76,1,1v-4.21c-.24-5.11-.46-15.91-.46-15.91h-.54Zm5-.82h0c.38-1.8.75-5.94-.3-7.29C206.57,1432.07,206,1435.15,206.64,1437Zm3.08-5.94h0c-.37,7.59-.3,15.63-.3,23.59,4.66.53,10.14.23,15.17.3.08-7.81.45-15.25.3-23.29C219.94,1431.62,214.08,1430.87,209.72,1431.09Zm77.88,3.68h0v21c7.29.9,16,.45,23.51,1.13.45-8.19.75-18,.6-25.85-2.33,7.74-15.85,2.56-24.11,3.68Zm-56-2.78h0c-.23,8,.38,15,.23,23,2,.6,5,.07,7.29.3.45-7.44.23-15.55.6-23.07a78.56,78.56,0,0,0-8.12-.22Zm12,.53h0c-.83,7.29.38,15,0,22.77,9.16-.3,18.4.9,27,.22-.15-7.06.23-14.65-.3-21.26-9.24-.23-17.65-1.28-26.66-1.73Zm-44.31,13.22h0c-.6-3.46-.15-9.39-.83-11.79C198.73,1438,198.28,1442.59,199.34,1445.74Zm77.43-11.27h0c-.15,7.06-.3,14.13-.6,21a51.49,51.49,0,0,0,8.41.6c.68-6.69.07-14.58.6-21.34-2.7-.15-5.4-.37-8.41-.3Zm-74.13,26.38h0c1.05,19.53-2.4,38.69-.3,56.13,1.73-3.76,1.13-8.57,1.13-13.15,0-14.5.23-29.9-.3-43.5-.07-.23-.23-.3-.53-.3v.82Zm4.34-.53h0c-.23,17.73.38,34.56.3,52.22,3.38-1.73,4.88,3.31,8.11,4.21,3,.75,5.56-.75,9.54-.3-.38-18.11-.3-36.82-.3-55.3-5.18-1-13.52-.53-17.65-.83Zm24.41,56.6H239c.45-18,.15-36.67.23-55-2.63.23-4.43-.45-7-.3-1,17.65-.23,37.19-.83,55.3Zm12.32-54.35h0c-.07,18.11.08,36,.3,53.87,8.33.53,17.57.22,26.36.3.15-18.41.68-35.54.3-54-8.49-.75-18-.6-26.66-1-.3,0-.3.38-.3.83Zm32.52,1.13h0c-.53,17.28-.68,35-.53,53,3.08-.15,5.63.15,8.41.23.53-17.58.6-35.69.53-53.87-2.85.22-5.11-.3-7.81-.3a.84.84,0,0,0-.6.9Zm11.41.22h0v53a127.3,127.3,0,0,0,22.68-.53c-.07-18,.6-35.16.83-52.75-7.89,0-15.62-.07-23-.6a.68.68,0,0,0-.53.81v0Zm-79,52h-1.35C206.69,1517.72,209.29,1517.72,208.64,1515.92Zm-23,5.56h0c-.9,57.18-1.43,117.59-.3,174.84,2.25,1.2,4-2,5-2,.3.9-.6,3.08.6,3.08,6.91.45,14.87.53,22.46.53,3.08,0,11.19.9,11.49-1,.07-.52-.45-1.35-.3-1.73-4-.83-9.76-.3-15.4-.3s-12.17.75-15.7-.82c-1.2-.45-.9-1.28-1.73-2s-2.41-.15-2.48-1.43c0-55.52,1.35-112.1,1-168.9-1.26,0-4.49-1.9-4.72-.32Zm15.17,15.7h0c0,1.28-.3,3.68.23,2.86-.3-6.16,1.13-12,.3-17.73C201.11,1526.74,200.74,1532.75,200.81,1537.18Zm6.46-13.44h0c1.5,9.17-1.2,20.29.23,28.93-.45-2.7.68-9.24.9-13.22.15-5-.23-10.22,0-16.53h-.9C207.5,1523.29,207.2,1523.29,207.27,1523.74Zm4.36,11.79h0v-12.32c-.07-.22-.07-.6-.3-.6a41.19,41.19,0,0,0,.3,12.92Zm4.89-12.1h0c1.2,18.33-.9,37.12-1.13,53.87-.3,1.35-1.35.08-1.73,1.13,2.85.3,7.29-.15,11,0v-55.82c-2.4.37-8-.91-8.11.82Zm14.26,55.08h0c2.1.6,5.33.08,7.89.23.38-18.33.3-37.11.3-55.82h-7.29c-1.05,17.8-.15,37.49-.9,55.59ZM244,1523.43h0c0,18.48-.08,37,.3,55,8.64-.23,16.45.38,24.94.3.23-18.71.83-37.19,1.13-55.82-8.11-.68-17.5-.08-26.06-.3-.39.07-.31.45-.31.82Zm31.7,55.49h8.41c-.15-18.86.23-37.19.3-55.82-2.25-.68-5.71-.15-8.41-.3C275.32,1541,275.85,1560.29,275.7,1578.92Zm12.09-55.18h0c-.3,18.26-.37,36.74-.3,55.3,7.44-.23,15,.83,22.16,0,.53-18.33.6-37.19.53-56.12H288c-.31.07-.31.45-.23.82Zm-92.91,33.65h0c1.73-7.51.68-16.23.83-25.25-.53-.08-.23-1-.83-1.13C195.26,1540,194.05,1548.9,194.88,1557.39Zm19.08,6.46h0c0,.3.38.22.3-.3.08-9.84,1.2-21.87,0-30.58C214.33,1543.42,213.73,1553.26,214,1563.85Zm-11.5,10.67h0c0,1.43-.75,3.91.83,4.81,1.5-1,.83-3.08.83-4.51.07-12.7.23-26.37-.52-37.87C202.39,1548.08,202.46,1562.28,202.46,1574.52Zm6.77-1.65h0c1.73-3.61.68-11,.23-14.65C209.52,1563,208.46,1568.29,209.23,1572.87Zm-8.72-1.43h0a42.33,42.33,0,0,0,0-10.67C200.14,1564.31,200.59,1568.44,200.51,1571.44Zm-3.38,7h0c.6-3.38,1.5-9,.3-12.32A76.79,76.79,0,0,0,197.13,1578.44Zm11.49.3h0c2.4,0,2.48-5.11,1.43-6.76C209.83,1574.53,208.85,1576.26,208.62,1578.74Zm-12.91.6h0c-.07-.9.3-3.68-.23-3.16C195.56,1577.09,195.18,1579.87,195.71,1579.34Zm-1.08,5h.85c-.15,4.66,0,8.41-.85,13.45v7c1.37.68,1-2,1-2.78v-3.61c.08-4.66,1.51-11.34-1-14.88v.83Zm5.88,15h0c0,.3.15.68.3.23,2.55-4.21,2.78-9.47,3.08-15.71H201A138,138,0,0,1,200.51,1599.34Zm8.25-14.51h0c-2.48,3.68-1.13,10.14-1.13,16,0,13.07.3,26.22.3,38.47,5.63.07,10.67-.53,16.52-.3.45-17.58.45-37.12,0-54.7-5.33.23-9.84-.45-15.17-.3a.76.76,0,0,0-.52.83Zm21.8,54h7.29q.35-26.94.83-53.87c-2-.6-5.11-.08-7.58-.23C230.63,1602.47,230.48,1620.58,230.56,1638.83Zm13.74-53.27h0c.38,17.66.38,35.69.83,53.27h23.58c.52-17.81.3-36,.52-53.57-7.59-.75-16.75.15-24.41-.53-.37.08-.59.31-.52.83Zm30.79,53.11h0a70,70,0,0,1,8.19.3c.6-17.58.52-35.76.82-53.57-2.18-.68-5.48-.15-8.11-.3-.67,17.43-.82,35.54-.9,53.57Zm12.1-52.74h0c-.23,18,.37,35.16.3,53,7.74-.23,14.57.38,21.86.6.3-16.61.38-35.76.3-53.65-7.36-.22-14.42-.68-21.86-.83A.81.81,0,0,0,287.19,1585.93Zm-87.28,37.34h0c0,4.58.3,9,.6,12.92.08,1-.75,3.23.83,3.61,1.5-.83.83-3.31.83-4.73,0-11.87.68-24,.9-35.39-.07-.15-.07-.3-.3-.3C199.31,1604.71,199.91,1613.88,199.91,1623.27Zm-5.27,17.22h0c.6-9.17,2-22-.23-30.36C194.94,1620.51,193.41,1631.63,194.64,1640.49Zm2.85-.3h0c-.23-4.58.38-9.92-.3-14C197.79,1631,196.14,1636.56,197.49,1640.19Zm-3.38,32.53h0c1.2-8.34.23-18.86.83-27.8h-.83C194.41,1654.31,193.21,1663.7,194.11,1672.72Zm2.26-16.22h0c1.43-.68.83-3.46.83-5.63,0-2.33.3-5-.3-5.86C196.14,1648.23,197.12,1653.26,196.37,1656.5Zm4.5-10.76h0c.15,8.49.15,17.66,0,25.25-.08,1.73-.6,3.83.23,3.61.9-9.09,1.43-21,.3-29.68h-.52v.82Zm8.42-.51h0c-1.43,10.52-.15,23.14-.3,34.26,5.63.22,10.59-.3,16-.3-.23-11.19.38-23,0-33.36C219.65,1645.68,214.24,1645.68,209.29,1645.23Zm21.55.63h0c-.6,10.45-.07,22.17-.23,33.06h8c-.9-10.29-.68-21.71-.83-32.83-1.87-.52-4.72-.15-7-.23Zm14.65.19h0c-.75,10.75-.6,22.32-1.13,33.13,8.19.08,15.77.83,23.81,1.13.45-11,.45-22.61.6-34-8.11.23-15.4-.3-23.28-.3Zm30-.13h0c-.68,10.89-.08,22.91-.3,34.26,2.7.08,5.26.38,7.89.53.68-10.82.07-24.34.3-34.79Zm12.45.43h0c-.6,10.74-1.2,24,0,35.09,2.48-.38,3.08-2.86,5.86-3.08,1.2-.07,2.48.68,4.2.83,1.5.15,2.63-.37,3.68,0,2.86,1,5.41,7.44,4.73,11.5-1.82,11.69-22.9,1.52-32,4.91l.31,2.15c10.67,1.13,23.27.38,34.23,1.35q.68-25.8.83-52.14c-6.69-.83-14.5-.53-21.86-.61Zm-84.56,29.75h0c.08.83.15,2.1,1.13,2.55-.07-9.84-.07-18.33-.52-28.1.74,8.2-1.36,18.27-.61,25.55Zm-4.66,2.9h0c1-.3.6-2,.83-3.08h-.91V1679Zm-.37,6.12h0c1.13-.08.52-4.43.3-4A16.79,16.79,0,0,1,198.35,1685.12Zm-2.78,0h0a2.93,2.93,0,0,0-.6-2.25C195,1683.77,194.9,1684.87,195.57,1685.12Zm13.15-.9h0c4.66.38,12.24.68,16,0-5.11-.52-10.67-.75-16-1Zm30,1.13h0c-1.73-.9-5.86-1-8.11-.53C232.86,1685.42,236.39,1684.75,238.72,1685.35Zm5.86.3h0c5.71.52,12.77,1,18.25,1.43,1.73.15,4.43,1,5.63-.6-1.13-1.35-3.53-1-5.33-1.13-6.46-.23-13.07-.23-19.08-.23,0,.3.08.6.53.53Zm30.1,1.72h0c2.25-.37,5.93.68,7.29-.6-1.35-1.35-4.81-.68-7.29-.83v1.43Zm-81,3.55h1.73a4.72,4.72,0,0,1,.52-2.86c-.52-.37-1.43.3-2.25-.23Zm5.76-2.49h0c.83.07,1.43,0,1.65-.53C200.52,1688.05,199.1,1687.45,199.4,1688.43Zm31.24,6.23h0V1698c12.74-.15,26,.38,38,0v-3.32C256.5,1694.35,242,1692.92,230.64,1694.66Z"/><path d="M191.51,1753c-1.13,8.49.23,18.86-.83,28,27.12.6,56.71.68,84.72,2,9,.45,18.55-.15,25.54,3.38.3,2.26-.15,2.41.6,4.51-37-1-77.44-.75-113.94-3.08-2.25-5-1.8-12.85-1.65-21.34.08-5,1.35-11.57.23-14.35-.53-1.35-.53-.6-1.35-1.35-3.08-2.78,1.73-4.43,4.51-4.81,8.71-1,18.93.3,29.44.3,24.41,0,46.64,2.25,71,3.08,2.55.08,11.19-.3,11.19,3.38,0,3.15-7.51,2.78-11,2.78-13.15,0-26.44-1.35-38.68-1.65-19.31-.44-40.71-.37-59.79-.82Z"/></g></g></g></svg>