<svg id="Layer_1" data-name="Layer 1" xmlns="http://www.w3.org/2000/svg" viewBox="0 0 1324.63 3259"><defs><style>.cls-1{fill:#e5a48c;}.cls-2{fill:#836049;}.cls-3{fill:#b57d6c;}.cls-4{fill:#c47d6c;}.cls-5{fill:#e8ae9c;}.cls-6{fill:#896d5a;}.cls-7{fill:#886b58;}.cls-8{fill:#a37463;}.cls-9{fill:#614c35;}.cls-10{fill:none;}</style></defs><g id="eyelash"><path class="cls-1" d="M426.17,239.46l-.07,0-1.89,1.06a12.62,12.62,0,0,1,.91-11.85c5.52-9.26,14.77-11.6,28-11.05q8,4.78,7.66,8.82Q460,234.49,426.17,239.46Z" transform="translate(0)"/><path class="cls-2" d="M472.57,239c-.22,1-1.54,1.62-12.34,4.6-2.6.72-3.91,1.08-4.12,1.12-12.9,2.79-22.07-3.9-31.07-1.82-.28.07-.86.21-1,0-.23-.39,1.34-1.65,3.84-3.43l.06,0,6.16-3.6,9.73,3,23.24-5.31C472.34,236.58,472.73,238.22,472.57,239Z" transform="translate(0)"/><path class="cls-3" d="M444.11,229.16a15.18,15.18,0,0,1-7.15,5.15,20.39,20.39,0,0,1-2.85.69Z" transform="translate(0)"/><path class="cls-4" d="M325.9,223.08c4.86-1.76,9.34-1.73,13,2.62,1.31,1.56,3.26,2.18,5.06,3,5.26,2.49,6.45,5.89,4.16,11.64a3.53,3.53,0,0,1-1.24-.92c-2-2.35-4.5-1.74-6.82-.9-5.8,2.11-11.91,2.25-17.91,3.12-4-.49-8.33,1.08-12.13-1.44a1.66,1.66,0,0,1,.72-2.1,11.66,11.66,0,0,1,4.15-1.59C321.61,234.57,324.16,229.15,325.9,223.08Z" transform="translate(0)"/><path class="cls-3" d="M424.27,238.48a2.52,2.52,0,0,1,2.93-2.43c10.82.18,16.3-6.22,18.51-16.65,6.73,0,12.88.54,15.09,9.22.52,2,3.53,3.37,5.39,5C455.76,237.5,445.5,242.26,434,240c-3.18-.43-6.43.6-9.57-.52A1.06,1.06,0,0,1,424.27,238.48Z" transform="translate(0)"/><path class="cls-2" d="M348,240.1l.15,1.12c-4,7.63-11.46,8.35-18.6,8.78-6.53.4-13.21.83-19.71-.89-1.18-.31-2.89.55-3.45-1.12s.85-2.73,2.11-3.5a3.85,3.85,0,0,0,1.59-2.39c3.08-.79,6.19-.18,9.15.38a18.62,18.62,0,0,0,9.58-.22c4.71-.22,9.41-.43,14-1.92C344.42,239.78,346.18,239.2,348,240.1Z" transform="translate(0)"/><path class="cls-5" d="M325.9,223.08c.19,9.14-6,15.26-15.17,15.07C310.25,230.4,316.7,225.12,325.9,223.08Z" transform="translate(0)"/><path class="cls-6" d="M467,233c-.1,1-.22,2.23-1.2,2.58-8.83,3.15-17.74,6-27.28,3.34-1.28-.36-2.49-1-2.63-2.61,6,1.86,11.7.2,17.35-1.36,4.27-1.17,8.33-3.11,12.9-2.86Z" transform="translate(0)"/><path class="cls-7" d="M329,242.26c-5.45,3.49-10.66-.49-16-.55a19.2,19.2,0,0,1-2.9-.45c0-.34,0-.68,0-1h13c1.16.9,2.48.46,3.74.42S329.06,240.51,329,242.26Z" transform="translate(0)"/><path class="cls-8" d="M329,242.26c-1.51-2.11-4.47.09-6-2,6-.8,12.09-1.2,17.91-3.35,2.6-1,6-2.27,7.08,2.36C341.78,241.21,335.63,243.43,329,242.26Z" transform="translate(0)"/><path class="cls-3" d="M438.43,226.75" transform="translate(0)"/><path class="cls-9" d="M746.82,3076.22c-3.38-5.57-5.15-11.81-.34-16.9A53,53,0,0,1,746.82,3076.22Z" transform="translate(0)"/></g><rect class="cls-10" width="1324.63" height="3259"/></svg>