<svg id="Layer_1" data-name="Layer 1" xmlns="http://www.w3.org/2000/svg" viewBox="0 0 1324.63 3259"><defs><style>.cls-1{fill:#fff;}.cls-2{fill:#b47e6d;}.cls-3{fill:#8e6a5e;}.cls-4{fill:#805c4d;}.cls-5{fill:#000e17;}.cls-6{fill:#f5ffde;}.cls-7{fill:none;}</style></defs><g id="eyes"><ellipse class="cls-1" cx="384.27" cy="240.57" rx="97.6" ry="54.45" transform="translate(-7.84 13.01) rotate(-1.92)"/><ellipse class="cls-2" cx="326.91" cy="235.67" rx="13.22" ry="18.43" transform="translate(-5.17 7.35) rotate(-1.28)"/><ellipse class="cls-3" cx="326.92" cy="236.16" rx="12.43" ry="17.32" transform="translate(-5.18 7.35) rotate(-1.28)"/><ellipse class="cls-4" cx="325.77" cy="235.7" rx="6.86" ry="9.57" transform="translate(-5.17 7.32) rotate(-1.28)"/><ellipse class="cls-5" cx="325.77" cy="235.7" rx="2.48" ry="3.46" transform="translate(-5.17 7.32) rotate(-1.28)"/><ellipse class="cls-6" cx="316.85" cy="230.29" rx="5.11" ry="2.09" transform="matrix(0.3, -0.95, 0.95, 0.3, 1.29, 462.34)"/><ellipse class="cls-2" cx="442.45" cy="229.07" rx="15.18" ry="19.08" transform="translate(-5.24 10.42) rotate(-1.34)"/><ellipse class="cls-3" cx="442.46" cy="229.58" rx="14.27" ry="17.93" transform="translate(-5.25 10.42) rotate(-1.34)"/><ellipse class="cls-4" cx="442.45" cy="229.07" rx="7.88" ry="9.9" transform="translate(-5.24 10.42) rotate(-1.34)"/><ellipse class="cls-5" cx="442.45" cy="229.07" rx="2.85" ry="3.58" transform="translate(-5.24 10.42) rotate(-1.34)"/><ellipse class="cls-6" cx="434.04" cy="221.21" rx="5.59" ry="2.77" transform="translate(15.17 469.95) rotate(-57.71)"/></g><rect class="cls-7" width="1324.63" height="3259"/></svg>