<svg xmlns="http://www.w3.org/2000/svg" viewBox="0 0 778 665.13"><defs><style>.cls-1{fill:#2f2e41;}.cls-2{fill:#ffb9b9;}.cls-3{fill:#3f3d56;}.cls-4{fill:#896363;}.cls-5{fill:#e6e6e6;}.cls-6{fill:#00b0ff;}.cls-7{fill:#fff;}.cls-8{fill:#ccc;}</style></defs><title>teacher</title><g id="Layer_2" data-name="Layer 2"><g id="a31e7729-94ce-4b70-883a-94bdaa3e886c"><polygon class="cls-1" points="31.42 567.78 50.32 575.4 176.3 409.14 267.63 578.46 291.26 573.88 221.97 340.5 141.65 340.5 31.42 567.78"/><path class="cls-1" d="M6.07,606.56h0a8.45,8.45,0,0,0,6.27-.78L52.2,583.56a7.7,7.7,0,0,0,3-10.7,7.85,7.85,0,0,0-1.29-1.63l-3.56-3.45-18.9-1.53L2.53,593.12a7.79,7.79,0,0,0-.24,11.27A8.35,8.35,0,0,0,6.07,606.56Z"/><path class="cls-1" d="M315,612.67h0a8.46,8.46,0,0,1-6.27-.79l-39.85-22.22a7.71,7.71,0,0,1-3-10.7,8.12,8.12,0,0,1,1.29-1.63l3.56-3.45,18.9-1.53,28.89,26.87a7.79,7.79,0,0,1,.24,11.27A8.23,8.23,0,0,1,315,612.67Z"/><path class="cls-2" d="M275.51,98l7.87,4.57L299.7,76.86A11.34,11.34,0,0,0,295.79,61,12.15,12.15,0,0,0,292,59.5h0a11.94,11.94,0,0,0-14.13,8.93,12.94,12.94,0,0,0-.22,1.52Z"/><path class="cls-2" d="M57.39,297.92l-3.26-8.31L24.91,300a11.46,11.46,0,0,0-7.08,14.83,11.62,11.62,0,0,0,2.05,3.43h0a12.19,12.19,0,0,0,16.8,1.44,12.78,12.78,0,0,0,1.15-1.06Z"/><ellipse class="cls-2" cx="181.02" cy="160.08" rx="23.62" ry="29.41"/><polygon class="cls-2" points="160.55 215.42 193.62 215.42 193.62 180.34 165.28 177.28 160.55 215.42"/><path class="cls-3" d="M136.93,349.65h89.76c-3.16-48.51-5.67-95.39,0-122l-5.22-24.26a14.06,14.06,0,0,0-15.57-10.78l-12.28,1.48c-8.32,14.17-18.37,14-29.92,1.53H148.91A14.6,14.6,0,0,0,134.08,210v.28h0a176,176,0,0,0-3.81,52.08Z"/><polygon class="cls-3" points="288.11 97.97 275.51 91.86 207.79 200.17 226.69 227.62 288.11 97.97"/><path class="cls-3" d="M57.21,302.26l-10.76-8.79,57.21-77.65A51.47,51.47,0,0,1,154.08,196l1.81.32L134.26,233l-28.5,20.9Z"/><path class="cls-4" d="M153.93,140.8s-4.56-11.42,7.29-16.62c0,0,10-18.69,30.07-6.23A25.4,25.4,0,0,1,205,140.8c0,16.62,4.55,19.74,4.55,19.74s-6.78-7.94-8.6-14.17-16-7.65-21.47-1.41-19.13,5.19-19.13,5.19l.91,22.85s-4.56-13.5-6.38-13.5S151.19,140.8,153.93,140.8Z"/><ellipse class="cls-5" cx="155.89" cy="657.84" rx="144.53" ry="7.29"/><path class="cls-6" d="M293.83,128.29l464.44,40.32a8.58,8.58,0,0,0,9.37-7.59L778,49.43a8.46,8.46,0,0,0-7.83-9.08L305.7,0a8.58,8.58,0,0,0-9.37,7.59L286,119.21A8.46,8.46,0,0,0,293.83,128.29Z"/><ellipse class="cls-7" cx="704" cy="99.25" rx="36.27" ry="35.13"/><path class="cls-7" d="M622.73,68.68a5.93,5.93,0,0,1,5.47,6.37,6,6,0,0,1-6.55,5.3L337.83,55.71a5.91,5.91,0,0,1-5.49-6.35A6,6,0,0,1,338.89,44h0Z"/><path class="cls-7" d="M619.49,103.67A5.91,5.91,0,0,1,625,110a6,6,0,0,1-6.55,5.32h0L334.59,90.7a5.92,5.92,0,0,1-5.49-6.35A6,6,0,0,1,335.65,79h0Z"/><path class="cls-8" d="M317.88,159.68l344.7,35.42c14.59,1.5,26.86-1.19,27.41-6s-10.84-10-25.43-11.47h-.06L319.8,142.18c-14.59-1.5-26.86,1.19-27.41,6s10.84,10,25.43,11.47Z"/><path class="cls-6" d="M317.24,189.41l295.42,30.36c17.4,1.79,31.94-.68,32.48-5.51s-13.14-10.2-30.54-12h0L319.15,171.92c-17.4-1.79-31.94.67-32.46,5.51s13.15,10.2,30.55,12Z"/><path class="cls-4" d="M165.84,189.67s-1.76,7.73,7.55,9c0,0,9.82,9.83,22.68-1,0,0,9.08-6,6.82-16.19s.63-12.81.63-12.81-3.85,6-4.33,10.06S188.62,186,183.8,183s-14.6-.1-14.6-.1l-2.44-14.13s-1.47,9-2.8,9.29S163.86,190.11,165.84,189.67Z"/></g></g></svg>