<svg id="s2" xmlns="http://www.w3.org/2000/svg" viewBox="0 0 6095.27 1774.12"><defs><style>.cls-1{fill:#8e8e8e;}.cls-2{fill:#91e5f9;}.cls-3{fill:#39bae2;}.cls-4{fill:#59a1ad;}.cls-5{fill:#1d7c9b;}.cls-6{fill:#989898;}.cls-7{fill:#8c8c8c;}.cls-8{fill:#c8c8c8;}.cls-9{fill:#b6b6b6;}.cls-10{fill:#636363;}.cls-11{fill:#555;}</style></defs><title>skyline2</title><g id="skyline2_1" data-name="skyline2 1"><g id="skyline2"><path id="Vector_3" data-name="Vector 3" class="cls-1" d="M5419.4,829.4h-299l-56-11.14v233.26h411V818.26Z"/><path id="Vector_6" data-name="Vector 6" class="cls-1" d="M1961,1072.74h-2.14v-10H1956V840.9h1.22v-1.26h.46l2.13-5.26H1956v-49.5l1-2.54h.19v-.46l.91-2.25h-1.37v-2.55H1956v-2.72l2-4.89h2.13v-2.9h-6.06v-5.26h-1.22v-5.23h-2.44v-7.25h-3.13V735.41h2.52v-2.72h1.11v-2.18h-5.11v-3.09h-3.73v-5.07h1.45v-3.63H1942v-3.27h-1.82v-28.1h.84v-2.72h1.21V683h-1.44v-2.54h-1.68v-5.38h-.25V675l-1.81-2.16v-1.35h0a.69.69,0,0,0,.65-.75.72.72,0,0,0-.65-.58h0v-.72c0-.44-.24-.8-.55-.8s-.55.36-.55.8v.72h0a.65.65,0,0,0-.66.66h0a.66.66,0,0,0,.66.67h0v1.35l-1.81,2.16,0,.06h-1.1v-1h-1.17v-9.43h.31v-1.81h-1V656.4a.62.62,0,0,0,.36-.57.57.57,0,0,0-.51-.61h-.57a.5.5,0,0,0,.06-.24.45.45,0,0,0-.41-.49h-1l-1-6.53h.69v-1.21h-.7a5.61,5.61,0,0,0-3.37-4.92c.85-.26,1.43-.74,1.43-1.3s-.81-1.21-1.94-1.42v-.39c1.11-.11,1.84-.39,1.84-.74s-.76-.63-1.84-.73v-3.58a2.68,2.68,0,0,0,1.22-2.33,2.24,2.24,0,1,0-4.42,0,2.69,2.69,0,0,0,1.23,2.33v3.58c-1.11.11-1.84.4-1.84.73s.77.63,1.84.74v.39c-1.11.2-1.94.76-1.94,1.42s.58,1,1.43,1.3a5.67,5.67,0,0,0-3.32,4.92h-.69v1.33h.68l-1,6.53h-1a.46.46,0,0,0-.41.49,1,1,0,0,0,0,.24h-.56a.57.57,0,0,0-.51.61.62.62,0,0,0,.36.57V663h-1v1.81h.29v9.43h-1.17v1h-1.1v-.06l-1.81-2.16v-1.35h0a.67.67,0,0,0,.66-.67.66.66,0,0,0-.66-.66h0v-.72c0-.44-.26-.8-.57-.8s-.55.36-.55.8v.72h0a.65.65,0,0,0-.66.66h0a.66.66,0,0,0,.66.67h0V673l-1.81,2.16v.06h-.24v5.32h-1.68v2.54h-1.45v1.63h1.21v2.72h.84v28.1h-1.82v3.27H1903v3.63h1.44v5.07h-3.73v3.09h-5.1v2.18h1.1v2.72h2.52v13.42h-3v7.19h-2.44v5.26h-1.22v5.26h-1.3v3.75h-3.38V752.81H1876c.4-1.6,0-3.6-.06-5.12s-.39-3.25-.4-4.91c0-1.1.83-2.32,1.1-3.4A2.42,2.42,0,0,0,1876,737a1.48,1.48,0,0,0,.56-1.57,3.74,3.74,0,0,0-1-2.23c-.74-.67-3-.67-3.1-2-.17-1.66-.61-2.61-1.54-3.08.38-2-.25-4.14-2.21-3.75-1.83-.42-2.28,1.37-2.21,3.54,0,.57-1.85,1.25-2.21,1.79a2.94,2.94,0,0,0-.44,1.68c-1.7,0-4,.19-3.81,2.51.12,2.07,1.58,2.51,3.05,2.59a7.11,7.11,0,0,0,1,3.85l.07.08a4.12,4.12,0,0,0,.14.78c.16,2.44.4,4.84.4,6.94a25.23,25.23,0,0,0,0,4.76h-5.52v4.82l-17.68-10.89V732.26h1.91v-2.53h-2V682.88c1.87-.27,2.87-.55,2.87-.84s-1.22-.63-3.47-.92h.5V667.51h-11.92V647.72c1.53-.4,2.34-.83,2.34-1.27s-.74-.82-2.1-1.2c-1.69-24.54-16.32-48.49-35.75-55.75V587c.92-.33,1.45-.72,1.45-1.12s-.35-.64-1-.93v-1.55h-.69V579H1791v-2.73h.83v-2.72H1791v-16.4h.71v-3h-.8a.89.89,0,0,0-.11-1.22.72.72,0,0,0,.08-.32.63.63,0,0,0-.53-.67v-3.22a.27.27,0,0,0-.21-.33.29.29,0,0,0-.36.18.2.2,0,0,0,0,.15v3.22a.6.6,0,0,0-.53.67.71.71,0,0,0,.07.32.88.88,0,0,0-.1,1.22h-1.42v-9.71h.53v-2.19h-1v-.67h.64v-1.35h-.53v-.51h.68a7.53,7.53,0,0,0-3.91-6.44v-1.2c.78-.19,1.28-.48,1.28-.8s-.6-.66-1.53-.85a1.51,1.51,0,0,0,.15-.65,1.54,1.54,0,0,0-.26-.85c.42-.18.68-.42.68-.7,0-.47-.78-.86-1.88-1v-2.65c.76-.12,1.29-.38,1.29-.69s-.53-.58-1.29-.7v-.11a3.49,3.49,0,0,0,1.28-5.1,3.77,3.77,0,0,0-1.28-1.16v-4.74a2.45,2.45,0,0,0,1.2-1.47H1785a.84.84,0,0,0,.74-.92.83.83,0,0,0-.74-.91h-1.18a2.44,2.44,0,0,0-1.2-1.48v-1.88c0-.75-.38-1.35-.85-1.35s-.85.6-.85,1.35v1.88a2.41,2.41,0,0,0-1.18,1.48h-1.18a.84.84,0,0,0-.74.91.86.86,0,0,0,.74.92h1.18a2.45,2.45,0,0,0,1.18,1.47v4.72a3.49,3.49,0,0,0-1.27,5.1,3.93,3.93,0,0,0,1.27,1.16v.14c-.75.12-1.28.39-1.28.7s.53.58,1.28.69v2.65c-1.1.14-1.87.53-1.87,1,0,.27.25.51.68.7a1.46,1.46,0,0,0-.25.85,1.65,1.65,0,0,0,.14.65c-.93.19-1.52.5-1.52.85s.49.61,1.27.8v1.25a7.52,7.52,0,0,0-3.91,6.44h.68v.51h-.53v1.35h.64v.67h-1v2.19h.53v9.71h-1.49a.86.86,0,0,0,0-1.28.89.89,0,0,0,.08-.32.61.61,0,0,0-.53-.66v-3.22a.27.27,0,0,0-.21-.33.31.31,0,0,0-.37.18.38.38,0,0,0,0,.15V552a.63.63,0,0,0-.53.67.72.72,0,0,0,.08.32.88.88,0,0,0-.05,1.28H1772v2.95h.71v16.4h-.91v2.72h.83V579H1770v4.37h-.75v1.55c-.63.29-1,.6-1,.93s.53.79,1.46,1.12v2.53c-19.43,7.25-34.06,31.2-35.76,55.75-1.36.38-2.1.79-2.1,1.2s.82.86,2.34,1.27v19.79h-11.9v13.61h.49c-2.21.29-3.47.59-3.47.92s1,.57,2.88.84v46.78h-2v2.53h1.93v14.51l-17.68,10.89v-4.82h-5.52a27,27,0,0,0,0-4.76c0-2.1.24-4.5.4-6.94,0-.26.09-.52.13-.78l.07-.08a7.11,7.11,0,0,0,1-3.85c1.47-.08,2.92-.53,3-2.59.14-2.32-2.1-2.51-3.81-2.51a2.73,2.73,0,0,0-.44-1.68c-.36-.54-2.21-1.22-2.21-1.79,0-2.17-.38-4-2.2-3.54-1.95-.4-2.58,1.72-2.21,3.75-.94.47-1.38,1.43-1.54,3.08-.13,1.37-2.36,1.38-3.1,2a3.74,3.74,0,0,0-1,2.23,1.51,1.51,0,0,0,.56,1.57,2.41,2.41,0,0,0-.69,2.43c.26,1.08,1.11,2.3,1.11,3.4,0,1.66-.33,3.27-.4,4.91s-.46,3.52-.07,5.12h-11.9V770.3h-5.17v-3.75h-1.31v-5.26H1668v-5.21h-2.44v-7.25h-3.13V735.41h2.52v-2.72h1.1v-2.18h-5.1v-3.09h-3.73v-5.07h1.44v-3.63h-1.52v-3.27h-1.83v-28.1h.83v-2.72h1.23V683h-1.45v-2.54h-1.68v-5.32H1654v-.06l-1.81-2.16v-1.35h0a.66.66,0,0,0,.66-.67.65.65,0,0,0-.66-.66h0v-.72c0-.44-.25-.8-.55-.8s-.57.36-.57.8v.72h0a.65.65,0,0,0-.66.66h0a.67.67,0,0,0,.66.67h0v1.35l-1.81,2.16.06.06h-1.11v-1H1647v-9.43h.31V662.9h-1v-6.44a.59.59,0,0,0,.35-.57.56.56,0,0,0-.5-.61h-.58a.73.73,0,0,0,.07-.24.47.47,0,0,0-.41-.49h-1l-1-6.47h.69v-1.21h-.69a5.62,5.62,0,0,0-3.37-4.92c.85-.26,1.43-.74,1.43-1.3s-.81-1.21-1.94-1.42v-.39c1.11-.11,1.83-.39,1.83-.74s-.77-.63-1.83-.73v-3.58a2.68,2.68,0,0,0,1.22-2.33,2.24,2.24,0,1,0-4.42,0,2.68,2.68,0,0,0,1.22,2.33v3.58c-1.11.11-1.84.4-1.84.73s.76.63,1.84.74v.39c-1.11.2-1.94.76-1.94,1.42s.58,1,1.43,1.3a5.67,5.67,0,0,0-3.32,4.92h-.69v1.21h.68l-1,6.53h-1a.46.46,0,0,0-.41.49.73.73,0,0,0,.07.24h-.57a.57.57,0,0,0-.51.61.59.59,0,0,0,.35.57V663h-1v1.81h.3v9.43h-1.11v1h-1.1v-.06l-1.81-2.16v-1.35h0a.67.67,0,0,0,.66-.67.66.66,0,0,0-.66-.66h0v-.72c0-.44-.25-.8-.56-.8s-.56.36-.56.8v.72h0a.65.65,0,0,0-.66.66h0a.66.66,0,0,0,.66.67h0V673l-1.81,2.16v.06h-.24v5.32H1621v2.54h-1.45v1.63h1.22v2.72h.83v28.1h-1.82v3.27h-1.54v3.63h1.44v5.07H1616v3.09h-5.1v2.18h1.1v2.72h2.52v13.42h-3.08v7.19H1609v5.26h-1.22v5.26h-6.06v2.9h2.13l2,4.89v2.69H1605v2.54h-1.37l.92,2.25v.46h.19l1,2.54v49.5H1602l2.13,5.26h.45v1.26h1.19v221.89h-2.87v10H1597v17.4h367.75v-17.4H1961ZM1625,715.44h-1.37v-28.1H1625Zm28.34,0h-1.37v-28.1h1.32Zm16.33,54.42.15-.39h.49Zm58-40.18h-2V683.29c.63.06,1.3.11,2,.16Zm47.44-156.08h-.72V557.2h.72Zm14.18,0h-.72V557.2h.72ZM1838,729.68h-2V683.45l2-.16Zm53.56,39.79h.49l.16.39Zm18.34-54h-1.37v-28.1h1.37Zm28.32,0h-1.37v-28.1h1.43Z"/><path id="Vector_4" data-name="Vector 4" class="cls-2" d="M4652.71,414.06v6.8h7c-.44,1.6-.92,3.22-1.33,4.85h-8.67v6.81h6.83c-22.38,84.69-40.81,203.15-40.81,324.2v292.62h-36.48V747.62c0-104.09,18.44-206,40.81-278.75h-6.83V463h8.67c.44-1.41.91-2.8,1.33-4.18h-7V453h8.92c18.61-55.53,39.11-90.54,53.74-90.69-5.8,14.74-11.62,32.15-17.26,51.72h-8.92Z"/><path id="Vector_5" data-name="Vector 5" class="cls-3" d="M4778.68,747.62v301.72h-163V756.72c0-121.05,18.44-239.52,40.82-324.2h-6.84v-6.81h8.67c.44-1.63.92-3.25,1.33-4.85h-6.95v-6.8h8.92c5.64-19.61,11.47-37,17.26-51.72h.09c14.66,0,35.18,35.05,53.83,90.68h8.91v5.78h-7c.45,1.38.9,2.78,1.34,4.19h8.67v5.84h-6.84C4760.26,541.69,4778.68,643.53,4778.68,747.62Z"/><path id="Vector_7" data-name="Vector 7" class="cls-4" d="M4736.27,833.11l-6.75,21.71c-3.77-9.54-7.67-19.05-11.65-28.29h18.39v-5.37H4717.6l9.87-29.68c3,8,5.93,16.06,8.76,24.15q-.06-7.71-.16-15.34-2-5.44-4-11h3.89c0-1.81-.06-3.57-.09-5.37H4730l5.44-15.53c-.13-4.66-.25-9.31-.39-13.95l-7.84,22.43c-3.11-8-6.33-15.95-9.55-23.69h17.35c-.06-1.81-.11-3.62-.18-5.37h-19.16l10.62-30.06c2.85,7.25,5.61,14.42,8.25,21.41-.19-5.22-.41-10.39-.63-15.55q-1.46-3.79-3-7.61h2.62c-.09-1.81-.17-3.62-.26-5.37h-4.47l3.9-11q-.36-6.39-.73-12.7l-6,16.81c-3.28-8.16-6.68-16.48-10.16-24.8h15.61c-.12-1.82-.24-3.63-.35-5.37h-17.31l9.63-26.05c2.45,6.43,4.86,12.84,7.21,19.12q-.6-8.79-1.28-17.46c-1-2.6-2-5.2-3-7.83h2.34c-.16-1.82-.3-3.63-.45-5.37h-1.11l.79-3.63c-.45-5.41-.94-10.78-1.44-16.1L4723,632.43c-3.56-9.24-7.33-18.79-11.14-28.5h13.56c-.18-1.81-.37-3.63-.55-5.37h-12.43l6.12-23.71c1.77,4.78,3.54,9.62,5.35,14.52q-1.14-10.49-2.36-20.71l-.16-.43h.11q-1.29-10.66-2.66-21l-1.56,9.9q-4.77-12.93-9.37-25.53h8.78c-.38-2.63-.75-5.24-1.15-7.83h-7.45l3.6-23.93c.07.19.12.38.2.56q-2.69-16.32-5.64-31.65-2.13-6.39-4.12-12.5h1.65c-.36-1.82-.74-3.63-1.1-5.37h-2.28l-.36-1.12.91-6.9q-1.53-7-3.11-13.75l-1.28,9.59c-2-6.63-3.94-13-5.65-19.05h4.69c-.45-1.82-.92-3.63-1.34-5.37h-4.86l-.11-.37.36-17.12q-2.8-10.1-5.76-19.48h-2.63l1.16-4.64c-.92-3-1.94-5.88-2.92-8.72l-1.32,5.32-1.21-5.45,2.48-.05c-1.83-5.45-3.8-10.72-5.76-15.72-10.79,6-42.87,35.22-77.91,178-10.95,44.6-44.5,214.49-16.49,527.74l.51,5.74h145.67q.63-6.35,1.24-12.7h-9.29l3-8h7c.17-1.82.33-3.61.49-5.38h-5.5l5.55-14.88c.32.9.64,1.81.92,2.72q.91-11.43,1.74-23.08l-2.52,6.21c-3.1-8.16-6.72-17.24-10.82-26.9h14.67c.09-1.81.2-3.57.3-5.37h-15l11.93-28.79c1.42,3.78,2.81,7.53,4.12,11.22q.3-6.35.59-12.75l-1-2.61H4734c.08-1.81.16-3.6.22-5.37h-1.29l1.46-3.95q.32-7.91.58-15.84l-5.76,15.57c-3.56-9.07-7.39-18.41-11.45-27.9h17.57c.06-1.82.11-3.61.16-5.38h-17.66l11.82-27.39q3.17,8.34,6.09,16.57c.09-4.54.19-9.16.25-13.79-.84-2.28-1.7-4.54-2.57-6.82H4736c0-1.82,0-3.58.06-5.37h-2.87l3-9.5C4736.25,844.33,4736.27,838.74,4736.27,833.11Zm-22.53-16c-4.15-9.4-8.45-18.7-12.77-27.77h22Zm-85.24,187.23-10.87-26.9h21.69c-4.09,9.74-7.69,18.76-10.8,26.9Zm.16,14.11,5.56,14.89h-10.29c1.28-4.48,2.88-9.47,4.75-14.89Zm49.71-557.63c2.64,8.4,5.58,17.34,9.11,27.7h-18.27C4672.76,478.15,4675.7,469.21,4678.37,460.81Zm0-17.37L4673,419.6h10.69Zm-4.29,160.41c-2.31,4.91-6.71,14.3-12.4,26.95l-10.54-27.15Zm-21.65-5.56c3.66-9.18,7.09-17.73,10.24-25.51l11.5,25.71Zm-19.25,112.38c3.93-9.9,8.07-20,12.31-30.15l11.83,30.15Zm22.14,5.37c-3.82,8.26-7.62,16.77-11.34,25.41L4635,716Zm-24.74-12.34-8.79-24.82h19c-3.49,8.28-6.89,16.6-10.19,24.82ZM4641,747.84h-21.73l-.17-.51c3.51-9.5,7.34-19.43,11.27-29.55Zm-2,5.38c-3.22,7.74-6.41,15.69-9.55,23.68l-8.29-23.68Zm.09,67.93H4618.5c3.41-9.9,7-19.86,10.69-29.67Zm-.27,5.37c-4,9.28-7.89,18.77-11.64,28.28l-8.8-28.28Zm.07,69.73h-21.68c3-8.88,6.33-18.08,9.86-27.4Zm-8.16-31.46h24.74c-4.38,9.37-8.62,18.77-12.65,28Zm0-5.38c3.8-9.72,7.81-19.53,12-29.22l12.83,29.22Zm3-70.08h22c-4.35,9.07-8.63,18.39-12.78,27.75Zm-1.63-5.38c3.74-9.72,7.64-19.47,11.62-29l12.18,29Zm16.3-30.73H4674c-2.66,4.95-7.69,14.42-14.09,27.47Zm-1.69-5.38c4.45-10.47,9-20.69,13.48-30.43l14.17,30.43Zm3.46-69h23.65c-2.75,4.94-7.39,13.86-13.3,26.22Zm-1.75-5.36c4.27-10,8.63-20.12,13-30l13.06,30Zm9.88-37.62h-20.65c3.53-9.18,7-18.07,10.36-26.55Zm-1.33,5.38c-3.81,8.59-7.57,17.24-11.21,25.85l-9.52-25.86Zm-14.14,32.24h-19.42c3.19-8.58,6.47-17.33,9.8-26Zm-23.09-4.24-4.4-28h15C4626.56,650.89,4623,660.29,4619.71,669.29Zm8.17,41.36H4610c2.83-8.08,5.86-16.5,9-25.12Zm-2.12,5.39q-4.77,12.24-9.16,23.87L4608.46,716Zm.92,67.91h-20.46c3.19-9.53,6.63-19.36,10.21-29.27Zm-2,5.37c-3.37,9-6.63,17.94-9.69,26.76l-8.87-26.76Zm-1.22,70.08H4606.3c2.75-9.14,5.61-18.36,8.62-27.45Zm-.15,5.38c-3.33,8.74-6.51,17.51-9.49,26.12l-7.62-26.12Zm.49,69h-18.33c2.49-8.79,5.28-17.9,8.29-27.14Zm-6.58-32.12H4639c-4.07,9.53-7.92,18.88-11.45,27.89Zm25.66,3.47,13.35,28.66h-25.05c3.57-9.21,7.49-18.82,11.68-28.64Zm3.88-3.47h27.5c-2.49,5-7.68,15.66-13.94,29Zm0-5.39c4.13-9.48,8.45-19.05,12.83-28.44l14.61,28.44Zm12.83-40.09-13.05-29.63h27.66c-2.85,5.4-8.1,15.83-14.69,29.68Zm-12.94-35c4.27-9.7,8.71-19.36,13.22-28.78l14.42,28.78Zm17.27-31.82h29l-14.55,29Zm0-5.37c6.61-13.5,11.78-23.25,14.48-28.23,2.7,5,7.87,14.73,14.47,28.23Zm1.18-67.91h26.58l-13.32,28.57Zm-1.7-5.37c6.41-13.55,11.68-23.91,14.61-29.16l.4.91.4-.91c2.94,5.27,8.25,15.62,14.61,29.16Zm15-40.72L4666,641.27h24.93Zm-13.55-34.05c6.22-13.87,11-24.1,13.55-29.5,2.54,5.38,7.33,15.61,13.55,29.5Zm1.2-67.73h24.67l-12.37,27.55Zm.67-5.37c2.59-6.35,4.93-12.09,6.89-16.88l.45-1.13c2-4.93,3.4-8.27,4.33-10.6.92,2.29,2.21,5.44,4,9.93l.28.65c2.06,5,4.58,11.12,7.33,18Zm11.63-41.38-9.78-27.53h19.56Zm-8.77,21.19-6.71,16.4-7.62-27.49h18.85c-1.14,2.71-2.7,6.55-4.56,11.09Zm-17.74-5,7,25.17h-16.24q4.61-12.72,9.18-25.17Zm-2.75-43.75h13.1c-2.92,8.44-6,17.15-9.17,26Zm10.08,74.3c-3.27,8.05-6.89,17-10.74,26.71l-6.91-26.71Zm-25.44,64.19-6.32-28.27.25-.66,17.32.16c-3.68,9.13-7.46,18.77-11.32,28.77Zm-4.24,3.53H4616c2.75-7.87,5.54-15.64,8.25-23.22Zm-16.21-7.44-3.73-25.18,12.56.12.06.3Q4617.89,615.76,4613.3,628.46Zm-1.83,20.26,3.91,24.8H4603C4605.57,665.81,4608.31,657.79,4611.47,648.72Zm4.65,30.16c-3.44,9.34-6.72,18.46-9.8,27.17l-4-27.17Zm-2.28,68.38-.2.58h-16.31c2.56-7.85,5.33-16.15,8.25-24.75Zm-2.15,6c-3,8.36-5.93,16.64-8.67,24.66l-6-24.66Zm-.23,67.93h-16.91c2.49-8.6,5.22-17.49,8.13-26.5Zm0,5.37c-3,9-5.91,18.09-8.62,27l-8.25-27ZM4602.91,871l7.34,25.21H4596.2c2-8.26,4.27-16.7,6.68-25.21Zm7.34,30.6c-2.82,8.5-5.5,17-7.91,25.4l-6.17-25.4Zm13.6,37.49c-3.6,9.52-6.89,18.77-9.82,27.55l-8.51-27.55Zm3.73,4.13,11.85,28.8h-22c3-9.16,6.35-18.79,10.09-28.77Zm3.66-4.13h25.12c-4.71,10.2-9.11,20-13.1,29.23Zm29.07,3.34,13.79,29.59h-27c4-9.36,8.46-19.3,13.2-29.59Zm3.95-3.34h28.24l-14.12,30.31Zm27.61,69.38h-27c5.69-12.65,10.92-23.44,13.49-28.68,2.54,5.2,7.75,16,13.46,28.68Zm-27.5-74.75c6.17-13.19,11.28-23.67,14-29.2,2.75,5.53,7.85,16,14,29.2Zm-.72-69H4693l-14.67,28.67Zm-.11-5.38c6.7-14.08,12-24.67,14.85-30.13,2.61,5.09,8.06,15.89,14.85,30.13Zm33.4-67c4.52,9.46,9,19.12,13.2,28.79h-27.61Zm-.12-11.68c-6.41-13.08-11.43-22.53-14.1-27.48h25.62Zm-14.43-32.85,14.17-30.44c4.53,9.8,9,20,13.48,30.44Zm13.88-42.74c-5.93-12.36-10.56-21.29-13.3-26.22h23.59Zm-14-31.6,13-30c4.43,10,8.79,20.05,13,30Zm12.83-42.7c-5.73-12.7-10.08-22-12.39-26.92h22.82Zm-12.56-32.29,11.51-25.75c3.18,7.84,6.66,16.48,10.34,25.75Zm11.3-39.48c-2.56-6.26-4.82-11.8-6.73-16.46s-3.41-8.35-4.51-11.05h18.84Zm6-35.38h-17l8.52-24c2.84,8.19,5.69,16.24,8.52,24.07Zm-5.29-29.81h13.07l-3.89,26c-3.15-8.74-6.23-17.46-9.18-26Zm-4-11.7c-3.4-10-6.09-18.28-8.5-26h12.17Zm-24.34,0-3.67-26h12.16c-2.41,7.66-5.14,16.05-8.5,26Zm-.81,17.54,8.53,24h-17c2.81-7.8,5.67-15.85,8.51-24Zm-14.62-11.16c2.62-7.64,5.25-15.58,8-24.13l3.44,24.13ZM4648,481.1l-1.47-24.93h9.55c-2.6,8.48-5.3,16.84-8,24.92Zm-8.39,75.25-2.88-24.81h12q-4.43,12.24-9.05,24.8Zm-1.54,18.48,6.05,23.39-14.59-.12q4.36-11.86,8.59-23.28ZM4625.75,594l-3.1-25.8h12.65q-4.67,12.62-9.5,25.81Zm-4.81-38.46-3.32-24h12.31q-3.26,8.72-6.51,17.38Zm-2.31,20.38L4621.3,598l-10.71-.1c2.5-6.84,5.1-14,8.09-22.08Zm-11,15.69-4-23.4h12.64c-3.27,8.78-6.06,16.36-8.6,23.38Zm1.84,44.33h-11.84c2.58-7.95,5.28-16,8.25-24.49Zm-.66,5.38c-3,8.67-5.8,16.68-8.38,24.31L4597,641.3ZM4598.56,687l3.49,23.74H4591c2.57-8.15,5.12-16.1,7.62-23.76Zm4.24,29.11c-2.89,8.35-5.64,16.48-8.24,24.24l-4.17-24.24ZM4599.43,784h-13.15c2.19-7.7,4.58-15.84,7.27-24.28Zm-.22,5.37c-2.75,8.35-5.31,16.58-7.68,24.58l-5.26-24.58Zm.22,70.09h-14.82c1.92-8.52,4.15-17.46,6.66-26.69Zm0,5.38c-2.46,8.52-4.74,16.89-6.81,25l-7.8-25Zm-6.51,44.74,5.9,24.22h-11c1.65-8.23,3.36-16.35,5.16-24.24Zm5.88,29.59c-2.19,8-4.22,16.05-6.06,24l-4.9-24Zm3.41,6.36,8.25,26.59h-14.67c1.93-8.62,4.06-17.54,6.51-26.61Zm8.25,32c-2.66,8.57-5,16.76-6.88,24.43L4596,977.45Zm-6.14,44.26,3.31,11.64h-5.14c.52-3.69,1.14-7.6,1.88-11.66Zm9.83-39.52,10.65,26.31h-17.74c2-8.28,4.41-17.12,7.15-26.33Zm29.12-1.38,13.49,27.71h-24.55c3.19-8.41,6.9-17.72,11.11-27.73Zm3.92-3.36h26.7c-2.66,5.44-7.62,15.71-13.11,27.88Zm13.6,40.13,6.46,15.77h-13.09c2-4.94,4.25-10.22,6.68-15.79Zm3.85-3.68h27.29l-8,19.44h-11.37Zm31.17,3.68c2.44,5.58,4.64,10.89,6.62,15.77h-13.06Zm-13.11-40.13h26.71l-13.59,27.88c-5.53-12.35-10.62-22.85-13.08-27.9Zm-.12-5.37,13.75-29.6c4.76,10.31,9.17,20.25,13.24,29.6Zm-.15-70.42h27.49l-13.52,29c-6.28-13.46-11.45-24.05-13.94-29.05Zm.07-5.39,14.61-28.45c4.4,9.45,8.72,19,12.83,28.45Zm0-69.73h27.65l-13,29.65c-6.53-13.76-11.83-24.24-14.62-29.67ZM4724.55,784h-23.83l12.16-29c4.08,9.62,8,19.32,11.72,29Zm-11.91-42.51c-3.74-8.68-7.55-17.24-11.35-25.41h20.33Zm10.81-30.77h-24.14l11.83-30.17c4.28,10.08,8.42,20.2,12.38,30.15Zm-12.56-43.55c-3.67-8.59-7.43-17.24-11.23-25.85h20.88Zm8.1-31.22h-20.66l10.29-26.56c3.41,8.46,6.89,17.37,10.43,26.54Zm-10.69-41c-3.86-9.67-7.47-18.67-10.74-26.72h17.63Zm5.83-32.09h-16.22l7-25.17q4.54,12.45,9.25,25.17Zm-15.66-101.91c2.91,8.92,6,18.15,9.29,27.61h-13.2ZM4695,450.17l-.07.6h-13.22l5.69-25.51c2.28,7.84,4.83,16.2,7.6,24.91Zm-10-67.58-.28,13.94q-1.83-7.57-3.12-13.94Zm-6.69,8.17c1.58,7,3.57,14.88,5.94,23.47H4673c2.05-8.2,3.81-15.94,5.39-23.47Zm-4.52-18.43,1.11,4.93H4672Zm1.21,10.3c-.92,4.7-1.95,9.55-3.12,14.82l-.32-14.82Zm-.1,68.15h-12c2.44-8.16,4.67-15.88,6.73-23.59Zm-10.19-76.6c1.16-1.62,2.29-3.16,3.43-4.54l-.92,6.28-.49,1.36h-3.21Zm-2.07,8.45h2.11l-3.67,10Zm4.23,8.65.49,23h-8.87Zm-.35,28.32c-2,7.83-4,15.09-6,22l-2.83-22Zm-11.2-21.67-2.52,16.33h-3.93Zm-7.86,21.67h3.79l-4.14,11.33Zm-.83,27.1,7.09-19.45,3,23.53h-10.26Zm1.91,77h-10.46c2.52-6.83,5-13.67,7.4-20.39Zm-13-7.36L4634,493.89h9.61c-2.46,7-5.11,14.35-8.07,22.43Zm-1.78-27.81-.11-6.16,8.25-22.53,1.69,28.7h-9.83Zm2.38-56.32c1.74-4.53,3.41-8.83,5-12.59h.33l-5.5,13.81Zm6.13-1.21-.46,14.59-1.9,5.22h-5.5ZM4638,456.15l-4.58,12.43-.22-12.43Zm-2.47,106.65h-11.92l4.19-11.2,4.91-13.12Zm-4.33-39.12h-12.57l10.58-29Zm-2.67-57.83.27,15.51-2.61,7.16h-6.63Zm-11.09,28h6.8l-8.25,22.54-1.54-15Zm-.35,69h-12.76l9.24-25.32Zm-6.25-48.64,1,9.53h-3.4c.8-3.29,1.61-6.45,2.42-9.57Zm-7.34,30.28c1-4.54,1.95-8.86,2.92-12.93h4l-7.05,19.31Zm-7.46,41,3.78-10.38,3.93,22.82-9.55-.08c.65-4.32,1.27-8.47,1.89-12.39Zm-2.61,17.73,10.08.09c-3.06,8.67-5.88,16.91-8.55,25l-2.68-16.45c.42-3,.81-5.86,1.2-8.68Zm-3.31,26,1.11,6.77h-1.83c.26-2.31.51-4.56.77-6.79Zm-1.34,12.15h2q-1.48,4.74-2.94,9.53c.36-3.27.7-6.45,1-9.56Zm4.48,8.49,3.36,23.74h-10.25c2.13-7.7,4.4-15.53,6.93-23.76Zm2.75,29.11c-2.37,7.16-4.81,14.72-7.4,22.9l-2.75-22.9Zm-12.33,23,1,8.8h-1.57c.21-3.07.38-6,.57-8.83Zm-.84,14.18h1.29c-.53,1.71-1.05,3.4-1.58,5.14.14-1.76.23-3.48.32-5.17Zm-1.42,30.3c0-1.59.11-3.19.16-4.74q2.63-8.89,5.26-17.6l4.1,23.84h-9.58Zm-.29,7.7v-.83h9.3c-2.48,7.83-4.77,15.32-6.83,22.34l-2.75-14.31c.15-2.47.24-4.88.32-7.23ZM4580,807.6c.82-3.49,1.75-7.17,2.75-11l5.26,24.5h-8.08c0-4.53.08-9,.11-13.49Zm-.06,18.91h7.9c-2.29,8.16-4.37,16.13-6.22,23.82l-1.61-8.16c0-5.31,0-10.47,0-15.65Zm.72,52c.38-2.17.81-4.36,1.25-6.57l7.56,24.27h-8.26q-.29-8.94-.51-17.68Zm.69,23.08h8.36c-1.83,7.87-3.66,16-5.35,24.4l-2.42-8.43c-.18-5.38-.37-10.67-.56-16Zm2.49,55.13c.37-2.36.75-4.71,1.15-7.07l4.58,22.36h-4.81q-.45-7.69-.88-15.28Zm1.25,20.66h4.48c-1.19,5.81-2.29,11.72-3.31,17.68q-.59-8.9-1.14-17.66Zm8,7.39,7.34,23.69h-11.4c1.16-7.6,2.49-15.41,4.1-23.67Zm-2.76,61.92c-.15-1.72-.28-3.43-.42-5.13l-.24-2.87h.91c.83,2.87,1.62,5.51,2.41,8Zm6.29-5-.91-3H4597Zm1-8.42h-3.4c-1.68-6.06-3.34-12.59-4.94-19.44h11.62c-1.48,6.86-2.57,13.39-3.31,19.42Zm3.42,13.38.92-8h7.33l2.16,8Zm14.88-2.53-1.57-5.44h3Zm-3.1-10.89-5.5-19.44h17.75c-2.55,7.2-4.63,13.73-6.22,19.44Zm7.53,13.39,2.12-8h13.72l3,8Zm23.84-1-2.64-7h5.23c-.95,2.44-1.83,4.79-2.62,7.06Zm-4.65-12.42-7.26-19.44h24.75c-3,6.91-5.76,13.45-8.14,19.44Zm9.48,13.42c.92-2.5,1.92-5.19,3-8h17.41l3.28,8Zm29.45,0h-.38l-3.28-8h6.95Zm5.38,0,3.28-8h17.41c1.12,2.88,2.12,5.52,3,8Zm28.61-1c-.82-2.26-1.69-4.62-2.6-7h5.23Zm4.63-12.42h-9.34c-2.38-6-5.12-12.53-8.14-19.44h24.75Zm7.28-24.82h-24.56l13.49-27.71c4.26,10,8,19.27,11.1,27.7Zm-11-40.13c-4-9.28-8.41-19.06-13.1-29.24h25.12Zm12.06-34.62h-25l13.36-28.65c4.19,9.83,8.12,19.44,11.7,28.64Zm-11.64-41c-4.05-9.24-8.29-18.63-12.65-28h24.74Zm-12.72-33.35L4714,830.2c4.16,9.69,8.18,19.51,12,29.23Z"/><path id="Vector_8" data-name="Vector 8" class="cls-5" d="M4761.9,525.94c-40.65-165.6-77.35-178.48-81.39-179.4l-1-.24-.64.12-.62-.12-1.05.24a12.89,12.89,0,0,0-3.47,1.45q2.94,7.51,5.76,15.71h.11l-.05.18q1.48,4.28,2.92,8.72l.23-1,2,5.53v.09h-.83q3,9.38,5.77,19.48l.12-5.77,8.57,23.26h-4.06c.46,1.81.91,3.56,1.34,5.37h3.52l-1.28,9.42q1.57,6.74,3.11,13.75l2.16-15.71,8.74,23.7h-9.17c.37,1.81.74,3.56,1.11,5.37h8.83l-3,22.61q-1.74-5.1-3.4-10.11,3,15.35,5.64,31.65c3.72,10.53,6.77,18.83,8.42,23.37h-4.76q.57,3.89,1.14,7.83h4.59l-2.48,15.62q1.38,10.36,2.66,21H4734l-3.1,25.78q-4.74-12.95-9.34-25.41,1.23,10.23,2.36,20.72l3.36,9.2h-2.41c.2,1.81.38,3.6.55,5.37h3.83l.07.21-2.75,12.12q.77,8,1.45,16.09l4.38-19.62q4.13,11.38,8.3,23.22H4728.3c.16,1.82.29,3.58.45,5.38h12.61L4737,669.29c-2.44-6.58-5-13.33-7.61-20.22q.66,8.68,1.28,17.46c.92,2.33,1.74,4.63,2.59,6.94h-2.12c.12,1.81.24,3.6.35,5.37h3.31l-2.82,8q.38,6.34.73,12.7l5-14.07c3.15,8.6,6.17,17,9,25.14h-13.37c.09,1.82.18,3.61.25,5.37h14.67l-8.13,23.87q-3-8-6.19-16.27.36,7.74.64,15.56c1,2.74,2.05,5.46,3,8.16l-.19.53h-2.54c.07,1.81.12,3.57.17,5.37h.49l-.44,1.24c.14,4.65.27,9.29.38,14l4.81-13.73c3.61,10,7,19.77,10.21,29.27h-14.67c0,1.81.07,3.57.09,5.37h14.67l-8.87,26.76c-1.84-5.22-3.67-10.5-5.63-15.81q.1,7.65.15,15.34c.65,1.82,1.29,3.69,1.92,5.54h-1.9v5.37h2.06l-2,6.58q0,8.45-.05,16.81l5.59-17.95c3,9.07,5.9,18.31,8.62,27.45h-14.35c0,1.81,0,3.63-.06,5.37h14.43l-7.6,26.13c-2.2-6.35-4.52-12.84-6.92-19.31q-.11,6.92-.26,13.79,2,5.45,3.79,10.89h-4c-.05,1.81-.09,3.63-.16,5.38h4.18L4734.91,914q-.26,7.95-.58,15.84l8.55-23.18c3,9.27,5.81,18.38,8.31,27.14h-17c-.07,1.81-.13,3.62-.22,5.37h17.24l-8.5,27.56c-2.66-8-5.63-16.33-8.84-25q-.3,6.42-.59,12.76,3.23,9,6,17.57h-7c-.11,1.82-.21,3.63-.3,5.37h7l-8.37,20.68q-.81,11.65-1.74,23.08c1.49,4.36,2.75,8.41,3.81,12.13h-4.81c-.15,1.82-.32,3.63-.48,5.37h6.77l2.13,8h-9.63q-.6,6.42-1.23,12.71h52.34l.51-5.75C4806.41,740.45,4772.85,570.55,4761.9,525.94Zm-72.53-150.31-1.14-7.64c.82,1,1.65,2,2.48,3.1l2.49,6.16H4690Zm2.59,7h2l1.54,9.69Zm9.35,14.84,6.74,16.76h-4Zm4.26,22.13h4l1.47,14.94Zm71.86,371.27c-.14-.53-.29-1-.42-1.58h.4C4777.42,789.85,4777.43,790.38,4777.43,790.87Zm-.11-7h-.8l.71-3.82c0,1.3.07,2.6.13,3.85Zm-.68-27.11-3.53,18.72c-2.07-7-4.36-14.52-6.85-22.34h10.25Zm-18.82,182.28h11l-4.89,24c-1.88-7.91-3.92-16-6.11-24Zm9.73,69.38h-11.4l7.34-23.71c1.62,8.31,3,16.13,4.06,23.75Zm-9.74-74.75,5.9-24.23c1.83,7.89,3.51,16,5.08,24.23Zm-.61-69h14.6l-7.79,25c-2.08-8.09-4.36-16.49-6.81-25Zm0-5.38,8.17-26.7c2.52,9.22,4.75,18.15,6.67,26.7Zm7.91-45.5c-2.38-8-4.95-16.25-7.68-24.58h12.95Zm-26.9-240c2.68,7.71,5.5,16,8.43,24.57h-11.4Zm-9.78-42.44h10.81l-3.12,21.5c-3.31-9.39-6-16.9-7.66-21.47Zm13,36.67h11.85l-4.06,22.54c-2.65-7.87-5.29-15.47-7.75-22.51Zm9.42,42.87c2.93,8.8,5.65,17.14,8.12,24.86h-11.79Zm8.79,30.24-3.44,24.28c-2.64-7.82-5.39-15.83-8.35-24.28Zm-1.56,45.62c2.75,8.31,5.25,16.14,7.63,23.76h-11.08ZM4766.2,716l-4.15,24.24c-2.57-7.75-5.32-15.89-8.25-24.24Zm-3.11,43.63c2.64,8.43,5.07,16.57,7.26,24.28h-13.14Zm13.18-11.8h-10.54l4.08-23.86c2.24,7.26,4.33,14.33,6.36,21.31Zm-1-22.91c-.91-3-1.82-6-2.75-8.89h2.25c.24,2.92.38,5.86.54,8.88Zm-1.66-28.31q.48,7,.91,14H4772Zm-5.55,5.09c-2.37-7.48-4.86-15.13-7.42-22.83h10.09Zm-8-28.21,3.33-23.59c2.75,8.86,5,16.76,6.91,23.59Zm10.27-17.72c-1.37-4.53-2.86-9.4-4.46-14.51h3q.8,7.14,1.49,14.5Zm-3.05-28.73c.34,2.9.67,5.86,1,8.85h-2.75Zm-1.95-15.63-3.41,17.44c-2.52-7.83-5.27-16.21-8.25-25h10.62c.4,2.45.75,5,1.08,7.53Zm-3.56-24.95c.59,3.83,1.2,7.87,1.79,12H4752.8l4.39-24.43Zm-7.92-43.4v7.55l-7-19h4.41c.82,3.21,1.71,7.06,2.66,11.49Zm-4.59-19.39h-4.46l-.42-18.91c1.68,6.09,3.33,12.44,4.94,18.9Zm3.78,39.12h-13.41l3.81-26.06Zm-13.38-50.64-6.73-18.28h6.31Zm-1.78-23.65h-6.32l-1.33-19.06Zm-7.49,12.82,8.25,22.36h-11.24Zm-4.72-27.16-6.63-18h5.35Zm-8.07-23.39-1.69-17,6.81,17Zm-1-31.18.29.71,1.44,6.11-2.75-6.82Zm-2.25-5.37h-.66l-.91-3.63Zm2.21,49.48,9.17,24.8H4713.3Zm-1.67,30.17h11.61l-3.18,23.59c-2-5.66-5-13.81-8.38-23.6Zm6.41,69,4-25.4c2.16,6,5.3,14.86,9,25.4Zm13.2,41.08h12.46l-3.67,24.55q-4.36-12.54-8.7-24.58Zm10.69,44.81c3,8.71,5.82,16.89,8.49,24.81h-12.38Zm-4.67,30.19h13.75l-4,27.22c-3-8.85-6.26-18-9.68-27.26Zm2.28,68.38,8.25-24.19c3,8.61,5.74,16.92,8.3,24.77H4743Zm2.16,6h14.66l-6,24.68c-2.66-8.08-5.56-16.34-8.6-24.71Zm9,41.45c2.91,9.07,5.64,17.94,8.12,26.5h-16.76Zm-8.64,31.82h16.88l-8.25,27C4751.17,844.62,4748.28,835.56,4745.28,826.52Zm8.55,44.53c2.41,8.53,4.67,17,6.71,25.2h-14.05Zm-7.34,30.59h14.07l-6.15,25.4c-2.45-8.37-5.1-16.88-7.93-25.4Zm7.94,43.84c2.4,9.07,4.58,18,6.46,26.59h-14.66Zm6.2,31.95-7.56,24.42c-1.91-7.64-4.22-15.83-6.89-24.42Zm-6.49,55.89H4749l3.32-11.65c.74,4.08,1.35,8,1.81,11.65Zm-11.66-51.15c2.8,9.22,5.18,18.05,7.09,26.31h-17.74Zm-1.7,62-1.45-5.44h3Zm-2.9-10.89c-1.58-5.71-3.67-12.23-6.23-19.44h17.76l-5.5,19.44Zm7.33,13.39,2.28-8h7.33l.88,8Zm14.85-5-.33-3H4761c-.33,1.08-.64,2.09-.93,3.08Zm-.92-8.42c-.74-6-1.83-12.57-3.28-19.44h11.61c-1.6,6.89-3.26,13.41-4.93,19.44Zm8.69,7.83c-.15,1.81-.3,3.69-.46,5.55h-3.66c.78-2.5,1.57-5.14,2.4-8h1.9Zm.86-10.34-.21,2.51h-.83c.41-1.48.81-3,1.21-4.53-.1.73-.17,1.39-.22,2.06Zm2.67-34.87c-.14.7-.29,1.42-.44,2.15-1.14-7-2.41-13.89-3.81-20.65h5.5c-.46,6.16-.87,12.3-1.31,18.51Zm1.65-25.29-.08,1.41h-5.8l4.59-22.3c.65,4,1.25,8,1.83,12.13-.23,2.93-.4,5.87-.6,8.8Zm3.23-66.72c-.11,3.21-.21,6.41-.33,9.68L4772.33,926c-1.69-8.35-3.47-16.53-5.35-24.41h9.34Zm.25-7.68h-9.27l7.55-24.27c.79,4,1.49,7.81,2.11,11.49-.17,4.25-.3,8.54-.43,12.82Zm1.18-59.35-2.61,13.45c-1.83-7.69-3.91-15.67-6.2-23.82h8.86c-.05,3.46-.08,6.92-.1,10.4Zm-9-15.74,5.26-24.5c1.37,5.28,2.64,10.42,3.76,15.34v9.17h-9Z"/></g></g><polygon class="cls-6" points="1197.78 1034.92 1098.75 315.24 1096.42 346.75 1090.91 315 1087.79 329.77 1085.11 314.94 1078.39 347.2 1070.2 314.94 974.29 1034.92 1197.78 1034.92"/><path class="cls-7" d="M1170.4,835.82l-5.2-37.56H1005.83l-5,37.56Zm-56.79-412.77h-57.79l-.43,3.15H1114Zm-1.09-7.81-.43-3.15H1057.3l-.44,3.15Zm-1.52-11-.43-3.11h-51.85l-.39,3.11Zm-1.51-11-.43-3.12H1060.2l-.43,3.12Zm-1.52-11-.43-3.15h-45.9l-.43,3.15Zm-1.44-11-.43-3.15h-42.95l-.43,3.15Zm-1.52-11-.43-3.15h-40l-.39,3.15Zm11.87,86.27h-64.22l-.82,6.25h65.88Zm12.77,93.12h-89.38l-1.7,12.56h92.8Z"/><polygon class="cls-8" points="974.29 1034.92 1070.2 314.94 1078.39 347.2 1061.88 1034.92 974.29 1034.92"/><path class="cls-9" d="M1000.8,835.82l5-37.56h61.72l-.86,37.56Zm75.78-412.77h-20.76l-.43,3.15h21.1Zm-19.71-7.81.43-3.15h19.54l-.09,3.15Zm1.48-11,.39-3.12h18.36l-.08,3.12Zm1.43-11,.43-3.12h17.17l-.09,3.12Zm1.47-11,.43-3.15h16l-.09,3.15Zm1.46-11,.43-3.16h14.73l-.09,3.16Zm1.43-11,.39-3.15h13.56l-.08,3.18ZM1076,446.62h-23.31l-.82,6.25h24Zm-2.22,93.15h-33.49l-1.69,12.56h34.87Z"/><polygon class="cls-10" points="1096.42 346.75 1158.18 1034.92 1197.78 1034.92 1098.75 315.24 1096.42 346.75"/><path class="cls-11" d="M1137,798.26l3.38,37.56h30.07l-5.2-37.56Zm-23.35-375.21h-10.35l.3,3.15H1114Zm-16.23-65.82.3,3.16H1105l-.43-3.16Zm1,11,.26,3.15h7.89l-.43-3.15Zm.95,11,.3,3.15H1108l-.43-3.15Zm1,11,.3,3.12h8.88l-.43-3.12Zm1,11,.26,3.12H1111l-.43-3.12Zm1,10.95.26,3.15h10l-.43-3.15Zm14.55,34.58h-11.47l.56,6.26h11.78Zm12.8,93.12h-15.92l1.13,12.56h16.5Z"/></svg>