<svg id="Layer_1" data-name="Layer 1" xmlns="http://www.w3.org/2000/svg" viewBox="0 0 3840.21 2399.33"><defs><style>.cls-1{fill:#a5a5a5;}.cls-2{fill:#bbb;}.cls-3{fill:#fff;}.cls-4{fill:#ccc;}.cls-5{fill:#878787;}.cls-6{fill:#767676;}.cls-7{fill:#cfcfcf;}.cls-8{fill:#bfbfbf;}.cls-9{fill:#cecece;}.cls-10{fill:#c9c9c9;}.cls-11{fill:#c3c3c3;}.cls-12{fill:#c8c8c8;}.cls-13{fill:#c5c5c5;}.cls-14{fill:silver;}.cls-15{fill:#b9b9b9;}.cls-16{fill:#bcbcbc;}.cls-17{fill:#b6b6b6;}.cls-18{fill:none;}</style></defs><path class="cls-1" d="M3802.37,2193.66c10.64,1.35,21.22,1.15,31.82,1.53l1.64,0c.46,0,.93,0,1.39.06l.86.06.65.06c.23,0,.47,0,.7.09l.57.09v-2.94q-21.43-1-42.84-1.92a46.62,46.62,0,0,1-7.88-1c-5.63-1.19-11.27-1.14-16.5,1.81s-10.33,4.14-16.23,2.08c-2.41-.84-5.28-.32-7.94-.45l-48.51-2.41c-1.07-3.86,3.57-2.45,3.79-4.95-.45-.29-.9-.85-1.39-.88-21.2-1.29-42.44-2.11-63.6-3.9-19.9-1.69-39.16,1-58.06,6.66-13.76,4.13-27.46,4-41.39,1.73a53.74,53.74,0,0,0-9-.25c-15.51.12-30.9-1.66-46.56-4l44.29-8.72c0-.34,0-.68-.07-1-7.68-.78-15.35-1.85-23.05-2.26-18.59-1-37.2-1.5-55.78-2.6-5.92-.34-11.83-1.17-17.76-1.68-10.81-.93-21.28,1.07-31.72,2.69-14.33,2.23-28.45,1.41-42.69,0a126.47,126.47,0,0,0-15-.53c-12.66.27-25.1-2.7-38.45-1.93,11-7.84,22.77-6,34.24-6.25l-.06-1.65c-12.24-.69-24.47-1.54-36.72-2s-24.62-.49-36.93-1c-24.22-.93-48.44-2.08-72.67-3.06-18.26-.74-36.53-1.34-54.79-2.07a12,12,0,0,1-4.83-.94c-1.39-.7-1.2-2.12,0-3.18h-22c.45,1.51-.09,2.79-1.62,2.75-9.41-.27-18.81-.69-28.21-1.07-8.09.3-16.2,1.36-24.23-.66a3.69,3.69,0,0,0,3.72,2.69c3,.08,6,.22,9,.09,24.59-1.08,49,3.19,73.55,2.76-13.23,2.51-26.41,5.08-39.92,2.05-2.87-.65-6-.43-9-.41-19.84.15-39.49-3.34-60.89-2.16,4.15-2.91,7.24-1.64,10.07-2.14,2.24-.39,3.69-1.38,3.49-3.9h-18c-6.53,3.74-13.28,2.8-20.07.93a4.07,4.07,0,0,1,.07-.93h-14c1.26,1,1.58,2.36.26,3.21-2.35,1.51-5.16.83-7.79,1-13.23.69-26.47,1.28-39.7,2.09-26.42,1.62-52.84,3.43-79.27,5-18.19,1.1-36.4,1.86-54.59,3q-39.63,2.41-79.26,5.11c-13.19.88-26.37,1.92-39.56,2.88,0,.54,0,1.08,0,1.61h13.75c0,.67,0,1.34,0,2-14.2-1.14-28.13,1.34-42.16,2.39-22.14,1.65-44.32,2.75-66.4,5.17-13.86,1.51-27.85,1.66-41.76,2.7-22.82,1.71-45.59,4.11-68.43,5.31-12.94.69-25.84,1.83-38.76,2.7-23.16,1.55-46.25,4.15-69.43,5.3-13.28.66-26.51,1.85-39.76,2.79-22.81,1.6-45.64,3.19-68.44,5.11-13.53,1.13-27.16,2-40.74,2.83-22.84,1.45-45.6,4.06-68.44,5.24-13.62.7-27.21,1.68-40.77,2.8-22.48,1.85-45,3.1-67.47,5.12-13.2,1.19-26.51,1.76-39.75,2.81-22.81,1.82-45.65,3.28-68.46,5.18-13.87,1.15-27.83,2-41.75,2.88-22.5,1.41-45,3.62-67.44,5.31-13.58,1-27.2,1.57-40.78,2.6-22.48,1.7-44.93,4.12-67.44,5.26-14,.72-27.85,1.91-41.77,2.82-22.17,1.43-44.27,4-66.44,5.19-13.28.7-26.52,1.79-39.77,2.71-23.49,1.64-46.93,4.16-70.44,5.31-13.62.66-27.16,2-40.76,2.82-22.18,1.27-44.29,3.55-66.44,5.26-9.59.74-19.2,1.12-28.81,2-23.8,2.13-47.73,2.8-71.56,4.71-27.45,2.2-54.92,4.09-82.38,6.11q-40.21,3-80.41,5.94-40.69,3.06-81.39,6c-27.47,1.95-54.91,4.22-82.4,6-17.87,1.17-35.72,2.75-53.6,4-27.47,1.95-54.92,4.19-82.4,6-17.87,1.17-35.74,2.66-53.6,4-26.8,2.05-53.61,3.89-80.4,5.94q-41.19,3.15-82.4,6c-17.87,1.26-35.73,2.67-53.6,4q-41.19,3.06-82.39,6.12c-13.52,1-27.11,1.33-40.6,2.84-9.57.86-19.14,1.8-28.72,2.57-24.8,2-49.57,4.37-74.4,5.65-12.62.65-25.18,1.82-37.76,2.69q-35.22,2.43-70.43,5.23c-13.88,1.12-27.85,1.81-41.74,2.9-21.81,1.72-43.69,2.48-65.43,5.18-9.86,1.22-19.85.81-29.81,2-13.81,1.69-27.83,1.61-41.74,2.66-19.36,1.47-38.7,3.23-58,4.86v3l.36,0c22.82-1.72,45.61-3.71,68.43-5.41,13.92-1,27.87-1.58,41.78-2.61,22.49-1.68,45-3.66,67.45-5.37,13.24-1,26.52-1.62,39.77-2.62,22.82-1.72,45.62-3.7,68.44-5.39,13.91-1,27.86-1.59,41.77-2.64,22.16-1.67,44.29-3.66,66.44-5.35,13.58-1,27.19-1.61,40.78-2.64,22.48-1.7,44.94-3.71,67.43-5.38,14.24-1.06,28.53-1.58,42.77-2.64,22.16-1.65,44.29-3.66,66.45-5.34,13.91-1.05,27.83-2,41.77-2.57,94.23-3.65,188.5-1.12,282.75-1.53,132.62-.57,265.24-.41,397.86-.56,6,0,11.92,0,17.91,1.22-8.45.86-16.9,1.81-25.36,2.57-24.79,2.2-49.62,4.06-74.39,6.56-28.38,2.88-56.8,5.4-85.21,8s-56.82,5.39-85.23,8-56.81,5.32-85.22,8c-35.67,3.34-71.31,7-107,9.95-20.83,1.71-41.62,3.86-62.42,5.91-31.68,3.12-63.34,6.47-95,9.45-25.44,2.39-50.94,4.18-76.38,6.59l-9.15.88h42.54q16.66-1.71,33.32-3.39l5.44-.54,5.67-.55c17.85-1.7,35.74-3,53.59-4.67,17.49-1.65,35-3.65,52.44-5.29,8.59-.81,17.21-1.3,25.81-2.17,24.76-2.51,49.62-4.08,74.37-6.68,21.12-2.21,42.28-4,63.41-6,16.2-1.54,32.33-3.71,48.62-4.12,31.69-3.19,63.34-6.77,95.08-9.45,28.45-2.4,56.88-5,85.29-7.93,16.84-1.75,33.75-2.83,50.6-4.43,25.79-2.45,51.55-5.18,77.33-7.61,24.47-2.31,49-4.36,73.44-6.6l21.57-2,32.35-3,32.36-3,34.18-3.45q17.1-1.74,34.19-3.43c16.19-1.61,32.38-3.1,48.57-4.67,25.74-2.51,51.46-5.11,77.2-7.52,17.84-1.67,35.74-2.76,53.55-4.68,36.88-4,73.83-1.21,110.74-1.45,41-.27,82-1.4,122.91.22,63.58,2.53,127.16-.34,191.32,1.89-8.65,4.7-17.86,3.56-26.48,4.77-25,3.51-50.08,5.88-75.12,8.83-19.43,2.29-38.82,4.85-58.24,7.18-18.44,2.22-36.91,4.24-55.35,6.45-21.07,2.51-42.12,5.2-63.2,7.69-19.11,2.27-38.25,4.31-57.36,6.56-20.08,2.37-40.14,4.94-60.22,7.31-19.44,2.3-38.91,4.38-58.35,6.7-25.34,3-50.67,6.26-76,9.28-19.1,2.27-38.23,4.26-57.33,6.53-20.41,2.42-40.79,5.13-61.2,7.54-14.51,1.71-29.08,3-43.59,4.69-25.7,3.06-51.37,6.35-77.07,9.44-4.95.6-9.95.73-14.93,1.07-9,2.45-18.39,2.14-27.58,3.38q-9.21,1.24-18.42,2.4l-5.68.7h28.81l17.7-2.18,9.62-1.17,9.62-1.15c19.76-2.34,39.55-4.32,59.31-6.63,19.08-2.24,38.12-4.76,57.2-7.07,13.82-1.67,27.66-3.15,41.49-4.8,20.39-2.43,40.75-5.28,61.18-7.3,16.17-1.59,32.19-4.68,48.5-4.94,8.57-2.95,17.65-2.4,26.47-3.52,40.49-5.18,81.08-9.64,121.62-14.42,39.2-4.63,78.41-9.11,117.56-14.16a201.47,201.47,0,0,1,25.83-1.34q169.9-.06,339.82,0c12.29,0,24.6-1.25,37,.78-14.67,2.25-29.34,4.54-44,6.73q-37.89,5.65-75.8,11.2c-20.68,3-41.37,6-62.05,9.05q-35.92,5.31-71.84,10.71-37.89,5.64-75.8,11.24-35.94,5.33-71.87,10.65-20.88,3.11-41.75,6.27l-13.92,2.09h21.49l3.49-.53q42.73-6.41,85.54-12.37c16.73-2.32,33.28-6.06,50.25-6.55,15.37-4.63,31.43-5,47.14-7.55,29.87-4.74,59.8-9.08,89.71-13.49,24.65-3.64,49.33-7.1,74-10.7,17.1-2.5,34.17-5.09,51.26-7.64l89.44-13.37c33.09-5,66.16-10,99.26-14.87,15.06-2.21,29.95-5.64,45.24-6.17a151.35,151.35,0,0,1,29.37-4.33,863.32,863.32,0,0,1,95.84-.77c41.28,1.94,82.51.43,123.75,1.13,16.3.28,32.61,0,49.93,0-4.9,4.84-10.54,4.18-15.4,5.12q-65,12.57-130.09,24.55c-43.76,8.14-87.51,16.4-131.35,24.12-23.31,4.11-46.56,8.55-69.86,12.73q-25.77,4.62-51.47,10.18c-7.45,1.61-15.07,2.43-22.61,3.61-14.85,4.69-30.34,6.25-45.52,9.35l-8.88,1.77-1,.2c-2.63.52-5.25,1-7.88,1.51l-7,1.31-1.9.35-7.59,1.39-5.42,1h19.27l27.28-5.1q44-8.26,88.07-16.69c18.6-3.52,37.16-7.22,55.8-10.42,5.86-1,11.95-.79,17.94-.89,8.33-.13,16.66.12,25,0,61.26-1.26,122.54-1.24,183.78-2.51,28.26-.59,56.57.14,84.81-1.48,4.31-.25,8.64,0,14.66,0-6.13,3.77-11.64,4.22-16.73,5.45-44.32,10.7-88.69,21.16-133,31.72h14.88l84.31-20.26q42.06-10.1,84.16-20.11a60.64,60.64,0,0,1,6.91-.84q27.41-6.69,54.8-13.38,77.7-18.83,155.39-37.6a48,48,0,0,1,5.9-.69,17.92,17.92,0,0,1,9.57-2.2l190.25.61.2,0,.42-.08.48-.12.29,0,.24,0h.18a.82.82,0,0,1,.3.1,1.35,1.35,0,0,1,.55.93l0,0-.05,0-.19.08-.86.29-.35.12-.39.13-.32.11-.21.07c-16,6.39-32.67,10.73-49.07,15.88q-83.07,26.11-166.24,52c-27.25,8.47-54.66,16.47-81.89,25h13.28l1.38-.45c27-8.87,54.39-16.88,81.62-25.24,2.19-.67,4.48-1,6.73-1.54q37.35-11.87,74.72-23.7c17.7-5.57,35.53-10.75,53.13-16.6a64.3,64.3,0,0,1,23.37-3.65c8.29.35,16.59.26,24.88.36q72-.18,143.91-.34c.85,0,1.93-.26,2.65,1.75-4.95,2.18-9.94,4.48-15,6.59q-75.36,31.42-150.73,62.82h10.47q64.56-26.82,129.11-53.64,43.71-18.19,87.33-36.57c2.76-1.16,5.41-2.58,8.52-2.53,6.59.11,13.19,0,19.78,0,4.63-.05,9.25-.11,13.88-.09,2.22,0,4.44,0,6.66.07h0a.08.08,0,0,1,.07,0l3.27.08,3.09.11.55,0,2.73.14q1.36.07,2.73.18l1.09.07q8.16-.24,16.31-.38l5.44-.08,3.79,0,8.73-.07h3.79c16-.05,31.92.12,47.88.35a17,17,0,0,1,2.89-.4c1.17,0,2.91-.65,3.25,1,.29,1.44-1.09,2.12-2.45,2.37-45.93,27.31-91.93,54.51-137.72,82.05a44.66,44.66,0,0,1-23.43,6.63c-9.31.14-18.62.44-27.93.77h47.05l14.79-8.77c21.13-12.52,42.3-25,63.35-37.63a17.1,17.1,0,0,1,9.33-2.69c20.28.14,40.55.18,60.83.25l64-1.34h30.41c-17.41,17.39-35.1,33.78-52.51,50.18h6.35c21.43-20.2,43.67-39.52,64.32-60.56,3.47-3.54,7.6-6.42,11.3-9.74a10.09,10.09,0,0,1,7.34-2.46c12.26.16,24.51,0,36.77-.09v-2.43c-11.09.21-22.19-.29-33.27-.06-2.74.06-4.36-1-4.78-3.75l-.76,0h-.53a4.89,4.89,0,0,0-.68.07,4.34,4.34,0,0,0-.52.09l-.66.17-.4.14c-.17.06-.33.12-.48.19l-.36.17-.31.16-.39.22a7.48,7.48,0,0,0-.66.43,9.48,9.48,0,0,0-.95.72c-.21.17-.41.35-.61.53-.53.47-1,1-1.53,1.47-.17.16-.33.33-.5.5-.67.67-1.34,1.33-2,1.93-6.52,5.57-11,14.44-19.3,16.73-8.07,2.23-17.11,1.18-25.72,1.2-17.92,0-35.83-.17-53.75-.27-5.4,2.52-11.17,1.32-16.75,1.39-19.61.22-39.22.09-59.93.09,7.38-7.09,16.05-10.44,23.77-15.13,25.28-15.36,50.81-30.29,76.15-45.55,3.53-2.13,6.92-3.65,11.13-3.59,21.29.27,42.58.41,63.87.6h44.59c.3.66.59,1.31.88,2-7.81,7.33-15.67,14.62-23.41,22-4.16,4-9.88,6.87-10.15,13.75,3.85,0,5.8-3.05,8.14-5.24,10-9.36,20-18.7,29.91-28.2v-7.24a7.32,7.32,0,0,1-4.24.42c-16.49-3-33.15-1-49.72-1.67-2.65-.11-5.31-.16-8-.24h-47.29c2.69-4.67,6.46-5.48,9.4-7.27,14.69-9,29.53-17.74,44.23-26.71,4.38-2.67,8.88-4.38,14.09-3.84,10.47,1.1,21.13-1.33,31.52,1.6l10,.17v-4c-2,0-3.95,0-5.93.09-10.89-.4-21.92,1.31-33-2.54,1.75-3.69,5.65-4.36,8.51-6.27,3-2,6.6-3.34,9.34-5.67a39.47,39.47,0,0,1,21.09-9.22v-8l-.48.23-.63.31-.61.32c-1.06.56-2.1,1.18-3.12,1.82l-1.25.8-1.55,1c-1.54,1-3.08,2.09-4.63,3.11-.83.54-1.66,1.07-2.51,1.58a32.84,32.84,0,0,1-18.87,5c-20.57-.82-41.08-3.12-61.71-2.66-2,0-4.07.15-5.39-2.36,12.33-6.52,25.4-11.44,38.36-16.36C3785.35,2190.94,3794.26,2192.64,3802.37,2193.66Z"/><path class="cls-1" d="M3608.2,2184.9a57.09,57.09,0,0,1,24.64-.63,32.19,32.19,0,0,0,6.92.58c15.3-.44,30.44,1.92,46.87,2.26-3.64,3.38-7.49,3.75-10.88,4.82-14.23,4.51-28.6,8.58-42.79,13.23-6.9,2.25-13.95,2.23-20.72,1.27a150.38,150.38,0,0,0-22.8-1.35c-15.78.17-31.34-3-48.14-2,3.69-4.72,8.13-4.14,11.74-5.05C3571.37,2193.39,3589.84,2189.38,3608.2,2184.9Z"/><path class="cls-1" d="M2840.61,2221.5c19.76-2.31,39.56-4.25,59.31-6.57,20.07-2.36,40.09-5,60.16-7.43,3.94-.47,8-.24,11.94-.34,6.8-3.28,14.35-2.53,21.48-3.47,22.68-3,45.43-5.48,68.15-8.08a134.88,134.88,0,0,1,33.8.73c7.21,1,14.61.57,21.93.72,21.27.45,42.47,2.81,63.76,2.13,4.49-.14,8.34,1.89,12.66,3-14.67,2.23-29.33,4.51-44,6.67-24.94,3.68-49.89,7.26-74.82,10.92q-36.93,5.43-73.82,10.95c-15.75,2.34-31.52,4.48-47.22,7.08-7.31,1.21-14.51,1.68-21.8.32a303.12,303.12,0,0,1-41.74-.71c-15.85-1.49-31.93-.57-47.9-.77-31.37-.37-62.68-2.88-94.09-2.27,9.31-4.38,19.43-3.52,29.13-5C2798.47,2226.24,2819.56,2224,2840.61,2221.5Z"/><path class="cls-1" d="M2794.26,2218.3q-2.06-.08-4.11-.12l-4.71-.19-11-.46q-3.3-.14-6.6-.24c-1.28-.05-2.57-.09-3.85-.12l-2.83-.07a5.56,5.56,0,0,0-.58,0c-1.14,0-2.29-.06-3.44-.07-1.57,0-3.14,0-4.72-.05-31.92-.1-63.79-2.61-95.74-2.51-8.81,0-17.72-1.84-26.67-2.68,17.76-1.61,35.52-3.12,53.27-4.83q26.2-2.53,52.39-5.42c6.61-.73,13.25-.69,19.87-1.3,20.81-1.89,41.49-5.35,62.46-5.21,27.26-3.75,54.69-5.82,82.1-8.22,23.75-2.07,47.39-5.51,71.16-7.12,9.44-.64,19.13,1.24,28.77,1.37,19.92.27,39.81,1.67,59.7,2.56,14.71.66,29.47,1.17,45.41,1.85-9.76,4.61-19.23,3.92-28.25,5.08-30.89,4-61.88,7.08-92.83,10.64q-50.83,5.85-101.66,12c-19.74,2.39-39.35,6.1-59.34,5.85l-7.2-.12C2808.66,2218.73,2801.46,2218.5,2794.26,2218.3Z"/><path class="cls-1" d="M3087.49,2221.64c41.94-6.62,84-12.47,126-18.71,20-3,40-6.24,60-9.32a18,18,0,0,1,6-.23c13.18,2.58,26.64.48,39.78,2.06,21.46,2.58,43.2,0,66.06,4.54-16.06,3.11-30.72,6-45.42,8.78-30.34,5.66-60.79,10.75-91,17-23.66,4.87-47.18,6.6-71.22,3.58-9.85-1.24-20-.47-30-.44-27,.1-53.8-3.28-83-1.86C3072.86,2221.8,3080.51,2222.75,3087.49,2221.64Z"/><path class="cls-1" d="M3221.42,2234.29c6.83-1.25,13.55-3.31,20.6-3.12,16-4.67,32.5-6.43,48.71-9.86,12-2.54,24.16-5.39,36.52-3.89,22.14,2.7,44.45.65,66.63,3.13,12.5,1.4,25.27.26,38.37.26-1.49,3.68-4.29,3.61-6.73,4.19-54.27,12.89-108.49,26-162.86,38.51-14,3.21-28.58,1.63-42.78.57-6.59-.49-13.25-.47-19.83-1.31-29,0-58,.48-86.93-.44a203.29,203.29,0,0,1-26.91-2.46c14.4-2.84,28.79-5.79,43.22-8.51Q3175.41,2242.71,3221.42,2234.29Z"/><path class="cls-1" d="M3411.16,2231.86c27.92-7,55.94-13.57,83.94-20.24a34.88,34.88,0,0,1,4.93-.47c14.65-4.86,29.4-7.73,45-4.52,5.44,1.12,11.28.3,16.94.33,17.28.08,34.44,2.74,52,2.14-.47,3.25-3,3.33-4.95,3.94q-42.81,13.35-85.64,26.66c-2.6.82-5.29,1.47-7.85.87-10.53-2.48-21.21-1.05-31.81-1.57-1.14-.06-2.28-.13-3.41-.23l-1.05-.09-2.31-.22c-1.71-.17-3.41-.36-5.11-.55l-4-.41-1.27.44a27,27,0,0,1-5.22,1.11l-1.32.12c-.39,0-.78.06-1.17.07h-.27l-1.18,0a49,49,0,0,1-8.28-.77c-16.19-2.76-32.48-.28-49.17-2.24C3402.8,2232.21,3407.53,2232.77,3411.16,2231.86Z"/><path class="cls-1" d="M3600.52,2219.47c8.81-2.86,17,.37,25.52-.24,19.24-1.07,38.35,2,57.57,1.85,4,0,8,0,12.09,0,.19,3.62-2.72,3.54-4.49,4.3q-32.51,13.77-65.08,27.35a28.36,28.36,0,0,1-12.59,2.41c-6.73-.34-13.49.08-20.24,0l-1.48,0h-.08l-2.15-.08-1.34-.07c-.89,0-1.78-.12-2.67-.2l-1.34-.14c-.35,0-.71-.07-1.07-.13-1.48-.19-3-.44-4.45-.76l-.88-.19c-1.38.32-2.77.59-4.16.81-.7.12-1.39.22-2.09.31s-1.4.17-2.1.24-1.4.14-2.1.18-1.39.1-2.09.13a115.09,115.09,0,0,1-19.24-.9c-12-1.44-23.89-.77-35.82-1.35-2.81-.13-5.8.76-8.37-.83-.13-2.1,1.3-2.36,2.52-2.73C3536.45,2239.48,3568.61,2229.84,3600.52,2219.47Z"/><path class="cls-1" d="M3485.1,2190.58c5.14,1,10.62.43,16,.4,16.29-.11,32.41,2.9,48.73,2.07-.05.66-.1,1.32-.14,2-12.18,3.06-24.34,6.24-36.55,9.15-16.79,4-33.83,7.06-50.37,11.84-13.54,3.91-27.17,3.51-40.56,2.26-11.63-1.09-23.23-1.28-34.8-1.39-17-.15-33.77-3.21-52.41-1.75,6.62-4.69,13-4.49,18.75-5.63,30.6-6,61.28-11.52,91.91-17.33C3458.71,2189.68,3471.72,2187.87,3485.1,2190.58Z"/><path class="cls-1" d="M3420.68,2172.29c12-1.55,24.53-.11,36.62,1.45,7.65,1,15.24,1,22.83,1.29,7.31.28,14.51.72,22.95,3-32.49,6.09-63.76,11.87-95,17.9-4,.77-8,1.4-11.86.64-11.88-2.34-23.89-.92-35.77-1.94-16.23-1.38-32.47-1.9-48.74-2.12-3.2-.05-6.38-1.38-10.84-2.42C3341.7,2183.9,3381.1,2177.41,3420.68,2172.29Z"/><path class="cls-1" d="M3342.58,2174.5c6.82,1,13.93.17,20.9.17-12.29,5-25.12,6.16-37.79,8.15-21,3.29-41.94,6.32-62.92,9.43-13.12,1.94-26.27,5.54-39.35,5.29-16.85-.31-33.84.54-50.65-1.85a61,61,0,0,0-9.92-.62c-20.28.47-40.43-2-62.79-2.48,11.65-3.84,21.83-3.77,31.72-5.17,25.27-3.55,50.54-7.29,75.93-9.65,28.37-2.64,56.54-9.48,85.24-6.34C3309.47,2173.24,3326.1,2172,3342.58,2174.5Z"/><path class="cls-1" d="M3140.06,2163.74c21.87-1.33,43.5-6,65.56-4.51,26.15,1.71,52.29,3.7,79.05,4.2-1.38,3.83-3.64,3.22-5.5,3.37-28.76,2.35-57.32,6.61-86,9.69-30.67,3.29-61.29,9.29-92.31,6-19.53-2.05-39.15-.87-58.67-3.2-11.82-1.4-24-.25-36.78-.25a11.17,11.17,0,0,1,7.84-3.57c17.29-.48,34.39-3,51.58-4.52C3089.92,2168.71,3114.93,2165.26,3140.06,2163.74Z"/><path class="cls-1" d="M2761.79,2173.25c24.45-1.71,48.92-3.06,73.29-5.81,4.28-.48,8.65-.14,13-.18,27.12-2.09,54.25-4.09,81.37-6.29,23.13-1.88,46.37-2.57,69.4-5.6,6.77-.89,13.17,1.51,19.82,1.57,23.26.2,46.44,1.85,69.61,3.74,7.92.64,15.95.1,23.94.7-12,4.45-24.67,3.85-37,5.25-26.68,3-53.48,4.88-80.19,7.75-14.5,1.55-29.06,3-43.59,4-23.53,1.52-46.88,5.7-70.57,4.72-14.27-.59-28.61.34-42.77-2.24-14.26-.05-28.55,1-42.74-1.51-3.23-.57-6.64-.27-10-.22-18.45.29-36.79-1.62-55.18-3.2C2740.78,2175.63,2751.24,2174,2761.79,2173.25Z"/><path class="cls-1" d="M2187.48,2215.67c14.6-.71,29.12-2.25,43.72-2.92,21.15-1,42.22-3.66,63.36-5.21,10.58-.78,21.18-1.53,31.76-2.08,23.19-1.21,46.33-3.27,69.47-4.95,21.12-1.53,42.33-2.36,63.36-5.13a10.9,10.9,0,0,1,2.94.46c12.22-1.49,24.55-1.18,36.79-2.76,22-2.85,44.29-3.41,66.42-5.37,13.2-1.16,26.5-1.93,39.75-2.83,23.16-1.57,46.27-4,69.44-5.33,17.92-1.07,35.88-1.22,53.81.87,6.58.77,13.3.38,20,.5,22.27.42,44.5,1.92,66.75,2.69,13.57.47,27.2,1,40.84,2.15a76.13,76.13,0,0,1-14.48,3.07c-27.41,2.5-54.79,5.25-82.2,7.75-18.18,1.66-36.4,2.86-54.57,4.58-24.43,2.3-48.81,5-73.24,7.35-17.84,1.7-35.73,2.93-53.58,4.6-17.16,1.6-34.28,3.52-51.43,5.28-7.92.82-15.89,1.34-23.8,1.93-19.53,1.44-38.93,4.67-58.55,4.78-6.65,0-13.3-.21-19.95-.32-21,0-42,1.24-62.87-.43-20.62-1.65-41.18-.65-61.75-1.62-32.2-1.52-64.46-1.45-96.66-2.46-14.83-.46-29.79-.7-44.65-2.12C2167.88,2216.81,2177.75,2216.14,2187.48,2215.67Z"/><path class="cls-1" d="M1774,2288.47a63.84,63.84,0,0,1-8,.3c-10.65,2.91-21.71,2.48-32.56,3.68-25.37,2.8-50.87,4.33-76.28,6.7-24.08,2.26-48.06,5.89-72.18,7.12-19.26,1-38.22,4.41-57.51,5-3.23.1-6.45.3-9.67.55l-3.62.31-3.55.34c-4,.39-8.09.84-12.14,1.27l-4.83.5q-2.42.24-4.83.45c-4.3.38-8.61.67-12.93.78l-.87.26c-1.17.35-2.34.64-3.52.88l-1.33.26-1.33.22c-.59.1-1.18.18-1.78.25s-1.19.14-1.79.2l-.18,0-1.61.15h-.17l-1.07.08c-2.85.21-5.71.31-8.55.46-.72,0-1.43.07-2.14.12s-1.42.09-2.13.15-1.42.12-2.12.19c-16.14,1.66-32.43,2.34-48.69,3.08-59.21,2.69-118.43.36-177.63,1.18-1,0-2-.12-3-.19-3.66.09-7.32.26-11,.26-80,0-159.92-1.44-239.82.39-67.91,1.55-135.79.34-203.68,1.18-3.42,0-7.07.84-10.37-2.64,8.92-.9,17.83-2.3,26.77-2.6,23.24-.78,46.31-3.69,69.53-4.73,17.52-.79,35-2.61,52.56-3.92,27.12-2,54.22-4.11,81.36-6,18.18-1.25,36.36-2.74,54.54-4.07,27.12-2,54.24-4,81.36-5.95,17.86-1.28,35.69-2.82,53.57-4,18.52-1.23,37-3,55.56-4.1,15.19-.93,30.37-2.51,45.58-3.41,25.2-1.4,50.33-3.75,75.54-5.1,26.15-1.4,52.28-3.83,78.42-5.72,27.81-2,55.58-4.43,83.41-6.22,14.2-.91,28.41-2,42.62-3q28.73-2.24,57.44-4.5c23.42-1.88,46.84-3.75,70.26-5.77,23-2,46.19-2.91,69.22-5.37,10.18-1.09,20.47-1.14,30.71-2.12,17.42-1.67,34.93-2.44,52.41-3.59,14.6-1,29.22-1.8,43.81-3,30.43-2.4,60.85-5.07,91.29-7.44,13.91-1.08,27.86-1.53,41.77-2.58,21.83-1.66,43.61-4.34,65.46-5.12,15.17-.55,30.18-2.9,45.65-1.3,18.47,1.92,37.29.25,55.93.95,31.58,1.18,63.22.91,94.77,2.25,25.95,1.1,51.92.41,77.8,1.91,15.88.92,31.82.6,47.68,2.51-16.47,1.54-32.95,3.05-49.42,4.65-26.41,2.56-52.8,5.27-79.22,7.76-16.52,1.56-33.07,2.72-49.59,4.29-26.09,2.47-52.12,5.46-78.23,7.58-15.55,1.26-31.07,2.76-46.6,4.23-27.41,2.59-54.84,4.93-82.23,7.75-15.5,1.6-31.06,2.74-46.58,4.28-27.07,2.67-54.13,5.35-81.21,7.85-18.19,1.68-36.46,2.62-54.6,4.66C1811.71,2285.27,1792.72,2285.48,1774,2288.47Z"/><path class="cls-1" d="M2185.77,2290.28c-11.32-1.07-22.54-1-33.8-1.18-2.75,0-5.49-.09-8.24-.12-8.24-.1-16.47-.11-24.71-.13l-11,0-19.54.07c-21.79.09-43.58.18-65.38.16q-69.93-.06-139.87-.36c-13.57,0-27.22,1.08-41.87-2.88,8.61-.92,16.1-1.54,23.51-2.29,25.39-2.59,50.89-4.11,76.29-6.67,28.69-2.88,57.41-5.42,86.12-8.14,28-2.66,56.09-5.37,84.15-7.92,13.52-1.23,27-3.34,40.57-3.58,14.73-2.15,29.54-3.31,44.39-4.36,17.16-1.22,34.25-3.26,51.38-5,15.13-1.51,30.25-3.1,45.39-4.58q40.46-3.95,80.93-7.78c4.61-.42,9.27-.2,13.91-.28,20.7-3.35,41.66-4.1,62.48-6.27,16.83-1.75,33.64-3.55,50.47-5.24,8.92-.89,17.86-1.56,26.78-2.42,19.15-1.85,38.28-4.89,57.45-5.22,12.17-.22,24.52.66,36.8.89,30.94.57,61.86,1.86,92.79,2.65,23.27.6,46.53,1.57,69.82,1.66,2.66,0,5.34,0,7.73,2.85-13.27,1.6-26.15,3.07-39,4.74-28.63,3.71-57.46,5.54-86.06,9.58-20,2.83-40.27,4.31-60.37,6.72-30.31,3.62-60.57,7.6-90.86,11.27-18.45,2.23-36.94,4.1-55.4,6.28-21.08,2.48-42.14,5.21-63.22,7.68-14.18,1.67-28.45,2.76-42.59,4.71-1.37.19-2.74.36-4.11.52-1.83.22-3.66.4-5.49.57-1.61.15-3.21.28-4.82.41l-4.81.37-7.69.58-3.85.33c-2.22.62-4.46,1.13-6.72,1.55l-1.69.3-1.69.28c-.52.09-1,.16-1.57.24l-1.83.25c-1.52.2-3,.38-4.55.54-6.08.65-12.18,1.09-18.23,1.9q-30,4-60.17,7.16A209.81,209.81,0,0,1,2185.77,2290.28Z"/><path class="cls-1" d="M2520.94,2302c-22.42,2.45-44.41,7.65-66.92,9.23-10.76,3.26-22,3.74-33,5.75-37.84,6.94-76.08,3.3-114.15,4-12.94.25-25.89-.11-38.84-.18-10.66.08-21.32.25-32,.25q-103,0-205.94-.06a36.43,36.43,0,0,1-10-1c6.22-.86,12.33-2.18,18.47-2.89,37.25-4.28,74.54-8.22,111.66-13.59,19.36-2.8,38.94-4.06,58.32-6.77,10.48-1.47,21.05-2.14,31.49-4.47,11.6-2.58,23.59-3.73,35.47-4.59,14.9-1.08,29.55-4.38,44.52-4.54,32.88-4,65.75-8.12,98.65-12,26-3.06,52.06-5.73,78.06-8.8,10.84-1.28,21.6-3.19,32.41-4.7a57.12,57.12,0,0,1,6.93-.11c32.25-4,64.49-8.18,96.75-12.07,19.76-2.39,39.66-3.79,59.32-6.75,22.6-3.4,45.26-2,67.75-1,25.93,1.09,51.9.24,77.75,1.81,26.74,1.62,53.5,1.15,80.29,2.38-12.34,3.91-25.19,4.92-37.84,6.91-29.48,4.62-59,8.9-88.54,13.29q-29.52,4.38-59.06,8.68c-24.95,3.62-49.91,7.14-74.85,10.8-20.67,3-41.32,6.22-62,9.34C2570.76,2294.69,2546,2299.24,2520.94,2302Z"/><path class="cls-1" d="M2854.41,2293.8l-2.12-.29-.79-.1c-1-.12-1.95-.22-2.92-.28l-1-.06c-.26,0-.53,0-.79,0-.44,0-.88,0-1.32,0-25.17.18-50.35.05-75.53,0-4,0-7.94-.14-11.92-.22l-101.77-.08c-12,0-23.94,0-37,0,8-4.64,16.06-4,23.55-5.17,32.68-5.26,65.47-9.82,98.22-14.59,17.68-2.57,35.36-5,53-7.56,34.31-5.15,68.68-9.89,102.93-15.56,16.9-2.8,33.79-6.16,51-6.82,20.72-4.79,41.92-6.5,62.83-10.06,13.09-2.23,26.24-4.83,39.55-3.54,23.22,2.26,46.55.57,69.72,2.13,21.59,1.46,43.15,1.37,64.74,1.72,2.54,0,5.28-.6,8.49,2.51-9.07,1.82-17.17,3.55-25.3,5.06-30.33,5.64-60.69,11.1-91,16.81-36.5,6.87-72.9,14.27-109.47,20.75-20.73,3.66-41.37,7.8-62.1,11.35-5,.86-10,2.27-15.08,3.36-.63.14-1.26.27-1.9.39l-1.28.24-1.29.22-.88.14-1.27.17a1.07,1.07,0,0,1-.25,0l-.65.07c-.34,0-.68.08-1,.1l-.49,0a.12.12,0,0,1-.08,0c-.25,0-.51,0-.76,0a.06.06,0,0,1-.06,0,0,0,0,0,1,0,0s0,0,0,0l-.43,0h-.59a35.38,35.38,0,0,1-7.3-.48,30,30,0,0,1-9.78.64c-.58,0-1.16-.1-1.75-.16-1.17-.14-2.35-.3-3.52-.46l-.17,0Z"/><path class="cls-1" d="M3078.85,2307.65Q3014.41,2323,2950,2338.5a50.94,50.94,0,0,1-5.94.7c-26.5,6.75-52.48,15.59-80.6,14.12-3.8-.2-7.61-.27-11.42-.27-2.68,0-5.36,0-8,.09h-.34c-2.56,0-5.13.12-7.7.19l-.68,0c-6.94.19-13.87.36-20.81.21l-1.3,0-1.29,0a4.47,4.47,0,0,1-.46.19,8.46,8.46,0,0,1-.92.33,12.49,12.49,0,0,1-1.88.44c-.32.05-.63.1-.95.13l-.41,0-.55,0a3.87,3.87,0,0,1-.48,0c-1.71.09-3.45,0-5.17,0-10.32.11-20.65.55-31,.27-42.25-1.13-84.44,2.28-126.69,1.71-21.85-.29-43.7,0-65.72-1.14l33.83-6.54c33.21-6.43,66.39-13,99.64-19.26,45-8.44,90-16.58,135-24.92q23-4.26,45.9-8.92a57.05,57.05,0,0,1,9.88-1.11c13.28-2.61,26.54-5.26,39.83-7.81q55.68-10.7,111.36-21.33a24.48,24.48,0,0,1,8.9-.45c18.32,0,36.7-.81,54.95.31,37.94,2.32,75.88,1.27,113.81,1.78,1.86,0,3.91-.69,6.31,1.44-5.89,3.72-12.53,4.14-18.6,5.61C3172,2285.65,3125.39,2296.56,3078.85,2307.65Z"/><path class="cls-1" d="M3286.13,2296.18c-8,1.19-16,.47-23.93.52-18,.1-36-.14-54,0a418.42,418.42,0,0,1-55.7-2.64c11.9-3,22.08-5.75,32.32-8.21q45.49-11,91-21.75,44.05-10.44,88.17-20.69a81,81,0,0,1,31.36-2.84c12.85,1.37,25.93.61,38.91.72,23.82.19,47.57,2.55,71.56,2.46-6.34,3.7-13.22,5.8-20.16,7.55-25.46,6.42-50.25,15.06-75.37,22.6-22.27,6.69-44.39,13.89-66.59,20.79-2.84.88-5.82,1.84-8.73,1.84C3318.75,2296.59,3302.44,2296.34,3286.13,2296.18Z"/><path class="cls-1" d="M3475.44,2315.47a37.05,37.05,0,0,1-15.39,3.28c-3.63-.06-7.26-.12-10.89-.16l-10.07-.11q-14-.14-28-.22l-7-.06c-.92.13-1.84.24-2.76.34-1.39.14-2.77.22-4.16.28l-2.09,0c-5,.09-9.94-.17-14.91-.16-30,.1-59.94,0-90.17,0,1-3.51,4-3.37,6.28-4.11,52.74-17.13,105.31-34.82,158.54-50.42,7.66-2.24,15.17-5,22.78-7.38,6.8-2.15,13.63-2.86,20.36.32,24,.05,48-.7,71.87.49,12,.6,24.18.64,36.57,3-9.3,4-18.57,8.1-27.92,12C3544.17,2286.9,3509.75,2301.05,3475.44,2315.47Z"/><path class="cls-1" d="M3724,2269.93c-13.71,8.14-27.55,16.06-41.18,24.33a21.9,21.9,0,0,1-12.15,3.57c-17-.26-33.92-.29-50.88-.4a13.7,13.7,0,0,1-6.76,1.35q-39.37-.08-78.76-.14c-.85,0-2,.35-2.58-2,9.65-4.25,19.42-8.75,29.33-12.9,26.63-11.13,53.35-22,80-33.18a35.16,35.16,0,0,1,19.28-2.27c10.45,1.43,21.2.75,31.82,1,20.09-.86,40,2.21,60.52,3.38C3743.05,2258.41,3733.55,2264.24,3724,2269.93Z"/><path class="cls-1" d="M3741.27,2215.2c4.91.61,9.94-.47,14.86.66,12.21,1.8,24.53,1.15,36.8,1.39,4.68.09,9.23.3,14.66,2.83-14.79,8.8-28.89,17.43-43.24,25.62-5.45,3.1-11.91,1.93-17.67,1.15-1.12-.15-2.25-.29-3.37-.4-.21,0-.41,0-.62-.06l-2.1-.18-2-.14c-.9-.06-1.81-.11-2.71-.15-1.21-.06-2.41-.1-3.61-.13-1,0-1.95-.05-2.92-.06-.53,0-1.06,0-1.6,0l-3.15,0-3.16,0-3.61-.06-.62.25-.44.15-.34.11-.5.14-.36.07a2.73,2.73,0,0,1-.48.1l-.67.1-.67.06-.46,0c-4.66.15-9.26-2-14-1.7a283.49,283.49,0,0,1-37.6-.76c5.25-5.66,12.49-7,18.79-10,10.78-5.06,22.11-8.94,32.95-13.86C3722.35,2216.17,3731.39,2214,3741.27,2215.2Z"/><path class="cls-1" d="M3744.64,2203.37c-9.75,4.23-19.88,7.64-29.41,12.28a34.28,34.28,0,0,1-21.38,2.76c-8.63-1.53-17.23-.81-25.81-1.64-15.45.95-30.66-2.41-46.43-3.51,11-3.82,22.08-7.73,33.17-11.42,7.22-2.39,14.59-4.29,21.78-6.75,5.15-1.75,10.24-2.49,15.56-1.23,15.55.64,31.15.82,46.63,2.19,5.17.45,10.51-.07,16.51,1.54C3752,2200.9,3748.08,2201.87,3744.64,2203.37Z"/><path class="cls-2" d="M3055.94,2150a3.68,3.68,0,0,0,3.72,2.7c3,.08,6,.22,9,.09,24.59-1.08,49,3.19,73.55,2.76-13.23,2.51-26.41,5.08-39.92,2.05-2.87-.65-6-.43-9-.41-19.84.15-39.49-3.34-60.89-2.16,4.15-2.91,7.24-1.64,10.07-2.14,2.24-.39,3.69-1.38,3.49-3.9h10A1.59,1.59,0,0,1,3055.94,2150Z"/><path class="cls-3" d="M3110,2149c.45,1.51-.09,2.79-1.62,2.75-9.41-.27-18.81-.69-28.21-1.07,0-.56-.1-1.12-.17-1.68Z"/><path class="cls-4" d="M3080,2149c.07.56.13,1.12.17,1.68-8.09.3-16.2,1.36-24.23-.66a1.63,1.63,0,0,0,.06-1Z"/><path class="cls-3" d="M3028,2149c-6.53,3.74-13.28,2.8-20.07.93a4.07,4.07,0,0,1,.07-.93Z"/><path class="cls-5" d="M2694.09,2171.25c0,.54,0,1.08,0,1.61-17.7,2.66-35.64,2.62-53.43,3.76-22.15,1.41-44.31,3.05-66.48,4.13-22.85,1.1-45.65,2.81-68.48,4-21.52,1.12-43,2.78-64.49,4-22.84,1.24-45.66,3-68.48,4-18.24.72-36.4,3.6-54.72,2.44a9.45,9.45,0,0,0-2,.06c-18.07,2.69-36.31,3.1-54.5,3.84-14.92.6-29.74,3.29-44.73,2.14a6.34,6.34,0,0,0-2,.17c-14.31,3.48-29.06,2.33-43.54,3.22-17.84,1.1-35.71,3.75-53.7,2.59a10,10,0,0,0-3,.23c-14.3,3.59-29.06,2.06-43.55,3.13-17.81,1.32-35.7,3.89-53.69,2.65a6.32,6.32,0,0,0-2,.11c-15,3.66-30.38,2.16-45.54,3.3-17.48,1.31-35,3.79-52.69,2.6a6,6,0,0,0-2,.13c-14.28,3.83-29.06,2-43.55,3.2-17.79,1.43-35.7,3.83-53.69,2.65a9.45,9.45,0,0,0-2,.07c-18.07,2.62-36.3,3.22-54.5,3.85-14.92.51-29.74,3.28-44.73,2.12a6.35,6.35,0,0,0-2,.18c-14.29,3.68-29.06,2-43.55,3.15-17.79,1.37-35.7,3.83-53.69,2.64a6.65,6.65,0,0,0-2,.11c-15,3.78-30.38,2.08-45.54,3.28-17.46,1.39-35,3.82-52.69,2.62a6.26,6.26,0,0,0-2,.13c-14.28,3.87-29.06,2.06-43.55,3.21-17.79,1.41-35.7,3.88-53.68,2.65a9.52,9.52,0,0,0-2,.06c-17.72,2.76-35.64,3-53.5,3.77-15.24.65-30.39,3.38-45.72,2.21a6.65,6.65,0,0,0-2,.16c-14.31,3.5-29.06,2.36-43.53,3.24-17.85,1.09-35.72,3.77-53.7,2.58a10.63,10.63,0,0,0-3,.23c-14.67,3.26-29.73,2.41-44.54,3.24-17.53,1-35,3.77-52.7,2.53a8.37,8.37,0,0,0-2,.11c-16.35,3.09-33,2.5-49.51,3.52-16.21,1-32.39,3.61-48.71,2.39a6,6,0,0,0-2,.14c-14.28,3.84-29.06,2-43.55,3.19-17.78,1.43-35.7,3.86-53.68,2.65a9.56,9.56,0,0,0-2,.06c-18.07,2.64-36.29,3.24-54.49,3.86-14.92.5-29.73,3.31-44.73,2.12a6,6,0,0,0-2,.18c-14.29,3.72-29.06,2-43.55,3.14-17.79,1.38-35.7,3.85-53.68,2.65a6.3,6.3,0,0,0-2,.11c-15,3.84-30.38,2-45.54,3.29-17.45,1.42-35,3.82-52.68,2.61a6,6,0,0,0-2,.13c-14.27,3.94-29,2-43.55,3.22-6.65.59-13.33,1.2-20,1.72-3.77.29-7.54.56-11.32.77-1.7.1-3.4.19-5.1.26-.78,0-1.55.08-2.32.1-5,.19-9.92.28-14.88.21-3.81-1.39-7.07,1.19-10.68,1.53-17.83,1.68-35.74,2.16-53.59,3.37-21.5,1.46-43,2.87-64.53,4-22.53,1.22-45,2.77-67.54,4-22.19,1.24-44.36,2.67-66.54,4-21.84,1.32-43.68,2.79-65.53,4-22.19,1.2-44.35,2.69-66.52,4-22.51,1.36-45,2.75-67.53,4-18.54,1-37,2.32-55.58,3.45v-3.68l5.17-.3c35.82-2.16,71.61-4.66,107.42-6.87,19.25-1.19,38.52-2,57.77-3.12,25.2-1.51,50.39-3.27,75.59-4.81,18.58-1.14,37.18-2,55.77-3.17,25.86-1.58,51.71-3.34,77.58-4.9,18.91-1.13,37.85-2,56.77-3.11,25.2-1.52,50.38-3.26,75.58-4.79,18.92-1.16,37.85-2.06,56.76-3.2,25.87-1.56,51.72-3.28,77.59-4.85,18.58-1.12,37.18-2,55.77-3.15,25.86-1.58,51.71-3.34,77.58-4.9,18.91-1.13,37.85-2,56.77-3.11,25.2-1.52,50.38-3.27,75.58-4.8,18.92-1.15,37.85-2.05,56.76-3.19,25.87-1.56,51.72-3.29,77.59-4.85,18.58-1.12,37.18-2,55.77-3.15,25.86-1.58,51.71-3.35,77.58-4.9,18.91-1.14,37.85-2,56.76-3.11,25.2-1.52,50.39-3.27,75.59-4.81,18.91-1.15,37.84-2,56.76-3.18,25.86-1.56,51.72-3.29,77.58-4.86,18.26-1.11,36.52-2,54.77-3.14,26.2-1.59,52.39-3.34,78.58-4.9,18.92-1.13,37.85-2,56.77-3.11,25.2-1.52,50.39-3.27,75.59-4.81,18.58-1.14,37.17-2.06,55.76-3.18,26.19-1.58,52.38-3.29,78.58-4.87,18.25-1.1,36.52-2,54.77-3.13,26.2-1.59,52.38-3.34,78.58-4.91,18.92-1.13,37.85-2,56.77-3.1,25.2-1.52,50.38-3.27,75.58-4.82,18.58-1.14,37.18-2.05,55.76-3.17,26.2-1.58,52.39-3.29,78.59-4.87,18.25-1.1,36.51-2,54.77-3.13,26.19-1.59,52.38-3.35,78.58-4.91,19.25-1.14,38.52-1.94,57.76-3.11,24.87-1.5,49.72-3.27,74.59-4.81,18.58-1.15,37.18-2.05,55.76-3.17,26.2-1.58,52.37-3.65,78.59-4.75C2662.19,2172.65,2678.08,2170.33,2694.09,2171.25Z"/><path class="cls-5" d="M3338,2162.9l-.06-1.65c26.29-.34,52.5,1.46,78.73,2.68,9,.42,18,.42,26.94.92,21.91,1.2,43.87,1.43,65.81,2.21,35.55,1.27,71.12,2.35,106.65,4.12,24.24,1.21,48.49,2,72.73,2.93,29.56,1.17,59.1,2.67,88.66,3.9,12.3.52,24.61.66,36.92,1,3.29.11,6.69-.7,9.81,1l0,.2a5.94,5.94,0,0,1-1.88.65c-17.9-.41-35.76.55-53.74-1.36-19.07-2-38.44-.17-57.68-2.24-15.46-1.66-31.09-.19-46.72-1.84-17.76-1.87-35.76-.23-53.7-2.09-16.78-1.74-33.76,0-50.71-2-16.75-1.9-33.75-.18-50.71-2s-34.42-.14-51.7-2c-16.75-1.82-33.77-1-50.68-1.8Q3372.35,2164.05,3338,2162.9Z"/><path class="cls-6" d="M3840,2180.36v2.55c-3.4,0-6.79,0-10.19-.08-2.18,0-4.84.63-5.67-2.55l0-.2C3829.44,2180.22,3834.72,2180.28,3840,2180.36Z"/><path class="cls-7" d="M1352.16,2328.1c-8.45.86-16.9,1.81-25.36,2.57-24.79,2.2-49.62,4.06-74.39,6.56-28.38,2.88-56.8,5.4-85.21,8s-56.82,5.39-85.23,8-56.81,5.32-85.22,8c-35.67,3.34-71.31,7-107,9.95-20.83,1.71-41.62,3.86-62.42,5.91-31.68,3.12-63.34,6.47-95,9.45-25.44,2.39-50.94,4.18-76.38,6.59l-9.15.88H0V2377l.36,0c22.82-1.72,45.61-3.71,68.43-5.41,13.92-1,27.87-1.58,41.78-2.61,22.49-1.68,45-3.66,67.45-5.37,13.24-1,26.52-1.62,39.77-2.62,22.82-1.72,45.62-3.7,68.44-5.39,13.91-1,27.86-1.59,41.77-2.64,22.16-1.67,44.29-3.66,66.44-5.35,13.58-1,27.19-1.61,40.78-2.64,22.48-1.7,44.94-3.71,67.43-5.38,14.24-1.06,28.53-1.58,42.77-2.64,22.16-1.65,44.29-3.66,66.45-5.34,13.91-1.05,27.83-2,41.77-2.57,94.23-3.65,188.5-1.12,282.75-1.53,132.62-.57,265.24-.41,397.86-.56C1340.21,2326.88,1346.17,2326.88,1352.16,2328.1Z"/><path class="cls-8" d="M518,2303.6c18,.23,35.89-1.5,53.65-3.07,14.5-1.27,29.28.72,43.55-3.22a6,6,0,0,1,2-.13c17.65,1.21,35.23-1.19,52.68-2.61,15.16-1.24,30.59.55,45.54-3.29a6.3,6.3,0,0,1,2-.11c18,1.2,35.89-1.27,53.68-2.65,14.49-1.12,29.26.58,43.55-3.14a6,6,0,0,1,2-.18c15,1.19,29.81-1.62,44.73-2.12,18.2-.62,36.42-1.22,54.49-3.86a9.56,9.56,0,0,1,2-.06c18,1.21,35.9-1.22,53.68-2.65,14.49-1.16,29.27.65,43.55-3.19a6,6,0,0,1,2-.14c16.32,1.22,32.5-1.4,48.71-2.39,16.5-1,33.16-.43,49.51-3.52a8.37,8.37,0,0,1,2-.11c17.65,1.24,35.17-1.55,52.7-2.53,14.81-.83,29.87,0,44.54-3.24a10.63,10.63,0,0,1,3-.23c18,1.19,35.85-1.49,53.7-2.58,14.47-.88,29.22.26,43.53-3.24a6.65,6.65,0,0,1,2-.16c15.33,1.17,30.48-1.56,45.72-2.21,17.86-.75,35.78-1,53.5-3.77a9.52,9.52,0,0,1,2-.06c18,1.23,35.89-1.24,53.68-2.65,14.49-1.15,29.27.66,43.55-3.21a6.26,6.26,0,0,1,2-.13c17.66,1.2,35.23-1.23,52.69-2.62,15.16-1.2,30.59.5,45.54-3.28a6.65,6.65,0,0,1,2-.11c18,1.19,35.9-1.27,53.69-2.64,14.49-1.12,29.26.53,43.55-3.15a6.35,6.35,0,0,1,2-.18c15,1.16,29.81-1.61,44.73-2.12,18.2-.63,36.43-1.23,54.5-3.85a9.45,9.45,0,0,1,2-.07c18,1.18,35.9-1.22,53.69-2.65,14.49-1.17,29.27.63,43.55-3.2a6,6,0,0,1,2-.13c17.65,1.19,35.21-1.29,52.69-2.6,15.16-1.14,30.57.36,45.54-3.3a6.32,6.32,0,0,1,2-.11c18,1.24,35.88-1.33,53.69-2.65,14.49-1.07,29.25.46,43.55-3.13a10,10,0,0,1,3-.23c18,1.16,35.86-1.49,53.7-2.59,14.48-.89,29.23.26,43.54-3.22a6.34,6.34,0,0,1,2-.17c15,1.15,29.81-1.54,44.73-2.14,18.19-.74,36.43-1.15,54.5-3.84a9.45,9.45,0,0,1,2-.06c18.32,1.16,36.48-1.72,54.72-2.44,22.82-.91,45.64-2.71,68.48-4,21.5-1.18,43-2.84,64.49-4,22.83-1.2,45.63-2.91,68.48-4,22.17-1.08,44.33-2.72,66.48-4.13,17.79-1.14,35.73-1.1,53.43-3.76h13.75c0,.67,0,1.34,0,2-14.2-1.14-28.13,1.34-42.16,2.39-22.14,1.65-44.32,2.75-66.4,5.17-13.86,1.51-27.85,1.66-41.76,2.7-22.82,1.71-45.59,4.11-68.43,5.31-12.94.69-25.84,1.83-38.76,2.7-23.16,1.55-46.25,4.15-69.43,5.3-13.28.66-26.51,1.85-39.76,2.79-22.81,1.6-45.64,3.19-68.44,5.11-13.53,1.13-27.16,2-40.74,2.83-22.84,1.45-45.6,4.06-68.44,5.24-13.62.7-27.21,1.68-40.77,2.8-22.48,1.85-45,3.1-67.47,5.12-13.2,1.19-26.51,1.76-39.75,2.81-22.81,1.82-45.65,3.28-68.46,5.18-13.87,1.15-27.83,2-41.75,2.88-22.5,1.41-45,3.62-67.44,5.31-13.58,1-27.2,1.57-40.78,2.6-22.48,1.7-44.93,4.12-67.44,5.26-14,.72-27.85,1.91-41.77,2.82-22.17,1.43-44.27,4-66.44,5.19-13.28.7-26.52,1.79-39.77,2.71-23.49,1.64-46.93,4.16-70.44,5.31-13.62.66-27.16,2-40.76,2.82-22.18,1.27-44.29,3.55-66.44,5.26-9.59.74-19.2,1.12-28.81,2-23.8,2.13-47.73,2.8-71.56,4.71-27.45,2.2-54.92,4.09-82.38,6.11q-40.21,3-80.41,5.94-40.69,3.06-81.39,6c-27.47,1.95-54.91,4.22-82.4,6-17.87,1.17-35.72,2.75-53.6,4-27.47,1.95-54.92,4.19-82.4,6-17.87,1.17-35.74,2.66-53.6,4-26.8,2.05-53.61,3.89-80.4,5.94q-41.19,3.15-82.4,6c-17.87,1.26-35.73,2.67-53.6,4q-41.19,3.06-82.39,6.12c-13.52,1-27.11,1.33-40.6,2.84,1.45-6.42,7.48-7,12.08-8.87,17.34-7.12,34.84-13.84,52.29-20.68C515.71,2309.36,518.47,2307.76,518,2303.6Z"/><path class="cls-9" d="M2358.2,2326.11c-14.67,2.25-29.34,4.54-44,6.73q-37.89,5.65-75.8,11.2c-20.68,3-41.37,6-62.05,9.05q-35.92,5.31-71.84,10.71-37.89,5.64-75.8,11.24-35.94,5.33-71.87,10.65-20.88,3.11-41.75,6.27l-13.92,2.09H1633.27q25.41-14.06,50.82-28.07c3-1.64,6.05-3,5.84-7.17,8.57-2.95,17.65-2.4,26.47-3.52,40.49-5.18,81.08-9.64,121.62-14.42,39.2-4.63,78.41-9.11,117.56-14.16a201.47,201.47,0,0,1,25.83-1.34q169.9-.06,339.82,0C2333.52,2325.33,2345.83,2324.08,2358.2,2326.11Z"/><path class="cls-2" d="M512.45,2310.64c-17.45,6.84-35,13.56-52.29,20.68-4.6,1.89-10.63,2.45-12.08,8.87-9.57.86-19.14,1.8-28.72,2.57-24.8,2-49.57,4.37-74.4,5.65-12.62.65-25.18,1.82-37.76,2.69q-35.22,2.43-70.43,5.23c-13.88,1.12-27.85,1.81-41.74,2.9-21.81,1.72-43.69,2.48-65.43,5.18-9.86,1.22-19.85.81-29.81,2-13.81,1.69-27.83,1.61-41.74,2.66-19.36,1.47-38.7,3.23-58,4.86V2336c18.53-1.13,37-2.43,55.58-3.45,22.51-1.24,45-2.63,67.53-4,22.17-1.34,44.33-2.83,66.52-4,21.85-1.18,43.69-2.65,65.53-4,22.18-1.35,44.35-2.78,66.54-4,22.51-1.26,45-2.81,67.54-4,21.51-1.16,43-2.57,64.53-4,17.85-1.21,35.76-1.69,53.59-3.37,3.61-.34,6.87-2.92,10.68-1.53h0C518.47,2307.76,515.71,2309.36,512.45,2310.64Z"/><path class="cls-10" d="M1520,2316.62c-.17,5-4.69,6.17-7.82,8.14-6.45,4-13.28,7.45-20,11.13q-38.7,21.36-77.39,42.73c-3.63,2-6.92,4.11-6.64,8.94-9,2.45-18.39,2.14-27.58,3.38q-9.21,1.24-18.42,2.4l-5.68.7h-358q22.38-12.36,44.71-24.8c3.58-2,8.2-3.34,8.73-8.61,31.69-3.19,63.34-6.77,95.08-9.45,28.45-2.4,56.88-5,85.29-7.93,16.84-1.75,33.75-2.83,50.6-4.43,25.79-2.45,51.55-5.18,77.33-7.61,24.47-2.31,49-4.36,73.44-6.6l21.57-2,32.35-3Z"/><path class="cls-9" d="M1408.18,2387.56c-.28-4.83,3-6.95,6.64-8.94q38.72-21.33,77.39-42.73c6.67-3.68,13.5-7.09,20-11.13,3.13-2,7.65-3.12,7.82-8.14q34.18-3.47,68.37-6.89c16.19-1.61,32.38-3.1,48.57-4.67,25.74-2.51,51.46-5.11,77.2-7.52,17.84-1.67,35.74-2.76,53.55-4.68,36.88-4,73.83-1.21,110.74-1.45,41-.27,82-1.4,122.91.22,63.58,2.53,127.16-.34,191.32,1.89-8.65,4.7-17.86,3.56-26.48,4.77-25,3.51-50.08,5.88-75.12,8.83-19.43,2.29-38.82,4.85-58.24,7.18-18.44,2.22-36.91,4.24-55.35,6.45-21.07,2.51-42.12,5.2-63.2,7.69-19.11,2.27-38.25,4.31-57.36,6.56-20.08,2.37-40.14,4.94-60.22,7.31-19.44,2.3-38.91,4.38-58.35,6.7-25.34,3-50.67,6.26-76,9.28-19.1,2.27-38.23,4.26-57.33,6.53-20.41,2.42-40.79,5.13-61.2,7.54-14.51,1.71-29.08,3-43.59,4.69-25.7,3.06-51.37,6.35-77.07,9.44C1418.16,2387.09,1413.16,2387.22,1408.18,2387.56Z"/><path class="cls-4" d="M2867.44,2356.88c-6.13,3.77-11.64,4.22-16.73,5.45-44.32,10.7-88.69,21.16-133,31.72H2370.11l27.28-5.1q44-8.26,88.07-16.69c18.6-3.52,37.16-7.22,55.8-10.42,5.86-1,11.95-.79,17.94-.89,8.33-.13,16.66.12,25,0,61.26-1.26,122.54-1.24,183.78-2.51,28.26-.59,56.57.14,84.81-1.48C2857.09,2356.66,2861.42,2356.88,2867.44,2356.88Z"/><path class="cls-11" d="M1052,2360.64c-.53,5.27-5.15,6.62-8.73,8.61q-22.32,12.47-44.71,24.8H689.29q16.66-1.71,33.32-3.39l5.44-.54,5.67-.55c17.85-1.7,35.74-3,53.59-4.67,17.49-1.65,35-3.65,52.44-5.29,8.59-.81,17.21-1.3,25.81-2.17,24.76-2.51,49.62-4.08,74.37-6.68,21.12-2.21,42.28-4,63.41-6C1019.54,2363.22,1035.67,2361.05,1052,2360.64Z"/><path class="cls-4" d="M1834.05,2241.88c14.6-1,29.22-1.8,43.81-3,30.43-2.4,60.85-5.07,91.29-7.44,13.91-1.08,27.86-1.53,41.77-2.58,21.83-1.66,43.61-4.34,65.46-5.12,15.17-.55,30.18-2.9,45.65-1.3,18.47,1.92,37.29.25,55.93.95,31.58,1.18,63.22.91,94.77,2.25,25.95,1.1,51.92.41,77.8,1.91,15.88.92,31.82.6,47.68,2.51-16.47,1.54-32.95,3.05-49.42,4.65-26.41,2.56-52.8,5.27-79.22,7.76-16.52,1.56-33.07,2.72-49.59,4.29-26.09,2.47-52.12,5.46-78.23,7.58-15.55,1.26-31.07,2.76-46.6,4.23-27.41,2.59-54.84,4.93-82.23,7.75-15.5,1.6-31.06,2.74-46.58,4.28-27.07,2.67-54.13,5.35-81.21,7.85-18.19,1.68-36.46,2.62-54.6,4.66-18.82,2.12-37.81,2.33-56.54,5.32a63.84,63.84,0,0,1-8,.3c.13-2.26,1.54-3.42,3.41-4.48,18.46-10.5,36.79-21.22,55.36-31.53C1829.48,2250.17,1833,2247.2,1834.05,2241.88Z"/><path class="cls-10" d="M1684.09,2366q-25.42,14-50.82,28.07h-248l17.7-2.18,9.62-1.17,9.62-1.15c19.76-2.34,39.55-4.32,59.31-6.63,19.08-2.24,38.12-4.76,57.2-7.07,13.82-1.67,27.66-3.15,41.49-4.8,20.39-2.43,40.75-5.28,61.18-7.3,16.17-1.59,32.19-4.68,48.5-4.94C1690.14,2363,1687.08,2364.34,1684.09,2366Z"/><path class="cls-12" d="M2558,2300.81c0,4.29-2.9,6.45-6.22,8.3-4.93,2.76-9.8,5.61-14.74,8.35q-47.52,26.31-95.08,52.55c-3,1.66-6,3-5.85,7.19-14.85,4.69-30.34,6.25-45.52,9.35l-8.88,1.77-1,.2c-2.63.51-5.25,1-7.88,1.51l-7,1.31-1.9.35-7.59,1.39-5.42,1H2224.93l25.83-14.45q33.91-19,67.87-37.89c2.73-1.52,5.29-2.91,5.38-6.49l89.44-13.37c33.09-5,66.16-10,99.26-14.87C2527.77,2304.77,2542.66,2301.34,2558,2300.81Z"/><path class="cls-11" d="M2324,2335.22c-.09,3.58-2.65,5-5.38,6.49q-34,18.87-67.87,37.89l-25.83,14.45H2038.58a154.12,154.12,0,0,0,18.13-10.79c3-2.17,6.23-4.11,5.21-8.66,15.37-4.63,31.43-5,47.14-7.55,29.87-4.74,59.8-9.08,89.71-13.49,24.65-3.64,49.33-7.1,74-10.7C2289.85,2340.36,2306.92,2337.77,2324,2335.22Z"/><path class="cls-4" d="M3324.11,2301.18c-16,6.39-32.67,10.73-49.07,15.88q-83.07,26.11-166.24,52c-27.25,8.47-54.66,16.47-81.89,25h-61.73c11.94-6.52,23.92-13,35.79-19.62q39.11-21.84,78-43.93c13.57-7.68,27-15.58,40.57-23.27,2.51-1.42,4.32-3,4.44-6.06a17.92,17.92,0,0,1,9.57-2.2q95.13.32,190.25.6h0C3323.91,2300.12,3324,2300.65,3324.11,2301.18Z"/><path class="cls-13" d="M1834.05,2241.88c-1.1,5.32-4.57,8.29-9.25,10.88-18.57,10.31-36.9,21-55.36,31.53-1.87,1.06-3.28,2.22-3.41,4.48-10.65,2.91-21.71,2.48-32.56,3.68-25.37,2.8-50.87,4.33-76.28,6.7-24.08,2.26-48.06,5.89-72.18,7.12-19.26,1-38.22,4.41-57.51,5-17.21.55-34.29,3.73-51.57,4.19.16-5.16,3.9-7.23,7.8-9.36,20-11,40.12-21.84,60-33.16,4-2.29,9.62-3.63,10.33-9.73q28.73-2.24,57.44-4.5c23.42-1.88,46.84-3.75,70.26-5.77,23-2,46.19-2.91,69.22-5.37,10.18-1.09,20.47-1.14,30.71-2.12C1799.06,2243.8,1816.57,2243,1834.05,2241.88Z"/><path class="cls-10" d="M2536.07,2257.58c32.25-4,64.49-8.18,96.75-12.07,19.76-2.39,39.66-3.79,59.32-6.75,22.6-3.4,45.26-2,67.75-1,25.93,1.09,51.9.24,77.75,1.81,26.74,1.62,53.5,1.15,80.29,2.38-12.34,3.91-25.19,4.92-37.84,6.91-29.48,4.62-59,8.9-88.54,13.29q-29.52,4.38-59.06,8.68c-24.95,3.62-49.91,7.14-74.85,10.8-20.67,3-41.32,6.22-62,9.34-24.9,3.75-49.71,8.3-74.72,11-22.42,2.45-44.41,7.65-66.92,9.23a5.19,5.19,0,0,1,3.06-4.7c5.24-2.86,10.35-5.93,15.56-8.83,18.54-10.29,37.16-20.44,55.59-30.92C2531.71,2264.76,2536.47,2263.19,2536.07,2257.58Z"/><path class="cls-4" d="M3452.58,2324.64c-4.95,2.18-9.94,4.48-15,6.59q-75.36,31.42-150.73,62.82H3186q23.42-13.23,46.83-26.45,33.85-19,67.83-37.89c2.73-1.52,5.28-2.91,5.39-6.48q72-.18,143.91-.34C3450.78,2322.89,3451.86,2322.63,3452.58,2324.64Z"/><path class="cls-9" d="M2436.06,2377.2c-.19-4.14,2.85-5.53,5.85-7.19q47.58-26.22,95.08-52.55c4.94-2.74,9.81-5.59,14.74-8.35,3.32-1.85,6.18-4,6.22-8.3a151.35,151.35,0,0,1,29.37-4.33,863.32,863.32,0,0,1,95.84-.77c41.28,1.94,82.51.43,123.75,1.13,16.3.28,32.61,0,49.93,0-4.9,4.84-10.54,4.18-15.4,5.12q-65,12.57-130.09,24.55c-43.76,8.14-87.51,16.4-131.35,24.12-23.31,4.11-46.56,8.55-69.86,12.73q-25.77,4.62-51.47,10.18C2451.22,2375.2,2443.6,2376,2436.06,2377.2Z"/><path class="cls-14" d="M1554,2263.23c-.71,6.1-6.32,7.44-10.33,9.73-19.83,11.32-39.92,22.2-60,33.16-3.9,2.13-7.64,4.2-7.8,9.36-9.29,3-19.08,2.28-28.59,3.26-16.14,1.66-32.43,2.34-48.69,3.08-59.21,2.69-118.43.36-177.63,1.18-1,0-2-.12-3-.19.31-4.72,3.84-6.58,7.4-8.54,12.49-6.86,25-13.6,37.33-20.83,4.32-2.54,10.19-3.86,11.25-10.19,25.2-1.4,50.33-3.75,75.54-5.1,26.15-1.4,52.28-3.83,78.42-5.72,27.81-2,55.58-4.43,83.41-6.22C1525.59,2265.3,1539.8,2264.2,1554,2263.23Z"/><path class="cls-10" d="M2388,2235.23c20.7-3.35,41.66-4.1,62.48-6.27,16.83-1.75,33.64-3.55,50.47-5.24,8.92-.89,17.86-1.56,26.78-2.42,19.15-1.85,38.28-4.89,57.45-5.22,12.17-.22,24.52.66,36.8.89,30.94.57,61.86,1.86,92.79,2.65,23.27.6,46.53,1.57,69.82,1.66,2.66,0,5.34,0,7.73,2.85-13.27,1.6-26.15,3.07-39,4.74-28.63,3.71-57.46,5.54-86.06,9.58-20,2.83-40.27,4.31-60.37,6.72-30.31,3.62-60.57,7.6-90.86,11.27-18.45,2.23-36.94,4.1-55.4,6.28-21.08,2.48-42.14,5.21-63.22,7.68-14.18,1.67-28.45,2.76-42.59,4.71-10.23,1.42-20.52,1.86-30.77,2.77.29-6.29,5.84-7.49,9.9-9.76,15.19-8.52,30.61-16.6,45.78-25.15C2383,2241.15,2387.25,2239.9,2388,2235.23Z"/><path class="cls-11" d="M3124,2301.17c-.12,3-1.93,4.64-4.44,6.06-13.56,7.69-27,15.59-40.57,23.27q-39,22-78,43.93c-11.87,6.64-23.85,13.1-35.79,19.62H2841.77c6.29-3.45,12.59-6.87,18.83-10.4,13.49-7.64,27.45-14.48,40.28-23.24,2.8-1.91,7-3,7-7.57q27.41-6.69,54.8-13.38,77.7-18.83,155.39-37.6A48,48,0,0,1,3124,2301.17Z"/><path class="cls-15" d="M1274,2283.25c-1.06,6.33-6.93,7.65-11.25,10.19-12.28,7.23-24.84,14-37.33,20.83-3.56,2-7.09,3.82-7.4,8.54-3.66.09-7.32.26-11,.26-80,0-159.92-1.44-239.82.39-67.91,1.55-135.79.34-203.68,1.18-3.42,0-7.07.84-10.37-2.64,8.92-.9,17.83-2.3,26.77-2.6,23.24-.78,46.31-3.69,69.53-4.73,17.52-.79,35-2.61,52.56-3.92,27.12-2,54.22-4.11,81.36-6,18.18-1.25,36.36-2.74,54.54-4.07,27.12-2,54.24-4,81.36-5.95,17.86-1.28,35.69-2.82,53.57-4,18.52-1.23,37-3,55.56-4.1C1243.63,2285.73,1258.81,2284.15,1274,2283.25Z"/><path class="cls-11" d="M3306,2323.23c-.11,3.57-2.66,5-5.39,6.48q-34,18.86-67.83,37.89-23.45,13.17-46.83,26.45h-96.48l16-8.85c6.92-3.85,13.59-8.16,20.45-12.11,2.53-1.46,4.13-3.25,4-6.27q37.35-11.87,74.72-23.7c17.7-5.57,35.53-10.75,53.13-16.6a64.3,64.3,0,0,1,23.37-3.65C3289.43,2323.22,3297.73,2323.13,3306,2323.23Z"/><path class="cls-16" d="M3576.13,2301.85h0c-.25,6.34-5.86,7.54-9.92,9.91-8.3,4.87-17,9-25.3,13.91-20.8,12.41-42.18,23.77-63.35,35.53-16.52,9.18-33,18.54-49.47,27.74-2.22,1.23-3.65,2.78-4,5.1a6.57,6.57,0,0,0-.07,1.19c-2.86,2.56-6.34,1.43-9.56,1.47-14.3.22-28.7-.76-42.89.6-22.9,2.2-45.82.94-68.7,1.94-3.8.17-7.62,0-11.4,0,.07-3.32,1.84-3.58,3.33-4.19l2.48-1q64.56-26.82,129.11-53.64,43.71-18.19,87.33-36.57c2.76-1.16,5.41-2.58,8.52-2.53,6.59.11,13.19,0,19.78,0,4.63-.05,9.25-.11,13.88-.09,2.22,0,4.44,0,6.66.07h0a.08.08,0,0,1,.07,0l3.27.08,3.09.11.55,0,2.73.14C3573.58,2301.67,3574.86,2301.76,3576.13,2301.85Z"/><path class="cls-13" d="M2462.09,2195.84c12.22-1.49,24.55-1.18,36.79-2.76,22-2.85,44.29-3.41,66.42-5.37,13.2-1.16,26.5-1.93,39.75-2.83,23.16-1.57,46.27-4,69.44-5.33,17.92-1.07,35.88-1.22,53.81.87,6.58.77,13.3.38,20,.5,22.27.42,44.5,1.92,66.75,2.69,13.57.47,27.2,1,40.84,2.15a76.13,76.13,0,0,1-14.48,3.07c-27.41,2.5-54.79,5.25-82.2,7.75-18.18,1.66-36.4,2.86-54.57,4.58-24.43,2.3-48.81,5-73.24,7.35-17.84,1.7-35.73,2.93-53.58,4.6-17.16,1.6-34.28,3.52-51.43,5.28-7.92.82-15.89,1.34-23.8,1.93-19.53,1.44-38.93,4.67-58.55,4.78-6.65,0-13.3-.21-19.95-.32,0-4.15,3.24-5.34,6.16-6.91,7.56-4.06,15.07-8.21,22.61-12.31C2457,2203.31,2460.68,2200.69,2462.09,2195.84Z"/><path class="cls-14" d="M2536.07,2257.58c.4,5.61-4.36,7.18-7.84,9.17-18.43,10.48-37.05,20.63-55.59,30.92-5.21,2.9-10.32,6-15.56,8.83a5.19,5.19,0,0,0-3.06,4.7c-10.76,3.26-22,3.74-33,5.75-37.84,6.94-76.08,3.3-114.15,4-12.94.25-25.89-.11-38.84-.18a4.69,4.69,0,0,1,2.5-4q8.72-4.82,17.35-9.77c9.22-5.25,18.35-10.66,27.67-15.75a7.77,7.77,0,0,0,4.46-8.1c32.88-4,65.75-8.12,98.65-12,26-3.06,52.06-5.73,78.06-8.8,10.84-1.28,21.6-3.19,32.41-4.7A57.12,57.12,0,0,1,2536.07,2257.58Z"/><path class="cls-16" d="M2056.71,2383.26a154.12,154.12,0,0,1-18.13,10.79H1922.64l3.49-.53q42.73-6.41,85.54-12.37c16.73-2.32,33.28-6.06,50.25-6.55C2062.94,2379.15,2059.73,2381.09,2056.71,2383.26Z"/><path class="cls-4" d="M3665.76,2304.6c-45.93,27.31-91.93,54.51-137.72,82.05a44.66,44.66,0,0,1-23.43,6.63c-9.31.14-18.62.44-27.93.77-17.54.62-35.07,1.33-52.63,1.19a6.57,6.57,0,0,1,.07-1.19c.32-2.32,1.75-3.87,4-5.1,16.51-9.2,32.95-18.56,49.47-27.74,21.17-11.76,42.55-23.12,63.35-35.53,8.26-4.93,17-9,25.3-13.91,4.06-2.37,9.67-3.57,9.92-9.91h0q8.16-.24,16.31-.37l5.44-.08,3.79,0,8.73-.07h3.79c16-.05,31.92.12,47.88.35Z"/><path class="cls-14" d="M2388,2235.23c-.77,4.67-5,5.92-8.27,7.74-15.17,8.55-30.59,16.63-45.78,25.15-4.06,2.27-9.61,3.47-9.9,9.76-11.87,3.3-24.18,3.46-36.28,5.07q-30,4-60.17,7.16a209.81,209.81,0,0,1-41.85.17c-11.32-1.07-22.54-1-33.8-1.18-14.64-.28-29.29-.21-43.93-.28,0-4.65,3.88-5.62,7-7.35,10.87-6.1,21.7-12.26,32.62-18.27,2.5-1.38,4.25-3,4.39-6,14.73-2.15,29.54-3.31,44.39-4.36,17.16-1.22,34.25-3.26,51.38-5,15.13-1.51,30.25-3.1,45.39-4.58q40.46-3.95,80.93-7.78C2378.72,2235.09,2383.38,2235.31,2388,2235.23Z"/><path class="cls-13" d="M2901.92,2294.83c13.28-2.61,26.54-5.26,39.83-7.81q55.68-10.7,111.36-21.33a24.48,24.48,0,0,1,8.9-.45c-.35,4.21-3.3,6.24-6.62,8.05-6.13,3.33-12.19,6.75-18.29,10.12-26.15,14.44-52.41,28.68-78.37,43.47-5.45,3.1-12.26,5.3-14.67,12.32-26.5,6.75-52.48,15.59-80.6,14.12-17.12-.89-34.37.75-51.58.18.09-3.36,1.9-5.29,4.81-6.87,11.6-6.32,23.09-12.84,34.6-19.32,15.53-8.74,31-17.55,46.59-26.25C2900.44,2299.64,2902,2297.84,2901.92,2294.83Z"/><path class="cls-12" d="M2948,2243c20.72-4.79,41.92-6.5,62.83-10.06,13.09-2.23,26.24-4.83,39.55-3.54,23.22,2.26,46.55.57,69.72,2.13,21.59,1.46,43.15,1.37,64.74,1.72,2.54,0,5.28-.6,8.49,2.51-9.07,1.82-17.17,3.55-25.3,5.06-30.33,5.64-60.69,11.1-91,16.81-36.5,6.87-72.9,14.27-109.47,20.75-20.73,3.66-41.37,7.8-62.1,11.35-11,1.88-21.82,6.4-33.37,4.4-.19-2.51.5-4.38,3-5.68,5-2.62,9.75-5.58,14.65-8.31,17.59-9.83,35.21-19.6,52.78-29.45C2945.45,2249.06,2947.9,2246.83,2948,2243Z"/><path class="cls-16" d="M2901.92,2294.83c.09,3-1.48,4.81-4,6.23-15.56,8.7-31.06,17.51-46.59,26.25-11.51,6.48-23,13-34.6,19.32-2.91,1.58-4.72,3.51-4.81,6.87-3.47,1.58-7.17,1.2-10.82,1.24-10.32.11-20.65.55-31,.27-42.25-1.13-84.44,2.28-126.69,1.71-21.85-.29-43.7,0-65.72-1.14l33.83-6.54c33.21-6.43,66.39-13,99.64-19.26,45-8.44,90-16.58,135-24.92q23-4.26,45.9-8.92A57.05,57.05,0,0,1,2901.92,2294.83Z"/><path class="cls-4" d="M2944.06,2339.2c2.41-7,9.22-9.22,14.67-12.32,26-14.79,52.22-29,78.37-43.47,6.1-3.37,12.16-6.79,18.29-10.12,3.32-1.81,6.27-3.84,6.62-8.05,18.32,0,36.7-.81,54.95.31,37.94,2.32,75.88,1.27,113.81,1.78,1.86,0,3.91-.69,6.31,1.44-5.89,3.72-12.53,4.14-18.6,5.61-46.5,11.27-93.09,22.18-139.63,33.27Q3014.41,2323,2950,2338.5A50.94,50.94,0,0,1,2944.06,2339.2Z"/><path class="cls-13" d="M3840,2182.91v9.75q-21.43-1-42.84-1.92a46.62,46.62,0,0,1-7.88-1c-5.63-1.19-11.27-1.14-16.5,1.81s-10.33,4.14-16.23,2.08c-2.41-.84-5.28-.32-7.94-.45l-48.51-2.41c-1.07-3.86,3.57-2.45,3.79-4.95-.45-.29-.9-.85-1.39-.88-21.2-1.29-42.44-2.11-63.6-3.9-19.9-1.69-39.16,1-58.06,6.66-13.76,4.13-27.46,4-41.39,1.73a53.74,53.74,0,0,0-9-.25c-15.51.12-30.9-1.66-46.56-4l44.29-8.72c0-.34,0-.68-.07-1-7.68-.78-15.35-1.85-23.05-2.26-18.59-1-37.2-1.5-55.78-2.6-5.92-.34-11.83-1.17-17.76-1.68-10.81-.93-21.28,1.07-31.72,2.69-14.33,2.23-28.45,1.41-42.69,0a126.47,126.47,0,0,0-15-.53c-12.66.27-25.1-2.7-38.45-1.93,11-7.84,22.77-6,34.24-6.25q34.34,1.11,68.65,2.73c16.91.78,33.93,0,50.68,1.8,17.28,1.88,34.61.19,51.7,2s34,.09,50.71,2c16.95,1.92,33.93.22,50.71,2,17.94,1.86,35.94.22,53.7,2.09,15.63,1.65,31.26.18,46.72,1.84,19.24,2.07,38.61.21,57.68,2.24,18,1.91,35.84.95,53.74,1.36a5.94,5.94,0,0,0,1.88-.65c.83,3.18,3.49,2.51,5.67,2.55C3833.21,2182.9,3836.6,2182.91,3840,2182.91Z"/><path class="cls-15" d="M2907.93,2352.84c-.08,4.61-4.25,5.66-7,7.57-12.83,8.76-26.79,15.6-40.28,23.24-6.24,3.53-12.54,6.95-18.83,10.4H2732.55l84.31-20.26q42.06-10.1,84.16-20.11A60.64,60.64,0,0,1,2907.93,2352.84Z"/><path class="cls-17" d="M3672,2345.21c-1.18,4.88-5.66,6.18-9.25,8.3-4,2.36-8.33,4.18-12.39,6.46-19.68,11.05-39.26,22.25-59,33.26l-1.48.82h-66.22l14.79-8.77c21.13-12.52,42.3-25,63.35-37.63a17.1,17.1,0,0,1,9.33-2.69C3631.48,2345.1,3651.75,2345.14,3672,2345.21Z"/><path class="cls-14" d="M3736,2343.87c-.73,4.09-3.89,5.91-7.12,7.74-19.31,11-38.53,22.07-57.92,32.89q-8.61,4.8-17.24,9.55H3590l1.48-.82c19.7-11,39.28-22.21,59-33.26,4.06-2.28,8.38-4.1,12.39-6.46,3.59-2.12,8.07-3.42,9.25-8.3Z"/><path class="cls-13" d="M2818,2195c27.26-3.75,54.69-5.82,82.1-8.22,23.75-2.07,47.39-5.51,71.16-7.12,9.44-.64,19.13,1.24,28.77,1.37,19.92.27,39.81,1.67,59.7,2.56,14.71.66,29.47,1.17,45.41,1.85-9.76,4.61-19.23,3.92-28.25,5.08-30.89,4-61.88,7.08-92.83,10.64q-50.83,5.85-101.66,12c-19.74,2.39-39.35,6.1-59.34,5.85-11-.13-21.94-.53-32.91-.81-.7-4.51,2.2-6.36,5.64-8.14,6.13-3.18,12.07-6.69,18.13-10C2816,2198.91,2818,2197.8,2818,2195Z"/><path class="cls-10" d="M3498,2257.16c24,.05,48-.7,71.87.49,12,.6,24.18.64,36.57,3-9.3,4-18.57,8.1-27.92,12-34.37,14.3-68.79,28.45-103.1,42.87a37.05,37.05,0,0,1-15.39,3.28c-18.63-.32-37.26-.39-55.9-.54-.4-3.34.84-5.64,3.9-7.26,5.54-2.93,10.93-6.13,16.4-9.19q34.13-19.08,68.28-38.11C3495.47,2262.13,3497.92,2260.68,3498,2257.16Z"/><path class="cls-14" d="M3064.68,2227c8.18-5.21,15.83-4.26,22.81-5.37,41.94-6.62,84-12.47,126-18.71,20-3,40-6.24,60-9.32a18,18,0,0,1,6-.23c13.18,2.58,26.64.48,39.78,2.06,21.46,2.58,43.2,0,66.06,4.54-16.06,3.11-30.72,6-45.42,8.78-30.34,5.66-60.79,10.75-91,17-23.66,4.87-47.18,6.6-71.22,3.58-9.85-1.24-20-.47-30-.44C3120.72,2229,3093.87,2225.59,3064.68,2227Z"/><path class="cls-12" d="M3364.07,2243.44a81,81,0,0,1,31.36-2.84c12.85,1.37,25.93.61,38.91.72,23.82.19,47.57,2.55,71.56,2.46-6.34,3.7-13.22,5.8-20.16,7.55-25.46,6.42-50.25,15.06-75.37,22.6-22.27,6.69-44.39,13.89-66.59,20.79-2.84.88-5.82,1.84-8.73,1.84-16.3,0-32.61-.22-48.92-.38-.44-6.24,5-7.35,8.77-9.48,18.76-10.64,37.79-20.8,56.46-31.59C3356.27,2252.27,3362.71,2250.43,3364.07,2243.44Z"/><path class="cls-14" d="M3840,2346.89v30.68l-6.4,3.59q-11.55,6.47-23.13,12.89h-54.86q41.64-23.28,83.28-46.54Z"/><path class="cls-13" d="M3242,2231.17c16-4.67,32.5-6.43,48.71-9.86,12-2.54,24.16-5.39,36.52-3.89,22.14,2.7,44.45.65,66.63,3.13,12.5,1.4,25.27.26,38.37.26-1.49,3.68-4.29,3.61-6.73,4.19-54.27,12.89-108.49,26-162.86,38.51-14,3.21-28.58,1.63-42.78.57-6.59-.49-13.25-.47-19.83-1.31.37-5.19,4.48-6.91,8.28-8.95,7.85-4.23,15.88-8.18,23.43-12.9C3235.7,2238.46,3241.36,2237.28,3242,2231.17Z"/><path class="cls-12" d="M3766.43,2343.87c-17.41,17.39-35.1,33.78-52.51,50.18h-60.18q8.63-4.76,17.24-9.55c19.39-10.82,38.61-21.93,57.92-32.89,3.23-1.83,6.39-3.65,7.12-7.74Z"/><path class="cls-17" d="M3840,2321.2v25.69l-1.11.62q-41.64,23.29-83.28,46.54h-35.34c21.43-20.2,43.67-39.52,64.32-60.56,3.47-3.54,7.6-6.42,11.3-9.74a10.09,10.09,0,0,1,7.34-2.46C3815.49,2321.45,3827.74,2321.26,3840,2321.2Z"/><path class="cls-12" d="M2972,2207.16c6.8-3.28,14.35-2.53,21.48-3.47,22.68-3,45.43-5.48,68.15-8.08a134.88,134.88,0,0,1,33.8.73c7.21,1,14.61.57,21.93.72,21.27.45,42.47,2.81,63.76,2.13,4.49-.14,8.34,1.89,12.66,3-14.67,2.23-29.33,4.51-44,6.67-24.94,3.68-49.89,7.26-74.82,10.92q-36.93,5.43-73.82,10.95c-15.75,2.34-31.52,4.48-47.22,7.08-7.31,1.21-14.51,1.68-21.8.32-.55-4,1.64-6,4.85-7.77q13-7.23,25.85-14.9C2966.41,2213.36,2970.91,2212.07,2972,2207.16Z"/><path class="cls-15" d="M2320,2283.19a7.77,7.77,0,0,1-4.46,8.1c-9.32,5.09-18.45,10.5-27.67,15.75q-8.66,4.93-17.35,9.77a4.69,4.69,0,0,0-2.5,4c-10.66.08-21.32.25-32,.25q-103,0-205.94-.06a36.43,36.43,0,0,1-10-1c6.22-.86,12.33-2.18,18.47-2.89,37.25-4.28,74.54-8.22,111.66-13.59,19.36-2.8,38.94-4.06,58.32-6.77,10.48-1.47,21.05-2.14,31.49-4.47,11.6-2.58,23.59-3.73,35.47-4.59C2290.4,2286.65,2305.05,2283.35,2320,2283.19Z"/><path class="cls-15" d="M2152,2257.2c-.14,3-1.89,4.62-4.39,6-10.92,6-21.75,12.17-32.62,18.27-3.09,1.73-7,2.7-7,7.35-28.31.08-56.61.25-84.92.22q-69.93-.06-139.87-.36c-13.57,0-27.22,1.08-41.87-2.88,8.61-.92,16.1-1.54,23.51-2.29,25.39-2.59,50.89-4.11,76.29-6.67,28.69-2.88,57.41-5.42,86.12-8.14,28-2.66,56.09-5.37,84.15-7.92C2125,2259.55,2138.41,2257.44,2152,2257.2Z"/><path class="cls-14" d="M2948,2243c-.1,3.8-2.55,6-5.51,7.69-17.57,9.85-35.19,19.62-52.78,29.45-4.9,2.73-9.69,5.69-14.65,8.31-2.47,1.3-3.16,3.17-3,5.68-9,2.26-17.69-1.21-26.6-1.14-25.17.18-50.35.05-75.53,0-4,0-7.94-.14-11.92-.22,1.49-5,6.13-6.56,10-8.82,6.33-3.65,12.73-7.16,19.16-10.63,3.33-1.8,6.29-3.8,6.82-8,34.31-5.15,68.68-9.89,102.93-15.56C2913.89,2247.05,2930.78,2243.69,2948,2243Z"/><path class="cls-15" d="M3691.8,2339.4c-5.4,2.52-11.17,1.32-16.75,1.39-19.61.22-39.22.09-59.93.09,7.38-7.09,16.05-10.44,23.77-15.13,25.28-15.36,50.81-30.29,76.15-45.55,3.53-2.13,6.92-3.65,11.13-3.59,21.29.27,42.58.41,63.87.6-.16,3.32-2.94,4.13-5.21,5.4q-41.62,23.29-83.28,46.56C3697.2,2331.59,3692.29,2333.36,3691.8,2339.4Z"/><path class="cls-2" d="M3498,2257.16c-.1,3.52-2.55,5-5.29,6.49q-34.18,19-68.28,38.11c-5.47,3.06-10.86,6.26-16.4,9.19-3.06,1.62-4.3,3.92-3.9,7.26-8,1.16-16,.48-23.92.5-30,.1-59.94,0-90.17,0,1-3.51,4-3.37,6.28-4.11,52.74-17.13,105.31-34.82,158.54-50.42,7.66-2.24,15.17-5,22.78-7.38C3484.46,2254.69,3491.29,2254,3498,2257.16Z"/><path class="cls-10" d="M3840,2377.57v16.48h-29.53q11.58-6.43,23.13-12.89Z"/><path class="cls-2" d="M2462.09,2195.84c-1.41,4.85-5.13,7.47-9.27,9.72-7.54,4.1-15.05,8.25-22.61,12.31-2.92,1.57-6.18,2.76-6.16,6.91-21,0-42,1.24-62.87-.43-20.62-1.65-41.18-.65-61.75-1.62-32.2-1.52-64.46-1.45-96.66-2.46-14.83-.46-29.79-.7-44.65-2.12,9.76-1.34,19.63-2,29.36-2.48,14.6-.71,29.12-2.25,43.72-2.92,21.15-1,42.22-3.66,63.36-5.21,10.58-.78,21.18-1.53,31.76-2.08,23.19-1.21,46.33-3.27,69.47-4.95,21.12-1.53,42.33-2.36,63.36-5.13A10.9,10.9,0,0,1,2462.09,2195.84Z"/><path class="cls-12" d="M3691.8,2339.4c.49-6,5.4-7.81,9.75-10.23q41.67-23.24,83.28-46.56c2.27-1.27,5.05-2.08,5.21-5.4h44.59l.88,2c-7.81,7.33-15.67,14.62-23.41,22-4.16,4-9.88,6.87-10.15,13.75h0c-5.4-.45-8,3.91-11.38,6.78-6.52,5.57-11,14.44-19.3,16.73-8.07,2.23-17.11,1.18-25.72,1.2C3727.63,2339.71,3709.72,2339.5,3691.8,2339.4Z"/><path class="cls-11" d="M2848.05,2167.26c27.12-2.09,54.25-4.09,81.37-6.29,23.13-1.88,46.37-2.57,69.4-5.6,6.77-.89,13.17,1.51,19.82,1.57,23.26.2,46.44,1.85,69.61,3.74,7.92.64,15.95.1,23.94.7-12,4.45-24.67,3.85-37,5.25-26.68,3-53.48,4.88-80.19,7.75-14.5,1.55-29.06,3-43.59,4-23.53,1.52-46.88,5.7-70.57,4.72-14.27-.59-28.61.34-42.77-2.24,0-3,1.81-4.68,4.3-6C2845.3,2173.16,2847.76,2171,2848.05,2167.26Z"/><path class="cls-15" d="M3129.92,2366.82c.1,3-1.5,4.81-4,6.27-6.86,3.95-13.53,8.26-20.45,12.11l-16,8.85h-49.3l1.38-.45c27-8.87,54.39-16.88,81.62-25.24C3125.38,2367.69,3127.67,2367.33,3129.92,2366.82Z"/><path class="cls-16" d="M3364.07,2243.44c-1.36,7-7.8,8.83-12.71,11.67-18.67,10.79-37.7,20.95-56.46,31.59-3.76,2.13-9.21,3.24-8.77,9.48-8,1.19-16,.47-23.93.52-18,.1-36-.14-54,0a418.42,418.42,0,0,1-55.7-2.64c11.9-3,22.08-5.75,32.32-8.21q45.49-11,91-21.75Q3320,2253.69,3364.07,2243.44Z"/><path class="cls-14" d="M3363.48,2174.67c-12.29,5-25.12,6.16-37.79,8.15-21,3.29-41.94,6.32-62.92,9.43-13.12,1.94-26.27,5.54-39.35,5.29-16.85-.31-33.84.54-50.65-1.85a61,61,0,0,0-9.92-.62c-20.28.47-40.43-2-62.79-2.48,11.65-3.84,21.83-3.77,31.72-5.17,25.27-3.55,50.54-7.29,75.93-9.65,28.37-2.64,56.54-9.48,85.24-6.34,16.52,1.81,33.15.57,49.63,3.07C3349.4,2175.53,3356.51,2174.67,3363.48,2174.67Z"/><path class="cls-2" d="M3619.77,2297.43a13.7,13.7,0,0,1-6.76,1.35q-39.37-.08-78.76-.14c-.85,0-2,.35-2.58-2,9.65-4.25,19.42-8.75,29.33-12.9,26.63-11.13,53.35-22,80-33.18a35.16,35.16,0,0,1,19.28-2.27c10.45,1.43,21.2.75,31.82,1-.21,4.57-4,5.59-7.16,7.31-18.45,10.22-37,20.24-55.25,30.8C3625.7,2289.65,3620.05,2291.16,3619.77,2297.43Z"/><path class="cls-8" d="M3284.67,2163.43c-1.38,3.83-3.64,3.22-5.5,3.37-28.76,2.35-57.32,6.61-86,9.69-30.67,3.29-61.29,9.29-92.31,6-19.53-2.05-39.15-.87-58.67-3.2-11.82-1.4-24-.25-36.78-.25a11.17,11.17,0,0,1,7.84-3.57c17.29-.48,34.39-3,51.58-4.52,25.09-2.28,50.1-5.73,75.23-7.25,21.87-1.33,43.5-6,65.56-4.51C3231.77,2160.94,3257.91,2162.93,3284.67,2163.43Z"/><path class="cls-14" d="M3549.64,2195c-12.18,3.06-24.34,6.24-36.55,9.15-16.79,4-33.83,7.06-50.37,11.84-13.54,3.91-27.17,3.51-40.56,2.26-11.63-1.09-23.23-1.28-34.8-1.39-17-.15-33.77-3.21-52.41-1.75,6.62-4.69,13-4.49,18.75-5.63,30.6-6,61.28-11.52,91.91-17.33,13.1-2.49,26.11-4.3,39.49-1.59,5.14,1,10.62.43,16,.4,16.29-.11,32.41,2.9,48.73,2.07C3549.73,2193.71,3549.68,2194.37,3549.64,2195Z"/><path class="cls-16" d="M2972,2207.16c-1.11,4.91-5.61,6.2-9.19,8.34q-12.81,7.65-25.85,14.9c-3.21,1.78-5.4,3.82-4.85,7.77a303.12,303.12,0,0,1-41.74-.71c-15.85-1.49-31.93-.57-47.9-.77-31.37-.37-62.68-2.88-94.09-2.27,9.31-4.38,19.43-3.52,29.13-5,20.94-3.19,42-5.47,63.08-7.93,19.76-2.31,39.56-4.25,59.31-6.57,20.07-2.36,40.09-5,60.16-7.43C2964,2207,2968,2207.26,2972,2207.16Z"/><path class="cls-2" d="M3840,2281.52v37.25c-11.09.21-22.19-.29-33.27-.06-2.74.06-4.36-1-4.78-3.75,3.85,0,5.8-3.05,8.14-5.24C3820.1,2300.36,3830.12,2291,3840,2281.52Z"/><path class="cls-4" d="M3619.77,2297.43c.28-6.27,5.93-7.78,9.88-10.06,18.25-10.56,36.8-20.58,55.25-30.8,3.12-1.72,6.95-2.74,7.16-7.31,20.09-.86,40,2.21,60.52,3.38-9.53,5.77-19,11.6-28.6,17.29-13.71,8.14-27.55,16.06-41.18,24.33a21.9,21.9,0,0,1-12.15,3.57C3653.69,2297.57,3636.73,2297.54,3619.77,2297.43Z"/><path class="cls-13" d="M3500,2211.15c14.65-4.86,29.4-7.73,45-4.52,5.44,1.12,11.28.3,16.94.33,17.28.08,34.44,2.74,52,2.14-.47,3.25-3,3.33-4.95,3.94q-42.81,13.35-85.64,26.66c-2.6.82-5.29,1.47-7.85.87-10.53-2.48-21.21-1.05-31.81-1.57-5.29-.26-10.56-1-15.83-1.51.05-3.89,2.58-5.69,5.71-7.32,6.44-3.35,12.69-7.05,19.08-10.49C3496.23,2217.75,3499.62,2215.78,3500,2211.15Z"/><path class="cls-14" d="M3503.08,2178c-32.49,6.09-63.76,11.87-95,17.9-4,.77-8,1.4-11.86.64-11.88-2.34-23.89-.92-35.77-1.94-16.23-1.38-32.47-1.9-48.74-2.12-3.2-.05-6.38-1.38-10.84-2.42,40.81-6.16,80.21-12.65,119.79-17.77,12-1.55,24.53-.11,36.62,1.45,7.65,1,15.24,1,22.83,1.29C3487.44,2175.31,3494.64,2175.75,3503.08,2178Z"/><path class="cls-10" d="M3626,2219.23c19.24-1.07,38.35,2,57.57,1.85,4,0,8,0,12.09,0,.19,3.62-2.72,3.54-4.49,4.3q-32.51,13.77-65.08,27.35a28.36,28.36,0,0,1-12.59,2.41c-11.89-.6-23.89,1.17-35.7-1.59.06-3.85,2.52-5.63,5.62-7.32,10.93-6,21.77-12.1,32.59-18.28C3619.93,2225.72,3624.46,2224.13,3626,2219.23Z"/><path class="cls-17" d="M2794.06,2265.41c-.53,4.15-3.49,6.15-6.82,8-6.43,3.47-12.83,7-19.16,10.63-3.91,2.26-8.55,3.77-10,8.82l-101.77-.08c-12,0-23.94,0-37,0,8-4.64,16.06-4,23.55-5.17,32.68-5.26,65.47-9.82,98.22-14.59C2758.69,2270.4,2776.37,2267.93,2794.06,2265.41Z"/><path class="cls-15" d="M2818,2195c0,2.78-2,3.89-4.08,5-6.06,3.31-12,6.82-18.13,10-3.44,1.78-6.34,3.63-5.64,8.14-12.57-.51-25.13-1.17-37.73-1.22-31.92-.1-63.79-2.61-95.74-2.51-8.81,0-17.72-1.84-26.67-2.68,17.76-1.61,35.52-3.12,53.27-4.83q26.2-2.53,52.39-5.42c6.61-.73,13.25-.69,19.87-1.3C2776.35,2198.34,2797,2194.88,2818,2195Z"/><path class="cls-2" d="M3242,2231.17c-.66,6.11-6.32,7.29-10.26,9.75-7.55,4.72-15.58,8.67-23.43,12.9-3.8,2-7.91,3.76-8.28,8.95-29,0-58,.48-86.93-.44a203.29,203.29,0,0,1-26.91-2.46c14.4-2.84,28.79-5.79,43.22-8.51q46-8.66,92-17.07C3228.25,2233,3235,2231,3242,2231.17Z"/><path class="cls-13" d="M3840,2236.74v37.54a7.32,7.32,0,0,1-4.24.42c-16.49-3-33.15-1-49.72-1.67-2.65-.11-5.31-.16-8-.24a4.58,4.58,0,0,1,2.46-4c5.47-3,10.9-6.19,16.35-9.28,9.17-5.21,18.33-10.44,27.53-15.59,3-1.67,5.8-3.34,5.61-7.37Z"/><path class="cls-14" d="M3541.3,2203c3.69-4.72,8.13-4.14,11.74-5.05,18.33-4.59,36.8-8.6,55.16-13.08a57.09,57.09,0,0,1,24.64-.63,32.19,32.19,0,0,0,6.92.58c15.3-.44,30.44,1.92,46.87,2.26-3.64,3.38-7.49,3.75-10.88,4.82-14.23,4.51-28.6,8.58-42.79,13.23-6.9,2.25-13.95,2.23-20.72,1.27a150.38,150.38,0,0,0-22.8-1.35C3573.66,2205.25,3558.1,2202.06,3541.3,2203Z"/><path class="cls-16" d="M3626,2219.23c-1.58,4.9-6.11,6.49-10,8.71-10.82,6.18-21.66,12.32-32.59,18.28-3.1,1.69-5.56,3.47-5.62,7.32-10.53,2.44-21.38,2-31.78.78-12-1.44-23.89-.77-35.82-1.35-2.81-.13-5.8.76-8.37-.83-.13-2.1,1.3-2.36,2.52-2.73,32.06-9.93,64.22-19.57,96.13-29.94C3609.33,2216.61,3617.56,2219.84,3626,2219.23Z"/><path class="cls-17" d="M3830,2236.57c.19,4-2.63,5.7-5.61,7.37-9.2,5.15-18.36,10.38-27.53,15.59-5.45,3.09-10.88,6.23-16.35,9.28a4.58,4.58,0,0,0-2.46,4h-47.29c2.69-4.67,6.46-5.48,9.4-7.27,14.69-9,29.53-17.74,44.23-26.71,4.38-2.67,8.88-4.38,14.09-3.84C3809,2236.07,3819.63,2233.64,3830,2236.57Z"/><path class="cls-14" d="M3840,2195.6v5.46l-.48.23-.63.31-.61.32c-1.06.56-2.1,1.18-3.12,1.82l-1.25.8-1.55,1c-1.54,1-3.08,2.09-4.63,3.11-.83.54-1.66,1.07-2.51,1.58a32.84,32.84,0,0,1-18.87,5c-20.57-.82-41.08-3.12-61.71-2.66-2,0-4.07.15-5.39-2.36,12.33-6.52,25.4-11.44,38.36-16.36,7.74-2.94,16.65-1.24,24.76-.22,10.64,1.35,21.22,1.15,31.82,1.53l1.64,0c.46,0,.93,0,1.39.06l.86.06.65.06c.23,0,.47,0,.7.09Z"/><path class="cls-10" d="M3756.13,2215.86c12.21,1.8,24.53,1.15,36.8,1.39,4.68.09,9.23.3,14.66,2.83-14.79,8.8-28.89,17.43-43.24,25.62-5.45,3.1-11.91,1.93-17.67,1.15-9.64-1.32-19.24-1.08-28.87-1.3,0-4.4,3.22-6,6.53-7.78,7.57-4,15-8.16,22.52-12.23C3751,2223.3,3754.67,2220.64,3756.13,2215.86Z"/><path class="cls-2" d="M3756.13,2215.86c-1.46,4.78-5.13,7.44-9.27,9.68-7.51,4.07-15,8.26-22.52,12.23-3.31,1.74-6.49,3.38-6.53,7.78-6.26,2.78-12.27-1-18.56-.69a283.49,283.49,0,0,1-37.6-.76c5.25-5.66,12.49-7,18.79-10,10.78-5.06,22.11-8.94,32.95-13.86,9-4.08,18-6.27,27.88-5.05C3746.18,2215.81,3751.21,2214.73,3756.13,2215.86Z"/><path class="cls-13" d="M3692.12,2193.86c15.55.64,31.15.82,46.63,2.19,5.17.45,10.51-.07,16.51,1.54-3.26,3.31-7.18,4.28-10.62,5.78-9.75,4.23-19.88,7.64-29.41,12.28a34.28,34.28,0,0,1-21.38,2.76c-8.63-1.53-17.23-.81-25.81-1.64-.27-2.86.78-4.79,3.23-6.6,3.76-2.77,8.08-4.43,11.95-6.9C3686.91,2200.91,3692.06,2199.72,3692.12,2193.86Z"/><path class="cls-13" d="M3840,2225.92v6.77c-2,0-3.95,0-5.93.09,0-3.07,1.87-4.68,4.4-6Z"/><path class="cls-15" d="M3500,2211.15c-.41,4.63-3.8,6.6-7.39,8.53-6.39,3.44-12.64,7.14-19.08,10.49-3.13,1.63-5.66,3.43-5.71,7.32-6.13,2.33-12.71,2-18.72,1-16.19-2.76-32.48-.28-49.17-2.24,2.84-4.05,7.57-3.49,11.2-4.4,27.92-7,55.94-13.57,83.94-20.24A34.88,34.88,0,0,1,3500,2211.15Z"/><path class="cls-17" d="M2848.05,2167.26c-.29,3.72-2.75,5.9-5.7,7.52-2.49,1.36-4.3,3-4.3,6-14.26-.05-28.55,1-42.74-1.51-3.23-.57-6.64-.27-10-.22-18.45.29-36.79-1.62-55.18-3.2,10.62-.26,21.08-1.91,31.63-2.64,24.45-1.71,48.92-3.06,73.29-5.81C2839.36,2167,2843.73,2167.3,2848.05,2167.26Z"/><path class="cls-17" d="M3840,2209.08v16.84l-1.53.83c-2.53,1.35-4.39,3-4.4,6-10.89-.4-21.92,1.31-33-2.54,1.75-3.69,5.65-4.36,8.51-6.27,3-2,6.6-3.34,9.34-5.67A39.47,39.47,0,0,1,3840,2209.08Z"/><path class="cls-2" d="M3692.12,2193.86c-.06,5.86-5.21,7-8.9,9.41-3.87,2.47-8.19,4.13-11.95,6.9-2.45,1.81-3.5,3.74-3.23,6.6-15.45.95-30.66-2.41-46.43-3.51,11-3.82,22.08-7.73,33.17-11.42,7.22-2.39,14.59-4.29,21.78-6.75C3681.71,2193.34,3686.8,2192.6,3692.12,2193.86Z"/><path class="cls-16" d="M3665.76,2304.6l-3.69-3a17,17,0,0,1,2.89-.4c1.17,0,2.91-.65,3.25,1C3668.5,2303.67,3667.12,2304.35,3665.76,2304.6Z"/><path class="cls-17" d="M3324.11,2301.18c-.11-.53-.2-1.07-.27-1.61,1,0,2.27-1,2.66.75A20.2,20.2,0,0,1,3324.11,2301.18Z"/><path class="cls-1" d="M3840.21,2195.64l-.21,0h0Z"/><path class="cls-17" d="M3840.21,2195.64l-.21,0h0Z"/><rect class="cls-18" width="3840" height="2394.05"/></svg>