<svg id="Layer_1" data-name="Layer 1" xmlns="http://www.w3.org/2000/svg" viewBox="0 0 3842.17 2397"><defs><style>.cls-1{fill:#a5a5a5;}.cls-1,.cls-2,.cls-3,.cls-4,.cls-5,.cls-6{fill-rule:evenodd;}.cls-2{fill:#7a2121;}.cls-3{fill:#b7446e;}.cls-4{fill:#808082;}.cls-6,.cls-8{fill:#fff;}.cls-7{fill:none;}.cls-8{stroke:#000;stroke-miterlimit:10;}</style></defs><g id="phonebooth"><path class="cls-1" d="M128.13,1144.3l-.58-.53Q71.77,1093.45,16,1043.14v0s0,.1,0,.16c-.12,1.16-.25,2.32-.37,3.48,0,0,0,.1,0,.15-.17,1.54-.34,3.07-.5,4.61,0,.05,0,.1,0,.15-.11,1.13-.23,2.27-.35,3.4,0,0,0,.1,0,.15q-1,9.26-2,18.52s0,.08,0,.12L4.25,1152c-.07.63-.14,1.25-.2,1.88v0l-4,37.48q-.94,8.8-1.9,17.61v0l-.24,2.17L0,1212.67v563l5.4-3,.35-.19h0l.16-.09.07,0,1.48-.82.06,0,6.94-3.85.37-.21h0q13.2-7.32,26.39-14.67l.08,0,1.28-.71.11-.06,20.22-11.23,1.41-.78,17.43-9.69h0l2.38-1.32.22-.12,2.73-1.52.18-.1,1.7-1,.2-.11.68-.38.21-.12,2-1.08.18-.1.86-.47.28-.16,8.71-4.83.29-.16,1.29-.72.23-.13,1.56-.87.23-.13,1.36-.75.24-.13,1.76-1,.24-.13.65-.36.24-.13,1.27-.7.24-.14.07,0,.25-.14c1.19-.65,2.37-1.32,3.56-2l.11-.06,14.67-8.15.15-.08.23-.13,1.29-17.69v-.11c.09-1.26.18-2.53.28-3.79v-.06q2.07-28.94,4.15-57.86c.11-1.59.23-3.17.34-4.76q7.17-99.7,14.32-199.41.43-6,.86-12,1.22-16.78,2.42-33.57c0-.11,0-.22,0-.33,0-.3,0-.61.07-.91,0-.1,0-.19,0-.29.06-1,.14-2,.21-3.06,0-.06,0-.11,0-.17q.44-5.93.86-11.86h0l.12-1.71v0c.09-1.14.16-2.28.25-3.42.12-1.61.26-3.23.47-4.84l.6-10v-.1l.83-8.59.17-1.76v0l1-10.4V1316c.12-1.6.24-3.19.35-4.79a.34.34,0,0,0,0-.1c.17-2.37.34-4.75.52-7.12,0,0,0-.1,0-.15.19-2.58.37-5.16.56-7.75v0c.06-.74.11-1.48.17-2.22v0l.93-12.9c0-.07,0-.15,0-.22.24-3.26.47-6.53.72-9.78,0,0,0-.08,0-.12.13-1.84.26-3.7.4-5.54,0,0,0-.07,0-.11.06-.89.13-1.77.19-2.66a1.34,1.34,0,0,0,0-.2c.11-1.34.2-2.66.3-4,0,0,0-.09,0-.14.44-6.15.88-12.32,1.33-18.47a.17.17,0,0,1,0-.07c.08-1.15.16-2.28.25-3.43a.22.22,0,0,1,0-.08q.72-10.18,1.48-20.39h0q.34-4.77.7-9.56s0-.08,0-.12c.06-.83.11-1.66.18-2.48,0,0,0-.09,0-.14.19-2.58.37-5.18.56-7.76,0-.05,0-.1,0-.15.08-1,.15-2,.23-3,0,0,0-.11,0-.16.13-1.79.25-3.58.39-5.37a.22.22,0,0,1,0-.08c.13-1.95.28-3.9.42-5.85Q148.47,1162.64,128.13,1144.3Zm-129.77,67,.21-1.9,1.43.92.5.33v2.1Z" transform="translate(2.17)"/><path class="cls-2" d="M350.41,1300.39c4.28-.68,7.06,1.65,9.24,5.63,1.5,2.78,3.61,4.88,4.43,7.29,2,5.48,2.48,14,2.86,21.94.37,8.26,1.35,17.51.83,23.29a11.6,11.6,0,0,1-1.13,4.21c-.68,1.28-1.65,2.33-1.65,3.31-.08,1.13,1.35,3.46,1.95,5.33,1.5,5.26,3.3,12.17,3.61,18,.52,8.94-.45,18.33-.83,27.27-.45,9.09-.38,18.41-.3,27.5.23,18.11-.37,36.21.83,54.17s1.43,36.29,1.43,54.4-2.25,35.76-2.25,53.34c0,9.24.23,18.19.83,27.2.6,8.57,1.88,17.2,1.95,25.84.15,8.94-.75,18-.52,27.2.52,26.67-.15,54.17-1.43,81.37-.45,9.92-1.13,16.08-1.13,26.67s-2.1,21.19-10.89,19.91c-4.36-.6-7.74-8.19-8.64-13.15-1.28-6.61-.83-14.73-.6-21.94.9-21.87.6-45.76.6-67.62,0-15.63-1.28-30.28-.6-45.46.68-14.5.6-29.6.6-44.63s-1.13-29.83-1.13-44.86c0-22,1.43-44.93.52-67.62-.23-7.21-1.43-14.35-1.65-21.34-.53-15.63,1.27-30.35.82-44.93-.53-16.68-4-30.8-3.9-48.84,0-2.7.15-5.64.3-8.42s1.05-5.56.82-7.81-2.1-4.21-2.55-6.46c-1.95-10.82-2.25-26.07-1.05-38.17.37-4.06,1.58-7.81,2-11.5.74-8.84-2.11-19.65,6.68-21.08Z" transform="translate(2.17)"/><path class="cls-3" d="M319.32,1816.69a74.73,74.73,0,0,1-15.15,2.26c-28.66.3-59.27.3-89.36-2.26-13.43-1.13-27.84-2.78-43.44-3.38-7.5-.3-14.26-.15-22.44-.83-7.42-.6-16.5-.6-17.11-6.15-.45-4.28,4.42-8.63,5-12.61-6.9-29.42-3.89-61.62-3.89-93.67,0-15.68-1.95-31.53-1.95-47.36,0-16.21-.3-32.16-.3-48.28,0-23.87-3.16-46.61-2-71.76,1.51-31.78,1-64.54,2.26-96.77.3-7.83,1.58-15.74,1.43-23.35-.23-6.4-2-14.08-2.25-21.91-.53-10.69-2.26-24.69,4.21-29.51-5.65-4.9,1.73-8.59,7.83-6.18,1.13-11.75-4.37-30.8,1.95-38.26,1-1.13,3-2,.6-2.56-2-.53-.38.45-1.43,2.56-2.71,5.58-7.15-.15-8.43-4.22-2.26-7.45-3.39-17.16.83-23.94-2.71.53-6.09-.08-7-2.49-3-8,12.2-14.38,16.86-16.63a188.23,188.23,0,0,1,52.32-15.74c9.8-1.5,21.23-.83,32.08-1.43,4.44-.23,10.69.68,16.25.9,16.49.68,30.64,2.18,42.46,6.7,8.28,3.24,17.17,4.59,24.47,8.43,7.6,4.07,14.23,7.83,20.24,12.65,17.76,1.81,16.41,25.16,8.43,37.73-1.35,2.1-4.59,4.59-5,6.17-.52,1.81-.23,5.43-.3,8.13-.15,5.35-.07,10.24-.3,16-.08,2.78-.68,5.72-.23,7.91.3,1.73,2.86,4.29,3.61,6.47,2.48,6.86,2.78,16.19,3.38,25.61,1.89,27.26,3.09,55,3.09,82.39,0,36.44-6.09,72-4.52,110,.83,18.75-.53,38.11-.53,57.16s-1,56.53-1,56.53.82,55.36.82,84.7c0,4.72-.15,9.53,0,14.26.6,11.94,1.28,23.87-7.8,27.47-6.35,2.55-9.94-1-13.7-4.73Zm-91.49-547.11h0c-1,.3-.6,3.16-.3,3.91,13-1.13,28-.07,41.31-.83-13.52-1.27-26.89-2.55-41-3.08ZM208.75,1281h2c.15-1.12-1.88-.45-2,0Zm-65.94,4.81h0a6.59,6.59,0,0,0,2.86,2.86c.23-1.73,1.65-2.33,2-4-1.58-.68-3.08,1-4.81,1.12ZM155.5,1317h0c1.58,12.7-1,25.85-1.43,38.39,41.53,1.2,84.27,1.28,124.31,3.38,13.59.75,26.89,2,40.11,2-.75-13.53-3.23-28-1.13-41.77-5.56-2.7-12.24-2-18.85-2-47.24,0-95.24.3-143-.83-.38,0-.38.76,0,.83Zm139.1,52h0c-2.25,2.63-8.34,1.43-12.92,1.73.07,1,1.2,1,1.13,2.25,12.09-1.35,27.87-1.35,39.28.53.3-1,1-2.63.3-3.61-6.83.9-15.47,2.33-22.46.53-1-.38-.23-1.43-1.13-1.43Zm-34,2.16h0c5.71-.83,12.47,2.25,15.7-.3-5,.15-12.09-.37-15.7.3Zm-100.41,8.64h0c3.08,0,4.88-1.2,6.76-2.48,3.38,1.73,7.89.45,12.62,0,16.3-1.65,34.4-2.85,51.6-2.85,4,0,12,.3,16-.23,1.58-.23-2.18-.3-3.68-.3-29.14,0-58.28-.37-84.72-2.78.44,2.93,1.11,5.64,1.42,8.64Zm89.52,3.08h0c1.8.9,6.91.3,7.29-.53-3.08-.74-6.09,1.14-7.29.53Zm46.74,15.18h0c-.38-.15-.75.3-1.13.3-7.36.45-15.77.08-24.41.3-30.64.68-67-2-92,3.91-1.35,3.61-.6,7.89-1.95,11.8-.53,1.35-2.25,2.4-2.55,3.61-.45,1.73.45,4.43.6,6.76.38,7.81-.07,14.2.53,21.34.38-2.18.45-6.09,2.78-5.33.6.53.6,1.65.6,2.78-1.13-.08-.53-.9-1.13.83-1.28,3.68-.83,10-.83,15.18v16c0,32.83,1.95,63.64,1.95,94.59,0,43.2.37,85.35-.6,126.83,42.29-.9,82,2.18,120.62,3.91.38-36.89,1.13-73.78,4.51-106.92,3.61-34.49,3.31-69.88,5.33-106.32,1-16.91,2.7-35,2.55-53.35-.15-10.59-.07-18.86-2.25-26.37-2.4-.83-3.75-2.78-4.51-5.33-5,5-6-3.47-8.1-4.52Zm-143.25,21h0c1.95-1.13,1.35-4.06,1.35-6.69,0-4.88.08-10.37-.52-14.05-.3,6.69-1.36,14.2-.83,20.74Zm19.6,75.51h0c-.37-6.09.83-13.6,0-18.26-.37,5.56-1.2,12.92,0,18.26ZM167,1505.28h0c.3,11.65,1.05,22.92,1.95,34-.15-11.8-.9-23-1.43-34.49,0-.23-.23-.38-.52-.3v.83Zm-7.29,18.48h0c.38,13.67.45,30,1.65,43.8,2.63-2.63,1.35-7.51,1.13-12-.45-11,.07-22.84-1.43-32-.68-.14-.6.53-1.35.23Zm-7.89,95.42h0c-.15,3.31-1,7.44-.53,9.55.3,1.5,2.18,2.4,2.78,4.21s-.07,3,.83,4.51c-.08-28.4.15-58.83-1.13-85.28.38,21.63-1,46.35-2,67Zm18.25,47.71h0c0,1.8-.15,4.13,2,4-.15-10.29.37-23-.3-31.71.38,9.17-1.87,19.32-1.65,27.73ZM180.14,1707h0c-.9.08-1.2-.45-2.25-.23-.23,1,2.1.68,2.25.23ZM147,1717.68h0c2.55.07.83-3.08.3-4.21.23,1.73-.45,2.56-.3,4.21Zm30.35,3.16h0c.9,0,1.65,0,1.95-.6-.6.22-2.18-.53-1.95.6Zm-11.49,70.4h0c2.85-.15,5.78-.15,8.11-.82-2.48.29-8.11-3.24-8.11.82Z" transform="translate(2.17)"/><path class="cls-4" d="M473.13,1228.63c-.38-1.65-2.33-1.73-3.08-3.08-.68,0-1,.45-1.35.83-.37-3.91,5.34-1.58,4.43,2.25Z" transform="translate(2.17)"/><path class="cls-4" d="M384.21,1423.68c-5.41-.38-9.91,3.08-14.27,2,1.05-1.8,4.36-1.8,7-2.26,2.4-.44,5.93-1.94,7.29.31Z" transform="translate(2.17)"/><path class="cls-4" d="M381.13,1434.88c4.13,29.23,5,66.87,4.81,98.2-1.73-1.2-1.05-3.68-1.13-5.33-1.73-29.83-1.58-63-3.68-92.87Z" transform="translate(2.17)"/><path class="cls-4" d="M372.72,1534.2c-2.86-6.39-1.58-14.2-2-21.86s-.3-15.63-.3-23.59c0-17.43-.38-36.52.6-51.32a1.25,1.25,0,0,1,1.43-.9c.52,30.43,1,66.64.22,97.67Z" transform="translate(2.17)"/><path class="cls-4" d="M376.09,1436.83c1.35,1.05,1.05,3.31,1.13,4.81,1.2,22.69,1.43,48.31,1.43,73.18,0,3.53.9,7.59-1.13,10.44-1.95-.75-1.13-3.23-1.13-4.51-.3-26.75-1-55.9-1.13-83.1a1.38,1.38,0,0,0,.3-.83Z" transform="translate(2.17)"/><path class="cls-5" d="M172.25,1212.48c-1.13,1.28-1.58,2.93-3.08,3.38-4.21,1.13-9.61-4.73-12.62-7.29-7.58-6.54-14.27-12.1-20.73-19.08-4.21-4.51-7.51-8.19-10.14-13.22-1.2-2.4-4.43-3.53-2-5.64,11.42,4,20.43,13.52,28.31,21.64,3.46,3.46,6.91,6.69,10.44,9.84s7.74,6.09,9.77,10.37Z" transform="translate(2.17)"/><path class="cls-5" d="M25.87,1296.63a1.38,1.38,0,0,0,.83.3c1.95,16.91.75,40.12,1.13,58.68-.07,1.2.68-.3,1.35,0a2.59,2.59,0,0,1-2.18,2.48c-1.05-.75-1.28-2.18-1.43-3.31-.9-6.91.07-14.73-.3-22.24-.53-12-.38-24.19-.3-35.31.22-.22.82-.15.9-.6Z" transform="translate(2.17)"/><path class="cls-5" d="M31.72,1362.9c-.75-10-.83-21.41-.83-32.53s.08-22.62,2-31.71c.08-.38.53-.23.53-.6.53-.08.53.3.9.3-.08,18.63-.53,38.32-1.43,57.78-.06,2.25.24,5.26-1.12,6.76Z" transform="translate(2.17)"/><path class="cls-5" d="M38.18,1302c1.88,18.56,1.8,42.3,1.65,61.23-3-3.16-2.25-8.42-2.48-13.22s-.38-10.07-.6-15.18c-.45-11-1-23.37.3-31.93-.07-.75.38-1,1.13-.9Z" transform="translate(2.17)"/><path class="cls-5" d="M226.1,1325c-1,1.58-4.2,1-6.68,1.13-.75,1.35-.07,3.76,0,5.33.9.38,4.88-.83,5,1-1.2.68-3.16.6-5,.6-.68,3-.15,7.21-.3,10.67,1.88.53,7.88-1.35,8.11,1.65-2.85,1-8.64.45-10.89,1.13-1-6.76-2.25-16.6,0-22.69,2.1.46,7.66-.3,9.76,1.13Z" transform="translate(2.17)"/><path class="cls-5" d="M182.39,1325.26c-.9,2.63-4.73.6-7.59,1.13.23,6.24.9,14-.82,19.08a12.17,12.17,0,0,1-3.08-.53c-1.58-4,.53-10,0-14.58-.23-1.65-1.8-2.78-.9-4.21-1.65-.75-5.11.22-6.16-1.13-.07-.45.3-.53.3-.9,5.26.16,14-1,18.25,1.14Z" transform="translate(2.17)"/><path class="cls-5" d="M197.79,1325.26c-1.65,2-5.41.45-8.94.9-.68,1.13-.15,3.46-.3,5,1.2.3,4.73-1,6.16.3-.68,1.58-3.23,1.35-5.63,1.35a39,39,0,0,0,0,9.84c3.75.68,8.94-2,10.44.83-1.65,2.18-7.13.6-10.14,1.43-.52.6-.45,2-1.43,2.25-1.5-.37-1.88-1.8-3.08-2.55.83-6.39-.6-13.67.3-20.21,2.85-.38,9.69-.45,12.62.83Z" transform="translate(2.17)"/><path class="cls-5" d="M203.72,1323.9c2.63,5-.23,13.9,1.13,20.21,2.7,1.65,7.59-1.5,8.94,1.35-3.76.53-9.91,1.88-12.62,0a128.23,128.23,0,0,1,0-20.74c.15-1,1.35-.89,2.55-.82Z" transform="translate(2.17)"/><path class="cls-5" d="M233.16,1337.05c-.6,3.61,1.35,9.84-3.08,9.54-1.28-6.23.22-14.5-.3-21.86a1.47,1.47,0,0,0,.83-.83c2.78,1.28,5.78,0,8.41.83,3.76,1.2,4.43,7.06,2.55,10.07-1.35,2.1-4.58,2.18-8.41,2.25Zm0-1.35h0c5,.15,7.51-3.61,5.33-8.19a17.82,17.82,0,0,0-4.81-1.35c-.82,2.48-.44,6.23-.52,9.54Z" transform="translate(2.17)"/><path class="cls-5" d="M247.44,1324.43a32.3,32.3,0,0,1,.9,9.24c1.28.75,3.75.38,5.26.9,1.43-3.68-2.1-10.52,3.38-9.84,2.25,4.73-.07,11.8,0,17.36.07,2,1,4.21-.83,5.33-4.43-.15-2.33-7.21-2.55-10.89-1.35-.53-3.38-.3-5-.6-1.2,3.68,1.73,11.5-3.38,11.27-1.35-5.86-1.13-16.23-.23-22.46a2.24,2.24,0,0,1,2.48-.31Z" transform="translate(2.17)"/><path class="cls-5" d="M268.24,1325c14.27-3.31,14.57,22.69,3.08,23.52-3.08.23-7.29-1.43-8.71-3.08-3.08-3.38-2.7-12.85-.3-16.53a10,10,0,0,1,5.93-3.91Zm3.6,20.74h0c6.08-1,6.84-13.37,2-16.83-1.8,0-3.53-1.73-5-1.13-7.13,2.63-4.8,19.24,3.08,18Z" transform="translate(2.17)"/><path class="cls-5" d="M314.06,1325.86c-.45,2.48-4.81,1-7.06,1.65v5c1.13.75,3.83-.23,4.21,1.13-.3,1.5-2.18,1.35-3.91,1.43-.6,3.08-.15,7.14-.3,10.67,1.65,1,5,.23,6.46,1.43-.38,1.43-2.55,1.13-4.21,1.35-2.63.38-5.48,1.5-7.81,0-.52-6.76,1.2-16,0-22.69,2.18-1.73,9.54-1,12.62,0Z" transform="translate(2.17)"/><path class="cls-5" d="M297.08,1325.56c1.28,4.81.07,11.42.3,16.83.15,2.4,1.05,5-.83,6.46-2.85-.68-4.2-4.06-5.33-6.46-1.28-2.63-2.4-5.41-3.68-7.81-1.5,4.06,3.16,20.36-4.43,13.45a107,107,0,0,1-.3-22.47c1.35-.75,2.18.38,3.38.6,1.88,5.86,5.78,9.69,7.58,15.7,1.21-3.3-3-19.16,3.31-16.3Z" transform="translate(2.17)"/><path class="cls-5" d="M126.42,1339.31c-6.68-1.58-11.72-4.73-17.42-7.29v-.83a1.38,1.38,0,0,1,.83-.3c6.37,2,12.3,4.36,16.59,8.42Z" transform="translate(2.17)"/><path class="cls-5" d="M108.56,1338c1.58,18.63-.9,38.69-1.65,56.73-.08,2.1.9,6.46-1.13,7.59-2.25-4.43-1.65-10.22-1.43-15.48.75-15.48,1.65-32.91,2.85-47.94a1.6,1.6,0,0,1,.83-.9Z" transform="translate(2.17)"/><path class="cls-5" d="M113.67,1392.94c-2.63-1.43-2.25-6.31-2.55-9.84-1.05-13-2.55-28.25-1.13-41.55.08-.6.23-2,.83-2.25.08-.23,1-.83.9-.3h.52c1.65,17,.08,37.26,1.43,53.94Z" transform="translate(2.17)"/><path class="cls-5" d="M346.2,1341c2.55,1.8,2.18,9.24,1.95,12-2.33-2.18-3.6-8.26-2.48-12Z" transform="translate(2.17)"/><path class="cls-5" d="M353.19,1341.86c1.43,2.85,0,7.36.3,10.9.38.52,1.13-.68,1.95,0,.83,3.16,1.65,8.64.6,11.79-1.88-1-1.65-3.91-2-6.46-.75.3.07,2-.6,2.25-1.88-1.2-2.7-7.21-3.08-11.5-.23-2.7.38-5.71,1.73-7Z" transform="translate(2.17)"/><path class="cls-5" d="M123.73,1399.94c-4.73-.3-7.81-2.25-10.89-4.21-.3-.9.38-.9.53-1.43,3.75,1.58,8,2.71,10.36,5.64Z" transform="translate(2.17)"/><path class="cls-5" d="M356,1399.34c.23,0,.23.15.3.3,3.16,60,1.05,124,.66,186.93v165c.16,4.43.31,11.27.39,17.43.08.68,1.2,4-1.05,4.21-2.78.15-1.43-7.21-1.34-9.84V1586.79c-.39-62.89-2.19-126.15.44-186.56.3-.22.22-.82.6-.89Z" transform="translate(2.17)"/><path class="cls-5" d="M109.16,1401c.53,15.7.45,33.21-1.13,47.71-2.48-2.63-1.43-7.21-1.43-11,0-11.72.15-25.4,1.13-35.91.15-.38.53-.45.6-.83Z" transform="translate(2.17)"/><path class="cls-5" d="M33.38,1443h.9c.23,15,.9,31,1.65,44.63-4.06-11.27-4.06-30.58-2.55-44.63Z" transform="translate(2.17)"/><path class="cls-5" d="M125.16,1454.41c-4.58,0-10.21-1-12.62-4-.08-.45.22-.45.3-.83,3.91.6,9.24,2.26,12.32,4.81Z" transform="translate(2.17)"/><path class="cls-5" d="M110.59,1454c1.5,1.65.83,4.43.83,6.46,0,15.55-.23,33.89-.6,48.84-3.3-2.18-2.63-7.66-2.78-12.1-.37-13.9.08-30.5,1.65-42.3a.85.85,0,0,1,.6-.9Z" transform="translate(2.17)"/><path class="cls-5" d="M113.89,1454.77c.3-.08.3.08.3.23h.6c1.58,13.3,0,31.41-.3,45.23,0,1.43.75,4.06-1.13,4.73a341.55,341.55,0,0,1,0-49.66c.08-.31.53-.16.53-.53Z" transform="translate(2.17)"/><path class="cls-5" d="M127.11,1507.68c-2.25,1.28-6.38-.07-9.24-.3-1.28-.07-2.63.9-3.08-.53-.07-.75.08-1.2.83-1.13a19.62,19.62,0,0,1,11.49,2Z" transform="translate(2.17)"/><path class="cls-5" d="M109.46,1517.22c.23-.08.23.15.23.3.07,14.2,1.28,30.13,0,43.8-2.25-2-1.8-6-2-9.54-.37-10.22-.3-25.32,1.13-33.73.14-.37.52-.45.59-.83Z" transform="translate(2.17)"/><path class="cls-5" d="M126.81,1559.6c-2.25,1.35-5.78.15-8.94,0-2.18-.08-4.88.68-6.16-.83-.08-.83-.08-1.5.83-1.43,4.58-.22,10.67.53,14.27,2.26Z" transform="translate(2.17)"/><path class="cls-5" d="M128.54,1653.89c-5,2.18-12.47,3.46-17.95,4.21,1.28-2.48,5.33-2.48,8.41-3.08s6.61-1.5,9.54-1.13Z" transform="translate(2.17)"/><path class="cls-5" d="M42.09,1739.25c.45-.08.53.23.83.23,1.35,4.66.3,11.64-1.05,15.48-1.51-3.84-.38-11.36.22-15.71Z" transform="translate(2.17)"/><path class="cls-5" d="M175.11,1744.81c-.9,12.32.38,28.25-.9,43,0,.3.3,4.13-2.18,3.08-1.28-.53-.83-1.88-.9-4.21,0-10.52-1.2-22.77-1.65-32-.23-4.13-.23-10.52.82-12.62.9-2.1,3,0,4.81.3,4.58.75,9.76,0,14.87.23,15.1.75,28.84.15,44.61.9,20,.9,42.29,1.65,58.28,1.65,1.58,0,7.06-1.73,7.06,1.13,0,2.55-4.06,1.28-5.93,1.13-8.11-.68-15.92-.6-23.81-.6-31.47,0-64.74-1.06-95.08-2Z" transform="translate(2.17)"/><path class="cls-5" d="M301.89,1746c1,15.33-1.2,29.9-.6,45.76-1.05.9-2.18.82-3.9.6,1.35-.6,1.35-2.93,1.43-4.21.9-13.37.07-28.63,1.95-41.25-.08-.45.3-.53.3-.9Z" transform="translate(2.17)"/><path class="cls-5" d="M294,1758c1.28,1.13.9,4.73.9,7.81,0,6.46.08,13.07-.9,18.86-1.2-2.48-1.13-6.23-1.13-9.31,0-5.34.6-11,.3-16.53a1.37,1.37,0,0,0,.3-.82Z" transform="translate(2.17)"/><path class="cls-5" d="M39.84,1760c.15,1.35-1.58,1.28-2.48,1.65-9.21,4.13-19.46,7.4-29.92,10.46h0l-1.4.4-.07,0-.17,0h0l-.36.1c-1.79.53-3.6,1-5.4,1.55v-1.9c1.93-.67,3.86-1.3,5.81-1.94h0l1.89-.62h0c2.23-.71,4.48-1.42,6.72-2.11l.4-.13h0C23.15,1765,31.52,1762.49,39.84,1760Z" transform="translate(2.17)"/><path class="cls-5" d="M300.23,1797.55c-3.23,1.73-7.29.75-11,.6-21-1-45.07-.3-68.2-1.43-15.4-.68-30.65-.68-45.74-1.35-1.13-.08-4.51.75-4.21-2,40-.45,82.84.75,122.65,2.56,1.89.07,5.2-.46,6.47,1.65Z" transform="translate(2.17)"/><path class="cls-5" d="M.54,1801.22v.45c0,.42,0,.84,0,1.27v-3C.52,1800.34.54,1800.77.54,1801.22Z" transform="translate(2.17)"/><path class="cls-5" d="M450.53,1799.81a.84.84,0,0,1,.6.9c-11.42,10.07-21.41,21.56-33.35,31.11,9.91-11.66,21.25-21.87,32.75-32Z" transform="translate(2.17)"/><path class="cls-5" d="M425.06,1800.4c-2.4,3.31-6,5.79-9.31,8.42-9.84,7.89-20.05,16.61-30.57,24.12-.3-.83.9-1.73,1.43-2.26,11.49-10.66,26.36-20,38.45-30.28Z" transform="translate(2.17)"/><path class="cls-5" d="M412.45,1803.19c.45-.07.52.23.52.6-14.57,11-28.46,22.77-44,32.83,2.33-3.46,6-6.31,9.54-9s7.21-5.41,10.89-8.11c7.59-5.64,15.47-11.42,23.06-16.3Z" transform="translate(2.17)"/><path class="cls-5" d="M104.35,1859.61c-1.2,3.53-5,4.58-6.68,7.59,11.79.53,26.21-.6,39.51,0,12.84.6,27-.75,33.95,6.16-2.4,4.66-9.09,4.81-15.1,5-19.08.75-39.73.68-59,.3-19.68-.38-36.88-2-56.93-2.78-3.15-.15-16.3.15-16.3-3.68,0-3.45,10.82-3,16.3-3.08,15.7-.15,30.34-1,46.27-1.43,3.23-.07,6.91.38,9.31-.3,3.9-1.05,4.73-6.38,8.63-7.81Z" transform="translate(2.17)"/><path class="cls-5" d="M413.5,1863.52c-2.18-.45-3.61-.07-5.56-.3-13.82-1-27.94-2.63-43.19-3.31-1.28.75-3.08,1-4.51,1.65,16.91.53,33.58,1.51,49.95,2.26C411.32,1863.9,416.12,1864.05,413.5,1863.52Zm-37.26-65.67c-.93.67-1.9,1.37-2.92,2.09l.06,3c2.61-.64,1.38-3.65,3.2-4.39A3.24,3.24,0,0,0,376.24,1797.85Zm-31.48-510q-3.45-3.12-7.36-6h0c-14.47-10.76-33.5-19.15-55.05-24l-.1,0h0l-.08,0a189.94,189.94,0,0,0-27.71-4.13h-.09q-4.6-.35-9.29-.48H245c-2.69-.07-5.38-.09-8.1-.06h0c-2.16,0-4.34.09-6.52.19-18.85.89-36.52,3-51.83,7.2,0,.79,0,1.6-.06,2.37a275.21,275.21,0,0,1,49.65-6.76c17.8-.83,36.58,1.65,51.9,5,17.89,4,34.3,9.46,48.39,17.08h0q3.12,1.68,6.07,3.5a105.75,105.75,0,0,1,9.65,6.68c.52.4,1,.8,1.55,1.22l1,.85a5,5,0,0,1,.11-.66C346.14,1289.07,345.46,1288.43,344.76,1287.8ZM101.69,1861.52c-3.06-.25-6-.51-8.84-.85-1.35.45-.6-1.28-1.73-1.13-2.1,1.8-6.39-.15-9.54,0,1.8-2.25,4.65-3.46,5.93-6.16-3.9.15-5.4,5-9,5.86-3.83.9-9.53.07-14,.3-4.73.22-9.38.52-13.74.3-16.39-1-33.82-1.54-50.72-2.2v4.75c4.19.12,8.4.24,12.56.24,21.26,0,41.69,1.2,59.79,2.55.38.76-2.35,2.12-2.3,3.11a.66.66,0,0,0,.35.5,3.31,3.31,0,0,0,1.09-.56c1.29-1,2-2.69,3.94-3,2.71-.6,6.16,1,9.84.3a15,15,0,0,1-1.77,2.33c-1.65,1.84-3.56,3.46-4.69,5.78,2.63-.95,3.92-3.73,5.66-5.81a6.4,6.4,0,0,1,3.28-2.3c2.55-.76,6.91.07,10.14.22l.5,0,.38,0,.53-.53c.73-.69,1.55-1.31,2.31-2,.19-.15.37-.32.55-.48l.55-.55a6.8,6.8,0,0,0,.5-.57Zm25.55,5.5h-.44c-1.38,0-2.76,0-4.14,0l-4.57.08c3.26.22,6.37.34,9.24.26Zm314,4.85c-2.47-.38-5.18-.53-7.58-.83-14.87-1.65-30.34-3.45-45.21-4.73-20.28-1.72-40-5-59.71-6.76,5.7-.68,14.27,1,16.82-2.48-2.78-2.1-8.49-1.28-12.62-2,6-1.2,14.94.38,20.2-1.65.53-2.1,1.13-3.68.83-5.86.83.6,2.18.08,3.08,0,11-8.71,23-17.65,33.95-26.14a41.83,41.83,0,0,0,5.63-4.51c.44-.46.93-1,1.4-1.54a31.39,31.39,0,0,0,2.94-4h0l-.18-.18a4.82,4.82,0,0,0-5-.41c.22-1.65-1.2-1.88-2-2-3.23-.15-7.73,7-10.66,6.76-.68-4.36.22-10.29-.83-14.35-2.55.07-2.7-3.31-5.33-2.78a2.2,2.2,0,0,0-.41.12c.76,1.91.36,5,.49,7.51-2,.08-3.08-2-4.81-2.25a7,7,0,0,0-4,.89c-3.05,1.51-6.21,4.5-8.58,6.1l-3.66,2.49c-2.93,2-5.43,3.75-7.53,5.1-.9-3.53,3.45-4.59,5.63-5.94l.56-.35c2.18-1.34,4.58-2.84,6.73-4.08,2.32-1.45,4.74-3.06,7.11-4.67,1.66-1.14,3.29-2.28,4.84-3.38-.43-21.75-1.05-55.11-1.53-82.06v-.26h0c-.45-24.6-.79-43.77-.79-43.77v-.08l.91-21.89h0l.09-2.13v-.06s-.45-45.86-.57-68.78c.45.07.83-.3,1.13-1.13-.38-4.59.6-8,1.65-11.5.68-2.18,2.41-5.34,1.13-5.64-2.85-.45-2.55,4.81-3.9,6.46a40.27,40.27,0,0,1,.56-5v-.1s-.15-4.66-.32-10.91v-.4c-.22-7.79-.49-17.91-.56-24.49h0q-.11-9.29-.21-18.61c-.08-7.12-.26-17.34-.45-26.59v0c-.23-11.91-.46-22.2-.46-22.2v-.9s.31-16.85.31-25.2c0-2.71.59-8.08.68-8.86a.82.82,0,0,0,0-.1v-.57l0-.48-.89-14.71v-.07l-.08-1.16v-.12c-.14-4.31-.36-8.48-.74-12.4-.08-1.5-.53-3.22.3-4.5-5.21-3.72-3-11.07-2.27-18.59,0-.06,0-.13,0-.19a.76.76,0,0,0,0-.15v0c.44-4.44.53-8.65,1.12-11.92,2.55-.75,2.47,2.26,4.2,1.43-1-2.18.53-2.71.83-4.81.38-2.32-.29-5.33-.52-8.41-.68-10-.83-17.28-3.38-25.54-3.15-10.51-6-18.1-13.43-22.46-.15-.75-.45-1.42-.6-2.25a91.9,91.9,0,0,0-9-8.52,10.15,10.15,0,0,0,0,1.74h0a3,3,0,0,1-.4,2.14,2.6,2.6,0,0,1-1.51.77c0-2.78-.82-4.81-1.35-7-.45-1-2.63-.22-3.38-.9a157.74,157.74,0,0,0-46-22.15c-17.48-5-37.45-8.94-58.86-8.94-27.92,0-52.36,5.63-72.63,14.93l-.1,0a133,133,0,0,0-28.81,17.75h0l-.42.34-.35.28c0-.11,0-.21,0-.31s0-.27,0-.39c-.21-1.57-1.34-1.21-2.5-.87l-.53.16c-.9.24-1.72.28-2-.84-.11-.39.14-.92.63-1.55l.26-.32c2.49-2.82,9.14-7.14,10.67-8.2a66.29,66.29,0,0,1,14.27-7.88c1.2-.37,2-.52,2.55-.22a27.79,27.79,0,0,1,6.73-3.61l.1,0c3.45-1.39,7.38-2.54,11.11-3.64,1.48-.45,3-.89,4.5-1.29a18,18,0,0,1,.14-2.38c0-.12,0-.23.06-.35a3.77,3.77,0,0,1,.87-2c-1.51-3.75-.83-9.75-.83-15.69,0-6.24-1.5-15.48,3.08-16.83,2.1-.61,4.2.45,6.15-.53,1-.51,1.12-2.09,2.25-3.37,1.21-1.43,3.16-2.33,3.91-3.38a9.67,9.67,0,0,0,2-5c0-5.11-6.31-8.94-6.16-1.73q-10.71-11-21.33-22.1l-.09-.1q-20.25-21.15-40.28-42.55l-.5-.54c-40.43-43.08-80.56-86.46-122-128-1.75-1.75-3.28-4.06-5.59-5.19v14.82c5.25,6.08,10.6,12,16,17.74,11.28,12.13,22.7,23.77,33.63,35.65,11.42,12.33,22.61,24.87,34.25,36.52,12,12,24.64,22.93,36.21,34.2-2.48,1.13-4.2-.75-5.63-2.18-4.28-4.35-8.19-8.86-12.32-12.93-29-29-57.79-58.63-86.53-87.62q-7-7-13.91-14L0,1031.15v4.52c4.82,5.32,9.79,10.51,14.83,15.66l.24.25c32,32.69,63.39,66.41,94.64,98.87-7.44-.38-14.2-1.43-19.09-4.21,2.18.83,5.57,2,7.31.19,2.63-2.56-1.73-8.12-3.08-10.07a50.46,50.46,0,0,0-6.77-8.12c-15.39-15.4-30.19-30-44.61-44.93-9.7-10.08-19-19.34-28.77-28.18h0c-4.77-4.34-9.64-8.58-14.69-12.76v19.39c4.29,4,8.53,8,12.68,12,5.33,5.16,10.5,10.32,15.39,15.67,9.17,10,18.78,18.78,28,28.1s20.21,16.91,29.52,26.91c-.3,0-.38-.22-.6-.3-3.76-1.43-10.52-2.48-11,1.73-.45,4.66,5.86,4.74,8.71,7-4.28-.15-7.14,2.63-9.24,3.68-.53-5.1,1-12.32-.83-16-2.33,2.86-.6,9.69-1.73,13.75a4.49,4.49,0,0,1-3-3.1c-.82,1.5-3.18,4.18-3.39,5.85a76.86,76.86,0,0,1,.17-9.26c-.92-.85-1.83-1.72-2.74-2.59v16.15c-4.19.37-4,5.14-5,8.79-.19,3.77-.32,7.49-.36,11.14s.15,7.59-1.13,10.9c-1.5-1.43-.23-3.76,0-5.86a53.12,53.12,0,0,0-.6-14c-.3-2.18,0-5-1.65-6.16-1.65,1.87-.67,5-.52,7.81a110.71,110.71,0,0,1-.3,12.59,4.63,4.63,0,0,1,.3.4q-1.92,7.89-3.61,16c-.25-2.28-.33-4.74-.37-7.24-.5,2.5.11,5.84.3,8.61.6,8.41.22,15-3.08,19.91a5.65,5.65,0,0,1-.82,1c-1,4.46-1.38,8.5,3.07,9.77-2.24.51-5.68-3.1-8.33-4.37-.45,2,.12,5.07-.08,6.87-12.94-9.18-26-18.16-39.35-26.85v2.1l-2.14-1.45.21-1.9-.47-.3-.24,2.17v0L0,1212.71c10.61,7.2,21.36,14.33,32.26,21.59,2.33,1.58,7.36,4.51,7.89,6.24,1.2,3.83,0,9.69,0,13.75,0,4.51-.75,8.65,0,13.16.07,1.51,1.88,0,2,1.13.23,6.23.53,13.37.83,19.38.08,1.72-.3,4.43,1.43,5.33,2.18-2.86.91-7.29.83-11-.38-11.72-.68-23.67-1.43-35.32-1.28-1-1.73-2.86-1.43-5.34,2.41,2,5.86,2.93,8.19,5-.41,5.39-.65,10.93-.81,16.6,0,.17.1.3.28.3.3,4.66.45,11.42-.3,14.88-.06-4,.1-8.2,0-12.13-.28,13.22-.1,27-.25,40.69-4.9-2.41-10-4.8-15.12-7.15h0c-.5-.24-1-.47-1.51-.69h0C22.05,1294.33,11,1289.6,0,1285.06v3.65l24.76,11,.19.08,2.12,1c.14,0,.27.12.41.18q2.18.93,4.33,1.92l.3.13,1.87.83.25.11,2.32,1,.22.1,1.42.64.34.15c3.53,1.57,7,3.15,10.47,4.73-.14,23.64.46,46.45.23,70.16-.79-.35-1.59-.7-2.38-1,.38,20,.51,40.14.51,60.36-.22.38-3.36-1.78-5.29-1.64-.59-19.44-.49-39.62-2-58.22-.41,7.16-.78,15-1.07,22.9v0c.6,9.76,1.8,24.5.82,35a1.6,1.6,0,0,1-1.25-.23,26.42,26.42,0,0,1-1,8.28c-1.09-.13-2.19-.27-3.28-.42l-.26,0c-.31,0-.63-.07-.94-.12l-.26,0Q16.19,1443.4,0,1440.77v2.77c11,2,22,4,32.7,6.35l.1,0,1.45.33.18,0c1.18.26,2.35.53,3.52.81.68.68,0,2.71,1.42,2.56.52-.44.73-1.21,1.15-1.77.08-1.57.16-3.12.25-4.64,0-.3,0-.6,0-.9.37,0,.52.07.59.3-.06,1.51-.09,3.06-.12,4.65a2.75,2.75,0,0,1,1.78.11c-1.61,14.64-1.89,30.7-2.37,46.49,1.09,1-.55,4.83,1.22,5.19,1.19-.38-.45-3.68.6-4.81,1.86,0,3.21.53,5.3.3.6,18.56.08,38.24.23,57.25-1.56-.45-3.66-.38-5.3-.83.52-15.63.59-33.06-1.05-47.41-.82,12.85.45,28.7.53,42.9,0,1.28.67,3.61-.83,4.51-.91-16.09-1.63-36.9-2.65-52.2-.8-.12-1.61-.22-2.47-.27.08,1.33.17,2.67.25,4l.13.15-.12.06c.88,14.87,1.3,30.87,1.5,45.46-1.7-14-1.11-30.28-2.07-45-.64.81-.62,2.12-.74,3.06-.81,8.26.23,17.65.53,26.37.24,4.88.31,9.72.45,14.41.3.24.15,2.56.42,3.31a.57.57,0,0,1-.31-.1c.11,3,.28,5.92.56,8.75l-3-.09c0,1.08.1,2.25,0,3.23a6.18,6.18,0,0,0-1,0,.69.69,0,0,1,0,.13.56.56,0,0,1,0-.12.24.24,0,0,0-.17.19,19.82,19.82,0,0,1-.34-3.52l-2-.07a198.4,198.4,0,0,1,1,30.61c-.08,1.8-.53-3.23-.53-4.21-.44-9.3-.3-18.16-1.39-26.43-9.71-.34-19.6-.82-29.36-1.22v2.79c9.68.49,19.25,1,28.25,1.82.67,16.83,0,34.27,0,51.32,1.79-1.88.29-6.91,1.34-9.54a99.69,99.69,0,0,0,1.12,11c-9.94.34-20.33.89-30.71,1.38v3c10.76-.48,21.36-1.21,31.31-1.55.22,2.1-.68,5.33,1.34,5.63,1.21-1.12.23-4.5,1.13-5.93,2.54.23,6.13-.67,6.73,1.43.52-3.23,8.45.83,9.79-2.25-.6-1.65-3.51-1-4.49-2.25.3-7.67,1.27-15.55,1.94-23.82.6-7.36,2.77-16.91,1.64-24.42-.15-1.43-1.27-2.78-.82-3.38,2.91-.9,2.24,2.4,2.24,3.68,1.12,30.43-.6,62.81-.3,92A450.32,450.32,0,0,0,0,1669.25V1676c17.66-1.52,34.5-3.42,50.5-6.3a20.13,20.13,0,0,1,5.6,6.69c-17.85,3.53-37.45,6.14-56.1,9.38v5.2c22.71-3.28,45.14-5.79,66.19-10.89,1.73,1.73,3.82,4.51,4.41,6.46-4,.37-7.92,1.57-12,2.25-19.83,3.36-39.09,8-58.64,12v20.88c15.85-3.12,31.71-6.33,47.21-9.57.68.45.3,2.1,1.13,2.48.75-.6.07-2.63,1-3.08,6-1.2,11.52-2.86,17.95-3.61-.22,1.88.3,4.43-.3,5.86-22.67,4.1-45.8,9.54-67,15.37v2.21c8.29-2.11,16.62-4.19,25.16-6.08-1,4.06-.6,9-.3,13.75.15,3.23.15,6.91,2.24,8.19-1-6.61-.22-16.46-.9-22.47,14.29-2.4,27-6.38,41.12-9-.53,6.69-.22,14.28-.3,21.34-7.85,2.25-15.67,4.65-23.48,7.11l-.22.07-1.94.61-.16.05c-13.32,4.21-26.59,8.53-39.84,12.37l-1.38.39v1.59c2.3-.56,4.55-1,6.69-1.38-.15,3.71-1,8.37-.88,12.52,0,.14,0,.27,0,.41,0,.54,0,1.07.1,1.59a.51.51,0,0,0,0,.13c0,.12,0,.23,0,.34a.13.13,0,0,1,0,.06,13,13,0,0,0,.71,2.91,30.75,30.75,0,0,0,.68-3.31c0-.14,0-.29.07-.43a.09.09,0,0,0,0,0c0-.18.06-.36.08-.54.07-.43.12-.87.17-1.32,0-.14,0-.28,0-.42.45-4,.53-8.38.58-12.79,11-3.25,21.81-6.64,32.71-9.92l.17,0,2.1-.63.19-.06c6.42-1.92,12.88-3.8,19.43-5.59l1.24-.34,2.84-.77c.15,11.49.3,20.81,0,32.23-15.85,4.66-28.26,14.35-43,19.08-.3-3.76,1.71-11.19-1.13-13.15-2.24,2.71-1,10.67-.6,14.28-7,3.42-14.41,6.52-21.76,9.62l0,0v1.25c0,.24,0,.48,0,.72s0,.31,0,.46h0l0,0c22.39-9.29,44.5-18.85,66.5-28.57v13.75c-6.28,3.61-12.94,6.84-19.59,10.07-.3-4.14,2.61-11.73-.52-14-3.52,2.11-1.94,12.63-.6,14.88C31,1808.36,15.46,1816.48,0,1824.77V1832l.32,0-.32.17v2.26a31.62,31.62,0,0,1,17.89-3.26c-1.94,1.36-4.19,2.71-6.72,4.21-2,1.28-4.56,3.53-6.65,4a15.15,15.15,0,0,1-4.52.06v11.3a10.29,10.29,0,0,1,3.61.89c19.14-1,40,.9,60,.83-.3.9-3.14,2-1.94,2.55,2.15-.75,3.06-3.08,5.6-3.38,2.7-.3,6,1.51,9.49,1.13-.59,1.73-4.41,3-3.66,4.21,1.56-.6,3.14-3.38,5.6-3.91,1.28-.3,3.82.07,5.54,0,4.63-.22,13.37,0,20.4-.3,5.83-.22,17.27,1.43,17.86-2.55.91-5.71-10.23-5.64-14-6.69,34.46,2,68.77,4.59,103.31,7.29s71.31,1.73,106.37,4.51c-42.53.67-88.43-1.43-132-1.43-13.15,0-26.91-.68-38,.52-2.91.37-13.37-.45-12.86,3.38.37,2.78,12.63,3,16.44,3.38,42.68,4.51,86.86,5.86,130.44,8.42-29.38,0-60.17,1.43-89.1,1.43-8.09,0-16.21-.1-23.88.91l-1.1.15a16.23,16.23,0,0,0-2.72.17c1.66.24,3.34.45,5,.62,9.63,1,19.54.77,29.45.51,77.29-2.17,154.35,2.56,230.36,2.56,5.48,0,11.49.82,16.52-1.43C445.93,1872.17,443.15,1872.24,441.27,1871.87ZM42.69,1494.76c.08-9.61.08-19.23.53-29.15.3-6.68.9-14,.3-19.68-.15-1.58-1-1.88-1.13-3.31.83-.38,4.58.67,5-.9.75,17.66.52,36.14.6,54.47C47.27,1496.86,44.42,1494.91,42.69,1494.76Zm-7.06,114.5c-1.73-.15-2.63.52-4.43.3,2.63-9.69,2.4-22.31,3.08-34C35.26,1585.22,36.46,1597.39,35.63,1609.26Zm4-57.51c.45.52.38,1.5.53,2.25H39C39.39,1553.47,39.31,1552.42,39.61,1551.75Zm-1.13,57.16c-1.2-17.5,2-34.11.52-51.91h.83c1.65,1.12.15,3.83,0,5.33-1.27,15,1.51,32.53,1.73,46.88C40.36,1609.21,39.76,1608.68,38.48,1608.91Zm5-13.17c-1.05-11.57-1.28-25.7-1.13-36.74h.53c1.95.6,2.1,2.71,2.25,4.51C46.15,1573.73,43.59,1585.82,43.52,1595.74Zm7.28-232c-.67-3.9-.07-11.49-.3-16.83C51.48,1351,50.88,1358.24,50.8,1363.72ZM55.31,1238c1.27.68-.91,1.8-.83,3.08C53.73,1240.21,55,1238.85,55.31,1238Zm.3,5.56c-1.13-.23,0-1.13.23-1.65C56.51,1241.33,55.53,1243.06,55.61,1243.59Zm309.67,553.73c-.67,2.33-5.56,4.13-8.11,5.86-2.09,1.4-3.82,3-5.54,4.18a11.21,11.21,0,0,1-2.65,1.46c-.05-4.82-1-14.48-1-14.48v0l.74-5.54v-.09l.26-1.85v-.19s0-2.12-.05-6v0c-.27-33.93-1.58-202.59-1.61-293a5,5,0,0,1,.66-.1v-.06c-.34-2-.58-5-.75-7.49v-.27c-.17-2.39-.25-4.23-.25-4.23V1475c.23-10.45.62-28.35.84-38.43v-.06c.1-4.49.16-7.41.16-7.41h0s-1.35-33.89-2.1-50.51c-.22-4.88-.45-10.22-.82-14.28,6.68,6.47,13.67,14.2,19.9,20.14-1.2,83.48.15,172.06.6,257.94.23,46.95,0,94.44,0,142.3C365.58,1789.21,366.18,1794.17,365.28,1797.32Zm-9.54-464.78c-3.76-5.25-7.81-10.36-11.19-15.93,7.66,10.45,16.07,20.14,23,31.41C363,1343.36,359.49,1337.87,355.74,1332.54Zm-11.5-12c.22-.08.22.07.3.3,4.73,6.54,9.54,13.37,14.57,19.91,1.51,2,3.69,3.91,4.21,6.46-2.93-.75-3.83-4.13-5.33-6.16-4.5-6.46-10-12.54-14-19.68C344.32,1321.27,344.17,1320.82,344.24,1320.52Zm.76-16.14c0-1.51.1-3.05.07-4.67a6.36,6.36,0,0,1,1.67-1.27l.7-.36c.81-.38,1.66-.72,2.44-1.15a33.91,33.91,0,0,1,3.57,3.52c8.68,9.83,12.39,24.58,13.78,41.63-6.9-10.35-14.85-19.65-22.42-29.4l0,0a1.39,1.39,0,0,0-.77-1.37h0a27.41,27.41,0,0,0,1-6.78Zm-5.94,16.51c.46-.5.9-1,1.27-1.47l.33-.48c.17-.27.35-.55.51-.84l.09-.16.29-.52c.16-.26.29-.52.42-.78s.24-.45.35-.69l.05-.11c.14-.29.29-.57.42-.87s.27-.61.39-.93c0,0,.05-.11.07-.15,0,.74,0,1.48,0,2.23l.31-.6c.1-.2.19-.4.29-.61v.13c0,.76,0,1.53,0,2.3,0,.34,0,.69,0,1s0,.53,0,.8,0,.77,0,1.16a4.07,4.07,0,0,1,0,.5c0,.21,0,.42,0,.63s-.07.65-.12,1-.06.47-.1.71v0c-.06.36-.12.72-.19,1.08s-.16.84-.24,1.27c5.39,7.5,11.11,14.75,16.56,22.2.3,9.39.37,18.48.6,27.2-.9.68-1.43-.9-1.95-1.35-4.73-4.51-10.21-10.22-15.17-14.58-.82-9-.84-19.93-.83-29.53,0,.18-.07.37-.11.55-.06.39-.13.78-.19,1.18,0,0,0,.06,0,.1s0,.26-.06.4a.34.34,0,0,1,0,.1,1,1,0,0,1,0,.17c0,.34-.08.67-.11,1a159.8,159.8,0,0,0-.67,18.84c0,.61,0,1.22.05,1.82,0,.22,0,.45,0,.67,0,.46,0,.92.05,1.37l0,.54c0,.65.06,1.28.1,1.91,0,.23,0,.45,0,.67,0,.49.07,1,.1,1.47,0,.09,0,.19,0,.28l.78.09c0,1.46-.17,3.95-.25,5.3v0l-.05.92v0s0,10.63,1,16v0c-.05,1.38-.11,2.75-.16,4.14h0v.06c-1.81,50.26-1.74,101.59-1.34,153.4a0,0,0,0,0,0,0q0,6,.1,12v.07c.67,81.93,2,164.9,2,246.41,0,4.81.3,11.42-1,12.92a3.69,3.69,0,0,1-2.49,1h0c-2.63.21-6.22-.91-9-.48-.23-73.71-.53-148.24-.53-222,0-73.48.3-149.67-1.95-220.82-12.77-2.55-42.36-2.64-42.36-2.64H195.54s-15.24.84-22.68,1.22c-5.93.25-12.07-.59-17.55.8l-.62.17a16.16,16.16,0,0,0-2.64,1c-.42,1.95,1.29,1.72,2.43,2.08a1.75,1.75,0,0,1,.58.29,1,1,0,0,1,.37.71l-.44.2c-.23.11-.43.22-.62.33-1.37.83-1.77,1.83-2,4-.82,8.64.08,18-.3,26.9,0,.9-.07,1.79-.1,2.69-.14,4-.23,8-.3,12-.38,22,.17,44.71.35,66.73l1,107.74V1595q-.08,18.11,0,36.18c.2,60.16.89,119.83,1.88,178.42-6.16.23-11.41-.37-17.42-.3-.53-61.11-.57-123.34-.7-185.79,0-1.59,0-3.17,0-4.76-.17-86.22-.54-172.84-2.59-257.51,0-.13,0-.26,0-.38,0-1,0-2-.07-3,0-.45,0-.82.3-.91,7,0,14,.13,21.16.2h.62c39.18.47,119.7,1.84,119.7,1.84h.06l4.38-.13h.05c3.39-.09,8-.19,10.86-.19,9.11,0,18.2,0,27.15.25,6.23.19,12.39.52,18.46,1.11-.1-.15-.21-.3-.3-.45s-.16-.23-.23-.35-.2-.3-.28-.45a2.79,2.79,0,0,1-.19-.33c-.14-.25-.26-.5-.36-.73l-.11-.3c0-.12-.06-.22-.08-.33s-.06-.31-.08-.48,0-.32,0-.49a4.54,4.54,0,0,0-.16-1.06v-.13c.12-.06.12-.11.13-.17s0-.26,0-.39.45-.51.7-.67c0-.18,0-.36,0-.54a23.42,23.42,0,0,1-.87-4.62c0-6.54.46-13.75.23-20.44.06-.26.45-.23.57-.45H336a3.58,3.58,0,0,1-.14-.84c0-.26,0-.52.08-.76a3.56,3.56,0,0,0-.94-.18v-3c.43.07.79.07.86-.21.48.09.58.58.55,1.18.07-.08.13-.18.21-.27s.32-.38.49-.58a.52.52,0,0,1,.1-.11c.22-.25.46-.5.72-.76a4.64,4.64,0,0,1,.38-.39C338.55,1321.42,338.81,1321.16,339.06,1320.89Zm-.35,495.56c.25,0,.49.11.73.18l-.81,0h-.05c-6.25-.21-12.58-.42-19-.5,5.79-.29,13.9-.85,19.13.34ZM131.3,1795.91c-9.31-1.81-21.63-.6-29.44-3.91.08-1.28.53-2,.53-3.38,2.93-.23,6.39.22,8.19-1.13-1.35-3.08-5.48-1-8.41-2-2.11-.68-2.26-3.23-4.21-3.38,8.56-1.13,18.7,1,26.89-.53-6.38-1.88-15.54-.9-23.28-1.43,2.78-1,7.21-.46,10.14-1.43-1.5-.83-3.9-.76-6.23-.83,1.5-2,4.21-3.76,3.38-7,5.33-1.8,14.57-2.63,12.39-10.14,2.93-2.63,5.26-5.86,9.53-7.28C132,1766.61,131,1781.93,131.3,1795.91Zm-34.23-43.52c.15,1-2.18.53-2.48.3-.08-1.8.15-7.06,2.48-6.47.3,2.18-1.42,2.33-1.35,4.21C95.49,1751.79,97,1751.34,97.07,1752.39Zm-14.28,3.39c-.37-4.36,1.81-6.09,3.91-7.89,1,.14.23,2.1,1.13,2.25,1.2-.75.38-3.53,1.42-4.5,1.58,4.13-2.7,4.66-2.85,7.89.07.22.3.3.3.6,1.73.3,1.88-1,3.08-1.13-.3,1.2.9,1.58.3,2.18-1.81.15-3-.22-4.21,0C87.37,1756.23,83.84,1755.63,82.79,1755.78ZM76.64,1742c-1-2.63-.38-6.39,1.65-7.59C79,1737.15,78.22,1740.75,76.64,1742Zm-2.26,13.44c.53-.75,0-2.63.53-3.38.6.08.08,1.28.83,1.13A7,7,0,0,1,78,1749C79.19,1752.46,76,1753.89,74.38,1755.47Zm-6.75-412.26c-.83-.37-.68-2.85-.3-3.61C68,1340.28,67.48,1342.08,67.63,1343.21Zm-.31-58.3a18.82,18.82,0,0,1,.3-8.19A12.7,12.7,0,0,1,67.32,1284.91Zm-4.49,148.16c1.28,4.66,1.13,9.85,1.13,14.88.22,35.61,2.4,72.21,2.25,108.57.07.53-.23.6-.3.3-2.11-40.27-3.16-81.6-3.91-123.22v-.83C62.46,1432.69,62.53,1433,62.83,1433.07Zm-.54-7.88a9.67,9.67,0,0,1,1.43,5.63C62.22,1429.92,62.14,1427.66,62.29,1425.19ZM65.67,1238c.38-.68.45-1.58.82-2.25a2.92,2.92,0,0,1,.83,2.25Zm.83-13.2c.15-1.58,2.33-3.45,3.08-5.33.83.45.53,2,1.13,2.55C69.65,1223.22,67.55,1223.52,66.5,1224.8Zm3.68-13.45c-.3.6-1.43.53-1.73,1.13C67.93,1212.1,69.35,1210.38,70.18,1211.35Zm.53,19.38c1.27.76-1.13,2.48-1.13,3.91C67.55,1233.37,70,1231.71,70.71,1230.73Zm-3.61-22.46c.6-3.23,2.85-4.81,4.43-7.06.15,2,1.28,2.93,2,4.28A34,34,0,0,1,67.1,1208.27Zm5.56,190.54c.45.15.75,6,.6,7.29-.3,2.1-.52-3-.6-3.91C72.66,1401,72.73,1400.47,72.66,1398.81Zm.6-45.56c-.9-.08-1.05-1.73-.6-2.25h.9C73.71,1352.05,73,1352.2,73.26,1353.25Zm-1.13,18.89c-1.12-.37-.37-2.48-.3-3.38C72.51,1369.36,72,1371.09,72.13,1372.14Zm-.59-44.33c.07,1,0,5.56-.23,2.78a9.76,9.76,0,0,1-.3-3.08C71.31,1327.51,71.54,1327.58,71.54,1327.81Zm-.83,35.09c-.83-2.18-.38-5.56-.83-8.11C73.49,1355.91,71.24,1359.89,70.71,1362.9Zm.82,55.3a5.92,5.92,0,0,1,1.73,1.65,66.7,66.7,0,0,0-.3,7.89c-1.2-.9-1.58-2.55-2.78-3.38C72,1423.68,71.53,1420.68,71.53,1418.2Zm1.47,30c0,29.9.9,61.68.9,91.51,0,9.92,1.58,19.61,0,28.93-1.65-25.4-1.65-53.42-2.55-79.72C70.82,1474.32,70.14,1460.2,73,1448.18Zm3-241.33a4,4,0,0,1-2.25.6A1.53,1.53,0,0,1,76,1206.85Zm-2-4.74c2.41-1.35,5.19-2.33,7.59-3.68.68,0,.3.23.3.6a46.47,46.47,0,0,0-6.46,4.73C74.91,1203.31,74.16,1203,74.08,1202.11Zm9,144.89h.83c-.3.37-.3,1-.6,1.35C82.72,1348.42,83.25,1347.37,83.09,1347Zm.23-27.3a15.58,15.58,0,0,1,0-6.16A10.12,10.12,0,0,1,83.32,1319.7Zm0,91.74c2.56,3.08.15,9.46.9,14.35-3.38-2.18-2.47-8.57-2.85-13.75C82.19,1412,83.32,1412.27,83.32,1411.44Zm2.85,4.5c1.06,3.46.3,8.87.53,13.15C85.43,1425.79,86.48,1420.15,86.17,1415.94Zm0,15.7c1.81,3.38.3,10.15.83,14.88C84.83,1443.59,86,1435.85,86.17,1431.64Zm0,16.31c.38.08.45.46.83.53.15,27.58,1,56.88,0,84.23-.15,3.6.52,7.59-1.13,10.89C83.17,1511.66,86.4,1479.88,86.18,1448Zm16,209.33c.75,2,3.07,4,3.6,5.33-7.66-.46-14.94-1.36-22.68-1.73a17.79,17.79,0,0,1-.6-3.61C86.93,1655.09,95.79,1657.05,102.18,1657.28Zm-13.22-87c.23.15.53.22.53.6a80.89,80.89,0,0,1-.23,8.64C88.58,1578.08,89.11,1573.12,89,1570.27ZM90.08,1234a2.47,2.47,0,0,1,.53,2C89.86,1236,90.16,1234.87,90.08,1234Zm1.43,165.07a.41.41,0,0,1,.53.22c1.95,36.74-.3,73.18-.3,109.47,0,17.88,1.13,35.84,2,53.57.37,9.17-.15,18.41.22,27.58.52,13.37,1,26.37.6,40.12.08.45-.3.53-.3.23.15-21.79-.45-47.26-1.65-67.92-.23-3.08.52-9.76-1.13-11.19-.38-.3-1.88.6-1.43-.83C90.08,1499,91.28,1448.7,91.51,1399.11ZM93,1303.39v4.81c-.83,0-1.36.3-1.13,1.35-1-.15.83-2.1.83-3.08S92.62,1301.29,93,1303.39Zm.17,50.79c.67,7.06-1,14.13-.83,21.64.08.46-.3.53-.3.23C91.59,1368.76,91.28,1360,93.17,1354.18Zm-.83-110.29c-.53-1.13-1.28-3.31-.83-4.51C92,1240.58,92.79,1242.69,92.34,1243.89ZM91,1645v1H90v-1Zm-.62-4c1,0,1.28.6,1.13,1.73C90,1642.92,89.93,1641.87,90.38,1641Zm0,8h1.35c-.23,2.11.38,4.66,0,5.94-.82.15-.82-.53-1.65-.3C90.53,1653.07,90.31,1651,90.38,1649Zm0-21c.08-2.41.08-4.89.23-7,.38,3.46,1,10.45.3,14.88C89.18,1635.19,90.23,1630.15,90.38,1628.05Zm6.16-140.8c.6,6.53.07,17.13.3,25.24C96.17,1505.88,96.69,1495.36,96.54,1487.25Zm1.84,163.56c-.3,1.2-2.18.82-2.25,2.25a1.53,1.53,0,0,0,1.65,1.43c-.38.52-2.4.3-2.78,0v-5.63c.82.37.67,1.73,1.35,2.25C97.33,1651.26,97.7,1650.88,98.38,1650.81Zm-1.54-314.88c0-4.81,0-15.33.23-21a206.16,206.16,0,0,1,0,23.59C96.84,1342.47,96.84,1337.81,96.84,1335.93Zm3.91,318.79c-.3.68-1.8.15-2.55.3C98.8,1654.64,100.07,1654.19,100.75,1654.72Zm30.12,96.85c-4.88,2-9.23,4.59-16.22,4.51q.36-22.45,1-44.64v0c.1-3.75.22-7.5.34-11.24,4.28-1.28,9.84-1.2,12.92-3.61-4.51-1-8.86.6-12.92,1.13v-12.1c4.44-1.28,9.24-2.18,14.05-3.08.68,1,.08,3.31.28,4.81-5,.68-10.74.45-14,2.78,1.65,1.88,4.58.15,6.76-.3,2.48-.52,5.11-.75,7.29-1.35q.06,7.38.14,14.73v0C130.67,1719.25,130.92,1735.23,130.87,1751.57Zm-25.39-17c-.09-5.75,0-11.66.19-17.62v0c.42-15,1.31-30.32.94-44.92h1.13c1.51.46-1,1.21-.52,2.56,2,4.44,1,13.23.52,23.52-.24,6-.33,12-.47,18v0c-.09,3.47-.19,6.94-.36,10.39C106.76,1729.11,108,1732.63,105.48,1734.59Zm-11.71,3.23c-.75.52-1.65.82-2,1.65-1.06-2.48.45-4.73,1.73-5.86C94.07,1734.44,93.54,1736.47,93.77,1737.82Zm-.61,4.21c1.88,1.87-1.2,3.45-1.65,4.73C90.31,1744.58,92.26,1743.08,93.16,1742Zm.61,7a8,8,0,0,0,.22,3.38c-.83.68-2.25,0-3.08-.3C91.51,1750.74,92,1749.24,93.77,1749ZM92,1731.66c-1.05-1.58,1.27-2.18,1.43-3.38a.4.4,0,0,1,.52.3C94.07,1730.31,92.57,1730.53,92,1731.66Zm1.24-7.7a2.43,2.43,0,0,1-1,.94,2.22,2.22,0,0,1-.09-.37s0-.06,0-.09c-.6-2.47-.23-6,1.54-6.83.87,1.45.58,4.5-.4,6.2A1.09,1.09,0,0,1,93.28,1724Zm-6,3.31a8,8,0,0,1-2.86,6,7.12,7.12,0,0,1-.1-4.39.56.56,0,0,1,0-.12,8,8,0,0,1,2.31-3.6,4.43,4.43,0,0,1,.6,2A.28.28,0,0,1,87.31,1727.27Zm-.31,16.4c-1.58.68-2.1,2.26-3.68,2.86-.3-3.38,2.18-4,3.38-5.94C87.38,1741.12,86.85,1742.77,87,1743.67Zm-.29-8.41c.82,1.8-1.8,2.48-2.48,3.68C83.7,1737.44,86.1,1736.62,86.71,1735.26Zm-2-21c0-2.56,1.28-3.76,2.55-5C88.36,1711.67,86.1,1713.25,84.75,1714.23Zm0,9.84a6.91,6.91,0,0,1,2.25-7.59C88.28,1718.81,86.63,1723,84.75,1724.07Zm.3-17.13c-.3-2.48,1.73-2.71,2.48-4.21C88.66,1704.76,85.8,1706.72,85.05,1706.94Zm0-5.34c-.68-3.23,1.8-3.38,2.48-5.33C89.26,1698.44,86.63,1700.92,85.05,1701.6Zm.23-6.76c-1.43-3.45,1.5-5,2.85-6.69C89.49,1691.61,86.48,1693,85.28,1694.84Zm-.53-7.51c-.68-4.21,2.7-4.21,3.68-6.76C89.71,1684.25,86.33,1685.6,84.75,1687.33Zm2-9.32c-1.2-.9,1.66-1.88,2-3.08C89.4,1676.28,87.45,1677.26,86.7,1678Zm-2-3.61c-.45-1.35,1.5-2.63,2.78-3.08C87,1672.67,85.43,1673.05,84.75,1674.4Zm-.82-6.4h1.65C85.58,1668.75,83.77,1669.36,83.93,1668Zm5,65.91c-.08-.75.45-.9.53-1.43C90.16,1732.71,89.79,1734.21,89,1733.91Zm.3,7.81c-.53-.59-.38-3,0-3.61C89.79,1738.72,89.64,1741,89.26,1741.72Zm-5.94-76c.3-1.2-.6-1.88,0-2.55,8.33,1,19-.45,26.36,1.43-.67.3-.82,1.2-1.35,1.65-1.27.14-2.25,0-2.55-.83-3.38,1.88-9.61.38-14,.6.23-.67.6-1.73,0-2.25A11,11,0,0,1,83.32,1665.69Zm20.21,58.08c-.22,5.19,1,11-1.65,13.75.45-5-1-13,.3-18.26a1.42,1.42,0,0,1,.11-.31.54.54,0,0,1,.07-.13c.34-.68,1-1,1.17-1.73.22-.08.3.07.3.22s0,.43,0,.66v.1A52,52,0,0,1,103.53,1723.77Zm-.53,20.51c.6,1,.07,3.23.3,4.73a16.64,16.64,0,0,1-2,.6C100.82,1746.83,102,1745.56,103,1744.28Zm-1.73-1.43c-.07-1.43,1-1.65,1.43-2.48C104.27,1741.12,102.17,1742.7,101.27,1742.85Zm2,8.12c.15,1,.83,2.78.53,3.38-.83-.38-2.33-.08-2.78-.83v-2A6.06,6.06,0,0,1,103.25,1751Zm.88-60.34c-2-1.28-1-5.18.52-6.16a.28.28,0,0,1,.3.3c-.15,4.36,0,10-.3,15.18-.07,1.65.15,4.28-2,4.43C103.23,1699.87,102.1,1693.71,104.13,1690.63Zm.52-7.28c-1.05-.3-.75.75-1.65.6.15-4-.3-8.57.3-12.1.82-.22.75.53,1.65.3C104.8,1675.84,105.33,1680.19,104.65,1683.35Zm-.52,22.16c-.23,2.55,1.05,9-1.43,10.14C102.18,1712.42,101.88,1706.94,104.13,1705.51Zm.83,33.13c.52-.6.82-1.35,1.43-2a56.38,56.38,0,0,1,0,12.32C103.38,1748.33,105.64,1741.65,105,1738.64Zm-8.42-27.19c-.82-2.63-.15-6.16,1.43-7.29C99.17,1706.12,98.12,1710.47,96.54,1711.45Zm-.3,9.54c-.75-2.78-.3-6.69,1.43-7.89C98.72,1715.06,98.27,1720.31,96.24,1721Zm0-18.79c-.3-2.55,1.05-3.3,2-4.51A3.21,3.21,0,0,1,96.24,1702.2Zm.6-6.76c-1.12-1.8.9-2.78,1.35-3.91C99.92,1692.88,97.37,1694.54,96.84,1695.44Zm0-5.33c-1.27-2.56.75-4.28,1.65-5.64C99.47,1686.8,98.42,1689.51,96.84,1690.11Zm-.6-20.74c1.28-1.35,5.78.45,0,0Zm.76,13.9a7.15,7.15,0,0,1,1.65-6.24c.15-1-.82-.83-1.65-.83V1672h2.78C99.25,1676.13,100.83,1682.44,97,1683.27Zm3.15,27c.52,2,.6,5.94-.53,7.29A31.64,31.64,0,0,1,100.15,1710.32Zm-.23-3.08a25,25,0,0,1,.53-6.46C100.75,1702.28,101.42,1706.56,99.92,1707.24Zm.83-7.89c-1-.6-.6-3.76,0-4.51C101.28,1695.74,101.13,1698.45,100.75,1699.35Zm0-7.81c-1.35-.38-.15-2.48.3-2.86C101.58,1689.21,101.43,1691.31,100.75,1691.54Zm0-5a78.9,78.9,0,0,1,0-14.58h.83C101.43,1677,101.8,1682.52,100.75,1686.58Zm-8.11,19.23c-.3-1.88.67-2.63,1.35-3.61C95.49,1703.18,93.92,1705.74,92.64,1705.81Zm0,9.84a7.2,7.2,0,0,1,1.35-7.06C94.74,1711.07,94.37,1714.75,92.64,1715.65Zm.52-16.6c-1-1.35.53-2.56,1.13-3.31C95.34,1697.17,93.76,1698.37,93.16,1699.05Zm.3-5.56c-.82-1.43-.15-3.69.83-4.21C95.79,1690.33,94.21,1692.89,93.46,1693.49Zm-.3-7.59c0-2.1.3-3.83,1.43-4.81C95.26,1682.74,95,1685.9,93.16,1685.9Zm.6-7.29c-.82-1.65-.22-4.28.83-5C95.64,1674.48,94.74,1678,93.76,1678.61Zm-4,30a6.33,6.33,0,0,1,.6-2.48C90.83,1706.48,91,1709,89.78,1708.59Zm0,9.84c-.67-1.42.08-3.83.3-5.34C90.53,1714.3,90.68,1717.6,89.78,1718.43Zm.6-16.53c-.75-.6-.07-2.1.23-2.55C91.36,1699.87,90.83,1701.6,90.38,1701.9Zm.23-5.63c-.53-.68-.38-3,.3-3.38C91.59,1693.72,91.14,1695.74,90.61,1696.27Zm0-7.29c-.68-1.12-.23-3.61.6-4.21C91.81,1685.9,91.59,1688.53,90.61,1689Zm-.23-7.59a5.09,5.09,0,0,1,1.13-4.21C92.11,1678.46,92,1681.47,90.38,1681.39Zm.53-7.29c-.83-.82.15-2.25,1.13-2.25C92.34,1673.28,91.21,1673.28,90.91,1674.1Zm8.41,61.76c.6.68.3,2.86,0,3.61C98.8,1738.87,99,1736.54,99.32,1735.86ZM99,1733c.45-1.8,0-4.43.6-6.16C100.07,1728.43,100.3,1732.18,99,1733Zm0,10.67c.68.15.23,1.5,0,1.73C98.42,1745.26,98.87,1743.9,99,1743.68Zm-.15,8.32H100v1.65C98.8,1753.88,98.8,1753,98.87,1752Zm1-27.41c-1.27-.45-.07-1.88-.3-3.08C101.05,1721.89,99.54,1723.54,99.92,1724.59Zm7,31.19c-2.18-.08-8.64,1.72-8.71-1.43C100.75,1755.4,103.91,1754.28,106.91,1755.78Zm-1.56-1.13c.07-1.05-.83-5,1.65-4.51V1755C106.4,1755,106.18,1754.43,105.35,1754.65Zm2.68-5.34c.34-11.16.83-22.72,1.24-34.24v-.1c.34-9.32.61-18.59.71-27.64.53,8.86.41,18,.18,27.15v.1c-.33,12.84-.88,25.63-.18,37.51,1.43-3.9.83-12.25,1.13-18.48.07-1.28,1-4.44.6-5.34.75,1.35.23,3.9.23,5.63,0,6.24-.38,14.81-1.13,21.87C107.13,1756,108,1751.79,108,1749.31Zm2.26-83.09c.22-.76-.38-.68-.3-1.36a4.89,4.89,0,0,1,2.85,1.13C112.54,1666.59,111,1666.07,110.29,1666.22Zm1.7,47.34c0,2.26-.12,4.68,0,6.6a31.43,31.43,0,0,1-.27-6.42v-.1c0-2.06.11-4.19,0-5.88a25.92,25.92,0,0,1,.28,5.7Zm1.38-32.46c.53-.75.22,1.65.3,2.25C113.14,1684.1,113.44,1681.69,113.37,1681.1Zm16.68.28c-5.34,0-9.47,1.21-14.05,2V1680c4.8-1.12,9.38-2.63,14.35-3.61C130.2,1678,130.65,1680.18,130.05,1681.38Zm.44-6.67c-4.88.6-10.06,2.4-14.34,2.78,3.38-2.33,9.31-2.33,13.22-3.91a1.3,1.3,0,0,0,.52-.6C130.94,1672.75,130.34,1674.1,130.49,1674.71Zm0-7.9a65.08,65.08,0,0,0-11.49,1.65c.08-1.65-2-1.2-2.85-2-.68-5.86-9-4-10.37-9.24.38-.38,1.35-.15,1.43-.83-.75-1-3.23-.37-3.08-2.25,8.94-1.27,17.35-3,26.36-4.21C130.56,1656.06,130.34,1661.33,130.49,1666.81Zm-48,41.26c1,1.13-.3,2.48-.83,3.08C80.69,1710,82,1708.67,82.5,1708.07Zm0-6.17a3.35,3.35,0,0,1-.83,3.91A3.19,3.19,0,0,1,82.5,1701.9Zm0,12c.75,1.65.22,4.36-1.43,4.51C80.92,1716.26,81.45,1714.9,82.5,1713.92Zm0,7.59c.75,2,.37,5.41-1.13,6.16C80.69,1725.72,80.92,1722.26,82.5,1721.51Zm-1.43-23c.08-1.8-.38-4.21,1.73-3.91C83.1,1696.64,82.57,1699.12,81.07,1698.52Zm1.13-8.41c-1.66-.15-.53-2.71,0-3.08C83.25,1687,83,1690.11,82.2,1690.11Zm1.42-36.52c-3.08.38-2.7-2.93-3.08-5.34,1.36.15,3.31-.22,4.21.3C84.37,1650.28,84.45,1652.39,83.62,1653.59Zm-9.19-3.3c-.23.82.45.82.3,1.65-1-.53-.75.15-1.73.3v-1.73C73.67,1650.66,73.6,1650,74.43,1650.29Zm-.87-76.12c.6.15.23,1.51,0,1.73C73.48,1579.06,72.88,1574.93,73.56,1574.17ZM74.91,1655c.45,1.65,1.13,4.51.83,5.86C74.76,1659.68,71.83,1655.32,74.91,1655Zm.3-34c-1.43-2.11,1.88-3.76,2.55-5.64C77.61,1616.93,76,1619.26,75.21,1621.06Zm1.43-73.48c-.9-27-.75-56.35-.3-83.7C76,1492.05,76.86,1520.46,76.64,1547.58Zm0-270.56c.61,2.4.08,8.49.23,12.32C76.26,1286.94,76.79,1280.85,76.63,1277Zm.23-14.57c1.13,1,.38,3.45.3,5C76.49,1266.35,77.09,1264,76.86,1262.45ZM78,1318c-1.88-1.5-1-6.76-.83-9.54C78.29,1310.83,77.84,1314.74,78,1318Zm.3-36.44c1,.15.45,2.1.3,2.78C77.92,1283.93,78.44,1282.35,78.29,1281.53Zm2.55,170.63c-2.62-2.26-1.35-8.49-1.73-12.92C81.59,1441.57,80.31,1447.73,80.84,1452.16Zm.23,11.72c.67,14.58,1.2,31.11.6,44.63-2.93-16.23-1.8-36.59-2.26-55.23.38.08.45.46.83.53C81.82,1456.89,80.92,1460.42,81.07,1463.88Zm3.16-21.57c-2.11-.45-1.35-3.08-1.43-5-.23-3.38-.68-7.14-.6-10.45C85.81,1429.09,83.55,1437.13,84.23,1442.31Zm-.1,13.45c-1.58-.82-.82-3.45-.9-5.33s-.53-3.68-.23-5.33v-.83C85.18,1446.29,83.6,1452,84.13,1455.76ZM78.29,1635c-1.65-5.34,3.91-7.51,5.33-11.5a18.68,18.68,0,0,1-.3,11.5Zm.31,71.11c.52.83.45,3.45-.83,3.38C77.61,1707.91,77.77,1706.71,78.6,1706.11Zm3.6-127.43c2.18,8.19-3.31,11.27-6.16,15.48C76,1588,80.54,1584.09,82.2,1578.68Zm-3.08-3.08c-.08,1.51-1.8,3.84-2.48,5.64C75.81,1578.83,77.54,1576.5,79.12,1575.6Zm2.55-5c-1.65-3.23-1.5-9.69.83-11.8.3,0,.23.38.3.53C81.74,1562.46,83.62,1568.39,81.67,1570.57Zm1.12,28c1.13,8-5.18,11-7.58,16.3C77.09,1610,80.39,1603.93,82.79,1598.6ZM78,1626.69c1-3.9,3.83-8.33,5.33-12.62C85.65,1620.23,79.72,1622.63,78,1626.69Zm5.1-79.11c.15,4.28.38,7.59-2.85,9.54.6-4.51-1.2-11.35,1.13-14,.15-1.27-1.5-.75-1.35-2,.15-11.35-.45-21.87-.31-33.14.75,1.28.68,3.46,2.48,3.61C82.86,1522.18,82.56,1536.61,83.09,1547.58ZM80,1571.93a14.79,14.79,0,0,0-2.85,2.85,16.38,16.38,0,0,1,.6-7.88C78.73,1568.32,78.73,1570.73,80,1571.93Zm-2.84-216.32c1.35,0-.08,1.12.3,2C76.86,1357.41,77.31,1356.14,77.17,1355.61Zm1.72-64.31c-1.28-.53-.15-2.41,0-3.31C79.42,1288.52,79.19,1290.77,78.89,1291.3Zm-.6,36.22c.45,2.32-.07,6.16-.3,8.71A12.36,12.36,0,0,1,78.29,1327.52Zm3.91,261.84c-1.21,4.73-4.81,9.54-6.69,14.57C73.78,1596.27,79.64,1593.71,82.2,1589.36ZM78.29,1726a6.61,6.61,0,0,1-1.65,7C76,1730.68,78,1728.43,78.29,1726Zm-.52-3.68c.37-1.28-.08-3.38.83-4.21C79.12,1719.26,79.05,1722.19,77.77,1722.34Zm.52-7.51c-.68-.53-.22-2.26.3-2.55C79.27,1712.8,78.74,1714.53,78.29,1714.83Zm.6-76.83h2C81,1639.05,78.67,1639.35,78.89,1638Zm.22,2.45c.6.14,2-.46,1.73.52C80.24,1640.82,78.89,1641.42,79.11,1640.45Zm5.19-173.72c0,.68-.38.45-.3,0v-9c.3.08.22.6.6.6C84.75,1461.32,84.38,1464,84.3,1466.73Zm-3.76-108.64c-.75-3.31-.07-7.66,0-11.2C82.19,1349.37,81.37,1355.46,80.54,1358.09Zm-.3,79.42c-2.4-3.08-1-10-1.35-15.1C80.61,1426.16,79.86,1432.48,80.24,1437.51Zm-1.35-20.44c1.06-.23.3,1.5.53,2.25C78.52,1419.25,79,1417.9,78.89,1417.07Zm.53-58.08c-1.13-.3-.23-1.43-.3-2.25C79.8,1356.89,79.27,1358.31,79.42,1359Zm-.3-103.31c-1.05.07-1.05,1.12-1.35,2-.6-1.27-.52-4.35.83-4.73.3-1.05-1.06-.45-.83-1.43a2.63,2.63,0,0,0,.82-2C79.8,1250.57,78.82,1253.73,79.12,1255.68Zm-2.26-34.43c-.67-.29-.75-1.27-.83-2.25h1.73C77.91,1220.2,76.78,1220.12,76.86,1221.25Zm4,528.06c-.75-1-.3-3.23.53-3.68C82.64,1746.23,81.82,1749.16,80.84,1749.31Zm.83,6.69H80.24C79.94,1752.54,82.87,1752.16,81.67,1756Zm-.6-14c-.83-.61.83-1.06.9-1.65C82.8,1740.9,81.15,1741.35,81.07,1742Zm0-5c-.68-2.09-.38-5.59.88-6.74h0C83.17,1731.83,82.65,1736.31,81.07,1737Zm9-11.26a4,4,0,0,1-.6,1.94,4.4,4.4,0,0,1-.28-1.45.34.34,0,0,1,0-.1,20.24,20.24,0,0,1,.58-4.31,9.81,9.81,0,0,1,.31,3.81S90.08,1725.69,90.08,1725.73ZM91.14,1753a31.57,31.57,0,0,0,5.86,1.13v1.65c-2.1-.15-4.06-.37-6.16-.6C90.54,1754.8,90.84,1753.6,91.14,1753Zm4-10.44a5,5,0,0,1,1.73-4.21C98.43,1739.77,96.55,1742.32,95.12,1742.55Zm.3-6.69c0-2.85.3-5.33,2-6.46C98.05,1731.73,98.05,1735.86,95.42,1735.86Zm.52-8.19c-.9-1.42.9-2.63,1.43-3.61a.48.48,0,0,1,.6.3C98.12,1726.32,96.84,1726.77,95.94,1727.67Zm50.71-403.32c0,.67-.45.82-.3,1.65H145v-2C145.67,1324.05,146.35,1324.05,146.65,1324.35Zm.36-3c.38.9-1.65.75-1.65.3C144.91,1320.75,147,1320.9,147,1321.35Zm-1.94,7.65h1.1c1.27,6.53.23,15.44.53,23H144C143.88,1343.91,145.14,1337.09,145.07,1329Zm-1.66-7h-2a.81.81,0,0,1,.51-1.1l.14,0C142.75,1320.68,143.73,1321.05,143.41,1322Zm-1.18,24.71v.07c-.08.81-.15,1.56-.23,2.24v.07a.12.12,0,0,1,0,.08c0-.66,0-1.32,0-2v-.06c0-1.28,0-2.55,0-3.81v-.08c0-6.16-.22-12.17-.6-18a3.24,3.24,0,0,1,.6-1.26h1.43S143,1338.18,142.23,1346.71Zm-1.23,3.87v-.65s.86-.46,1-.75c0,.25,0,.5,0,.75s-.09.76-.14,1.14C141.82,1350.88,141,1350.58,141,1350.58Zm.84.53c-.05.38-.1.75-.16,1.12C140.67,1352.18,141.47,1351.66,141.84,1351.11Zm2.47,461,.09-.14h0c1.22-.06,3.15.33,4.54.2-.15.08-.33.14-.52.24a2.35,2.35,0,0,0-.72.56h0a9.24,9.24,0,0,0-3.78-.58A1,1,0,0,0,144.31,1812.14ZM160,1378.2h.08l.18,0c1.38.13,2.79.24,4.21.31l.53,0c10.79.55,22.8-.35,33.62-.35,14.38,0,29.28-.15,43.57-.3s29.2.07,43.58-.53c10.61-.53,21.15-.3,31.76,0,2.71.08,7.23.91,8.43-2.55V1374h.83c-1.43,66.12.22,133.37,0,200-.38,1.43-1.95-.75-3.08,1.43-.61,1.13.75,4.89,1.13,7.59.9,6.92.45,13.53-2.87,17.36-4.29-4-5-17.36-1.35-22.69.22-.45,2.94-.45,1.35-2.85-1.88-2.93-5.57,1.28-6.47,3.38-1.2,3.08-1,7.44-1,10.37-.14,5.79,1.06,14.88,7,15.48,3.61.38,3.84-2,5.64-3.38-.07,70.78.75,140.65.83,211.28-53.06-1.28-106.79-1.88-160.52-2.48q-.17-9.15-.2-18.36v-.38c0-.5,0-1,0-1.49V1789c-.16-46,1.34-92.47-.62-138.56-.76-17.73.53-35.46-.31-53-.83-16.76-.3-34.19-.3-51.62,0-48.32.76-98.73-1.35-145.69-.22-3.68.23-8-1.95-11.19-2.49,2.33-1.81,7.22-2,11.5-2.48,63.79-.53,132.31-.53,197.83,0,70.85-.9,142.08-.52,211-.6-35.39-.6-71.3-.6-107.44,0-35.91-.83-72-.83-108,0-72.73.53-145.46-2-216.09C157.54,1377.24,158.65,1378,160,1378.2Zm155,437.38c-.37.6-1.95.08-2.78.22C312.63,1815.2,314.2,1815.73,315,1815.58Zm-89.75-1.73c-1.73.68-4.74.08-7,.3C220.1,1813.47,223,1814.07,225.28,1813.85Zm-10.37.15c-3.15.68-7.58.15-11.19.3,1.28-.67,3.83-.08,5.56-.3Zm-12.09-1c-2.85.6-7,.07-10.36.23,1.13-.6,3.45-.08,5-.23Zm-13.74,0c-2.11.67-5.49.07-8.11.3C183.15,1812.65,186.53,1813.18,189.08,1813Zm-28-.6c-.45.67-2.18.15-3.08.3C158.43,1812.13,160.08,1812.66,161.06,1812.43Zm8.22.81c1-.57,3,0,4.39-.24h4.51c-2.25.61-5.44.17-8.22.26h-.13l-.67,0ZM150,1324.05v2h-1.65C148.13,1324.58,148.43,1323.67,150,1324.05Zm-1.56-2.4c.08-1,2.18-.75,1.65.53C149.19,1322.33,148.67,1322.1,148.44,1321.65Zm0,7.82c-.08-.45.23-.45.3-.83h.83a103.38,103.38,0,0,1,0,23.59c-2.33,0-1.43-3.31-1.43-4.81C148.14,1341.72,148.59,1335.18,148.44,1329.47Zm3.38-7.52c-.22-1.13,2-.53,2.25-.3C154.15,1322.4,152.05,1322.4,151.82,1322Zm2.18,2.79v1.41c-.37.36-1.26.22-2,.22v-1.93C152.74,1324.44,153.63,1324.37,154,1324.74Zm-1.95,4.16c.08-.52.23-.75.6-.9h.53c1.2,4.51.37,12.4.6,18,.07,2,1.65,5.86-1.43,5.93A147.81,147.81,0,0,1,152.05,1328.9Zm166.36,23-.58,0c-37-1-75-1.56-112.46-2.46-15.1-.38-31.7-1.2-45.14-.3-.3-9.69.68-18.63.23-27-.15-.46.6-1.21.59-.53,51.34,1.11,103.63,1.35,155.79,1.64h1A239.72,239.72,0,0,0,318.41,1351.93Zm-162.68-30.58.16,0c.79.06,2.11-.35,2.39.28.28,1-1.6,1.21-2.34.61A.69.69,0,0,1,155.73,1321.35Zm.27,3.09h0c-.08,0-.16,0,0,0h0c.7,0,1-.44,2-.31v2.55a6.05,6.05,0,0,1-2-.11c-.11,0-.2-.11,0-.19Zm8.44,27c1.05-.22,1.35.3,2.25.23C166.54,1352.08,164.14,1352.38,164.44,1351.4Zm75.71,3.6h5.33a37.47,37.47,0,0,1-7.81.3C233.16,1355.08,236.84,1354.92,240.15,1355Zm-73.76-35.9c5.18-.75,10.81.45,16.52-.1h4.51c.68.62-2.7.4-4.2,1h-16C167.14,1319.1,166.69,1319.17,166.39,1319.1Zm-10.44,10V1329a0,0,0,0,1,0,0,.5.5,0,0,1,.27-.44,3.93,3.93,0,0,1,1.6-.12,4.58,4.58,0,0,0,.53,0c-.26,2.79-.36,5.72-.36,8.69v0c0,5,.26,10.12.36,14.88h-2.7c.19-6.08.34-12.22.34-18.49v0c0-1.38,0-2.78,0-4.18a.5.5,0,0,1,0-.14Zm165-.28c0-.3,0-.53,0-.83h.83c1.28.83.6,3.08.6,4.51-.15,6.46.53,13.75.53,20.44-2.85-.3-1.8-3.46-1.65-5.56C321.49,1341.75,321.27,1333.94,321,1328.83Zm0-4.39v-1.16c1,.24,1.16-.38,2-.3v1.46C322,1324.21,321.46,1325,321,1324.44Zm3,13.11V1328h1.65c-.83,2.93.6,4.81.6,9C325.2,1337,324.9,1337.47,324,1337.55Zm2.82,3.6q.23,6.66.9,12.85h-2.85c-.3-4.2-.3-8.79-.3-13.45A7.16,7.16,0,0,0,326.82,1341.15ZM326,1325h-1.65c0-1-.53-1.1-.3-2H326Zm4.55,21H329v-5h1.27C330.83,1342.19,330.41,1344.38,330.55,1346Zm-.05,8c-2.85.6-1.27-3.23-1.73-5h1.43C330.73,1350.27,330.43,1352.38,330.5,1354Zm-.85-22c-.07,1.65.83,3.6,0,5-.82.22-1-.31-1.65-.23V1332Zm-1.65-2.35V1328h2v2A5,5,0,0,0,328,1329.65Zm2-4.62c-1.57.23-2.47-.3-2.18-2H330Zm1.34-2H334v2h-2.37C331.18,1324.88,331.4,1323.83,331.34,1323Zm2.66,25.67V1354h-1.65C332.8,1352.12,331.07,1348.07,334,1348.67Zm-.42-8.23c-.15,1.88.3,4.43-.3,5.86a1.84,1.84,0,0,0-1.35-.23C332.31,1344,330.65,1340,333.58,1340.44Zm0-2.26c-2.26.3-3.39-7.21,0-6.46C333.66,1334.05,332.91,1336.15,333.59,1338.18ZM332,1330v-2h2v2.48A3.88,3.88,0,0,1,332,1330Zm5.79-24.91c-1.73.23-5.26-.07-7.89,0,2.11-3.22,5.64-5,7.89-8.11C338.62,1299.33,337.64,1302.41,337.79,1305Zm-1.43-10.41A59.48,59.48,0,0,0,325.47,1305h-3.38c3.68-4.36,8.64-7.44,12.62-11.5C335.69,1293.43,335.61,1294.41,336.36,1294.63Zm-8.11-6.64c2.18.3,2.7,2.33,4.5,3.08-5.26,4.13-9.69,9.17-14.57,13.75-2.47-.23-5.63.38-7.58-.3-1.28-.3,1-1.42,1.35-2C317.36,1297.61,323.44,1293.4,328.25,1288Zm-2.77-1.55c-6.24,6.39-12.85,12.25-19.08,18.56h-6.76c-.23-1.13,1.27-1.66,1.95-2.26,6.53-5.64,14-12.4,20.5-18.26C323.29,1285.08,324.27,1285.91,325.48,1286.44Zm-5.93-3.79c-5.86,4.81-11.79,10.52-17.95,16.53-1.35,1.36-4.36,5-5.86,5.34-2.18.53-4.66-.9-6.76-.3-.45-.6,1.27-1.88,2.25-2.78,3.08-2.71,6.68-5.49,10.06-8.42,4.81-4,9.84-8.19,13.52-12.62A36.11,36.11,0,0,1,319.55,1282.65Zm-12.63-5.55c1.58-.15,3.91,1.28,5.63,2-9.61,7.89-18.4,16.61-27.49,25h-5.33c-.53-1,1.58-2,2.78-3.08,7.89-7.29,16.53-15.78,24.11-23.59C306.62,1277.1,306.77,1277.1,306.92,1277.1Zm-3.39-1.42c.45,1.2-3.08,3.53-4.43,4.73-7.66,7.06-15.24,16.68-23.28,23.59h-7.36c-.22-1.13,2-2.18,3.16-3.38,8.48-8.27,18.4-17.81,26.36-26.9A17.09,17.09,0,0,1,303.53,1275.68Zm-8.94-3.09c-8.11,11.05-19.68,21-29.44,31.41h-7.58c-1.2-.07.75-1.27,1.13-1.65,8.78-10.75,18.4-20.66,26.66-32C288.59,1270.86,291.3,1272.07,294.59,1272.59ZM211.31,1304h-4c3.08-5.71,7.51-10.07,11-15.4,2.56,2.32,3,6.76,5.86,8.71,1.12-1.35,3.3-.45,5.33-.3a74.4,74.4,0,0,0-4.73,7H213.49c1.58-4.29,6.38-6.69,6.76-11.2C216.27,1294.38,213.72,1299.94,211.31,1304Zm-6.46.22c-2.56.22-4.21-.45-6.76-.23,5.56-7.36,11.94-13.9,17.43-21.34,1,.83,1.27,2.56,1.95,3.91A156,156,0,0,0,204.85,1304.22Zm53.45-15.11a34.71,34.71,0,0,1-5.76-.52c.08-2.29,3.55-7,.82-8-3-1-3.68,3.62-3.32,7.46h-5.53a78.42,78.42,0,0,0-.12-15v-.06c0-.5-.08-1-.12-1.46,1.25.45,2.35.93,3.52,1.47h.08l.14.06h0a39.81,39.81,0,0,1,14.39,10.65A25.14,25.14,0,0,1,258.3,1289.11Zm-.2,5.89h-1.35c.15-.9,1.28-.9,1.35-2C259.38,1293.05,258.18,1294.55,258.1,1295Zm-30.63-21.69.83-.3h0a48.7,48.7,0,0,1,10.67-2.32c0,.63,0,1.26,0,1.88,0,.14,0,.28,0,.41-.09,4.77-.41,9.31-.28,14.31-1.65,1-3-.23-5.33,0-.9-2.77-1.13-6.38,0-8.71-1.12-1.5-7.43-1.65-8.41.83-.07,1.58,1.95,1,3.38,1.13a30.4,30.4,0,0,0,2.78,7.06c-2.71.52-6.53.15-8.94,1.65,0-2.63-4.58-7.22-4.2-10.07.22-2.1,5.18-4.2,8.11-5.33C226.56,1273.65,227,1273.47,227.47,1273.31Zm1.48,18c-1.72.37-3.9.22-3.9,2.25-1.43.08-1.5-1.12-1.73-2.25C224.9,1290.92,227.68,1290.24,229,1291.3Zm3.91,5.93a52.7,52.7,0,0,0,7.88.3c-.75,2.18-4,4.29-5.33,6.69-3.23.23-5.93-.68-8.71,0C228.05,1301.14,230.46,1299.18,232.86,1297.23Zm10.67.31c2.93-.23,5,.45,7.89.3a33.82,33.82,0,0,1-5.11,6.16h-8.94C239,1301.45,241.43,1299.64,243.53,1297.54Zm14.88.6a46.3,46.3,0,0,1-4.81,5.86h-5.26C250.81,1301.29,252.32,1296.41,258.41,1298.14Zm-8.12-32.08a217.43,217.43,0,0,1,32.22,4c-6.69,7.36-13,15.25-19.38,23,1-3.24,3-7.89,4.51-11.5,2.7-4.13,6.38-7.29,8.71-11.79-5.18.45-5.93,7.89-11.49,8.94a15.4,15.4,0,0,0-6-5.73,25.79,25.79,0,0,0-3-1.48h0a99.07,99.07,0,0,0-12-3.67C244,1264.63,248.19,1266,250.29,1266.06Zm-14.35-.53c1.73.31,2.11,2,3.68,2-7.66.45-16.83,2.33-23.06,6.46-2.48,1.65-5.93,5.26-1.95,6.16-5.79,8.41-12.32,16.08-18.78,23.89h-7c-.6-1,.9-1.5,1.35-2,10.06-11,20.35-23.51,29.74-35.31C224.52,1267,231.43,1264.7,235.94,1265.53Zm-19.38,1.35c.45,1.43-1.8,3-3.08,4.51-8.64,10.22-18.4,21.34-26.36,32.61h-8.71c10-12,19.9-24.12,30-36C211.16,1267.71,213.86,1267.34,216.56,1266.88Zm-80,27.65c7.16-3.58,13.87-7.54,20.58-11.51-2.61,5.67-7.53,11.42-9.7,18.44,3.89-5.53,7.76-13.44,11.94-19.56l2.09-.92.11,0c3-1.31,6-2.59,9.22-3.73.3.89-.53,1.94-1.12,2.76-2.79,4.38-6.1,9.06-9,13.89l-.12.19a77.75,77.75,0,0,0-3.91,7.12c1.28-1.6,2.53-3.24,3.74-4.9l.12-.16c4.71-6.44,9-13.31,13.38-20,4.1-1.34,8.35-2.47,12.6-3.66.15,1.42-1.41,2.32-2.23,3.36-6.57,8.21-13.88,17.31-18.73,27.32,2.9-1.86,4.18-5.15,6.19-7.76,5.67-7.76,12.16-15.38,17.83-23.44,4.33-1.34,9.63-1.86,14.18-3.06.52,1.35-1.64,2.77-2.76,4.19-8.14,9.77-16.71,21-24.85,31H157.41c-6.19,0-12.54-.67-17.54.82,0,2,2.44,1.59,4.37,1.64-4,0-6.24,3.52-.18,4.19a146.36,146.36,0,0,0,15.18.57h.11l2.84,0c56.4.83,118.18.68,173.62.53.52,1.12.08,3.21.23,4.78-59-.13-118.21-.15-177-.46h-.11l-14-.09h-.06c-.23,0-.85,0-1.27,0h-.16a20.38,20.38,0,0,0-6.29.63c-.31.09-.61.2-.92.32H136v-1.2c0-.28,0-.56,0-.85h0C136,1308.82,136.31,1301.12,136.53,1294.53Zm-8-2.64c.82,8.87-.75,20.14,1.65,27.5a44,44,0,0,0,9.24,1.43c-.61,9.85.6,21.27-.23,31.41-2.18.61-5.79-.15-7.59.83-1.12,1.8-.82,4.06-.82,6.16s.14,5.78.19,6.88h0c0,.19,0,.3,0,.3v30.76s0,.76,0,2.13h0c-.17,8.8-.8,42.57-1,60.8v.14c0,6.13,0,13,0,20.39v.09c.05,38.38.31,89.56.43,111.07v.09c0,6.37.06,10.11.06,10.11h0s-17-1.07-22.44,1.71c3,1.65,7.36.3,11.19,0a53.74,53.74,0,0,1,11.46-.34l.31,0v43.2h0a260.33,260.33,0,0,0-28.59,3.68,8,8,0,0,0,.6-3.16c5.33-2,14-.75,18.78-3.31-5.41-1-12.55.83-19.08.53-.37-123-.68-247.41-1.12-369.6,3.08,2,6.68,5,10.14,7.29s7.21,4.06,9.54,7.29C125.32,1287.68,125.7,1290.39,128.55,1291.89Zm-7.59-6.16c-6.84-4.36-12.92-9.39-19.38-14a306.5,306.5,0,0,0-1.43-32.83c.3-1-1.06-.45-.83-1.43.23-2.4-.37-4.06-.3-6.46.53.38.38,1.35,1.13,1.43,2-1.43,1.95-5,2-8.42,15.54,13.45,31.54,26.6,46.79,40.42C138.16,1270,127.57,1275.89,121,1285.73Zm8.1-133.89c12.86,13.18,26,26.68,38.95,40.46l.16.17q3.33,3.52,6.63,7.08c1.06,1.13,6.91,5.18,4.21,6.76-1.65.91-5-4.13-6.16-5.33q-2.43-2.65-4.92-5.31l-.16-.17c-12.19-13-25.25-25.86-37.58-38.33.52-2.63-1-3.3-1.43-5C128.68,1151.62,129.06,1151.54,129.06,1151.84Zm-3.9-2.77c0,.67,0,1.35-.3,1.65-.82-.3-1.88-.3-2-1.43C123.81,1149.37,124.11,1148.84,125.16,1149.07Zm-8.41-5.64c.37-.82,1.27-1.13,1.66-2,1.5,1.06,2.47,2.56,3.9,3.61C120.43,1146.51,118,1144.48,116.75,1143.43Zm4.2,12.92c.75-.22.53.53,1.13.53.3,1.27-1,1-.83,1.95C120.58,1158.61,121.1,1157.11,121,1156.35Zm-3.08,24.42c.38-1.65-.38-3.23,0-4.81,1.28-6.23,8.72-5.33,9.77-12.84q19.68,20.25,39.56,40.29l.16.16q3.7,3.75,7.45,7.49c-4.65,6.69-.75,20.29-1.95,31.18-1.58.31-2.4-1.42-3.38-2.25-1.49-1.23-3-2.47-4.5-3.74l-.16-.14c-6.74-5.59-13.63-11.43-20.28-17.16-9.47-8.19-18.48-17.28-28.92-23.89-.67,1.88,1.5,3.08,2.48,4,15.24,13.13,30.21,27.85,46.46,40.58l.16.13q4,3.13,8.13,6.1a61.8,61.8,0,0,0,.3,9.32c-3,.9-6.36,1.91-9.77,3.07l-.17.06c-2.21.74-4.46,1.55-6.66,2.43-1.42.6-3.9,2.32-5,2.25s-4.88-3.69-6.46-5c-12.47-10.82-23.89-21-36.73-31.41-1.5-1.28-5.63-3.68-6.16-5.11-.75-1.65-.83-6.31-.6-7.29.52-2.33,4.5-4,5-7.29.75-3.9-.23-7.51.6-10.89.53-2.25,1.43-5.26,2.78-7.06C112.09,1186.18,117,1184.3,117.87,1180.77Zm-15.16-15.7c1.28,1,.9,4.2,0,5.33-1.81-.3-2.63.53-3.91.83C99.77,1168.83,101.65,1167.32,102.71,1165.07ZM92.34,1153h5c-1.27,1.27-3.45,1.57-5.33,2.25C92.11,1154.42,91.89,1153.37,92.34,1153Zm4.2,21.31c2.25,10.52-5.18,13.67-11.49,16.53C89.11,1185.58,92.79,1180,96.54,1174.31Zm-12.32,14.28c.38-3.84,3.91-6.84,6.16-9.77C89.63,1181.15,85.88,1185.36,84.22,1188.59ZM93.76,1144c-.82.6-2.85.15-3.38-.3C90.91,1143.28,92.48,1144.18,93.76,1144Zm0,14.28c-1.87,2.71-4.35,4.81-6.23,7.59C88.21,1163.12,89.86,1158.83,93.76,1158.31Zm-10.44-5a6.44,6.44,0,0,1,2.55-.3c-.82,1.36-1.8,2.48-2.55,3.91C83,1156.28,84.15,1154.33,83.32,1153.27Zm17.43,21c7.06.53,8.34-5.93,7.59-12.32,2.18-1.35,4.88-2.25,5.56-5.11.23,8-1.43,14.21-5,19.39-.68,1-1.88,1.57-2.48,2.55-3.6,5.41-4.58,12.1-8.71,17.36-2.26,1-7.89,6.77-7.89,9,0,6.16,9.39,1.88,11.27-1.13-2.18,4.36-7.21,5.93-7.06,12.62-1.13.75-2.63-2.93-4.21-3.68-.15-.82.9-.6.6-1.65-3.46-3.6-9.32-3.38-13.22-6.16,2.56-3.6,7.29-5.11,10.14-8.41-.91-3.31-6.69.3-7.29-.3C87.23,1189.41,101.27,1189.19,100.75,1174.3Zm-24.11,21.88c.83-2.56,4-5.26,5.86-7.81A9.86,9.86,0,0,1,76.64,1196.18Zm5-42.08c.45,1.88,1.28,4.28,0,5.63a8.57,8.57,0,0,1-3.68-4C78.74,1154.85,80.32,1153.5,81.67,1154.1Zm-5.93,6.46c1.58.83,3.45,1.28,4,3.08-5.48,8.34-7.89,19.84-13.52,28C68.08,1181.07,72.28,1170.48,75.74,1160.56Zm-8.42,58.68a13,13,0,0,0-1.35,2.18C64.62,1220.52,66.35,1219.47,67.32,1219.24ZM60,1212.78c2.93.38,3.38-3.23,5.33-2.86-1.8,2.93-4.73,4.81-7,7.29C58,1215.94,59.36,1213.91,60,1212.78Zm.6,114.2c-.52.68-.6-4.66-.6-6.46.38-.07.23-.52.3-.83C61,1321.57,60.41,1324.65,60.64,1327Zm-1.13,90.92c-.6.22-.15-3-.3-4.21C59.81,1413.47,59.36,1416.7,59.51,1417.9Zm-.83-34.26c.61.6.08,4.73.23,6.76C58.31,1389.8,58.84,1385.66,58.68,1383.64Zm.23,11.49c.45,4.43.37,9.39.6,14C58.84,1406.1,58.91,1399.87,58.91,1395.13Zm.6-26.6a82.43,82.43,0,0,0,.52-11C60.19,1360.42,61.16,1366.58,59.51,1368.53Zm0,291.52c-1.72-1.65-2.62-4-2.25-7.81C60.19,1652.91,60.34,1657.27,59.51,1660.05Zm1.43-6.68c-.15-1.2,1.13-.9,1.35-1.73.91.16.23,1.88.83,2.26C62.89,1654.34,61.17,1653.9,60.94,1653.37Zm2.48-88.74a782.45,782.45,0,0,1-3.08-85c.9,23.67,1.65,51,3.38,75.21C64,1558.09,64.77,1561.7,63.42,1564.63Zm1.13,4.21c.53,4.73,2.93,10.89.3,14.65C63.87,1579.36,64.25,1573.42,64.55,1568.84Zm2.55,30.06c-.75,3-3.08,5.63-.6,8.41a71.53,71.53,0,0,0-.89,7.37c.12,1.47.25,2.94.39,4.43v1.66c-1,1-.4.45-1-.23v-1.73a36.65,36.65,0,0,0,.61-4.13c-.77-9.68-1-19-1.06-28.4.75-.07,1.57,1.2,2.25.3C67.25,1590.56,68,1594.77,67.1,1598.9Zm1.12-242.76c1,2.48.53,6.53,1.13,9.54C66.42,1365,67.78,1358.54,68.22,1356.14Zm.83-62c1.13.53.38,3.16.3,4.21C67.85,1297.23,68.38,1295.65,69.05,1294.15Zm1.66,13.45c1.12,3.3,1.2,8.94-.83,11.19C68.9,1314.81,70.33,1311.21,70.71,1307.6Zm-1.13,119.24c4.28,2.18,2.11,8.27,1.13,12.7C68.9,1436.76,70.48,1430.59,69.58,1426.84Zm-.53,274.24c.53.52.38,2.78,0,3.3C68.53,1703.86,68.68,1701.6,69.05,1701.08Zm0,6.16a12.89,12.89,0,0,1,0,5.86A12,12,0,0,1,69.05,1707.24Zm-1,14.27a3.71,3.71,0,0,0,1-1.7v-4.46c0-.07.27.07.35.3a20.1,20.1,0,0,1-.35,4.16v2.83c-.18.6-.48,3-1,2.25Zm-2,77.77c3.83.37,7.66-.75,10.89,0-2.32,3.15-7.21,3.75-10.36,6.16-3.76.15-6.84-.45-10.37-.53C58.91,1802.51,62.82,1801.31,66,1799.28Zm-3.08,7.58c-6.38,3.68-11.94,8.27-23.28,7C45.47,1809.8,51.33,1805.89,62.89,1806.86Zm-11.27,14.28c-4.88,2.7-8.18,5.94-17.12,4.21,1.8-1.73,4.28-3,6.76-4.51,4.88-2.86,9-5,18.25-4.21C57.25,1818.51,54.47,1819.56,51.62,1821.14Zm13.23-4.21c1,1.72,2.7,2.78,5.63,2.55a36.93,36.93,0,0,1-5.93,3.61c-1.8,1.05-4.13,3.08-6.16,3.38-3.31.61-6.84-1.12-11.27-.52C53,1822.87,57.49,1818.51,64.85,1816.93Zm-21.34,0c-2.1,1.43-4.5,2.86-7,4.21-4.88,2.63-8.94,4.66-18,3.68C25.79,1821.14,31.12,1815.51,43.51,1816.93Zm-32.29,7.59c4.59-2.63,9.62-4.81,14.35-7.29.53-.07.6.23.3.3C20.83,1819.71,17.08,1823.17,11.22,1824.52ZM119,1826.76c-3.24-.9-8,.53-10.67,1.13-4.58,1-9.38-.08-9.31,3.38.08,1.8,1.35,2.26,3.38,2.48-10.59.23-22.08-1.2-33.95-.82,7.36-5,16.14-8.57,23.28-13.75-9.17,2.41-15.93,7.22-23.51,11.2-.45-.15-1.5.38-1.43-.22-1.35.52-2.63,2.4-5.33,3.38-3.08,1-6.76.38-7.29,3.08-.6,2.93,2.4,4.2,5.63,4.73-16.29-.45-33.95-1.95-51.37-2.25,8.49-3.68,13.9-10.37,27.19-9.24-1.8,1.73-4.51,2.56-6.16,4.51,3.84.15,6.84-3.91,11-4.81s8.48.15,13.44-.53c-3.45,2.71-8.34,4-11.19,7.29,2.78.75,5.19-1.65,7.59-3.08,4.51-2.71,7.74-5.34,15.7-4.81-.38-1.65-3.23-.9-4.51-1.65,4.2-1.81,7.43-5.71,12.09-7.29,10.51-3.61,31.17,1.58,45.15.51C117,1822.63,120,1824.06,119,1826.76Zm.51-12.28c0,1.27-.67,1.87-.52,3.3-7.66-.38-15.1-1-23.06-1.13,1.21-1.35,3.76-1.28,4.21-3.31-.68-1.35-2.33-1.81-3.61-2-8.64-1.2-19.6,1.88-27.49,2.25,2.63-2,6.23-3.08,8.71-5.33-7.73,2.1-12.39,7.88-23.58,5.63,6.31-3.91,11.49-8.57,23.81-7-1.35-2-5.93-.61-8.41-1.43,2-.45,5.19-4.36,7.89-4.21,1.57.08,4,2.93,7.28,3.38,3.45.45,8.93-.08,13.74-.3,8.64-.37,18.11.23,14.35-7.8a170.78,170.78,0,0,0,18.48.23c1.21,5.11-1.35,12,.83,15.18-.68.68-2.48.07-3.61.3-1-.6,1.8-1.88,1.65-3.38-3.68-3-8,.45-9.84,3.38-1.73.38-4.28,0-5.56.83C115.24,1814.63,117.79,1814.1,119.52,1814.48ZM122,1827.6v-2.26c2.1-.07,4,0,5.33.83C125.61,1826.7,122.9,1826.25,122,1827.6Zm11.87-1.6c-1.35.23-3.38-.3-4.21.3-.45-.15-.75-.38-1.12-.53,1.2-.6,4.05-.38,5.33,0,.67.16,2-.37,2.25.23Zm99.39-5.39c-17.95-.82-36.35-2.25-54.68-2.25-18.55,0-37.18.45-55.58,0v-2.78c0-.45,0-.83.29-.9,66.78,2.13,133.26,4.55,200.67,6h.27l9.82.21h0l3.43.07c1.7,1.77,2.64,2.75,4.33,4.53,0,.12,0,.26,0,.4C306.19,1823.31,269.76,1822.19,233.26,1820.61ZM0,1148.86v1.49c1.34,1.19,2.69,2.38,4.05,3.55.06-.63.13-1.25.2-1.88Z" transform="translate(2.17)"/><path class="cls-6" d="M-2.14,1211.23v0L0,1212.71v0Z" transform="translate(2.17)"/><path class="cls-5" d="M436,1799.58c-11.64,10.89-25.54,21.94-38.68,32.23,2-3.53,5.71-5.79,8.94-8.42,9.61-7.73,20-16.07,29.74-23.81Z" transform="translate(2.17)"/><path class="cls-5" d="M461.49,1800.1c-10.51,11.34-24,22.24-35.9,33.13,11-12,23.59-22.46,35.9-33.13Z" transform="translate(2.17)"/><path class="cls-5" d="M176.76,1883.43c-.68.07-.45-.3,0-.22,40.71.9,83.29,1.5,125.43,2,20.88.22,41.69,1.43,62.27,1.65s41,1.2,60.31,3.68c-10.14,1.28-20.5,1-30.87.53-30.72-1.43-62.41-.75-93.66-2.25-41.84-2-84.12-1.51-123.48-5.34Z" transform="translate(2.17)"/><path class="cls-5" d="M269.12,1405.38c.45,2.78,4.06,1.8,6.16,1.95,6.91.38,15.7.45,22.68,1.65,3,.53,4.88,1.8,8.41,1.43.6-.08,2-1.65,3.68-.83,2.48,1.13,1.95,12.32,1.95,17.06v56.13c0,25.77.53,49-.52,75.21-1.58,36.36-1,74.08-2,111.72-.15,4.59-.3,11.27-.3,18.78,0,3.83,1.43,15.4-2.55,16.31-2.25.52-3-1.43-5-2-4.13-1.2-10.67-.6-16.3-.6-6.31,0-12.69-1.13-16.52-.23-1.95.38-2.63,2.18-4.2,2.18-1.05,0-2.1-.9-3.38-2.18H242.47c-6.38,0-13.07-1.13-17.95,0-1.35.3-2.63,1.73-4,1.65s-2.18-1.73-3.6-2c-2.41-.45-5.56.3-8.41.3-8.19,0-16.52-.9-24.41-1.43-1.28,1.2-4.51,3.76-6.16,1.13-6.61,6.46-5.63-8.11-5.63-15.18,0-43.35,1.5-86.4-.53-129.91-1.13-24-.6-48.61-.6-74.38,0-21.79-.15-41.93,1.13-64.54.07-1.43.45-6.76,2.25-7,3.23-.45,3,8.27,3.08,10.9,1.35,31.56,1,64.69,1.13,97.15,1,.38,3.3-.23,4.73-.3.45-14.73-.52-29,0-43.8.23-4.81.9-9.62.6-14.05-.23-2.63-1.35-5.48-1.65-8.11-.9-7-.52-14.43-.6-21.34s-.45-14,.83-20.74c1.35-1.35,1.65,1.8,2.25,1.13,1.35-2.78-4.06-1.65-2.48-4.51,1.88-2,5.48-1,8.41-1.13,6.09-.22,12.69-1.28,19.61-.83,2.33.15,8.86,2.18,8.71-.3-.15-1.73-2-1.35-4.81-1.43-11-.22-18.25-1.13-28.62-1.95-3.08-.23-9.69,0-10.06-2-.45-2.18,2.78-2.4,3.9-2.48,10.67-1.28,22.83.22,35.07.22,28.32,0,58.36.23,85,3.08,3.9.45,13.22.83,11.49,5.94-.68,1.88-7,1.88-9.24,1.65-9.55-.66-22.69-3.82-32.83-2.47Zm-44.67-1.53h0c-.83.6.3,1.58,0,2.55,12.09.45,24.41.38,36.5.53,1.35.08,4.28,1,4.21-1.35-11.64-1.21-28.17-1-40.71-1.73Zm-32.22,16h0c-.53-1.58,1.13-3.76-.3-4.51-.68,1.13-.23,3.61.3,4.51Zm112.21,3.38h0a18.87,18.87,0,0,0,1.05,6.16c-.3-2.1,1.2-5.11-.23-6.46-.07.38-.44.3-.82.3Zm-115.59,17.36h0a51.05,51.05,0,0,0,0-11.19c-.3,3.3-.6,8,0,11.19Zm6.15-1.66h-.29a7.12,7.12,0,0,0,.29,2v8.19s1.14,3.76,1,1v-4.21c-.24-5.11-.46-15.91-.46-15.91H195v8.93Zm5-.82h0c.38-1.8.75-5.94-.3-7.29.23,2.33-.37,5.41.3,7.29Zm3.08-5.94h0c-.37,7.59-.3,15.63-.3,23.59,4.66.53,10.14.23,15.17.3.08-7.81.45-15.25.3-23.29-4.95-.07-10.81-.82-15.17-.6Zm77.88,3.68h0v21c7.29.9,16,.45,23.51,1.13.45-8.19.75-18,.6-25.85-2.33,7.74-15.85,2.56-24.11,3.68Zm-55.95-2.78h0c-.23,8,.38,15,.23,23,1.95.6,5,.07,7.29.3.45-7.44.23-15.55.6-23.07a80.17,80.17,0,0,0-8.12-.22Zm12,.53h0c-.83,7.29.38,15,0,22.77,9.16-.3,18.4.9,27,.22-.15-7.06.23-14.65-.3-21.26-9.24-.23-17.65-1.28-26.66-1.73Zm-44.31,13.22h0c-.6-3.46-.15-9.39-.83-11.79.22,4-.23,8.64.83,11.79Zm77.43-11.27h0c-.15,7.06-.3,14.13-.6,21a50.45,50.45,0,0,0,8.41.6c.68-6.69.07-14.58.6-21.34-2.7-.15-5.4-.37-8.41-.3ZM196,1461.93h0c1.05,19.53-2.4,38.69-.3,56.13,1.73-3.76,1.13-8.57,1.13-13.15,0-14.5.23-29.9-.3-43.5-.07-.23-.23-.3-.53-.3v.82Zm4.34-.53h0c-.23,17.73.38,34.56.3,52.22,3.38-1.73,4.88,3.31,8.11,4.21,3,.75,5.56-.75,9.54-.3-.38-18.11-.3-36.82-.3-55.3-5.18-1-13.52-.53-17.65-.83Zm24.41,56.6h7.58c.45-18,.15-36.67.23-55-2.63.23-4.43-.45-7-.3-1.05,17.65-.23,37.19-.83,55.3Zm12.32-54.35h0c-.07,18.11.08,36,.3,53.87,8.33.53,17.57.22,26.36.3.15-18.41.68-35.54.3-54-8.49-.75-17.95-.6-26.66-1-.3,0-.3.38-.3.83Zm32.52,1.13h0c-.53,17.28-.68,35-.53,53,3.08-.15,5.63.15,8.41.23.53-17.58.6-35.69.53-53.87-2.85.22-5.11-.3-7.81-.3a.85.85,0,0,0-.6.9ZM281,1465h0v53a126.34,126.34,0,0,0,22.68-.53c-.07-18,.6-35.16.83-52.75-7.89,0-15.62-.07-23-.6a.69.69,0,0,0-.53.83Zm-79,52h-1.35c-.6,1.8,2,1.8,1.35,0Zm-23,5.56h0c-.9,57.18-1.43,117.59-.3,174.84,2.25,1.2,4-2,5-2,.3.9-.6,3.08.6,3.08,6.91.45,14.87.53,22.46.53,3.08,0,11.19.9,11.49-1,.07-.52-.45-1.35-.3-1.73-4-.83-9.76-.3-15.4-.3s-12.17.75-15.7-.82c-1.2-.45-.9-1.28-1.73-2s-2.41-.15-2.48-1.43c0-55.52,1.35-112.1,1-168.9-1.26,0-4.49-1.9-4.72-.32Zm15.17,15.7h0c0,1.28-.3,3.68.23,2.86-.3-6.16,1.13-12,.3-17.73-.23,4.43-.6,10.44-.53,14.87Zm6.46-13.44h0c1.5,9.17-1.2,20.29.23,28.93-.45-2.7.68-9.24.9-13.22.15-5-.23-10.22,0-16.53h-.9c0,.37-.3.37-.23.82Zm4.36,11.79h0v-12.32c-.07-.22-.07-.6-.3-.6a41,41,0,0,0,.3,12.92Zm4.89-12.1h0c1.2,18.33-.9,37.12-1.13,53.87-.3,1.35-1.35.08-1.73,1.13,2.85.3,7.29-.15,11,0v-55.82c-2.4.37-8-.91-8.11.82Zm14.26,55.08h0c2.1.6,5.33.08,7.89.23.38-18.33.3-37.11.3-55.82h-7.29c-1.05,17.8-.15,37.49-.9,55.59Zm13.22-55.08h0c0,18.48-.08,37,.3,55,8.64-.23,16.45.38,24.94.3.23-18.71.83-37.19,1.13-55.82-8.11-.68-17.5-.08-26.06-.3-.39.07-.31.45-.31.82Zm31.7,55.49h8.41c-.15-18.86.23-37.19.3-55.82-2.25-.68-5.71-.15-8.41-.3-.68,18.18-.15,37.49-.3,56.12Zm12.09-55.18h0c-.3,18.26-.37,36.74-.3,55.3,7.44-.23,15,.83,22.16,0,.53-18.33.6-37.19.53-56.12H281.39c-.31.07-.31.45-.23.82Zm-92.91,33.65h0c1.73-7.51.68-16.23.83-25.25-.53-.08-.23-1-.83-1.13.38,9-.83,17.89,0,26.38Zm19.08,6.46h0c0,.3.38.22.3-.3.08-9.84,1.2-21.87,0-30.58.07,10.45-.53,20.29-.3,30.88Zm-11.5,10.67h0c0,1.43-.75,3.91.83,4.81,1.5-1,.83-3.08.83-4.51.07-12.7.23-26.37-.52-37.87-1.21,11.13-1.14,25.33-1.14,37.57Zm6.77-1.65h0c1.73-3.61.68-11,.23-14.65.06,4.81-1,10.07-.23,14.65Zm-8.72-1.43h0a42.17,42.17,0,0,0,0-10.67c-.37,3.54.08,7.67,0,10.67Zm-3.38,7h0c.6-3.38,1.5-9,.3-12.32a76.48,76.48,0,0,0-.3,12.32Zm11.49.3h0c2.4,0,2.48-5.11,1.43-6.76-.22,2.55-1.2,4.28-1.43,6.76Zm-12.91.6h0c-.07-.9.3-3.68-.23-3.16.08.91-.3,3.69.23,3.16Zm-1.08,5h.85c-.15,4.66,0,8.41-.85,13.45v7c1.37.68,1-2,1-2.78v-3.61c.08-4.66,1.51-11.34-1-14.88v.83Zm5.88,15h0c0,.3.15.68.3.23,2.55-4.21,2.78-9.47,3.08-15.71h-2.85a138,138,0,0,1-.53,15.48Zm8.25-14.51h0c-2.48,3.68-1.13,10.14-1.13,16,0,13.07.3,26.22.3,38.47,5.63.07,10.67-.53,16.52-.3.45-17.58.45-37.12,0-54.7-5.33.23-9.84-.45-15.17-.3a.77.77,0,0,0-.52.83Zm21.8,54h7.29q.34-26.93.83-53.87c-2-.6-5.11-.08-7.58-.23-.47,17.74-.62,35.85-.54,54.1Zm13.74-53.27h0c.38,17.66.38,35.69.83,53.27h23.58c.52-17.81.3-36,.52-53.57-7.59-.75-16.75.15-24.41-.53-.37.08-.59.31-.52.83Zm30.79,53.11h0a71.35,71.35,0,0,1,8.19.3c.6-17.58.52-35.76.82-53.57-2.18-.68-5.48-.15-8.11-.3-.67,17.43-.82,35.54-.9,53.57Zm12.1-52.74h0c-.23,18,.37,35.16.3,53.05,7.74-.23,14.57.38,21.86.6.3-16.61.38-35.76.3-53.65-7.36-.22-14.42-.68-21.86-.83a.81.81,0,0,0-.6.83Zm-87.28,37.34h0c0,4.58.3,9,.6,12.92.08,1.05-.75,3.23.83,3.61,1.5-.83.83-3.31.83-4.73,0-11.87.68-24,.9-35.39-.07-.15-.07-.3-.3-.3-3.46,5.33-2.86,14.5-2.86,23.89ZM188,1641.57h0c.6-9.17,2-22-.23-30.36.53,10.38-1,21.5.23,30.36Zm2.85-.3h0c-.23-4.58.38-9.92-.3-14,.6,4.81-1.05,10.37.3,14Zm-3.38,32.53h0c1.2-8.34.23-18.86.83-27.8h-.83c.3,9.39-.9,18.78,0,27.8Zm2.26-16.22h0c1.43-.68.83-3.46.83-5.63,0-2.33.3-5-.3-5.86-.76,3.22.22,8.25-.53,11.49Zm4.5-10.76h0c.15,8.49.15,17.66,0,25.25-.08,1.73-.6,3.83.23,3.61.9-9.09,1.43-21,.3-29.68h-.52c0,.23,0,.53,0,.82Zm8.42-.51h0c-1.43,10.52-.15,23.14-.3,34.26,5.63.22,10.59-.3,16-.3-.23-11.19.38-23,0-33.36-5.34-.15-10.75-.15-15.7-.6Zm21.55.63h0c-.6,10.45-.07,22.17-.23,33.06H232c-.9-10.29-.68-21.71-.83-32.83-1.87-.52-4.72-.15-7-.23Zm14.65.19h0c-.75,10.75-.6,22.32-1.13,33.13,8.19.08,15.77.83,23.81,1.13.45-11,.45-22.61.6-34-8.11.23-15.4-.3-23.28-.3Zm30-.13h0c-.68,10.89-.08,22.91-.3,34.26,2.7.08,5.26.38,7.89.53.68-10.82.07-24.34.3-34.79Zm12.45.43h0c-.6,10.74-1.2,24,0,35.09,2.48-.38,3.08-2.86,5.86-3.08,1.2-.07,2.48.68,4.2.83,1.5.15,2.63-.37,3.68,0,2.86,1,5.41,7.44,4.73,11.5-1.82,11.69-22.9,1.52-32,4.91l.31,2.15c10.67,1.13,23.27.38,34.23,1.35q.67-25.8.83-52.14c-6.69-.83-14.5-.53-21.86-.61Zm-84.56,29.75h0c.08.83.15,2.1,1.13,2.55-.07-9.84-.07-18.33-.52-28.1.74,8.2-1.36,18.27-.61,25.55Zm-4.66,2.9h0c1-.3.6-1.95.83-3.08H192v3.08Zm-.37,6.12h0c1.13-.08.52-4.43.3-4a16.52,16.52,0,0,1-.3,4Zm-2.78,0h0a2.91,2.91,0,0,0-.6-2.25c0,.9-.07,2,.6,2.25Zm13.15-.9h0c4.66.38,12.24.68,16,0-5.11-.52-10.67-.75-16-1v1Zm30,1.13h0c-1.73-.9-5.86-1-8.11-.53,2.25.6,5.78-.07,8.11.53Zm5.86.3h0c5.71.52,12.77,1,18.25,1.43,1.73.15,4.43,1,5.63-.6-1.13-1.35-3.53-1-5.33-1.13-6.46-.23-13.07-.23-19.08-.23,0,.3.08.6.53.53Zm30.1,1.72h0c2.25-.37,5.93.68,7.29-.6-1.35-1.35-4.81-.68-7.29-.83v1.43ZM187,1692h1.73a4.79,4.79,0,0,1,.52-2.86c-.52-.37-1.43.3-2.25-.23V1692Zm5.76-2.49h0c.83.07,1.43,0,1.65-.53-.53.15-1.95-.45-1.65.53Zm31.24,6.23h0v3.32c12.74-.15,26,.38,38,0v-3.32c-12.14-.31-26.62-1.74-38,0Z" transform="translate(2.17)"/><path class="cls-5" d="M184.87,1754.12c-1.13,8.49.23,18.86-.83,28,27.12.6,56.71.68,84.72,1.95,9,.45,18.55-.15,25.54,3.38.3,2.26-.15,2.41.6,4.51-36.95-1-77.44-.75-113.94-3.08-2.25-5-1.8-12.85-1.65-21.34.08-5,1.35-11.57.23-14.35-.53-1.35-.53-.6-1.35-1.35-3.08-2.78,1.73-4.43,4.51-4.81,8.71-1,18.93.3,29.44.3,24.41,0,46.64,2.25,71,3.08,2.55.08,11.19-.3,11.19,3.38,0,3.15-7.51,2.78-11,2.78-13.15,0-26.44-1.35-38.68-1.65-19.31-.44-40.71-.37-59.79-.82Z" transform="translate(2.17)"/><rect class="cls-7" x="0.03" width="3842.14" height="2397"/></g><path class="cls-8" d="M.5,1210.6v2.1l-2.14-1.45.21-1.9,1.43.92Z" transform="translate(2.17)"/><path class="cls-8" d="M.5,1191.43v19.17l-.5-.33-1.43-.92,0-.31Q-.46,1200.24.5,1191.43Z" transform="translate(2.17)"/><path class="cls-8" d="M.5,1797.5v2.41a14.13,14.13,0,0,0-.34-2.41Z" transform="translate(2.17)"/><path class="cls-8" d="M.5,1802.94v5.25c-.15.94-.32,1.8-.5,2.53v-3c.18-1.11.33-2.33.42-3.57,0-.15,0-.31,0-.46S.49,1803.18.5,1802.94Z" transform="translate(2.17)"/></svg>