<svg width="3840" height="2397" viewBox="0 0 3840 2397" fill="none" xmlns="http://www.w3.org/2000/svg">

<g id="skyline2 1" class="will" clip-path="url(#clip0)">
<g id="skyline2">
<path class="will" id="Vector" d="M824.41 1184.84V1133.39H812.82H649.09H637.52V1184.84H649.09V1195.64H637.52V1207.26H649.09V1216.91H637.52V1228.54H649.09V1238.19H637.52V1249.81H649.09V1259.47H637.52V1271.09H649.09V1280.75H637.52V1292.37H649.09V1302.03H637.52V1313.65H649.09V1323.3H637.52V1334.92H649.09V1344.59H637.52V1356.2H649.09V1365.86H637.52V1377.48H649.09V1387.14H637.52V1398.76H649.09V1408.41H637.52V1420.03H649.09V1429.69H637.52V1441.31H649.09V1450.98H637.52V1462.59H649.09V1472.25H637.52V1483.87H649.09V1493.53H637.52V1505.15H649.09V1514.79H637.52V1526.42H649.09V1536.08H637.52V1547.71H649.09V1557.36H637.52V1568.98H649.09V1578.64H637.52V1590.25H649.09V1599.91H637.52V1611.54H649.09V1621.19H637.52V1632.82H649.09V1642.48H637.52V1654.09H649.09V1663.75H637.52V1675.37H649.09V1692.8H812.82V1675.37H824.41V1663.75H812.82V1654.09H824.41V1642.48H812.82V1632.82H824.41V1621.19H812.82V1611.54H824.41V1599.91H812.82V1590.25H824.41V1578.64H812.82V1568.98H824.41V1557.36H812.82V1547.71H824.41V1536.08H812.82V1526.42H824.41V1514.79H812.82V1505.15H824.41V1493.53H812.82V1483.87H824.41V1472.25H812.82V1462.59H824.41V1450.98H812.82V1441.31H824.41V1429.69H812.82V1420.03H824.41V1408.41H812.82V1398.76H824.41V1387.14H812.82V1377.48H824.41V1365.86H812.82V1356.2H824.41V1344.59H812.82V1334.92H824.41V1323.3H812.82V1313.65H824.41V1302.03H812.82V1292.37H824.41V1280.75H812.82V1271.09H824.41V1259.47H812.82V1249.81H824.41V1238.19H812.82V1228.54H824.41V1216.91H812.82V1207.26H824.41V1195.64H812.82V1184.84H824.41Z" fill="#777777"/>
<path id="Vector_2" d="M616.57 1207.26V1133.39H600.03V1105.17H581.01V1122.59H557.87V1133.39H544.63L433 1183.37V1207.26H441.26V1216.91H433V1228.54H441.26V1238.19H433V1249.81H441.26V1259.47H433V1271.09H441.26V1280.75H433V1292.37H441.26V1302.03H433V1313.65H441.26V1323.3H433V1334.92H441.26V1344.59H433V1356.2H441.26V1365.86H433V1692.8H605V1675.37H616.57V1663.75H605V1654.09H616.57V1642.48H605V1632.82H616.57V1621.19H605V1611.54H616.57V1599.91H605V1590.25H616.57V1578.64H605V1568.98H616.57V1557.36H605V1547.71H616.57V1536.08H605V1526.42H616.57V1514.79H605V1505.15H616.57V1493.53H605V1483.87H616.57V1472.25H605V1462.59H616.57V1450.98H605V1441.31H616.57V1429.69H605V1420.03H616.57V1408.41H605V1398.76H616.57V1387.14H605V1377.48H616.57V1365.86H605V1356.2H616.57V1344.59H605V1334.92H616.57V1323.3H605V1313.65H616.57V1302.03H605V1292.37H616.57V1280.75H605V1271.09H616.57V1259.47H605V1249.81H616.57V1238.19H605V1228.54H616.57V1216.91H605V1207.26H616.57Z" fill="#777777"/>
<path id="Vector_3" d="M3329.9 1440.09H3191.03L3165 1427V1440.09V1457.58V1701H3355.93V1457.58V1440.09V1427L3329.9 1440.09Z" fill="#777777"/>
<path id="Vector_4" d="M3597.96 984.68V992.18H3605.57C3605.09 993.94 3604.59 995.73 3604.12 997.53H3594.66V1005.03H3602.12C3577.7 1098.38 3557.59 1228.94 3557.59 1362.36C3557.59 1362.62 3557.6 1574.98 3557.6 1684.89H3517.8C3517.8 1684.59 3517.79 1352.63 3517.79 1352.33C3517.79 1237.61 3537.91 1125.36 3562.32 1045.1H3554.86V1038.66H3564.32C3564.8 1037.11 3565.3 1035.57 3565.77 1034.05H3558.16V1027.6H3567.89C3588.19 966.4 3610.56 927.81 3626.52 927.65C3620.2 943.89 3613.85 963.08 3607.69 984.69H3597.96V984.68Z" fill="#91E5F9"/>
<path id="Vector_5" d="M3735.44 1352.33V1684.89H3557.6C3557.6 1574.98 3557.59 1362.63 3557.59 1362.36C3557.59 1228.94 3577.71 1098.38 3602.12 1005.03H3594.66V997.53H3604.12C3604.6 995.73 3605.1 993.94 3605.57 992.18H3597.96V984.68H3607.69C3613.85 963.07 3620.21 943.88 3626.52 927.64H3626.62C3642.59 927.64 3665 966.27 3685.35 1027.59H3695.07V1034.04H3687.46C3687.95 1035.56 3688.44 1037.1 3688.92 1038.65H3698.38V1045.09H3690.91C3715.34 1125.36 3735.44 1237.61 3735.44 1352.33Z" fill="#39BAE2"/>
<path id="Vector_6" d="M1299.62 1664.66H1297.69V1654.69H1295.07V1432.82H1296.17V1431.56H1296.59L1298.52 1426.3H1295.07V1376.8L1296 1374.26H1296.17V1373.8L1297 1371.55H1296.17H1295.76V1369.01H1295.07V1366.29L1296.87 1361.4H1298.8V1358.5H1293.31V1353.24H1292.21V1347.98H1290.01V1340.73H1287.18V1327.31H1289.46V1324.59H1290.5V1322.41H1285.88V1319.32H1282.5V1314.25H1283.81V1310.62H1282.43V1307.35H1280.78V1279.25H1281.54V1276.53H1282.64V1274.9H1281.33V1272.36H1279.81V1267.04H1279.59L1279.63 1266.98L1277.99 1264.82V1263.47H1278.03C1278.37 1263.47 1278.63 1263.17 1278.63 1262.8C1278.63 1262.43 1278.36 1262.14 1278.03 1262.14H1277.99V1261.42C1277.99 1260.98 1277.77 1260.62 1277.49 1260.62C1277.21 1260.62 1276.99 1260.98 1276.99 1261.42V1262.14H1276.94C1276.61 1262.14 1276.34 1262.43 1276.34 1262.8C1276.34 1263.17 1276.61 1263.47 1276.94 1263.47H1276.99V1264.82L1275.35 1266.98L1275.4 1267.04H1274.37V1266.07H1273.31V1256.64H1273.59V1254.83H1272.72V1248.39C1272.9 1248.31 1273.04 1248.09 1273.04 1247.82C1273.04 1247.49 1272.83 1247.21 1272.58 1247.21H1272.06C1272.1 1247.14 1272.12 1247.06 1272.12 1246.97C1272.12 1246.71 1271.96 1246.48 1271.75 1246.48H1270.85L1269.93 1239.95H1270.55V1238.74H1269.92C1269.74 1236.42 1268.52 1234.5 1266.87 1233.82C1267.64 1233.56 1268.16 1233.08 1268.16 1232.52C1268.16 1231.87 1267.43 1231.31 1266.41 1231.1V1230.71C1267.38 1230.6 1268.07 1230.32 1268.07 1229.97C1268.07 1229.63 1267.38 1229.34 1266.41 1229.24V1225.66C1267.06 1225.24 1267.51 1224.35 1267.51 1223.33C1267.51 1221.9 1266.63 1220.73 1265.54 1220.73C1264.45 1220.73 1263.56 1221.9 1263.56 1223.33C1263.56 1224.35 1264.01 1225.24 1264.67 1225.66V1229.24C1263.7 1229.35 1263.01 1229.64 1263.01 1229.97C1263.01 1230.31 1263.7 1230.6 1264.67 1230.71V1231.1C1263.65 1231.3 1262.92 1231.86 1262.92 1232.52C1262.92 1233.08 1263.44 1233.56 1264.21 1233.82C1262.57 1234.5 1261.35 1236.43 1261.16 1238.74H1260.53V1239.95H1261.15L1260.23 1246.48H1259.33C1259.13 1246.48 1258.96 1246.7 1258.96 1246.97C1258.96 1247.06 1258.98 1247.14 1259.01 1247.21H1258.5C1258.24 1247.21 1258.04 1247.49 1258.04 1247.82C1258.04 1248.09 1258.18 1248.31 1258.36 1248.39V1254.83H1257.49V1256.64H1257.76V1266.07H1256.7V1267.04H1255.67L1255.72 1266.98L1254.08 1264.82V1263.47H1254.12C1254.45 1263.47 1254.72 1263.17 1254.72 1262.8C1254.72 1262.43 1254.45 1262.14 1254.12 1262.14H1254.08V1261.42C1254.08 1260.98 1253.85 1260.62 1253.57 1260.62C1253.29 1260.62 1253.07 1260.98 1253.07 1261.42V1262.14H1253.03C1252.7 1262.14 1252.43 1262.43 1252.43 1262.8C1252.43 1263.17 1252.7 1263.47 1253.03 1263.47H1253.07V1264.82L1251.43 1266.98L1251.47 1267.04H1251.25V1272.36H1249.73V1274.9H1248.42V1276.53H1249.52V1279.25H1250.28V1307.35H1248.63V1310.62H1247.25V1314.25H1248.56V1319.32H1245.18V1322.41H1240.56V1324.59H1241.59V1327.31H1243.87V1340.73H1241.04V1347.98H1238.83V1353.24H1237.73V1358.5H1236.55V1362.25H1233.49V1344.71H1222.71C1223.07 1343.11 1222.71 1341.11 1222.65 1339.59C1222.59 1337.94 1222.3 1336.34 1222.29 1334.68C1222.29 1333.58 1223.04 1332.36 1223.26 1331.28C1223.49 1330.2 1223.17 1329.41 1222.65 1328.85C1223.07 1328.53 1223.28 1327.95 1223.16 1327.28C1223.01 1326.41 1222.85 1325.61 1222.29 1325.05C1221.62 1324.38 1219.6 1324.38 1219.48 1323C1219.33 1321.34 1218.93 1320.39 1218.09 1319.92C1218.43 1317.89 1217.86 1315.78 1216.1 1316.17C1214.44 1315.75 1214.03 1317.54 1214.09 1319.71C1214.11 1320.28 1212.41 1320.96 1212.08 1321.5C1211.77 1322 1211.68 1322.59 1211.68 1323.18C1210.14 1323.18 1208.1 1323.37 1208.23 1325.69C1208.34 1327.76 1209.66 1328.2 1210.99 1328.28C1211.06 1329.66 1211.12 1330.87 1211.87 1332.13C1211.89 1332.16 1211.91 1332.19 1211.93 1332.21C1211.97 1332.47 1212.01 1332.74 1212.06 1332.99C1212.2 1335.43 1212.42 1337.83 1212.42 1339.93C1212.42 1341.3 1212.2 1343.16 1212.47 1344.69H1207.44V1349.51L1191.41 1338.62V1324.11H1193.14V1321.58H1191.31V1274.8C1193 1274.53 1193.91 1274.25 1193.91 1273.96C1193.91 1273.63 1192.8 1273.33 1190.77 1273.04H1191.22V1259.43H1180.43V1239.64C1181.81 1239.24 1182.55 1238.81 1182.55 1238.37C1182.55 1237.95 1181.88 1237.55 1180.65 1237.17C1179.12 1212.63 1165.87 1188.68 1148.28 1181.42V1178.89C1149.12 1178.56 1149.6 1178.17 1149.6 1177.77C1149.6 1177.44 1149.28 1177.13 1148.71 1176.84V1175.29H1148.08V1170.92H1145.72V1168.19H1146.47V1165.47H1145.65V1149.07H1146.29V1146.12H1145.57C1145.68 1145.98 1145.74 1145.78 1145.74 1145.56C1145.74 1145.28 1145.63 1145.05 1145.47 1144.9C1145.51 1144.81 1145.54 1144.7 1145.54 1144.58C1145.54 1144.22 1145.32 1143.93 1145.06 1143.91V1140.69C1145.06 1140.5 1144.94 1140.35 1144.8 1140.35C1144.66 1140.35 1144.54 1140.5 1144.54 1140.69V1143.91C1144.27 1143.93 1144.06 1144.21 1144.06 1144.58C1144.06 1144.7 1144.09 1144.8 1144.13 1144.9C1143.97 1145.05 1143.86 1145.28 1143.86 1145.56C1143.86 1145.78 1143.93 1145.98 1144.04 1146.12H1142.75V1136.41H1143.23V1134.22H1142.36V1133.55H1142.94V1132.2H1142.46V1131.69H1143.08C1142.92 1128.77 1141.5 1126.31 1139.54 1125.25V1124C1140.24 1123.81 1140.7 1123.52 1140.7 1123.2C1140.7 1122.85 1140.15 1122.54 1139.31 1122.35C1139.4 1122.15 1139.45 1121.93 1139.45 1121.7C1139.45 1121.4 1139.36 1121.11 1139.21 1120.85C1139.59 1120.67 1139.83 1120.43 1139.83 1120.15C1139.83 1119.68 1139.12 1119.29 1138.13 1119.15V1116.5C1138.81 1116.38 1139.29 1116.12 1139.29 1115.81C1139.29 1115.5 1138.81 1115.23 1138.13 1115.11V1114.97C1139.14 1114.55 1139.86 1113.3 1139.86 1111.84C1139.86 1110.38 1139.13 1109.13 1138.13 1108.71V1103.99C1138.63 1103.72 1139.02 1103.18 1139.21 1102.52H1140.28C1140.65 1102.52 1140.95 1102.11 1140.95 1101.6C1140.95 1101.1 1140.65 1100.69 1140.28 1100.69H1139.21C1139.02 1100.02 1138.63 1099.49 1138.13 1099.21V1097.33C1138.13 1096.58 1137.78 1095.98 1137.36 1095.98C1136.93 1095.98 1136.59 1096.58 1136.59 1097.33V1099.21C1136.09 1099.49 1135.71 1100.02 1135.52 1100.69H1134.45C1134.08 1100.69 1133.78 1101.1 1133.78 1101.6C1133.78 1102.11 1134.09 1102.52 1134.45 1102.52H1135.52C1135.71 1103.18 1136.1 1103.72 1136.59 1103.99V1108.71C1135.59 1109.13 1134.86 1110.38 1134.86 1111.84C1134.86 1113.3 1135.59 1114.55 1136.59 1114.97V1115.11C1135.91 1115.23 1135.43 1115.5 1135.43 1115.81C1135.43 1116.12 1135.91 1116.39 1136.59 1116.5V1119.15C1135.6 1119.29 1134.89 1119.68 1134.89 1120.15C1134.89 1120.42 1135.12 1120.66 1135.51 1120.85C1135.36 1121.1 1135.28 1121.39 1135.28 1121.7C1135.28 1121.93 1135.33 1122.14 1135.41 1122.35C1134.57 1122.54 1134.03 1122.85 1134.03 1123.2C1134.03 1123.52 1134.48 1123.81 1135.18 1124V1125.25C1133.21 1126.31 1131.8 1128.77 1131.64 1131.69H1132.26V1132.2H1131.78V1133.55H1132.36V1134.22H1131.49V1136.41H1131.97V1146.12H1130.62C1130.77 1145.98 1130.86 1145.75 1130.86 1145.5C1130.86 1145.22 1130.75 1144.98 1130.58 1144.84C1130.62 1144.75 1130.65 1144.64 1130.65 1144.52C1130.65 1144.16 1130.44 1143.87 1130.17 1143.86V1140.64C1130.17 1140.45 1130.05 1140.3 1129.91 1140.3C1129.77 1140.3 1129.65 1140.45 1129.65 1140.64V1143.86C1129.38 1143.88 1129.17 1144.17 1129.17 1144.53C1129.17 1144.66 1129.2 1144.76 1129.24 1144.85C1129.07 1144.99 1128.97 1145.23 1128.97 1145.51C1128.97 1145.76 1129.06 1145.99 1129.2 1146.13H1128.42V1149.08H1129.06V1165.48H1128.24V1168.2H1128.99V1170.93H1126.63V1175.3H1126.01V1176.85C1125.44 1177.14 1125.12 1177.45 1125.12 1177.78C1125.12 1178.18 1125.6 1178.57 1126.44 1178.9V1181.43C1108.85 1188.68 1095.61 1212.63 1094.07 1237.18C1092.84 1237.56 1092.17 1237.97 1092.17 1238.38C1092.17 1238.82 1092.91 1239.24 1094.29 1239.65V1259.44H1083.5V1273.05H1083.95C1081.91 1273.34 1080.81 1273.64 1080.81 1273.97C1080.81 1274.26 1081.72 1274.54 1083.41 1274.81V1321.59H1081.58V1324.12H1083.32V1338.63L1067.29 1349.52V1344.7H1062.26C1062.52 1343.17 1062.31 1341.31 1062.31 1339.94C1062.31 1337.84 1062.53 1335.44 1062.67 1333C1062.72 1332.74 1062.76 1332.48 1062.79 1332.22C1062.81 1332.19 1062.83 1332.17 1062.85 1332.14C1063.6 1330.88 1063.66 1329.68 1063.73 1328.29C1065.06 1328.21 1066.38 1327.76 1066.49 1325.7C1066.62 1323.38 1064.59 1323.19 1063.04 1323.19C1063.05 1322.6 1062.96 1322.01 1062.65 1321.51C1062.32 1320.97 1060.62 1320.29 1060.64 1319.72C1060.69 1317.55 1060.29 1315.75 1058.63 1316.18C1056.87 1315.78 1056.3 1317.9 1056.64 1319.93C1055.79 1320.4 1055.39 1321.36 1055.25 1323.01C1055.13 1324.38 1053.11 1324.39 1052.44 1325.06C1051.88 1325.62 1051.72 1326.42 1051.57 1327.29C1051.46 1327.95 1051.67 1328.54 1052.08 1328.86C1051.55 1329.42 1051.24 1330.21 1051.46 1331.29C1051.69 1332.37 1052.44 1333.59 1052.43 1334.69C1052.43 1336.35 1052.13 1337.96 1052.07 1339.6C1052.01 1341.12 1051.65 1343.12 1052.01 1344.72H1041.23V1362.26H1036.55V1358.51H1035.37V1353.25H1034.27V1347.99H1032.06V1340.74H1029.23V1327.32H1031.51V1324.6H1032.54V1322.42H1027.92V1319.33H1024.54V1314.26H1025.85V1310.63H1024.47V1307.36H1022.81V1279.26H1023.57V1276.54H1024.68V1274.91H1023.37V1272.37H1021.85V1267.05H1021.63L1021.67 1266.99L1020.03 1264.83V1263.48H1020.07C1020.4 1263.48 1020.67 1263.18 1020.67 1262.81C1020.67 1262.44 1020.4 1262.15 1020.07 1262.15H1020.03V1261.43C1020.03 1260.99 1019.8 1260.63 1019.53 1260.63C1019.25 1260.63 1019.02 1260.99 1019.02 1261.43V1262.15H1019C1018.67 1262.15 1018.4 1262.44 1018.4 1262.81C1018.4 1263.18 1018.67 1263.48 1019 1263.48H1019.04V1264.83L1017.4 1266.99L1017.45 1267.05H1016.43V1266.08H1015.37V1256.65H1015.65V1254.84H1014.78V1248.4C1014.96 1248.32 1015.1 1248.1 1015.1 1247.83C1015.1 1247.5 1014.9 1247.22 1014.64 1247.22H1014.12C1014.15 1247.15 1014.18 1247.07 1014.18 1246.98C1014.18 1246.72 1014.01 1246.49 1013.81 1246.49H1012.91L1011.99 1239.96H1012.61V1238.75H1011.98C1011.8 1236.43 1010.57 1234.51 1008.93 1233.83C1009.7 1233.57 1010.22 1233.09 1010.22 1232.53C1010.22 1231.88 1009.49 1231.32 1008.47 1231.11V1230.72C1009.44 1230.61 1010.12 1230.33 1010.12 1229.98C1010.12 1229.64 1009.43 1229.35 1008.47 1229.25V1225.67C1009.12 1225.25 1009.57 1224.36 1009.57 1223.34C1009.57 1221.91 1008.69 1220.74 1007.59 1220.74C1006.5 1220.74 1005.61 1221.91 1005.61 1223.34C1005.61 1224.36 1006.06 1225.25 1006.71 1225.67V1229.25C1005.75 1229.36 1005.05 1229.65 1005.05 1229.98C1005.05 1230.32 1005.74 1230.61 1006.71 1230.72V1231.11C1005.7 1231.31 1004.96 1231.87 1004.96 1232.53C1004.96 1233.09 1005.48 1233.57 1006.25 1233.83C1004.61 1234.51 1003.39 1236.44 1003.2 1238.75H1002.57V1239.96H1003.19L1002.27 1246.49H1001.37C1001.17 1246.49 1001 1246.71 1001 1246.98C1001 1247.07 1001.03 1247.15 1001.06 1247.22H1000.54C1000.29 1247.22 1000.08 1247.5 1000.08 1247.83C1000.08 1248.1 1000.22 1248.32 1000.4 1248.4V1254.84H999.53V1256.65H999.8V1266.08H998.75V1267.05H997.72L997.76 1266.99L996.12 1264.83V1263.48H996.16C996.49 1263.48 996.76 1263.18 996.76 1262.81C996.76 1262.44 996.49 1262.15 996.16 1262.15H996.12V1261.43C996.12 1260.99 995.9 1260.63 995.62 1260.63C995.34 1260.63 995.11 1260.99 995.11 1261.43V1262.15H995.07C994.74 1262.15 994.47 1262.44 994.47 1262.81C994.47 1263.18 994.74 1263.48 995.07 1263.48H995.11V1264.83L993.47 1266.99L993.52 1267.05H993.3V1272.37H991.78V1274.91H990.47V1276.54H991.57V1279.26H992.33V1307.36H990.68V1310.63H989.3V1314.26H990.61V1319.33H987.23V1322.42H982.61V1324.6H983.65V1327.32H985.93V1340.74H983.1V1347.99H980.89V1353.25H979.79V1358.51H974.3V1361.41H976.23L978.03 1366.3V1369.02H977.34V1371.56H976.93H976.1L976.93 1373.81V1374.27H977.1L978.03 1376.81V1426.31H974.58L976.51 1431.57H976.92V1432.83H978.02V1654.7H975.4V1664.67H973.47H970.09V1682.07H1303V1664.67H1299.62V1664.66ZM995.39 1307.36H994.15V1279.26H995.39V1307.36ZM1021.04 1307.36H1019.8V1279.26H1021.04V1307.36ZM1035.82 1361.78L1035.96 1361.39H1036.4L1035.82 1361.78ZM1088.33 1321.6H1086.5V1275.21C1087.07 1275.27 1087.68 1275.32 1088.33 1275.37V1321.6ZM1131.27 1165.52H1130.62V1149.12H1131.27V1165.52ZM1144.11 1165.52H1143.46V1149.12H1144.11V1165.52ZM1188.22 1321.6H1186.39V1275.37C1187.04 1275.32 1187.65 1275.26 1188.22 1275.21V1321.6ZM1236.71 1361.39H1237.15L1237.3 1361.78L1236.71 1361.39ZM1253.31 1307.36H1252.07V1279.26H1253.31V1307.36ZM1278.95 1307.36H1277.71V1279.26H1278.95V1307.36Z" fill="#777777"/>
<path id="Vector_7" d="M3689.17 1446.56L3681.8 1470.49C3677.69 1459.97 3673.43 1449.51 3669.09 1439.31H3689.15C3689.15 1437.33 3689.15 1435.35 3689.14 1433.39H3668.79L3679.56 1400.68C3682.83 1409.47 3686.03 1418.38 3689.11 1427.29C3689.07 1421.63 3689.02 1416 3688.94 1410.38C3687.5 1406.36 3686.03 1402.34 3684.52 1398.31H3688.76C3688.73 1396.33 3688.7 1394.37 3688.66 1392.39H3682.36L3688.29 1375.27C3688.16 1370.13 3688.02 1365 3687.87 1359.89L3679.32 1384.62C3675.92 1375.8 3672.41 1367.04 3668.9 1358.51H3687.82C3687.76 1356.53 3687.7 1354.55 3687.63 1352.59H3666.72L3678.31 1319.45C3681.42 1327.45 3684.43 1335.35 3687.3 1343.05C3687.09 1337.3 3686.86 1331.6 3686.61 1325.91C3685.56 1323.13 3684.48 1320.33 3683.39 1317.53H3686.24C3686.15 1315.55 3686.06 1313.57 3685.96 1311.61H3681.08V1311.58L3685.34 1299.41C3685.08 1294.71 3684.81 1290.04 3684.54 1285.37L3678.04 1303.9C3674.46 1294.9 3670.75 1285.73 3666.95 1276.56H3684C3683.87 1274.58 3683.74 1272.6 3683.62 1270.64H3664.74L3675.24 1241.93C3677.92 1249.02 3680.55 1256.08 3683.11 1263.01C3682.67 1256.55 3682.2 1250.13 3681.71 1243.76C3680.63 1240.9 3679.55 1238.03 3678.45 1235.13H3681.04C3680.87 1233.15 3680.72 1231.17 3680.55 1229.21H3679.34L3680.21 1225.24C3679.71 1219.28 3679.18 1213.37 3678.63 1207.5L3674.7 1225.33C3670.81 1215.15 3666.73 1204.62 3662.54 1193.92H3677.33C3677.14 1191.94 3676.93 1189.96 3676.73 1188H3663.17L3669.85 1161.87C3671.78 1167.14 3673.71 1172.47 3675.69 1177.86C3674.86 1170.16 3674 1162.54 3673.11 1155.03C3673.06 1154.88 3672.99 1154.72 3672.94 1154.56H3673.06C3672.12 1146.72 3671.16 1139 3670.16 1131.38L3668.45 1142.29C3664.98 1132.8 3661.58 1123.43 3658.23 1114.15H3667.81C3667.4 1111.25 3666.99 1108.38 3666.56 1105.52H3658.43L3662.35 1079.15C3662.43 1079.36 3662.49 1079.57 3662.57 1079.77C3660.62 1067.8 3658.56 1056.16 3656.42 1044.88C3654.87 1040.19 3653.36 1035.59 3651.93 1031.1H3653.73C3653.33 1029.11 3652.92 1027.14 3652.52 1025.18H3650.04L3649.64 1023.95L3650.65 1016.35C3649.53 1011.2 3648.4 1006.14 3647.26 1001.19L3645.86 1011.76C3643.63 1004.45 3641.56 997.43 3639.69 990.81H3644.81C3644.32 988.82 3643.85 986.84 3643.35 984.89H3638.04L3637.92 984.49L3638.31 965.62C3636.27 958.2 3634.18 951.04 3632.02 944.15H3629.16L3630.42 939.03C3629.38 935.75 3628.31 932.55 3627.24 929.42L3625.8 935.28L3624.48 929.28L3627.18 929.22C3625.13 923.2 3623.03 917.41 3620.9 911.9C3609.13 918.45 3574.12 950.72 3535.89 1108.04C3523.94 1157.2 3487.33 1344.45 3517.93 1689.71L3518.49 1696.04H3677.42C3677.88 1691.4 3678.33 1686.73 3678.77 1682.02H3668.64L3671.9 1673.2H3679.55C3679.73 1671.23 3679.91 1669.26 3680.08 1667.28H3674.1L3680.16 1650.87C3680.51 1651.89 3680.85 1652.91 3681.17 1653.91C3681.85 1645.52 3682.48 1637.03 3683.07 1628.47L3680.32 1635.32C3676.94 1626.3 3672.99 1616.36 3668.52 1605.67H3684.53C3684.63 1603.7 3684.75 1601.73 3684.86 1599.75H3668.49L3681.4 1568.01C3682.95 1572.18 3684.46 1576.31 3685.89 1580.38C3686.11 1575.72 3686.33 1571.03 3686.54 1566.32C3686.18 1565.36 3685.82 1564.4 3685.46 1563.45H3686.65C3686.74 1561.48 3686.82 1559.51 3686.89 1557.53H3685.48L3687.07 1553.17C3687.3 1547.37 3687.51 1541.55 3687.7 1535.71L3681.42 1552.88C3677.54 1542.9 3673.36 1532.58 3668.93 1522.12H3688.1C3688.16 1520.14 3688.22 1518.16 3688.27 1516.19H3669.01L3681.9 1485.98C3684.2 1492.1 3686.42 1498.2 3688.54 1504.24C3688.64 1499.2 3688.75 1494.14 3688.82 1489.04C3687.9 1486.53 3686.96 1484.03 3686.01 1481.52H3688.92C3688.95 1479.55 3688.97 1477.58 3688.98 1475.6H3685.85L3689.09 1465.13C3689.14 1458.93 3689.17 1452.76 3689.17 1446.56ZM3664.59 1428.91C3660.06 1418.55 3655.37 1408.3 3650.65 1398.31H3674.64L3664.59 1428.91ZM3571.61 1635.28L3559.75 1605.63H3583.41C3578.93 1616.36 3574.98 1626.3 3571.61 1635.28ZM3571.78 1650.83L3577.85 1667.24H3566.6C3568.01 1662.3 3569.74 1656.8 3571.78 1650.83ZM3625.97 1036.21C3628.85 1045.47 3632.05 1055.32 3635.91 1066.74H3616.02C3619.87 1055.33 3623.08 1045.47 3625.97 1036.21ZM3625.95 1017.07L3620.12 990.79H3631.78L3625.95 1017.07ZM3621.27 1193.87C3618.74 1199.28 3613.94 1209.63 3607.74 1223.57L3596.24 1193.65L3621.27 1193.87ZM3597.64 1187.74C3601.63 1177.62 3605.38 1168.2 3608.82 1159.62L3621.36 1187.96L3597.64 1187.74ZM3576.68 1311.61C3580.97 1300.7 3585.49 1289.54 3590.11 1278.37L3603.02 1311.61H3576.68ZM3600.84 1317.53C3596.67 1326.63 3592.52 1336.01 3588.46 1345.53L3578.65 1317.53H3600.84ZM3573.89 1303.92L3564.3 1276.57H3584.98C3581.2 1285.69 3577.49 1294.86 3573.89 1303.92ZM3585.22 1352.58H3561.51L3561.33 1352.01C3565.16 1341.54 3569.28 1330.6 3573.62 1319.44L3585.22 1352.58ZM3583.03 1358.5C3579.51 1367.04 3576.01 1375.8 3572.61 1384.61L3563.56 1358.5H3583.03ZM3583.13 1433.38H3560.72C3564.43 1422.47 3568.35 1411.49 3572.38 1400.67L3583.13 1433.38ZM3582.83 1439.3C3578.48 1449.52 3574.22 1459.98 3570.13 1470.47L3560.53 1439.3H3582.83ZM3582.91 1516.15H3559.25C3562.55 1506.36 3566.16 1496.22 3570.01 1485.95L3582.91 1516.15ZM3574 1481.48H3600.98C3596.2 1491.8 3591.57 1502.16 3587.17 1512.31L3574 1481.48ZM3573.98 1475.55C3578.13 1464.83 3582.5 1454.02 3587.04 1443.34L3601.07 1475.55H3573.98ZM3577.28 1398.3H3601.29C3596.54 1408.32 3591.87 1418.57 3587.35 1428.89L3577.28 1398.3ZM3575.5 1392.38C3579.58 1381.66 3583.84 1370.91 3588.18 1360.38L3601.47 1392.38H3575.5ZM3593.28 1358.5H3621.23C3618.32 1363.96 3612.83 1374.4 3605.85 1388.78L3593.28 1358.5ZM3591.44 1352.58C3596.29 1341.04 3601.23 1329.77 3606.15 1319.03L3621.61 1352.58H3591.44ZM3595.22 1276.57H3620.96C3617.97 1282.01 3612.9 1291.85 3606.45 1305.47L3595.22 1276.57ZM3593.31 1270.66C3597.96 1259.6 3602.72 1248.48 3607.5 1237.57L3621.75 1270.67L3593.31 1270.66ZM3604.09 1229.2H3581.55C3585.41 1219.08 3589.2 1209.28 3592.86 1199.93L3604.09 1229.2ZM3602.63 1235.13C3598.48 1244.59 3594.38 1254.14 3590.4 1263.62L3579.96 1235.13H3602.63ZM3587.21 1270.66H3566C3569.48 1261.2 3573.06 1251.56 3576.69 1241.95L3587.21 1270.66ZM3561.95 1266.01L3557.15 1235.13H3573.49C3569.47 1245.72 3565.61 1256.08 3561.95 1266.01ZM3570.86 1311.59L3551.35 1311.6C3554.44 1302.7 3557.74 1293.42 3561.17 1283.92L3570.86 1311.59ZM3568.55 1317.53C3565.08 1326.49 3561.73 1335.31 3558.58 1343.85L3549.7 1317.53H3568.55ZM3569.57 1392.38H3547.25C3550.73 1381.88 3554.48 1371.05 3558.39 1360.12L3569.57 1392.38ZM3567.4 1398.3C3563.72 1408.19 3560.17 1418.08 3556.83 1427.8L3547.15 1398.3H3567.4ZM3566.07 1475.55H3547.33C3550.3 1465.47 3553.45 1455.31 3556.74 1445.29L3566.07 1475.55ZM3565.9 1481.48C3562.27 1491.11 3558.8 1500.77 3555.55 1510.27L3547.24 1481.48H3565.9ZM3566.44 1557.49H3546.45C3549.17 1547.8 3552.21 1537.76 3555.5 1527.58L3566.44 1557.49ZM3559.26 1522.09H3582.98C3578.54 1532.59 3574.34 1542.9 3570.49 1552.83L3559.26 1522.09ZM3587.26 1525.92L3601.82 1557.5H3574.49C3578.41 1547.33 3582.69 1536.74 3587.26 1525.92ZM3591.49 1522.09H3621.47C3618.76 1527.63 3613.09 1539.35 3606.26 1554.07L3591.49 1522.09ZM3591.44 1516.15C3595.95 1505.7 3600.66 1495.18 3605.45 1484.8L3621.39 1516.15H3591.44ZM3605.43 1471.96L3591.19 1439.3H3621.37C3618.35 1445.24 3612.62 1456.73 3605.43 1471.96ZM3591.31 1433.38C3595.97 1422.68 3600.81 1412.04 3605.73 1401.65L3621.46 1433.38H3591.31ZM3610.15 1398.3H3641.78L3625.96 1430.19L3610.15 1398.3ZM3610.16 1392.38C3617.37 1377.5 3623.01 1366.76 3625.96 1361.27C3628.91 1366.76 3634.54 1377.5 3641.75 1392.38H3610.16ZM3611.45 1317.53H3640.49L3625.97 1349.04L3611.45 1317.53ZM3609.59 1311.61C3616.55 1296.68 3622.34 1285.26 3625.53 1279.48L3625.97 1280.49L3626.41 1279.48C3629.61 1285.28 3635.4 1296.69 3642.35 1311.61H3609.59ZM3625.97 1266.73L3612.36 1235.13H3639.56L3625.97 1266.73ZM3611.19 1229.2C3617.97 1213.92 3623.18 1202.64 3625.97 1196.69C3628.74 1202.62 3633.95 1213.89 3640.75 1229.2H3611.19ZM3612.5 1154.55H3639.41L3625.97 1184.9L3612.5 1154.55ZM3613.23 1148.63C3616.05 1141.59 3618.6 1135.31 3620.74 1130.03L3621.24 1128.78C3623.45 1123.35 3624.94 1119.67 3625.96 1117.1C3626.96 1119.62 3628.37 1123.12 3630.36 1128.04L3630.66 1128.76C3632.91 1134.29 3635.63 1141.02 3638.7 1148.63H3613.23ZM3625.95 1103L3615.27 1072.66H3636.62L3625.95 1103ZM3616.38 1126.36C3614.31 1131.45 3611.84 1137.56 3609.06 1144.44L3600.74 1114.14H3621.31C3620.11 1117.13 3618.41 1121.36 3616.38 1126.36ZM3597.02 1120.88L3604.65 1148.62H3586.93C3590.34 1139.27 3593.71 1130.03 3597.02 1120.88ZM3594.02 1072.66H3608.31C3605.13 1081.96 3601.76 1091.57 3598.28 1101.32L3594.02 1072.66ZM3605 1154.55C3601.43 1163.43 3597.48 1173.34 3593.28 1184L3585.74 1154.55H3605ZM3577.24 1225.3L3570.35 1194.15L3570.62 1193.42L3589.52 1193.6C3585.57 1203.66 3581.45 1214.28 3577.24 1225.3ZM3572.62 1229.2H3557.91C3560.94 1220.52 3563.96 1211.96 3566.95 1203.6L3572.62 1229.2ZM3555.04 1221L3550.97 1193.24L3564.68 1193.37L3564.74 1193.71C3561.55 1202.6 3558.3 1211.71 3555.04 1221ZM3553 1243.33L3557.27 1270.66L3543.74 1270.65C3546.57 1262.16 3549.56 1253.32 3553 1243.33ZM3558.08 1276.57C3554.33 1286.86 3550.75 1296.91 3547.39 1306.51L3543.05 1276.57H3558.08ZM3555.59 1351.94L3555.37 1352.58H3537.58C3540.37 1343.92 3543.39 1334.78 3546.62 1325.3L3555.59 1351.94ZM3553.24 1358.5C3549.93 1367.72 3546.77 1376.85 3543.79 1385.69L3537.27 1358.5H3553.24ZM3552.99 1433.38H3534.54C3537.26 1423.9 3540.24 1414.1 3543.41 1404.17L3552.99 1433.38ZM3552.95 1439.3C3549.66 1449.24 3546.51 1459.23 3543.55 1469.09L3534.54 1439.3H3552.95ZM3543.63 1488.37L3551.64 1516.15H3536.31C3538.56 1507.05 3541.01 1497.74 3543.63 1488.37ZM3551.61 1522.09C3548.54 1531.46 3545.65 1540.84 3542.98 1550.05L3536.25 1522.09H3551.61ZM3566.45 1563.41C3562.52 1573.91 3558.93 1584.1 3555.74 1593.78L3546.45 1563.41H3566.45ZM3570.52 1567.97L3583.45 1599.71H3559.48C3562.74 1589.61 3566.44 1578.96 3570.52 1567.97ZM3574.54 1563.41H3601.94C3596.8 1574.66 3592 1585.47 3587.65 1595.63L3574.54 1563.41ZM3606.25 1567.09L3621.3 1599.71H3591.81C3596.22 1589.39 3601.08 1578.44 3606.25 1567.09ZM3610.56 1563.41H3641.37L3625.97 1596.82L3610.56 1563.41ZM3640.68 1639.88H3611.24C3617.45 1625.94 3623.15 1614.05 3625.96 1608.27C3628.77 1614.04 3634.45 1625.91 3640.68 1639.88ZM3610.67 1557.49C3617.4 1542.96 3622.98 1531.41 3625.97 1525.31C3628.95 1531.41 3634.53 1542.96 3641.27 1557.49H3610.67ZM3609.88 1481.48H3642.04L3625.97 1513.09L3609.88 1481.48ZM3609.77 1475.55C3617.07 1460.03 3622.9 1448.36 3625.97 1442.34C3628.81 1447.95 3634.76 1459.85 3642.17 1475.55H3609.77ZM3646.21 1401.66C3651.14 1412.08 3655.98 1422.73 3660.61 1433.39H3630.48L3646.21 1401.66ZM3646.08 1388.78C3639.07 1374.37 3633.6 1363.95 3630.69 1358.5H3658.64L3646.08 1388.78ZM3630.33 1352.58L3645.79 1319.03C3650.73 1329.83 3655.67 1341.09 3660.5 1352.58H3630.33ZM3645.48 1305.47C3639.01 1291.84 3633.95 1282 3630.96 1276.57H3656.7L3645.48 1305.47ZM3630.2 1270.64L3644.42 1237.58C3649.25 1248.58 3654.01 1259.68 3658.59 1270.64H3630.2ZM3644.2 1223.58C3637.95 1209.54 3633.2 1199.27 3630.68 1193.91H3655.58L3644.2 1223.58ZM3630.55 1187.99L3643.1 1159.6C3646.57 1168.24 3650.37 1177.77 3654.38 1187.99H3630.55ZM3642.87 1144.47C3640.08 1137.57 3637.61 1131.44 3635.53 1126.33C3633.51 1121.35 3631.81 1117.13 3630.61 1114.15H3651.17L3642.87 1144.47ZM3649.4 1105.51H3630.81L3640.1 1079.01C3643.2 1088 3646.31 1096.88 3649.4 1105.51ZM3643.63 1072.66H3657.89L3653.64 1101.34C3650.2 1091.68 3646.84 1082.06 3643.63 1072.66ZM3639.25 1059.76C3635.54 1048.71 3632.61 1039.61 3629.98 1031.08H3643.25L3639.25 1059.76ZM3612.69 1059.71L3608.66 1031.08H3621.93C3619.33 1039.54 3616.35 1048.79 3612.69 1059.71ZM3611.81 1079.05L3621.12 1105.51H3602.53C3605.59 1096.93 3608.71 1088.06 3611.81 1079.05ZM3595.86 1066.74C3598.72 1058.32 3601.59 1049.57 3604.54 1040.15L3608.3 1066.74H3595.86ZM3592.91 1058.56L3591.31 1031.08H3601.73C3598.84 1040.45 3595.89 1049.66 3592.91 1058.56ZM3583.76 1141.5L3580.61 1114.15H3593.69C3590.43 1123.16 3587.13 1132.27 3583.76 1141.5ZM3582.08 1161.87L3588.68 1187.65L3572.76 1187.51C3575.9 1178.8 3579.02 1170.25 3582.08 1161.87ZM3568.64 1182.97L3565.25 1154.54H3579C3575.61 1163.81 3572.14 1173.3 3568.64 1182.97ZM3563.39 1140.58L3559.76 1114.15H3573.19C3570.83 1120.56 3568.45 1126.95 3566.09 1133.31L3563.39 1140.58ZM3560.87 1163.04L3563.78 1187.42L3552.1 1187.32C3554.77 1179.8 3557.61 1171.94 3560.87 1163.04ZM3548.83 1180.34L3544.43 1154.55H3558.22C3554.64 1164.24 3551.6 1172.6 3548.83 1180.34ZM3550.83 1229.2H3537.92C3540.73 1220.43 3543.68 1211.56 3546.88 1202.25L3550.83 1229.2ZM3550.11 1235.13C3546.81 1244.68 3543.79 1253.51 3540.97 1261.92L3537.22 1235.13H3550.11ZM3538.93 1285.44L3542.74 1311.61H3530.63C3533.42 1302.65 3536.2 1293.88 3538.93 1285.44ZM3543.56 1317.53C3540.4 1326.73 3537.4 1335.69 3534.6 1344.25L3530.06 1317.53H3543.56ZM3539.88 1392.38H3525.53C3527.92 1383.89 3530.57 1374.92 3533.46 1365.62L3539.88 1392.38ZM3539.64 1398.3C3536.66 1407.5 3533.85 1416.57 3531.26 1425.39L3525.52 1398.3H3539.64ZM3539.88 1475.55H3523.71C3525.8 1466.16 3528.24 1456.3 3530.98 1446.13L3539.88 1475.55ZM3539.93 1481.48C3537.25 1490.87 3534.76 1500.1 3532.5 1509.04L3523.99 1481.48H3539.93ZM3532.83 1530.79L3539.26 1557.49H3527.28C3529.01 1548.43 3530.87 1539.49 3532.83 1530.79ZM3539.24 1563.41C3536.85 1572.24 3534.64 1581.1 3532.63 1589.87L3527.28 1563.41H3539.24ZM3542.96 1570.41L3551.92 1599.72H3535.91C3537.97 1590.24 3540.33 1580.41 3542.96 1570.41ZM3551.96 1605.63C3549.06 1615.08 3546.54 1624.1 3544.46 1632.56L3536.19 1605.63H3551.96ZM3545.26 1654.41L3548.87 1667.24H3543.27C3543.78 1663.19 3544.45 1658.89 3545.26 1654.41ZM3555.99 1610.85L3567.61 1639.88H3548.25C3550.34 1630.75 3552.95 1621.01 3555.99 1610.85ZM3587.76 1609.33L3602.48 1639.88H3575.69C3579.11 1630.62 3583.16 1620.36 3587.76 1609.33ZM3592.04 1605.63H3621.17C3618.27 1611.63 3612.85 1622.94 3606.86 1636.36L3592.04 1605.63ZM3606.87 1649.86L3613.92 1667.24H3599.64C3601.79 1661.82 3604.22 1656 3606.87 1649.86ZM3611.08 1645.8H3640.85L3632.17 1667.23H3619.77L3611.08 1645.8ZM3645.06 1649.86C3647.72 1656.01 3650.13 1661.83 3652.29 1667.24H3638.03L3645.06 1649.86ZM3630.76 1605.63H3659.9L3645.07 1636.36C3639 1622.77 3633.45 1611.19 3630.76 1605.63ZM3630.63 1599.71L3645.68 1567.09C3650.87 1578.45 3655.72 1589.4 3660.12 1599.71H3630.63ZM3630.46 1522.09H3660.44L3645.69 1554.07C3638.82 1539.28 3633.17 1527.6 3630.46 1522.09ZM3630.54 1516.15L3646.48 1484.8C3651.28 1495.21 3655.99 1505.73 3660.5 1516.15H3630.54ZM3630.55 1439.3H3660.72L3646.5 1471.96C3639.37 1456.83 3633.59 1445.28 3630.55 1439.3ZM3676.43 1392.38H3650.46L3663.73 1360.39C3668.1 1370.95 3672.36 1381.7 3676.43 1392.38ZM3663.45 1345.52C3659.37 1335.96 3655.22 1326.56 3651.07 1317.52H3673.25L3663.45 1345.52ZM3675.25 1311.61H3648.91L3661.82 1278.36C3666.42 1289.48 3670.94 1300.64 3675.25 1311.61ZM3661.54 1263.61C3657.55 1254.14 3653.44 1244.58 3649.29 1235.12H3671.96L3661.54 1263.61ZM3670.38 1229.2H3647.84L3659.07 1199.92C3662.72 1209.27 3666.52 1219.09 3670.38 1229.2ZM3658.65 1184.01C3654.44 1173.35 3650.5 1163.43 3646.93 1154.55H3666.17L3658.65 1184.01ZM3665.01 1148.63H3647.31L3654.91 1120.89C3658.21 1130.03 3661.58 1139.27 3665.01 1148.63ZM3647.93 1036.31C3651.1 1046.14 3654.5 1056.33 3658.06 1066.74H3643.66L3647.93 1036.31ZM3644.16 1024.49L3644.08 1025.16H3629.66L3635.87 997.04C3638.36 1005.67 3641.14 1014.88 3644.16 1024.49ZM3633.28 950.04L3632.98 965.4C3631.63 959.84 3630.49 954.72 3629.57 950.04H3633.28ZM3625.98 959C3627.71 966.74 3629.88 975.4 3632.46 984.87H3620.12C3622.35 975.83 3624.27 967.3 3625.98 959ZM3621.05 938.69L3622.26 944.12H3619.09L3621.05 938.69ZM3622.37 950.04C3621.37 955.22 3620.25 960.57 3618.97 966.38L3618.62 950.04H3622.37ZM3622.26 1025.16H3609.18C3611.85 1016.21 3614.28 1007.66 3616.52 999.2L3622.26 1025.16ZM3611.15 940.73C3612.41 938.94 3613.65 937.25 3614.89 935.7L3613.88 942.62L3613.34 944.12H3609.84L3611.15 940.73ZM3608.89 950.04H3611.19L3607.21 961.05L3608.89 950.04ZM3613.5 959.58L3614.04 984.87H3604.36L3613.5 959.58ZM3613.12 990.79C3610.91 999.42 3608.76 1007.42 3606.57 1015.02L3603.49 990.79H3613.12ZM3600.9 966.91L3598.15 984.86H3593.86L3600.9 966.91ZM3592.33 990.79H3596.46L3591.94 1003.28L3592.33 990.79ZM3591.42 1020.66L3599.16 999.22L3602.47 1025.16H3591.28L3591.42 1020.66ZM3593.5 1105.51H3582.09C3584.84 1097.98 3587.55 1090.44 3590.16 1083.03L3593.5 1105.51ZM3579.28 1097.4L3577.6 1072.67H3588.08C3585.4 1080.34 3582.51 1088.49 3579.28 1097.4ZM3577.34 1066.74L3577.22 1059.95L3586.19 1035.12L3588.03 1066.75H3577.34V1066.74ZM3579.93 1004.67C3581.83 999.62 3583.65 994.94 3585.35 990.79H3585.71L3579.75 1006.01L3579.93 1004.67ZM3586.62 1003.33L3586.12 1019.42L3584.04 1025.17H3578.07L3586.62 1003.33ZM3581.9 1031.08L3576.94 1044.78L3576.7 1031.08H3581.9ZM3579.2 1148.63H3566.18L3570.75 1136.28C3572.53 1131.47 3574.32 1126.65 3576.1 1121.82L3579.2 1148.63ZM3574.48 1105.51H3560.76L3572.31 1073.54L3574.48 1105.51ZM3571.56 1041.77L3571.86 1058.86L3569.01 1066.75H3561.78L3571.56 1041.77ZM3559.46 1072.66H3566.88L3557.89 1097.51L3556.21 1080.94L3559.46 1072.66ZM3559.08 1148.63H3545.16L3555.24 1120.72L3559.08 1148.63ZM3552.26 1095.02L3553.33 1105.52H3549.62C3550.5 1101.93 3551.38 1098.44 3552.26 1095.02ZM3544.31 1128.39C3545.36 1123.41 3546.43 1118.63 3547.49 1114.14H3551.88L3544.18 1135.42L3544.31 1128.39ZM3536.17 1173.54L3540.29 1162.1L3544.58 1187.25L3534.16 1187.16C3534.82 1182.43 3535.49 1177.86 3536.17 1173.54ZM3533.32 1193.08L3544.31 1193.18C3540.97 1202.73 3537.89 1211.82 3534.98 1220.75L3532.05 1202.61C3532.47 1199.35 3532.9 1196.18 3533.32 1193.08ZM3529.71 1221.74L3530.92 1229.2H3528.88C3529.16 1226.68 3529.43 1224.2 3529.71 1221.74ZM3528.25 1235.13H3530.38C3529.3 1238.61 3528.24 1242.11 3527.18 1245.63C3527.53 1242.05 3527.89 1238.55 3528.25 1235.13ZM3533.13 1244.49L3536.8 1270.65H3525.62C3527.89 1262.2 3530.37 1253.57 3533.13 1244.49ZM3536.12 1276.57C3533.54 1284.46 3530.87 1292.79 3528.05 1301.81L3525.08 1276.57H3536.12ZM3522.67 1301.9L3523.81 1311.6H3522.09C3522.28 1308.25 3522.47 1305.03 3522.67 1301.9ZM3521.75 1317.53H3523.16C3522.58 1319.41 3522.02 1321.28 3521.44 1323.19C3521.55 1321.28 3521.65 1319.39 3521.75 1317.53ZM3520.2 1350.93C3520.25 1349.17 3520.32 1347.41 3520.38 1345.7C3522.29 1339.16 3524.19 1332.68 3526.12 1326.3L3530.59 1352.58H3520.14L3520.2 1350.93ZM3519.89 1359.41L3519.93 1358.5H3530.03C3527.32 1367.13 3524.82 1375.38 3522.57 1383.12L3519.62 1367.35C3519.71 1364.66 3519.8 1362.03 3519.89 1359.41ZM3518.72 1418.46C3519.62 1414.62 3520.63 1410.56 3521.72 1406.35L3527.46 1433.38H3518.64C3518.65 1428.34 3518.69 1423.4 3518.72 1418.46ZM3518.66 1439.3H3527.27C3524.78 1448.27 3522.51 1457.08 3520.49 1465.56L3518.73 1456.53C3518.69 1450.69 3518.67 1444.99 3518.66 1439.3ZM3519.44 1496.65C3519.86 1494.26 3520.33 1491.85 3520.8 1489.41L3529.05 1516.16H3520C3519.79 1509.57 3519.6 1503.07 3519.44 1496.65ZM3520.19 1522.09H3529.32C3527.28 1530.76 3525.32 1539.78 3523.48 1548.98L3520.84 1539.69C3520.6 1533.74 3520.39 1527.91 3520.19 1522.09ZM3522.91 1582.85C3523.31 1580.25 3523.73 1577.66 3524.16 1575.06L3529.15 1599.71H3523.9C3523.55 1594.04 3523.22 1588.42 3522.91 1582.85ZM3524.27 1605.63H3529.16C3527.86 1612.03 3526.66 1618.54 3525.55 1625.11C3525.1 1618.56 3524.67 1612.07 3524.27 1605.63ZM3533.05 1613.77L3541.06 1639.88H3528.63C3529.84 1631.48 3531.29 1622.88 3533.05 1613.77ZM3529.96 1681.98C3529.79 1680.08 3529.65 1678.2 3529.5 1676.32L3529.23 1673.16H3530.24C3531.14 1676.32 3532.01 1679.23 3532.87 1681.98H3529.96ZM3536.82 1676.51C3536.5 1675.43 3536.17 1674.31 3535.83 1673.16H3537.19L3536.82 1676.51ZM3537.88 1667.23H3534.17C3532.33 1660.55 3530.52 1653.36 3528.78 1645.8H3541.46C3539.88 1653.39 3538.69 1660.58 3537.88 1667.23ZM3541.61 1681.98L3542.57 1673.16H3550.53L3553.02 1681.98H3541.61ZM3557.84 1679.19L3556.13 1673.15H3559.43L3557.84 1679.19ZM3554.46 1667.23L3548.43 1645.8H3567.8C3565.01 1653.74 3562.74 1660.93 3561.01 1667.23H3554.46ZM3562.68 1681.98L3564.99 1673.16H3580.04L3583.3 1681.98H3562.68ZM3588.69 1680.92L3585.81 1673.16H3591.52C3590.51 1675.83 3589.56 1678.42 3588.69 1680.92ZM3583.62 1667.23L3575.7 1645.8H3602.7C3599.4 1653.42 3596.42 1660.62 3593.82 1667.23H3583.62ZM3594.04 1681.98C3595.03 1679.22 3596.13 1676.26 3597.33 1673.16H3616.32L3619.89 1681.98H3594.04ZM3626.17 1681.98H3625.75L3622.17 1673.16H3629.76L3626.17 1681.98ZM3632.04 1681.98L3635.61 1673.16H3654.6C3655.82 1676.34 3656.91 1679.25 3657.89 1681.98H3632.04ZM3663.25 1680.92C3662.36 1678.43 3661.41 1675.83 3660.41 1673.16H3666.12L3663.25 1680.92ZM3668.3 1667.23H3658.11C3655.52 1660.62 3652.53 1653.42 3649.23 1645.8H3676.23L3668.3 1667.23ZM3676.24 1639.88H3649.45L3664.17 1609.33C3668.77 1620.35 3672.81 1630.59 3676.24 1639.88ZM3664.29 1595.64C3659.9 1585.42 3655.11 1574.61 3649.99 1563.41H3677.4L3664.29 1595.64ZM3677.44 1557.49H3650.1L3664.67 1525.91C3669.24 1536.76 3673.53 1547.36 3677.44 1557.49ZM3664.75 1512.31C3660.33 1502.12 3655.7 1491.77 3650.94 1481.48H3677.91L3664.75 1512.31ZM3650.87 1475.55L3664.89 1443.33C3669.42 1454.01 3673.81 1464.83 3677.96 1475.55H3650.87Z" fill="#59A1AD"/>
<path id="Vector_8" d="M3717.13 1108.01C3672.78 925.48 3632.74 911.29 3628.33 910.27L3627.19 910.01L3626.5 910.14L3625.82 910.01L3624.68 910.27C3624.06 910.41 3622.78 910.8 3620.89 911.87C3623.02 917.39 3625.11 923.17 3627.17 929.19H3627.29L3627.24 929.39C3628.32 932.53 3629.38 935.73 3630.42 939L3630.68 937.93L3632.9 944.02L3632.91 944.12H3632.02C3634.18 951.01 3636.27 958.17 3638.31 965.59L3638.44 959.23L3647.79 984.87H3643.36C3643.86 986.82 3644.34 988.8 3644.82 990.79H3648.66L3647.27 1001.17C3648.41 1006.12 3649.54 1011.17 3650.66 1016.33L3652.96 999.04L3662.49 1025.16H3652.53C3652.93 1027.13 3653.34 1029.09 3653.74 1031.08H3663.37L3660.15 1056C3658.88 1052.25 3657.65 1048.53 3656.44 1044.86C3658.58 1056.14 3660.64 1067.78 3662.59 1079.75C3666.65 1091.35 3669.97 1100.5 3671.78 1105.5H3666.58C3667 1108.36 3667.41 1111.23 3667.83 1114.13H3672.87L3670.17 1131.35C3671.17 1138.97 3672.13 1146.7 3673.07 1154.53H3686.7L3683.31 1182.94C3679.87 1173.43 3676.46 1164.12 3673.12 1154.99C3674.01 1162.5 3674.87 1170.12 3675.7 1177.82C3676.91 1181.17 3678.14 1184.56 3679.37 1187.96H3676.74C3676.95 1189.93 3677.15 1191.9 3677.34 1193.88H3681.51L3681.59 1194.11L3678.64 1207.47C3679.19 1213.34 3679.72 1219.25 3680.22 1225.21L3685 1203.58C3688 1211.95 3691.02 1220.49 3694.06 1229.18H3680.56C3680.73 1231.15 3680.88 1233.12 3681.05 1235.1H3694.81L3690.02 1266.02C3687.35 1258.76 3684.56 1251.32 3681.71 1243.73C3682.2 1250.11 3682.67 1256.52 3683.11 1262.98C3684.07 1265.54 3685.01 1268.08 3685.93 1270.62H3683.62C3683.75 1272.59 3683.88 1274.56 3684 1276.54H3687.62L3684.54 1285.35C3684.81 1290.01 3685.08 1294.69 3685.34 1299.39L3690.76 1283.88C3694.19 1293.36 3697.49 1302.64 3700.61 1311.59H3685.96C3686.06 1313.56 3686.15 1315.53 3686.24 1317.51H3702.24L3693.37 1343.82C3691.2 1337.94 3688.94 1331.95 3686.62 1325.89C3686.88 1331.57 3687.11 1337.28 3687.31 1343.03C3688.44 1346.05 3689.54 1349.04 3690.62 1351.99L3690.41 1352.57H3687.64C3687.72 1354.54 3687.77 1356.51 3687.83 1358.49H3688.36L3687.88 1359.86C3688.03 1364.98 3688.18 1370.1 3688.3 1375.24L3693.54 1360.11C3697.48 1371.07 3701.22 1381.9 3704.68 1392.37H3688.67C3688.71 1394.35 3688.75 1396.31 3688.77 1398.29H3704.77L3695.09 1427.79C3693.13 1422.03 3691.07 1416.21 3688.95 1410.36C3689.03 1415.98 3689.08 1421.61 3689.12 1427.27C3689.83 1429.3 3690.52 1431.34 3691.21 1433.37H3689.14C3689.15 1435.34 3689.15 1437.31 3689.15 1439.29H3691.4L3689.17 1446.55C3689.17 1452.75 3689.14 1458.92 3689.11 1465.07L3695.21 1445.29C3698.5 1455.32 3701.65 1465.47 3704.62 1475.54H3689C3688.99 1477.52 3688.96 1479.5 3688.94 1481.46H3704.68L3696.39 1510.26C3693.99 1503.23 3691.46 1496.11 3688.84 1488.98C3688.76 1494.07 3688.66 1499.14 3688.56 1504.18C3689.99 1508.2 3691.36 1512.19 3692.69 1516.14H3688.29C3688.24 1518.12 3688.19 1520.1 3688.12 1522.07H3692.68L3687.72 1535.65C3687.53 1541.5 3687.32 1547.32 3687.09 1553.11L3696.42 1527.56C3699.72 1537.78 3702.76 1547.82 3705.48 1557.47H3686.9C3686.82 1559.45 3686.75 1561.43 3686.66 1563.39H3705.47L3696.19 1593.77C3693.29 1584.95 3690.05 1575.74 3686.55 1566.26C3686.33 1570.97 3686.11 1575.66 3685.9 1580.32C3688.25 1586.95 3690.44 1593.42 3692.46 1599.69H3684.86C3684.74 1601.67 3684.63 1603.65 3684.53 1605.61H3692.19L3683.06 1628.4C3682.47 1636.96 3681.84 1645.45 3681.16 1653.84C3682.78 1658.64 3684.16 1663.11 3685.32 1667.21H3680.07C3679.9 1669.19 3679.72 1671.17 3679.54 1673.13H3686.93L3689.25 1681.95H3678.75C3678.31 1686.66 3677.86 1691.34 3677.4 1695.97H3734.51L3735.07 1689.64C3765.69 1344.43 3729.08 1157.17 3717.13 1108.01ZM3638.03 942.33L3636.78 933.91C3637.68 934.98 3638.58 936.11 3639.49 937.32L3642.2 944.11H3638.68L3638.03 942.33ZM3640.85 950.04H3643.06L3644.74 960.72L3640.85 950.04ZM3651.05 966.4L3658.41 984.87H3653.98L3651.05 966.4ZM3655.7 990.79H3660.1L3661.7 1007.26L3655.7 990.79ZM3734.07 1400.04C3733.92 1399.46 3733.76 1398.88 3733.61 1398.3H3734.05C3734.06 1398.88 3734.07 1399.46 3734.07 1400.04ZM3733.95 1392.38H3733.08L3733.86 1388.17C3733.89 1389.57 3733.93 1390.97 3733.95 1392.38ZM3733.21 1362.5L3729.36 1383.13C3727.1 1375.37 3724.6 1367.12 3721.89 1358.51H3733.07L3733.21 1362.5ZM3712.68 1563.41H3724.64L3719.3 1589.88C3717.29 1581.13 3715.07 1572.26 3712.68 1563.41ZM3723.29 1639.88H3710.86L3718.87 1613.75C3720.63 1622.87 3722.09 1631.48 3723.29 1639.88ZM3712.67 1557.49L3719.1 1530.79C3721.06 1539.48 3722.93 1548.43 3724.65 1557.49H3712.67ZM3712 1481.48H3727.93L3719.43 1509.05C3717.16 1500.1 3714.67 1490.85 3712 1481.48ZM3712.04 1475.55L3720.95 1446.13C3723.7 1456.29 3726.14 1466.16 3728.23 1475.55H3712.04ZM3720.67 1425.41C3718.08 1416.59 3715.27 1407.49 3712.29 1398.31H3726.42L3720.67 1425.41ZM3691.32 1160.91C3694.25 1169.41 3697.35 1178.55 3700.52 1187.99H3688.08L3691.32 1160.91ZM3680.65 1114.14H3692.45L3689.02 1137.8C3685.39 1127.45 3682.45 1119.17 3680.65 1114.14ZM3694.84 1154.55H3707.77L3703.34 1179.4C3700.4 1170.69 3697.52 1162.31 3694.84 1154.55ZM3705.11 1201.8C3708.31 1211.5 3711.28 1220.69 3713.97 1229.2H3701.11L3705.11 1201.8ZM3714.7 1235.13L3710.95 1261.89C3708.07 1253.27 3705.07 1244.45 3701.84 1235.13H3714.7ZM3713 1285.41C3715.98 1294.57 3718.73 1303.2 3721.33 1311.6H3709.2L3713 1285.41ZM3721.86 1317.53L3717.33 1344.25C3714.53 1335.71 3711.53 1326.74 3708.36 1317.53H3721.86ZM3718.47 1365.62C3721.35 1374.91 3724 1383.89 3726.39 1392.38H3712.05L3718.47 1365.62ZM3732.85 1352.58H3721.35L3725.8 1326.28C3728.24 1334.33 3730.52 1342.07 3732.74 1349.77L3732.85 1352.58ZM3731.76 1327.32C3730.77 1324.03 3729.78 1320.77 3728.79 1317.53H3731.24C3731.43 1320.75 3731.59 1324.02 3731.76 1327.32ZM3729.94 1296.12C3730.29 1301.25 3730.61 1306.41 3730.92 1311.61H3728.13L3729.94 1296.12ZM3723.89 1301.73C3721.3 1293.49 3718.59 1285.06 3715.8 1276.57H3726.84L3723.89 1301.73ZM3715.14 1270.64L3718.77 1244.67C3721.74 1254.43 3724.26 1263.14 3726.31 1270.64H3715.14ZM3726.34 1251.11C3724.85 1246.1 3723.22 1240.75 3721.48 1235.12H3724.75C3725.29 1240.37 3725.83 1245.71 3726.34 1251.11ZM3723.02 1219.44C3723.39 1222.64 3723.75 1225.9 3724.11 1229.2H3721.13L3723.02 1219.44ZM3720.89 1202.21L3717.17 1221.44C3714.42 1212.81 3711.42 1203.57 3708.21 1193.91H3719.79C3720.15 1196.62 3720.53 1199.39 3720.89 1202.21ZM3717.01 1174.72C3717.65 1178.94 3718.31 1183.39 3718.96 1187.99H3707.24L3712.03 1161.06L3717.01 1174.72ZM3708.36 1126.88V1135.2L3700.68 1114.15H3705.49C3706.35 1117.75 3707.32 1121.99 3708.36 1126.88ZM3703.38 1105.51H3698.51L3698.05 1084.67C3699.82 1091.39 3701.62 1098.39 3703.38 1105.51ZM3707.5 1148.63H3692.87L3697.03 1119.9L3707.5 1148.63ZM3692.9 1092.81L3685.56 1072.66H3692.45L3692.9 1092.81ZM3690.96 1066.74H3684.07L3682.61 1045.71L3690.96 1066.74ZM3682.79 1080.87L3691.78 1105.52H3679.52L3682.79 1080.87ZM3677.64 1050.94L3670.4 1031.08H3676.24L3677.64 1050.94ZM3668.83 1025.16L3666.99 1006.47L3674.42 1025.16H3668.83ZM3667.7 990.79L3668.02 991.58L3669.59 998.31L3666.6 990.79H3667.7ZM3665.24 984.87H3664.53L3663.53 980.9C3664.09 982.2 3664.66 983.52 3665.24 984.87ZM3667.66 1039.41L3677.63 1066.74H3664.13L3667.66 1039.41ZM3665.83 1072.66H3678.5L3675.03 1098.65C3672.78 1092.44 3669.56 1083.45 3665.83 1072.66ZM3672.87 1148.63L3677.25 1120.68C3679.61 1127.35 3683.04 1137.06 3687.06 1148.63H3672.87ZM3687.27 1193.91H3700.86L3696.89 1220.97C3693.66 1211.78 3690.44 1202.74 3687.27 1193.91ZM3698.93 1243.3C3702.23 1252.9 3705.28 1261.91 3708.19 1270.64H3694.69L3698.93 1243.3ZM3693.84 1276.57H3708.89L3704.55 1306.54C3701.16 1296.86 3697.57 1286.81 3693.84 1276.57ZM3696.33 1351.94L3705.29 1325.28C3708.52 1334.77 3711.55 1343.93 3714.34 1352.58H3696.56L3696.33 1351.94ZM3698.68 1358.5H3714.65L3708.13 1385.7C3705.16 1376.83 3701.99 1367.73 3698.68 1358.5ZM3708.52 1404.18C3711.7 1414.16 3714.68 1423.96 3717.38 1433.39H3698.95L3708.52 1404.18ZM3698.97 1439.3H3717.38L3708.37 1469.09C3705.42 1459.24 3702.27 1449.26 3698.97 1439.3ZM3708.29 1488.38C3710.92 1497.78 3713.39 1507.09 3715.62 1516.15H3700.29L3708.29 1488.38ZM3700.31 1522.09H3715.66L3708.95 1550.05C3706.28 1540.86 3703.39 1531.48 3700.31 1522.09ZM3708.97 1570.41C3711.59 1580.39 3713.95 1590.23 3716.02 1599.72H3700.01L3708.97 1570.41ZM3715.73 1605.63L3707.48 1632.54C3705.4 1624.12 3702.88 1615.1 3699.97 1605.63H3715.73ZM3708.65 1667.23H3703.05L3706.67 1654.39C3707.48 1658.89 3708.15 1663.18 3708.65 1667.23ZM3695.93 1610.85C3698.99 1621.01 3701.58 1630.75 3703.67 1639.88H3684.31L3695.93 1610.85ZM3694.08 1679.19L3692.5 1673.15H3695.79L3694.08 1679.19ZM3690.91 1667.23C3689.19 1660.93 3686.9 1653.74 3684.12 1645.8H3703.49L3697.46 1667.23H3690.91ZM3698.9 1681.98L3701.39 1673.16H3709.36L3710.31 1681.98H3698.9ZM3715.1 1676.51L3714.74 1673.16H3716.09C3715.75 1674.3 3715.42 1675.42 3715.1 1676.51ZM3714.06 1667.23C3713.25 1660.56 3712.04 1653.37 3710.48 1645.8H3723.15C3721.4 1653.39 3719.59 1660.58 3717.77 1667.23H3714.06ZM3723.54 1675.85C3723.37 1677.88 3723.21 1679.92 3723.04 1681.97H3719.06C3719.91 1679.22 3720.78 1676.31 3721.68 1673.15H3723.76L3723.54 1675.85ZM3724.48 1664.46L3724.25 1667.23H3723.34C3723.79 1665.59 3724.23 1663.92 3724.66 1662.22C3724.61 1662.98 3724.54 1663.72 3724.48 1664.46ZM3727.39 1626.03C3727.24 1626.8 3727.07 1627.59 3726.91 1628.39C3725.67 1620.72 3724.28 1613.09 3722.75 1605.63H3728.72C3728.31 1612.38 3727.87 1619.15 3727.39 1626.03ZM3729.19 1598.15L3729.1 1599.71H3722.78L3727.75 1575.13C3728.46 1579.49 3729.12 1583.96 3729.77 1588.5C3729.59 1591.69 3729.4 1594.92 3729.19 1598.15ZM3732.72 1524.61C3732.6 1528.15 3732.49 1531.68 3732.35 1535.28L3728.45 1548.99C3726.61 1539.79 3724.66 1530.77 3722.61 1522.09H3732.8L3732.72 1524.61ZM3732.99 1516.15H3722.87L3731.11 1489.4C3731.97 1493.76 3732.74 1498.01 3733.41 1502.06C3733.29 1506.71 3733.15 1511.43 3732.99 1516.15ZM3734.28 1450.73L3731.43 1465.56C3729.41 1457.08 3727.16 1448.29 3724.66 1439.3H3734.33C3734.33 1443.08 3734.3 1446.89 3734.28 1450.73ZM3724.47 1433.38L3730.2 1406.37C3731.7 1412.19 3733.09 1417.85 3734.31 1423.28L3734.32 1425.84C3734.33 1428.35 3734.35 1430.84 3734.36 1433.39H3724.47V1433.38Z" fill="#1D7C9B"/>
</g>

<path id="londonWheel" d="M2432.69 1381.36C2435.39 1381.2 2437.83 1380.22 2439.8 1378.68C2439.83 1379.67 2439.87 1380.66 2439.92 1381.65L2439.71 1381.75L2439.95 1382.15C2439.98 1382.55 2439.99 1382.95 2440.02 1383.36L2439.84 1383.82L2440.08 1383.92C2440.71 1394.45 2441.9 1404.86 2443.6 1415.06L2443.41 1415.19L2443.69 1415.57C2443.75 1415.97 2443.81 1416.37 2443.88 1416.77V1416.78C2441.65 1415.71 2439.07 1415.29 2436.42 1415.71C2429.69 1416.78 2425.19 1423.37 2426.64 1430.36C2428.1 1437.36 2434.86 1441.58 2441.45 1439.87C2444.06 1439.19 2446.25 1437.76 2447.91 1435.88C2448.88 1439.91 2449.94 1443.89 2451.07 1447.85L2450.89 1447.99L2451.2 1448.32C2451.31 1448.71 2451.44 1449.12 2451.55 1449.5L2451.46 1449.96L2451.7 1449.99C2453.96 1457.6 2456.5 1465.08 2459.34 1472.42C2456.93 1471.81 2454.31 1471.89 2451.76 1472.83C2445.38 1475.2 2442.23 1482.54 2445.02 1489.12C2447.79 1495.71 2455.3 1498.51 2461.4 1495.55C2463.85 1494.35 2465.72 1492.5 2466.96 1490.33C2470.03 1496.95 2473.36 1503.43 2476.91 1509.77L2476.79 1509.94L2477.14 1510.18C2477.37 1510.57 2477.56 1510.95 2477.79 1511.32L2477.8 1511.74L2477.99 1511.71C2480.33 1515.84 2482.79 1519.93 2485.34 1523.94C2482.85 1523.81 2480.28 1524.41 2477.96 1525.83C2472.17 1529.39 2470.53 1537.22 2474.54 1543.12C2478.56 1549.02 2486.43 1550.32 2491.86 1546.2C2494.02 1544.56 2495.51 1542.36 2496.3 1539.98C2502.47 1548.41 2509.05 1556.5 2516.06 1564.21L2515.98 1564.37L2516.31 1564.48C2516.64 1564.82 2516.95 1565.16 2517.28 1565.52L2517.38 1565.88L2517.56 1565.82C2518.66 1567.02 2519.77 1568.2 2520.87 1569.37C2518.41 1569.74 2516 1570.81 2514.03 1572.65C2509.05 1577.28 2508.93 1585.27 2514.04 1590.27C2519.14 1595.28 2527.12 1595.01 2531.62 1589.9C2533.42 1587.88 2534.45 1585.46 2534.77 1582.98C2536.49 1584.57 2538.25 1586.14 2540.01 1587.7L2539.97 1587.85L2540.28 1587.92C2540.67 1588.25 2541.04 1588.58 2541.4 1588.92L2541.5 1589.21L2541.65 1589.14C2548.99 1595.46 2556.62 1601.42 2564.54 1607.01C2562.2 1607.85 2560.06 1609.37 2558.47 1611.57C2554.47 1617.07 2555.92 1624.95 2561.9 1628.85C2567.86 1632.79 2575.64 1630.95 2579.07 1625.09C2580.44 1622.77 2580.98 1620.19 2580.82 1617.71C2585.5 1620.56 2590.27 1623.27 2595.11 1625.87L2595.1 1625.99H2595.35C2595.83 1626.24 2596.31 1626.5 2596.78 1626.74L2596.92 1626.94L2597.02 1626.87C2602.81 1629.91 2608.7 1632.77 2614.7 1635.42C2612.57 1636.7 2610.77 1638.63 2609.62 1641.08C2606.77 1647.26 2609.72 1654.7 2616.34 1657.37C2622.96 1660.03 2630.24 1656.74 2632.47 1650.3C2633.37 1647.75 2633.38 1645.11 2632.73 1642.7C2640.81 1645.65 2649.07 1648.25 2657.46 1650.49L2657.48 1650.56L2657.61 1650.53C2658.19 1650.68 2658.79 1650.84 2659.38 1651L2659.47 1651.07L2659.5 1651.03C2662.78 1651.88 2666.11 1652.67 2669.43 1653.41C2667.58 1655.09 2666.17 1657.33 2665.54 1659.98C2663.96 1666.6 2668.31 1673.3 2675.32 1674.64C2682.33 1675.95 2688.81 1671.29 2689.74 1664.54C2690.11 1661.84 2689.6 1659.25 2688.48 1657.01C2689.1 1657.11 2689.71 1657.18 2690.33 1657.27L2690.35 1657.31L2690.44 1657.28C2691.05 1657.38 2691.67 1657.45 2692.29 1657.54L2692.38 1657.6L2692.41 1657.55C2702.69 1658.99 2713.16 1659.91 2723.74 1660.25L2723.76 1660.28L2723.8 1660.25C2724.47 1660.28 2725.14 1660.3 2725.79 1660.33H2725.8C2726.05 1660.35 2726.34 1660.33 2726.59 1660.35C2725.11 1662.36 2724.17 1664.82 2724.07 1667.54C2723.82 1674.34 2729.39 1680.07 2736.52 1680C2743.65 1679.93 2749.1 1674.07 2748.68 1667.27C2748.52 1664.57 2747.54 1662.13 2746 1660.15C2750.46 1659.96 2754.89 1659.66 2759.28 1659.28H2759.3C2767.65 1658.55 2775.89 1657.47 2784.03 1656.06C2782.97 1658.3 2782.54 1660.9 2782.96 1663.57C2784.02 1670.29 2790.59 1674.83 2797.58 1673.39C2804.56 1671.92 2808.78 1665.14 2807.08 1658.55C2806.39 1655.93 2804.96 1653.72 2803.1 1652.1C2815.58 1649.05 2827.76 1645.21 2839.56 1640.62C2838.95 1643.05 2839.03 1645.68 2839.97 1648.23C2842.32 1654.62 2849.66 1657.78 2856.22 1654.97C2862.78 1652.18 2865.58 1644.67 2862.61 1638.56C2861.42 1636.11 2859.57 1634.22 2857.41 1632.99C2869.02 1627.57 2880.23 1621.4 2890.95 1614.56C2890.83 1617.05 2891.42 1619.63 2892.85 1621.95C2896.41 1627.76 2904.22 1629.41 2910.11 1625.38C2916 1621.34 2917.3 1613.45 2913.18 1608.02C2911.54 1605.84 2909.37 1604.36 2906.98 1603.57C2917.28 1596 2927.09 1587.78 2936.32 1578.96C2936.69 1581.43 2937.77 1583.83 2939.6 1585.83C2944.22 1590.82 2952.2 1590.93 2957.18 1585.81C2962.17 1580.71 2961.9 1572.72 2956.82 1568.19C2954.79 1566.38 2952.38 1565.35 2949.9 1565.05C2958.52 1555.63 2966.54 1545.68 2973.87 1535.21C2974.71 1537.55 2976.23 1539.7 2978.42 1541.28C2983.92 1545.27 2991.78 1543.83 2995.67 1537.86C2999.59 1531.89 2997.76 1524.09 2991.91 1520.64C2989.59 1519.28 2987.02 1518.74 2984.55 1518.89C2991.15 1508.02 2997.06 1496.69 3002.23 1484.95C3003.5 1487.08 3005.42 1488.89 3007.88 1490.02C3014.05 1492.87 3021.48 1489.92 3024.14 1483.29C3026.81 1476.67 3023.52 1469.38 3017.11 1467.15C3014.54 1466.26 3011.93 1466.22 3009.53 1466.89C3013.87 1454.98 3017.44 1442.69 3020.24 1430.11C3021.91 1431.97 3024.16 1433.39 3026.8 1434.01C3033.4 1435.59 3040.1 1431.23 3041.42 1424.21C3042.75 1417.18 3038.08 1410.68 3031.35 1409.76C3028.66 1409.37 3026.07 1409.87 3023.83 1411.01C3025.74 1398.53 3026.86 1385.79 3027.16 1372.82C3029.15 1374.3 3031.63 1375.26 3034.34 1375.34C3040.08 1375.56 3045.08 1371.58 3046.42 1366.02H3021.03V1365.99H3017.53C3017.55 1366.01 3017.58 1366.02 3017.63 1366.02C3009.01 1369.77 3000.34 1373.16 2991.6 1376.24C2991.72 1372.85 2991.82 1369.44 2991.82 1366.02V1366.01H2992.05V1365.98C2992.05 1365.67 2992.03 1365.34 2992.03 1365.02L2992.58 1365.98C3002.07 1362.22 3011.46 1358.03 3020.75 1353.45C3020.92 1357.6 3021.03 1361.77 3021.03 1365.96V1365.98H3046.43C3046.43 1365.99 3046.43 1366.01 3046.43 1366.01H3046.63C3046.88 1365 3047.01 1363.91 3047 1362.8C3046.92 1355.66 3041.1 1350.2 3034.31 1350.6C3031.6 1350.76 3029.17 1351.74 3027.2 1353.28C3027.17 1352.28 3027.13 1351.3 3027.08 1350.3L3027.29 1350.2L3027.05 1349.8C3027.02 1349.4 3027.01 1349.01 3026.98 1348.59L3027.16 1348.15L3026.92 1348.05C3026.29 1337.52 3025.1 1327.12 3023.4 1316.91L3023.59 1316.78L3023.31 1316.4C3023.25 1316 3023.19 1315.6 3023.12 1315.2V1315.19C3025.35 1316.26 3027.93 1316.68 3030.58 1316.26C3037.31 1315.19 3041.81 1308.62 3040.36 1301.61C3038.9 1294.61 3032.14 1290.39 3025.55 1292.1C3022.94 1292.79 3020.75 1294.21 3019.09 1296.09C3018.12 1292.06 3017.06 1288.08 3015.93 1284.12L3016.11 1283.98L3015.8 1283.65C3015.69 1283.27 3015.56 1282.85 3015.45 1282.47L3015.54 1282.01L3015.3 1281.98C3013.04 1274.37 3010.5 1266.89 3007.66 1259.55C3010.07 1260.16 3012.69 1260.08 3015.24 1259.14C3021.62 1256.77 3024.77 1249.43 3021.98 1242.85C3019.21 1236.27 3011.7 1233.46 3005.6 1236.42C3003.15 1237.62 3001.28 1239.47 3000.04 1241.64C2996.97 1235.03 2993.64 1228.54 2990.09 1222.2L2990.21 1222.03L2989.86 1221.79C2989.63 1221.4 2989.44 1221.02 2989.21 1220.65L2989.2 1220.23L2989.01 1220.26C2986.66 1216.13 2984.21 1212.04 2981.66 1208.03C2984.15 1208.16 2986.72 1207.56 2989.04 1206.14C2994.83 1202.58 2996.47 1194.75 2992.46 1188.85C2988.44 1182.95 2980.57 1181.66 2975.14 1185.79C2972.98 1187.43 2971.49 1189.62 2970.7 1192C2964.53 1183.58 2957.95 1175.49 2950.94 1167.78L2951.02 1167.62L2950.69 1167.51C2950.36 1167.16 2950.05 1166.82 2949.72 1166.46L2949.62 1166.11L2949.44 1166.17C2948.34 1164.97 2947.23 1163.79 2946.13 1162.62C2948.59 1162.25 2951 1161.18 2952.97 1159.34C2957.95 1154.71 2958.06 1146.71 2952.96 1141.71C2947.86 1136.71 2939.88 1136.98 2935.38 1142.08C2933.58 1144.1 2932.55 1146.53 2932.23 1149.02C2930.51 1147.43 2928.75 1145.86 2926.99 1144.3L2927.03 1144.15L2926.72 1144.08C2926.33 1143.75 2925.96 1143.42 2925.6 1143.08L2925.5 1142.79L2925.35 1142.87C2918.01 1136.54 2910.38 1130.58 2902.46 1124.99C2904.8 1124.15 2906.94 1122.63 2908.53 1120.43C2912.53 1114.93 2911.08 1107.05 2905.1 1103.15C2899.14 1099.21 2891.36 1101.05 2887.93 1106.91C2886.56 1109.23 2886.02 1111.81 2886.18 1114.29C2881.5 1111.44 2876.73 1108.73 2871.89 1106.13L2871.9 1106.01H2871.65C2871.17 1105.76 2870.69 1105.5 2870.22 1105.26L2870.08 1105.06L2869.98 1105.13C2864.19 1102.09 2858.3 1099.23 2852.3 1096.58C2854.43 1095.3 2856.23 1093.37 2857.38 1090.92C2860.23 1084.74 2857.28 1077.3 2850.66 1074.63C2844.04 1071.97 2836.76 1075.26 2834.53 1081.7C2833.63 1084.25 2833.62 1086.89 2834.27 1089.3C2826.19 1086.35 2817.93 1083.75 2809.54 1081.51L2809.52 1081.44L2809.39 1081.47C2808.81 1081.31 2808.21 1081.16 2807.62 1081L2807.53 1080.93L2807.5 1080.97C2804.22 1080.12 2800.89 1079.33 2797.57 1078.59C2799.42 1076.91 2800.83 1074.67 2801.46 1072.02C2803.04 1065.4 2798.69 1058.7 2791.68 1057.36C2784.67 1056.05 2778.19 1060.71 2777.26 1067.46C2776.89 1070.16 2777.4 1072.75 2778.52 1074.99C2777.9 1074.89 2777.29 1074.82 2776.68 1074.73L2776.67 1074.69L2776.58 1074.72C2775.97 1074.62 2775.34 1074.55 2774.73 1074.46L2774.64 1074.4L2774.61 1074.45C2764.32 1073.01 2753.86 1072.09 2743.27 1071.75L2743.26 1071.72L2743.21 1071.75C2742.54 1071.72 2741.87 1071.7 2741.23 1071.67H2741.21C2740.96 1071.65 2740.68 1071.67 2740.42 1071.65C2741.9 1069.64 2742.84 1067.18 2742.94 1064.46C2743.2 1057.66 2737.62 1051.93 2730.5 1052C2723.37 1052.07 2717.91 1057.93 2718.33 1064.73C2718.49 1067.43 2719.48 1069.87 2721.01 1071.85C2716.56 1072.04 2712.13 1072.34 2707.73 1072.72H2707.72C2699.37 1073.45 2691.12 1074.53 2682.98 1075.94C2684.04 1073.7 2684.47 1071.1 2684.06 1068.43C2683 1061.71 2676.42 1057.17 2669.43 1058.61C2662.45 1060.08 2658.24 1066.86 2659.93 1073.45C2660.62 1076.07 2662.05 1078.28 2663.92 1079.9C2651.44 1082.95 2639.26 1086.79 2627.45 1091.38C2628.06 1088.95 2627.99 1086.32 2627.05 1083.77C2624.71 1077.38 2617.36 1074.22 2610.8 1077.03C2604.24 1079.82 2601.43 1087.33 2604.4 1093.44C2605.59 1095.89 2607.44 1097.77 2609.6 1099.01C2597.99 1104.43 2586.78 1110.6 2576.06 1117.44C2576.18 1114.95 2575.6 1112.37 2574.17 1110.04C2570.6 1104.24 2562.79 1102.59 2556.9 1106.62C2551.02 1110.66 2549.72 1118.55 2553.83 1123.98C2555.47 1126.16 2557.65 1127.64 2560.03 1128.43C2549.73 1136 2539.92 1144.22 2530.7 1153.04C2530.32 1150.57 2529.25 1148.17 2527.42 1146.17C2522.79 1141.18 2514.82 1141.07 2509.84 1146.19C2504.84 1151.29 2505.11 1159.28 2510.2 1163.81C2512.22 1165.62 2514.64 1166.65 2517.11 1166.95C2508.5 1176.37 2500.48 1186.32 2493.14 1196.79C2492.31 1194.45 2490.79 1192.3 2488.59 1190.72C2483.09 1186.73 2475.24 1188.17 2471.35 1194.14C2467.42 1200.11 2469.26 1207.91 2475.1 1211.36C2477.43 1212.72 2479.99 1213.26 2482.47 1213.11C2475.86 1223.98 2469.96 1235.31 2464.79 1247.05C2463.52 1244.92 2461.6 1243.11 2459.14 1241.98C2452.96 1239.13 2445.54 1242.08 2442.87 1248.71C2440.2 1255.33 2443.5 1262.62 2449.91 1264.85C2452.47 1265.74 2455.08 1265.78 2457.48 1265.11C2453.14 1277.02 2449.58 1289.31 2446.78 1301.89C2445.11 1300.02 2442.86 1298.61 2440.22 1297.99C2433.61 1296.41 2426.92 1300.77 2425.59 1307.79C2424.26 1314.82 2428.93 1321.32 2435.65 1322.24C2438.34 1322.63 2440.93 1322.13 2443.17 1320.99C2441.26 1333.47 2440.14 1346.21 2439.84 1359.18C2437.85 1357.7 2435.37 1356.74 2432.66 1356.66C2426.92 1356.44 2421.92 1360.42 2420.58 1365.98H2445.97V1366.01H2449.47C2449.45 1365.99 2449.42 1365.98 2449.37 1365.98C2457.99 1362.23 2466.66 1358.84 2475.4 1355.76C2475.28 1359.15 2475.18 1362.56 2475.18 1365.98V1365.99H2474.95V1366.02C2474.95 1366.33 2474.97 1366.66 2474.97 1366.98L2474.42 1366.02C2464.93 1369.78 2455.54 1373.97 2446.25 1378.55C2446.08 1374.4 2445.97 1370.23 2445.97 1366.04V1366.02H2420.57C2420.57 1366.01 2420.57 1365.99 2420.57 1365.99H2420.37C2420.12 1367 2419.99 1368.09 2420 1369.2C2420.08 1376.31 2425.9 1381.77 2432.69 1381.36ZM2450.82 1418.91C2460.89 1421.27 2471 1423.22 2481.08 1424.74L2481.41 1423.68C2481.54 1424.29 2481.69 1424.91 2481.84 1425.52L2481.08 1424.72C2472.69 1430.52 2464.47 1436.73 2456.45 1443.3C2454.23 1435.32 2452.35 1427.19 2450.82 1418.91ZM2480.66 1420.3C2471.39 1418.75 2462.13 1416.85 2452.86 1414.59C2460.83 1409.36 2468.93 1404.47 2477.14 1399.91C2478.05 1406.79 2479.25 1413.59 2480.66 1420.3ZM2475.89 1346.54C2467.56 1342.51 2459.31 1338.16 2451.19 1333.46C2460.16 1330.71 2469.17 1328.31 2478.19 1326.26C2477.17 1332.94 2476.4 1339.7 2475.89 1346.54ZM2498.36 1269.49L2723.1 1362.76L2484.52 1315.22C2487.71 1299.37 2492.38 1284.09 2498.36 1269.49ZM2486.94 1288.52C2479.74 1282.7 2472.7 1276.58 2465.84 1270.15C2475.21 1269.51 2484.54 1269.24 2493.8 1269.3C2491.26 1275.6 2488.97 1282 2486.94 1288.52ZM2521.69 1225.38L2723.92 1360.76L2499.16 1267.49C2505.37 1252.68 2512.92 1238.6 2521.69 1225.38ZM2510.88 1234.57C2505.19 1227.25 2499.72 1219.68 2494.5 1211.84C2503.77 1213.36 2512.91 1215.22 2521.93 1217.4C2518.02 1222.97 2514.34 1228.7 2510.88 1234.57ZM2553.15 1186.67L2725.11 1358.97L2522.87 1223.58C2531.8 1210.33 2541.95 1197.99 2553.15 1186.67ZM2527.3 1209.99C2522.47 1202.06 2517.89 1193.91 2513.6 1185.53C2522.64 1188.11 2531.53 1190.99 2540.25 1194.17C2535.73 1199.27 2531.41 1204.54 2527.3 1209.99ZM2730.41 1355.42L2637.3 1130.24C2651.88 1124.25 2667.15 1119.58 2682.94 1116.37L2730.41 1355.42ZM2685.04 1115.97C2700.41 1112.99 2716.26 1111.4 2732.49 1111.33L2732.51 1355.01L2685.04 1115.97ZM2732.3 1376.92L2732.31 1620.59C2716.09 1620.52 2700.22 1618.92 2684.86 1615.94L2732.3 1376.92ZM2728.42 1356.25L2593.29 1153.62C2606.49 1144.85 2620.55 1137.28 2635.32 1131.07L2728.42 1356.25ZM2726.63 1357.44L2554.67 1185.15C2565.97 1173.93 2578.28 1163.76 2591.51 1154.82L2726.63 1357.44ZM2498.96 1464.45L2723.68 1371.18L2521.48 1506.56C2512.72 1493.34 2505.16 1479.25 2498.96 1464.45ZM2513.54 1502.13C2504.29 1503.81 2494.94 1505.17 2485.46 1506.17C2491.2 1498.54 2497.17 1491.2 2503.35 1484.13C2506.51 1490.28 2509.93 1496.26 2513.54 1502.13ZM2484.32 1416.74L2722.89 1369.18L2498.17 1462.46C2492.17 1447.84 2487.51 1432.56 2484.32 1416.74ZM2488.46 1448.78C2479.08 1448.31 2469.65 1447.49 2460.19 1446.31C2467.51 1440.2 2475.01 1434.41 2482.66 1428.93C2484.33 1435.65 2486.27 1442.26 2488.46 1448.78ZM2499.48 1476.17C2490.11 1476.78 2480.65 1477.05 2471.12 1476.97C2477.7 1470.04 2484.48 1463.43 2491.44 1457.11C2493.87 1463.6 2496.54 1469.95 2499.48 1476.17ZM2724.91 1372.96L2552.95 1545.26C2541.76 1533.96 2531.62 1521.6 2522.67 1508.36L2724.91 1372.96ZM2726.41 1374.47L2591.3 1577.12C2578.07 1568.17 2565.76 1558.01 2554.46 1546.8L2726.41 1374.47ZM2497.35 1260.86C2490.85 1254.25 2484.55 1247.35 2478.47 1240.19C2487.85 1240.63 2497.14 1241.44 2506.33 1242.55C2503.11 1248.51 2500.13 1254.62 2497.35 1260.86ZM2722.67 1364.85L2479.47 1364.87C2479.54 1348.61 2481.14 1332.73 2484.11 1317.33L2722.67 1364.85ZM2479.77 1317.21C2471.94 1312.25 2464.25 1306.98 2456.71 1301.38C2465.93 1299.67 2475.18 1298.33 2484.37 1297.33C2482.57 1303.86 2481.04 1310.49 2479.77 1317.21ZM2722.45 1367.08L2483.88 1414.63C2480.92 1399.23 2479.32 1383.34 2479.25 1367.09L2722.45 1367.08ZM2458.63 1450.83C2468.92 1452.03 2479.19 1452.8 2489.38 1453.14L2489.59 1452.05C2489.8 1452.64 2490.01 1453.25 2490.22 1453.84C2489.94 1453.59 2489.67 1453.38 2489.38 1453.14C2481.71 1459.86 2474.27 1466.99 2467.05 1474.43C2463.92 1466.73 2461.1 1458.87 2458.63 1450.83ZM2470.11 1481.64C2480.47 1481.64 2490.74 1481.24 2500.91 1480.41L2500.98 1479.35C2501.25 1479.9 2501.53 1480.46 2501.82 1481.01L2500.91 1480.43C2494.05 1488.01 2487.46 1495.93 2481.14 1504.17C2477.14 1496.82 2473.46 1489.31 2470.11 1481.64ZM2484.99 1510.91C2495.27 1509.71 2505.46 1508.15 2515.46 1506.15L2515.43 1505.13C2515.76 1505.64 2516.08 1506.12 2516.4 1506.62L2515.47 1506.15C2509.53 1514.47 2503.89 1523.1 2498.54 1532C2493.71 1525.19 2489.19 1518.15 2484.99 1510.91ZM2518.34 1509.59C2522.17 1515.33 2526.21 1520.92 2530.47 1526.32C2521.48 1529.04 2512.36 1531.45 2503.07 1533.53C2507.87 1525.3 2512.98 1517.31 2518.34 1509.59ZM2518.95 1557.71C2513.39 1551.47 2508.08 1545.01 2503.07 1538.3C2513.16 1535.94 2523.11 1533.21 2532.84 1530.11C2532.78 1529.77 2532.74 1529.44 2532.68 1529.1C2533.05 1529.54 2533.39 1530.01 2533.77 1530.45L2532.84 1530.11C2527.88 1539.06 2523.26 1548.26 2518.95 1557.71ZM2536.09 1533.19C2540.53 1538.44 2545.19 1543.53 2550.03 1548.42C2541.41 1552.14 2532.62 1555.56 2523.64 1558.68C2527.49 1549.97 2531.65 1541.48 2536.09 1533.19ZM2530.14 1569.63C2528.12 1567.6 2526.13 1565.54 2524.18 1563.45C2533.95 1559.96 2543.52 1556.13 2552.83 1551.93L2552.57 1550.97C2552.97 1551.37 2553.39 1551.77 2553.79 1552.17L2552.83 1551.93C2548.9 1561.37 2545.35 1571.08 2542.14 1580.95C2538.04 1577.29 2534.03 1573.52 2530.14 1569.63ZM2556.4 1554.65C2561.41 1559.36 2566.61 1563.88 2571.96 1568.2C2563.84 1572.86 2555.47 1577.28 2546.9 1581.4C2549.75 1572.28 2552.94 1563.37 2556.4 1554.65ZM2567.83 1601.42C2561 1596.59 2554.38 1591.44 2548 1586.04C2557.32 1581.45 2566.39 1576.55 2575.17 1571.32L2574.82 1570.44C2575.26 1570.78 2575.69 1571.09 2576.14 1571.44L2575.18 1571.32C2572.35 1581.17 2569.89 1591.22 2567.83 1601.42ZM2579 1573.64C2584.5 1577.75 2590.16 1581.64 2595.99 1585.3C2588.45 1590.86 2580.65 1596.19 2572.62 1601.25C2574.42 1591.91 2576.55 1582.71 2579 1573.64ZM2595.67 1618.82C2588.32 1614.79 2581.14 1610.44 2574.18 1605.79C2582.93 1600.17 2591.4 1594.28 2599.54 1588.07L2599.12 1587.27C2599.57 1587.54 2600.02 1587.8 2600.47 1588.07L2599.56 1588.05C2597.84 1598.17 2596.57 1608.43 2595.67 1618.82ZM2603.61 1589.93C2609.53 1593.38 2615.6 1596.6 2621.8 1599.58C2614.96 1605.97 2607.83 1612.14 2600.39 1618.08C2601.15 1608.6 2602.22 1599.22 2603.61 1589.93ZM2625.68 1601.89C2625.14 1612.14 2625.03 1622.48 2625.33 1632.91C2617.54 1629.75 2609.92 1626.26 2602.48 1622.44C2610.54 1615.84 2618.28 1609 2625.68 1601.89C2625.5 1601.65 2625.35 1601.41 2625.17 1601.16C2625.63 1601.38 2626.08 1601.59 2626.54 1601.8L2625.68 1601.89ZM2593.09 1578.3L2728.2 1375.68L2635.11 1600.86C2620.35 1594.65 2606.28 1587.08 2593.09 1578.3ZM2629.95 1631.62C2629.58 1622.11 2629.58 1612.68 2629.92 1603.3C2636.19 1606.04 2642.58 1608.56 2649.08 1610.8C2643.01 1617.94 2636.63 1624.88 2629.95 1631.62ZM2632.49 1635.71C2639.75 1628.24 2646.65 1620.54 2653.17 1612.63L2652.6 1611.99C2653.06 1612.15 2653.52 1612.31 2654 1612.44L2653.17 1612.62C2653.81 1622.87 2654.9 1633.16 2656.39 1643.49C2648.29 1641.25 2640.32 1638.64 2632.49 1635.71ZM2637.11 1601.68L2730.18 1376.51L2682.73 1615.54C2666.94 1612.35 2651.69 1607.66 2637.11 1601.68ZM2657.59 1613.59C2664.11 1615.58 2670.74 1617.34 2677.47 1618.82C2672.25 1626.59 2666.72 1634.23 2660.86 1641.69C2659.41 1632.3 2658.33 1622.92 2657.59 1613.59ZM2663.83 1645.45C2670.18 1637.19 2676.19 1628.75 2681.75 1620.13L2681.18 1619.62C2681.61 1619.72 2682.06 1619.79 2682.49 1619.86L2681.75 1620.12C2683.56 1630.23 2685.83 1640.35 2688.5 1650.44C2680.15 1649.15 2671.92 1647.48 2663.83 1645.45ZM2686.23 1620.6C2692.93 1621.84 2699.7 1622.82 2706.55 1623.54C2702.26 1631.85 2697.64 1640.04 2692.69 1648.12C2690.18 1638.96 2688.04 1629.78 2686.23 1620.6ZM2696.07 1651.55C2701.45 1642.62 2706.43 1633.53 2711.01 1624.32L2710.4 1623.88C2710.83 1623.91 2711.25 1623.96 2711.67 1623.99L2711 1624.31C2713.95 1634.14 2717.35 1643.94 2721.13 1653.68C2712.7 1653.34 2704.32 1652.62 2696.07 1651.55ZM2725.05 1650.86C2721.54 1642.06 2718.36 1633.18 2715.51 1624.28C2721.42 1624.68 2727.38 1624.9 2733.37 1624.9C2734.27 1624.9 2735.16 1624.88 2736.06 1624.88C2732.72 1633.61 2729.06 1642.28 2725.05 1650.86ZM2968 1267.48L2743.27 1360.75L2945.47 1225.36C2954.24 1238.57 2961.8 1252.67 2968 1267.48ZM2953.42 1229.8C2962.66 1228.11 2972.01 1226.76 2981.49 1225.76C2975.75 1233.39 2969.79 1240.73 2963.6 1247.8C2960.44 1241.64 2957.03 1235.65 2953.42 1229.8ZM2986.29 1311.61C2995.57 1313.16 3004.82 1315.06 3014.1 1317.33C3006.12 1322.56 2998.03 1327.44 2989.81 1332C2988.9 1325.12 2987.72 1318.32 2986.29 1311.61ZM2991.06 1385.37C2999.4 1389.41 3007.64 1393.75 3015.77 1398.46C3006.79 1401.21 2997.79 1403.6 2988.77 1405.65C2989.8 1398.97 2990.56 1392.21 2991.06 1385.37ZM2987.69 1364.85L2744.49 1364.87L2983.06 1317.31C2986.04 1332.7 2987.62 1348.59 2987.69 1364.85ZM2968.6 1462.44L2743.85 1369.17L2982.43 1416.71C2979.26 1432.55 2974.57 1447.82 2968.6 1462.44ZM2980.03 1443.4C2987.23 1449.23 2994.27 1455.35 3001.13 1461.77C2991.76 1462.42 2982.43 1462.69 2973.17 1462.63C2975.71 1456.32 2977.99 1449.92 2980.03 1443.4ZM2945.26 1506.55L2743.03 1371.17L2967.79 1464.44C2961.59 1479.23 2954.03 1493.33 2945.26 1506.55ZM2956.07 1497.36C2961.77 1504.68 2967.24 1512.25 2972.46 1520.09C2963.18 1518.56 2954.05 1516.71 2945.03 1514.53C2948.93 1508.96 2952.61 1503.23 2956.07 1497.36ZM2913.82 1545.26L2741.86 1372.96L2944.1 1508.35C2935.16 1521.6 2925 1533.94 2913.82 1545.26ZM2939.66 1521.94C2944.49 1529.87 2949.07 1538.02 2953.36 1546.4C2944.31 1543.82 2935.43 1540.94 2926.7 1537.76C2931.24 1532.64 2935.56 1527.39 2939.66 1521.94ZM2969.61 1471.07C2976.11 1477.68 2982.4 1484.58 2988.48 1491.74C2979.11 1491.3 2969.82 1490.49 2960.62 1489.38C2963.84 1483.41 2966.84 1477.29 2969.61 1471.07ZM2744.29 1367.08L2987.48 1367.06C2987.41 1383.31 2985.82 1399.2 2982.85 1414.6L2744.29 1367.08ZM2987.19 1414.7C2995.01 1419.66 3002.71 1424.93 3010.25 1430.54C3001.02 1432.25 2991.78 1433.59 2982.58 1434.58C2984.38 1428.06 2985.92 1421.43 2987.19 1414.7ZM2978.51 1283.15C2987.89 1283.62 2997.31 1284.43 3006.78 1285.62C2999.46 1291.73 2991.96 1297.52 2984.31 1303C2982.62 1296.26 2980.69 1289.65 2978.51 1283.15ZM2982.64 1315.17L2744.06 1362.73L2968.79 1269.46C2974.78 1284.08 2979.46 1299.37 2982.64 1315.17ZM2967.48 1255.75C2976.84 1255.13 2986.31 1254.86 2995.83 1254.95C2989.26 1261.88 2982.48 1268.49 2975.51 1274.8C2973.1 1268.33 2970.41 1261.96 2967.48 1255.75ZM2742.06 1358.95L2914.02 1186.66C2925.21 1197.96 2935.35 1210.31 2944.3 1223.55L2742.06 1358.95ZM2740.54 1357.44L2875.66 1154.79C2888.88 1163.74 2901.2 1173.9 2912.5 1185.12L2740.54 1357.44ZM2912.3 1546.78C2901 1558 2888.69 1568.17 2875.46 1577.11L2740.32 1374.47L2912.3 1546.78ZM2873.68 1578.29C2860.48 1587.07 2846.42 1594.64 2831.65 1600.85L2738.55 1375.65L2873.68 1578.29ZM2829.65 1601.68C2815.07 1607.66 2799.8 1612.34 2784.02 1615.54L2736.55 1376.51L2829.65 1601.68ZM2781.91 1615.94C2766.54 1618.92 2750.7 1620.52 2734.46 1620.59L2734.45 1376.91L2781.91 1615.94ZM2734.66 1354.99L2734.64 1111.33C2750.86 1111.4 2766.74 1112.99 2782.09 1115.97L2734.66 1354.99ZM2733.39 1653.96C2731.85 1653.96 2730.32 1653.93 2728.81 1653.91C2733.13 1644.4 2737.07 1634.81 2740.59 1625.15L2740.01 1624.83C2740.41 1624.82 2740.78 1624.81 2741.17 1624.81L2740.59 1625.18C2744.64 1634.64 2749.12 1644 2753.98 1653.25C2747.16 1653.69 2740.31 1653.96 2733.39 1653.96ZM2757.51 1649.94C2753.02 1641.62 2748.88 1633.16 2745.06 1624.65C2751.95 1624.33 2758.76 1623.78 2765.5 1622.94C2763.19 1631.94 2760.52 1640.97 2757.51 1649.94ZM2761.55 1652.58C2764.79 1642.63 2767.65 1632.66 2770.03 1622.64L2769.42 1622.4C2769.79 1622.35 2770.18 1622.3 2770.54 1622.24L2770.03 1622.64C2775.13 1631.59 2780.65 1640.4 2786.54 1649.03C2778.32 1650.57 2769.99 1651.75 2761.55 1652.58ZM2774.45 1621.64C2781.23 1620.56 2787.92 1619.19 2794.53 1617.61C2793.26 1626.84 2791.63 1636.11 2789.67 1645.36C2784.26 1637.59 2779.19 1629.66 2774.45 1621.64ZM2793.98 1647.54C2796.08 1637.29 2797.75 1627.03 2798.98 1616.8L2798.42 1616.64C2798.75 1616.55 2799.07 1616.45 2799.4 1616.37C2799.27 1616.51 2799.12 1616.65 2798.98 1616.81C2805.08 1625.13 2811.57 1633.26 2818.42 1641.17C2810.42 1643.62 2802.26 1645.75 2793.98 1647.54ZM2821.09 1637.09C2814.85 1630.01 2808.91 1622.72 2803.28 1615.31C2809.88 1613.46 2816.37 1611.35 2822.73 1609C2822.52 1618.31 2822 1627.68 2821.09 1637.09ZM2825.61 1638.8C2826.51 1628.35 2827.01 1617.96 2827.06 1607.63C2826.88 1607.6 2826.68 1607.58 2826.51 1607.53C2826.8 1607.42 2827.12 1607.3 2827.4 1607.19L2827.07 1607.63C2834.08 1615.19 2841.47 1622.51 2849.18 1629.59C2841.5 1633 2833.63 1636.09 2825.61 1638.8ZM2831.17 1605.69C2837.51 1603.1 2843.71 1600.26 2849.78 1597.19C2850.64 1606.46 2851.18 1615.81 2851.36 1625.26C2844.34 1618.96 2837.61 1612.42 2831.17 1605.69ZM2856.07 1626.47C2855.77 1616 2855.08 1605.59 2853.94 1595.35L2853.4 1595.32C2853.67 1595.18 2853.94 1595.03 2854.22 1594.89L2853.94 1595.33C2861.76 1602.05 2869.93 1608.47 2878.43 1614.63C2871.17 1618.89 2863.72 1622.84 2856.07 1626.47ZM2857.81 1592.95C2863.79 1589.66 2869.62 1586.11 2875.31 1582.37C2877.22 1591.47 2878.82 1600.71 2880.07 1610.07C2872.39 1604.6 2864.97 1598.88 2857.81 1592.95ZM2884.89 1610.73C2883.4 1600.34 2881.53 1590.1 2879.22 1580.03C2879.07 1580.04 2878.91 1580.06 2878.76 1580.06C2878.98 1579.9 2879.21 1579.74 2879.43 1579.6L2879.24 1580.04C2887.79 1585.83 2896.66 1591.29 2905.79 1596.43C2899.03 1601.48 2892.06 1606.25 2884.89 1610.73ZM2882.83 1577.22C2888.39 1573.26 2893.77 1569.08 2898.99 1564.71C2901.91 1573.53 2904.55 1582.52 2906.86 1591.66C2898.62 1587.11 2890.61 1582.29 2882.83 1577.22ZM2911.72 1591.8C2909.07 1581.64 2906.04 1571.68 2902.61 1561.93L2902.21 1562C2902.39 1561.84 2902.57 1561.69 2902.75 1561.53L2902.61 1561.93C2911.77 1566.7 2921.2 1571.12 2930.86 1575.2C2924.74 1581.01 2918.34 1586.54 2911.72 1591.8ZM2905.89 1558.74C2910.96 1554.18 2915.85 1549.43 2920.55 1544.5C2924.44 1552.92 2928.08 1561.54 2931.4 1570.35C2922.69 1566.78 2914.2 1562.88 2905.89 1558.74ZM2936.6 1569.61C2936.48 1569.73 2936.36 1569.85 2936.25 1569.97C2932.44 1560.18 2928.3 1550.6 2923.8 1541.29C2923.68 1541.32 2923.54 1541.38 2923.41 1541.41C2923.56 1541.24 2923.72 1541.08 2923.87 1540.91L2923.78 1541.29C2933.43 1545 2943.31 1548.31 2953.36 1551.27C2948.05 1557.61 2942.46 1563.75 2936.6 1569.61ZM2958.15 1545.46C2953.27 1536.16 2948.08 1527.11 2942.54 1518.36L2942.18 1518.52C2942.3 1518.35 2942.43 1518.16 2942.57 1517.99L2942.54 1518.38C2952.54 1520.97 2962.72 1523.14 2973.05 1524.92C2968.39 1531.99 2963.41 1538.84 2958.15 1545.46ZM2977.11 1518.62C2971.21 1509.93 2965.02 1501.53 2958.52 1493.48C2958.41 1493.54 2958.31 1493.6 2958.21 1493.65C2958.31 1493.48 2958.4 1493.3 2958.5 1493.13L2958.52 1493.48C2968.75 1494.91 2979.14 1495.9 2989.62 1496.49C2985.79 1504.07 2981.6 1511.44 2977.11 1518.62ZM2992.93 1489.78C2986.07 1481.81 2978.96 1474.17 2971.58 1466.92L2971.32 1467.1C2971.4 1466.93 2971.46 1466.76 2971.55 1466.59L2971.58 1466.9C2981.92 1467.15 2992.33 1466.95 3002.83 1466.33C2999.87 1474.33 2996.56 1482.15 2992.93 1489.78ZM3005.35 1459.31C2997.61 1452.18 2989.66 1445.4 2981.51 1439.06L2981.27 1439.29C2981.31 1439.11 2981.37 1438.93 2981.43 1438.76L2981.51 1439.07C2991.79 1438.13 3002.14 1436.72 3012.49 1434.91C3010.44 1443.18 3008.07 1451.33 3005.35 1459.31ZM3014.17 1427.6C3005.67 1421.41 2997.01 1415.6 2988.17 1410.21C2988.11 1410.3 2988.04 1410.37 2987.98 1410.46C2988.01 1410.28 2988.04 1410.11 2988.07 1409.94L2988.17 1410.23C2998.31 1408.1 3008.42 1405.53 3018.49 1402.53C3017.42 1411 3015.96 1419.36 3014.17 1427.6ZM3020.73 1369.71C3020.63 1378.28 3020.16 1386.74 3019.33 1395.11C3010.18 1389.93 3000.89 1385.15 2991.5 1380.79C2991.45 1380.87 2991.39 1380.96 2991.33 1381.03C2991.35 1380.86 2991.36 1380.69 2991.36 1380.53L2991.5 1380.77C3001.32 1377.52 3011.05 1373.83 3020.73 1369.71ZM2991.96 1361.49C2991.85 1354.52 2991.45 1347.62 2990.79 1340.81C2999.84 1343.41 3008.82 1346.37 3017.76 1349.66C3009.25 1353.95 3000.63 1357.9 2991.96 1361.49ZM3020.27 1345.6C3010.52 1342.11 3000.72 1339 2990.88 1336.34L2990.42 1337.36C2990.36 1336.72 2990.27 1336.08 2990.2 1335.44L2990.88 1336.34C2999.87 1331.53 3008.74 1326.3 3017.47 1320.7C3018.75 1328.91 3019.69 1337.19 3020.27 1345.6ZM3016.14 1313.01C3006.06 1310.64 2995.95 1308.69 2985.87 1307.18L2985.55 1308.23C2985.41 1307.62 2985.26 1307.01 2985.11 1306.4L2985.87 1307.19C2994.27 1301.39 3002.48 1295.18 3010.5 1288.61C3012.72 1296.59 3014.6 1304.74 3016.14 1313.01ZM3008.33 1281.09C2998.04 1279.89 2987.77 1279.12 2977.57 1278.78L2977.36 1279.86C2977.15 1279.28 2976.94 1278.68 2976.74 1278.08C2977.02 1278.32 2977.29 1278.53 2977.57 1278.78C2985.25 1272.05 2992.69 1264.92 2999.9 1257.49C3003.03 1265.2 3005.85 1273.06 3008.33 1281.09ZM2996.86 1250.29C2986.5 1250.29 2976.23 1250.69 2966.06 1251.51L2965.99 1252.58C2965.72 1252.03 2965.44 1251.47 2965.15 1250.92L2966.06 1251.5C2972.92 1243.92 2979.51 1236 2985.83 1227.76C2989.81 1235.1 2993.49 1242.61 2996.86 1250.29ZM2981.98 1221C2971.7 1222.2 2961.51 1223.77 2951.51 1225.75L2951.54 1226.77C2951.21 1226.26 2950.88 1225.78 2950.57 1225.28L2951.5 1225.75C2957.44 1217.43 2963.08 1208.8 2968.43 1199.9C2973.26 1206.72 2977.76 1213.76 2981.98 1221ZM2948.63 1222.33C2944.8 1216.59 2940.76 1211 2936.5 1205.6C2945.49 1202.88 2954.61 1200.47 2963.9 1198.39C2959.08 1206.62 2953.99 1214.6 2948.63 1222.33ZM2948.01 1174.2C2953.57 1180.44 2958.88 1186.9 2963.87 1193.61C2953.78 1195.98 2943.83 1198.7 2934.1 1201.81C2934.16 1202.15 2934.2 1202.48 2934.26 1202.82C2933.89 1202.38 2933.55 1201.91 2933.17 1201.47L2934.1 1201.81C2939.09 1192.87 2943.71 1183.65 2948.01 1174.2ZM2930.88 1198.73C2926.44 1193.47 2921.78 1188.38 2916.94 1183.49C2925.56 1179.78 2934.35 1176.35 2943.33 1173.23C2939.47 1181.94 2935.31 1190.43 2930.88 1198.73ZM2936.81 1162.3C2938.84 1164.33 2940.82 1166.39 2942.77 1168.47C2933.01 1171.97 2923.44 1175.8 2914.12 1180L2914.39 1180.96C2913.99 1180.56 2913.57 1180.16 2913.17 1179.76L2914.12 1180C2918.06 1170.55 2921.61 1160.85 2924.81 1150.97C2928.93 1154.64 2932.92 1158.4 2936.81 1162.3ZM2910.56 1177.28C2905.53 1172.56 2900.35 1168.05 2894.99 1163.73C2903.12 1159.07 2911.48 1154.65 2920.05 1150.53C2917.21 1159.64 2914.02 1168.55 2910.56 1177.28ZM2899.12 1130.5C2905.95 1135.33 2912.57 1140.47 2918.95 1145.87C2909.63 1150.46 2900.57 1155.36 2891.79 1160.59L2892.13 1161.48C2891.7 1161.13 2891.27 1160.82 2890.82 1160.48L2891.77 1160.59C2894.64 1150.75 2897.07 1140.71 2899.12 1130.5ZM2887.96 1158.27C2882.46 1154.17 2876.79 1150.28 2870.96 1146.61C2878.51 1141.06 2886.3 1135.73 2894.34 1130.67C2892.53 1140.01 2890.4 1149.21 2887.96 1158.27ZM2871.29 1113.09C2878.64 1117.13 2885.81 1121.47 2892.77 1126.12C2884.02 1131.75 2875.55 1137.63 2867.41 1143.85L2867.83 1144.65C2867.38 1144.38 2866.94 1144.12 2866.49 1143.85L2867.4 1143.86C2869.11 1133.74 2870.38 1123.48 2871.29 1113.09ZM2863.34 1141.98C2857.43 1138.53 2851.36 1135.31 2845.16 1132.33C2852 1125.95 2859.12 1119.78 2866.56 1113.84C2865.83 1123.31 2864.75 1132.7 2863.34 1141.98ZM2841.28 1130.02C2841.82 1119.78 2841.92 1109.43 2841.62 1099C2849.42 1102.16 2857.04 1105.66 2864.48 1109.47C2856.43 1116.07 2848.67 1122.91 2841.28 1130.02C2841.46 1130.27 2841.61 1130.51 2841.79 1130.75C2841.32 1130.54 2840.88 1130.32 2840.41 1130.11L2841.28 1130.02ZM2873.87 1153.61L2738.76 1356.23L2831.84 1131.05C2846.62 1137.26 2860.67 1144.85 2873.87 1153.61ZM2837 1100.3C2837.37 1109.8 2837.37 1119.24 2837.03 1128.61C2830.77 1125.88 2824.37 1123.36 2817.87 1121.12C2823.96 1113.99 2830.32 1107.04 2837 1100.3ZM2834.47 1096.21C2827.21 1103.67 2820.3 1111.37 2813.79 1119.28L2814.36 1119.92C2813.89 1119.76 2813.43 1119.61 2812.95 1119.48L2813.79 1119.29C2813.15 1109.05 2812.06 1098.76 2810.57 1088.43C2818.68 1090.66 2826.64 1093.29 2834.47 1096.21ZM2829.84 1130.24L2736.77 1355.4L2784.23 1116.37C2800.01 1119.58 2815.26 1124.25 2829.84 1130.24ZM2809.38 1118.34C2802.86 1116.34 2796.23 1114.59 2789.5 1113.11C2794.72 1105.34 2800.25 1097.7 2806.11 1090.24C2807.56 1099.64 2808.65 1108.99 2809.38 1118.34ZM2803.13 1086.46C2796.78 1094.73 2790.77 1103.16 2785.21 1111.78L2785.78 1112.3C2785.34 1112.2 2784.9 1112.13 2784.46 1112.05L2785.21 1111.8C2783.39 1101.69 2781.12 1091.56 2778.46 1081.47C2786.8 1082.77 2795.03 1084.45 2803.13 1086.46ZM2780.72 1111.31C2774.03 1110.07 2767.26 1109.09 2760.4 1108.38C2764.7 1100.07 2769.32 1091.87 2774.27 1083.79C2776.77 1092.96 2778.92 1102.14 2780.72 1111.31ZM2770.88 1080.37C2765.5 1089.31 2760.52 1098.4 2755.94 1107.61L2756.56 1108.05C2756.12 1108.02 2755.71 1107.96 2755.29 1107.94L2755.96 1107.62C2753.01 1097.79 2749.61 1087.98 2745.82 1078.25C2754.26 1078.59 2762.64 1079.29 2770.88 1080.37ZM2741.9 1081.07C2745.43 1089.87 2748.59 1098.74 2751.44 1107.65C2745.54 1107.25 2739.58 1107.02 2733.58 1107.02C2732.69 1107.02 2731.79 1107.05 2730.9 1107.05C2734.24 1098.33 2737.89 1089.65 2741.9 1081.07ZM2733.58 1077.97C2735.12 1077.97 2736.65 1077.99 2738.16 1078.02C2733.84 1087.53 2729.9 1097.12 2726.38 1106.78L2726.96 1107.1C2726.56 1107.11 2726.19 1107.12 2725.8 1107.12L2726.38 1106.75C2722.33 1097.29 2717.85 1087.93 2712.99 1078.68C2719.79 1078.22 2726.65 1077.97 2733.58 1077.97ZM2709.45 1081.97C2713.93 1090.29 2718.08 1098.76 2721.89 1107.27C2715.01 1107.58 2708.19 1108.14 2701.45 1108.98C2703.77 1099.97 2706.43 1090.95 2709.45 1081.97ZM2705.41 1079.33C2702.17 1089.28 2699.31 1099.26 2696.92 1109.28L2697.53 1109.52C2697.16 1109.56 2696.77 1109.62 2696.42 1109.67L2696.92 1109.28C2691.82 1100.33 2686.31 1091.52 2680.42 1082.88C2688.65 1081.36 2696.97 1080.16 2705.41 1079.33ZM2692.51 1110.27C2685.73 1111.36 2679.03 1112.72 2672.43 1114.31C2673.7 1105.07 2675.32 1095.81 2677.29 1086.56C2682.7 1094.33 2687.77 1102.25 2692.51 1110.27ZM2672.99 1084.39C2670.89 1094.64 2669.22 1104.9 2667.99 1115.13L2668.55 1115.29C2668.22 1115.37 2667.9 1115.47 2667.57 1115.56C2667.7 1115.42 2667.85 1115.28 2667.99 1115.12C2661.89 1106.8 2655.4 1098.67 2648.55 1090.76C2656.54 1088.3 2664.69 1086.17 2672.99 1084.39ZM2645.86 1094.82C2652.11 1101.91 2658.04 1109.19 2663.68 1116.6C2657.07 1118.45 2650.59 1120.56 2644.22 1122.91C2644.43 1113.61 2644.97 1104.23 2645.86 1094.82ZM2641.34 1093.11C2640.45 1103.56 2639.94 1113.95 2639.9 1124.27C2640.08 1124.3 2640.27 1124.32 2640.45 1124.37C2640.15 1124.48 2639.84 1124.6 2639.56 1124.71L2639.88 1124.27C2632.88 1116.71 2625.48 1109.39 2617.77 1102.31C2625.47 1098.92 2633.32 1095.84 2641.34 1093.11ZM2635.78 1126.22C2629.46 1128.81 2623.25 1131.65 2617.18 1134.73C2616.31 1125.45 2615.78 1116.1 2615.6 1106.65C2622.62 1112.97 2629.34 1119.49 2635.78 1126.22ZM2610.9 1105.46C2611.2 1115.93 2611.89 1126.33 2613.03 1136.58L2613.57 1136.61C2613.3 1136.75 2613.03 1136.89 2612.75 1137.04L2613.03 1136.59C2605.21 1129.88 2597.04 1123.46 2588.54 1117.3C2595.8 1113.04 2603.24 1109.08 2610.9 1105.46ZM2609.16 1138.97C2603.18 1142.27 2597.35 1145.81 2591.65 1149.56C2589.75 1140.46 2588.15 1131.22 2586.9 1121.86C2594.58 1127.32 2601.99 1133.05 2609.16 1138.97ZM2582.08 1121.19C2583.57 1131.58 2585.44 1141.81 2587.75 1151.89C2587.9 1151.87 2588.06 1151.86 2588.21 1151.86C2587.99 1152.01 2587.76 1152.17 2587.54 1152.31L2587.73 1151.87C2579.18 1146.09 2570.31 1140.63 2561.18 1135.48C2567.94 1130.44 2574.9 1125.66 2582.08 1121.19ZM2584.13 1154.69C2578.57 1158.66 2573.18 1162.83 2567.97 1167.21C2565.04 1158.38 2562.4 1149.39 2560.09 1140.26C2568.34 1144.8 2576.34 1149.62 2584.13 1154.69ZM2555.23 1140.11C2557.89 1150.28 2560.91 1160.24 2564.34 1169.98L2564.75 1169.91C2564.57 1170.07 2564.39 1170.23 2564.21 1170.38L2564.34 1169.98C2555.19 1165.21 2545.75 1160.79 2536.09 1156.72C2542.23 1150.92 2548.61 1145.37 2555.23 1140.11ZM2561.08 1173.18C2556.01 1177.74 2551.12 1182.48 2546.42 1187.41C2542.53 1178.99 2538.89 1170.37 2535.57 1161.56C2544.26 1165.14 2552.77 1169.03 2561.08 1173.18ZM2530.35 1162.3C2530.47 1162.19 2530.59 1162.06 2530.71 1161.95C2534.51 1171.74 2538.66 1181.31 2543.16 1190.62C2543.28 1190.59 2543.41 1190.53 2543.55 1190.51C2543.4 1190.68 2543.23 1190.83 2543.08 1191L2543.17 1190.62C2533.53 1186.91 2523.64 1183.61 2513.6 1180.64C2518.92 1174.32 2524.49 1168.17 2530.35 1162.3ZM2508.81 1186.46C2513.68 1195.75 2518.87 1204.8 2524.42 1213.55L2524.78 1213.39C2524.66 1213.56 2524.52 1213.75 2524.39 1213.92L2524.42 1213.54C2514.42 1210.94 2504.23 1208.78 2493.9 1206.99C2498.57 1199.93 2503.55 1193.09 2508.81 1186.46ZM2489.85 1213.31C2495.75 1222 2501.94 1230.39 2508.44 1238.45C2508.54 1238.39 2508.65 1238.33 2508.75 1238.28C2508.65 1238.45 2508.56 1238.63 2508.45 1238.8L2508.44 1238.45C2498.21 1237.02 2487.82 1236.02 2477.34 1235.44C2481.17 1227.86 2485.36 1220.49 2489.85 1213.31ZM2474.03 1242.15C2480.89 1250.12 2488 1257.76 2495.38 1265.01L2495.63 1264.82C2495.56 1265 2495.5 1265.17 2495.41 1265.34L2495.38 1265.02C2485.03 1264.78 2474.63 1264.98 2464.13 1265.59C2467.1 1257.59 2470.41 1249.76 2474.03 1242.15ZM2461.61 1272.61C2469.35 1279.73 2477.29 1286.52 2485.45 1292.86L2485.69 1292.63C2485.64 1292.8 2485.58 1292.98 2485.52 1293.16L2485.45 1292.84C2475.16 1293.78 2464.82 1295.19 2454.47 1297C2456.51 1288.74 2458.88 1280.6 2461.61 1272.61ZM2452.78 1304.33C2461.28 1310.51 2469.94 1316.33 2478.78 1321.72C2478.84 1321.63 2478.92 1321.56 2478.98 1321.47C2478.95 1321.64 2478.92 1321.81 2478.89 1321.99L2478.78 1321.7C2468.65 1323.82 2458.54 1326.4 2448.46 1329.4C2449.53 1320.92 2451 1312.55 2452.78 1304.33ZM2446.22 1362.22C2446.33 1353.65 2446.79 1345.19 2447.63 1336.82C2456.78 1341.99 2466.07 1346.78 2475.46 1351.14C2475.5 1351.06 2475.56 1350.97 2475.62 1350.9C2475.61 1351.07 2475.59 1351.24 2475.59 1351.4L2475.46 1351.16C2465.64 1354.39 2455.9 1358.1 2446.22 1362.22ZM2475.01 1370.42C2475.12 1377.39 2475.52 1384.29 2476.18 1391.1C2467.13 1388.51 2458.15 1385.55 2449.21 1382.25C2457.72 1377.98 2466.32 1374.03 2475.01 1370.42ZM2476.07 1395.58L2476.53 1394.55C2476.59 1395.19 2476.68 1395.83 2476.76 1396.48L2476.07 1395.58C2467.08 1400.38 2458.21 1405.61 2449.49 1411.21C2448.21 1403.03 2447.27 1394.72 2446.67 1386.33C2456.42 1389.82 2466.22 1392.91 2476.07 1395.58Z" fill="#D1D1D1">
<animateTransform attributeName="transform"
                          attributeType="XML"
                          type="rotate"
                          from="0 2733 1369"
                          to="360 2733 1369"
                          dur="100s"
                          repeatCount="indefinite"/>

</path>


<rect id="Rectangle 1" width="12.6671" height="319.805" transform="matrix(0.979532 -0.201287 0.215872 0.976422 2734 1373.55)" fill="#C4C4C4"/>
<rect id="Rectangle 2" width="12.6645" height="319.875" transform="matrix(0.976775 0.214267 -0.229695 0.973263 2724.47 1371.96)" fill="#C4C4C4"/>
<rect id="Rectangle 3" width="12.6536" height="314.106" transform="matrix(0.0104944 0.999945 -0.999907 -0.0136542 2891.08 1677.29)" fill="#C4C4C4"/>
<rect id="Rectangle 4" width="12.6536" height="118.466" transform="matrix(0.0104944 0.999945 -0.999907 -0.0136542 2793.45 1689.62)" fill="#C4C4C4"/>
</g>
<defs>
<clipPath id="clip0">
<rect width="3840" height="2397" fill="white"/>
</clipPath>
</defs>
</svg>
