<svg xmlns="http://www.w3.org/2000/svg" xmlns:xlink="http://www.w3.org/1999/xlink" viewBox="0 0 6095.27 2398"><defs><style>.cls-1{fill:none;}.cls-2,.cls-6{fill:#fff;}.cls-2{opacity:0.19;}.cls-2,.cls-3,.cls-4,.cls-5,.cls-6{isolation:isolate;}.cls-3{opacity:0.3;fill:url(#linear-gradient);}.cls-4{fill:#3482b2;opacity:0.14;}.cls-5{fill:#4e669b;}.cls-5,.cls-6{opacity:0.16;}.cls-7{fill:#c6c6c6;}</style><linearGradient id="linear-gradient" x1="3569.15" y1="-644.13" x2="6859.16" y2="-644.13" gradientTransform="matrix(-0.98, 0.19, 0.19, 0.98, 9478.3, 642.84)" gradientUnits="userSpaceOnUse"><stop offset="0" stop-color="#fff"/><stop offset="0.04" stop-color="#daf9fc"/><stop offset="0.11" stop-color="#a2f0f7"/><stop offset="0.18" stop-color="#74e8f2"/><stop offset="0.24" stop-color="#50e2ef"/><stop offset="0.3" stop-color="#36deed"/><stop offset="0.35" stop-color="#26dbeb"/><stop offset="0.4" stop-color="#21daeb"/></linearGradient></defs><title>skyline3</title><g id="Layer_2" data-name="Layer 2"><g id="box"><rect class="cls-1" x="3.3" width="6089.34" height="2398"/></g><g id="sk3"><g id="skyline3"><g id="skyline3-2"><polygon class="cls-2" points="6062.46 1323.08 6062.46 1659.92 4991.71 1659.92 5597.52 1469.35 6033.31 1332.26 6062.46 1323.08"/><path class="cls-3" d="M5845.16,721.27c5.81-1,11.49,2.32,12.84,7.63h0c1.07,5.27-2.7,10.35-8.43,11.34l-.23,0L2615.54,1291Z"/><polygon class="cls-4" points="3395.36 1655.89 3439.94 1661.59 3313.56 1661.59 3173.19 1671.37 3159.53 1661.59 2336.03 1661.59 2336.03 1669.53 2186.63 1669.53 2186.63 1661.59 0 1661.59 0 946.07 422.05 834.46 684.43 840.99 696.65 841.3 703.58 841.48 734.83 842.25 1087.63 851.03 1268.11 855.53 1422.12 859.37 1507.3 861.49 1533.73 878.71 1593.46 917.61 1690.14 980.59 1690.15 980.59 1696.53 984.75 1734.78 1009.67 2450.18 1475.69 2563.56 1549.56 3085.03 1616.22 3098.59 1617.95 3395.36 1655.89"/><polygon class="cls-5" points="3099.82 1619.16 3160.76 1662.8 2337.26 1662.8 2337.26 1670.73 2187.86 1670.73 2187.86 1662.8 1.23 1662.8 1.23 746.58 767.18 717.16 1088.87 852.24 1162.37 883.1 1199.34 898.63 1260.23 924.2 1421.82 992.05 1432.48 992.69 1450.38 993.76 1579.66 1001.5 1599.47 1002.7 1599.48 1002.7 1605.26 1003.03 1736.01 1010.87 2021.62 1027.98 2517.9 1202.45 2560.71 1233.1 2956.04 1516.19 3011.68 1556.03 3012.49 1556.62 3018.94 1561.24 3086.27 1609.45 3099.82 1619.16"/><polygon class="cls-6" points="6095.27 938.84 6095.27 1659.92 3568.94 1659.92 3719.13 1650.18 4404.56 1605.77 4666.31 1588.79 4710.93 1585.91 4861.1 1576.17 4972.65 1518.57 6095.27 938.84"/><path class="cls-7" d="M5785.84,1686.42v-76.58h-4.44v-9.92h-13.76v9.92h-5.42v-9.92h-13.75v9.92h-5.42v-9.92H5729.3v9.92h-5.42v-9.92h-13.75v9.92h-5.43v-9.92H5691v9.92h-5.41v-9.92h-9.08v-47.08h2v-5h-2v-28.3h2v-5h-2v-28.3h2v-5h-2v-28.31h2v-5h-2v-28.31h2v-5h-2v-45h4.37v-4.68h1.78v-4.1h-11.09v-9.2h2.34v-4.27h1.61v-3.7h-10V1295h3.11v-4.23H5670v-3.71h-4.59v-28.17h3.1v-4.23H5670V1251h-4.59v-71.81h3.1v-4.23H5670v-3.7h-4.59v-63.88h3.1v-4.23H5670v-3.7h-4v-13.54h2.44v-3.18h-1.06c0-1.83.32-4.09-1.22-5.51-1.08-1-2.76-1.56-3.81-2.6,1.32-.45,2.55-1.42,2.22-2.92a2.68,2.68,0,0,0-1.61-2.12c-.64-.29-1.71-.21-2.22-.71h2.33v-8.21h-1.71l-5.31-34.45h.95v-1.72h-1.22l-.62-4.09h1.31v-1.73h-1.57l-.27-1.78h1.22v-1.72h-1.51l-.6-3.87a1.58,1.58,0,1,0-1.93-1.54,1.57,1.57,0,0,0,1.29,1.54l-.59,3.87H5651v1.72h1.22l-.28,1.78h-1.43v1.73h1.32l-.63,4.09H5650v1.73h.95l-5.31,34.46h-1.71v8.2h2.33c-.51.52-1.6.43-2.22.71a2.73,2.73,0,0,0-1.62,2.12c-.31,1.5.91,2.48,2.23,2.92-1.07,1-2.75,1.57-3.81,2.6a5.21,5.21,0,0,0-.39.45l-4.5-4.45L5631,1078v4.8h-3.93V1078l-4.89-4.79-4.82,4.79v4.8h-3.92V1078l-4.83-4.79-4.88,4.79v4.8h-3.93V1078l-4.89-4.79-4.82,4.79v4.8h-3.94V1078l-4.88-4.79-4.49,4.45a4.19,4.19,0,0,0-.39-.45c-1.07-1-2.75-1.55-3.82-2.6,1.32-.45,2.56-1.42,2.24-2.92a2.68,2.68,0,0,0-1.61-2.12c-.64-.29-1.71-.2-2.24-.71h2.57v-8.2h-1.71l-5.31-34.46h.95v-1.71h-1.22l-.64-4.1h1.31v-1.73h-1.58l-.28-1.78h1.22v-1.71h-1.51l-.6-3.87a1.6,1.6,0,0,0,1.27-1.88,1.63,1.63,0,0,0-1.92-1.25,1.59,1.59,0,0,0,0,3.13l-.59,3.87h-1.52v1.71h1.22l-.28,1.78h-1.57v1.73h1.31l-.63,4.1h-1.22v1.71h.95l-5.31,34.46h-1.71v8.2h2.33c-.51.52-1.6.43-2.23.71a2.68,2.68,0,0,0-1.49,2.16c-.32,1.49.91,2.48,2.23,2.92-1.06,1-2.75,1.57-3.81,2.6-1.49,1.42-1.22,3.69-1.16,5.51H5549v3.18h2.44v13.49h-4v3.7h1.47v4.23H5552v63.88h-4.6v3.7h1.48v4.23h3.1V1251h-4.59v3.72h1.48v4.23h3.1v28.17h-4.59v3.71h1.48V1295h3.1v31.49h-9.37l-34.84-57a2.46,2.46,0,0,0,1.46-3.2,2.51,2.51,0,0,0-2.52-1.59h-1v-3.94a3.46,3.46,0,0,0,0-6.59v-3.92H5508a1.28,1.28,0,1,0,0-2.56h-2.33v-3.08a1.12,1.12,0,0,0-2.23,0v3.08h-2.32a1.31,1.31,0,0,0-1.32,1.28,1.3,1.3,0,0,0,1.31,1.28h2.33v4a3.46,3.46,0,0,0,0,6.59v3.94h-1a2.52,2.52,0,0,0-2.68,2.32,2.48,2.48,0,0,0,1.62,2.48l-34.84,57H5458v-31.49h3.1v-4.23h1.36v-3.7h-4.58V1259h3.1v-4.23h1.48V1251h-4.58v-71.81h3.1V1175h1.48v-3.71h-4.58v-63.88h3.1v-4.23h1.48v-3.7h-4.05V1086h2.45v-3.17h-1.08c0-1.84.32-4.1-1.22-5.51-1.06-1-2.75-1.56-3.81-2.6,1.32-.46,2.55-1.43,2.24-2.93a2.71,2.71,0,0,0-1.62-2.12c-.63-.29-1.71-.2-2.22-.71h2.33v-8.2h-1.57l-5.37-34.53h.95v-1.71h-1.22l-.64-4.1h1.31v-1.73h-1.58l-.28-1.78h1.22v-1.71h-1.5l-.6-3.87a1.59,1.59,0,1,0-1.93-1.57h0a1.63,1.63,0,0,0,1.3,1.56l-.6,3.87h-1.51v1.71h1.22l-.28,1.78h-1.48v1.73h1.22l-.64,4.1h-1.22v1.71h1l-5.32,34.46h-1.72v8.2h2.33c-.51.52-1.6.43-2.22.71a2.69,2.69,0,0,0-1.61,2.12c-.32,1.5.91,2.48,2.23,2.92-1.07,1-2.74,1.57-3.81,2.6q-.21.22-.39.45l-4.49-4.45-4.83,4.79v4.8h-3.92V1078l-4.88-4.79-4.82,4.79v4.8h-3.94V1078l-4.82-4.79-4.82,4.79v4.8h-3.92V1078l-4.89-4.79-4.82,4.79v4.8h-3.93V1078l-4.89-4.79-4.49,4.45a4.11,4.11,0,0,0-.38-.45c-1.08-1-2.75-1.55-3.81-2.6,1.32-.45,2.55-1.42,2.23-2.92a2.68,2.68,0,0,0-1.61-2.12c-.63-.29-1.71-.2-2.23-.71H5366v-8.2h-1.71L5359,1026.2h.95v-1.71h-1.22l-.63-4.1h1.3v-1.73h-1.57l-.27-1.78h1.22v-1.71h-1.51l-.6-3.87a1.62,1.62,0,1,0-.65,0l-.6,3.87h-1.51v1.71h1.22l-.27,1.78h-1.57v1.73h1.3l-.62,4.1h-1.22v1.71h.95l-5.3,34.46h-1.71v8.2H5349c-.51.52-1.6.43-2.22.71a2.7,2.7,0,0,0-1.59,2.16c-.32,1.49.93,2.48,2.24,2.92-1.07,1-2.75,1.57-3.81,2.6-1.48,1.42-1.23,3.69-1.23,5.51h-1.06v3.18h2.44v13.49h-4v3.7h1.48v4.23h3.1v63.88h-4.58v3.7h1.48v4.23h3.1V1251h-4.58v3.72h1.48v4.23h3.1v28.17h-4.58v3.71h1.48V1295h3.1v48.55h-10v3.7h1.61v4.23h2.33v9.2h-11.09v4.1h1.79v4.69h4.37v74.83h-41.4l-3.15-21.7-3.25,22.39-6.86-38.66-7.21,40.63-2.29-12.19-7.49,39.68h-3.37v20.17h-5.79v72.74h-4.59v119Z"/></g></g></g></g></svg>