<svg xmlns="http://www.w3.org/2000/svg" viewBox="0 0 4938.66 2398"><defs><style>.cls-1{fill:none;}.cls-2{fill:#fff;}.cls-3{fill:#c4c4c4;}</style></defs><title>wheel_1</title><g id="Layer_2" data-name="Layer 2"><g id="box"><rect class="cls-1" width="4938.66" height="2398"/></g><g id="wheel"><path id="londonWheel" class="cls-2" d="M3066.26,1406.73a12.63,12.63,0,0,0,7.11-2.68q0,1.48.12,3l-.21.1.24.4a7.08,7.08,0,0,0,.07,1.21l-.18.46.24.1a298.43,298.43,0,0,0,3.52,31.14l-.19.13.28.38c.06.4.12.8.19,1.2h0a12.61,12.61,0,0,0-7.46-1.07,12.34,12.34,0,0,0,4.38,24.29l.62-.13a12.85,12.85,0,0,0,6.46-4c1,4,2,8,3.16,12l-.18.14.31.33c.11.39.24.8.35,1.18l-.09.46h.24q3.39,11.42,7.64,22.43a12.82,12.82,0,0,0-7.58.41,12.34,12.34,0,1,0,9.64,22.72,12.92,12.92,0,0,0,5.56-5.22q4.61,9.93,9.95,19.44l-.12.17.35.24c.23.39.42.77.65,1.14v.42h.19c2.34,4.13,4.8,8.22,7.35,12.23a12.87,12.87,0,0,0-7.38,1.89,12.33,12.33,0,0,0,13.9,20.37h0a12.88,12.88,0,0,0,4.44-6.22,294.07,294.07,0,0,0,19.76,24.23l-.08.16.33.11c.33.34.64.68,1,1l.1.36.18-.06c1.1,1.2,2.21,2.38,3.31,3.55a12.79,12.79,0,0,0-6.84,3.28,12.32,12.32,0,0,0,17.31,17.54l.28-.29a12.77,12.77,0,0,0,3.15-6.92c1.72,1.59,3.48,3.16,5.24,4.72v.15l.31.07c.39.33.76.66,1.12,1l.1.29.15-.08q11,9.49,22.89,17.88a12.75,12.75,0,0,0-6.07,4.56,12.32,12.32,0,0,0,20.6,13.52h0a12.88,12.88,0,0,0,1.75-7.38q7,4.28,14.29,8.16v.12h.25l1.43.75.14.2.1-.07q8.68,4.56,17.68,8.55a13,13,0,0,0-5.08,5.66,12.32,12.32,0,1,0,22.85,9.22,12.72,12.72,0,0,0,.26-7.6q12.12,4.42,24.73,7.79v.07h.13l1.77.47.09.07h0c3.28.85,6.61,1.64,9.93,2.38a12.89,12.89,0,0,0-3.89,6.57,12.32,12.32,0,1,0,24.05,5.38c.06-.27.11-.54.15-.82a12.9,12.9,0,0,0-1.26-7.53c.62.1,1.23.17,1.85.26h.09c.61.1,1.23.17,1.85.26l.09.06h0a293.57,293.57,0,0,0,31.33,2.7h0l2,.08h.79a12.9,12.9,0,0,0-2.52,7.19,12.31,12.31,0,0,0,24.62.38c0-.22,0-.43,0-.65a12.76,12.76,0,0,0-2.68-7.12c4.46-.19,8.89-.49,13.28-.87h0q12.53-1.1,24.73-3.22a12.87,12.87,0,0,0-1.07,7.51,12.32,12.32,0,1,0,24.24-4.42c0-.19-.07-.38-.12-.58a12.87,12.87,0,0,0-4-6.45A290.86,290.86,0,0,0,3473,1666.1a12.84,12.84,0,0,0,.41,7.61,12.31,12.31,0,1,0,22.74-9.42,2.6,2.6,0,0,0-.1-.25,12.84,12.84,0,0,0-5.2-5.57,291.19,291.19,0,0,0,33.54-18.43,12.81,12.81,0,0,0,1.9,7.39,12.33,12.33,0,1,0,20.82-13.21c-.15-.24-.32-.48-.49-.72a12.67,12.67,0,0,0-6.2-4.45,295.81,295.81,0,0,0,29.34-24.61,13,13,0,0,0,3.28,6.87,12.33,12.33,0,1,0,17.68-17.19l-.46-.45a12.62,12.62,0,0,0-6.92-3.14,292.82,292.82,0,0,0,24-29.84,12.73,12.73,0,0,0,4.55,6.07,12.33,12.33,0,1,0,13.79-20.44l-.3-.2a13,13,0,0,0-7.36-1.75,292.12,292.12,0,0,0,17.68-33.94,12.73,12.73,0,0,0,5.65,5.07,12.33,12.33,0,0,0,9.23-22.87,12.66,12.66,0,0,0-7.58-.26,293.64,293.64,0,0,0,10.71-36.78,12.71,12.71,0,0,0,6.56,3.9,12.34,12.34,0,0,0,5.12-24.14l-.57-.11a12.62,12.62,0,0,0-7.52,1.25,297.76,297.76,0,0,0,3.33-38.19,12.62,12.62,0,0,0,7.18,2.52,12,12,0,0,0,12.08-9.32h-28.79a.09.09,0,0,0,.1,0q-12.93,5.64-26,10.22c.12-3.39.22-6.8.22-10.22h.23v-1l.55,1q14.23-5.64,28.17-12.53c.17,4.15.28,8.32.28,12.51h25.6a12.86,12.86,0,0,0,.37-3.21,12.13,12.13,0,0,0-12.05-12.21h-.64a12.7,12.7,0,0,0-7.11,2.68c0-1-.07-2-.12-3l.21-.1-.24-.4a7.14,7.14,0,0,0-.07-1.21l.18-.44-.24-.1a298.74,298.74,0,0,0-3.52-31.14l.19-.13-.28-.38c-.06-.4-.12-.8-.19-1.2h0a12.61,12.61,0,0,0,7.46,1.07,12.34,12.34,0,0,0-4.38-24.28c-.21,0-.42.08-.62.12a13.08,13.08,0,0,0-6.46,4c-1-4-2-8-3.16-12l.18-.14-.31-.33-.35-1.18.09-.46h-.24q-3.39-11.42-7.64-22.43a12.67,12.67,0,0,0,7.58-.41,12.34,12.34,0,0,0-9.64-22.72h0a12.92,12.92,0,0,0-5.56,5.22q-4.6-9.91-9.95-19.44l.12-.17-.35-.24c-.23-.39-.42-.77-.65-1.14v-.42h-.19c-2.35-4.13-4.8-8.22-7.35-12.23a12.72,12.72,0,0,0,7.38-1.89,12.32,12.32,0,0,0-13.9-20.35,13,13,0,0,0-4.44,6.21,297.69,297.69,0,0,0-19.76-24.22l.08-.16-.33-.11-1-1-.1-.35-.18.06c-1.1-1.2-2.21-2.38-3.31-3.55a12.72,12.72,0,0,0,6.84-3.28,12.32,12.32,0,0,0-17.59-17.26,12.79,12.79,0,0,0-3.15,6.94c-1.72-1.59-3.48-3.16-5.24-4.72v-.15l-.31-.07c-.39-.33-.76-.66-1.12-1l-.1-.29-.15.08q-11-9.48-22.89-17.88a12.75,12.75,0,0,0,6.07-4.56,12.32,12.32,0,1,0-20.6-13.52,12.89,12.89,0,0,0-1.75,7.38q-7-4.26-14.29-8.16v-.25h-.25l-1.43-.75-.14-.2-.1.07q-8.69-4.56-17.68-8.55a13,13,0,0,0,5.08-5.66,12.32,12.32,0,0,0-22.85-9.22h0a12.72,12.72,0,0,0-.26,7.6q-12.12-4.41-24.73-7.79v-.07H3443l-1.77-.47-.09-.07h0c-3.28-.85-6.61-1.64-9.93-2.38a12.81,12.81,0,0,0,3.89-6.57,12.32,12.32,0,0,0-24-5.38c-.06.27-.11.55-.15.82a12.89,12.89,0,0,0,1.26,7.53c-.62-.1-1.23-.17-1.84-.26h-.09c-.61-.1-1.24-.17-1.85-.26l-.09-.06h0a293.54,293.54,0,0,0-31.34-2.7h0l-2-.08h-.79a12.85,12.85,0,0,0,2.52-7.19,12.31,12.31,0,0,0-24.62-.37c0,.21,0,.43,0,.64a12.83,12.83,0,0,0,2.68,7.12c-4.45.19-8.88.49-13.28.87h0q-12.52,1.11-24.74,3.22a12.94,12.94,0,0,0,1.08-7.51,12.33,12.33,0,0,0-24.32,4.09c0,.31.12.61.19.91a12.78,12.78,0,0,0,4,6.45,292.67,292.67,0,0,0-36.47,11.48,12.84,12.84,0,0,0-.4-7.61,12.32,12.32,0,1,0-22.95,9c.09.24.19.48.3.71a12.84,12.84,0,0,0,5.2,5.57,292.71,292.71,0,0,0-33.54,18.43,12.93,12.93,0,0,0-1.89-7.4,12.33,12.33,0,1,0-20.49,13.72l.15.22a12.66,12.66,0,0,0,6.2,4.45,297.67,297.67,0,0,0-29.43,24.69,13.13,13.13,0,0,0-3.28-6.87,12.33,12.33,0,0,0-17.68,17.19c.15.16.3.31.46.45a12.55,12.55,0,0,0,6.91,3.14,297.83,297.83,0,0,0-24,29.84,12.67,12.67,0,0,0-4.55-6.07,12.33,12.33,0,0,0-13.79,20.45l.3.19a12.94,12.94,0,0,0,7.37,1.75,291.38,291.38,0,0,0-17.68,33.94,12.84,12.84,0,0,0-5.65-5.07,12.33,12.33,0,1,0-9.23,22.87h0a12.62,12.62,0,0,0,7.57.26,294.09,294.09,0,0,0-10.7,36.78,12.69,12.69,0,0,0-6.56-3.9,12.34,12.34,0,1,0-5,24.18l.39.07a12.47,12.47,0,0,0,7.52-1.25,297.92,297.92,0,0,0-3.33,38.19,12.74,12.74,0,0,0-7.18-2.52,12,12,0,0,0-12.08,9.32H3083q12.93-5.61,26-10.22c-.12,3.39-.22,6.8-.22,10.22h-.18v1l-.55-1q-14.23,5.64-28.17,12.53c-.17-4.15-.28-8.32-.28-12.51H3054a12.86,12.86,0,0,0-.37,3.21,12.12,12.12,0,0,0,12,12.21Zm18.13,37.55c10.07,2.36,20.18,4.31,30.26,5.83l.33-1.06c.13.61.28,1.23.43,1.84l-.76-.8q-12.58,8.7-24.63,18.58-3.33-12-5.63-24.39Zm29.84,1.39q-13.91-2.33-27.8-5.71,12-7.85,24.28-14.68C3111.62,1432.16,3112.82,1439,3114.23,1445.67Zm-4.77-73.76q-12.49-6-24.7-13.08,13.45-4.11,27-7.2Q3110.23,1361.65,3109.46,1371.91Zm22.47-77,224.74,93.27-238.58-47.54a251.6,251.6,0,0,1,13.84-45.78Zm-11.42,19q-10.8-8.73-21.1-18.37,14.06-1,28-.85-3.84,9.43-6.9,19.2Zm34.75-63.14,202.23,135.38-224.76-93.27a254,254,0,0,1,22.53-42.13Zm-10.81,9.19q-8.53-11-16.38-22.73,13.91,2.28,27.43,5.56-5.86,8.34-11.05,17.15Zm42.27-47.9,172,172.3L3156.48,1249a256.21,256.21,0,0,1,30.24-36.93Zm-25.85,23.31q-7.24-11.89-13.7-24.46,13.56,3.87,26.65,8.64Q3167,1227.2,3160.87,1235.37ZM3364,1380.8l-93.11-225.18a253.23,253.23,0,0,1,45.64-13.87Zm-45.41-239.43a255.31,255.31,0,0,1,47.45-4.64v243.68Zm47.26,261V1646a254.47,254.47,0,0,1-47.45-4.65ZM3362,1381.7l-135.13-202.63a253.26,253.26,0,0,1,42-22.55Zm-1.79,1.19-172-172.29a255,255,0,0,1,36.84-30.33Zm-227.67,107,224.72-93.27L3155,1532a253.65,253.65,0,0,1-22.44-42.18Zm14.58,37.68q-13.87,2.52-28.08,4,8.61-11.44,17.89-22,4.8,9.12,10.23,17.93Zm-29.22-85.39,238.57-47.56L3131.7,1487.9a251.37,251.37,0,0,1-13.81-45.79Zm4.14,32q-14.07-.71-28.27-2.47,11-9.15,22.47-17.38,2.55,10.05,5.84,19.82Zm11,27.39q-14.05.92-28.36.8,9.87-10.39,20.32-19.86,3.71,9.71,8.1,19Zm225.49-103.2-172,172.3a256.35,256.35,0,0,1-30.28-36.9Zm1.5,1.51-135.11,202.61a255.46,255.46,0,0,1-36.84-30.32Zm-229.06-113.61q-9.75-9.9-18.88-20.67c9.38.44,18.67,1.25,27.86,2.36q-4.83,8.91-9,18.27Zm225.32,104H3113a257.21,257.21,0,0,1,4.64-47.54Zm-242.9-47.64q-11.74-7.44-23.06-15.83c9.22-1.71,18.47-3,27.66-4q-2.7,9.75-4.6,19.83ZM3356,1392.5l-238.57,47.55a258,258,0,0,1-4.63-47.54Zm-263.82,83.75c10.29,1.2,20.56,2,30.75,2.31l.21-1.09.63,1.79c-.28-.25-.55-.46-.84-.7-7.67,6.72-15.11,13.85-22.33,21.29q-4.7-11.6-8.42-23.65Zm11.48,30.81q15.54,0,30.8-1.23l.07-1.06c.27.55.55,1.11.84,1.66l-.91-.58q-10.29,11.37-19.77,23.74-6-11.07-11-22.58Zm14.88,29.27c10.28-1.2,20.47-2.76,30.47-4.76v-1l1,1.49-.93-.47q-8.91,12.48-16.93,25.85-7.3-10.28-13.6-21.16Zm33.35-1.32q5.74,8.61,12.13,16.73-13.48,4.08-27.4,7.21,7.2-12.39,15.27-24Zm.61,48.12q-8.34-9.36-15.88-19.41,15.14-3.54,29.77-8.19c-.06-.34-.1-.67-.16-1,.37.44.71.91,1.09,1.35l-.93-.34q-7.44,13.38-13.84,27.54Zm17.14-24.52q6.66,7.89,13.94,15.23-12.93,5.58-26.39,10.26,5.77-13.11,12.45-25.54Zm-6,36.44q-3-3-6-6.18,14.65-5.22,28.65-11.52l-.26-1,1.22,1.2-1-.24c-3.93,9.44-7.48,19.15-10.69,29q-6-5.47-11.87-11.31Zm26.26-15q7.51,7.07,15.56,13.55-12.18,7-25.06,13.2,4.35-13.72,9.55-26.78Zm11.43,46.77c-6.83-4.83-13.45-10-19.83-15.38q14-6.87,27.17-14.72l-.35-.88,1.32,1-1-.12q-4.15,14.76-7.26,30.07Zm11.17-27.78q8.25,6.17,17,11.66-11.31,8.34-23.37,16,2.74-14.09,6.42-27.69Zm16.67,45.18q-11-6-21.49-13,13.13-8.43,25.36-17.72l-.42-.8,1.35.8h-.91c-1.67,10-2.94,20.3-3.84,30.69Zm7.94-28.89q8.88,5.18,18.19,9.65-10.26,9.6-21.41,18.5,1.18-14.25,3.27-28.18Zm22.07,12q-.81,15.39-.35,31-11.68-4.74-22.85-10.47,12.09-9.9,23.2-20.55c-.18-.24-.33-.48-.51-.73l1.37.64Zm-32.59-23.59,135.11-202.62-93.09,225.18a252.64,252.64,0,0,1-42-22.63Zm36.86,53.32q-.55-14.25,0-28.32c6.27,2.74,12.66,5.26,19.16,7.5q-9.06,10.65-19.06,20.75Zm2.54,4.09q10.89-11.19,20.68-23.08l-.57-.64c.46.16.92.32,1.4.45l-.83.18q1,15.39,3.22,30.87-12.1-3.42-23.85-7.85Zm4.62-34L3363.7,1402l-47.45,239a250.87,250.87,0,0,1-45.57-13.93Zm20.48,11.91q9.78,3,19.88,5.23-7.83,11.65-16.61,22.87-2.13-14.17-3.22-28.2Zm6.24,31.86c6.35-8.26,12.36-16.7,17.92-25.32l-.57-.51c.43.1.88.17,1.31.24l-.74.26q2.71,15.18,6.75,30.32-12.45-2-24.62-5.09Zm22.4-24.85q10,1.86,20.32,2.94-6.43,12.46-13.86,24.58-3.71-13.83-6.41-27.62Zm9.84,31q8.07-13.39,14.94-27.23l-.61-.44,1.27.11-.67.32c2.95,9.83,6.35,19.63,10.13,29.37-8.38-.49-16.76-1.21-25-2.28Zm29-.69q-5.27-13.2-9.54-26.58c5.91.4,11.87.62,17.86.62h2.69q-5,13-11,25.81Zm243-383.53-224.73,93.27L3579,1250.73A252.8,252.8,0,0,1,3601.57,1292.85ZM3587,1255.17q13.86-2.54,28.07-4-8.61,11.46-17.89,22c-3.16-6.16-6.6-12.15-10.18-18Zm32.87,81.81c9.28,1.55,18.53,3.45,27.81,5.72q-12,7.86-24.29,14.67-1.37-10.32-3.52-20.39Zm4.77,73.76q12.51,6,24.71,13.09-13.47,4.14-27,7.19,1.54-10,2.29-20.28Zm-3.37-20.52h-243.2l238.57-47.56a256.55,256.55,0,0,1,4.63,47.56Zm-19.09,97.59-224.75-93.27L3616,1442.08a251.62,251.62,0,0,1-13.83,45.73Zm11.43-19q10.8,8.75,21.1,18.37c-9.37.65-18.7.92-28,.86q3.87-9.49,6.87-19.27ZM3578.83,1532l-202.26-135.42,224.76,93.27a252.9,252.9,0,0,1-22.5,42.11Zm10.81-9.19q8.55,11,16.39,22.73-13.92-2.28-27.43-5.56,5.85-8.39,11-17.21Zm-42.25,47.9-172-172.3,202.24,135.39a257.59,257.59,0,0,1-30.24,36.87Zm25.84-23.32q7.24,11.89,13.7,24.46-13.57-3.87-26.66-8.64c4.54-5.16,8.86-10.41,13-15.86Zm30-50.87q9.75,9.93,18.87,20.67c-9.37-.44-18.66-1.25-27.86-2.36,3.17-6,6.17-12.13,8.94-18.35Zm-225.32-104H3621.1a256.26,256.26,0,0,1-4.63,47.54Zm242.9,47.62q11.73,7.44,23.06,15.84-13.85,2.58-27.67,4,2.65-9.76,4.56-19.87Zm-8.68-131.55q14.07.71,28.27,2.47-11,9.18-22.47,17.38-2.59-10.14-5.85-19.88Zm4.13,32-238.58,47.56,224.73-93.27a251.47,251.47,0,0,1,13.8,45.7Zm-15.16-59.42c9.36-.62,18.83-.89,28.35-.8q-9.85,10.41-20.32,19.85c-2.46-6.48-5.15-12.81-8.08-19.06Zm-225.47,103.24,172-172.29a256.81,256.81,0,0,1,30.28,36.89Zm-1.52-1.51,135.12-202.65a256.19,256.19,0,0,1,36.84,30.33Zm171.76,189.34a254.33,254.33,0,0,1-36.84,30.33l-135.14-202.64Zm-38.62,31.51a252.57,252.57,0,0,1-42,22.56l-93.1-225.19Zm-44,23.39a252.54,252.54,0,0,1-45.63,13.86l-47.47-239Zm-47.74,14.26a254.47,254.47,0,0,1-47.45,4.65V1402.28Zm-47.25-261V1136.7a255.31,255.31,0,0,1,47.45,4.64Zm-1.27,299h-4.58q6.48-14.27,11.78-28.76l-.58-.32h1.16l-.58.37q6.07,14.19,13.39,28.07c-6.85.34-13.7.65-20.62.65Zm24.12-4c-4.49-8.32-8.63-16.78-12.45-25.29,6.89-.32,13.7-.87,20.44-1.71-2.34,9-5,18-8,27Zm4,2.64c3.24-10,6.1-19.92,8.48-29.94l-.61-.24,1.12-.16-.51.4q7.65,13.43,16.51,26.39-12.32,2.27-25,3.5Zm12.9-30.94c6.78-1.08,13.47-2.45,20.08-4-1.27,9.23-2.9,18.5-4.86,27.75q-8.1-11.77-15.21-23.8Zm19.53,25.9q3.15-15.36,5-30.74l-.56-.16c.33-.09.65-.19,1-.27-.13.14-.28.28-.42.44q9.15,12.48,19.44,24.36-12,3.63-24.43,6.32Zm27.11-10.45c-6.24-7.08-12.18-14.37-17.81-21.78q9.9-2.76,19.45-6.31c-.2,9.26-.72,18.63-1.63,28Zm4.52,1.71q1.35-15.66,1.45-31.17a3.33,3.33,0,0,1-.55-.1l.89-.34-.33.44q10.51,11.34,22.11,22c-7.67,3.32-15.54,6.41-23.56,9.12Zm5.56-33.11q9.51-3.88,18.61-8.5,1.29,13.91,1.58,28.07-10.52-9.5-20.18-19.62Zm24.9,20.78c-.3-10.47-1-20.88-2.13-31.12H3487l.82-.43-.28.44q11.73,10.08,24.49,19.3-10.87,6.3-22.35,11.76Zm1.74-33.52c6-3.29,11.81-6.84,17.5-10.58q2.87,13.65,4.76,27.7-11.51-8.25-22.25-17.12Zm27.08,17.78q-2.23-15.59-5.67-30.7h-.46c.22-.16.45-.32.67-.46l-.19.44q12.82,8.68,26.55,16.39-10.12,7.56-20.89,14.28Zm-2.06-33.51q8.34-5.94,16.16-12.51,4.38,13.23,7.87,27-12.35-6.93-24-14.54Zm28.89,14.58q-4-15.24-9.11-29.87l-.4.07.54-.47-.14.4q13.74,7.15,28.25,13.27c-6.11,5.75-12.51,11.29-19.13,16.55Zm-5.83-33.06q7.61-6.84,14.66-14.24c3.89,8.42,7.53,17,10.85,25.85q-13-5.43-25.5-11.66Zm30.71,10.87-.35.36q-5.71-14.67-12.45-28.68l-.39.12.46-.5-.09.38q14.47,5.58,29.58,10c-5.3,6.27-10.89,12.41-16.75,18.27Zm21.55-24.15q-7.32-14-15.61-27.1l-.36.16c.12-.17.25-.36.39-.53v.39q15,3.89,30.51,6.54-7,10.56-14.92,20.49Zm19-26.84q-8.86-13-18.59-25.14l-.31.17.29-.52v.35c10.23,1.43,20.62,2.42,31.1,3q-5.76,11.31-12.52,22.09Zm15.82-28.84q-10.29-12-21.35-22.86l-.26.18c.08-.17.14-.34.23-.51v.31q15.51.39,31.25-.57-4.44,12-9.9,23.4Zm12.42-30.47c-7.74-7.13-15.69-13.91-23.84-20.25l-.24.23a5.34,5.34,0,0,1,.16-.53l.08.31c10.28-.94,20.63-2.35,31-4.16q-3.12,12.36-7.19,24.35Zm8.82-31.71q-12.75-9.27-26-17.39c-.06.09-.13.16-.19.25l.09-.52.1.29q15.21-3.2,30.32-7.7c-1.1,8.42-2.52,16.78-4.35,25Zm6.56-57.89q-.15,12.87-1.4,25.4-13.72-7.77-27.83-14.32a1.46,1.46,0,0,1-.17.24,4.17,4.17,0,0,0,0-.5l.14.24q14.73-4.92,29.23-11.11Zm-28.77-8.22q-.17-10.46-1.17-20.68,13.58,3.9,27,8.85-12.82,6.39-25.82,11.78Zm28.31-15.89c-9.75-3.49-19.55-6.6-29.39-9.26l-.46,1c-.06-.64-.15-1.28-.22-1.92l.68.9q13.48-7.2,26.59-15.64c1.25,8.18,2.19,16.46,2.77,24.87Zm-4.13-32.59q-15.12-3.54-30.27-5.83l-.32,1c-.14-.61-.29-1.22-.44-1.83l.76.79q12.6-8.7,24.63-18.58,3.3,12,5.61,24.39Zm-7.81-31.92q-15.43-1.8-30.76-2.31l-.21,1.08c-.21-.58-.42-1.18-.62-1.78.28.24.55.45.83.7,7.68-6.73,15.12-13.86,22.33-21.29q4.66,11.52,8.4,23.55Zm-11.47-30.8q-15.54,0-30.8,1.22l-.07,1.07c-.27-.55-.55-1.11-.84-1.66l.91.58q10.29-11.37,19.77-23.74,5.94,11,11,22.48Zm-14.89-29.34c-10.28,1.2-20.47,2.77-30.47,4.75v1c-.33-.51-.66-1-1-1.49l.93.47q8.91-12.48,16.93-25.85Q3609.25,1235.51,3615.57,1246.37Zm-33.35,1.33q-5.74-8.61-12.13-16.73,13.48-4.08,27.4-7.21-7.24,12.35-15.29,23.94Zm-.62-48.13c5.56,6.24,10.87,12.7,15.86,19.41q-15.14,3.55-29.77,8.2c.06.34.1.67.16,1-.37-.44-.71-.91-1.09-1.35l.93.34q7.47-13.39,13.88-27.6Zm-17.13,24.53q-6.66-7.89-13.94-15.24,12.93-5.56,26.39-10.26-5.8,13.08-12.47,25.5Zm5.93-36.43q3,3,6,6.17-14.64,5.25-28.65,11.53l.27,1-1.22-1.2.95.24c3.94-9.45,7.49-19.15,10.69-29q6.09,5.4,11.94,11.26Zm-26.25,15q-7.55-7.08-15.57-13.55,12.2-7,25.06-13.2c-2.86,9.09-6.07,18-9.51,26.73Zm-11.44-46.78q10.24,7.24,19.83,15.37-14,6.9-27.16,14.72l.34.89c-.43-.35-.86-.66-1.31-1l1,.11q4.29-14.77,7.33-30.11Zm-11.14,27.75q-8.25-6.15-17-11.66,11.32-8.32,23.38-15.94Q3525.21,1170.05,3521.57,1183.64Zm-16.67-45.18q11,6.06,21.48,13c-8.75,5.63-17.22,11.51-25.36,17.73l.42.8-1.34-.8h.91q2.5-15.12,3.85-30.73Zm-8,28.89q-8.86-5.17-18.18-9.65,10.26-9.57,21.4-18.49-1.12,14.16-3.26,28.16Zm-22.06-12q.81-15.36.34-31,11.7,4.74,22.86,10.47c-8.05,6.6-15.81,13.44-23.2,20.55.18.25.33.49.51.73l-1.38-.64Zm32.59,23.59-135.11,202.62,93.08-225.18a254.56,254.56,0,0,1,42,22.6Zm-36.91-53.27q.55,14.25,0,28.31c-6.26-2.73-12.66-5.25-19.16-7.49Q3460.58,1135.81,3470.57,1125.67Zm-2.53-4.09q-10.89,11.19-20.68,23.07l.57.64c-.47-.16-.93-.31-1.41-.44l.84-.19q-1-15.36-3.22-30.86c8.11,2.23,16.07,4.86,23.9,7.78Zm-4.63,34-93.07,225.16,47.46-239a252.92,252.92,0,0,1,45.61,13.87Zm-20.46-11.9q-9.78-3-19.88-5.23,7.83-11.64,16.61-22.87,2.18,14.13,3.27,28.13Zm-6.25-31.88c-6.35,8.27-12.36,16.7-17.92,25.32l.57.52c-.44-.1-.88-.17-1.32-.25l.75-.25q-2.73-15.15-6.75-30.33c8.34,1.33,16.54,3,24.67,5Zm-22.41,24.85q-10-1.86-20.32-2.93,6.45-12.46,13.87-24.59,3.73,13.8,6.45,27.55Zm-9.84-30.94q-8.07,13.41-14.94,27.24l.62.44c-.44,0-.85-.09-1.27-.11l.67-.32q-4.43-14.73-10.14-29.37c8.44.37,16.82,1.07,25.06,2.15Zm-29,.7q5.3,13.2,9.54,26.58c-5.9-.4-11.86-.63-17.86-.63h-2.68q5-13,11-25.92Zm-8.32-3.1h4.58q-6.48,14.26-11.78,28.76l.58.32h-1.16l.58-.37q-6.07-14.19-13.39-28.07c6.82-.36,13.68-.58,20.61-.58Zm-24.13,4c4.48,8.32,8.63,16.79,12.44,25.3q-10.32.47-20.44,1.71,3.49-13.47,8-27Zm-4-2.64c-3.24,10-6.1,19.93-8.49,30l.61.24a8,8,0,0,0-1.11.15l.5-.39q-7.65-13.41-16.5-26.4c8.21-1.54,16.56-2.74,25-3.57Zm-12.9,30.94q-10.17,1.64-20.08,4,1.91-13.86,4.86-27.75,8.1,11.73,15.2,23.78Zm-19.53-25.85q-3.15,15.39-5,30.74l.56.16-1,.27c.13-.14.28-.28.42-.44q-9.15-12.48-19.44-24.36Q3294.11,1112.44,3306.57,1109.76Zm-27.13,10.43q9.38,10.65,17.82,21.78-9.91,2.79-19.46,6.31c.2-9.3.77-18.68,1.63-28.09Zm-4.52-1.71c-.89,10.45-1.4,20.84-1.44,31.16l.55.1-.89.34.32-.44c-7-7.56-14.4-14.88-22.11-22q11.54-5,23.56-9.16Zm-5.56,33.11q-9.48,3.89-18.6,8.51-1.31-13.92-1.58-28.08,10.52,9.48,20.17,19.57Zm-24.88-20.76c.3,10.47,1,20.87,2.13,31.12h.54l-.82.43.28-.45q-11.73-10-24.49-19.29,10.88-6.36,22.35-11.81Zm-1.74,33.51q-9,5-17.51,10.59-2.85-13.65-4.75-27.7,11.51,8.19,22.25,17.14Zm-27.08-17.78q2.24,15.59,5.67,30.7h.46l-.67.45.19-.44q-12.82-8.67-26.55-16.39,10.13-7.59,20.89-14.32Zm2.05,33.5q-8.34,6-16.16,12.52-4.4-13.23-7.88-27,12.38,6.87,24,14.48Zm-28.9-14.58q4,15.27,9.11,29.87l.41-.07-.54.47.13-.4c-9.15-4.77-18.59-9.19-28.25-13.26q9.2-8.71,19.13-16.61Zm5.85,33.07q-7.6,6.84-14.66,14.23c-3.89-8.42-7.53-17-10.85-25.85q13,5.37,25.5,11.62Zm-30.73-10.88.36-.35q5.7,14.68,12.45,28.67l.39-.11c-.15.17-.32.32-.47.49l.09-.38c-9.64-3.71-19.53-7-29.57-10,5.31-6.3,10.88-12.45,16.74-18.32Zm-21.54,24.16q7.31,13.93,15.61,27.09l.36-.16-.39.53v-.38c-10-2.6-20.19-4.76-30.52-6.55q7-10.59,14.93-20.53Zm-19,26.85q8.85,13,18.59,25.14l.31-.17c-.1.17-.19.35-.3.52v-.35c-10.23-1.43-20.62-2.43-31.1-3q5.78-11.38,12.53-22.14Zm-15.82,28.84q10.29,12,21.35,22.86l.25-.19a4.77,4.77,0,0,1-.22.52v-.32q-15.52-.36-31.25.57Q3102.16,1279,3107.57,1267.52ZM3095.15,1298c7.74,7.12,15.68,13.91,23.84,20.25l.24-.23c-.05.17-.11.35-.17.53l-.07-.32c-10.29.94-20.63,2.35-31,4.16q3.11-12.39,7.19-24.39Zm-8.83,31.72q12.75,9.27,26,17.39c.06-.09.14-.16.2-.25l-.09.52-.11-.29q-15.2,3.18-30.32,7.7c1.1-8.48,2.57-16.85,4.35-25.07Zm-6.56,57.89q.16-12.84,1.41-25.4,13.73,7.77,27.83,14.32a1.67,1.67,0,0,1,.16-.24v.5l-.13-.24c-9.82,3.23-19.56,6.94-29.24,11.06Zm28.79,8.2q.16,10.45,1.17,20.68-13.57-3.87-27-8.85,12.86-6.39,25.85-11.83Zm1.06,25.16.46-1c.06.64.15,1.28.23,1.93l-.69-.9q-13.49,7.2-26.58,15.63c-1.28-8.18-2.22-16.49-2.82-24.88q14.65,5.22,29.43,9.22Z"/><polygon id="Rectangle_1" data-name="Rectangle 1" class="cls-3" points="3367.58 1398.92 3379.98 1396.37 3449.02 1708.64 3436.61 1711.19 3367.58 1398.92"/><polygon id="Rectangle_2" data-name="Rectangle 2" class="cls-3" points="3358.04 1397.33 3370.42 1400.04 3296.94 1711.37 3284.57 1708.65 3358.04 1397.33"/><polygon id="Rectangle_3" data-name="Rectangle 3" class="cls-3" points="3524.65 1702.66 3524.79 1715.31 3210.71 1711.02 3210.58 1698.37 3524.65 1702.66"/><polygon id="Rectangle_4" data-name="Rectangle 4" class="cls-3" points="3427.02 1714.99 3427.16 1727.64 3308.7 1726.02 3308.57 1713.37 3427.02 1714.99"/></g></g></svg>