<svg xmlns="http://www.w3.org/2000/svg" viewBox="0 0 6095.3 1774.1" style="enable-background:new 0 0 6095.3 1774.1" xml:space="preserve"><path style="opacity:.19;fill:#fff;enable-background:new" d="M6062.5 703.5v336.8H4991.7l605.8-190.5 435.8-137.1z"/><linearGradient id="a" gradientUnits="userSpaceOnUse" x1="13997.185" y1="-3257.031" x2="17287.357" y2="-3257.031" gradientTransform="scale(-1 1) rotate(10.971 -13317.826 -104904.43)"><stop offset="0" style="stop-color:#fff"/><stop offset=".04" style="stop-color:#daf9fc"/><stop offset=".11" style="stop-color:#a2f0f7"/><stop offset=".18" style="stop-color:#74e8f2"/><stop offset=".24" style="stop-color:#50e2ef"/><stop offset=".3" style="stop-color:#36deed"/><stop offset=".35" style="stop-color:#26dbeb"/><stop offset=".4" style="stop-color:#21daeb"/></linearGradient><path d="M5845.2 101.7c5.8-1.1 11.5 2.3 12.8 7.6 1.1 5.3-2.7 10.3-8.4 11.3h-.2L2615.5 671.4l3229.7-569.7z" style="opacity:.3;fill:url(#a);enable-background:new"/><path style="opacity:.14;fill:#50c5ff;enable-background:new" d="m3395.4 1036.3 44.5 5.7h-126.3l-140.4 9.8-13.7-9.8H2336v7.9h-149.4v-7.9H0V326.5l422-111.6 262.4 6.5 12.3.3 6.9.2 31.2.8 352.8 8.8 180.5 4.4 154 3.9 85.2 2.1 26.4 17.2 59.8 38.9 96.6 63h.1l6.3 4.2 38.3 24.9 715.4 466 113.4 73.9 521.4 66.6 13.6 1.8z"/><path style="opacity:.16;fill:#80d2ff;enable-background:new" d="m3099.8 999.6 61 43.6h-823.5v8h-149.4v-8H1.2V127l766-29.4 321.7 135.1 73.5 30.8 36.9 15.5 60.9 25.6 161.6 67.9 10.7.6 17.9 1.1 129.3 7.7 19.8 1.2 5.8.4 130.7 7.8 285.6 17.1 496.3 174.5 42.8 30.6L2956 896.6l55.7 39.9.8.5 6.4 4.7 67.4 48.2z"/><path style="opacity:.16;fill:#fff;enable-background:new" d="M6095.3 319.3v721H3568.9l150.2-9.7 685.5-44.4 261.7-17 44.6-2.9 150.2-9.7 111.5-57.6z"/></svg>