<?xml version="1.0" encoding="utf-8"?>
<!-- Generator: Adobe Illustrator 24.2.3, SVG Export Plug-In . SVG Version: 6.00 Build 0)  -->
<svg version="1.2" baseProfile="tiny" id="s2" xmlns="http://www.w3.org/2000/svg" xmlns:xlink="http://www.w3.org/1999/xlink"
	 x="0px" y="0px" viewBox="0 0 6095.3 1774.1" overflow="visible" xml:space="preserve">
<g id="skyline2_1">
	<g id="skyline2">
		<path id="Vector_3" fill="#8E8E8E" d="M5419.4,829.4h-299l-56-11.1v233.3h411V818.3L5419.4,829.4z"/>
		<path id="Vector_6" fill="#8E8E8E" d="M1961,1072.7h-2.1v-10h-2.9V840.9h1.2v-1.3h0.5l2.1-5.3h-3.8v-49.5l1-2.5h0.2v-0.5l0.9-2.3
			h-1.4v-2.5h-0.7v-2.7l2-4.9h2.1v-2.9h-6.1v-5.3h-1.2v-5.2h-2.4v-7.3h-3.1v-13.4h2.5v-2.7h1.1v-2.2h-5.1v-3.1h-3.7v-5.1h1.4v-3.6
			h-1.5v-3.3h-1.8v-28.1h0.8v-2.7h1.2V683h-1.4v-2.5h-1.7v-5.4h-0.3V675l-1.8-2.2v-1.3l0,0c0.4,0,0.7-0.3,0.7-0.7c0,0,0,0,0,0
			c-0.1-0.3-0.3-0.6-0.7-0.6l0,0v-0.7c0-0.4-0.2-0.8-0.6-0.8s-0.6,0.4-0.6,0.8v0.7l0,0c-0.4,0-0.7,0.3-0.7,0.6c0,0,0,0,0,0l0,0
			c0,0.4,0.3,0.7,0.6,0.7c0,0,0,0,0,0l0,0v1.3l-1.8,2.2v0.1h-1.1v-1h-1.2v-9.4h0.3v-1.8h-1v-6.4c0.2-0.1,0.4-0.3,0.4-0.6
			c0-0.3-0.2-0.6-0.5-0.6h-0.6c0-0.1,0.1-0.2,0.1-0.2c0-0.2-0.2-0.5-0.4-0.5c0,0,0,0,0,0h-1l-1-6.5h0.7v-1.2h-0.7
			c-0.1-2.2-1.4-4.1-3.4-4.9c0.8-0.3,1.4-0.7,1.4-1.3s-0.8-1.2-1.9-1.4v-0.4c1.1-0.1,1.8-0.4,1.8-0.7s-0.8-0.6-1.8-0.7v-3.6
			c0.8-0.5,1.2-1.4,1.2-2.3c0.2-1.2-0.6-2.4-1.8-2.6c-1.2-0.2-2.4,0.6-2.6,1.8c0,0.2,0,0.5,0,0.7c0,0.9,0.4,1.8,1.2,2.3v3.6
			c-1.1,0.1-1.8,0.4-1.8,0.7s0.8,0.6,1.8,0.7v0.4c-1.1,0.2-1.9,0.8-1.9,1.4s0.6,1,1.4,1.3c-1.9,0.9-3.2,2.8-3.3,4.9h-0.7v1.3h0.7
			l-1,6.5h-1c-0.2,0-0.4,0.2-0.4,0.5c0,0.1,0,0.2,0,0.2h-0.6c-0.3,0-0.5,0.3-0.5,0.6c0,0.2,0.1,0.5,0.4,0.6v6.5h-1v1.8h0.3v9.4h-1.2
			v1h-1.1v-0.1l-1.8-2.2v-1.3l0,0c0.4,0,0.7-0.3,0.7-0.7c0-0.4-0.3-0.7-0.7-0.7l0,0l0,0v-0.7c0-0.4-0.3-0.8-0.6-0.8
			s-0.6,0.4-0.6,0.8v0.7l0,0c-0.4,0-0.7,0.3-0.7,0.6c0,0,0,0,0,0l0,0c0,0.4,0.3,0.7,0.6,0.7c0,0,0,0,0,0l0,0v1.3l-1.8,2.2v0.1h-0.2
			v5.3h-1.7v2.5h-1.4v1.6h1.2v2.7h0.8v28.1h-1.8v3.3h-1.4v3.6h1.4v5.1h-3.7v3.1h-5.1v2.2h1.1v2.7h2.5v13.4h-3v7.2h-2.4v5.3h-1.2v5.3
			h-1.3v3.8h-3.4v-17.6H1876c0.4-1.6,0-3.6-0.1-5.1s-0.4-3.3-0.4-4.9c0-1.1,0.8-2.3,1.1-3.4c0.2-0.9,0-1.8-0.6-2.4
			c0.5-0.4,0.7-1,0.6-1.6c-0.1-0.8-0.4-1.6-1-2.2c-0.7-0.7-3-0.7-3.1-2c-0.2-1.7-0.6-2.6-1.5-3.1c0.4-2-0.3-4.1-2.2-3.8
			c-1.8-0.4-2.3,1.4-2.2,3.5c0,0.6-1.8,1.3-2.2,1.8c-0.3,0.5-0.5,1.1-0.4,1.7c-1.7,0-4,0.2-3.8,2.5c0.1,2.1,1.6,2.5,3.1,2.6
			c0,1.4,0.3,2.7,1,3.8l0.1,0.1c0,0.3,0.1,0.5,0.1,0.8c0.2,2.4,0.4,4.8,0.4,6.9c-0.2,1.6-0.2,3.2,0,4.8h-5.5v4.8l-17.7-10.9v-14.6
			h1.9v-2.5h-2v-46.8c1.9-0.3,2.9-0.5,2.9-0.8s-1.2-0.6-3.5-0.9h0.5v-13.6h-11.9v-19.8c1.5-0.4,2.3-0.8,2.3-1.3s-0.7-0.8-2.1-1.2
			c-1.7-24.5-16.3-48.5-35.8-55.8V587c0.9-0.3,1.4-0.7,1.4-1.1s-0.3-0.6-1-0.9v-1.5h-0.7V579h-2.6v-2.7h0.8v-2.7h-0.8v-16.4h0.7v-3
			h-0.8c0.3-0.4,0.2-0.9-0.1-1.2c0.1-0.1,0.1-0.2,0.1-0.3c0-0.3-0.2-0.6-0.5-0.7v-3.2c0-0.1-0.1-0.3-0.2-0.3c0,0,0,0,0,0
			c-0.1,0-0.3,0-0.4,0.2c0,0,0,0.1,0,0.2v3.2c-0.3,0-0.6,0.3-0.5,0.7c0,0,0,0,0,0c0,0.1,0,0.2,0.1,0.3c-0.4,0.3-0.4,0.9-0.1,1.2
			h-1.4v-9.7h0.5v-2.2h-1v-0.7h0.6v-1.3h-0.5v-0.5h0.7c-0.1-2.7-1.5-5.1-3.9-6.4v-1.2c0.8-0.2,1.3-0.5,1.3-0.8s-0.6-0.7-1.5-0.8
			c0.1-0.2,0.1-0.4,0.2-0.7c0-0.3-0.1-0.6-0.3-0.8c0.4-0.2,0.7-0.4,0.7-0.7c0-0.5-0.8-0.9-1.9-1v-2.7c0.8-0.1,1.3-0.4,1.3-0.7
			s-0.5-0.6-1.3-0.7v-0.1c1.7-0.9,2.4-3,1.5-4.7c-0.1-0.1-0.2-0.3-0.2-0.4c-0.3-0.5-0.8-0.9-1.3-1.2v-4.7c0.6-0.3,1-0.8,1.2-1.5h1.2
			c0.5-0.1,0.8-0.5,0.7-0.9c0-0.5-0.3-0.9-0.7-0.9h-1.2c-0.2-0.6-0.6-1.2-1.2-1.5v-1.9c0-0.8-0.4-1.4-0.8-1.4s-0.8,0.6-0.8,1.4v1.9
			c-0.6,0.3-1,0.8-1.2,1.5h-1.2c-0.5,0.1-0.8,0.5-0.7,0.9c0,0.5,0.3,0.9,0.7,0.9h1.2c0.2,0.6,0.6,1.2,1.2,1.5v4.7
			c-1.7,0.9-2.4,3-1.5,4.7c0.1,0.1,0.2,0.3,0.2,0.4c0.3,0.5,0.8,0.9,1.3,1.2v0.1c-0.8,0.1-1.3,0.4-1.3,0.7s0.5,0.6,1.3,0.7v2.7
			c-1.1,0.1-1.9,0.5-1.9,1c0,0.3,0.3,0.5,0.7,0.7c-0.2,0.3-0.3,0.5-0.3,0.8c0,0.2,0,0.4,0.1,0.7c-0.9,0.2-1.5,0.5-1.5,0.8
			s0.5,0.6,1.3,0.8v1.3c-2.4,1.3-3.9,3.7-3.9,6.4h0.7v0.5h-0.5v1.3h0.6v0.7h-1v2.2h0.5v9.7h-1.5c0.4-0.3,0.4-0.9,0.1-1.2
			c0,0,0,0-0.1-0.1c0-0.1,0.1-0.2,0.1-0.3c0-0.3-0.2-0.6-0.5-0.7v-3.2c0-0.1-0.1-0.3-0.2-0.3c0,0,0,0,0,0c-0.2,0-0.3,0-0.4,0.2
			c0,0,0,0.1,0,0.2v3.3c-0.3,0.1-0.6,0.3-0.5,0.7c0,0.1,0,0.2,0.1,0.3c-0.4,0.3-0.4,0.9-0.1,1.2c0,0,0,0,0,0h-0.8v3h0.7v16.4h-0.9
			v2.7h0.8v2.7h-2.6v4.4h-0.8v1.5c-0.6,0.3-1,0.6-1,0.9s0.5,0.8,1.5,1.1v2.5c-19.4,7.3-34.1,31.2-35.8,55.8
			c-1.4,0.4-2.1,0.8-2.1,1.2s0.8,0.9,2.3,1.3v19.8h-11.9v13.6h0.5c-2.2,0.3-3.5,0.6-3.5,0.9s1,0.6,2.9,0.8v46.8h-2v2.5h1.9v14.5
			l-17.7,10.9v-4.8h-5.5c0.1-1.6,0.1-3.2,0-4.8c0-2.1,0.2-4.5,0.4-6.9c0-0.3,0.1-0.5,0.1-0.8l0.1-0.1c0.7-1.2,1-2.5,1-3.8
			c1.5-0.1,2.9-0.5,3-2.6c0.1-2.3-2.1-2.5-3.8-2.5c0-0.6-0.1-1.2-0.4-1.7c-0.4-0.5-2.2-1.2-2.2-1.8c0-2.2-0.4-4-2.2-3.5
			c-1.9-0.4-2.6,1.7-2.2,3.8c-0.9,0.5-1.4,1.4-1.5,3.1c-0.1,1.4-2.4,1.4-3.1,2c-0.6,0.6-0.9,1.4-1,2.2c-0.1,0.6,0.1,1.2,0.6,1.6
			c-0.7,0.6-0.9,1.6-0.7,2.4c0.3,1.1,1.1,2.3,1.1,3.4c0,1.7-0.3,3.3-0.4,4.9s-0.5,3.5-0.1,5.1h-11.9v17.6h-5.2v-3.8h-1.3v-5.3h-1.1
			v-5.2h-2.4v-7.3h-3.1v-13.4h2.5v-2.7h1.1v-2.2h-5.1v-3.1h-3.7v-5.1h1.4v-3.6h-1.5v-3.3h-1.8v-28.1h0.8v-2.7h1.2V683h-1.4v-2.5
			h-1.7v-5.3h-0.2v-0.1l-1.8-2.2v-1.3l0,0c0.4,0,0.7-0.3,0.7-0.7c0,0,0,0,0,0c0-0.4-0.3-0.7-0.6-0.7c0,0,0,0,0,0l0,0v-0.7
			c0-0.4-0.3-0.8-0.6-0.8s-0.6,0.4-0.6,0.8v0.7l0,0c-0.4,0-0.7,0.3-0.7,0.6c0,0,0,0,0,0l0,0c0,0.4,0.3,0.7,0.7,0.7l0,0v1.3l-1.8,2.2
			l0.1,0.1h-1.1v-1h-1.2v-9.4h0.3v-1.8h-1v-6.4c0.2-0.1,0.4-0.3,0.3-0.6c0-0.3-0.2-0.6-0.5-0.6h-0.6c0-0.1,0.1-0.2,0.1-0.2
			c0-0.2-0.2-0.5-0.4-0.5h-1l-1-6.5h0.7v-1.2h-0.7c-0.1-2.1-1.4-4.1-3.4-4.9c0.8-0.3,1.4-0.7,1.4-1.3s-0.8-1.2-1.9-1.4v-0.4
			c1.1-0.1,1.8-0.4,1.8-0.7s-0.8-0.6-1.8-0.7v-3.6c0.8-0.5,1.2-1.4,1.2-2.3c0.2-1.2-0.6-2.4-1.8-2.6c-1.2-0.2-2.4,0.6-2.6,1.8
			c0,0.2,0,0.5,0,0.7c0,0.9,0.4,1.8,1.2,2.3v3.6c-1.1,0.1-1.8,0.4-1.8,0.7s0.8,0.6,1.8,0.7v0.4c-1.1,0.2-1.9,0.8-1.9,1.4
			s0.6,1,1.4,1.3c-1.9,0.9-3.2,2.8-3.3,4.9h-0.7v1.2h0.7l-1,6.5h-1c-0.2,0-0.4,0.2-0.4,0.5c0,0.1,0,0.2,0.1,0.2h-0.6
			c-0.3,0-0.5,0.3-0.5,0.6c0,0.2,0.1,0.5,0.3,0.6v6.5h-1v1.8h0.3v9.4h-1.1v1h-1.1v-0.1l-1.8-2.2v-1.3l0,0c0.4,0,0.7-0.3,0.7-0.7
			c0-0.4-0.3-0.7-0.7-0.7l0,0l0,0v-0.7c0-0.4-0.3-0.8-0.6-0.8s-0.6,0.4-0.6,0.8v0.7l0,0c-0.4,0-0.7,0.3-0.7,0.6c0,0,0,0,0,0l0,0
			c0,0.4,0.3,0.7,0.6,0.7c0,0,0,0,0,0l0,0v1.3l-1.8,2.2v0.1h-0.2v5.3h-1.6v2.5h-1.4v1.6h1.2v2.7h0.8v28.1h-1.8v3.3h-1.5v3.6h1.4v5.1
			h-3.7v3.1h-5.1v2.2h1.1v2.7h2.5v13.4h-3.1v7.2h-2.4v5.3h-1.2v5.3h-6.1v2.9h2.1l2,4.9v2.7h-0.8v2.5h-1.4l0.9,2.3v0.5h0.2l1,2.5
			v49.5h-3.7l2.1,5.3h0.4v1.3h1.2v221.9h-2.9v10h-5.9v17.4h367.8v-17.4L1961,1072.7L1961,1072.7z M1625,715.4h-1.4v-28.1h1.4V715.4z
			 M1653.3,715.4h-1.4v-28.1h1.3L1653.3,715.4z M1669.7,769.9l0.2-0.4h0.5L1669.7,769.9z M1727.7,729.7h-2v-46.4
			c0.6,0.1,1.3,0.1,2,0.2V729.7z M1775.1,573.6h-0.7v-16.4h0.7V573.6z M1789.3,573.6h-0.7v-16.4h0.7V573.6z M1838,729.7h-2v-46.2
			l2-0.2V729.7z M1891.6,769.5h0.5l0.2,0.4L1891.6,769.5z M1909.9,715.5h-1.4v-28.1h1.4V715.5z M1938.2,715.5h-1.4v-28.1h1.4
			L1938.2,715.5z"/>
		<path id="Vector_4" fill="#91E5F9" d="M4681.2,280.9v8.2h9.4c-0.6,1.9-1.2,3.9-1.8,5.9h-11.6v8.2h9.1
			c-30,102.2-54.6,245-54.6,391.1v353h-48.8V683.3c0-125.6,24.7-248.5,54.6-336.2h-9.1V340h11.6c0.6-1.7,1.2-3.4,1.8-5h-9.4v-7h11.9
			c24.9-67,52.3-109.2,71.9-109.4c-7.8,17.8-15.6,38.8-23.1,62.4L4681.2,280.9L4681.2,280.9z"/>
		<path id="Vector_5" fill="#39BAE2" d="M4849.9,683.3v363.9h-218.2v-353c0-146,24.7-288.9,54.6-391.1h-9.2V295h11.6
			c0.6-2,1.2-3.9,1.8-5.9h-9.3v-8.2h11.9c7.5-23.7,15.4-44.6,23.1-62.4h0.1c19.6,0,47.1,42.3,72,109.4h11.9v7h-9.4
			c0.6,1.7,1.2,3.4,1.8,5.1h11.6v7h-9.2C4825.2,434.9,4849.9,557.7,4849.9,683.3z"/>
		<path id="Vector_7" fill="#59A1AD" d="M4793.1,786.4l-9,26.2c-5-11.5-10.3-23-15.6-34.1h24.6V772h-25l13.2-35.8
			c4,9.6,7.9,19.4,11.7,29.1c-0.1-6.2-0.1-12.4-0.2-18.5c-1.8-4.4-3.6-8.8-5.4-13.3h5.2c0-2.2-0.1-4.3-0.1-6.5h-7.9l7.3-18.7
			c-0.2-5.6-0.3-11.2-0.5-16.8l-10.5,27.1c-4.2-9.6-8.5-19.2-12.8-28.6h23.2c-0.1-2.2-0.1-4.4-0.2-6.5h-25.6l14.2-36.3
			c3.8,8.7,7.5,17.4,11,25.8c-0.3-6.3-0.5-12.5-0.8-18.8c-1.3-3-2.6-6.1-4-9.2h3.5c-0.1-2.2-0.2-4.4-0.3-6.5h-6l5.2-13.3
			c-0.3-5.1-0.6-10.2-1-15.3l-8,20.3c-4.4-9.8-8.9-19.9-13.6-29.9h20.9c-0.2-2.2-0.3-4.4-0.5-6.5H4763l12.9-31.4
			c3.3,7.8,6.5,15.5,9.6,23.1c-0.5-7.1-1.1-14.1-1.7-21.1c-1.3-3.1-2.7-6.3-4-9.4h3.1c-0.2-2.2-0.4-4.4-0.6-6.5h-1.5l1.1-4.4
			c-0.6-6.5-1.3-13-1.9-19.4l-4.6,19.5c-4.8-11.1-9.8-22.7-14.9-34.4h18.1c-0.2-2.2-0.5-4.4-0.7-6.5h-16.6l8.2-28.6
			c2.4,5.8,4.7,11.6,7.2,17.5c-1-8.4-2.1-16.8-3.2-25l-0.2-0.5h0.1c-1.2-8.6-2.3-17-3.6-25.3l-2.1,11.9
			c-4.3-10.4-8.4-20.7-12.5-30.8h11.8c-0.5-3.2-1-6.3-1.5-9.4h-10l4.8-28.9c0.1,0.2,0.2,0.5,0.3,0.7c-2.4-13.1-4.9-25.8-7.5-38.2
			c-1.9-5.1-3.7-10.2-5.5-15.1h2.2c-0.5-2.2-1-4.4-1.5-6.5h-3.1l-0.5-1.4l1.2-8.3c-1.4-5.6-2.8-11.2-4.2-16.6l-1.7,11.6
			c-2.7-8-5.3-15.7-7.6-23h6.3c-0.6-2.2-1.2-4.4-1.8-6.5h-6.5l-0.1-0.4l0.5-20.7c-2.5-8.1-5.1-16-7.7-23.5h-3.5l1.6-5.6
			c-1.2-3.6-2.6-7.1-3.9-10.5l-1.8,6.4l-1.6-6.6l3.3-0.1c-2.4-6.6-5.1-12.9-7.7-19c-14.4,7.2-57.4,42.5-104.3,214.7
			c-14.7,53.8-59.6,258.7-22.1,636.6l0.7,6.9h195c0.6-5.1,1.1-10.2,1.7-15.3h-12.4l4-9.7h9.4c0.2-2.2,0.4-4.4,0.7-6.5h-7.4l7.4-17.9
			c0.4,1.1,0.9,2.2,1.2,3.3c0.8-9.2,1.6-18.5,2.3-27.8l-3.4,7.5c-4.1-9.8-9-20.8-14.5-32.4h19.6c0.1-2.2,0.3-4.3,0.4-6.5h-20.1
			l16-34.7c1.9,4.6,3.8,9.1,5.5,13.5c0.3-5.1,0.5-10.2,0.8-15.4l-1.3-3.1h1.5c0.1-2.2,0.2-4.3,0.3-6.5h-1.7l2-4.8
			c0.3-6.4,0.5-12.7,0.8-19.1l-7.7,18.8c-4.8-10.9-9.9-22.2-15.3-33.7h23.5c0.1-2.2,0.1-4.4,0.2-6.5h-23.6l15.8-33
			c2.8,6.7,5.5,13.4,8.2,20c0.1-5.5,0.3-11,0.3-16.6c-1.1-2.8-2.3-5.5-3.4-8.2h3.5c0-2.2,0-4.3,0.1-6.5h-3.8l4-11.5
			C4793.1,799.9,4793.1,793.2,4793.1,786.4z M4762.9,767.1c-5.6-11.3-11.3-22.6-17.1-33.5h29.4L4762.9,767.1z M4648.8,993
			l-14.5-32.4h29C4657.9,972.3,4653,983.1,4648.8,993L4648.8,993z M4649.1,1010l7.4,18h-13.8
			C4644.4,1022.5,4646.6,1016.5,4649.1,1010L4649.1,1010z M4715.6,337.3c3.5,10.1,7.5,20.9,12.2,33.4h-24.5
			C4708.1,358.2,4712,347.5,4715.6,337.3L4715.6,337.3z M4715.6,316.4l-7.2-28.8h14.3L4715.6,316.4z M4709.8,509.9
			c-3.1,5.9-9,17.2-16.6,32.5l-14.1-32.7L4709.8,509.9z M4680.9,503.2c4.9-11.1,9.5-21.4,13.7-30.8l15.4,31L4680.9,503.2z
			 M4655.1,638.7c5.3-11.9,10.8-24.1,16.5-36.4l15.8,36.4H4655.1z M4684.7,645.2c-5.1,10-10.2,20.2-15.2,30.7l-12-30.7L4684.7,645.2
			z M4651.6,630.3l-11.8-29.9h25.4C4660.6,610.4,4656.1,620.4,4651.6,630.3L4651.6,630.3z M4665.6,683.6h-29.1l-0.2-0.6
			c4.7-11.5,9.8-23.4,15.1-35.6L4665.6,683.6z M4662.9,690c-4.3,9.3-8.6,18.9-12.8,28.6L4639,690H4662.9z M4663,772h-27.6
			c4.6-11.9,9.4-24,14.3-35.8L4663,772z M4662.7,778.5c-5.4,11.2-10.6,22.6-15.6,34.1l-11.8-34.1H4662.7z M4662.7,862.6h-29
			c4-10.7,8.5-21.8,13.2-33.1L4662.7,862.6z M4651.8,824.6h33.1c-5.9,11.3-11.5,22.6-16.9,33.8L4651.8,824.6z M4651.8,818.1
			c5.1-11.7,10.5-23.6,16.1-35.2l17.2,35.2H4651.8z M4655.8,733.6h29.4c-5.8,10.9-11.6,22.2-17.1,33.5L4655.8,733.6z M4653.7,727.1
			c5-11.7,10.2-23.5,15.6-35l16.3,35H4653.7z M4675.5,690h34.3c-3.6,6-10.3,17.4-18.9,33.1L4675.5,690z M4673.2,683.6
			c6-12.6,12-25,18-36.7l19,36.7H4673.2z M4677.8,600.3h31.7c-3.7,6-9.9,16.7-17.8,31.6L4677.8,600.3z M4675.5,593.9
			c5.7-12.1,11.6-24.3,17.4-36.2l17.5,36.2H4675.5z M4688.7,548.5h-27.6c4.7-11.1,9.4-21.8,13.9-32L4688.7,548.5z M4686.9,555
			c-5.1,10.4-10.1,20.8-15,31.2l-12.7-31.2L4686.9,555z M4668,593.9h-26c4.3-10.3,8.7-20.9,13.1-31.4L4668,593.9z M4637.1,588.7
			l-5.9-33.8h20.1C4646.2,566.6,4641.5,577.9,4637.1,588.7L4637.1,588.7z M4648.1,638.6h-24c3.8-9.7,7.8-19.9,12-30.3L4648.1,638.6z
			 M4645.2,645.1c-4.3,9.8-8.3,19.4-12.3,28.8l-10.9-28.8L4645.2,645.1z M4646.4,727.1h-27.4c4.3-11.5,8.9-23.4,13.7-35.3
			L4646.4,727.1z M4643.8,733.5c-4.5,10.9-8.9,21.6-13,32.3l-11.9-32.3H4643.8z M4642.1,818.1h-23c3.7-11,7.5-22.1,11.5-33.1
			L4642.1,818.1z M4641.9,824.6c-4.5,10.5-8.7,21.1-12.7,31.5l-10.2-31.5H4641.9z M4642.6,907.8h-24.5c3.3-10.6,7.1-21.6,11.1-32.7
			L4642.6,907.8z M4633.8,869h29.1c-5.4,11.5-10.6,22.8-15.3,33.6L4633.8,869z M4668.1,873.2l17.9,34.6h-33.5
			C4657.2,896.7,4662.5,885.1,4668.1,873.2L4668.1,873.2z M4673.3,869h36.8c-3.3,6-10.3,18.9-18.7,35L4673.3,869z M4673.3,862.5
			c5.5-11.4,11.3-23,17.2-34.3l19.6,34.3H4673.3z M4690.5,814.2l-17.5-35.7h37c-3.8,6.5-10.8,19.1-19.7,35.8L4690.5,814.2z
			 M4673.2,772c5.7-11.7,11.7-23.4,17.7-34.7l19.3,34.7H4673.2z M4696.3,733.6h38.8l-19.5,35L4696.3,733.6z M4696.3,727.1
			c8.8-16.3,15.8-28,19.4-34.1c3.6,6,10.5,17.8,19.4,34.1H4696.3z M4697.9,645.2h35.6l-17.8,34.5L4697.9,645.2z M4695.6,638.7
			c8.6-16.3,15.6-28.8,19.6-35.2l0.5,1.1l0.5-1.1c3.9,6.4,11,18.8,19.6,35.2H4695.6z M4715.7,589.6L4699,555h33.4L4715.7,589.6z
			 M4697.5,548.5c8.3-16.7,14.7-29.1,18.1-35.6c3.4,6.5,9.8,18.8,18.1,35.6H4697.5z M4699.1,466.8h33l-16.6,33.2L4699.1,466.8z
			 M4700,460.3c3.5-7.7,6.6-14.6,9.2-20.4l0.6-1.4c2.7-5.9,4.6-10,5.8-12.8c1.2,2.8,3,6.6,5.4,12l0.4,0.8c2.8,6,6.1,13.4,9.8,21.7
			L4700,460.3z M4715.6,410.4l-13.1-33.2h26.2L4715.6,410.4z M4703.9,436l-9,19.8l-10.2-33.2h25.2
			C4708.4,425.9,4706.3,430.5,4703.9,436L4703.9,436z M4680.1,430l9.4,30.4h-21.7C4671.9,450.1,4676,440,4680.1,430L4680.1,430z
			 M4676.4,377.2h17.5c-3.9,10.2-8,20.7-12.3,31.4L4676.4,377.2z M4689.9,466.8c-4.4,9.7-9.2,20.5-14.4,32.2l-9.2-32.2H4689.9z
			 M4655.9,544.2l-8.5-34.1l0.3-0.8l23.2,0.2C4666,520.5,4661,532.2,4655.9,544.2L4655.9,544.2z M4650.2,548.5h-18.1
			c3.7-9.5,7.4-18.9,11-28L4650.2,548.5z M4628.5,539.5l-5-30.4l16.8,0.1l0.1,0.4C4636.6,519.4,4632.6,529.3,4628.5,539.5
			L4628.5,539.5z M4626.1,564l5.2,29.9h-16.6C4618.2,584.6,4621.8,574.9,4626.1,564L4626.1,564z M4632.3,600.3
			c-4.6,11.3-9,22.3-13.1,32.8l-5.4-32.8H4632.3z M4629.2,682.8l-0.3,0.7h-21.8c3.4-9.5,7.1-19.5,11-29.9L4629.2,682.8z
			 M4626.4,690.1c-4,10.1-7.9,20.1-11.6,29.7l-8-29.7H4626.4z M4626,772h-22.6c3.3-10.4,7-21.1,10.9-32L4626,772z M4626,778.5
			c-4,10.9-7.9,21.8-11.5,32.6l-11-32.6H4626z M4614.6,832.1l9.8,30.4h-18.8C4608.3,852.6,4611.3,842.4,4614.6,832.1L4614.6,832.1z
			 M4624.4,869c-3.8,10.3-7.4,20.5-10.6,30.6l-8.3-30.6H4624.4z M4642.6,914.2c-4.8,11.5-9.2,22.6-13.1,33.2l-11.4-33.2H4642.6z
			 M4647.6,919.2l15.9,34.7H4634C4638,942.9,4642.5,931.3,4647.6,919.2L4647.6,919.2z M4652.5,914.2h33.6
			c-6.3,12.3-12.2,24.1-17.5,35.3L4652.5,914.2z M4691.4,918.3l18.5,35.7h-36.1C4679.1,942.7,4685.1,930.7,4691.4,918.3
			L4691.4,918.3z M4696.7,914.2h37.8l-18.9,36.6L4696.7,914.2z M4733.7,997.9h-36.1c7.6-15.3,14.6-28.3,18.1-34.6
			C4719,969.6,4726,982.6,4733.7,997.9L4733.7,997.9z M4696.9,907.8c8.3-15.9,15.1-28.6,18.7-35.2c3.7,6.7,10.5,19.3,18.7,35.2
			H4696.9z M4695.9,824.5h39.3l-19.6,34.6L4695.9,824.5z M4695.7,818.1c9-17,16.1-29.8,19.9-36.3c3.5,6.1,10.8,19.2,19.9,36.3
			H4695.7z M4740.4,737.2c6,11.4,12,23.1,17.7,34.7h-37L4740.4,737.2z M4740.3,723.1c-8.6-15.8-15.3-27.2-18.9-33.1h34.3
			L4740.3,723.1z M4721,683.5l19-36.7c6.1,11.8,12,24.1,18,36.7H4721z M4739.5,632c-7.9-14.9-14.1-25.7-17.8-31.6h31.6L4739.5,632z
			 M4720.8,593.8l17.4-36.2c5.9,12.1,11.8,24.2,17.4,36.2H4720.8z M4738,542.3c-7.7-15.3-13.5-26.5-16.6-32.5h30.5L4738,542.3z
			 M4721.2,503.4l15.4-31.1c4.3,9.5,8.9,19.9,13.8,31.1H4721.2z M4736.3,455.8c-3.4-7.6-6.5-14.2-9-19.9s-4.6-10.1-6-13.3h25.2
			L4736.3,455.8z M4744.3,413.1h-22.8l11.4-28.9C4736.8,394,4740.6,403.7,4744.3,413.1L4744.3,413.1z M4737.2,377.1h17.5l-5.2,31.4
			C4745.3,398,4741.2,387.4,4737.2,377.1L4737.2,377.1z M4731.9,363c-4.6-12.1-8.2-22.1-11.4-31.4h16.3L4731.9,363z M4699.3,363
			l-4.9-31.4h16.3C4707.5,340.9,4703.8,351,4699.3,363L4699.3,363z M4698.2,384.2l11.4,28.9h-22.8
			C4690.7,403.7,4694.5,394,4698.2,384.2L4698.2,384.2z M4678.7,370.7c3.5-9.2,7-18.8,10.7-29.1l4.6,29.1H4678.7z M4674.9,361.8
			l-2-30.1h12.8c-3.5,10.2-7.1,20.3-10.7,30.1L4674.9,361.8z M4663.7,452.6l-3.9-29.9h16.1C4672,432.5,4667.9,442.5,4663.7,452.6
			L4663.7,452.6z M4661.7,474.9l8.1,28.2l-19.5-0.1C4654.1,493.4,4657.9,484,4661.7,474.9L4661.7,474.9z M4645.2,498l-4.1-31.1h16.9
			C4653.8,477,4649.5,487.4,4645.2,498L4645.2,498z M4638.7,451.6l-4.4-28.9h16.5c-2.9,7-5.8,14-8.7,21L4638.7,451.6z M4635.6,476.2
			l3.6,26.6l-14.3-0.1c3.3-8.3,6.8-16.9,10.8-26.6L4635.6,476.2z M4620.9,495.1l-5.4-28.2h16.9
			C4628.1,477.5,4624.4,486.6,4620.9,495.1L4620.9,495.1z M4623.4,548.6h-15.8c3.5-9.6,7.1-19.3,11-29.5L4623.4,548.6z
			 M4622.5,555.1c-4,10.5-7.8,20.1-11.2,29.3l-4.6-29.3L4622.5,555.1z M4608.8,610.2l4.7,28.6h-14.8
			C4602.1,629,4605.5,619.4,4608.8,610.2L4608.8,610.2z M4614.4,645.3c-3.9,10.1-7.5,19.9-11,29.2l-5.6-29.2H4614.4z M4609.9,727.2
			h-17.6c2.9-9.3,6.1-19.1,9.7-29.3L4609.9,727.2z M4609.6,733.7c-3.7,10.1-7.1,20-10.3,29.6l-7-29.6H4609.6z M4609.9,818.2h-19.8
			c2.6-10.3,5.6-21.1,8.9-32.2L4609.9,818.2z M4609.9,824.7c-3.3,10.3-6.3,20.4-9.1,30.2l-10.4-30.2H4609.9z M4601.2,878.7l7.9,29.2
			h-14.7C4596.6,897.9,4598.9,888.1,4601.2,878.7L4601.2,878.7z M4609.1,914.3c-2.9,9.6-5.6,19.4-8.1,28.9l-6.6-28.9H4609.1z
			 M4613.7,922l11,32.1h-19.6c2.6-10.4,5.4-21.2,8.7-32.1L4613.7,922z M4624.7,960.6c-3.6,10.3-6.7,20.2-9.2,29.5l-10.1-29.6
			L4624.7,960.6z M4616.5,1014l4.4,14h-6.9C4614.7,1023.6,4615.6,1018.9,4616.5,1014L4616.5,1014z M4629.6,966.3l14.3,31.7h-23.7
			C4622.8,988.1,4626,977.4,4629.6,966.3L4629.6,966.3z M4668.6,964.7l18.1,33.4h-32.9C4658.1,988,4663,976.7,4668.6,964.7
			L4668.6,964.7z M4673.9,960.6h35.7c-3.6,6.6-10.2,19-17.5,33.6L4673.9,960.6z M4692.1,1009l8.6,19h-17.5
			C4685.9,1022.1,4688.9,1015.7,4692.1,1009L4692.1,1009z M4697.2,1004.6h36.5L4723,1028h-15.2L4697.2,1004.6z M4738.9,1009
			c3.3,6.7,6.2,13.1,8.9,19h-17.5L4738.9,1009z M4721.4,960.6h35.8l-18.2,33.6C4731.5,979.4,4724.7,966.7,4721.4,960.6L4721.4,960.6
			z M4721.2,954.1l18.4-35.7c6.4,12.4,12.3,24.4,17.7,35.7H4721.2z M4721,869.2h36.8l-18.1,35C4731.3,887.9,4724.4,875.2,4721,869.2
			L4721,869.2z M4721.1,862.7l19.6-34.3c5.9,11.4,11.7,22.9,17.2,34.3H4721.1z M4721.1,778.6h37l-17.4,35.8
			C4732,797.8,4724.9,785.1,4721.1,778.6L4721.1,778.6z M4777.4,727.2h-31.9l16.3-35C4767.2,703.8,4772.5,715.5,4777.4,727.2
			L4777.4,727.2z M4761.5,675.9c-5-10.5-10.1-20.8-15.2-30.7h27.2L4761.5,675.9z M4775.9,638.8h-32.3l15.8-36.4
			C4765.2,614.5,4770.7,626.8,4775.9,638.8L4775.9,638.8z M4759.1,586.2c-4.9-10.4-9.9-20.8-15-31.2h27.9L4759.1,586.2z M4770,548.6
			h-27.7l13.8-32C4760.6,526.8,4765.3,537.5,4770,548.6L4770,548.6z M4755.7,499.1c-5.2-11.7-10-22.5-14.4-32.2h23.6L4755.7,499.1z
			 M4763.5,460.4h-21.7l9.4-30.4C4755.2,440.1,4759.3,450.2,4763.5,460.4L4763.5,460.4z M4742.5,337.5c3.9,10.8,8,21.9,12.4,33.3
			h-17.7L4742.5,337.5z M4737.8,324.5l-0.1,0.7h-17.7l7.6-30.8C4730.7,303.9,4734.1,314,4737.8,324.5z M4724.5,243l-0.4,16.8
			c-1.6-6.1-3-11.7-4.2-16.8H4724.5z M4715.5,252.8c2.1,8.4,4.8,17.9,8,28.3h-15.1c2.7-9.9,5.1-19.2,7.2-28.3H4715.5z M4709.5,230.6
			l1.5,5.9h-3.9L4709.5,230.6z M4711.1,243c-1.2,5.7-2.6,11.5-4.2,17.9l-0.4-17.9H4711.1z M4710.9,325.2h-16.1
			c3.3-9.8,6.3-19.2,9-28.5L4710.9,325.2z M4697.3,232.8c1.6-2,3.1-3.8,4.6-5.5l-1.2,7.6l-0.7,1.6h-4.3L4697.3,232.8z M4694.5,243
			h2.8l-4.9,12.1L4694.5,243z M4700.2,253.5l0.7,27.7H4689L4700.2,253.5z M4699.7,287.6c-2.7,9.4-5.4,18.2-8,26.5l-3.8-26.5H4699.7z
			 M4684.7,261.5l-3.4,19.7h-5.3L4684.7,261.5z M4674.2,287.6h5.1l-5.5,13.7L4674.2,287.6z M4673.1,320.3l9.5-23.5l4,28.4h-13.7
			L4673.1,320.3z M4675.7,413.2h-14c3.4-8.2,6.7-16.5,9.9-24.6L4675.7,413.2z M4658.3,404.3l-2.1-27.1h12.9
			C4665.8,385.7,4662.2,394.5,4658.3,404.3L4658.3,404.3z M4655.9,370.8l-0.1-7.4l11-27.2l2.3,34.6L4655.9,370.8L4655.9,370.8z
			 M4659.1,302.8c2.3-5.5,4.6-10.7,6.7-15.2h0.4l-7.4,16.7L4659.1,302.8z M4667.3,301.4l-0.6,17.6l-2.5,6.3h-7.4L4667.3,301.4z
			 M4661.6,331.7l-6.1,15l-0.3-15H4661.6z M4658.3,460.4h-16l5.6-13.5l6.6-15.8L4658.3,460.4z M4652.5,413.2h-16.8l14.2-35
			L4652.5,413.2z M4648.9,343.4l0.4,18.7l-3.5,8.6h-8.9L4648.9,343.4z M4634,377.2h9.1l-11,27.2l-2.1-18.1L4634,377.2z
			 M4633.6,460.4h-17.1l12.4-30.5L4633.6,460.4z M4625.2,401.7l1.3,11.5h-4.6C4623.1,409.3,4624.1,405.5,4625.2,401.7L4625.2,401.7z
			 M4615.4,438.3c1.3-5.5,2.6-10.7,3.9-15.6h5.4l-9.4,23.3L4615.4,438.3z M4605.4,487.7l5.1-12.5l5.3,27.5l-12.8-0.1
			C4603.8,497.4,4604.6,492.4,4605.4,487.7L4605.4,487.7z M4601.9,509.1l13.5,0.1c-4.1,10.5-7.9,20.4-11.4,30.2l-3.6-19.8
			C4600.9,515.9,4601.4,512.5,4601.9,509.1L4601.9,509.1z M4597.5,540.5l1.5,8.2h-2.4C4596.9,545.9,4597.2,543.1,4597.5,540.5
			L4597.5,540.5z M4595.7,555.1h2.7c-1.3,3.8-2.6,7.6-3.9,11.5C4594.9,562.7,4595.4,558.8,4595.7,555.1L4595.7,555.1z M4601.7,565.4
			l4.5,28.6h-13.7C4595.3,584.7,4598.3,575.3,4601.7,565.4L4601.7,565.4z M4605.4,600.5c-3.2,8.6-6.4,17.8-9.9,27.6l-3.7-27.6
			H4605.4z M4588.9,628.2l1.3,10.6h-2.1C4588.4,635.1,4588.6,631.6,4588.9,628.2L4588.9,628.2z M4587.7,645.3h1.7
			c-0.7,2.1-1.4,4.1-2.1,6.2C4587.5,649.4,4587.6,647.3,4587.7,645.3L4587.7,645.3z M4585.8,681.9c0-1.9,0.1-3.8,0.2-5.7
			c2.3-7.1,4.7-14.2,7-21.2l5.5,28.8h-12.8L4585.8,681.9z M4585.4,691.2v-1h12.4c-3.3,9.4-6.4,18.5-9.1,26.9l-3.7-17.3
			C4585.3,696.9,4585.4,694,4585.4,691.2L4585.4,691.2z M4583.9,755.6c1.1-4.2,2.3-8.6,3.7-13.3l7,29.6h-10.8
			C4583.8,766.5,4583.9,761.1,4583.9,755.6L4583.9,755.6z M4583.8,778.5h10.6c-3.1,9.8-5.8,19.5-8.3,28.7l-2.2-9.8
			C4583.9,790.9,4583.9,784.7,4583.8,778.5L4583.8,778.5z M4584.8,841.2c0.5-2.6,1.1-5.3,1.7-7.9l10.1,29.3h-11.1
			C4585.3,855.3,4585.1,848.2,4584.8,841.2L4584.8,841.2z M4585.7,869h11.2c-2.4,9.5-4.9,19.3-7.2,29.4l-3.2-10.2
			C4586.3,881.8,4586,875.4,4585.7,869L4585.7,869z M4589.1,935.5c0.5-2.8,1-5.7,1.5-8.5l6.1,27h-6.4
			C4589.9,947.8,4589.5,941.6,4589.1,935.5L4589.1,935.5z M4590.7,960.4h6c-1.6,7-3.1,14.1-4.4,21.3
			C4591.8,974.6,4591.3,967.5,4590.7,960.4L4590.7,960.4z M4601.4,969.4l9.8,28.6H4596C4597.6,988.8,4599.3,979.3,4601.4,969.4
			L4601.4,969.4z M4597.8,1044c-0.2-2.1-0.4-4.1-0.6-6.2l-0.3-3.5h1.2c1.1,3.5,2.2,6.6,3.2,9.7H4597.8z M4606.2,1038l-1.2-3.6h1.7
			L4606.2,1038z M4607.5,1027.9h-4.6c-2.2-7.3-4.5-15.2-6.6-23.4h15.6C4609.9,1012.7,4608.5,1020.6,4607.5,1027.9L4607.5,1027.9z
			 M4612.1,1044l1.2-9.6h9.8l2.9,9.6H4612.1z M4632,1040.9l-2.1-6.6h4L4632,1040.9z M4627.9,1027.8l-7.4-23.4h23.8
			c-3.4,8.7-6.2,16.6-8.3,23.4H4627.9z M4637.9,1044l2.8-9.7h18.4l4,9.7H4637.9z M4669.8,1042.8l-3.5-8.4h7
			C4672,1037.3,4670.9,1040.1,4669.8,1042.8L4669.8,1042.8z M4663.6,1027.8l-9.7-23.4h33.1c-4,8.3-7.7,16.2-10.9,23.4H4663.6z
			 M4676.3,1044c1.2-3,2.6-6.3,4-9.7h23.3l4.4,9.7H4676.3z M4715.7,1044h-0.5l-4.4-9.7h9.3L4715.7,1044z M4722.9,1044l4.4-9.7h23.3
			c1.5,3.5,2.8,6.7,4,9.7H4722.9z M4761.2,1042.8c-1.1-2.7-2.3-5.6-3.5-8.4h7L4761.2,1042.8z M4767.4,1027.8h-12.5
			c-3.2-7.2-6.9-15.1-10.9-23.4h33.1L4767.4,1027.8z M4777.2,997.8h-32.9l18.1-33.4C4768,976.5,4773.1,987.6,4777.2,997.8
			L4777.2,997.8z M4762.4,949.4c-5.4-11.2-11.3-23-17.5-35.3h33.6L4762.4,949.4z M4778.6,907.7h-33.5l17.9-34.6
			C4768.6,885,4773.9,896.6,4778.6,907.7L4778.6,907.7z M4763,858.2c-5.4-11.1-11.1-22.5-16.9-33.8h33.1L4763,858.2z M4746,818
			l17.3-35.1c5.6,11.7,10.9,23.5,16.1,35.3L4746,818z"/>
		<path id="Vector_8" fill="#1D7C9B" d="M4827.4,415.9c-54.4-199.8-103.5-215.3-108.9-216.4l-1.3-0.3l-0.9,0.1l-0.8-0.1l-1.4,0.3
			c-1.6,0.4-3.2,1-4.6,1.7c2.6,6,5.2,12.4,7.7,19h0.1l-0.1,0.2c1.3,3.4,2.6,6.9,3.9,10.5l0.3-1.2l2.7,6.7v0.1h-1.1
			c2.7,7.5,5.3,15.4,7.7,23.5l0.2-7l11.5,28.1h-5.4c0.6,2.2,1.2,4.3,1.8,6.5h4.7l-1.7,11.4c1.4,5.4,2.8,10.9,4.2,16.6l2.9-19
			l11.7,28.6h-12.3c0.5,2.2,1,4.3,1.5,6.5h11.8l-4,27.3c-1.6-4.1-3.1-8.2-4.6-12.2c2.7,12.3,5.2,25.1,7.5,38.2
			c5,12.7,9.1,22.7,11.3,28.2h-6.4c0.5,3.1,1,6.3,1.5,9.4h6.1l-3.3,18.8c1.2,8.3,2.4,16.8,3.6,25.3h16.8l-4.1,31.1
			c-4.2-10.4-8.4-20.6-12.5-30.7c1.1,8.2,2.2,16.6,3.2,25l4.5,11.1h-3.2c0.3,2.2,0.5,4.3,0.7,6.5h5.1l0.1,0.3l-3.7,14.6
			c0.7,6.4,1.3,12.9,1.9,19.4l5.9-23.7c3.7,9.2,7.4,18.5,11.1,28h-16.6c0.2,2.2,0.4,4.3,0.6,6.5h16.9l-5.8,34
			c-3.3-7.9-6.7-16.1-10.2-24.4c0.6,7,1.2,14,1.7,21.1c1.2,2.8,2.3,5.6,3.5,8.4h-2.8c0.2,2.2,0.3,4.3,0.5,6.5h4.4l-3.8,9.6
			c0.3,5.1,0.7,10.2,1,15.3l6.7-17c4.2,10.4,8.3,20.5,12,30.3h-17.9c0.1,2.2,0.2,4.4,0.3,6.5h19.6l-10.9,28.8
			c-2.7-6.4-5.4-13-8.3-19.6c0.3,6.2,0.6,12.5,0.9,18.8c1.3,3.3,2.7,6.6,4,9.8l-0.3,0.6h-3.4c0.1,2.2,0.2,4.3,0.2,6.5h0.7l-0.6,1.5
			c0.2,5.6,0.4,11.2,0.5,16.9l6.4-16.6c4.8,12.1,9.4,23.8,13.7,35.3h-19.6c0,2.2,0.1,4.3,0.1,6.5h19.6l-11.9,32.3
			c-2.5-6.3-4.9-12.7-7.5-19.1c0.1,6.2,0.2,12.3,0.2,18.5c0.9,2.2,1.7,4.5,2.6,6.7h-2.5v6.5h2.8l-2.7,7.9c0,6.8,0,13.6-0.1,20.3
			l7.5-21.7c4,10.9,7.9,22.1,11.5,33.1h-19.2c0,2.2,0,4.4-0.1,6.5h19.3l-10.2,31.5c-2.9-7.7-6-15.5-9.3-23.3
			c-0.1,5.6-0.2,11.1-0.3,16.6c1.8,4.4,3.5,8.8,5.1,13.1h-5.4c-0.1,2.2-0.1,4.4-0.2,6.5h5.6l-6.1,14.8c-0.2,6.4-0.5,12.8-0.8,19.1
			l11.4-28c4,11.2,7.8,22.2,11.1,32.7h-22.8c-0.1,2.2-0.2,4.4-0.3,6.5h23.1l-11.4,33.2c-3.6-9.6-7.5-19.7-11.8-30.2
			c-0.3,5.2-0.5,10.3-0.8,15.4c2.9,7.2,5.6,14.3,8,21.2h-9.4c-0.1,2.2-0.3,4.4-0.4,6.5h9.4l-11.2,24.9c-0.7,9.4-1.5,18.6-2.3,27.8
			c2,5.3,3.7,10.1,5.1,14.6h-6.4c-0.2,2.2-0.4,4.4-0.6,6.5h9.1l2.9,9.6h-12.9c-0.5,5.2-1.1,10.3-1.6,15.3h70.1l0.7-6.9
			C4887,674.6,4842,469.7,4827.4,415.9z M4730.3,234.6l-1.5-9.2c1.1,1.2,2.2,2.4,3.3,3.7l3.3,7.4h-4.3L4730.3,234.6z M4733.8,243
			h2.7l2.1,11.7L4733.8,243z M4746.3,260.9l9,20.2h-5.4L4746.3,260.9z M4752,287.6h5.4l2,18L4752,287.6z M4848.2,735.5
			c-0.2-0.6-0.4-1.2-0.6-1.9h0.5C4848.2,734.2,4848.2,734.9,4848.2,735.5L4848.2,735.5z M4848,727h-1.1l1-4.6
			C4847.9,724,4848,725.5,4848,727L4848,727z M4847.1,694.3l-4.7,22.6c-2.8-8.4-5.8-17.5-9.2-26.9h13.7L4847.1,694.3z M4821.9,914.2
			h14.7l-6.5,28.9C4827.6,933.6,4824.9,923.8,4821.9,914.2z M4835,997.9h-15.3l9.8-28.6C4831.7,979.3,4833.5,988.7,4835,997.9
			L4835,997.9z M4821.9,907.7l7.9-29.2c2.4,9.5,4.7,19.3,6.8,29.2H4821.9z M4821.1,824.5h19.5l-10.4,30.2
			C4827.4,844.9,4824.4,834.7,4821.1,824.5z M4821.1,818l10.9-32.2c3.4,11.1,6.4,21.9,8.9,32.2H4821.1z M4831.7,763.1
			c-3.2-9.6-6.6-19.6-10.3-29.6h17.3L4831.7,763.1z M4795.7,473.6c3.6,9.3,7.4,19.3,11.3,29.6h-15.3L4795.7,473.6z M4782.6,422.4
			h14.5l-4.2,25.9C4788.5,437,4784.9,428,4782.6,422.4L4782.6,422.4z M4800,466.6h15.9l-5.4,27.2
			C4806.9,484.3,4803.3,475.2,4800,466.6L4800,466.6z M4812.6,518.4c3.9,10.6,7.6,20.7,10.9,30h-15.8L4812.6,518.4z M4824.4,554.8
			l-4.6,29.3c-3.5-9.4-7.2-19.1-11.2-29.3H4824.4z M4822.3,609.9c3.7,10,7,19.5,10.2,28.7h-14.8L4822.3,609.9z M4833.1,645.1
			l-5.6,29.2c-3.4-9.3-7.1-19.2-11-29.2H4833.1z M4829,697.8c3.5,10.2,6.8,20,9.7,29.3h-17.6L4829,697.8z M4846.6,683.5h-14.1
			l5.5-28.8c3,8.8,5.8,17.3,8.5,25.7L4846.6,683.5z M4845.3,655.9c-1.2-3.6-2.4-7.2-3.7-10.7h3
			C4844.9,648.7,4845.1,652.3,4845.3,655.9L4845.3,655.9z M4843.1,621.8c0.4,5.6,0.8,11.3,1.2,16.9h-3.4L4843.1,621.8z
			 M4835.6,627.9c-3.2-9-6.5-18.3-9.9-27.5h13.5L4835.6,627.9z M4824.9,593.9l4.5-28.5c3.7,10.7,6.7,20.2,9.2,28.5H4824.9z
			 M4838.7,572.5c-1.8-5.5-3.8-11.3-6-17.5h4C4837.4,560.7,4838.1,566.6,4838.7,572.5L4838.7,572.5z M4834.6,537.8
			c0.5,3.5,0.9,7.1,1.3,10.7h-3.7L4834.6,537.8z M4832,519l-4.6,21c-3.4-9.4-7.1-19.6-11-30.2h14.2
			C4831.1,512.8,4831.6,515.9,4832,519L4832,519z M4827.2,488.9c0.8,4.6,1.6,9.5,2.4,14.5h-14.4l5.9-29.5L4827.2,488.9z
			 M4816.6,436.5v9.1l-9.4-22.9h5.9C4814.2,426.6,4815.4,431.2,4816.6,436.5L4816.6,436.5z M4810.5,413.2h-6l-0.6-22.8
			C4806.2,397.7,4808.4,405.3,4810.5,413.2L4810.5,413.2z M4815.5,460.3h-17.9l5.1-31.4L4815.5,460.3z M4797.6,399.3l-9-22.1h8.4
			L4797.6,399.3z M4795.2,370.7h-8.5l-1.8-23L4795.2,370.7z M4785.2,386.2l11,27h-15L4785.2,386.2z M4778.9,353.4l-8.9-21.7h7.2
			L4778.9,353.4z M4768.1,325.2l-2.3-20.5l9.1,20.5H4768.1z M4766.8,287.6l0.4,0.9l1.9,7.4l-3.7-8.2L4766.8,287.6z M4763.7,281.1
			h-0.9l-1.2-4.4L4763.7,281.1z M4766.7,340.8l12.3,29.9h-16.6L4766.7,340.8z M4764.5,377.2h15.5l-4.3,28.5
			C4773.1,398.8,4769.1,389,4764.5,377.2L4764.5,377.2z M4773.1,460.4l5.4-30.6c2.9,7.2,7.1,17.9,12,30.6H4773.1z M4790.7,510h16.7
			l-4.9,29.6c-3.9-10.1-7.8-20-11.6-29.6L4790.7,510z M4805,564c4,10.5,7.8,20.4,11.4,29.9h-16.6L4805,564z M4798.8,600.5h18.4
			l-5.4,32.8C4807.8,622.6,4803.4,611.6,4798.8,600.5L4798.8,600.5z M4801.8,682.9l11-29.2c4,10.4,7.7,20.4,11.1,29.9h-21.9
			L4801.8,682.9z M4804.7,690.2h19.6l-8,29.8C4812.8,710.2,4808.9,700.2,4804.7,690.2L4804.7,690.2z M4816.8,740.2
			c3.9,10.9,7.5,21.6,10.9,32h-22.4L4816.8,740.2z M4805.2,778.6h22.6l-11,32.6C4813,800.3,4809.2,789.4,4805.2,778.6L4805.2,778.6z
			 M4816.6,832.3c3.2,10.3,6.3,20.5,9,30.4h-18.8L4816.6,832.3z M4806.8,869.2h18.8l-8.2,30.6
			C4814.1,889.7,4810.6,879.4,4806.8,869.2L4806.8,869.2z M4817.4,922.1c3.2,10.9,6.1,21.7,8.6,32.1h-19.6L4817.4,922.1z
			 M4825.7,960.6l-10.1,29.5c-2.6-9.2-5.6-19.1-9.2-29.5H4825.7z M4817.1,1028h-6.9l4.4-14.1
			C4815.6,1018.9,4816.4,1023.6,4817.1,1028L4817.1,1028z M4801.5,966.3c3.7,11.1,6.9,21.8,9.5,31.7h-23.7L4801.5,966.3z
			 M4799.2,1041.1l-1.9-6.6h4L4799.2,1041.1z M4795.3,1028c-2.1-6.9-4.9-14.8-8.3-23.4h23.8l-7.4,23.4H4795.3z M4805.1,1044.1
			l3.1-9.7h9.8l1.2,9.7H4805.1z M4825,1038.1l-0.4-3.6h1.6C4825.7,1035.8,4825.3,1037,4825,1038.1L4825,1038.1z M4823.8,1027.9
			c-1-7.2-2.4-15.2-4.4-23.4h15.5c-2.1,8.3-4.4,16.2-6.6,23.4H4823.8z M4835.4,1037.4c-0.2,2.2-0.4,4.5-0.6,6.7h-4.9
			c1-3,2.1-6.2,3.2-9.7h2.5L4835.4,1037.4z M4836.5,1024.9l-0.3,3h-1.1c0.5-1.8,1.1-3.6,1.6-5.5
			C4836.6,1023.3,4836.5,1024.1,4836.5,1024.9L4836.5,1024.9z M4840.1,982.8c-0.2,0.8-0.4,1.7-0.6,2.6c-1.5-8.4-3.2-16.8-5.1-24.9
			h7.4C4841.2,968,4840.6,975.4,4840.1,982.8L4840.1,982.8z M4842.3,952.3l-0.1,1.7h-7.8l6.1-26.9c0.9,4.8,1.7,9.6,2.4,14.6
			C4842.7,945.3,4842.5,948.8,4842.3,952.3L4842.3,952.3z M4846.6,871.9c-0.1,3.9-0.3,7.7-0.4,11.7l-4.8,14.9
			c-2.3-10.1-4.6-19.9-7.2-29.4h12.5L4846.6,871.9z M4847,862.6h-12.4l10.1-29.3c1.1,4.8,2,9.4,2.8,13.9
			C4847.3,852.3,4847.1,857.5,4847,862.6L4847,862.6z M4848.6,791l-3.5,16.2c-2.4-9.3-5.2-18.9-8.3-28.7h11.9
			C4848.6,782.7,4848.5,786.8,4848.6,791L4848.6,791z M4836.5,772l7-29.6c1.8,6.4,3.5,12.6,5,18.5V772L4836.5,772L4836.5,772z"/>
	</g>
</g>
<polygon fill="#0A7C9B" points="1245.4,1034.9 1104.2,8.8 1100.8,53.8 1093,8.5 1088.5,29.5 1084.7,8.4 1075.1,54.4 1063.5,8.4 
	926.7,1034.9 "/>
<path fill="#8C8C8C" d="M1206.3,751.1l-7.4-53.6H971.7l-7.1,53.6H1206.3z M1125.4,162.5H1043l-0.6,4.5h83.6L1125.4,162.5z
	 M1123.8,151.4l-0.6-4.5h-78.1l-0.6,4.5H1123.8z M1121.6,135.7l-0.6-4.4h-73.9l-0.6,4.4H1121.6z M1119.5,120l-0.6-4.4h-69.7
	l-0.6,4.4H1119.5z M1117.3,104.4l-0.6-4.5h-65.4l-0.6,4.5H1117.3z M1115.3,88.7l-0.6-4.5h-61.2l-0.6,4.5H1115.3z M1113.1,73
	l-0.6-4.5h-57l-0.6,4.5H1113.1z M1130,196h-91.6l-1.2,8.9h93.9L1130,196z M1148.2,328.8h-127.4l-2.4,17.9h132.3L1148.2,328.8z"/>
<polygon fill="#2F9AB2" points="926.7,1034.9 1063.5,8.4 1075.1,54.4 1051.6,1034.9 "/>
<path fill="#B6B6B6" d="M964.5,751.1l7.1-53.6h88l-1.2,53.6H964.5z M1072.6,162.5H1043l-0.6,4.5h30.1L1072.6,162.5z M1044.5,151.4
	l0.6-4.5h27.9l-0.1,4.5H1044.5z M1046.6,135.7l0.6-4.4h26.2l-0.1,4.4H1046.6z M1048.6,120l0.6-4.4h24.5l-0.1,4.4H1048.6z
	 M1050.7,104.4l0.6-4.5h22.8l-0.1,4.5H1050.7z M1052.8,88.7l0.6-4.5h21l-0.1,4.5H1052.8z M1054.8,73l0.6-4.5h19.3l-0.1,4.5
	L1054.8,73z M1071.7,196.1h-33.2l-1.2,8.9h34.2L1071.7,196.1z M1068.6,329h-47.7l-2.4,17.9h49.7L1068.6,329z"/>
<polygon fill="#035D84" points="1100.8,53.8 1188.9,1034.9 1245.4,1034.9 1104.2,8.8 "/>
<path fill="#555555" d="M1158.7,697.5l4.8,53.6h42.9l-7.4-53.6H1158.7z M1125.4,162.5h-14.8l0.4,4.5h14.8L1125.4,162.5z
	 M1102.3,68.7l0.4,4.5h10.4l-0.6-4.5H1102.3z M1103.7,84.4l0.4,4.5h11.2l-0.6-4.5H1103.7z M1105,100.1l0.4,4.5h11.9l-0.6-4.5H1105z
	 M1106.5,115.7l0.4,4.4h12.7l-0.6-4.4H1106.5z M1107.9,131.4l0.4,4.4h13.4l-0.6-4.4H1107.9z M1109.3,147l0.4,4.5h14.3l-0.6-4.5
	H1109.3z M1130.1,196.3h-16.4l0.8,8.9h16.8L1130.1,196.3z M1148.3,329.1h-22.7l1.6,17.9h23.5L1148.3,329.1z"/>
</svg>
