<?xml version="1.0" encoding="utf-8"?>
<!-- Generator: Adobe Illustrator 24.2.3, SVG Export Plug-In . SVG Version: 6.00 Build 0)  -->
<svg version="1.1" id="sk3" xmlns="http://www.w3.org/2000/svg" xmlns:xlink="http://www.w3.org/1999/xlink" x="0px" y="0px"
	 viewBox="0 0 6095.3 1774.1" style="enable-background:new 0 0 6095.3 1774.1;" xml:space="preserve">
<style type="text/css">
	.st0{opacity:0.19;fill:#FFFFFF;enable-background:new    ;}
	.st1{opacity:0.3;fill:url(#SVGID_1_);enable-background:new    ;}
	.st2{opacity:0.14;fill:#50C5FF;enable-background:new    ;}
	.st3{opacity:0.16;fill:#80D2FF;enable-background:new    ;}
	.st4{opacity:0.16;fill:#FFFFFF;enable-background:new    ;}
</style>
<g id="skyline3">
	<g id="skyline3-2">
		<polygon class="st0" points="6062.5,703.5 6062.5,1040.3 4991.7,1040.3 5597.5,849.8 6033.3,712.7 		"/>
		
			<linearGradient id="SVGID_1_" gradientUnits="userSpaceOnUse" x1="13997.1855" y1="-3257.0308" x2="17287.3574" y2="-3257.0308" gradientTransform="matrix(-0.9817 0.1903 0.1903 0.9817 20206.6895 617.3074)">
			<stop  offset="0" style="stop-color:#FFFFFF"/>
			<stop  offset="4.000000e-02" style="stop-color:#DAF9FC"/>
			<stop  offset="0.11" style="stop-color:#A2F0F7"/>
			<stop  offset="0.18" style="stop-color:#74E8F2"/>
			<stop  offset="0.24" style="stop-color:#50E2EF"/>
			<stop  offset="0.3" style="stop-color:#36DEED"/>
			<stop  offset="0.35" style="stop-color:#26DBEB"/>
			<stop  offset="0.4" style="stop-color:#21DAEB"/>
		</linearGradient>
		<path class="st1" d="M5845.2,101.7c5.8-1.1,11.5,2.3,12.8,7.6l0,0c1.1,5.3-2.7,10.3-8.4,11.3h-0.2L2615.5,671.4L5845.2,101.7z"/>
		<polygon class="st2" points="3395.4,1036.3 3439.9,1042 3313.6,1042 3173.2,1051.8 3159.5,1042 2336,1042 2336,1049.9 
			2186.6,1049.9 2186.6,1042 0,1042 0,326.5 422,214.9 684.4,221.4 696.7,221.7 703.6,221.9 734.8,222.7 1087.6,231.5 1268.1,235.9 
			1422.1,239.8 1507.3,241.9 1533.7,259.1 1593.5,298 1690.1,361 1690.2,361 1696.5,365.2 1734.8,390.1 2450.2,856.1 2563.6,930 
			3085,996.6 3098.6,998.4 		"/>
		<polygon class="st3" points="3099.8,999.6 3160.8,1043.2 2337.3,1043.2 2337.3,1051.2 2187.9,1051.2 2187.9,1043.2 1.2,1043.2 
			1.2,127 767.2,97.6 1088.9,232.7 1162.4,263.5 1199.3,279 1260.2,304.6 1421.8,372.5 1432.5,373.1 1450.4,374.2 1579.7,381.9 
			1599.5,383.1 1599.5,383.1 1605.3,383.5 1736,391.3 2021.6,408.4 2517.9,582.9 2560.7,613.5 2956,896.6 3011.7,936.5 3012.5,937 
			3018.9,941.7 3086.3,989.9 		"/>
		<polygon class="st4" points="6095.3,319.3 6095.3,1040.3 3568.9,1040.3 3719.1,1030.6 4404.6,986.2 4666.3,969.2 4710.9,966.3 
			4861.1,956.6 4972.6,899 		"/>
	</g>
</g>
</svg>
