<svg version="1.1" id="sk1" xmlns="http://www.w3.org/2000/svg" x="0" y="0" viewBox="0 0 6095.3 1774.1" style="enable-background:new 0 0 6095.3 1774.1" xml:space="preserve"><style>.st1{fill:#826650}.st2{fill:#4c3d34}.st3{fill:#3d828e}.st4{fill:#8f5f39}.st5{fill:#e6ac6e}.st6{fill:#72afb4}.st7{fill:#fcfcfc}.st8{fill:#1c130d}</style><path d="M2244.9 914.6V1070h-126.7V343.8c6.1-11 11-22.5 15.2-34.2 1.1-3.3 2.8-6.6-2.1-9.2-2.5-1.4-2.2-4.1 0-6.2 4.3-4.1 6.1-12.4 2.9-17.1-1.9-2.9-2.3-5 .6-7.2 2.3-1.6 4.8-2 7.2-.3 2.9 2 2.3 4.2 1.5 7.2-1.5 6-4.8 12.5 2.9 17.7 2.9 1.9 1.8 5.2-1.5 6.7-2.7 1.2-2.6 2.9-1.9 4.9 8.8 25.5 21.9 49.1 40.4 70.3.7.8 1.3 1.6 2.9 1.2 1.9-3.3-.5-7.2 1.6-10.6 3.6 1.3 2.2 4 2.2 6.1-.3 15.3-.6 30.8-1 46.1-.1 3.1-.3 5.7 4.2 7.5 4.2 1.6 5.1 5.5 1.8 8.8-3 2.9-3.2 5.6-1.1 8.8 5.2 7.7 10.4 15.4 16.2 23.9 3.4-7.2 6.5-13.3 2.9-20.1-1-2-.3-3.4 1.6-4.5 1.7-1 3.4-.9 4.8.3 1.6 1.3 1.9 2.7 1 4.7-2.3 5.5-1.9 10.6 2.1 15.8 3.3 4.3 1 9.8 1.6 14.8.1 1-1.4 2.4.2 3.1 6.6 3.3 4.2 7.4 2.1 12-1.6 3.4-.5 7.3-.4 11 .1 2.7 2.5 2.2 4.4 2.3 5.7.2 7.9 2.3 9 7.7 1 5.2 3.7 10.3 2.3 15.6-7.5 28.9-1.1 58.3-3.6 87.3-.5 6.1 5.5 10.5 3.7 15.9-4.2 12.7-3.2 25.7-3.6 38.6 0 .6-.1 1.5-.4 1.6-7.4 4.2-4.2 10.7-4.3 16.2-.3 23.6-.7 47.1.2 70.7.3 8.2.7 16.2.3 24.6-1.6 34-.5 68.1-.7 102.2 0 4.1 1.6 7.5 3.2 11.2 2 5.1 5.2 10.2 8.3 15.4z" style="fill:#4c4a48"/><path class="st1" d="M1838.9 890.8v-14.1h2.1v-3.5h-2.1v-3h3.2v-3.5h-1.4v-43.6h-2.9v-7.2h1.3v-2.3h1.3v-2.8h1.3v-2.1h-1.5v-1.8h-1.2v-2.1h-1.7v-2.2h-.9v-2h-1.1v-13.1h-3.7v13.1h-1.1v2h-1.2v2.2h-1.7v2.1h-1.2v1.8h-1.4v2.1h1.2v2.8h1.3v2.3h1.3v7.2h-2.9v10.2h-24V832h-2.1v-8.8h-3.4v8.8h-2.1v1.3h-24v-10.1h-2.9V816h1.3v-2.2h1.3V811h1.3v-2.1h-1.4v-1.8h-1.2V805h-1.7v-2.3h-1.2v-2h-1.1v-13.1h-3.7v13.1h-1.1v2h-1.2v2.3h-1.7v2.1h-1.2v1.8h-1.4v2.1h1.3v2.8h1.3v2.2h1.3v7.2h-2.8v43.6h-1.4v3.5h3.2v3h-2.1v3.5h2.1v11.5h-37.2v-3.9h-27.7v3.9H1659v-11.5h2.1v-3.5h-2.1v-3h3.1v-3.5h-1.4v-43.6h-2.9V816h1.3v-2.2h1.3V811h1.3v-2.1h-1.5v-1.8h-1.2V805h-1.7v-2.3h-1.2v-2h-1.1v-13.1h-3.8v13.1h-1.1v2h-1.2v2.3h-1.7v2.1h-1.2v1.8h-1.5v2.1h1.3v2.8h1.3v2.2h1.3v7.2h-2.9v10.1h-23.9V832h-2.1v-8.8h-3.4v8.8h-2.1v1.3h-24v-10.1h-2.9V816h1.3v-2.2h1.3V811h1.3v-2.1h-1.4v-1.8h-1.2V805h-1.7v-2.3h-1.2v-2h-1.1v-13.1h-3.7v13.1h-1.1v2h-1.2v2.3h-1.7v2.1h-1.2v1.8h-1.5v2.1h1.3v2.8h1.3v2.2h1.3v7.2h-2.9v43.6h-1.5v3.5h3.2v3h-2.1v3.5h2.1v40.4h-14.1v-2.1h-1.3V913h-1.4v-2.8h-1.3v-2.6h-1V905h-1.2v-11h-2.3v11h-1.2v2.6h-1v2.6h-1.3v2.8h-1.4v2.1h-1.3v2.1h-19.5v-23.9h3.7v-4h-1.1v-12.9h-1.3v12.9h-.9V872h-4.7v-29.3h-2.8v-2.6h-2.6v-14.9h-2.1v-11.1h-3.1v-8.8h-2v8.7h-3.1v11.1h-2.1V840h-2.8v2.6h-2.9v29.3h-4.7v17.3h-.9v-12.9h-1.3v12.9h-1.1v4h3.7v23.9h-17.2V915h-1.3v-2.1h-1.4v-2.7h-1.3v-2.6h-1V905h-1.2v-11h-2.3v11h-1.2v2.6h-1v2.6h-1.3v2.8h-1.4v2.1h-1.3v2.1h-26.8v-2.1h-1.3V913h-1.5v-2.8h-1.3v-2.6h-.8V905h-1.2v-11h-2.4v11h-1.2v2.6h-1v2.6h-1.3v2.8h-1.4v2.1h-1.3v2.1h-26.8v-2.1h-1.2V913h-1.5v-2.8h-1.3v-2.6h-1V905h-1.2v-11h-2.3v11h-1.2v2.6h-1v2.6h-1.3v2.8h-1.5v2.1h-1.3v2.1h-26.8v-2.1h-1.3V913h-1.5v-2.8h-1.3v-2.6h-1V905h-1.1v-11h-2.3v11h-1.2v2.6h-1v2.6h-1.3v2.8h-1.5v2.1h-1.3v2.1h-26.8v-2.1h-1.3V913h-1.5v-2.8h-1.3v-2.6h-1V905h-1.2v-11h-2.3v11h-1.1v2.6h-1v2.6h-1.2v2.8h-1.4v2.1h-1.3v2.1h-26.8v-2.1h-1.3V913h-1.5v-2.8h-1.3v-2.6h-1V905h-1.2v-11h-2.3v11h-1.2v2.6h-1v2.6h-1.3v2.8h-1.5v2.1h-1.1v2.1h-26.9v-2.1h-1.3V913h-1.5v-2.8h-1.3v-2.6h-1V905h-1.2v-11h-2.3v11h-1.2v2.6h-1v2.6h-1.3v2.8h-1.5v2.1h-1.3v2.1h-26.7v-2.1h-1.3V913h-1.5v-2.8h-1.3v-2.6h-1V905h-1.2v-11h-2.3v11h-1.2v2.6h-1v2.6h-1.3v2.8h-1.5v2.1h-1.3v2.1h-26.8v-2.1h-1.3V913h-1.5v-2.8h-1.3v-2.6h-1V905h-1.2v-11h-2.3v11h-1.2v2.6h-1v2.6h-1.3v2.8h-1.5v2.1h-1.3v2.1H1113v-32.8h2.1v-3.5h-2.1v-3h3.2v-3.5h-1.5v-43.6h-2.9v-7.2h1.3v-2.3h1.3v-2.9h1.2v-2h-1.4v-1.8h-1.2v-2.1h-1.7v-2.2h-1.2v-2h-1.1v-13.1h-3.7v13.1h-1.1v2h-1.2v2.2h-1.7v2.1h-1.2v1.8h-1.4v2.1h1.3v2.8h1.3v2.3h1.4v7.2h-2.9v10.1h-24v-1.3h-2.1v-8.8h-3.4v8.8h-2.1v1.4h-23.9v-10.1h-2.9v-7.2h1.3v-2.2h1.3v-2.8h1.3v-2.3h-1.5v-1.8h-1.2v-2.1h-1.8v-2.2h-1.2v-2h-1.1v-13.1h-3.7v13.1h-1.1v2h-1.2v2.2h-1.7v2.1h-1.2v1.8h-1.4v2.1h1.3v2.8h1.3v2.3h1.3v7.2h-2.9v43.6h-1.4v3.5h3.2v3h-2.2v3.5h2.1v11.5h-5.3v-1.1h-1.3v-2.2h-1.5v-2.8h-1.3v-2.6h-1v-2.8h-1.2v-11h-2.3v11h-1.2v2.7h-1v2.6h-1.3v2.8h-1.5v2.1h-1.3v1.1h-1.8v-13.6h-3.8v-6.6h-2.9V792h-4v25.3l-2.7-2v-12.5h-1.8v-25.3h-3.8v25.3h-2v-61.9h-3.8v18.7h-2.9l-1.3-4.3-12.7-52.5v-5.7H966l-3-38.5h-3.4l-3 38.5h-1.2v5.7l-12.7 52.5-1.3 4.3h-2.9v-18.7h-3.8v61.9h-2v-25.3h-3.8v25.3h-1.8v12.5l-2.6 2V792h-4.1v83.5h-2.9v6.6h-3.8v13.7h-13.9v-1.1h-1.3v-2.2H897v-2.8h-1.4v-2.6h-1v-2.7h-1.3v-11H891v11h-1.2v2.7h-1v2.6h-1.2v2.8h-1.5v2.1h-1.3v1.1h-27.1v-1.1h-1.3v-2.1h-1.5v-2.8h-1.3v-2.6h-1v-2.7h-1.2v-11h-2.3v11h-1.2v2.7h-1v2.6h-1.3v2.8h-1.5v2.1h-1.3v1.1h-27.1v-1.1h-1.3v-2.1h-1.5v-2.8h-1.3v-2.6h-1v-2.7h-.5v-11h-2.3v11h-1.2v2.7h-1v2.6h-1.3v2.8h-1.5v2.1h-1.3v1.1h-8.3v-8.2h-2.5v-3.8h-1.9v-48.3h-2.7v14.7l-6.6-4.5v-39.8h-2.4v10.8h-1.9l-.9-2.5-.5-18.4-7.6-12v-3.3h-2v-19.9h-3.4v19.9h-2.1v3.3l-7.6 12-.5 18.4-.8 2.5h-1.9v-10.8h-2.5v39.8l-6.6 4.5v-14.7h-2.7v48.4h-2v3.8h-2.5v7h-.4v-2.2h-1.5v-2.8h-1.3V887h-1v-2.6h-1.2v-11h-2.3v11h-1.1v-6.9h-.2v-21.2h4.2l-4.2-2.9v-12.9h-2.5v11.2l-2.1-1.4v-11h-2.5v9.3l-2.1-1.4v-8.8h-2.3v7.2l-5.1-3.5v-22.5h-2.2v-1.9h-1.5v-3.3h-2.4v-2.7h-1.5v-14.3h-3.1v14.3h-1.5v2.7h-2.4v3.2h-1.5v1.9h-2.3V842l-5.1 3.5v-7.1H680v8.9l-2.1 1.4v-9.3h-2.5v11l-2.1 1.4v-11.2h-2.5v12.9l-4.2 2.8h4.2v21.2h-.3v9.8h-3v8.5h-18.4v-1.1h-1.3v-2.2h-1.5v-2.8h-1.2v-2.6h-1v-2.7h-1.2v-11h-2.3v11h-1.2v2.7h-1.1v2.6H637v2.8h-1.5v2.1h-1.3v1.1h-5.3v-11.5h2.2v-3.5H629v-3h3.2v-3.4h-1.5v-43.6h-2.9v-7.2h1.2v-2.3h1.3v-2.8h1.3v-2h-1.5v-1.8h-1.2v-2.1h-1.7v-2.2h-1.1v-2H625v-13.1h-3.7v13.1h-1.1v2H619v2.2h-1.7v2.1h-1.2v1.8h-1.5v2.1h1.3v2.8h1.3v2.3h1.3v7.2h-2.9v10.1h-24v-1.3h-2.1v-8.8H586v8.8h-2.1v1.4h-24v-10.1h-2.8v-7.2h1.3v-2.2h1.3v-2.8h1.3v-2.3h-1.5v-1.8h-1.2v-2.1h-1.7v-2.2h-1.2v-2h-1.1v-13.1h-3.7v13.1h-1.1v2h-1.2v2.2h-1.7v2.1h-1.2v1.8h-1.5v2.1h1.3v2.8h1.3v2.3h1.3v7.2h-2.9v43.6h-1.5v3.5h3.2v3h-2.1v3.5h2.1v32.8H530v-2.1h-1.3V913h-1.5v-2.8h-1.3v-2.7h-1v-2.6h-1.2v-11h-2.3v11h-1.2v2.6h-1v2.6h-1.3v2.8h-1.4v2.1h-1.2v2.1h-26.8V915h-1.4v-2.1h-1.5v-2.8h-1.3v-2.6h-1v-2.6h-1.2v-11h-2.3v11h-1.2v2.6h-1v2.6h-1.3v2.8h-1.5v2.1h-1.3v2.1h-26.8V915h-1.3v-2.1h-1.3v-2.8h-1.3v-2.6h-1v-2.6h-1.2v-11h-2.3v11h-1.2v2.6h-1v2.6h-1.3v2.8h-1.4v2.1h-1.3v2.1h-26.7V915h-1.3v-2.1h-1.5v-2.8h-1.3v-2.6h-1v-2.6h-1.2v-11h-2.3v11h-1.2v2.6h-1v2.6h-1.3v2.8h-1.5v2.1h-1.3v2.1h-26.7V915h-1.3v-2.1h-1.4v-2.8h-1.3v-2.6h-1v-2.6h-1.2v-11h-2.3v11h-1.2v2.6h-1v2.6h-1.3v2.8h-1.5v2.1h-1.2v2.1h-26.8V915H321v-2.1h-1.4v-2.8h-1.3v-2.6h-1v-2.6h-1.2v-11h-2.3v11h-1.2v2.6h-1v2.6h-1.3v2.8h-1.5v2.1h-1.3v2.1h-26.8V915h-1.3v-2.1h-1.5v-2.8h-1.3v-2.6h-1v-2.6h-1.2v-11h-2.3v11h-1.2v2.6h-1v2.6h-1.3v2.8h-1.5v2.1h-1.3v2.1h-26.7V915h-1.3v-2.1h-1.5v-2.8H235v-2.6h-1v-2.6h-1v-24.5h4.7v-5.5H233v-1.8h4.7v-5.5H233v-15.8h4.7v-5.5H233v-1.9h4.7v-5.5H233v-71.8h4.7v-5.5H233v-1.8h4.7v-5.4H233v-18.6h4.7v-5.5H233v-1.8h4.7V723H233v-31.7h-.9v-13.2h1.5v-5.2h-1.5v-14.4h-3.4v-17.2h1.9v-6.6h-1.9v-2.9h-1.6c-.8-3.1-2.4-6-4.7-8.3v-1.4h-.7v-3.7h-2v-10.1h2.3v-7.4h-2.3v-7.3h-5.2v7.3h-2.3v7.4h2.3v10.1h-2v3.6h-.7v1.4c-2.2 2.3-3.8 5.2-4.7 8.3h-1.6v2.9h-1.8v6.7h1.8v17.3H202V673h-1.5v5.2h1.5v.1h-8.5v-4.9h-2.8v-21.8h-1.3V648h-1.8l-18.5-22.3c1.2-.7 2-2 2-3.5.1-1.6-1-3.1-2.9-3.9V514.6c1.9-.8 3-2.3 2.9-3.9-.1-2.4-2.2-4.3-4.6-4.2-2.4-.1-4.5 1.7-4.6 4.2-.1 1.6 1 3.1 2.9 3.9v103.7c-1.9.8-3 2.3-2.9 3.9 0 1.4.8 2.7 2 3.4l-18.5 22.3h-1.8v3.7h-1.5v21.8h-2.8v4.8h-8.5v-.1h1.5v-5.2h-1.5v-14.4h-3.5v-17.3h1.8v-6.6h-1.8v-2.9h-1.6c-.8-3.1-2.4-6-4.7-8.3V622h-.7v-3.6h-2v-10.1h2.3v-7.4h-2.3v-7.3h-5.1v7.3h-2.3v7.4h2.3v10.1h-2v3.6h-.7v1.4c-2.2 2.3-3.8 5.2-4.7 8.3h-1.6v2.9h-1.9v6.7h1.9v17.3h-3.1V673h-1.5v5.2h1.5v13.2H100v31.7h-4.7v5.5h4.7v1.8h-4.7v5.5h4.7v18.5h-4.7v5.5h4.7v1.8h-4.7v5.5h4.7v71.9h-4.7v5.4h4.7v1.8h-4.7v5.5h4.7v15.8h-4.7v5.5h4.7v1.8h-4.7v5.5h4.7v36.8H85.9v-40.3h2v-3.5h-2.1v-3H89v-3.5h-1.5v-43.6h-2.9v-7.2h1.3v-2.2h1.3v-2.8h1.3V809h-1.4v-1.8h-1.2v-2.1h-1.7v-2.2H83v-2h-1.1v-13.1h-3.7v13.1h-1.1v2h-1.2v2.2h-1.7v2.1H73v1.8h-1.5v2.1h1.3v2.8h1.3v2.2h1.3v7.2h-2.9v10.1h-24v-1.3h-2.1v-8.8H43v8.8h-2.1v1.3H17.1v-10.1h-3v-7.2h1.3v-2.2h1.3v-2.8H18V809h-1.5v-1.8h-1.2v-2.1h-1.7v-2.3h-1.2v-2h-1.1v-13.1H7.6v13.1H6.5v2H5.3v2.3H3.6v2.1H2.4v1.8H1v2.1h1.3v2.8h1.3v2.2h1.3v7.2H2v43.6H.5v3.5h3.2v3H1.6v3.5h2.1v11.5h-35.9v-3.9h-27.7v3.9h-34.5v-11.5h2.1v-3.5h-2.1v-3h3.2v-3.5h-1.4v-43.6h-2.9v-7.2h1.3v-2.2h1.3v-2.8h1.3V809h-1.5v-1.8h-1.2v-2.1H-96v-2.2h-1.2v-2h-1.1v-13.1h-3.7v13.1h-1.1v2h-1.2v2.2h-1.7v2.1h-1.2v1.8h-1.5v2.1h1.3v2.8h1.3v2.2h1.3v7.2h-3.1v10.1h-24v-1.3h-2.1v-8.8h-3.4v8.8h-2.1v1.3h-24v-10.1h-2.9v-7.2h1.3v-2.2h1.3v-2.8h1.3V809h-1.4v-1.8h-1.3v-2.1h-1.7v-2.3h-1.2v-2h-1.1v-13.1h-3.7v13.1h-1.1v2h-1.2v2.3h-1.7v2.1h-1.2v1.8h-1.4v2.1h1.3v2.8h1.3v2.2h1.3v7.2h-3v43.6h-1.4v3.5h3.1v3h-2.1v3.5h2.1v40.4h-4.5v19.1h-4.5v4.9h4.5v4h-4.5v4.9h4.5V992h-4.5v4.9h4.5v4h-4.5v4.9h4.5v41.8h-4.5v4.9h4.5v4h-4.5v5h4.5v7.7h2051.5V890.8h-31.2zM112.1 681.7v-15.6h3.5v15.6h-3.5zm0-22.7v-15.6h3.5V659h-3.5zm7.9 22.7h-3.5v-15.6h3.5v15.6zm0-22.7h-3.5v-15.6h3.5V659zm96.8 22.7h-3.5v-15.6h3.5v15.6zm0-22.7h-3.5v-15.6h3.5V659zm4.4 22.7h-3.5v-15.6h3.5v15.6zm0-22.7h-3.5v-15.6h3.5V659zm454.7 218.5h-2.1v-21.2h2.1v21.2zm3.7 0h-1.3v-21.2h1.3v21.2zm36.3 0h-1.3v-21.2h1.3v21.2zm4.6 0h-2.1v-21.2h2.1v21.2zm18.4-.8v-25h2.5v25h-2.5zm45 0v-25h2.5l.1 25h-2.6zM929 863.4h-4v-43.2h4v43.2zm30.5-82.2H954v-25.5h5.5v25.5zm10 0H964v-25.5h5.5v25.5zm29 82.2h-4v-43.2h4v43.2zM5508.1 918.5v-6h-214v6h-7.5v6.6h-56.1v-4.8H5215l-133.2-61.2h4.1v-9h-14.1V693h-5.5v157.2h-14.1v9h4.2l-133.2 61.2h-15.6v4.8h-56v-6.6h-7.5v-6h-213.8v6h-7.5v9h8.2V939h14.9v109.7h-15.3v13.5h876.7v-13.5H5492V938.9h15.3v-11.4h8.2v-9h-7.4zM4677.4 1062h-6.9l-.1-67.8h7v67.8z"/><path class="st2" d="M2261.6 995.3c.4-.2.9-.3 1.3-.4-.4 0-.9.2-1.3.4zm-47.4-107c.1-35.4-.8-70.8.5-106.1.3-8.7 0-17-.3-25.6-.7-24.4-.4-48.9-.1-73.4.1-5.7-2.5-12.6 3.6-16.9.3-.3.3-1.1.3-1.7.3-13.4-.6-26.9 2.9-40.1 1.5-5.6-3.5-10.2-3-16.5 2.1-30.1-3.2-60.6 3-90.7 1.1-5.5-1-10.7-1.9-16.2-.9-5.6-2.7-7.9-7.5-8.1-1.6-.1-3.6.4-3.6-2.3-.1-3.8-1-7.9.3-11.4 1.8-4.8 3.8-9-1.6-12.4-1.2-.8 0-2.2-.1-3.3-.3-5.2 1.5-10.9-1.3-15.4-3.3-5.5-3.6-10.7-1.7-16.4.7-2.1.4-3.6-.9-4.9-1.1-1.2-2.5-1.5-4-.3s-2.2 2.7-1.3 4.7c2.9 7.1.4 13.4-2.3 20.9-4.8-8.8-9.1-16.9-13.3-24.9-1.7-3.3-1.6-6.1.9-9.1 2.7-3.4 1.9-7.5-1.5-9.1-3.6-1.7-3.5-4.5-3.4-7.7.3-15.9.6-32 .9-47.9 0-2.2 1.2-5-1.8-6.3-1.8 3.5.3 7.6-1.4 11-1.2.3-1.8-.4-2.3-1.2-15.2-21.9-26-46.5-33.4-73-.6-2.1-.6-3.7 1.6-5 2.8-1.6 3.6-4.9 1.3-6.9-6.4-5.5-3.7-12.2-2.4-18.4.6-3.1 1.1-5.4-1.3-7.5-2-1.7-4.2-1.5-6 .3-2.3 2.3-2.1 4.5-.5 7.5 2.6 4.9 1.1 13.5-2.4 17.8-1.7 2.1-2.1 4.9 0 6.3 4 2.7 2.7 6.2 1.7 9.5-4.6 16.5-10.3 32.3-18 47.3-4.5 8.7-9.1 17.2-15.5 24.9-2-4.2.8-9.2-2.9-12.7-1.1 2.3-.8 4.4-.8 6.4.2 16.5.4 33.2.5 49.7 0 1.8.8 3.8-1.5 5.3-5.5 3.6-5.9 5.7-2.7 11.9 1 1.8 1.4 3.2.3 4.9-3.5 5.7-4.7 12.8-8.8 18.2-1.8 2.3-2.8 7.6-5.1 6.8-2.8-1-2.9-6-3.4-9.5-.4-2.8-1-5.6.6-8.2 1.2-2 1-3.8-.6-5.4-1.2-1.3-2.5-1.5-3.9-.3-1.6 1.4-1.9 3-1.1 5.3 1.5 4.2 1.9 9.8 0 12.9-3.2 5.2-2.5 10.2-2.6 15.5-.1 3.4.3 6.4-2.7 8.9-2 1.6-2 5-.4 7.3 2.6 3.8 1.9 8 2.2 12.1.2 3.4-.9 4.8-3.9 4.9-2.3.1-5.9 0-5.9 2.9-.1 5.3-2.9 9.5-3.3 14.6-.6 6.2 3 10.8 3.1 16.4.3 28.3.2 56.7.2 85 0 1.7.3 3.6-1.1 5.1-4.1 4.6-3.1 11.2-1.1 15.1 2 4.1 2.2 7.7 2.3 11.7.2 5.9 0 11.7 0 17.6 0 2.3-.3 4.9 1.9 5.8 3.1 1.3 2.7 3.8 2.7 6.4.1 26.3.1 52.6.1 78.9 0 4.6.5 9.1-2.1 13.3-1.6 2.5-1.2 6.3.3 8.8 2 3.2 1.8 6.4 1.8 9.8 0 30.1-.3 60.3.2 90.4.3 12.1-1.4 23.3-7 33.6-4.2 7.7-5.2 15.9-5.1 24.9.3 30.9.1 61.9.1 92.9 2.1 4.9-2.4 2.1-3.3 3.6v3.6c1.6 1.2 2.7 3.1 2.7 4.9.3 10 .3 20 .3 30 0 2.3-1.9 2-3 2.7v6.1h178.7V916.3c-2.6-5.4-5.2-10.7-7.1-16.4-1.4-3.8-2.8-7.4-2.8-11.6zm-2.3-258.9c-2.3-.1-4.7 0-7 0v-.1h-6.5c-2 0-2.3-1.5-2.3-3.3 0-1.8.3-3.4 2.2-3.4 4.7-.1 9.4-.1 14 0 1.9 0 2.3 1.4 2.3 3.3-.1 2.1-.5 3.6-2.7 3.5zm-26.2 285.1c0-1.1-.5-2.4.8-3.8 1.8 2.3 2.9 4.9 3.1 7.9.5-.1 1-.2 1.6-.3 2.6-3.4 6.2-2.2 8.9-1.3 2.4.8 1.3 4.2 1.3 6.5 0 31.4 0 62.9-.1 94.4 0 3.5-.5 7.3 4.4 6.7 1.4-.2 2.4.8 2.3 2.6-.1 1.6-1 2.7-2.4 2.7-4.6-.3-9.4 1-13.9-1-.8-.3-1.5-.5-2.3-.8-3.2 3.6-3.7.7-3.8-2.2-.2-4.9-.2-9.7 0-14.6 1-32.3.2-64.6.1-96.8zm-96.9-210.8c1.1 2.9 1.1 5.8 0 8.7v48.4c.1.3.3.6.3 1 0 .1-.3.2-.4.3-.7 1.6-1.9 1.6-3.2 1.1-1.1 0-2.2.1-3.3.1-2.2-.1-4.2-.1-6.4-.2-1.1 0-2.3.1-3.4.1-4.4 1.2-5.9-.4-5.9-5.7.3-26.8.3-53.5.3-80.3-1.5-9.1-1.2-9.4 6.9-9.4 4.1 0 8.2-1 12.2 1 1-.8 1.8-.8 2.4.5.2-.1.3-.1.4-.2-.2.1-.3.2-.4.3.2 2.9.3 6 .3 9 1.3 5.7 1.2 11.3.1 17.1 0 2.6 0 5.4.1 8.2zm-22.5 190h21.6c0 .6 0 1.1-.1 1.7-7.2-.2-14.4.6-21.5-1.7zm10 17.6h-2.6c-2.2-1.6-7.2 3.5-7.6-4.2-.3-5.5 1-8.5 6.4-7.5 1.6.3 3.3-.2 4.9.1 2.9.4 7.2-1.7 8.5 2.3 1.1 3.5-5.3 9.3-9.6 9.3zm-10.9-139c-1.3 0-2.7-.3-2.5-2.3.2-2 1.7-1.7 2.9-1.8 3.4-.1 6.8 0 10.2 0h10.8c1.2 0 2.2.5 2.2 2.1.1 1.6-1 2.1-2.2 2.1-7-.1-14.2-.1-21.4-.1zm-3.2-133.8c-.5-.6-.6-1.1 0-1.7.6-3.6 3-2.1 4.9-2.2 1.2-.1 2.5 0 3.7-.2 4.7-.7 6.7 1.4 6.2 6.7-.4 4.8.8 9.6-1 14.2-.7 1.7.7 2.9 1 4.5v1.8c-2.5 2.9-5.2 2-8 .4-.3 0-.7 0-1-.1-1.6-.5-4.9 1-4.7-1.6.2-2.6 3.2-1 4.9-1.3 1.7-2-.2-2.7-1.1-3.7-1.4-.1-2.9-.2-4.2-.2-1.8-1.5-1.2-3.2-.5-4.9-.2-4-.2-7.8-.2-11.7zm8.3-157.3c.3-.1.7-.2 1.1-.3 1.7-.9 3.5-.7 5.2-.4 1-1 2.1-1.2 3.2-.3 37 .1 74 .1 111 .2.9 0 1.7.3 2.7.5.9-.1 1.7-.1 2.6-.2 4.7-1.5 7 .1 6.7 6-.3 4.3 0 8.8.1 13.1.1 2.1.2 4.1-2.3 4.5-2.8 2.4-4.9.8-7.1-1.2-3.4 2-5 1-5-3.5.1-4.2 0-8.5-.2-12.6-.1-2.7-1.4-4.9-3.8-5-2.7-.2-4.4 2-4.6 4.9-.3 4.4-.2 8.8-.2 13.3 0 2-.2 3.6-2.5 3.6-2.4.1-2.5-1.6-2.5-3.6 0-3.2.1-6.4 0-9.7-.2-7.5-2.4-8.9-8.7-5.5.1 5.4.6 10.7-.3 15.9 0 2.5-1.4 2.9-3.2 2.8-2.1-.2-2.2-1.7-2.2-3.4-.1-4.7-.2-9.3-.2-13.9-1-.6-1.2-1.5-1-2.6-3.1-1.6-6-2.8-7.3 2.4.2 5.7 1.4 11.5-.6 17.2-3.6 1.4-4.9-.3-4.8-4.4.2-3.4-.1-6.8 0-10.3.1-3.4-1.6-5.7-4.2-5.9-2.9-.1-4.9 2.2-4.8 5.9.1 3 .2 6.1 0 9.1-.1 2.1 1.6 5.5-1.8 5.7-3.8.2-2.3-3.7-2.5-6-.3-2.8 0-5.6-.2-8.5-.3-5.9-4.1-7.9-8.9-4.9-.9 5.2-.3 10.5-.4 15.7-.1 1.8.2 4-2.1 4.1-2.5.1-2-2.3-2-4 0-4.2.2-8.4.3-12.6-3.6-5.5-6-6.2-9.3-2.4-1.1 4.9-.5 10-.7 15 0 1.4.2 3.1-1.6 3.3-2.2.2-1.9-1.9-2-3.4-.1-4.4 0-8.8 0-13.3-2.3-3.4-4.7-5.6-8.5-2.5-1.5 5.1-1 10.4-1 15.6 0 1.8.1 3.9-2.3 3.7-2-.2-2-2-2-3.6 0-4.4-.1-8.9-.1-13.3-1.5-2.3-2.9-4.7-6.1-3.6-3.1 1.2-3.5 4.2-3.5 7.3 0 3.4-.1 6.8 0 10.1.1 2.9-.8 4.2-3.5 3.6-1.2 3.1-2.9.9-4.5.5-1.5 0-3.2 1.1-4.2-1-.1-.3-.3-.5-.3-.9 0-.1.2-.3.3-.3 0-6.9 0-13.8.1-20.7.3.1-.1-.1-.3-.2zm128.7 196c3.2-.5 2.3-3.4 1.8-5-.9-3 .3-4.3 2.5-4.3 2-.1 4.5-.1 4.5 3.6 0 2-.1 4-.2 6 .1 27.2.1 54.3.2 81.4 0 6.1-2.6 5.5-6.2 3.8-2.3-1.7-1.4-4.4-1.4-6.7-.1-22.9-.1-45.8-.2-68.7 0-2.1.8-4.4-1-6.2V756c0 8.2 0 8.2-7.5 7.2-.8-.3-1.6-.5-2.3-.8-3 2.8-3.6.5-3.7-2.4-.1-5.5 0-10.8 0-16.3.1-22.1.3-44.2.4-66.4.2-2.9-1.6-8.1 1.4-8.1 3.8.1 1.6 5.2 1.7 8.2.1.3.2.6.3 1 .7-.3 1.5-.6 2.2-1 .1-3.9-2.6-9.9 4.5-8.9 5.8.4 2.4 5.5 3 8.7zm-.8-154.4c1.9.1 5.1-2 5.2 2.7.1 29.2.1 58.3.1 87.5 0 1.8.6 4.5-2.5 3.6-3 .5-5.2.4-5.2-4.2.2-28.4.1-56.8.1-85.2-.1-2-.4-4.6 2.3-4.4zm-116.1-8.2c0-3.3.3-5 4-5 16.6.3 33.3.1 49.9.1v.3c16.6 0 33.3.1 49.9-.1 3.6 0 4.9.9 4.9 5.4-.1 35.4.1 70.8.3 106.2.1 5.4-1.7 6.9-6.3 6.9-32.6-.2-65.1-.2-97.6 0-4.1 0-5.2-1.3-5.2-5.8.2-36 .1-71.9.1-108zm-4.5 97c0 5.8-2 7.2-6.6 5.2-.4-.1-.9-.2-1.2-.3-.7-.1-1.3-.1-2-.2-5.6 2.3-6.4 1.7-6.5-4.4-.1-27.8.1-55.6-.2-83.4-.1-6.1 2.1-6.9 6.4-5.3 1-.2 2.1-.5 3.2-.6 6.8-.5 6.8-.5 6.8 7.4.1 27.3 0 54.4.1 81.6zm8 50.8c-1.9 0-5.4 1.2-3.6-3.6-.1-1-.1-2.1-.2-3.1-1.1-4.9-.5-9.8-.4-14.7-.7-7.8-.7-7.8 6.1-7.8 32.4.1 64.9.1 97.3.2 7.2 0 7.2 0 6.9 8.4 0 4.2 0 8.5.1 12.7l-.3 4.5c.9 5-2.6 3.4-4.5 3.4-22 .2-44.1.1-66.2.2-11.7-.2-23.5-.1-35.2-.2zm102.5 115.8c3.9.1 9.4-4.2 12 4.5.3-4.9 2.6-5.3 5.4-4.9 3.1.4 2.3 2.9 2.1 5 .1 34.5.1 69 .3 103.4 0 5.6-2.8 4.4-5.7 3.4-1-.1-2.1-.2-3.1-.3-2.5.8-5 3.1-7.5.2-.7 0-1.5 0-2.2-.1-3.8 2.9-3.6-.1-3.6-3V832c0-15.7.2-31.4.3-47.1.2-2.5-1.6-6.8 2-6.7zm19.1 115.4v1.2h-21.2v-1.2h21.2zm-15.8 15.9c-1.5-2.9-4.8-5.6-3.5-8.8 1-2.4 4.6-.5 7-1 .9-.2 1.8 0 2.7 0h3.7c6.2 0 7.8 2.4 6.2 9.2-.2.6-.3 1.2-.5 1.6-1.4 2.1-14.3 1.4-15.6-1zm15.8-137.4c-3.2.1-6.4 0-9.6 0h-9.2c-1.2 0-2.8.3-2.9-1.7-.1-1.8 1.1-2.3 2.5-2.3h19.2c1.1 0 2.3.3 2.3 1.8.3 1.8-1 2.2-2.3 2.2zm2.4-109.8c-2 .1-4 0-6.4 0-1.9-.9-6.4 1.7-6.4-1.9 0-3.5 4.4-1.2 6.8-1.6 1.9-.3 4-.1 5.9-.1 1.1 0 2.3.1 2.3 1.7 0 1.5-1.1 1.9-2.2 1.9zm-3.7-7.4c-.9 0-1.6.1-2.5.1-.7 0-1.3.1-2 .1-3.6 1.4-4.9-.4-4.8-4.3.2-3.8.2-7.6 0-11.3-.2-4 1.1-5.6 4.7-4.7.3-.2.7-.1 1 .2 1.2.1 2.4.3 3.6.3.6-.3 1.1-.6 1.7-.9.9-.8 1.6-.8 2.4.1 2 .3 1.8 2.2 1.8 3.7.1 4.2.1 8.4.1 12.6.1 5.7-.7 6.2-6 4.1zm6.1-39.8c-.1.4-.2 1-.3 1.5-4.8 2.2-6.1-.2-6.1-5.2.1-29.1 0-58.1-.1-87.2-.2-.8.2-1.2.9-1.4h4.8c.7.2 1 .7.7 1.5.1 30.2.1 60.5.1 90.8zm-2.4-116.4c2 .1 3.6.7 3.6 3.3.1 2.4-1 3.7-3.2 3.7-2.2-.1-3.2-1.5-3.3-3.8-.2-2.3.9-3.2 2.9-3.2zm1.5 10.7c2.9-.1 3.7 1.3 3.7 4.3 0 3.3-1.3 4.2-4 3.9-1.8-.2-3.6 0-5.4 0v-.1c-1.8 0-3.6-.1-5.4 0-2.6.2-4.1-.7-4.1-4.1 0-3.2 1-4.3 3.8-4.2 3.7.4 7.5.4 11.4.2zm-10.3-57.6c2.5.3 1.1 3.2 1.6 4.9-.3 1.6.8 4.2-1.8 4-2-.2-2.5-2.7-2.5-4.6 0-1.9.6-4.5 2.7-4.3zm-35.9-92.2c-.9 1.3-3.5 1.5-4.3.1-1.4-2.3.9-3.7 2.2-6.2.9 2.4 3.5 3.8 2.1 6.1zm-52-5.2c1 1.8 3.4 3 1.9 5.5-.7 1.1-3.1 1.1-3.9 0-1.3-2.3.3-4 2-5.5zm1.7 7.9c2.1-.6 4.7-1.6 2.4-4.2-6.8-7.5-2.1-13.7 1.5-20 1.1-2 1.3-4.8 3.4-6 6-11.9 9.5-25 14.2-37.9 2.6 10 7.5 18.8 10 28.7 5.9 8.1 9.5 17.9 14.4 26.9 1.5 2.6-.5 5.5-1.8 7.9-2 3.3-.8 4.2 2.1 4.3 2 .1 4 0 5.9-.2 1.4-.2 2.9-.1 2.9 1.6.2 2.3-1.7 1.6-2.8 1.6-12.5.1-25 .1-37.4.1h-21.5c1.8-3.6 4.6-2.2 6.7-2.8zm-13.7 7.9h71.5v1H2101c.1-.3.1-.6.1-1zm58.1 18.5c-.1-2.5 0-6-3.1-6-3.5 0-3.3 3.6-3.4 6.3-.1 5.3-.1 10.5.1 15.8.1 2.9-.9 4-3.5 4s-3.5-1.2-3.4-4.1c.1-5.9 0-11.7-.3-17.6-.1-2.1-.3-4.9-3.2-4.5-2.3.3-2.9 2.4-2.9 5 .1 5-.1 10-.2 15.2-.1 2.7.9 5.9-3.4 5.9-4 0-3.6-2.7-3.6-5.6 0-4.9.1-9.7-.1-14.6-.1-2.3.2-5.6-2.7-5.7-3.2-.1-3.9 3.1-4 6.1-.1 4.9.1 9.7.1 14.6 0 2.6.5 5.5-3.3 5.3-3.9-.2-2.9-3.1-3-5.6-.2-5.3-.1-10.5-.4-15.7-.2-2.1-.5-4.9-3.4-4.3-2.4.4-3 2.5-2.9 5 .1 5.3.1 10.5.1 15.8-.1 5.1-.6 5.5-5.5 3.8-.7 0-1.4.1-2.2.1-2.8 2-3.4 0-3.5-2.5-.1-8.6-.1-17.2-.1-25.7 0-2.6.9-3.7 3.3-3h2.5c19.1-.9 38.1-.4 57.2-.2 1.2.1 2.3.1 3.6.2 2.9-.8 4.2.3 4.2 3.9-.2 8.1-.2 16.1 0 24.2.1 3.6-1.1 4.8-4.2 4-1.1-.3-2.3-.5-3.4-.8-1.7.1-3.6.3-5.5.3.2-6.7.3-13.2.1-19.6zm-59.3 24.8c12.3-.1 24.5-.1 36.8-.1 12.1 0 24.2-.1 36.3.1 1.6 0 4.7-1.5 4.6 2.1-.1 2.8-2.8 1.8-4.4 1.8-24.3 0-48.8 0-73.1-.1-1.7 0-4.4.5-4.5-2-.1-2.8 2.7-1.8 4.3-1.8zm62.9 17.7c.7 3.1-2.3 1.2-3 2.2-1.5-.4-3.7.7-3.2-2 .4-2 .9-5.2 2.7-5.4 2.4-.2 3.1 3.2 3.5 5.2zm-48.1 1.2c-2.8 1-4.9 1.2-7 .2.4-2.7 1.1-6.4 3-6.4 2.8-.1 2.2 4.1 4 6.2zm-28.1 15.5c1-3.1 2.5-6.1 4.3-8.7-.2-1.8.7-2.9 2-3.6.1-.4.2-.9.3-1.3-.4-1.8.6-2.3 1.9-2.4.2-2.5 1.6-4.2 3.1-5.7-.2-2.3.3-4.2 2.9-3.9 2.3.3 5-1.2 6.7.9 1.4 1.7-.6 3.6-1.4 5.4-.8 1.6-1.5 3.1-2.2 4.8-.6 2.3.3 2.9 2.2 2.7 3.7-.3 7.5-.4 11.2-.7.7-2.3-1.7-3.7-1-5.9-1-2-3.6-3.6-2.4-6.1 1-2.1 3.6-.9 5.5-.9 10.4-.1 20.8-.1 31.3 0 1.6 0 4-1 4.9 1.3.9 2.2.1 4.3-1.8 5.7-2 4.9-.8 7.1 4.2 6.2 1.4-.3 2.9-.3 4.2.1 4.5 1 5.2-1 3.6-5.2-.7-1-1.4-1.9-2-2.9-2.3-4-1.6-5.5 2.9-5.4 8.9.3 9.6.5 10.2 7.3 5.1 11.3 11 22 17.6 32.3 1.5 2.3 2.1 3.9-1.5 3.9-18.2-.2-36.3-.2-54.5-.3l-2.4-.3c-3.1.9-6.3.5-9.5.4-5.2.5-10.4.8-15.5-1 4.9-2.4 10.1-1.4 15.2-1.6l-.3-7.2v-.3.1c-.3.4-.8 1.3-.9 1.3-1.8-1.2-2-3.6-3-5.5-1-1.8-1.4-4.8-3.6-4.7-1.9.1-2.4 2.9-3 4.6-1.5 4.2-4.7 7.6-4.3 12.6.1 2.1-1.7 1.7-2.9 1.7-3.2.1-6.5 0-9.7-.1h-22.2c3.9-5.9 5.4-12.7 9.9-17.6zm31.5 3.9c3.2.4 2.9 5.5 4.2 9-3-.2-6.7 2.1-7.7-1.3-.6-2 1.5-7.9 3.5-7.7zm-45.1 20c21.1-.1 42.3-.1 63.4-.1v.1h61.3c1.5 0 2.9 0 4.3.2.8.1 1.4.4 1.6 1.4.2 1.2-.5 1.9-1.5 2-1.6.2-3.2.2-4.9.2-41.3 0-82.7-.1-124.1 0-1.8 0-3.6.2-3.5-2.2 0-2.5 2.2-1.6 3.4-1.6zm-8.9 27.6c1.4 0 2.4.6 2.5 2.3.1 1.9-1.1 2.3-2.4 2.3s-2.5-.3-2.5-2.3c0-1.6.9-2.3 2.4-2.3zm-2.2 9.9c4.2.1 8.3.1 12.5 0 2.7-.1 3.5 1.4 3.4 4.2-.1 2.5-.4 4.4-3.3 4.2-2.2-.2-4.3 0-6.5 0-2 0-4-.1-6 0-2.6.1-3.5-1.4-3.4-4.2-.1-2.6.5-4.2 3.3-4.2zm-3.3 117c-.1-2.3.7-3.5 2.8-3.5 4.5 0 9 0 13.4-.1 2 0 2.9 1 2.9 3.2 0 2.6-1 3.6-3.3 3.5-2-.2-4 0-5.9 0v.1c-2.3 0-4.7-.1-7 0-2 .1-2.9-.9-2.9-3.2zm2.9 426.2c0 4.6-.1 9.3 0 13.9.1 2.9-.8 4.4-3.6 4.4-2.7 0-3.9-.9-3.9-4.2.2-9.4.2-18.9 0-28.3-.1-3.3 1.2-4.1 3.9-4.1 2.9 0 3.7 1.5 3.6 4.4v13.9zm0-28.1c0 2.9.1 5.3-3.5 5.2-3.8-.1-3.2-2.9-3.2-5.5V998c0-24.1.1-48.2 0-72.3 0-6.8 2.1-12.5 6.2-18.8.3 4.1.7 7.1 1 10.1 7.3-.2 7.3-.2 7.3 8.1 0 28.9 0 57.7-.1 86.5 0 7.9 0 7.9-7.2 7.9-.3 1.7-.6 3.3-.5 4.9zm27.2 27.7c0 4.7-.1 9.3 0 13.9.1 2.9-.7 4.6-3.6 4.5-5.2-.2-10.5-.2-15.7 0-3 .1-3.6-1.6-3.6-4.5.1-9.1.1-18.2 0-27.3-.1-3.2.7-4.9 3.9-4.9 5 .2 10.1.2 15.2.1 3.2-.1 4.1 1.6 3.9 4.8-.2 4.5-.1 9-.1 13.4zm-3.2-23.2c-5.5 2.3-11.3 1.2-16.9 1.1-2.9 0-3.7-1.9-2-4.8 1.7-.3 3.6-.5 5.3-.8.2-2.4.5-4.8.5-7.2 0-31.3 0-62.5.1-93.7 0-2.3-1-4.9 1.1-6.8 2.4-1 4.9-.3 7.4-.5.4.1.9.2 1.3.3.2.1.3.2.5.3l2.3.3c.3-2.2.3-4.5 2.3-5.9 1.7 1.6 1 3.7 1.1 5.5.1 35.7.2 71.5.1 107.2.1 2.2 1.6 6.5-3.1 5zm2-138.7c-.8-.2-1.6-.3-2.3-.6-1-.1-2.1-.1-3-.2-2.3 1.5-4.5 2.5-6.8.1-.6-.6-1.1-.7-1.9-.6-6.9.8-6.9.8-6.9-6.8 0-30.8 0-61.4.1-92.2 0-2.4.3-4.9.3-7.3-.9-3.7.4-5.2 3.8-5 4.9.3 9.9.3 14.8.3 2 0 2.9 1.1 3.1 3.2.3 2.8.7 5.6.7 8.4.1 31.9.1 63.7 0 95.6 0 1.8 1.5 4.8-1.9 5.1zm11.6-222.7h73.6c9 0 9 0 8.5 11-2.2-.7-2.9-2.9-4.2-4.5-4.2-4.6-7.4-4.2-10.1 1.7-1 2.3-1.1 5.1-4.1 1.3-5.2-6.8-6.9-6.4-12.3 3.3-2-2.9-3-7-6.9-7.3-4.2-.3-4.8 4.2-7.3 6.8-2-2.7-2.9-6.7-6.7-6.8-3.7-.2-5.1 3.3-6.8 5.8-1.9.1-1.9-1.8-2.7-2.8-3.9-5.1-6.1-5-9.7.4-1.1 1.6-1.6 4-3.6.8-5.6-8.7-5.7-8.6-12.6-.9-2.6-7.5-1.9-8.8 4.9-8.8zm82 86.7c0 9.8 0 9.8-9.1 8.8-14.7.1-29.5.3-44.2.3-10.1 0-20.2-.2-30.2-.3-3.4.8-4.5-1-4.5-4.6.1-20.6.1-41.2.1-61.9 0-5.1 2.5-8.8 5.5-12.1 2.7-3.1 4.1.1 5.3 2.3 3.9 6.8 3.9 6.8 8.3.5 2.2-3.1 3.7-3 5.6.4 3.9 7.4 4.5 7.5 8.2.5 2.7-5.1 4.5-3 6.6.3 3.8 5.9 3.8 5.9 7.1-.1 2.5-4.5 4.2-4.4 7 .3 3.9 6.4 4.2 6.4 7.5-.3 2.3-4.7 3.5-4.7 6.3-.1 3.6 6 4.2 6 7.4 0 3.6-7 4.4-6.8 9.3-.5 3.2 4.2 4.2 8.6 4.2 13.9-.5 17.4-.4 35-.4 52.6zm-87.7 25.5c.3-2.1 2.1-1.9 3.5-1.9h80.7c2.5 0 3.6 1 3.6 4-.1 3.6 0 7.2 0 12-1.3-1.1-1.7-1.5-2.1-1.9-4.7-6.4-7-6.2-11.4.8-1.7 2.8-2.6 4.5-4.9 0-3.5-7.1-6.9-6.2-12 3.2-2.3-2.6-3.1-7-7.1-7.2-4-.1-5.1 3.9-7.5 6.8-2-3.3-3.3-7.5-7.7-6.8-4.2.7-4.1 5.5-6.6 9.2-.9-4.6-1.6-8.8-6.3-9.1-4.1-.3-5.3 3.4-6.8 6.8-2.9-1.8-2.9-6.7-6.4-7.8-3.6-1.1-5.8 1.1-7.9 4.6-2.3-4.5-1.4-8.6-1.1-12.7zm-.2 31.4c0-2.3.8-4.3 1.8-6.2 3.6-6.7 6.1-6.9 9.4-.3 2.3 4.6 4.2 4.2 6.6.3 2.3-3.7 4.6-6.7 7.7-.3 1.7 3.6 4.6 3.1 6.4-.1 2.9-4.9 5.2-4.6 7.8.3 2 3.7 4.2 4.5 6.5-.2 2.7-5.3 5-5.2 7.6.2 2.3 4.8 3.7 4.1 6.4.3 4-5.6 4.2-5.5 8.2.4 2.2 3.2 4.1 3.7 6.2-.1.9-1.6 2.1-2.9 3-4.2 1.2-1.9 2.7-2.2 4.1-.5 3.3 3.6 6.4 6.9 6.3 13.2-.4 22.6-.2 45.2-.2 67.9 0 9.9 0 9.9-9 8.8-21.5 1.2-43 .4-64.5.5-3.4 0-6.8-.2-10.3-.3-3.1.5-4.2-1.2-4.2-4.5.2-25.1.2-50.2.2-75.2zm49.3 241.8c-3.1 4.7-1 10.1-2 15.1-.4 2.3-2.3 2.1-4 2.1-1.8 0-3.3-.6-3.4-2.9-.1-1.8 0-3.6 0-5.7-.5-2.5 1.2-5.9-2.1-7.9-1.3-.8-.5-1.7.3-2.2 3.4-2.2 6.8-2.3 10.1.2.5.3 1.1 1.1 1.1 1.3zm38.4-7c-.3 5.3-.1 10.5-.1 15.8 0 9.4 0 9.4-8.9 8.1-5.5.2-11.1.3-16.5.6-3.1.2-4.1-1.1-3.9-4.6.4-6.3-.2-12.5-4.5-17.2-6.4-5.6-13.2-4.4-20.1-1.4-4 5.6-5.3 12.1-4.5 19.2.3 3-.9 3.9-3.3 3.8-7.5-.2-15.1-.3-22.6-.4-2 .3-2.5-.9-2.6-2.8-.2-7.5-.4-14.9-.7-22.4-.2-3.5 1.4-4.6 4.3-4.5 20.4.3 40.8-.5 61.3.4 5.7.3 11.5-.1 17.3-.4 3.7-.1 5.1 1.6 4.8 5.8zm-.1-12.4c-2.2 3.7-5.5 1.1-8.4 1.7-8.7 1.2-17.3.5-25.9.5-16.7-.1-33.5.7-50.2-.6-.4-.3-.8-.6-1.1-1l-.2-.1c-2.1-.3-2-1.9-1.5-3.4.5-1.4 1.5-2.3 2.8-.8 6.2-1.8 12.6-.4 18.8-.4 19.1 0 38.1.1 57.2.2 2.8-1 5.6-1.5 8.2.4.5.6.7 2.8.3 3.5zm.5-89.5c-.3 23.7-.2 47.3-.2 71 0 9.8 0 9.8-9.2 8.7-.6.3-1.3.6-1.9.9-2.1 1.5-4.2 1.2-6.4.2-2.5-1.1-5.1-.3-7.6-.6-9 1.7-18 1.3-27.1.3h-4.3c-7.6 1-15.2 1.4-22.8-.3-1.7-.2-3.5-.3-5.1-.4-3.1 1-3.4-1.5-3.3-3.7.3-26.1-.6-52.2.4-78.2.3-5.5.3-10.6 4.2-14.9 2.8-3 4.8-3.6 6.8.2 2.5 4.5 4.8 3.6 6.8-.2 2.3-4.2 4.3-4.3 6.7-.1 2.5 4.6 5.1 4.5 7.6-.1 2.2-4.1 4.2-4.5 6.7-.1 2.3 4.2 4.7 5.5 7.3.1 1.8-3.8 4.1-4.1 6.4-.3 2.9 4.6 5.5 6.2 8.3-.5 1.5-3.6 4-3.5 6.1.3 3.3 5.9 3.4 5.7 7.2.3 3.1-4.4 4.5-4.2 8 0 4 5 5.5 10.6 5.4 17.4zm-81.5-36.4h73.6c8.1 0 8.4.3 6.8 10-9.1-9.7-9.5-9.7-15.6.7-2.4-2.4-3-7.1-7.3-7.1-4.5 0-4.7 5-7.5 8-1.1-3.8-2.5-7.4-6.4-7.8-4.3-.4-5 3.7-7 7.2-5.8-9.7-8-9.7-14.3-.6-6-8.8-8.7-8.9-13.6-.3-7.5-7.7-7.5-7.7-14.5 0-2-7.4-.6-10.1 5.8-10.1zm79-5.8c-2.2 0-4.3-.1-6.5-.1-3.9 1.1-7.9.6-11.9.6-21 0-41.8-.1-62.8-.1-2.8.9-4.1-.3-4-3.5.1-3.3 1.7-3.6 4-2.7 24.4 0 48.9-.1 73.3-.1 2.7 0 5.4-.2 8.1 0 1.7.1 2.9 1.2 2.9 3.6-.2 2.3-1.7 2.3-3.1 2.3zm4-131.2c-.3 1.2-1.3 1-2.2.8l-4.2.3c-.3.8-.7.9-1.3.3-4.4 1.3-9 .7-13.4.7-21.5.1-42.9 0-64.4-.1-1.5 0-3.5.8-4.2-1.6-.5-1.8.9-2.3 2.1-2.9.6-1.4 1.3-1.1 2-.2 3.6-.1 7.2-.1 10.8-.2.3-.2.6-.6 1-.6h62.3c.3 0 .6.3 1 .6l2.1.3c2.3-1.7 4.6-1 6.9-.3 1.1.8 2 1.6 1.5 2.9zm21.9 299.8h-1.1c-5.5-.2-12.6 2.6-16.3-1-3.8-3.7-1.2-11.8-1.3-17.8-.1-5.5-2.4-12.9 1.1-16.1 2.9-2.8 9.3-1.1 14-1.2 7-.2 7-.1 7.1 7.8v10.3h.1c0 4.7-.1 9.3.1 13.9.2 3-1 4.4-3.7 4.1zm11.6.1c-3 .2-4.1-1-4.1-4.5.2-9.1.1-18.2-.1-27.2-.1-3.3.8-4.7 4-4.7s4.6 1 4.4 4.9c-.3 4.4-.1 8.8-.1 13.3 0 4.7-.2 9.3.1 13.9.3 3.7-1.5 4.2-4.2 4.3zm4.3-47c0 3.2.3 6.1-4 6-3-.1-4.3-1.3-4.1-4.7.1-1.6 0-3.2 0-4.9-5.9.5-6.9-2.9-6.9-8.8.3-28.7.3-57.4 0-86.1-.1-6.2 1-9.7 7.1-9.3.1-.6.1-1.1.2-1.7-.6-1-.7-1.8-.1-2.9v-3.2c0-.3.1-.6.1-1 .2.3.3.6.3.9 4.2 6.2 6.8 12.8 6.8 21.1.1 31.5.4 63 .6 94.6z"/><path class="st3" d="M2042.8 1027.2c1.8 1.4 3.1 3.6 3.1 5.7.3 11.5.3 23 .4 34.6 0 2.7-2.2 2.3-3.5 3.1v-43.4z"/><path class="st4" d="M2046.6 1018.9c2.4 5.6-2.8 2.4-3.8 4.1v-8.4c3.1-.5 1.9 3.6 3.8 4.3z"/><path class="st3" d="M1854.5 1066.7c41.2 1.3 82.5-.3 123.7-.1 19 .1 38.1-.1 57.1.2 5.2.1 6.7-1.6 6.6-6.8-.3-15.6-.5-31.3 0-46.9.2-7.1-2.2-10.8-8.8-12.4-3.1-.8-6-2.3-9.3-2.3-.8 6-3.3 11.6-5.1 17.3-1.4 4.2-2.8 4.3-5.3.9-8.7-11.5-19.6-19.4-34.3-20.7l-7.5.6c-.7.5-1.4 1.3-2.2 1.4-14 2.1-25.9 8.7-36.9 17.4-7.2 5.7-9.5 13.1-6.5 21.6.5 1.3 1.8 2.6.9 3.8-1.2 1.6-2.9.3-4.4 0-16.9-3.5-33.8-4.2-50.9-.5-16.4 3.6-22.6 13-17.1 26.5z"/><path class="st5" d="M2101.7 1024.1c-1.7-.2-3.5-.3-5.1-.4.2-2.8.6-5.5.6-8.3.1-25.2.1-50.4.1-75.6 0-8.8.8-9.4 8.5-6.5 0 28.5 0 57 .1 85.5-.6 1.8.3 2.6 1.6 2.9 1.7.3 2.5-.9 2.6-2.7.6-28.6.3-57.2-.5-85.8 3.4.5 7.1-1.4 10.3 1.3.1 4.9.2 9.7.2 14.5-.3.9-.9 1.8-.9 2.7 0 17 .1 34 .2 50.9 0 1.5 0 2.9 1.3 3.7 0 3.2 0 6.3.1 9.5.1 1.9-.4 4.2 2.4 4.2 1.5.3 2.9.5 1.5-1.9.1-21.3.3-42.6.2-63.9 0-7 .5-14-.8-21.1 4.5-1.6 9.2 2 13.5 0 4-1.8 7.2-1.3 10.6 1.2 0 28.3.1 56.7.1 84.9-.9.9-.8 1.7.3 2.2 1.1.5 2-.1 2.4-1.4 1.6-.8 1.8-2.3 1.8-4-.2-27.6-.3-55.3-.4-82.9 6.9-.2 6.9-.2 6.9 7.5.1 24.7.1 49.4.2 74.1 0 3.6 0 6.8 4.6 5 1-.2 1.9-.3 2.9-.5 2.2-1.6 1.2-4 1.2-6.1.1-12.5.2-25 0-37.4-.2-12.2.6-24.5-.3-36.7-.2-1.4-.3-2.8-.5-4.2.8-1.6 1.6-3.4 3.7-2.5 1.8.7 1.4 2.6 1.4 4.2l-.3 87.2c-.6.3-1.3.6-1.9.9-2.2-2-4.3-2.2-6.4.2-2.5-1.1-5.1-.3-7.6-.6-9.1-1.4-18.1-1.7-27.1.3h-4.3c-8-2.1-15.6-1.7-23.2-.4zM2172 890.5c-21.5 1.2-43 .4-64.5.5-3.5 0-6.8-.2-10.3-.2-.1-24.8-.1-49.6-.1-74.4 0-2.1-.9-4.9 1.6-5.7 2.3-.7 5-1.4 6.8 1.6V882c0 2-.3 4.5 2.4 4.3s2-2.9 2-4.8c0-18.5.1-37.2 0-55.7 0-4.6.6-9.3-.5-13.9 3.5-3.9 7-1.9 10.6-.1 0 2.9.1 5.6.1 8.5-.8.7-1 1.6-1 2.7 0 19.8-.1 39.6-.1 59.3 0 1.6-.1 3.4 1.9 3.6 3.8 1 3.6-1.9 3.6-4.7-.1-23.1-.3-46.4-.3-69.5 2.1-2.2 4.9-2.2 7.1-1.4 3.1 1 6 .8 9 0 4.2-1 6.1.6 6 6-.3 21.1-.2 42.3-.1 63.4 0 2.1-1.4 5 1.8 6.1 4.9 1.6 4.4-2.3 4.4-5.5 0-20.5 0-41.1-.1-61.6 0-2.6.4-5.3-.6-7.7 5.6-2.9 7.2-2 7.3 4.7.1 21.2.1 42.4.3 63.6 0 2.6-1 6.1 2.9 6.6 1.1.1 2.3.2 3.4.3 3.8.4 1.9-2.4 1.9-4.2v-3.4c.6-6.6.6-13.2-.1-19.8 0-14.8-.1-29.6-.1-44.4.3-.7.2-1.2-.3-1.6-.1-.3-.3-.6-.3-1 .3-2.5 1.8-2.9 3.6-2.3 2.3.9 1.9 3.1 1.9 5.1-.1 25.4-.1 50.7-.2 75.9zM2172 762.9c-14.7.1-29.5.3-44.3.3-10 0-20.2-.2-30.2-.3-.1-21.1-.3-42.4-.3-63.5 0-4.9 3.1-5.7 8.2-2.6v57.4c0 2.3-.9 5.7 2.1 6 3.3.3 2.1-3.3 2.6-5.5 1.5-3.2 1.5-6.5 0-9.7-.3-16.2-.5-32.3-.8-48.5 3.7-2.6 7.5-1.9 11.3 0-.1.7-.3 1.4-.3 2-2.9 7-.6 14.4-1.2 21.5-.2 1.7-.4 3.6 1.5 4.7v9.1c-3.2 6.5-.8 13.6-1.6 20.4-.2 1.5.2 2.8 1.6 3.4.3 1.6.3 3.6 2.4 3 1.9-.4 1.6-2.4 1.5-4l-.3-60c5.5-4.2 11.4 1.2 17.2-1.3 3.8-1.6 5.1 1.2 5 5.6-.3 17.8-.2 35.5-.1 53.3 0 2-1 4.6 1.7 5.6l.1.1c.2.8.6 1 1.3.9 3.8.3 3.2-2.9 3.2-5.4v-53c0-2.1-.2-4-1-5.8 6.3-2.3 7.5-1.5 7.5 5.6 0 17.8.1 35.6.1 53.4 0 3.6.3 6.2 4.3 5.2 1-.1 2-.1 2.9-.2 2.4-1.6 1.3-3.8 1-6v-3.3c.7-11.4.6-22.9-.1-34.3v-2.1c.6-2.9.7-5.9-.1-8.8-.1-3.1.3-6.3-.9-9.4 3.6-2.9 5.6-2.1 5.6 3.2.2 21 .2 42 .1 63z"/><path class="st6" d="M1826.5 1064.3c.4 3.5 3.8 2.8 6.1 3.2 7.3 1.2 14.6-.4 21.9-.7-5.5-13.6.7-22.9 17.1-26.5 17.1-3.7 34-3 50.9.5 1.5.3 3.2 1.6 4.4 0 1-1.3-.4-2.6-.9-3.8-3-8.5-.8-15.9 6.5-21.6 11-8.6 22.9-15.3 36.9-17.4.8-.1 1.5-.9 2.2-1.4-2.1-2.8-1.4-5 1.9-5.1 2.6-.1 6.9-1.1 5.6 4.5 14.7 1.3 25.6 9.2 34.3 20.7 2.6 3.4 4 3.3 5.3-.9 1.9-5.7 4.3-11.3 5.1-17.3-6.7-2.6-7.3 3.3-9.6 7.2-.7-.4-1.4-.5-1.7-.9-10.4-16.8-26.1-23.6-44.8-23.7-29.6-.3-57.1 7.6-81.3 25.2-11 8-12.3 13.7-8.1 26.5-6.1.7-12.4.2-18.4 2.1-9.5 2.9-17.6 7.2-18 19-.1 2.9-1.5 3.5-4 3.3-2.3-.2-4.6-.2-6.7 1-2.5 1.3-5 3-4.7 6.1zM2126.3 463.1l-.3-7.2v-1.4c0 .3.1.8-.1 1-.3.5-.9 1.3-.9 1.3-1.8-1.2-2-3.6-3-5.5-1-1.8-1.4-4.8-3.6-4.7-1.9.1-2.4 2.9-3 4.6-1.5 4.2-4.7 7.6-4.3 12.6.1 2-1.7 1.7-2.9 1.7-3.2.1-6.5 0-9.7 0-.3-1.6.6-3.3-.5-4.8-1.3-2.9-2.5-5.7-3.8-8.6-.9-1.9-1-4.9-3.1-5-2-.3-1.8 3.1-3.3 4.2-1.4-.9-1-2.3-1.2-3.6 1-3.1 2.5-6.1 4.3-8.7 2-.3 2.1-1.8 2-3.6.1-.4.2-.9.3-1.3 1.1-.3 2-1 1.9-2.4.2-2.5 1.6-4.2 3.1-5.7-.2 4.7 3.6 5 5.9 7.1-.6 2.3.3 2.9 2.2 2.7 3.7-.3 7.5-.4 11.2-.7.7-2.3-1.7-3.7-1-5.9h37.4c-2 4.9-.8 7.1 4.2 6.2 1.4-.3 2.9-.3 4.2 0 4.5 1 5.2-1 3.6-5.2 3.7.2 7.5-.3 11.2-1 5.1 11.3 11 22 17.6 32.3 1.5 2.3 2.1 3.9-1.5 3.9-18.2-.2-36.3-.2-54.5-.3 0-.2 0-.4-.1-.6-.9-2.9 1.1-8.7-1.6-8.2-4.3.7-.2 5.5-.7 8.6-3.1.9-6.3.5-9.5.4-.2-.5-.3-1.3-.5-2.2zm29.2.1v-.2h4.9c1.2 0 2-.4 2-2.1 0-2.1-5-14.3-6-13.9-3.7 1.4-3.5 6.1-5.5 9-.6 1-1 2.2-1.4 3.3-1.1 2.6-1 4.2 2.2 4 1.2-.2 2.5-.1 3.8-.1zm26-16.9c-3.4 4.3-4.8 9.4-6.9 13.9-.8 1.6-.3 2.9 1.4 2.8 4.1-.5 9.3 1.9 11.8-1.1 1.7-2.2-2.1-7.1-3.6-10.7-.6-1.6-1.6-3.1-2.7-4.9z"/><path class="st4" d="M2105.6 812.2c-1.7-3-4.5-2.4-6.8-1.6-2.5.8-1.6 3.6-1.6 5.7 0 24.8.1 49.6.1 74.4-3.1.5-4.2-1.2-4.2-4.5.1-25 .1-50.1.1-75.2 0-2.3.8-4.3 1.8-6.2 3.6-6.7 6.1-6.9 9.4-.3 2.3 4.6 4.2 4.2 6.6.3 2.3-3.7 4.6-6.7 7.7-.3 1.7 3.6 4.5 3.1 6.4-.1 2.9-4.9 5.2-4.6 7.8.3 2 3.7 4.2 4.5 6.5-.2 2.7-5.3 5-5.2 7.6.2 2.3 4.8 3.7 4.1 6.4.3 4-5.6 4.2-5.5 8.2.4 2.2 3.2 4.1 3.7 6.2-.1.9-1.6 2.1-2.9 3-4.2 1.2-1.9 2.7-2.2 4.1-.5 3.3 3.6 6.4 6.9 6.3 13.2-.4 22.6-.2 45.2-.2 67.9 0 9.9 0 9.9-9 8.8.1-25.2.1-50.4.2-75.6 0-2 .3-4.2-1.9-5.1-1.7-.7-3.2-.3-3.6 2.3-4.2-1-4.2 1.9-4.2 5.2 0 23-.1 45.8-.1 68.8-3.9-.6-2.9-4-2.9-6.6-.2-21.2-.2-42.4-.3-63.6 0-6.7-1.6-7.6-7.3-4.7-4.3-.5-3.5 3-3.5 5.7-.1 23-.2 46.1-.2 69.1-3.2-1-1.8-4-1.8-6.1-.1-21.1-.2-42.3.1-63.4.1-5.4-1.8-7-6-6-3 .7-5.9 1-9 0-2.3-.8-5-.8-7.1 1.4-1.4-1-2.8-.6-4.2 0-3.6-1.8-7-3.8-10.6.1-1.3 0-2.7.1-4 .2zM2148 934.5c-3.3-2.4-6.6-3-10.6-1.2-4.3 2-9-1.6-13.5 0l-4.2 1.2c-3.2-2.7-6.8-.7-10.3-1.3-1.3 0-2.5.1-3.8.1-7.7-2.9-8.5-2.3-8.5 6.5 0 25.2 0 50.4-.1 75.6 0 2.8-.3 5.5-.6 8.3-3.1 1-3.4-1.5-3.3-3.7.3-26.1-.6-52.2.4-78.2.3-5.5.3-10.6 4.2-14.9 2.8-3 4.8-3.6 6.8.2 2.5 4.5 4.8 3.6 6.8-.2 2.3-4.2 4.3-4.3 6.7-.1 2.5 4.6 5.1 4.5 7.6-.1 2.2-4.1 4.2-4.5 6.7-.1 2.3 4.2 4.7 5.5 7.3.1 1.8-3.8 4.1-4.1 6.4-.3 2.9 4.6 5.5 6.2 8.3-.5 1.5-3.6 4-3.5 6.1.3 3.3 5.9 3.4 5.8 7.2.4 3.1-4.4 4.5-4.2 8 0 4.2 5 5.6 10.5 5.5 17.4-.3 23.7-.2 47.3-.2 71 0 9.8 0 9.8-9.2 8.7l.3-87.2c0-1.6.4-3.5-1.4-4.2-2.1-.8-2.9.9-3.6 2.5-4.5-1.9-4.7 1.1-4.7 4.9.1 24.6.1 49.2 0 73.8 0 2.3.1 4.4 1.5 6.2-4.6 1.8-4.6-1.4-4.6-5 0-24.7-.1-49.4-.2-74.1 0-7.7 0-7.7-6.9-7.5-1.3.5-2.7.9-4.1 1.4zM2105.6 696.9c-5.1-3.1-8.2-2.3-8.2 2.6-.1 21.1.2 42.4.3 63.5-3.4.8-4.5-1-4.5-4.6.1-20.6.1-41.2.1-61.9 0-5.1 2.5-8.8 5.5-12.1 2.7-3.1 4.1.1 5.3 2.2 3.9 6.8 3.9 6.8 8.3.5 2.2-3.1 3.7-3 5.6.4 3.9 7.4 4.5 7.5 8.2.5 2.7-5.1 4.5-3 6.6.3 3.8 5.9 3.8 5.9 7.1-.1 2.5-4.5 4.2-4.4 7 .3 3.9 6.4 4.2 6.4 7.5-.3 2.3-4.7 3.6-4.7 6.3-.1 3.6 6 4.2 6 7.4 0 3.6-7 4.4-6.8 9.3-.5 3.2 4.2 4.2 8.6 4.2 13.9-.2 17.6 0 35.2-.1 52.8 0 9.8 0 9.8-9.1 8.8.1-21.1.1-42 .3-63.1 0-5.3-1.9-6.1-5.6-3.2-4.2-1-4.2 1.9-4.2 5.3.1 17.5 0 34.9 0 52.4 0 2.2-.3 4.4 1.1 6.3-4 .9-4.3-1.6-4.3-5.2.1-17.8 0-35.6-.1-53.4 0-7.1-1.2-8-7.5-5.6-3.8-.2-3.1 2.9-3.1 5.4-.2 19.3-.3 38.6-.4 57.9-2.8-1-1.7-3.6-1.7-5.6 0-17.8-.1-35.5.1-53.3.1-4.4-1.2-7.3-5-5.6-5.8 2.5-11.8-2.9-17.2 1.3h-3.5c-3.7-1.8-7.5-2.6-11.3 0-1.9-1.2-3.2-.8-4.4.2z"/><path class="st5" d="M2136.2 510c16.6 0 33.3.1 49.9-.1 3.6 0 4.9.9 4.9 5.4-.1 35.4.1 70.8.3 106.2.1 5.4-1.7 6.9-6.3 6.9-32.6-.2-65.1-.2-97.6 0-4.1 0-5.2-1.3-5.2-5.8.2-36 .1-72 .1-108 0-3.3.2-5 4-5 16.6.3 33.3.1 49.9.1v.3zm.8 115.2c0-.1 0-.1 0 0 15.7 0 31.4-.2 47.1 0 3.4 0 4.3-1.2 4.3-4.9-.1-33.8-.1-67.5 0-101.3 0-4.3-1.4-5.5-5.1-5.5-30.9.1-61.8.2-92.7-.1-4.4 0-5.5 1.6-5.4 6.2.2 33.2.2 66.3-.1 99.5 0 5 1.6 6.1 5.6 6 15.5-.1 30.9.1 46.3.1zM2082.2 889.4c-2.3 1.5-4.5 2.5-6.8.1-.6-.6-1.1-.7-1.9-.6-6.9.8-6.9.8-6.9-6.8 0-30.8 0-61.4.1-92.2 0-2.4.3-4.9.3-7.3 5.4-.8 5.7 2.6 5.7 7.5-.2 26.5-.2 53-.1 79.5 0 2.4-1.1 6.8 1.6 6.8 2.9 0 1.6-4.2 1.6-6.6.1-26.7 0-53.4-.1-80.1 0-2.5-.2-4.9 3.2-4.8 3 0 3.6 1.5 3.6 4.4-.2 33.4-.2 66.8-.3 100.1zM2107.3 376.4c19.1-.8 38.1-.4 57.2-.2.1 10.5.2 21 .2 31.4-1.7.1-3.6.3-5.5.3 0-6.5.1-12.9-.1-19.4-.1-2.5 0-6-3.1-6-3.5 0-3.3 3.6-3.4 6.3-.1 5.3-.1 10.5.1 15.8.1 2.9-.9 4-3.5 4s-3.5-1.2-3.4-4.1c.1-5.9 0-11.7-.3-17.6-.1-2.1-.3-4.9-3.2-4.5-2.3.3-2.9 2.4-2.9 5 .1 5-.1 10.1-.2 15.2-.1 2.7.9 5.9-3.4 5.9-4 0-3.6-2.7-3.6-5.6 0-4.9.1-9.7-.1-14.6-.1-2.3.2-5.6-2.7-5.7-3.2-.1-3.9 3.1-3.9 6.1-.1 4.9.1 9.7.1 14.6 0 2.6.5 5.5-3.3 5.3-3.9-.2-2.9-3.1-3-5.6-.2-5.3-.1-10.5-.4-15.8-.2-2.1-.5-4.9-3.4-4.3-2.4.4-3 2.5-2.9 5 0 5.3.1 10.5.1 15.8-.1 5.1-.6 5.5-5.5 3.8 0-10.3.1-20.7.1-31.1z"/><path class="st6" d="M2146.4 322.9c5.9 8.2 9.5 18 14.4 26.9 1.5 2.6-.5 5.5-1.8 7.9-2 3.3-.8 4.2 2.1 4.3 2 .1 4 0 5.9-.2 1.4-.2 2.9-.1 2.9 1.6.2 2.3-1.7 1.6-2.8 1.6-12.5.1-25 .1-37.4.1h-21.5c1.6-3.5 4.4-2.1 6.6-2.7 2.1-.6 4.7-1.6 2.4-4.2-6.8-7.5-2.1-13.7 1.4-20 1.1-2 1.3-4.8 3.4-6 2.3.8 4.5 2.3 7 1.2l11.2-.3c2 .6 4 .8 4.7-2.1.7-2.7 1-5.4 1.5-8.1zm-3.9 20 .2-.2c-2.1.5-3.3 2.4-2.9 4.3.4 2 2.8 1.5 4.2 1.4 2.1-.1 4.9 1.2 6.1-1 1-2.1-1.1-4.4-2.2-6.4-1-1.9-1.4-4.6-3.7-5.8-1.1 2.6-2.1 4.9-1.7 7.7zm-10.7 19.9c1.8-1.1 6.2.5 5.7-3.4-.4-3.4-1.7-7.9-5.2-9.8-1-.6-5.8 8.2-5.5 10.4.3 3.6 2.9 2.1 5 2.8z"/><path class="st5" d="M2191.2 918.2c2.6-3.4 6.2-2.2 8.9-1.3 2.4.8 1.3 4.2 1.3 6.5 0 31.4 0 62.9-.1 94.4 0 3.5-.5 7.2 4.4 6.7 1.4-.2 2.4.8 2.3 2.6-.1 1.6-1 2.7-2.4 2.6-4.6-.3-9.4 1-13.9-1 0-34.5 0-68.9-.1-103.4.2-2.3.6-4.8-.4-7.1z"/><path class="st4" d="M1906.2 986.8c4.7-1.7 9.6-2.8 14.5-4.2-.2-13.7-.6-27.4-.6-41.1.1-13.9-1-27.9.9-41.8-5.3-1.7-10.7.8-16.2-.4-4.2-.9-3.4 3.4-3.4 5.9-.1 19.4 0 38.7 0 58.1 0 6.5.2 13.1-.1 19.6-.3 4.1.7 5.4 4.9 3.9zM2181.1 793.7c-1.3-1.1-1.7-1.5-2.1-1.9-4.7-6.4-7-6.2-11.4.8-1.7 2.8-2.6 4.5-4.8-.1-3.5-7.1-6.9-6.2-12 3.2-2.3-2.5-3.1-7-7.1-7.1-4-.1-5.1 3.8-7.5 6.8-2-3.2-3.3-7.5-7.7-6.8-4.2.7-4.1 5.6-6.6 9.2-.9-4.6-1.6-8.8-6.3-9.1-4.1-.3-5.3 3.4-6.8 6.8-2.9-1.8-2.9-6.7-6.4-7.8-3.6-1.1-5.8 1.1-7.9 4.6-2.2-4.4-1.4-8.6-1-12.6.3-2.1 2.1-1.9 3.5-1.9h80.7c2.5 0 3.6 1.1 3.6 4-.3 3.6-.2 7.2-.2 11.9zM2082.2 658.8c-.1-1-.1-2.1-.2-3.1 2.9-1 6.3 1.3 8.8-2.2 2.3.2 4.8.3 7.1.4 3.4 2.6 6.6 2.9 9.4-1.1 2.4 1.6 4.9 1.6 7.3-.1 2.4 4.1 6.5 4.1 10 .1 1.9 1.7 4.2 1.3 6.4 1.2 3.5 2.1 6.9 2.7 10.4-.1h6.4c3.6 2.4 7.3 2.6 10.8-.1 2.2 0 4.3.1 6.5.1 3.5 1.7 6.9 4.2 9.5-1.3 6.8 2.7 7.4 2.3 7.5-5.7 0-1.4-.3-2.9.2-4.2 1.1-3.6-.5-5.8-3-6.5-2.9-.9-4 1.8-4.4 4.6-2.9-.3-5.8-1-8.7.2-.5-2.9-1.5-5.6-4.4-5.9-2.6-.3-3.5 2.3-4.1 4.6-3-.3-6-.8-9 0-.8-2.4-1.8-4.7-4.4-4.3-2.9.3-3.5 3.1-4.1 5.7-2.6-.5-5.1-.5-7.7-.1-.5-2.9-1.6-5.4-4.7-5.5-3.1-.2-3 3.2-4.2 5.2-2.6-2-5.5-1.3-8.4-1-1-2.4-2.4-4.4-5.2-3.9-2.7.4-2.9 3.1-3.5 5.3-2.7-.1-5.5-.3-8.1-.3-1.3-3-3.1-5.6-6.5-4.6s-1.6 4.7-2.3 7.1c-2-4-5.2-2.3-8.1-2.3-.7-7.8-.7-7.8 6.1-7.8 32.4.1 64.9.1 97.3.2 7.2 0 7.2 0 6.9 8.4-7.9-.8-7.9-.8-8.1 7.9v.6c-1.6 5.8 1.6 5.7 5.1 5.3 1-.2 2.1-.7 3-1l-.3 4.5c-36.4-.2-72.9-.2-109.3-.3z"/><path class="st3" d="M1945.8 954.8c15.4.1 30.7.1 46.1.1 14.9 0 29.8-.2 44.7 0 4.4.1 6.2-1.5 6.1-6-.3-11.1 1.1-22.3-1.1-33.6-3.9 3.4-.8 12.1-9.2 11.2-.5 3.9-.2 7.5 4 9.4 1 .4 2.5 1.9 1.8 2.5-4.5 3.1-6.2 7.2-6.8 12.5-.2 1.8-2.8.2-4.2-.2-8.1-2.4-16.2-5-24.3-7.4-20.4-5.9-41.3-7.1-62.3-7.4.1 4.4 1.2 9.2 0 13.2-2 6.5 1.8 5.7 5.2 5.7z"/><path class="st4" d="M2082.2 889.4c.1-33.4.1-66.7.3-100.2 0-2.9-.6-4.4-3.6-4.4-3.4 0-3.2 2.3-3.2 4.8.1 26.7.1 53.4.1 80.1 0 2.3 1.4 6.6-1.6 6.6-2.7 0-1.6-4.3-1.6-6.8-.1-26.5-.1-53 .1-79.5 0-4.9-.3-8.2-5.7-7.5-.9-3.7.4-5.2 3.8-5 4.9.3 9.9.3 14.8.3 2 0 2.9 1.1 3.1 3.2.3 2.8.7 5.6.7 8.4.1 31.9.1 63.7 0 95.6 0 1.7 1.5 4.7-1.9 5 .1-.6.3-1.2.3-1.8 0-32.9.1-65.8 0-98.8 0-1.5.5-3.2-1.6-4.4-1.5 2.2-.9 4.6-.9 6.8-.1 32.5-.2 65.1-.2 97.6-.9.2-1.9.1-2.9 0z"/><path class="st6" d="M1937.6 935.8c0 .1.1.1 0 0 1 .1 2 .1 2.9.1 21 .3 41.9 1.5 62.3 7.4 8.1 2.3 16.2 5 24.3 7.4 1.4.4 4 2 4.2.2.6-5.3 2.4-9.5 6.8-12.5.8-.5-.8-2-1.8-2.5-4.2-1.9-4.5-5.5-4-9.4-.6 0-1.1.1-1.7.1-4 2.6-8.9 1.6-13.2 2.8-1.4.4-2-1.3-2-2.9-9.2-.5-7.3-9.6-11.3-15.4-3.8 5.5-1.8 16.1-12.1 15.4.3 3.3-1.2 4.5-4.4 4.7-5.3.3-9.4-2.3-13.5-5-1.9-4.6-3.7-9.2-6.2-15.3-3.7 7-3.3 16.2-12.9 15.6-2.7 7.6-8.1 3.7-12.8 3.1-2.6-.1-3.5 1.1-4 2.6-.1.3-.2.7-.3 1-.1.4-.1.7-.2 1.1.2.5.1 1.1-.1 1.5z"/><path class="st5" d="M2106.9 486.7c-2.3-3.4-4.7-5.6-8.5-2.5-1.8.8-3.1 3.2-5.5 2.4-1.5-2.3-2.9-4.7-6.1-3.6-3.1 1.2-3.5 4.2-3.5 7.3 0 3.4-.1 6.8 0 10.1.1 2.9-.8 4.2-3.5 3.5 0-7.9-.1-15.9-.1-23.7 37 .1 74 .1 111 .2.9 0 1.7.3 2.7.4 0 7.4.1 14.8.1 22.2-3.4 2-5 1-5-3.5.1-4.2 0-8.5-.2-12.6-.1-2.7-1.4-4.9-3.8-5-2.7-.2-4.4 2-4.6 4.9-.3 4.4-.2 8.8-.2 13.3 0 2-.2 3.6-2.5 3.6-2.4.1-2.5-1.6-2.5-3.6 0-3.2.1-6.4 0-9.7-.2-7.5-2.4-8.9-8.7-5.5-2.5 5.3-2.2 10.6-.3 15.9 0 2.5-1.4 2.9-3.2 2.8-2.1-.2-2.2-1.7-2.2-3.4-.1-4.7-.2-9.3-.2-13.9 1-1.5.2-2.2-1-2.6-3.1-1.6-6-2.8-7.3 2.4-2.5 5.6-1.3 11.4-.6 17.2-3.6 1.4-4.9-.3-4.8-4.4.2-3.4-.1-6.8 0-10.3.1-3.4-1.5-5.7-4.2-5.9-2.9-.1-4.9 2.2-4.8 5.9.1 3 .2 6.1 0 9.1-.1 2.1 1.6 5.6-1.8 5.7-3.8.2-2.3-3.7-2.5-6-.3-2.8 0-5.6-.2-8.5-.3-5.9-4.1-7.9-8.8-4.9-2 .1-1.6 4.1-4.2 3.1-3.6-5.5-6-6.2-9.3-2.4-.8.9-2.2 1.4-3.7 2z"/><path class="st4" d="M2096.5 1069.9c-2 .3-2.5-.8-2.6-2.8-.2-7.5-.4-14.9-.7-22.4-.2-3.5 1.4-4.6 4.3-4.5 20.4.3 40.8-.5 61.3.4 5.7.3 11.5-.1 17.3-.4 3.8-.3 5.1 1.6 4.9 5.7-.3 5.3-.1 10.5-.1 15.8 0 9.4 0 9.4-8.9 8.1.1-5.6 0-11.3.3-16.8.2-4.2-1.2-6.1-4.9-5.6-1.6 0-3.2-.1-4.8-.1-5.2.8-10.6-1.9-15.5 1.4-6.4-5.6-13.2-4.4-20.1-1.4h-17.2l-4.2 1.5c-6.3-3.5-8-2.4-8.1 5-.2 5.4-.1 10.8-1 16.1zM2067.9 523.3c1-.2 2.1-.5 3.2-.6 6.8-.5 6.8-.5 6.8 7.4 0 27.2-.1 54.3.1 81.5 0 5.8-2 7.2-6.6 5.2v-30.4h-1.2v30.1c-.7-.1-1.3-.1-2-.2-.2-31-.2-62-.3-93z"/><path class="st5" d="M2066.7 1025.3c1.7-.3 3.6-.5 5.3-.8 4.1 0 2.2-3.6 2.2-5.3.1-31.9.1-63.9.1-95.7 0-2.2-.3-4.4-.4-6.6 2.4-1 4.9-.3 7.4-.5.4.1.9.2 1.3.3.2.1.3.2.5.3-.2 2.8-.4 5.6-.4 8.4 0 32.3-.1 64.6.1 96.9 0 4.8-1.2 6.7-5.5 6.1-2.3-.3-4.7-.2-7-.1-2.3 0-3.5-.8-3.6-3zM2088.7 1052.1c0 4.7-.1 9.3 0 13.9.1 2.9-.7 4.6-3.6 4.5-5.2-.2-10.5-.2-15.7 0-3 .1-3.6-1.6-3.6-4.5.1-9.1.1-18.2 0-27.3 0-3.2.7-4.9 3.9-4.9 5 .2 10.1.2 15.2 0 3.2-.1 4.1 1.6 3.9 4.9-.2 4.5-.1 9-.1 13.4zM2212.8 911.2V908l.3.1.2-.3c4.2 6.2 6.8 12.8 6.8 21.1-.1 31.5.3 63.1.5 94.6 0 3.2.3 6.1-4 6-3-.1-4.3-1.3-4.1-4.7.1-1.6 0-3.2 0-4.9 1.2-2 1-4.2 1-6.4 0-30.7 0-61.3-.1-91.9 0-2-.4-4-.7-5.9.1-.6.1-1.1.2-1.7.5-.9.6-1.9-.1-2.8zM2199.3 889.3c-2.5.8-5 3.1-7.5.2.1-26.7.2-53.3.2-80 0-7.3.1-14.6-.1-21.8-.1-3.2 1.1-4.1 3.9-4.2 4.2-.1 3.4 3.1 3.5 5.8-.1 33.4-.1 66.8 0 100zM2208.4 1052.2c0 4.7-.1 9.3 0 13.9.1 3.1-1 4.5-3.8 4.2h-1c-5.5-.2-12.6 2.6-16.3-1-3.8-3.7-1.2-11.8-1.3-17.8-.1-5.5-2.4-12.9 1.1-16.1 2.9-2.8 9.3-1.1 14-1.2 7-.2 7-.1 7.1 7.8.2 3.4.1 6.8.2 10.2z"/><path class="st4" d="M2212.8 915.7c.3 2 .7 4 .7 5.9.1 30.7.1 61.3.1 91.9 0 2.2.3 4.5-1 6.4-5.9.5-6.9-2.9-6.9-8.8.3-28.7.3-57.4 0-86.1-.1-6.3 1-9.8 7.1-9.3zM2061.9 917.1c7.3-.2 7.3-.2 7.3 8.1v86.5c0 7.9 0 7.9-7.2 7.9-1-15.5-.3-31.1-.4-46.7-.1-18.6.1-37.1.3-55.8z"/><path class="st5" d="M2061.9 917.1c-.2 18.6-.4 37.2-.4 55.8 0 15.6-.5 31.1.4 46.7-.2 1.6-.4 3.2-.4 4.8 0 2.9.1 5.3-3.5 5.2-3.8-.1-3.2-2.9-3.2-5.5V998c0-24.1.1-48.2 0-72.3 0-6.8 2.1-12.5 6.2-18.8.4 4.2.6 7.2.9 10.2z"/><path class="st4" d="M2075.8 763c-1.1 0-2.3.1-3.4.1.1-27.1 0-54.1.3-81.3.1-5.5-2.5-5.3-5.8-4.8-1.5-9.1-1.2-9.4 6.9-9.4 4.1 0 8.2-.9 12.2 1-.8 31.4-.5 63-.4 94.4-1.1 0-2.2.1-3.3.1.1-27.3.1-54.6.2-81.9 0-2.9-.6-4.5-3.6-4.5-3.5 0-3.1 2.4-3.1 4.9V763zM2199.3 889.3c0-33.4-.1-66.7-.1-100 0-2.7.8-5.9-3.5-5.8-2.8.1-3.9 1-3.9 4.2.2 7.3.1 14.6.1 21.8-.1 26.7-.1 53.3-.2 80-.7 0-1.5 0-2.2-.1-.1-2.3-.2-4.4-.2-6.7v-92c0-2.6 1-6.2-3.2-6 .3-2.4-1.5-6.8 2.2-6.7 3.9.1 9.4-4.2 12 4.5.3-4.9 2.6-5.3 5.4-4.9 3.1.4 2.3 2.9 2.1 5-4.4-1.2-5.5.9-5.5 5.6.1 33.7 0 67.5 0 101.2-1 .2-2.1.1-3-.1zM2181.3 678.6c-2.2-.7-2.9-2.9-4.2-4.5-4.1-4.6-7.5-4.2-10.1 1.7-1 2.3-1.1 5.1-4 1.3-5.2-6.9-6.9-6.4-12.3 3.3-2-2.9-3-7-6.9-7.3-4.2-.3-4.8 4.2-7.3 6.8-2-2.7-2.9-6.7-6.7-6.8-3.8-.2-5.1 3.3-6.8 5.8-1.9.1-1.9-1.8-2.7-2.8-3.9-5.1-6.1-5-9.7.4-1.1 1.6-1.6 4-3.6.8-5.6-8.7-5.7-8.6-12.6-.9-2.6-7.5-1.9-8.8 4.9-8.8h73.6c8.9-.1 8.9-.1 8.4 11z"/><path class="st5" d="M2199.4 680.9v74.9c0 8.3 0 8.3-7.5 7.2 0-28.6-.1-57.1-.1-85.7h7.4c.1 1.1.2 2.4.2 3.6zM2067.9 523.3l.3 93c-5.6 2.3-6.4 1.7-6.5-4.4-.1-27.8 0-55.6-.2-83.4-.1-6 1.9-6.8 6.4-5.2zM2212.2 524.2c0 30.3 0 60.6.1 91l-.3 1.5c-4.8 2.2-6.1-.2-6.1-5.2.1-29.1 0-58.1-.1-87.2.3-.4.6-.9.9-1.4h4.8c.2.3.4.8.7 1.3zM2202.3 889.7c0-33.7.2-67.5 0-101.2 0-4.8 1-6.8 5.5-5.6.1 34.5.1 69 .3 103.4-.1 5.6-2.8 4.4-5.8 3.4zM2075.8 763c0-27.1-.1-54.1-.1-81.3 0-2.4-.3-4.9 3.1-4.9 3 0 3.6 1.6 3.6 4.5-.1 27.3-.2 54.6-.2 81.9-2.1 0-4.3-.1-6.4-.2z"/><path class="st4" d="M2136.6 918.6c-5.8-9.7-8-9.7-14.3-.6-6-8.8-8.7-8.9-13.6-.3-7.5-7.7-7.5-7.7-14.5 0-2.3-7.5-.9-10.2 5.6-10.2h73.6c8.1 0 8.4.3 6.8 10.1-9.1-9.7-9.5-9.7-15.6.7-2.4-2.4-3-7.1-7.3-7.1-4.5 0-4.7 5-7.5 8-1.1-3.8-2.5-7.4-6.4-7.8-4.1-.5-4.8 3.8-6.8 7.2z"/><path class="st5" d="M2172.3 901.7c-3.9 1.1-7.9.6-11.9.6-21 0-41.8-.1-62.8-.1-.7-2.1-.4-4.2 0-6.2 24.4 0 48.9-.1 73.2-.1.6 2 1 3.9 1.5 5.8zM2109.6 1047.3h17.2c-4 5.6-5.3 12.1-4.5 19.2.3 3-.9 3.9-3.3 3.8-7.5-.2-15.1-.3-22.6-.4.9-5.3.9-10.7.9-16 .1-7.5 1.7-8.5 8.1-5 0 4-.1 8.1 0 12 .1 1.9-1 5 2.3 4.9 2.7-.1 2.2-2.7 2.2-4.6-.1-4.7-.2-9.2-.3-13.9z"/><path class="st4" d="M2201.1 616.6c-3 .5-5.2.4-5.2-4.2.1-28.4.1-56.8.1-85.2 0-1.9-.3-4.5 2.3-4.4 1.9.1 5.1-2 5.2 2.7-2.5 1.5-1.8 4.2-1.8 6.5-.1 20.4-.1 40.7-.2 61.1 0 7.8.6 15.7-.4 23.5zM2136.4 471.8h61.3c1.5 0 2.9.1 4.3.2.8.1 1.4.4 1.6 1.4.2 1.2-.5 1.9-1.5 2-1.6.2-3.2.2-4.9.2-41.3 0-82.7-.1-124.1 0-1.8 0-3.6.2-3.5-2.2.1-2.4 2.2-1.6 3.5-1.6 21.1-.1 42.3 0 63.4 0h-.1zM1936.2 975.2c.4 2.9 3.2 1.4 5.1 1.1 14.3-2.9 28.6-3.2 42.9-.2 3.8.8 7.6 2.3 11.3 3.6.5.2 1.1.4 1.6.6 7.5-3.9 15.5-.9 23.2-1.9 3.8-.5 5.4 1.4 5.1 5.2-.2 2.1-.2 4.1-.2 6.2 4.1 1.4 8.4 2.5 12.4 4.2 3.9 1.6 4.5.2 4.7-3.5.7-17.6.8-17.5-16.6-17.6-25.9-.2-51.7-.5-77.6-.8-2.3 0-4.6 0-6.9.1-2.3 0-5.4-.1-5 3z"/><path class="st5" d="M2066.7 677.1c3.3-.5 5.9-.7 5.8 4.8-.3 27.1-.2 54.1-.3 81.3-4.4 1.2-5.9-.4-5.9-5.7.4-26.9.4-53.7.4-80.4zM2207.9 677.2c.1 27.1.1 54.3.2 81.4 0 6.1-2.6 5.5-6.2 3.8.2-2.6.5-5.2.5-7.8 0-24 .1-48-.1-72 0-4.8 1.2-6.8 5.6-5.4zM2172.4 1035.2c-8.7 1.2-17.3.5-25.9.5-16.7-.1-33.5.7-50.2-.6 0-.9-.4-1.1-1.1-1l-.1-.1c.4-1.4 1-2.8 1.4-4.2 6.2-1.8 12.6-.4 18.8-.4 19.1 0 38.1.1 57.2.2-.2 2-.1 3.8-.1 5.6zM2189.7 1028c-3.2 3.6-3.7.7-3.8-2.2-.2-4.9-.1-9.7 0-14.6.8-32.3 0-64.5-.1-96.9 0-1.1-.5-2.3.8-3.8 1.8 2.3 2.9 4.9 3.1 7.9-.1 8.5-.3 16.9-.3 25.4 0 28.1.2 56.2.3 84.2z"/><path class="st3" d="M2129.1 333.3c-2.5 1-4.8-.4-7-1.2 6-12 9.6-25 14.2-37.9 2.6 10 7.5 18.8 10 28.7-.4 2.7-.8 5.5-1.4 8.1-.7 2.9-2.7 2.7-4.7 2.1.5-3.7-1.7-6.5-3.2-9.2-1.4-2.6-3.6-2.4-4.5 1-.8 2.9-1.8 5.8-3.4 8.4z"/><path class="st5" d="M2175.3 772c-4.4 1.3-9 .7-13.4.7-21.5.1-42.9 0-64.4-.1-1.5 0-3.6.8-4.2-1.6-.5-1.8.9-2.3 2.1-2.8.7-.1 1.3-.1 2-.2 3.6-.1 7.2-.1 10.8-.2 21.4.6 42.8.7 64.1 0l2.1.3c1.3 3.1 5.3-.6 6.2 3.1l-4.2.3c-.3.4-.8.4-1.1.5z"/><path class="st4" d="M2066.7 1025.3c.2 2.3 1.4 3 3.3 2.9 2.3-.1 4.7-.3 7 .1 4.2.6 5.5-1.3 5.5-6.1-.2-32.3-.1-64.6-.1-96.9 0-2.8.3-5.6.4-8.4.8.1 1.6.2 2.3.3l.3 111.8c-5.5 2.3-11.3 1.2-16.9 1.1-2.7-.1-3.6-2-1.8-4.8z"/><path class="st5" d="M2082.2 658.8c36.5 0 73 .1 109.5.1.9 5-2.6 3.4-4.5 3.4-22 .2-44.1.1-66.2.2-11.8 0-23.5.1-35.3 0-1.8-.1-5.3 1.1-3.5-3.7zM2167.2 1047.5c3.7-.4 5.2 1.4 4.9 5.6-.3 5.6-.2 11.3-.3 16.8-5.5.2-11.1.3-16.5.6-3.1.2-4.1-1.1-3.9-4.6.4-6.3-.2-12.5-4.5-17.2 5-3.3 10.4-.6 15.5-1.4-.1 4.9-.1 9.7-.2 14.5-.2 3.8 1.5 4.6 4.4 3.6 1.3-.4 1.2-1.4.8-2.6v-1.9c.4-1 .4-1.9 0-2.9v-8.5c-.1-.7-.1-1.4-.2-2zM2085.5 1028.9l-.3-111.8c.3-2.2.3-4.5 2.3-5.9 1.7 1.6 1 3.7 1.1 5.5.1 35.7.2 71.5.1 107.2 0 2.2 1.5 6.5-3.2 5zM2186.1 784.9c4.2-.2 3.2 3.4 3.2 6 .1 30.7 0 61.3 0 92 0 2.3.1 4.4.2 6.7-3.8 2.9-3.6 0-3.6-3v-54.4c.1-15.9.1-31.6.2-47.3zM2220.6 1052.2c0 4.7-.2 9.3.1 13.9.2 3.7-1.6 4.2-4.3 4.3-3 .1-4.1-1-4.1-4.5.2-9.1.1-18.2-.1-27.2-.1-3.4.8-4.7 4-4.7s4.6 1 4.4 4.9c-.2 4.5 0 8.9 0 13.3zM2085.5 763.1c-.1-31.4-.3-63 .4-94.4 1-.8 1.8-.8 2.4.5v.1c.1 3 .3 6 .3 9-.4 5.7-.5 11.3.1 17.1v8.4c-.5 2.9-.5 5.8 0 8.7v48.4c0 .4-.1.8-.1 1.2-.6 1.5-1.8 1.4-3.1 1z"/><path class="st3" d="M2154 429.5h-37.4c-1-2-3.6-3.6-2.4-6.1 1-2.1 3.6-.9 5.5-.9 10.4-.1 20.9-.1 31.3 0 1.6 0 4-1 4.9 1.3.8 2.1 0 4.3-1.9 5.7z"/><path class="st5" d="M2136.7 413.5c12.1 0 24.2-.1 36.3.1 1.6 0 4.7-1.5 4.6 2.1-.1 2.8-2.8 1.8-4.4 1.8-24.3 0-48.8 0-73.1-.1-1.7 0-4.4.5-4.5-2-.1-2.9 2.7-1.9 4.3-1.9 12.3-.1 24.5-.1 36.8 0 0-.1 0 0 0 0zM2189.4 677.3c.1.3.2.6.3 1-.5 28-.4 56 0 84-3 2.8-3.6.5-3.7-2.4-.1-5.5 0-10.8 0-16.3.1-22.1.3-44.3.4-66.4 1 0 2 0 3 .1zM2061.5 1052.5c0 4.6-.1 9.3 0 13.9.1 3-.8 4.4-3.6 4.4-2.7 0-3.9-.9-3.9-4.2.2-9.4.2-18.9 0-28.3-.1-3.3 1.2-4.1 3.9-4.1 2.9 0 3.7 1.5 3.6 4.4v13.9z"/><path class="st4" d="M2207.9 677.2c-4.4-1.5-5.5.6-5.5 5.5.2 24 .1 48 .1 72 0 2.6-.3 5.2-.5 7.8-2.3-1.7-1.4-4.4-1.4-6.7-.1-22.9-.1-45.8-.2-68.7 0-2.1.8-4.4-1-6.2-.1-1.2-.2-2.4-.2-3.6 3.2-.5 2.3-3.5 1.8-5.1-.9-3 .3-4.3 2.5-4.3 2-.1 4.5-.1 4.5 3.6 0 1.8 0 3.7-.1 5.7zM2189.7 1028c-.1-28.1-.3-56.1-.3-84.1 0-8.5.2-16.9.3-25.4.5-.1 1-.2 1.6-.3 1 2.3.6 4.8.6 7.2.1 34.5.1 68.9.1 103.4-.8-.3-1.5-.6-2.3-.8zM2067 634.6c1.2-.1 2.5 0 3.7-.2 4.7-.7 6.8 1.4 6.2 6.7-.4 4.7.8 9.6-1 14.2-.7 1.7.7 2.9 1 4.5-2.9-.3-6 1-8.8-.8 1.7-2-.2-2.7-1.1-3.7v-20.7zM2073.7 916.9c.2 2.2.4 4.4.4 6.6 0 31.9.1 63.9-.1 95.7 0 1.7 1.9 5.3-2.2 5.3.2-2.4.5-4.8.5-7.2 0-31.3 0-62.5.1-93.7.1-2.2-.9-4.8 1.3-6.7z"/><path class="st5" d="M2085.3 889.6c.1-32.5.1-65.1.2-97.6 0-2.3-.6-4.7.9-6.8 2.1 1.1 1.6 2.9 1.6 4.4v98.8c0 .6-.2 1.2-.3 1.8-.9-.2-1.6-.4-2.4-.6zM2197.8 899.7h3.7c6.2 0 7.7 2.4 6.2 9.2-.1.5-.3 1.2-.5 1.6-1.5 2-14.5 1.4-15.7-1-1.5-2.9-4.8-5.6-3.5-8.8 1-2.4 4.6-.5 7-1 1.1-.1 2 0 2.8 0zM2073.7 911.3c-2.2-1.6-7.2 3.5-7.6-4.2-.3-5.5 1-8.5 6.4-7.5 1.6.3 3.3-.2 4.9.1 2.9.4 7.2-1.7 8.5 2.3 1.2 3.6-5.2 9.4-9.5 9.4-.8-.1-1.6-.1-2.7-.1z"/><path class="st6" d="M1907 892.4c3.6 0 7.3 1 10.7-.9 0-3.4.2-6.9-.2-10.3-.9-6.8-2.3-13.5-.1-20.2-.2-1.5-.3-3-.5-4.5l-1.5-.3c-3.8 10.9-7.6 21.8-11.3 32.8-.8 2.3.8 3.4 2.9 3.4z"/><path class="st7" d="M1926.2 913.7c-.1 21.9-.1 43.8-.1 65.7 2.7-.6 2.8-2.7 2.8-4.8-.1-22.3-.2-44.7-.4-67-4 .7-2.3 4-2.3 6.1z"/><path class="st5" d="M2201.1 616.6c1-7.8.3-15.7.4-23.6.2-20.4.1-40.7.2-61.1 0-2.3-.7-4.9 1.8-6.5.1 29.2.1 58.3.1 87.5 0 1.9.7 4.6-2.5 3.7z"/><path class="st4" d="M2189.7 762.2c-.4-28-.5-56 0-84 .7-.3 1.5-.6 2.2-1 0 28.6.1 57.1.1 85.7-.8-.2-1.5-.5-2.3-.7z"/><path class="st5" d="M2196.3 480.8c4.7-1.5 7 .1 6.7 6-.3 4.3 0 8.8.1 13.1 0 2.1.2 4.1-2.3 4.5-1.6-1.1-4.9.5-4.6-4 .2-6.6.1-13.1.1-19.6z"/><path class="st4" d="M2133.2 1061.4c-.5-2.5 1.2-5.9-2.1-7.9-1.3-.8-.5-1.7.3-2.2 3.4-2.2 6.8-2.3 10.1.2.4.3 1 1.2 1 1.4-3.1 4.7-1 10.1-2 15.1-.4 2.3-2.3 2.1-4 2.1-1.8 0-3.3-.6-3.4-2.9 0-1.9.1-3.7.1-5.8z"/><path class="st5" d="M2068 517.7c-2 0-4-.1-6 0-2.6.1-3.5-1.4-3.4-4.2 0-2.7.6-4.2 3.3-4.2 4.2.1 8.3.1 12.5 0 2.7-.1 3.5 1.4 3.4 4.2-.1 2.5-.4 4.4-3.3 4.2-2.2-.1-4.4 0-6.5 0zM2205.5 517.6c-1.8 0-3.6-.1-5.4 0-2.6.2-4-.7-4.1-4.1 0-3.2 1-4.3 3.8-4.2 3.8.2 7.6.3 11.3.1 2.9-.1 3.7 1.3 3.7 4.3 0 3.3-1.3 4.2-4 3.9-1.7-.1-3.5.1-5.3 0 0 .1 0 .1 0 0zM2168.1 376.4c2.9-.8 4.2.3 4.2 3.9-.2 8.1-.2 16.1 0 24.2.1 3.6-1.1 4.8-4.2 4-.5-10.7-.4-21.4 0-32.1zM2210.3 634.4c2 .4 1.8 2.2 1.8 3.7 0 4.2.1 8.4.1 12.6 0 5.8-.8 6.2-6.2 4.2 0-6.6.1-13.2.1-19.8.6-.3 1.1-.6 1.7-.9.9.1 1.6.1 2.5.2zM2068.6 629.5c-2.3 0-4.7-.1-7 0-2 .1-2.9-1-2.9-3.2s.7-3.5 2.8-3.5c4.5 0 9 0 13.4-.1 2 0 2.9 1 2.9 3.2 0 2.6-1 3.6-3.3 3.5-2-.1-4 0-5.9.1 0-.1 0 0 0 0z"/><path class="st3" d="M1917.5 881.2c.4 3.4.2 6.9.2 10.3 2 .1 4.1.2 6.1.3 3.1.1 4.2-1.5 3.1-4.4-3.3-8.7-4.9-18.1-9.5-26.4-2.2 6.7-.7 13.4.1 20.2z"/><path class="st5" d="M2204.9 629.3h-6.5c-2 0-2.3-1.5-2.3-3.3 0-1.8.3-3.4 2.2-3.4 4.7-.1 9.4-.1 14 0 1.9 0 2.3 1.4 2.3 3.3 0 2.1-.4 3.6-2.7 3.5-2.3-.1-4.6 0-7-.1 0 .1 0 .1 0 0z"/><path class="st3" d="M2097.9 460.9c1.1 1.5.2 3.2.5 4.8h-21.8c4-6.2 5.5-12.9 10-17.8.1 1.4-.2 2.9 1.2 3.6-.4 2.4-1.8 4.2-2.9 6.2-.7 1.4-1.4 4.2.8 4.3 4 .4 8.4 2.1 12.2-1.1z"/><path class="st5" d="M2071.5 480.8c1.7-.9 3.5-.7 5.2-.4 0 2.2.3 4.4.1 6.5-.5 5.8 1.5 11.9-1.2 17.4-1.5 0-3.2 1.1-4.2-1 .2-.3.2-.8 0-1.1v-20.7c.2-.1.3-.3.1-.7zM2076.1 768.1h10.8c1.2 0 2.2.5 2.2 2.1.1 1.6-1 2.1-2.2 2.1h-21.5c-1.3 0-2.7-.3-2.5-2.3.2-2 1.7-1.7 2.9-1.8 3.5-.2 6.9-.1 10.3-.1zM2090.7 653.5c-2.3 3.5-5.9 1.2-8.8 2.2-1.1-4.9-.5-9.8-.4-14.7 2.9 0 6.1-1.7 8.1 2.3.3 3.4-.4 6.9 1.1 10.2z"/><path class="st3" d="M2177.1 429.6c-3.6.8-7.4 1.2-11.2 1-.7-1-1.4-1.9-2-2.9-2.3-4-1.6-5.5 2.9-5.4 9.1.3 9.8.6 10.3 7.3z"/><path class="st5" d="M2105 407.6c-2.8 2-3.4 0-3.5-2.5-.1-8.6-.1-17.2-.1-25.7 0-2.6.9-3.7 3.3-3 .2 10.4.2 20.8.3 31.2zM2191.9 654.4c-1 .3-2 .9-3 1-3.5.4-6.8.6-5.1-5.3.1-.2 0-.4 0-.6.2-8.7.2-8.7 8.1-7.9v12.8z"/><path class="st4" d="M2168.1 376.4c-.4 10.7-.4 21.4 0 32.1-1.1-.3-2.3-.5-3.4-.8-.1-10.5-.2-21-.2-31.4 1.2 0 2.4.1 3.6.1zM2201.5 655.1c-3.6 1.4-4.9-.4-4.8-4.4.2-3.8.2-7.6 0-11.3-.2-4 1.1-5.6 4.7-4.7.1 6.8.1 13.6.1 20.4z"/><path class="st5" d="M2067 634.6v20.7c-1.4-.1-2.9-.2-4.2-.2-.2-1.6-.3-3.3-.5-4.9 0-3.9-.1-7.8-.1-11.6v-1.7c.6-3.7 3-2.2 4.8-2.3zM2101.1 370.2h71.5v1H2101c.1-.3.1-.6.1-1z"/><path class="st4" d="M2075.6 504.5c2.8-5.6.7-11.6 1.2-17.4.2-2.2 0-4.3-.1-6.5 1-1 2.1-1.2 3.2-.3 0 7.9.1 15.9.1 23.7-1.1 3.1-2.9.8-4.4.5z"/><path class="st5" d="M2197.8 772.1h-9.2c-1.2 0-2.8.3-2.9-1.7-.1-1.8 1.1-2.3 2.5-2.3h19.2c1.1 0 2.3.3 2.3 1.8.2 2-1.1 2.3-2.4 2.3-3.1 0-6.3-.1-9.5-.1z"/><path class="st4" d="M2093 486.6c2.4.8 3.6-1.6 5.5-2.4-1.5 5.1-1 10.4-1 15.6 0 1.8.1 3.9-2.3 3.7-2-.2-2-2-2-3.6-.2-4.5-.2-8.9-.2-13.3z"/><path class="st3" d="M2104.2 433.3c-2.3-2.1-6.2-2.4-5.9-7.1-.2-2.3.3-4.2 2.9-3.9 2.3.3 5-1.2 6.7.9 1.4 1.7-.6 3.6-1.4 5.4-.9 1.6-1.6 3.1-2.3 4.7z"/><path class="st4" d="M2172.3 768c-21.4.7-42.8.6-64.1 0 .3-.2.6-.6 1-.6h62.3c.2 0 .4.4.8.6zM2120.5 487.5c2.6 1 2.3-3 4.2-3.1-.9 5.2-.3 10.5-.4 15.7-.1 1.8.2 4-2.1 4.1-2.5.1-2-2.3-2-4 0-4.3.2-8.5.3-12.7zM2105 407.6l-.3-31.3h2.5c0 10.4-.1 20.7-.1 31.1-.6.2-1.4.2-2.1.2zM2128.9 1024.5c9-2.1 18.1-1.7 27.1-.3-9.1 1.7-18.1 1.2-27.1.3zM2199.2 677.2h-7.4c.1-3.9-2.6-9.9 4.5-8.9 5.7.6 2.3 5.7 2.9 8.9zM2196.3 480.8c0 6.5.3 13.1-.1 19.6-.3 4.5 3 2.8 4.6 4-2.8 2.4-4.9.8-7.1-1.2 0-7.4-.1-14.8-.1-22.2.9-.2 1.8-.2 2.7-.2zM2172.3 901.7c-.4-1.9-1-3.8-1.4-5.7 2.7 0 5.4-.2 8.1 0 1.7.1 2.9 1.2 2.9 3.6-.1 2.3-1.6 2.3-3 2.3-2.3 0-4.5-.1-6.6-.2zM2106.9 486.7c1.4-.5 2.8-1 4.2-1.6-1.1 4.9-.5 10-.7 15 0 1.4.2 3.1-1.6 3.3-2.2.2-1.9-1.9-2-3.4.1-4.5.1-8.9.1-13.3z"/><path class="st5" d="M2203.4 662.3c-1.9-.9-6.4 1.7-6.4-1.9 0-3.5 4.4-1.2 6.8-1.6 1.9-.3 4-.1 5.9-.1 1 0 2.3.1 2.3 1.7 0 1.6-1.1 1.8-2.3 1.9h-6.3z"/><path class="st4" d="M2087.8 895.4c-7.2-.2-14.4.6-21.5-1.7h21.6c-.1.6-.1 1.1-.1 1.7zM2186 893.6h21.3v1.2h-21.2c-.1-.4-.1-.8-.1-1.2zM2101.7 1024.1c7.6-1.4 15.2-1.7 22.8.3-7.6 1-15.2 1.5-22.8-.3zM2172.4 1035.2c0-1.8-.1-3.6-.1-5.5 2.8-1 5.6-1.5 8.2.4.5.4.7 2.6.3 3.4-2.2 3.7-5.6 1.2-8.4 1.7z"/><path class="st5" d="M2122.4 460.8c-3-.2-6.7 2.1-7.7-1.3-.6-2.1 1.6-7.9 3.5-7.6 3.1.4 2.9 5.4 4.2 8.9z"/><path class="st4" d="M2206.1 635.1c0 6.6-.1 13.2-.1 19.8-.9 0-1.6.1-2.5.1-.9-6.7 1-13.6-1-20.2l3.6.3z"/><path class="st5" d="M2202.5 634.8c2.1 6.6.2 13.5 1 20.2-.7 0-1.3.1-2 .1v-20.4c.4-.2.7-.2 1 .1z"/><path class="st4" d="M2209.8 498.7c2 0 3.6.7 3.6 3.3.1 2.4-1 3.7-3.2 3.7-2.2-.1-3.2-1.5-3.3-3.8-.2-2.3.9-3.2 2.9-3.2z"/><path class="st5" d="M2159.8 433.4c-1.5-.4-3.7.7-3.2-2 .3-2 .9-5.2 2.7-5.4 2.3-.2 3 3.2 3.5 5.2.7 3.1-2.1 1.2-3 2.2z"/><path class="st7" d="M1974.4 926.3c4.1 2.7 8.2 5.3 13.5 5 3.1-.2 4.7-1.4 4.4-4.7l-17.9-.3z"/><path class="st3" d="M2126.3 463.1c.1.9.3 1.7.3 2.6-5.2.5-10.4.8-15.5-1 5-2.4 10.2-1.4 15.2-1.6z"/><path class="st4" d="M2202.7 456.7c-.3 1.6.8 4.2-1.8 4-2-.2-2.5-2.7-2.5-4.6 0-2 .6-4.5 2.7-4.3 2.4.3 1.1 3.2 1.6 4.9z"/><path class="st5" d="M2114.7 432.4c-2.8 1-4.9 1.2-7 .2.4-2.7 1.1-6.4 3-6.4 2.8-.1 2.2 4.1 4 6.2z"/><path class="st4" d="M2151.6 503.5c-.7-5.8-1.9-11.6.6-17.2.2 5.7 1.4 11.5-.6 17.2zM2029.4 966.1c3.2 0 6.3.1 9.5.1 1.4 0 2.9-.4 2.9-2.2.1-1.8-1.4-2.2-2.8-2.3-3.2-.1-6.3 0-9.5 0 0 1.4-.1 2.9-.1 4.4zM2166.2 501c-1.9-5.4-2.3-10.7.3-15.9 0 5.3.5 10.6-.3 15.9z"/><path class="st5" d="M2070 616.5v-30.1h1.2v30.4c-.3-.1-.7-.2-1.2-.3z"/><path class="st7" d="M1942.5 929.6c4.6.6 10 4.6 12.8-3.1-4.2-.5-8.4-.4-12.5.2l-.3 2.9z"/><path class="st3" d="M1937.6 935.8c0 .1.1.1 0 0 .2-.5.3-1 .4-1.5.1-.4.1-.7.2-1.1.1-.4.2-.7.3-1 .5-1.6 1.4-2.8 4-2.6l.2-2.9c-2.4-1.7-5.3-1.2-6.3.9-1.2 2.4-2.2 6 1.2 8.2z"/><path class="st4" d="M2189.4 677.3c-1 0-2-.1-3-.1.2-2.9-1.6-8.1 1.4-8.1 3.7 0 1.4 5.1 1.6 8.2z"/><path class="st5" d="M2061.6 501.8c.1-1.7 1-2.5 2.4-2.5s2.4.6 2.5 2.3c.1 1.9-1.1 2.3-2.4 2.3-1.3.2-2.5-.2-2.5-2.1z"/><path class="st3" d="M2136.2 465.3c.6-2.9-3.6-7.8.7-8.6 2.9-.4.9 5.4 1.6 8.2.1.2 0 .4.1.6-.7-.1-1.5-.2-2.4-.2z"/><path class="st6" d="M2162.9 353.5c1 2.4 3.6 3.8 2.2 6.2-.9 1.3-3.5 1.5-4.3.1-1.4-2.3.8-3.9 2.1-6.3z"/><path class="st4" d="M2180.7 771.4c-1-3.7-5 0-6.2-3.1 2.3-1.7 4.6-1 6.9-.3 1.1.3 1.9 1.2 1.5 2.6-.4 1.3-1.4 1.2-2.2.8z"/><path class="st5" d="M2068.1 659c2.8 1.8 5.8.5 8.8.8v1.8c-2.7 0-5.4-.7-8 .4-.3 0-.7 0-1-.1-1.6-.5-4.9 1-4.7-1.6.1-2.6 3.1-.9 4.9-1.3z"/><path class="st4" d="M2097.7 896.1c-.4 2.1-.7 4.2 0 6.2-2.8.9-4.1-.2-4-3.5.1-3.3 1.7-3.6 4-2.7z"/><path class="st5" d="M2113.1 354.4c1 1.8 3.4 3 1.9 5.5-.7 1.1-3.1 1.1-3.9 0-1.3-2.3.3-4 2-5.5z"/><path class="st4" d="M1936.3 964.2c.2 3.6 2.8 3.5 5.5 2-.2-1.5-.3-2.9-.4-4.3-2.2-.2-5.3-1.3-5.1 2.3z"/><path class="st7" d="M2015.6 926.6c-.1 1.5.6 3.3 2 2.9 4.4-1.2 9.2-.2 13.2-2.8-5-.1-10.1-.1-15.2-.1z"/><path class="st4" d="M2068.9 662c2.6-1.1 5.3-.4 8-.4-2.6 2.9-5.3 2-8 .4zM2088.7 695.4c-.6-5.7-.5-11.3-.1-17.1 1.4 5.6 1.3 11.3.1 17.1zM2163.6 1024.8c2.1-2.3 4.2-2.2 6.4-.2-2.1 1.5-4.2 1.2-6.4.2zM2096.3 1029.9c-.4 1.4-1 2.8-1.4 4.2-2.1-.3-2-1.9-1.5-3.4.5-1.3 1.6-2.1 2.9-.8zM2088.7 712.3c-.5-2.9-.5-5.8 0-8.7 1.2 3 1.2 5.9 0 8.7z"/><path class="st3" d="M2093 435.6c.1 1.7 0 3.3-2 3.6-.2-1.8.6-2.9 2-3.6z"/><path class="st4" d="M2062.2 650.1c.2 1.6.3 3.3.5 4.9-1.8-1.3-1.2-3.1-.5-4.9z"/><path class="st3" d="M2095.1 431.9c.1 1.5-.7 2.2-1.9 2.4-.4-1.8.7-2.2 1.9-2.4z"/><path class="st4" d="M2159.5 483.9c1.2.4 1.9 1.1 1 2.6-.9-.6-1.1-1.5-1-2.6zM2071.5 480.8c.1.3.1.5-.2.7-.3-.2-.6-.3-.9-.4.4 0 .8-.2 1.1-.3zM2212.8 911.2c.6 1 .6 1.8.1 2.9-.6-1-.7-2-.1-2.9zM2097.3 768.1c-.7.1-1.3.1-2 .2.6-1.4 1.3-1.1 2-.2zM2210.3 634.4c-.8 0-1.6-.1-2.4-.1.8-.8 1.6-.8 2.4.1zM2082.3 916.6c-.4-.1-.9-.2-1.3-.3.5.2.9.2 1.3.3zM2062.2 636.8v1.7c-.7-.6-.7-1.2 0-1.7zM2088.7 762c0-.4.1-.8.1-1.2.1.3.3.6.3 1 0 0-.3.1-.4.2zM2213.2 907.9l-.2.3-.3-.1c0-.3.1-.6.1-1 .2.2.4.4.4.8zM2095 1034.2c.7-.2 1.1.1 1.1 1-.3-.3-.7-.7-1.1-1zM2212.2 524.2c-.3-.5-.4-1-.7-1.5.6.3.9.8.7 1.5zM2071.3 502.3c.2.3.2.8 0 1.1-.1-.3-.3-.5-.3-.9 0 0 .2-.1.3-.2zM2175.3 772c.4-.1.9-.2 1.3-.3-.3.8-.8.9-1.3.3zM2088.3 669.3s0-.1 0 0c.2-.2.3-.2.4-.3-.1.1-.2.2-.4.3zM2206.7 522.8c-.3.4-.6.9-.9 1.4-.1-.9.3-1.3.9-1.4zM2211.9 616.5l.3-1.5c-.1.6-.2 1.1-.3 1.5z"/><path class="st7" d="M1979.1 996c1.3-5.6-3.1-4.6-5.6-4.5-3.3.1-4 2.3-1.9 5.1l7.5-.6z"/><path class="st8" d="M2105.7 933.3c1.3 0 2.5-.1 3.8-.1.8 28.6 1.1 57.2.5 85.8-1.5.6-2.9.4-4.2-.2-.1-28.4-.1-56.9-.1-85.5zM2163.9 1019.8c-1.5-1.8-1.5-4-1.5-6.2v-73.8c0-3.7.3-6.8 4.7-4.9.2 1.4.3 2.8.5 4.2-1.1 2.1-.6 4.3-.6 6.5l-.3 73.7c-.9.2-1.9.3-2.8.5zM2148 934.5l4.2-1.2c.2 27.6.3 55.3.4 82.9 0 1.7-.2 3.2-1.8 4-.9-.3-1.8-.5-2.7-.8 0-28.4 0-56.7-.1-84.9zM2119.8 934.5l4.2-1.2c1.3 6.9.8 14 .8 21.1.1 21.3-.1 42.6-.2 63.9-.5.6-1 1.3-1.5 1.9-2.8 0-2.3-2.3-2.4-4.2-.1-3.2-.1-6.3-.1-9.5 1-18.8.5-37.7.1-56.5 0-.3-.4-.6-.7-.9-.1-5-.1-9.8-.2-14.6z"/><path class="st4" d="M2120 948.9c.3.3.7.6.7.9.3 18.8 1 37.7-.1 56.5-1.3-.9-1.3-2.3-1.3-3.7-.1-17-.2-34-.2-50.9.1-.9.6-1.8.9-2.8zM2166.7 1019.3c.1-24.6.1-49.1.3-73.7 0-2.2-.4-4.4.6-6.5 1 12.2.3 24.5.3 36.7.2 12.5.1 25 0 37.4 0 2.1 1 4.5-1.2 6.1zM2105.7 1018.9c1.4.6 2.8.8 4.2.2-.1 1.8-.9 2.9-2.6 2.7-1.2-.4-2.2-1.2-1.6-2.9zM2148.2 1019.4c.9.3 1.8.5 2.7.8-.4 1.3-1.3 1.9-2.4 1.4-1.1-.5-1.2-1.4-.3-2.2zM2123.1 1020.1c.5-.6 1-1.3 1.5-1.9 1.4 2.4-.1 2.2-1.5 1.9z"/><path class="st8" d="M2105.6 812.2c1.3-.1 2.7-.3 4-.3 1.1 4.6.5 9.3.5 13.9.1 18.5.1 37.2 0 55.7 0 1.8.7 4.5-2 4.8-2.7.2-2.4-2.3-2.4-4.3-.1-23.3-.1-46.5-.1-69.8zM2162.4 886c.1-23 .1-45.8.1-68.8 0-3.4 0-6.3 4.2-5.2.2.3.3.6.3 1 .1.5.3 1.1.3 1.6 0 14.8.1 29.6.1 44.4-1.1 6.6-1 13.2.1 19.8v3.4c-.6 1.4-1.3 2.8-1.9 4.2-1-.3-2.1-.4-3.2-.4zM2148.4 885.9c.1-23 .1-46.1.2-69.1 0-2.6-.9-6.2 3.5-5.7 1.1 2.5.6 5.1.6 7.7.1 20.5.1 41.1.1 61.6-.1 3.2.4 7.2-4.4 5.5zM2120.2 811.8c1.4-.6 2.8-1 4.2 0 .2 23.1.3 46.4.3 69.5 0 2.7.2 5.6-3.6 4.7 0-19.8 0-39.5-.1-59.3 0-2.2.7-4.4-.8-6.4v-8.5z"/><path class="st4" d="M2120.3 820.3c1.5 1.9.8 4.2.8 6.4.1 19.8.1 39.5.1 59.3-2-.3-1.9-2-1.9-3.6 0-19.8.1-39.6.1-59.3-.2-1.2 0-2.1.9-2.8zM2167.7 878.7c-1.1-6.6-1.2-13.2-.1-19.8.7 6.6.6 13.2.1 19.8zM2165.8 886.2c.6-1.4 1.3-2.8 1.9-4.2 0 1.9 1.9 4.7-1.9 4.2zM2167.4 814.5c-.1-.5-.3-1.1-.3-1.6.5.4.7.9.3 1.6z"/><path class="st8" d="M2105.6 696.9c1.2-1 2.5-1.4 3.9-.3.3 16.2.5 32.3.8 48.5-1.1 3.2-1.1 6.5 0 9.7-.4 2.1.7 5.7-2.6 5.5-2.9-.3-2.1-3.7-2.1-6v-57.4zM2163.6 760.7c-1.4-1.9-1.1-4.2-1.1-6.3 0-17.5.1-34.9 0-52.4 0-3.4 0-6.2 4.2-5.3 1.1 3 .7 6.2.9 9.4-1 2.9-1 5.9.1 8.8v2.1c-1.1 11.4-1 22.9.1 34.3v3.3c-1.2 1.8-.5 4-1 6-1.2 0-2.2.1-3.2.1zM2148.1 759.7c.2-19.3.3-38.6.4-57.9 0-2.5-.7-5.6 3.1-5.4.8 1.8 1 3.7 1 5.8v53c0 2.5.6 5.6-3.2 5.4-.4-.2-.8-.4-1.3-.9.1.2 0 0 0 0zM2120.8 696.5h3.5c.1 20 .3 40 .3 60 0 1.6.4 3.6-1.5 4-2.1.5-2.2-1.5-2.4-3 .8-7.9.9-15.9 0-23.7v-9.1c.7-8.8 1-17.5-.2-26.2 0-.6.1-1.3.3-2z"/><path class="st4" d="M2120.5 698.6c1.1 8.8 1 17.5.2 26.2-1.9-1-1.6-3-1.5-4.7.7-7.2-1.8-14.6 1.3-21.5zM2120.6 733.8c.9 7.9.8 15.9 0 23.7-1.4-.6-1.7-2-1.6-3.4.9-6.8-1.6-13.8 1.6-20.3zM2167.6 751.2c-1-11.4-1.2-22.9-.1-34.3.8 11.5.8 22.9.1 34.3zM2110.2 754.8c-1.1-3.2-1.1-6.5 0-9.7 1.5 3.2 1.5 6.4 0 9.7zM2167.6 714.9c-1.1-2.9-1-5.9-.1-8.8.8 2.9.7 5.8.1 8.8zM2166.5 760.5c.6-1.9-.2-4.2 1-6 .3 2.2 1.5 4.5-1 6zM2148.2 759.9c.4.3.9.5 1.3.9-.6.1-1.1-.2-1.3-.9z"/><path class="st8" d="M2155.5 463.2c-1.3 0-2.5-.1-3.8 0-3.1.3-3.4-1.4-2.2-4 .5-1.1.8-2.3 1.4-3.3 2-2.9 1.7-7.6 5.5-9 1-.3 5.9 11.9 6 13.9 0 1.6-.8 2.1-2 2.1h-4.9v.3zm0-13.5c-1 4.8-4.6 7.3-2.7 10.7.8 1.5 5.2 1.5 5.8 0 1.2-3.1-1-6.2-3.1-10.7zM2181.5 446.3c1 1.8 2.1 3.2 2.7 4.9 1.5 3.6 5.3 8.6 3.6 10.7-2.4 3.1-7.7.6-11.8 1.1-1.7.3-2.2-1.1-1.4-2.8 2.2-4.5 3.6-9.6 6.9-13.9zm-.1 4.9c-1.6 3-4.6 5.6-3.3 9.1.3 1 5.3 1.3 5.9.2 2.2-3.6-1.8-6-2.6-9.3zM2097.9 460.9c-3.9 3.2-8.2 1.4-12.4 1.2-2.2-.1-1.5-3-.8-4.3 1.1-2 2.5-3.8 2.9-6.2 1.5-1.1 1.3-4.4 3.3-4.2 2.2.3 2.3 3.2 3.1 5 1.4 2.9 2.7 5.7 3.9 8.5zm-11.3-.4c2.9.5 6.4 1.6 7-.4 1-2.9-1.1-6.1-3.3-8.9-1.3 3.2-2.4 5.9-3.7 9.3zM2137 625.2c-15.3 0-30.8-.1-46.1.1-4.1.1-5.6-1-5.6-6 .2-33.2.2-66.3.1-99.5 0-4.6 1-6.3 5.4-6.2 30.9.2 61.8.2 92.7.1 3.6 0 5.1 1.1 5.1 5.5-.2 33.8-.1 67.5 0 101.3 0 3.6-1 4.9-4.3 4.9-15.9-.4-31.6-.3-47.3-.2 0-.1 0-.1 0 0zm-42.4-37.9.2.3c.3.3.7.5 1 .8-.2.3-.2.8-.1 1.1l-.1-.2c-2.4-.3-1.9 1.2-1.4 2.8 1.1 2.1 4.8 2.5 3.6 6.3 0 .1 1.1.5 1.8.9 2.9 5.6 5.3 11.7 12 12.9 2.3-.3 2.8 2.2 4.2 3.1 4.4 4.4 10 4 15.3 4.9 1.9.3 4.3 1.2 4.3-2.3 0-2.8-1-5.5-4.3-3.9-2.2 1-2.9-.1-3.2-2.2 2.3.3 4.7 1.1 4.5-3 3 .8 3.6-2.1 3.4-3.9-.2-2.1-2.1-2.3-3.8-1.5-3.3-.7-6.8-.6-9.8-2.8-1.9-3.5-4.6-1.8-7-1.3 2.8-5.1-2.3-6.4-3.7-9.4-2.1-2-.9-7.5-5.7-6.4 1-3.2 1.9-6.5.3-9.8 1.9.2 2.6-.8 1.2-2.3-1.6-1.7-.8-3.7-1.1-5.6.9-2.8 1.6-5.6 2.6-8.4.7-2.1.1-2.9-1.6-3.3 1.9-1.8.1-3.6 0-5.5 5.3 3.1 8 1.5 10.7-6.5 1.3-1 2.5-1.9 3.8-2.8 3.9 2.3 7.7-4.5 12-.2-19 8.6-27.2 22.1-23.9 38.8 2.6 13.1 15.1 23.1 27.7 22.9 12.7-.2 24.5-12.8 25.8-26.6h-13.5c-6.6-1.6-13.7 4.2-20.1-1.6-.7-.7-2.7.4-4.1.7-2.3-1.6-3.6-4.9-.4-5.3 4.3-.5 8-2.2 11.7-4 1.7 1 3.4 2.2 5.2 2.7 3.2.9 6.6 2.9 9.6-.6 3.7-.2 7.5-.4 11.2-.6 2.1 1.6 1.9-1.8 3.3-1.8 3.3 2.9 7 1.8 10.7 1.3.8 1.6 2 1.6 3.2.9 1.2.3 2.2 2.5 3.7.9 1-1.1.7-2.7.3-3.9-1.5-5.2-2.8-10.7-6.2-14.9-.3-.9-.6-1.6-1.5-1.8-1.6-6.8-6.5-10.3-10.8-14.6-4.9-4.8-4.8-4.9-6.4 2.4-.1.5-.7.9-1 1.3-.7 0-1.4 0-2.1-.1-.3-.9-.4-1.7-.7-2.6 2.5-.9 1.7-2.9 1.6-4.9 1-.2 2.6-.1 2-1.7-1.1-2.8-3-1.8-4.8-.6-3.4-4.2-8.1-3.7-12.5-5-3.5-1-3.7.9-2.7 3.8-2.2 4.9-1 9.8.2 14.6h-2.9c-.4-2.8-.9-5.5-1.3-8.2-.3-.5-.6-1-.9-1.6-.1-.9-.1-1.7-.2-2.6 2-5.3 1.1-6.8-3.6-5.8-6.7 1.6-13.7 2.7-19 8.3-3.5 1-4.8 4.8-7.3 6.9-1.4.6-3.4.9-1.2 3.1-3.6 2.5-5.5 6.5-7.7 10.2-2.9 5-4.6 10.4-4.8 16.4-.8 1.6-.3 2.6 1 3.3-.1 1.2-.2 2.5-.3 3.7-2.1 4.5.4 8.6.9 12.8.1 2 1.3 2.2 2.7 2zm72.1 33.9H2174.5c2.3.2 4.7.3 6.9.4 2 0 3.7-.8 3.7-3.3.1-8.9 0-17.8 0-28.1-2.8 3.7-5.4 5.5-5.3 9.1-1.7 1.8-2.3 5.2-5.5 4.9 1-6.4-2.4-6.8-6.6-6.2.3-1.5-.7-2.4-1.2-3.6 3.6 0 6.2-1 6.9-5.7.3-2.3 2.9-1.4 4.9-1-.3 1-.3 1.8-.7 2.3-1 1.3-2.2 2.8-.1 3.7 2 .9 1.9-1.6 2.3-2.9.5-1.6.7-3.5 1-5.2 1.4-3.5 2.3-7 1.8-11.5-.8 1.6-.2 3.6-1.8 3.9-.8-3.4-2-5.8-5.6-3.6-9.9-.6-10.3-.3-9.5 8.1-2.8 1.6-2.8 5.3-4.3 7.7-2.1 3.2-6.2 4.6-6.6 9.4-.9-.3-1.5 0-1.9.9-3.7-1.2-6.2 2.3-9.5 2.8-4.8.6-5.2 3.3-2.4 7.3-1.6.2-2.4 1.3-2.4 3.1-1.2 8.2-1 8.5 6.2 7 .5-.1 1.1-.2 1.6-.4 4.3-2.3 10.3-.3 13.3-6.2 3.3-.8 6.4-1.7 7.3-6.1 3.4 1 4.2-4.9 7.6-3.8 1.1 2-.8 3.2-1 4.9-.4.4-.8.9-1.2 1.4-3.5 3-8 4.4-11 8.2-1.3.3-3.5-.1-3.3 1.8.2 1.7 2.1 1.1 3.4.9 1.5 0 2.9 0 4.5-.1 0-.1.4-.1.7-.1zm-75.8-.1c1.1 0 2.2.1 3.3.1 1.9.6 3.7.3 5.5-.3h16.5c-6.2-2-10.6-7.3-15.7-11.3-1.4-2.9-2.9-5.5-6.3-5.5 0-3.8-2-6.5-4.6-10v26.1c.2.7.5 1.1 1.3.9zm83.4-102.8h-18.2c6.1 3.1 11 7.7 16.1 11.9.8.9 1.5 1.6 2.3 2.5 3.4 5.7 7.3 11 10 17.2.4-9.2.3-17.9.5-26.8 0-3.2-.8-5-3.9-4.7-2.3-.7-4.6-.6-6.8-.1zm-76.9 15.6c2.2 0 2.3-2.3 3.3-3.6 5.6-3.5 10.4-8.3 16.4-11.6-8.1-.6-16.2-.6-24.2-.6-2 0-3.6.3-3.6 3.1v27.5l.9.3c2.3-5.2 4.7-10.1 7.2-15.1zM2129.1 333.3c1.6-2.6 2.6-5.5 3.4-8.5 1-3.5 3.1-3.6 4.5-1 1.6 2.8 3.7 5.5 3.2 9.2-3.6.1-7.4.2-11.1.3z"/><path class="st4" d="M2131.8 362.8c-2.1-.7-4.7.9-5-2.7-.2-2.2 4.5-11 5.5-10.4 3.5 1.9 4.8 6.4 5.2 9.8.6 3.8-3.9 2.1-5.7 3.3zm-1.4-3.2c1.5.4 3.5 1.3 4.2-.5.5-1.4-.7-3.3-2.6-4.3-.7 1.5-1.7 2.8-1.6 4.8z"/><path class="st8" d="M2142.5 342.9c-.3-2.8.6-5.1 1.7-7.5 2.3 1.2 2.6 3.9 3.7 5.8 1.1 2 3.2 4.3 2.2 6.4-1.1 2.2-4 .9-6.1 1-1.5.1-3.8.6-4.2-1.4-.4-1.9.8-3.8 2.9-4.3-1.1 2.5-1 4.2 2.1 4.2 1.4 0 2.7-.5 2.3-2.3-.8-2.7-2.4-3.6-4.6-1.9z"/><path class="st3" d="M2142.5 342.9c2.3-1.7 3.7-.8 4.4 1.8.5 1.8-.9 2.3-2.3 2.3-2.9.1-3.2-1.7-2.1-4.1.1-.2 0 0 0 0z"/><path class="st8" d="M2090.7 653.5c-1.6-3.3-.9-6.8-1-10.3.7-2.4-1.1-6.1 2.3-7.1 3.3-1 5.2 1.6 6.5 4.6-.2 4.4-.3 8.8-.5 13.3-2.5-.2-4.9-.4-7.3-.5zM2165.1 653.9c-2.2 0-4.3-.1-6.5-.1-.2-1.6-.3-3.1-.6-4.6.2-.8-.2-1.2-.8-1.5-.9-2.8.5-5.4.4-8.1.6-2.3 1.5-4.9 4.1-4.6 2.9.3 3.8 3 4.4 5.9-.2 4.4-.6 8.7-1 13zM2140.2 641c.5-2.6 1.2-5.4 4.1-5.7 2.6-.3 3.7 2 4.4 4.3.3 4.8.3 9.6-1 14.3h-6.4c-.3-4.3-.7-8.6-1.1-12.9z"/><path class="st5" d="M2124.5 652.8c-3.5 4-7.6 3.9-10-.1.3-4.3.4-8.8.7-13.1 2.9-.3 5.7-1 8.4 1 .3 4.1.6 8.1.9 12.2z"/><path class="st8" d="M2124.5 652.8c-.3-4.1-.6-8.1-1-12.2 1.2-2 1.1-5.4 4.2-5.2 3 .2 4.2 2.6 4.7 5.5-.9 4.3-.1 8.8-1.6 13.1-2.1 0-4.4.6-6.3-1.2z"/><path class="st5" d="M2147.7 653.9c1.3-4.7 1.3-9.4 1-14.3 3-.7 6-.3 9 0 0 2.7-1.3 5.3-.4 8.1.3.5.5 1 .8 1.5.2 1.6.3 3.1.6 4.6-3.7 2.7-7.3 2.5-11 .1zM2165.1 653.9c.3-4.3.8-8.7 1.1-13 2.9-1.1 5.8-.4 8.7-.2.2 4 .5 7.9-.3 11.9-2.6 5.5-6.1 3.1-9.5 1.3z"/><path class="st8" d="M2115.3 639.7c-.3 4.3-.4 8.8-.7 13.1-2.4 1.7-4.9 1.7-7.3.1-.3-3.9-.4-7.9-.7-11.8.7-2.2.8-4.9 3.5-5.3 2.7-.6 4.1 1.3 5.2 3.9z"/><path class="st5" d="M2130.9 654c1.5-4.2.7-8.8 1.6-13.1 2.6-.5 5.1-.5 7.7.1.3 4.3.7 8.6 1.1 12.9-3.4 2.7-6.9 2.1-10.4.1zM2106.5 641c.3 3.9.4 7.9.7 11.8-2.8 4.1-6 3.7-9.4 1.1.2-4.4.3-8.8.5-13.3 2.8.2 5.5.3 8.2.4z"/><path class="st8" d="M2174.7 652.6c.8-3.9.3-7.9.3-11.9.4-2.9 1.5-5.5 4.4-4.6 2.5.8 4.2 3 3 6.5-.4 1.2-.1 2.8-.2 4.2-.1 8-.8 8.4-7.5 5.8zM2167.2 1047.5c0 .7.1 1.3.1 2-.6.6-.6 1.2 0 1.7v6.8c-.8 1-.8 1.9 0 2.9v1.9c-.3.9-.5 1.7-.8 2.6-2.9 1-4.5.3-4.4-3.6.2-4.9.2-9.6.2-14.5 1.8.1 3.4.1 4.9.2zM2109.6 1047.3c.1 4.6.3 9.3.3 13.9 0 1.9.5 4.5-2.2 4.6-3.3.1-2.2-3-2.3-4.9-.2-4 0-8.1 0-12 1.4-.6 2.8-1.1 4.2-1.6z"/><path class="st4" d="M2167.4 1060.9c-.8-1-.8-1.9 0-2.9.4 1 .4 1.9 0 2.9zM2166.6 1065.4c.3-.9.5-1.7.8-2.6.5 1.2.5 2.2-.8 2.6zM2167.4 1051.2c-.6-.6-.6-1.2 0-1.7v1.7z"/><path class="st5" d="M2155.5 449.7c2.2 4.4 4.3 7.5 3.1 10.7-.6 1.6-5 1.5-5.8 0-1.9-3.4 1.7-5.9 2.7-10.7zM2181.4 451.2c.8 3.3 4.9 5.7 2.6 9.3-.7 1-5.5.7-5.9-.2-1.3-3.5 1.6-6.1 3.3-9.1zM2086.6 460.5c1.4-3.4 2.4-6.1 3.7-9.3 2.2 2.9 4.2 6 3.3 8.9-.6 1.9-4.2.8-7 .4z"/><path class="st7" d="M2155.2 532.6c.3.9.4 1.7.7 2.6-1.4 1.4-2.8 2.8-2.3 5.3-1.8 2.3-4.3-.3-6.5.9.8 2.2 2.6 2.3 3.8 3.4 1.6 1.4 2.2 3.4.5 4.5-2.9 1.8-4.5 5.1-6.8 6.8-3 2.3-3.7 4.9-4.2 8.2-1.3-.6-2.5-1.6-3.9-.2-3.7 1.8-7.4 3.6-11.7 4-3.2.3-1.9 3.6.4 5.3.2 3.6 2.2 5.6 4.9 7.2 7.5 4.2 14.1 2.2 19.3-6.2h13.5c-1.3 13.8-13.1 26.3-25.8 26.6-12.6.2-25.1-9.9-27.7-22.9-3.3-16.7 4.9-30.2 23.9-38.8-4.2-4.3-8.1 2.4-12 .2.9-2.5-1.7-4-1.9-6.2 2-1.5 5-.7 5.4-4.2v-.1c2.9 1.6 6-.2 8.9-.1.3.5.6 1 .9 1.6-1.6-.7-3 .6-2.5 1.6 1 2.3-.1 6.3 3.7 6.6h2.9c1.7.8 3.6.8 2.7-2-2.4-7 1.7-6.6 5.5-6.8 3.2 0 5.6 1.8 8.3 2.7z"/><path class="st5" d="M2097.4 533.9c-2.4 5-4.9 10-7.3 15l-.9-.3v-27.5c0-2.9 1.6-3.1 3.6-3.1 8 0 16 0 24.2.6-5.9 3.3-10.7 8.1-16.4 11.6-1.3-1.7-2.3-3.4-1-5.9 1.9-3.8-.3-4.1-3.1-4.3-3.5-.3-1.8 2.9-2.6 4.2-2.5 4.3-.8 8.7 3.5 9.7z"/><path class="st3" d="M2180.8 585.7c-.3 1.7-.5 3.6-1 5.2-.4 1.2-.3 3.7-2.3 2.9-2.1-.9-.9-2.4.1-3.7.4-.5.4-1.4.7-2.3-2-.3-4.5-1.2-4.9 1-.8 4.8-3.4 5.7-6.9 5.7-2.6-.1-3.6-2.5-5.2-4.2 1.6-2.4 1.6-6.1 4.3-7.7 9.2 2.3 9.2 2.3 9.5-8.1 3.6-2.2 4.9.3 5.6 3.6.1 2.5.1 5.1.1 7.6zM2125 529.2c-.3 3.5-3.4 2.7-5.4 4.2.1 2.2 2.7 3.6 1.9 6.2-1.3 1-2.5 1.8-3.8 2.8-4.7.3-2.2-5.1-4.4-6.9-2.1 2.8-4.2 5.5-6.2 8.2-1.1 1.6-2.1 3.4-.2 5.2.2 1.8 1.9 3.6 0 5.5-2.2.3-3.6-3.3-6-1.7-.4-.6-.9-1.3-1.2-1.9-.1-.6-.1-1.3-.2-1.9 3.1.3 5.5 0 4.4-4.7-.3-1.6-.1-3.2-.1-4.8 1.5-1.1 1.2-2.3 0-3.4 2.5-2.2 3.9-5.9 7.3-6.9 1 2.2 2.3 2.7 4.6 2.8 3.5 0 5.9-3.8 9.3-2.7z"/><path class="st4" d="M2179.9 599.5c0-3.6 2.6-5.4 5.3-9.1 0 10.3.1 19.1 0 28.1 0 2.5-1.7 3.4-3.7 3.3-2.3-.1-4.7-.3-6.9-.4-.5-3.6-3-6.8-2.3-10.9.4-.4.8-.9 1.2-1.4 10.1 1.8 11.1 1 10.1-8-.5-3.7-2.1-2.3-3.7-1.6zM2105.7 583.6c4.9-1.1 3.6 4.4 5.7 6.4-.5 2.3-2 3.3-3.9 3.4-2 .2-2 1.9-2.3 3.4-1.9.9-3.7 1.6-5.6 2.5-.6-.3-1.8-.8-1.8-.9 1.1-3.8-2.4-4.2-3.6-6.3 1-.5 1.1-1.7 1.4-2.8l.1.2c.3-.3.6-.4.9-.7-.3-.2-.5-.3-.8-.4-.3-.3-.7-.5-1-.8 3.5.3 3.4-3.3 4.8-5.3 1.3 5.3 4.4-1 6.1 1.3z"/><path class="st6" d="M2149.6 574.3c-5.2 8.3-11.9 10.4-19.3 6.2-2.7-1.6-4.7-3.6-4.9-7.2 1.4-.3 3.4-1.3 4.1-.7 6.4 5.9 13.5.1 20.1 1.7z"/><path class="st7" d="M2162.6 565.6c-3.7.2-7.5.4-11.2.6-1.9-1.5-4.5.2-6.4-1.6 2.4-4.9 8.3-6.3 9.4-12.6.5-2.9 2.3-1.6 3.5-.1 2.5 3.3 3.5 7.4 4.6 11.3.1.7.1 1.5.1 2.4z"/><path class="st5" d="M2181 518.4c3.1-.3 4 1.5 3.9 4.7-.1 8.8 0 17.6-.5 26.8-2.7-6.2-6.7-11.5-10-17.2 2.6 0 5.7.9 6.9-2.7 1.2-3.4 1.2-6.5-2.1-9.4-2.2-2.1 1.7-1 1.8-2.2z"/><path class="st6" d="M2159.5 614.1c-3 5.9-9 3.8-13.3 6.2-.4.3-1 .3-1.6.4-7.1 1.5-7.5 1.2-6.2-7 1.9.3 3.9.3 5.6 1 3.1 1.3 3.2-.7 3.2-3.1 2.5-2.1 5.4-1.9 8.2-1.4 1.4 1.3 2.7 2.6 4.1 3.9zM2125 529.2c-3.5-1-5.8 2.7-9.3 2.5-2.3-.1-3.6-.6-4.6-2.8 5.3-5.6 12.2-6.8 19-8.3 4.9-1.1 5.6.4 3.6 5.8-2.9.8-6.7-1.9-8.7 2.8zM2158 535.3c.3-.4 1-.8 1-1.3 1.6-7.3 1.6-7.2 6.4-2.4 4.3 4.2 9.3 7.8 10.8 14.6-1.1.2-1.8 3-3.6 0-1.5-2.5-3.7-5.7-7.5-4.4-3.1-.7-3.1-6.3-7.1-5.6.1-.4.1-.7 0-.9z"/><path class="st7" d="M2176.5 565.1c-3.6.4-7.4 1.6-10.7-1.3.3-1 .2-1.6-.7-2.1.2-2.5-3.6-6.3 1.8-7.2 2.7-4.2 4.9-3.4 6.9.7l.3.4.4-.1c-.9 1.9.2 3.5.5 5.2-.1 1 .1 1.8.9 2.4.4.7.5 1.3.6 2zM2155.5 610.2c-2.9-.6-5.7-.7-8.2 1.4-2.3.5-4.4.9-6.3-1-2.8-3.9-2.3-6.6 2.4-7.3 3.3-.4 5.9-4.1 9.5-2.8 1 3.1 3.8 5.7 2.6 9.7z"/><path class="st6" d="M2127.8 612c.3 2.1 1 3.2 3.2 2.2 3.4-1.6 4.2 1.1 4.3 3.9 0 3.5-2.3 2.6-4.3 2.3-5.3-.9-10.9-.4-15.3-4.9 2.9-.4 4.9-2.1 5.8-5.2 2.2.1 4.6-.6 6.3 1.7z"/><path class="st4" d="M2106 565.9c.3 1.9-.5 3.9 1.1 5.6 1.5 1.5.7 2.4-1.2 2.3-3.3.3-7.9-1.5-7.2 5.5-.8 1.5-1.8 1.6-1.8-.3 0-1.8 0-2.8-1.9-2.4-1.4-1.4-2.8-2.7-4.2-4.1.1-1.2.2-2.5.3-3.7.6-.7.7-1.6.5-2.5h2.5l.3.2.3-.2h2.6c.3 0 .6.1.8.3.3 1.6-1 4.3 1.6 4.2 1.9-.1 1.7-2.7 1.6-4.5 1.7-.9 3.2-1.1 4.7-.4z"/><path class="st7" d="M2106 565.9c-1.6-.7-3-.6-4.4.3-1 .1-2.1.3-3.1.3-.3-.3-.5-.3-.8-.3-.3-4.1 1.6-7.7 2.1-11.7.9-.3 1.2-1.1 1.2-2.1 2.5-1.6 3.8 2 6 1.7 1.7.3 2.4 1.2 1.6 3.3-1 2.9-1.7 5.8-2.6 8.5z"/><path class="st5" d="M2172.2 530.1c-5.2-4.2-10.1-8.7-16.1-11.9h18.2c-.7 4.1-1.4 8-2.1 11.9z"/><path class="st6" d="M2099.8 554.7c-.4 4-2.3 7.5-2.1 11.7h-2.6c-.3-.5-.5-.5-.8 0h-2.5c-.5-.3-1-.5-1.5-.7.1-6 1.9-11.3 4.8-16.4 1.6.5 3.3 2.7 4.6-.5.1.6.1 1.3.2 1.9.1 1.3-1.5 2.7-.1 4z"/><path class="st7" d="M2106.9 548.8c-2-1.8-1-3.6.2-5.2 2-2.8 4.1-5.5 6.2-8.2 2.3 1.7-.3 7.2 4.4 6.9-2.8 7.9-5.5 9.6-10.8 6.5z"/><path class="st3" d="m2174.7 555.4-.4.1-.3-.4c1.7-2.1 1-5.8 3.7-7.2 3.4 4.2 4.6 9.7 6.2 14.9.3 1.2.7 2.9-.3 3.9-1.6 1.6-2.5-.5-3.7-.9-.4-2.3-1.7-2.9-3.6-2.8-.8-.6-1-1.5-.9-2.4 3-2.1 1.7-3.7-.7-5.2z"/><path class="st4" d="M2094.4 604c3.4 0 4.9 2.7 6.3 5.5 1.4 3.9 1.7 7.8-1 11.3-1.8.7-3.7 1-5.5.3-.1-2.6.7-4.9 2.6-6.8-5.4-1-5.5-1.2-2.4-5.4 1.4-1.8-.2-3.2 0-4.9z"/><path class="st5" d="M2094.4 604c-.1 1.6 1.4 3-.1 4.9-3.1 4.2-2.9 4.3 2.4 5.4-1.9 1.9-2.7 4.2-2.6 6.8-1.1 0-2.2-.1-3.3-.1-.3-.3-.8-.7-1.1-1v-26.1c2.6 3.7 4.6 6.3 4.7 10.1z"/><path class="st6" d="M2155.2 532.6c-2.7-.9-5.1-2.7-8-2.4 0-.8 0-1.6.1-2.3l1.5-.3c-.1-.3-.2-.4-.3-.7-.4.3-.8.6-1.2 1-1.5-.3-3.4-.8-3.6-2.1-.7-4.9-2.8-3.1-4.9-1.6-1-2.9-.8-4.9 2.7-3.8 4.2 1.3 9.1.9 12.5 5 .1.4.2.9.3 1.4.3.3.6.7 1 1 .5 0 1.1-.1 1.6-.1-.1 1.9.7 4-1.7 4.9zM2099.6 599.4c1.9-.9 3.7-1.6 5.6-2.5h-.2c-.1 2.2 1 2.9 2.7 2.4 1.5.4 2.2 1.7 2.9 3-1.1 1-1.7 2.2-.2 3.3 1.2 1 2.3 2 2.2 3.8-.5.9-1.4 1.6-1.1 2.9-6.6-1.2-9.1-7.3-11.9-12.9z"/><path class="st7" d="M2161.3 590.2c1.6 1.7 2.6 4.2 5.2 4.2.6 1.1 1.5 2.1 1.2 3.6-2.5.5-4 2.6-5.6 4.4-.3.1-.5.3-.8.5-1.1.3-1.9 1-2.4 2.1-1.5-1.7-2.1-4.3-4.2-5.5.4-4.7 4.6-6.1 6.6-9.3z"/><path class="st4" d="M2154.8 599.5c2.1 1.2 2.7 3.8 4.2 5.5 1 .3 2.2 1.2 2.8.9 1.3-.9-.2-1.9-.3-2.9.3-.2.5-.3.8-.5 2.5.9 1.7 5.1 4.7 5.5-.9 4.3-4 5.3-7.3 6.1-1.4-1.3-2.7-2.6-4.1-3.9 1.3-4-1.6-6.6-2.6-9.7.3-1 .9-1.2 1.8-1z"/><path class="st7" d="M2175.3 574.4c-.3 10.4-.3 10.4-9.5 8.1-.8-8.3-.4-8.7 9.5-8.1zM2127.8 612c-1.7-2.3-4.2-1.6-6.4-1.8-1.1-1.5-.2-3.2-.3-4.9V603c.3-.8.7-1.6 1-2.3 2.9 2.2 6.5 2.1 9.8 2.8.1 1.8.3 3.6.3 5.5.4 4.1-2.1 3.4-4.4 3z"/><path class="st4" d="M2172.2 530.1c.7-4 1.4-7.9 2.1-11.9 2.3-.6 4.5-.7 6.8.1-.2 1.3-4 .2-1.7 2.3 3.3 2.9 3.2 6 2.1 9.4-1.2 3.6-4.3 2.7-6.9 2.7-.9-.9-1.6-1.8-2.4-2.6zm6.4-1c-3.8-2.2-2.3-4.1.3-5.9-2.5-.4-4.4-1-4.6 2.1 0 2.7 1.2 4.1 4.3 3.8z"/><path class="st5" d="M2099.7 620.9c2.7-3.6 2.3-7.4 1-11.3 5.1 4.1 9.4 9.3 15.7 11.3h-16.7z"/><path class="st7" d="M2110.7 602.3c-.8-1.2-1.5-2.6-2.9-3-.3-1.6-1-2.9-2.7-2.4h.2c.3-1.6.4-3.3 2.3-3.4 2-.2 3.4-1.2 3.9-3.4 1.4 3 6.5 4.3 3.6 9.4-1.1-.3-1.3 1-1.8 1.6-.9.3-1.4 1.6-2.6 1.2z"/><path class="st6" d="M2166.8 608c-2.9-.4-2.2-4.7-4.7-5.5 1.6-1.9 3.1-3.9 5.6-4.4 4.2-.5 7.6-.2 6.6 6.2l.1-.1c-3.5-1.1-4.2 4.8-7.6 3.8z"/><path class="st5" d="M2172.2 610.4c-.7 4 1.7 7.2 2.3 10.9h-3.4c-.7-1.1-1.4-1.1-2.1 0h-2.3c-.3-.7-.7-.7-1 0-1.5 0-2.9 0-4.5.1 0-.9-.1-1.7-.1-2.6 3.1-3.9 7.6-5.3 11.1-8.4z"/><path class="st4" d="M2138.7 524.2c2.2-1.6 4.2-3.3 4.9 1.6.2 1.3 2.2 1.8 3.6 2.1 0 .8 0 1.6-.1 2.3-3.8.2-8.1-.3-5.5 6.8 1 2.7-1 2.8-2.7 2-1.2-5-2.3-9.9-.2-14.8zM2097.4 533.9c-4.2-1-6-5.5-3.6-9.5.9-1.4-.9-4.6 2.6-4.2 2.8.3 4.9.5 3.1 4.3-1.2 2.5-.3 4.2 1 5.9-.8 1.1-1 3.5-3.1 3.5z"/><path class="st7" d="M2098.8 579.3c-.7-6.9 3.9-5.1 7.2-5.5 1.6 3.3.9 6.6-.3 9.8-1.8-2.3-4.9 4-6.2-1.2-.3-1.1-.4-2.1-.7-3.1z"/><path class="st4" d="M2177.7 547.9c-2.8 1.4-2 5.1-3.7 7.2-2-4.1-4.2-4.9-6.9-.7-.4-1-.9-2.1-1.3-3.1 4.2-3.6 3-6.8-.6-9.7 3.7-1.2 6.1 2 7.5 4.4 1.8 3 2.4.3 3.6 0 .8.3 1.3 1 1.4 1.9z"/><path class="st5" d="M2179.9 599.5c1.6-.6 3.2-2.1 3.6 1.6 1 8.9.1 9.8-10.1 8 .3-1.6 2.1-2.9 1-4.9l-.1.1c3.3.3 3.9-3.1 5.6-4.8z"/><path class="st3" d="M2121.1 605.4c.3 1.6-.8 3.3.3 4.9-1 3.1-2.9 4.9-5.8 5.2-1.5-1-2-3.5-4.2-3.1-.3-1.2.6-2 1.1-2.9 2.3-.3 5.8.2 2.3-4.5 2.5.1 4.4.3 6.3.4zm-4 6.4c-.2.1-.3.1-.4.2 0 .2.1.3.1.4.2-.1.3-.1.4-.2 0 0-.1-.2-.1-.4z"/><path class="st4" d="M2099.5 548.8c-1.3 3.1-2.9 1-4.6.5 2.3-3.7 4.2-7.7 7.7-10.2l1.2.3c0 1.6-.3 3.3.1 4.8 1 4.6-1.3 4.9-4.4 4.6z"/><path class="st3" d="M2098.8 579.3c.3 1 .4 2.1.7 3.1-1.4 2-1.3 5.6-4.8 5.3l-.2-.3c.3-3.6-3.8-7.4.5-10.7 1.9-.3 1.8.6 1.9 2.4.1 1.8 1.1 1.6 1.9.2z"/><path class="st6" d="M2095.1 576.7c-4.3 3.3-.3 7.1-.5 10.7-1.3.2-2.5-.1-2.8-1.9-.4-4.2-2.9-8.4-.9-12.8 1.4 1.3 2.8 2.6 4.2 4z"/><path class="st4" d="M2145.1 564.5c1.9 1.8 4.4.2 6.4 1.6-3 3.6-6.4 1.5-9.6.6-1.8-.5-3.5-1.7-5.2-2.7 1.4-1.4 2.6-.4 3.9.2 1.4.2 2.9.3 4.5.3z"/><path class="st3" d="M2113.4 601c.5-.6.7-1.8 1.8-1.6 2.5-.5 5.1-2.2 7 1.3-.3.8-.7 1.6-1 2.3-2.6-.6-5.9 1.5-7.8-2z"/><path class="st4" d="M2140.9 610.5c1.9 1.9 4.2 1.6 6.3 1 0 2.4 0 4.4-3.2 3.1-1.7-.7-3.7-.7-5.6-1 0-1.8.8-2.9 2.5-3.1zM2132.3 608.9c-.1-1.8-.3-3.6-.3-5.5 1.7-.8 3.6-.6 3.8 1.5.1 1.9-.4 4.8-3.5 4zM2125 529.1c2.1-4.6 5.8-1.9 8.8-2.7.1.9.1 1.7.2 2.6-3.1-.1-6 1.7-9 .1zM2136.1 538.8c-3.8-.3-2.7-4.3-3.7-6.6-.5-1.1 1-2.4 2.5-1.6.3 2.7.7 5.4 1.2 8.2zM2156.8 527.7c-.5 0-1.1.1-1.6.1-.3-.3-.6-.7-1-1-.1-.4-.2-.9-.3-1.4 1.7-1.2 3.7-2.2 4.9.6.6 1.6-1.1 1.5-2 1.7z"/><path class="st3" d="M2158 535.3c.1.3.1.5.2.8-1.4 1.4-1.4 4-3.2 4.9-.4-.2-.9-.3-1.3-.5-.6-2.4.9-3.9 2.3-5.3.6 0 1.3 0 2 .1z"/><path class="st7" d="M2180.8 585.7v-7.6c1.6-.3 1-2.3 1.8-3.9.5 4.5-.4 8-1.8 11.5z"/><path class="st4" d="M2176.2 563.1c1.9-.2 3.2.6 3.6 2.8-1.3.7-2.4.8-3.2-.9-.2-.6-.3-1.2-.4-1.9zM2165.2 561.6c.8.4 1 1.1.7 2.1-1.4 0-1.2 3.4-3.3 1.8v-2.3c1.2 0 2-.7 2.6-1.6zM2161.2 618.7c0 .9.1 1.7.1 2.6-1.3.3-3.2.9-3.4-.9-.2-1.9 2-1.5 3.3-1.7z"/><path class="st3" d="M2090.2 565.6c.5.3 1 .5 1.5.7.2 1 .2 1.8-.5 2.5-1.3-.6-1.8-1.7-1-3.2z"/><path class="st6" d="m2103.9 539.3-1.2-.3c-2.2-2.3-.2-2.5 1.2-3.1 1.2 1.1 1.5 2.2 0 3.4z"/><path class="st4" d="M2169 621.3c.7-1 1.4-1 2.1 0h-2.1z"/><path class="st3" d="M2095.6 589.4c-.3 1-.3 2.2-1.4 2.8-.5-1.5-1-3.1 1.4-2.8z"/><path class="st4" d="M2089.7 620.2c.3.3.8.7 1.1 1-.7.1-1-.3-1.1-1zM2165.7 621.2c.3-.7.7-.7 1 0h-1z"/><path class="st3" d="M2095.8 588.4c.3.2.5.3.8.4-.3.3-.6.4-.9.7-.2-.3-.1-.6.1-1.1z"/><path class="st5" d="M2130.4 359.6c-.2-2 .8-3.3 1.5-4.9 1.9 1 3.1 3 2.6 4.3-.6 1.9-2.6 1.1-4.1.6z"/><path class="st4" d="M2158.1 649.2c-.3-.5-.5-1-.8-1.5.6.3.9.7.8 1.5z"/><path class="st8" d="M2165.2 561.6c-.7.9-1.5 1.6-2.6 1.6-1.2-4-2.1-8.1-4.6-11.3-1.2-1.6-2.9-2.8-3.5.1-1.1 6.2-7 7.8-9.4 12.6-1.6-.1-3-.2-4.6-.3.5-3.3 1.2-5.8 4.2-8.2 2.3-1.7 3.9-5.1 6.8-6.8 1.6-1 1.1-3.1-.5-4.5-1.2-1-3-1.3-3.8-3.4 2.2-1.1 4.7 1.5 6.5-.9.4.2.9.3 1.3.5-.9 2.2-.2 3.6 1.5 4.9 1.7 1.4 3.6 2.9 4.7 4.8 1.6 2.8 3 1.7 4.8.6.4 1 .9 2.1 1.3 3.1-5.7.9-1.9 4.7-2.1 7.2z"/><path class="st4" d="M2099.8 554.7c-1.3-1.3.3-2.7 0-4.1.4.6.9 1.3 1.2 1.9 0 1-.4 1.8-1.2 2.2z"/><path class="st7" d="M2165.8 551.4c-1.7 1.1-3.1 2.3-4.8-.6-1.1-1.9-2.9-3.4-4.7-4.8-1.6-1.4-2.3-2.8-1.5-4.9 1.9-1 1.8-3.6 3.2-5 4-.7 4 4.9 7.1 5.6 3.7 2.9 4.8 6.1.7 9.7z"/><path class="st4" d="M2174.7 555.4c2.4 1.4 3.7 3 .5 5.2-.2-1.7-1.4-3.3-.5-5.2z"/><path class="st3" d="M2098.5 566.6c1-.1 2.1-.3 3.1-.3.2 1.8.3 4.3-1.6 4.5-2.5.1-1.2-2.6-1.5-4.2zM2094.3 566.4c.3-.5.5-.5.8 0l-.3.1-.5-.1z"/><path class="st7" d="M2147.2 527.8c.4-.3.8-.6 1.2-1 .1.3.2.4.3.7l-1.5.3z"/><path class="st8" d="M2154.2 526.8c.3.3.6.7 1 1-.4-.3-.8-.7-1-1z"/><path class="st4" d="M2113.4 601c2 3.5 5.2 1.4 7.8 2.1v2.3c-1.9-.2-3.7-.3-6.2-.5 3.5 4.7 0 4.2-2.3 4.5.1-1.8-.9-2.9-2.2-3.8-1.6-1.1-1-2.3.2-3.3 1.2.4 1.7-.9 2.7-1.3zM2105 596.9c1.8-.4 2.3.9 2.7 2.4-1.7.4-2.8-.3-2.7-2.4z"/><path class="st6" d="M2161.3 603c.2 1 1.6 2.1.3 2.9-.6.3-1.8-.5-2.8-.9.6-1 1.5-1.7 2.5-2z"/><path class="st5" d="M2178.6 529.1c-3.1.3-4.3-1.1-4.2-3.7.2-3 2.1-2.6 4.6-2.1-2.7 1.7-4.2 3.6-.4 5.8z"/><path class="st6" d="M2117.1 611.8c0 .2.1.3.1.4-.2.1-.3.1-.4.2 0-.2-.1-.3-.1-.4 0-.1.2-.1.4-.2z"/><path class="st2" d="M1828.1 1050.4c2.5-1 5.3-1.3 6.6-4.4 5.6-12.9 15.9-18.7 29.2-20.1 2.3-.2 3.9-.7 4.2-3.5 1.3-13.9 10.4-21.8 21.4-28.1 3.4-1.9 4.9-4 4.8-8.1-.2-27.6.3-55.1-.4-82.6-.2-7 .9-12.9 3.3-19.2 5.2-13.7 9.9-27.6 15.1-41.3 1.7-4.5 4.4-8.5 1.4-13.5-1-1.6-1-3.6.5-5.1 1.1-1.1 2.5-1.3 3.8-.6 1.9 1.1 2.1 3 1.7 4.9-.8 4.2-1.2 8.4.2 12.5 5.3 16.1 10.6 32.3 16.3 48.3 1.4 3.9 1.9 6.8.8 11-1.4 5-.5 10.6-.5 16 0 2 1.3 3 3.1 2.9 6.2-.2 12.7.7 18.4-1.2 3.7-1.3 2.9-7.9 4.7-11.9.8-1.9 1.3-4 2.3-5.8.8-1.5.9-4.1 3.4-3.7 2.1.3 2.7 2.3 3.3 4.1 1.4 4 3.3 7.8 4 11.9 1.5 8.7 7.8 6.3 13.3 6.9 5.6.6 7.1-2.6 8.1-7.1.9-3.6 2.2-7.1 3.5-10.6.8-2.1 1-5.1 3.8-5.2 2.9-.1 3 3 3.8 5 1.5 4.1 3.2 8.3 4.5 12.5 1.1 3.7 3.1 5.5 6.9 5.3 3.2-.1 6.4-.2 9.6-.1 3.1.1 4.8-1.5 5.4-4.3 1.8-9.5 6.1-18 10.5-26.3v186.3h-208.9c-2.5 0-5.1.1-7.6 0-6.5-.4-10.6-4.8-10.4-11.4 0-6.9 3.7-11.2 9.9-13.5zm98.9-163c-3.3-8.7-4.9-18.1-9.5-26.4-.2-1.5-.3-3-.5-4.5l-1.5-.3c-3.8 10.9-7.6 21.8-11.3 32.8-.8 2.4.8 3.5 2.9 3.5 3.6 0 7.3 1 10.7-.9 2 .1 4.1.2 6.1.3 3 0 4.2-1.6 3.1-4.5zm-6 12.3c-5.3-1.7-10.7.8-16.2-.4-4.2-.9-3.4 3.4-3.4 5.9-.1 19.4 0 38.7 0 58.1 0 6.5.2 13.1-.1 19.6-.2 4.2.8 5.5 5 3.9 4.7-1.7 9.6-2.8 14.5-4.2 1.4-1.8 4.9.2 5.5-3.2 2.7-.6 2.8-2.7 2.8-4.8-.1-22.3-.2-44.7-.4-67 1.4-8 .9-8.5-7.7-7.9zm120.7 15.6c-3.9 3.4-.8 12.1-9.2 11.2-.6 0-1.1.1-1.7.1h-15.2c-9.2-.5-7.3-9.6-11.3-15.4-3.8 5.5-1.8 16.1-12.1 15.4l-17.9-.3c-1.9-4.6-3.7-9.2-6.2-15.3-3.7 7-3.3 16.2-12.9 15.6-4.2-.5-8.4-.4-12.5.2-2.4-1.7-5.3-1.2-6.3.9-1.2 2.5-2.2 6 1.3 8.3 1 0 1.9.1 2.9.1.1 4.4 1.2 9.2 0 13.2-2 6.4 1.8 5.6 5.3 5.6 15.4.1 30.7.1 46.1.1 14.9 0 29.8-.2 44.7 0 4.4.1 6.2-1.5 6.1-6-.4-11.2 1.1-22.4-1.1-33.7zm-105.4 48.9c.2 3.6 2.8 3.5 5.5 2 29.2.6 58.4.9 87.6-.2 3.2 0 6.3.1 9.5.1 1.4 0 2.9-.4 2.9-2.2.1-1.8-1.4-2.2-2.8-2.3-3.2-.1-6.3 0-9.5 0-29.4-.3-58.8-.8-88.2.2-2.1-.1-5.2-1.2-5 2.4zm89.3 8.6c-25.9-.2-51.7-.5-77.6-.8-2.3 0-4.6 0-6.9.1s-5.4 0-5 3.1c.4 2.9 3.2 1.4 5.1 1.1 14.3-2.9 28.6-3.2 42.9-.2 3.8.8 7.6 2.3 11.3 3.6.5.2 1.1.4 1.6.6 1 .7 2.1 1.4 3.1 2 3.1 2 6.2 4.1 8.9 6.7 5.1 4.9 10.7.2 16.1.8 4.1 1.4 8.4 2.5 12.4 4.2 3.9 1.6 4.5.2 4.7-3.5.8-17.7.9-17.6-16.6-17.7zm-199.1 91.5c.4 3.5 3.8 2.8 6.1 3.2 7.3 1.2 14.6-.4 21.9-.7 41.2 1.3 82.5-.3 123.7-.1 19 .1 38.1-.1 57.1.2 5.2.1 6.7-1.6 6.6-6.8-.3-15.6-.5-31.3 0-46.9.2-7.1-2.2-10.8-8.8-12.4-3.1-.8-6-2.3-9.3-2.3-6.7-2.6-7.3 3.3-9.6 7.2-.7-.4-1.4-.5-1.7-.9-10.4-16.8-26.1-23.6-44.8-23.7-29.6-.3-57.1 7.6-81.3 25.2-11 8-12.3 13.7-8.1 26.5-6.1.7-12.4.2-18.4 2.1-9.5 2.9-17.6 7.2-18 19-.1 2.9-1.5 3.5-4 3.3-2.3-.2-4.6-.2-6.7 1-2.5 1.3-5 3-4.7 6.1z"/><path d="M5132.1 730.1c-2.2 5.6-1.6 15.7-2.5 16.2-.3.7-27.4-9.3-36.2-15.9-17.2-12.9-21.3-8.1-21.6-8.1v-27.2c18.5-1.7 35.3 17.5 63.9 24.2 4.9 1.2-2.2 7.1-3.6 10.8z" style="fill:#fff"/></svg>