<?xml version="1.0" encoding="utf-8"?>
<!-- Generator: Adobe Illustrator 24.2.3, SVG Export Plug-In . SVG Version: 6.00 Build 0)  -->
<svg version="1.1" id="s2" xmlns="http://www.w3.org/2000/svg" xmlns:xlink="http://www.w3.org/1999/xlink" x="0px" y="0px"
	 viewBox="0 0 6095.3 1774.1" style="enable-background:new 0 0 6095.3 1774.1;" xml:space="preserve">
<style type="text/css">
	.st0{fill:#F6FF83;}
	.st1{fill:#68564A;}
	.st2{fill:#B6B6B6;}
	.st3{fill:#555555;}
	.st4{fill:#8C8C8C;}
	.st5{fill:#0A7C9B;}
	.st6{fill:#035D84;}
	.st7{fill:#2F9AB2;}
</style>
<path class="st0" d="M5391.2,665.8c2.8-66,4.5-100,15.2-144.4c9.6-39.7,24.4-83.6,24.4-83.6c7.7-23.3,12-32.8,21.6-60
	c12.8-36.1,11.3-54.1,26.6-82c15.2-27.8,25.8-31,30.3-31.8c16.5-2.9,31.7,12.5,36.6,17.4c47.7,48-41.9,236.3-47.4,451.2
	c-3.6,141.6,30.7,240.6-14.4,263.7c-24.2,12.4-76.8,5.6-87.3-16.8c-0.8-1.7-1.4-3.6-2.4-16.2c-1.8-22.1-2.7-33.2-1.8-51.9
	C5394.7,864.7,5385.7,794.1,5391.2,665.8z"/>
<g id="skyline2">
	<path id="Vector_6" class="st1" d="M1982.6,1072.1h-2.1v-10h-2.9V840.3h1.2V839h0.5l2.1-5.3h-3.8v-49.5l1-2.5h0.2v-0.5l0.9-2.3
		h-1.4v-2.5h-0.7v-2.7l2-4.9h2.1v-2.9h-6.1v-5.3h-1.2v-5.2h-2.4v-7.3h-3.1v-13.4h2.5V732h1.1v-2.2h-5.1v-3.1h-3.7v-5.1h1.4V718h-1.5
		v-3.3h-1.8v-28.1h0.8v-2.7h1.2v-1.5h-1.4v-2.5h-1.7v-5.4h-0.3v-0.1l-1.8-2.2v-1.3l0,0c0.4,0,0.7-0.3,0.7-0.7l0,0
		c-0.1-0.3-0.3-0.6-0.7-0.6l0,0v-0.7c0-0.4-0.2-0.8-0.6-0.8s-0.6,0.4-0.6,0.8v0.7l0,0c-0.4,0-0.7,0.3-0.7,0.6l0,0l0,0
		c0,0.4,0.3,0.7,0.6,0.7l0,0l0,0v1.3l-1.8,2.2v0.1h-1.1v-1h-1.2v-9.4h0.3v-1.8h-1v-6.4c0.2-0.1,0.4-0.3,0.4-0.6s-0.2-0.6-0.5-0.6
		h-0.6c0-0.1,0.1-0.2,0.1-0.2c0-0.2-0.2-0.5-0.4-0.5l0,0h-1l-1-6.5h0.7v-1.2h-0.7c-0.1-2.2-1.4-4.1-3.4-4.9c0.8-0.3,1.4-0.7,1.4-1.3
		s-0.8-1.2-1.9-1.4v-0.4c1.1-0.1,1.8-0.4,1.8-0.7s-0.8-0.6-1.8-0.7v-3.6c0.8-0.5,1.2-1.4,1.2-2.3c0.2-1.2-0.6-2.4-1.8-2.6
		c-1.2-0.2-2.4,0.6-2.6,1.8c0,0.2,0,0.5,0,0.7c0,0.9,0.4,1.8,1.2,2.3v3.6c-1.1,0.1-1.8,0.4-1.8,0.7s0.8,0.6,1.8,0.7v0.4
		c-1.1,0.2-1.9,0.8-1.9,1.4s0.6,1,1.4,1.3c-1.9,0.9-3.2,2.8-3.3,4.9h-0.7v1.3h0.7l-1,6.5h-1c-0.2,0-0.4,0.2-0.4,0.5
		c0,0.1,0,0.2,0,0.2h-0.6c-0.3,0-0.5,0.3-0.5,0.6c0,0.2,0.1,0.5,0.4,0.6v6.5h-1v1.8h0.3v9.4h-1.2v1h-1.1v-0.1l-1.8-2.2V671l0,0
		c0.4,0,0.7-0.3,0.7-0.7s-0.3-0.7-0.7-0.7l0,0l0,0v-0.7c0-0.4-0.3-0.8-0.6-0.8s-0.6,0.4-0.6,0.8v0.7l0,0c-0.4,0-0.7,0.3-0.7,0.6l0,0
		l0,0c0,0.4,0.3,0.7,0.6,0.7l0,0l0,0v1.3l-1.8,2.2v0.1h-0.2v5.3h-1.7v2.5h-1.4v1.6h1.2v2.7h0.8v28.1h-1.8v3.3h-1.4v3.6h1.4v5.1h-3.7
		v3.1h-5.1v2.2h1.1v2.7h2.5v13.4h-3v7.2h-2.4v5.3h-1.2v5.3h-1.3v3.8h-3.4v-17.6h-11.6c0.4-1.6,0-3.6-0.1-5.1s-0.4-3.3-0.4-4.9
		c0-1.1,0.8-2.3,1.1-3.4c0.2-0.9,0-1.8-0.6-2.4c0.5-0.4,0.7-1,0.6-1.6c-0.1-0.8-0.4-1.6-1-2.2c-0.7-0.7-3-0.7-3.1-2
		c-0.2-1.7-0.6-2.6-1.5-3.1c0.4-2-0.3-4.1-2.2-3.8c-1.8-0.4-2.3,1.4-2.2,3.5c0,0.6-1.8,1.3-2.2,1.8c-0.3,0.5-0.5,1.1-0.4,1.7
		c-1.7,0-4,0.2-3.8,2.5c0.1,2.1,1.6,2.5,3.1,2.6c0,1.4,0.3,2.7,1,3.8l0.1,0.1c0,0.3,0.1,0.5,0.1,0.8c0.2,2.4,0.4,4.8,0.4,6.9
		c-0.2,1.6-0.2,3.2,0,4.8h-5.5v4.8l-17.7-10.9v-14.6h1.9v-2.5h-2v-46.8c1.9-0.3,2.9-0.5,2.9-0.8s-1.2-0.6-3.5-0.9h0.5v-13.6h-11.9
		V647c1.5-0.4,2.3-0.8,2.3-1.3s-0.7-0.8-2.1-1.2c-1.7-24.5-16.3-48.5-35.8-55.8v-2.3c0.9-0.3,1.4-0.7,1.4-1.1s-0.3-0.6-1-0.9v-1.5
		h-0.7v-4.5h-2.6v-2.7h0.8V573h-0.8v-16.4h0.7v-3h-0.8c0.3-0.4,0.2-0.9-0.1-1.2c0.1-0.1,0.1-0.2,0.1-0.3c0-0.3-0.2-0.6-0.5-0.7v-3.2
		c0-0.1-0.1-0.3-0.2-0.3l0,0c-0.1,0-0.3,0-0.4,0.2c0,0,0,0.1,0,0.2v3.2c-0.3,0-0.6,0.3-0.5,0.7l0,0c0,0.1,0,0.2,0.1,0.3
		c-0.4,0.3-0.4,0.9-0.1,1.2h-1.4V544h0.5v-2.2h-1v-0.7h0.6v-1.3h-0.5v-0.5h0.7c-0.1-2.7-1.5-5.1-3.9-6.4v-1.2
		c0.8-0.2,1.3-0.5,1.3-0.8s-0.6-0.7-1.5-0.8c0.1-0.2,0.1-0.4,0.2-0.7c0-0.3-0.1-0.6-0.3-0.8c0.4-0.2,0.7-0.4,0.7-0.7
		c0-0.5-0.8-0.9-1.9-1v-2.7c0.8-0.1,1.3-0.4,1.3-0.7s-0.5-0.6-1.3-0.7v-0.1c1.7-0.9,2.4-3,1.5-4.7c-0.1-0.1-0.2-0.3-0.2-0.4
		c-0.3-0.5-0.8-0.9-1.3-1.2v-4.7c0.6-0.3,1-0.8,1.2-1.5h1.2c0.5-0.1,0.8-0.5,0.7-0.9c0-0.5-0.3-0.9-0.7-0.9h-1.2
		c-0.2-0.6-0.6-1.2-1.2-1.5V505c0-0.8-0.4-1.4-0.8-1.4s-0.8,0.6-0.8,1.4v1.9c-0.6,0.3-1,0.8-1.2,1.5h-1.2c-0.5,0.1-0.8,0.5-0.7,0.9
		c0,0.5,0.3,0.9,0.7,0.9h1.2c0.2,0.6,0.6,1.2,1.2,1.5v4.7c-1.7,0.9-2.4,3-1.5,4.7c0.1,0.1,0.2,0.3,0.2,0.4c0.3,0.5,0.8,0.9,1.3,1.2
		v0.1c-0.8,0.1-1.3,0.4-1.3,0.7s0.5,0.6,1.3,0.7v2.7c-1.1,0.1-1.9,0.5-1.9,1c0,0.3,0.3,0.5,0.7,0.7c-0.2,0.3-0.3,0.5-0.3,0.8
		c0,0.2,0,0.4,0.1,0.7c-0.9,0.2-1.5,0.5-1.5,0.8s0.5,0.6,1.3,0.8v1.3c-2.4,1.3-3.9,3.7-3.9,6.4h0.7v0.5h-0.5v1.3h0.6v0.7h-1v2.2h0.5
		v9.7h-1.5c0.4-0.3,0.4-0.9,0.1-1.2c0,0,0,0-0.1-0.1c0-0.1,0.1-0.2,0.1-0.3c0-0.3-0.2-0.6-0.5-0.7v-3.2c0-0.1-0.1-0.3-0.2-0.3l0,0
		c-0.2,0-0.3,0-0.4,0.2c0,0,0,0.1,0,0.2v3.3c-0.3,0.1-0.6,0.3-0.5,0.7c0,0.1,0,0.2,0.1,0.3c-0.4,0.3-0.4,0.9-0.1,1.2l0,0h-0.8v3h0.7
		v16.4h-0.9v2.7h0.8v2.7h-2.6v4.4h-0.8v1.5c-0.6,0.3-1,0.6-1,0.9s0.5,0.8,1.5,1.1v2.5c-19.4,7.3-34.1,31.2-35.8,55.8
		c-1.4,0.4-2.1,0.8-2.1,1.2s0.8,0.9,2.3,1.3v19.8h-11.9v13.6h0.5c-2.2,0.3-3.5,0.6-3.5,0.9s1,0.6,2.9,0.8v46.8h-2v2.5h1.9v14.5
		l-17.7,10.9v-4.8h-5.5c0.1-1.6,0.1-3.2,0-4.8c0-2.1,0.2-4.5,0.4-6.9c0-0.3,0.1-0.5,0.1-0.8l0.1-0.1c0.7-1.2,1-2.5,1-3.8
		c1.5-0.1,2.9-0.5,3-2.6c0.1-2.3-2.1-2.5-3.8-2.5c0-0.6-0.1-1.2-0.4-1.7c-0.4-0.5-2.2-1.2-2.2-1.8c0-2.2-0.4-4-2.2-3.5
		c-1.9-0.4-2.6,1.7-2.2,3.8c-0.9,0.5-1.4,1.4-1.5,3.1c-0.1,1.4-2.4,1.4-3.1,2c-0.6,0.6-0.9,1.4-1,2.2c-0.1,0.6,0.1,1.2,0.6,1.6
		c-0.7,0.6-0.9,1.6-0.7,2.4c0.3,1.1,1.1,2.3,1.1,3.4c0,1.7-0.3,3.3-0.4,4.9s-0.5,3.5-0.1,5.1h-11.9V770h-5.2v-3.8h-1.3v-5.3h-1.1
		v-5.2h-2.4v-7.3h-3.1V735h2.5v-2.7h1.1v-2.2h-5.1V727h-3.7v-5.1h1.4v-3.6h-1.5V715h-1.8v-28.1h0.8v-2.7h1.2v-1.8h-1.4v-2.5h-1.7
		v-5.3h-0.2v-0.1l-1.8-2.2V671l0,0c0.4,0,0.7-0.3,0.7-0.7l0,0c0-0.4-0.3-0.7-0.6-0.7l0,0l0,0v-0.7c0-0.4-0.3-0.8-0.6-0.8
		s-0.6,0.4-0.6,0.8v0.7l0,0c-0.4,0-0.7,0.3-0.7,0.6l0,0l0,0c0,0.4,0.3,0.7,0.7,0.7l0,0v1.3l-1.8,2.2l0.1,0.1h-1.1v-1h-1.2v-9.4h0.3
		v-1.8h-1v-6.4c0.2-0.1,0.4-0.3,0.3-0.6c0-0.3-0.2-0.6-0.5-0.6h-0.6c0-0.1,0.1-0.2,0.1-0.2c0-0.2-0.2-0.5-0.4-0.5h-1l-1-6.5h0.7
		v-1.2h-0.7c-0.1-2.1-1.4-4.1-3.4-4.9c0.8-0.3,1.4-0.7,1.4-1.3s-0.8-1.2-1.9-1.4v-0.4c1.1-0.1,1.8-0.4,1.8-0.7s-0.8-0.6-1.8-0.7
		v-3.6c0.8-0.5,1.2-1.4,1.2-2.3c0.2-1.2-0.6-2.4-1.8-2.6c-1.2-0.2-2.4,0.6-2.6,1.8c0,0.2,0,0.5,0,0.7c0,0.9,0.4,1.8,1.2,2.3v3.6
		c-1.1,0.1-1.8,0.4-1.8,0.7s0.8,0.6,1.8,0.7v0.4c-1.1,0.2-1.9,0.8-1.9,1.4s0.6,1,1.4,1.3c-1.9,0.9-3.2,2.8-3.3,4.9h-0.7v1.2h0.7
		l-1,6.5h-1c-0.2,0-0.4,0.2-0.4,0.5c0,0.1,0,0.2,0.1,0.2h-0.6c-0.3,0-0.5,0.3-0.5,0.6c0,0.2,0.1,0.5,0.3,0.6v6.5h-1v1.8h0.3v9.4
		h-1.1v1h-1.1v-0.1l-1.8-2.2v-1.3l0,0c0.4,0,0.7-0.3,0.7-0.7s-0.3-0.7-0.7-0.7l0,0l0,0v-0.7c0-0.4-0.3-0.8-0.6-0.8s-0.6,0.4-0.6,0.8
		v0.7l0,0c-0.4,0-0.7,0.3-0.7,0.6l0,0l0,0c0,0.4,0.3,0.7,0.6,0.7l0,0l0,0v1.3l-1.8,2.2v0.1h-0.2v5.3h-1.6v2.5h-1.4v1.6h1.2v2.7h0.8
		v28.1h-1.8v3.3h-1.5v3.6h1.4v5.1h-3.7v3.1h-5.1v2.2h1.1v2.7h2.5V748h-3.1v7.2h-2.4v5.3h-1.2v5.3h-6.1v2.9h2.1l2,4.9v2.7h-0.8v2.5
		h-1.4l0.9,2.3v0.5h0.2l1,2.5v49.5h-3.7l2.1,5.3h0.4v1.3h1.2v221.9h-2.9v10h-5.9v17.4h367.8v-17.4L1982.6,1072.1L1982.6,1072.1z
		 M1646.6,714.8h-1.4v-28.1h1.4V714.8z M1674.9,714.8h-1.4v-28.1h1.3L1674.9,714.8z M1691.3,769.3l0.2-0.4h0.5L1691.3,769.3z
		 M1749.3,729.1h-2v-46.4c0.6,0.1,1.3,0.1,2,0.2V729.1z M1796.7,573h-0.7v-16.4h0.7V573z M1810.9,573h-0.7v-16.4h0.7V573z
		 M1859.6,729.1h-2v-46.2l2-0.2V729.1z M1913.2,768.9h0.5l0.2,0.4L1913.2,768.9z M1931.5,714.9h-1.4v-28.1h1.4V714.9z M1959.8,714.9
		h-1.4v-28.1h1.4V714.9z"/>
	<g>
		<path id="Vector_4" class="st2" d="M5503.6,363.5v7.3h9.6c-0.6,1.7-1.2,3.5-1.8,5.2h-11.8v7.3h9.3
			c-30.5,90.9-55.5,217.8-55.5,347.7v313.8h-49.6V721.3c0-111.7,25.1-220.9,55.5-298.9h-9.3V416h11.8c0.6-1.5,1.2-3,1.8-4.4h-9.6
			v-6.2h12.1c25.3-59.6,53.2-97.1,73.1-97.3c-7.9,15.8-15.9,34.5-23.5,55.5L5503.6,363.5L5503.6,363.5z"/>
		<path id="Vector_5" class="st3" d="M5645.9,706v343.3h-174.2v-333c0-137.7,19.7-272.5,43.6-368.9h-7.3v-7.6h9.3
			c0.5-1.9,1-3.7,1.4-5.6h-7.4v-7.7h9.5c6-22.4,12.3-42.1,18.4-58.9h0.1c15.7,0,37.6,39.9,57.5,103.2h9.5v6.6h-7.5
			c0.5,1.6,1,3.2,1.4,4.8h9.3v6.6h-7.3C5626.2,471.7,5645.9,587.5,5645.9,706z"/>
		<path class="st4" d="M5596,727.9v333h-129.2v-333c0-137.7,19.6-272.5,43.2-368.9h-7.3v-7.6h9.2c0.5-1.9,1-3.7,1.4-5.6h-7.4v-7.7
			h9.4c5.2-19.8,10.7-37.4,16.2-52.9c5.4,15.4,10.8,33.1,16.1,52.9h9.4v7.7h-7.3c0.5,1.9,0.9,3.7,1.4,5.6h9.1v7.6h-7.2
			C5576.6,455.4,5596,590.2,5596,727.9z"/>
		<path id="Vector_7" class="st5" d="M5592.3,803.2l-8.5,24.7c-4.7-10.8-9.7-21.7-14.7-32.2h23.2v-6.1h-23.6l12.5-33.8
			c3.8,9.1,7.5,18.3,11,27.5c-0.1-5.8-0.1-11.7-0.2-17.5c-1.7-4.2-3.4-8.3-5.1-12.5h4.9c0-2.1-0.1-4.1-0.1-6.1h-7.5l6.9-17.6
			c-0.2-5.3-0.3-10.6-0.5-15.8l-9.9,25.6c-4-9.1-8-18.1-12.1-27h21.9c-0.1-2.1-0.1-4.2-0.2-6.1h-24.1l13.4-34.2
			c3.6,8.2,7.1,16.4,10.4,24.3c-0.3-5.9-0.5-11.8-0.8-17.7c-1.2-2.8-2.5-5.8-3.8-8.7h3.3c-0.1-2.1-0.2-4.2-0.3-6.1h-5.7l4.9-12.5
			c-0.3-4.8-0.6-9.6-0.9-14.4l-7.5,19.1c-4.2-9.2-8.4-18.8-12.8-28.2h19.7c-0.2-2.1-0.3-4.2-0.5-6.1h-21.8l12.2-29.6
			c3.1,7.4,6.1,14.6,9.1,21.8c-0.5-6.7-1-13.3-1.6-19.9c-1.2-2.9-2.5-5.9-3.8-8.9h2.9c-0.2-2.1-0.4-4.2-0.6-6.1h-1.4l1-4.2
			c-0.6-6.1-1.2-12.3-1.8-18.3l-4.3,18.4c-4.5-10.5-9.2-21.4-14.1-32.5h17.1c-0.2-2.1-0.5-4.2-0.7-6.1h-15.7l7.7-27
			c2.3,5.5,4.4,10.9,6.8,16.5c-0.9-7.9-2-15.8-3-23.6l-0.2-0.5h0.1c-1.1-8.1-2.2-16-3.4-23.9l-2,11.2c-4.1-9.8-7.9-19.5-11.8-29.1
			h11.1c-0.5-3-0.9-5.9-1.4-8.9h-9.4l4.5-27.3c0.1,0.2,0.2,0.5,0.3,0.7c-2.3-12.4-4.6-24.3-7.1-36c-1.8-4.8-3.5-9.6-5.2-14.2h2.1
			c-0.5-2.1-0.9-4.2-1.4-6.1h-2.9l-0.5-1.3l1.1-7.8c-1.3-5.3-2.6-10.6-4-15.7l-1.6,10.9c-2.5-7.5-5-14.8-7.2-21.7h5.9
			c-0.6-2.1-1.1-4.2-1.7-6.1h-6.1l-0.1-0.4l0.5-19.5c-2.4-7.6-4.8-15.1-7.3-22.2h-3.3l1.5-5.3c-1.1-3.4-2.5-6.7-3.7-9.9l-1.7,6
			l-1.5-6.2l3.1-0.1c-2.3-6.2-4.8-12.2-7.3-17.9c-13.6,6.8-54.1,40.1-98.4,202.5c-13.9,50.8-56.2,244-20.8,600.5l0.7,6.5h183.9
			c0.6-4.8,1-9.6,1.6-14.4h-11.7l3.8-9.2h8.9c0.2-2.1,0.4-4.2,0.7-6.1h-7l7-16.9c0.4,1,0.8,2.1,1.1,3.1c0.8-8.7,1.5-17.5,2.2-26.2
			l-3.2,7.1c-3.9-9.2-8.5-19.6-13.7-30.6h18.5c0.1-2.1,0.3-4.1,0.4-6.1h-19l15.1-32.7c1.8,4.3,3.6,8.6,5.2,12.7
			c0.3-4.8,0.5-9.6,0.8-14.5l-1.2-2.9h1.4c0.1-2.1,0.2-4.1,0.3-6.1h-1.6l1.9-4.5c0.3-6,0.5-12,0.8-18l-7.3,17.7
			c-4.5-10.3-9.3-20.9-14.4-31.8h22.2c0.1-2.1,0.1-4.2,0.2-6.1h-22.3l14.9-31.1c2.6,6.3,5.2,12.6,7.7,18.9
			c0.1-5.2,0.3-10.4,0.3-15.7c-1-2.6-2.2-5.2-3.2-7.7h3.3c0-2.1,0-4.1,0.1-6.1h-3.6l3.8-10.8C5592.3,816,5592.3,809.7,5592.3,803.2z
			 M5563.8,785c-5.3-10.7-10.7-21.3-16.1-31.6h27.7L5563.8,785z M5456.2,998.1l-13.7-30.6h27.4
			C5464.8,978.6,5460.2,988.8,5456.2,998.1L5456.2,998.1z M5456.5,1014.2l7,17h-13C5452,1026,5454.1,1020.3,5456.5,1014.2
			L5456.5,1014.2z M5519.2,379.6c3.3,9.5,7.1,19.7,11.5,31.5h-23.1C5512.1,399.3,5515.8,389.2,5519.2,379.6L5519.2,379.6z
			 M5519.2,359.9l-6.8-27.2h13.5L5519.2,359.9z M5513.7,542.4c-2.9,5.6-8.5,16.2-15.7,30.7l-13.3-30.8L5513.7,542.4z M5486.5,536.1
			c4.6-10.5,9-20.2,12.9-29.1l14.5,29.2L5486.5,536.1z M5462.1,663.9c5-11.2,10.2-22.7,15.6-34.3l14.9,34.3H5462.1z M5490.1,670
			c-4.8,9.4-9.6,19.1-14.3,29l-11.3-29H5490.1z M5458.8,656l-11.1-28.2h24C5467.3,637.2,5463.1,646.7,5458.8,656L5458.8,656z
			 M5472,706.3h-27.5l-0.2-0.6c4.4-10.8,9.2-22.1,14.2-33.6L5472,706.3z M5469.5,712.3c-4.1,8.8-8.1,17.8-12.1,27l-10.5-27H5469.5z
			 M5469.6,789.7h-26c4.3-11.2,8.9-22.6,13.5-33.8L5469.6,789.7z M5469.3,795.8c-5.1,10.6-10,21.3-14.7,32.2l-11.1-32.2H5469.3z
			 M5469.3,875.1H5442c3.8-10.1,8-20.6,12.5-31.2L5469.3,875.1z M5459,839.3h31.2c-5.6,10.7-10.8,21.3-15.9,31.9L5459,839.3z
			 M5459,833.1c4.8-11,9.9-22.3,15.2-33.2l16.2,33.2H5459z M5462.8,753.4h27.7c-5.5,10.3-10.9,20.9-16.1,31.6L5462.8,753.4z
			 M5460.8,747.3c4.7-11,9.6-22.2,14.7-33l15.4,33H5460.8z M5481.4,712.3h32.4c-3.4,5.7-9.7,16.4-17.8,31.2L5481.4,712.3z
			 M5479.2,706.3c5.7-11.9,11.3-23.6,17-34.6l17.9,34.6H5479.2z M5483.6,627.7h29.9c-3.5,5.7-9.3,15.8-16.8,29.8L5483.6,627.7z
			 M5481.4,621.7c5.4-11.4,10.9-22.9,16.4-34.1l16.5,34.1H5481.4z M5493.8,578.8h-26c4.4-10.5,8.9-20.6,13.1-30.2L5493.8,578.8z
			 M5492.1,585c-4.8,9.8-9.5,19.6-14.1,29.4l-12-29.4H5492.1z M5474.3,621.7h-24.5c4.1-9.7,8.2-19.7,12.4-29.6L5474.3,621.7z
			 M5445.2,616.7l-5.6-31.9h19C5453.7,595.9,5449.3,606.6,5445.2,616.7L5445.2,616.7z M5455.5,663.8h-22.6
			c3.6-9.2,7.4-18.8,11.3-28.6L5455.5,663.8z M5452.8,670c-4.1,9.2-7.8,18.3-11.6,27.2l-10.3-27.2H5452.8z M5453.9,747.3h-25.8
			c4.1-10.8,8.4-22.1,12.9-33.3L5453.9,747.3z M5451.5,753.3c-4.2,10.3-8.4,20.4-12.3,30.5l-11.2-30.5H5451.5z M5449.9,833.1h-21.7
			c3.5-10.4,7.1-20.8,10.8-31.2L5449.9,833.1z M5449.7,839.3c-4.2,9.9-8.2,19.9-12,29.7l-9.6-29.7H5449.7z M5450.4,917.8h-23.1
			c3.1-10,6.7-20.4,10.5-30.8L5450.4,917.8z M5442,881.2h27.5c-5.1,10.8-10,21.5-14.4,31.7L5442,881.2z M5474.4,885.1l16.9,32.6
			h-31.6C5464.1,907.3,5469.1,896.4,5474.4,885.1L5474.4,885.1z M5479.3,881.2h34.7c-3.1,5.7-9.7,17.8-17.6,33L5479.3,881.2z
			 M5479.3,875c5.2-10.8,10.7-21.7,16.2-32.4L5514,875H5479.3z M5495.5,829.5l-16.5-33.7h34.9c-3.6,6.1-10.2,18-18.6,33.8
			L5495.5,829.5z M5479.2,789.7c5.4-11,11-22.1,16.7-32.7l18.2,32.7H5479.2z M5501,753.4h36.6l-18.4,33L5501,753.4z M5501,747.3
			c8.3-15.4,14.9-26.4,18.3-32.2c3.4,5.7,9.9,16.8,18.3,32.2H5501z M5502.5,670h33.6l-16.8,32.5L5502.5,670z M5500.3,663.9
			c8.1-15.4,14.7-27.2,18.5-33.2l0.5,1l0.5-1c3.7,6,10.4,17.7,18.5,33.2H5500.3z M5519.3,617.6l-15.8-32.6h31.5L5519.3,617.6z
			 M5502.1,578.8c7.8-15.8,13.9-27.5,17.1-33.6c3.2,6.1,9.2,17.7,17.1,33.6H5502.1z M5503.6,501.8h31.1l-15.7,31.3L5503.6,501.8z
			 M5504.5,495.6c3.3-7.3,6.2-13.8,8.7-19.2l0.6-1.3c2.5-5.6,4.3-9.4,5.5-12.1c1.1,2.6,2.8,6.2,5.1,11.3l0.4,0.8
			c2.6,5.7,5.8,12.6,9.2,20.5L5504.5,495.6z M5519.2,448.6l-12.4-31.3h24.7L5519.2,448.6z M5508.2,472.7l-8.5,18.7l-9.6-31.3h23.8
			C5512.4,463.2,5510.4,467.5,5508.2,472.7L5508.2,472.7z M5485.7,467l8.9,28.7h-20.5C5478,486,5481.9,476.5,5485.7,467L5485.7,467z
			 M5482.2,417.2h16.5c-3.7,9.6-7.5,19.5-11.6,29.6L5482.2,417.2z M5495,501.8c-4.2,9.2-8.7,19.3-13.6,30.4l-8.7-30.4H5495z
			 M5462.9,574.8l-8-32.2l0.3-0.8l21.9,0.2C5472.4,552.4,5467.7,563.5,5462.9,574.8L5462.9,574.8z M5457.5,578.8h-17.1
			c3.5-9,7-17.8,10.4-26.4L5457.5,578.8z M5437,570.3l-4.7-28.7l15.8,0.1l0.1,0.4C5444.7,551.4,5440.9,560.7,5437,570.3L5437,570.3z
			 M5434.8,593.4l4.9,28.2H5424C5427.3,612.9,5430.7,603.7,5434.8,593.4L5434.8,593.4z M5440.6,627.7c-4.3,10.7-8.5,21-12.4,30.9
			l-5.1-30.9H5440.6z M5437.7,705.5l-0.3,0.7h-20.6c3.2-9,6.7-18.4,10.4-28.2L5437.7,705.5z M5435.1,712.4c-3.8,9.5-7.5,19-10.9,28
			l-7.5-28H5435.1z M5434.7,789.7h-21.3c3.1-9.8,6.6-19.9,10.3-30.2L5434.7,789.7z M5434.7,795.8c-3.8,10.3-7.5,20.6-10.8,30.8
			l-10.4-30.8H5434.7z M5423.9,846.4l9.2,28.7h-17.7C5418,865.7,5420.8,856.1,5423.9,846.4L5423.9,846.4z M5433.2,881.2
			c-3.6,9.7-7,19.3-10,28.9l-7.8-28.9H5433.2z M5450.4,923.8c-4.5,10.8-8.7,21.3-12.4,31.3l-10.8-31.3H5450.4z M5455.1,928.5
			l15,32.7h-27.8C5446,950.9,5450.3,939.9,5455.1,928.5L5455.1,928.5z M5459.7,923.8h31.7c-5.9,11.6-11.5,22.7-16.5,33.3
			L5459.7,923.8z M5496.4,927.7l17.5,33.7h-34.1C5484.8,950.7,5490.4,939.4,5496.4,927.7L5496.4,927.7z M5501.4,923.8h35.7
			l-17.8,34.5L5501.4,923.8z M5536.3,1002.8h-34.1c7.2-14.4,13.8-26.7,17.1-32.6C5522.4,976.1,5529,988.3,5536.3,1002.8
			L5536.3,1002.8z M5501.6,917.8c7.8-15,14.2-27,17.6-33.2c3.5,6.3,9.9,18.2,17.6,33.2H5501.6z M5500.6,839.2h37.1l-18.5,32.6
			L5500.6,839.2z M5500.4,833.1c8.5-16,15.2-28.1,18.8-34.2c3.3,5.8,10.2,18.1,18.8,34.2H5500.4z M5542.6,756.8
			c5.7,10.8,11.3,21.8,16.7,32.7h-34.9L5542.6,756.8z M5542.5,743.5c-8.1-14.9-14.4-25.7-17.8-31.2h32.4L5542.5,743.5z
			 M5524.3,706.2l17.9-34.6c5.8,11.1,11.3,22.7,17,34.6H5524.3z M5541.8,657.6c-7.5-14.1-13.3-24.2-16.8-29.8h29.8L5541.8,657.6z
			 M5524.1,621.6l16.4-34.1c5.6,11.4,11.1,22.8,16.4,34.1H5524.1z M5540.3,573c-7.3-14.4-12.7-25-15.7-30.7h28.8L5540.3,573z
			 M5524.5,536.3l14.5-29.3c4.1,9,8.4,18.8,13,29.3H5524.5z M5538.7,491.4c-3.2-7.2-6.1-13.4-8.5-18.8s-4.3-9.5-5.7-12.5h23.8
			L5538.7,491.4z M5546.3,451.1h-21.5l10.8-27.3C5539.2,433.1,5542.8,442.2,5546.3,451.1L5546.3,451.1z M5539.6,417.1h16.5
			l-4.9,29.6C5547.2,436.9,5543.4,426.9,5539.6,417.1L5539.6,417.1z M5534.6,403.8c-4.3-11.4-7.7-20.8-10.8-29.6h15.4L5534.6,403.8z
			 M5503.8,403.8l-4.6-29.6h15.4C5511.6,383,5508.1,392.5,5503.8,403.8L5503.8,403.8z M5502.8,423.8l10.8,27.3H5492
			C5495.7,442.2,5499.3,433.1,5502.8,423.8L5502.8,423.8z M5484.4,411.1c3.3-8.7,6.6-17.7,10.1-27.5l4.3,27.5H5484.4z M5480.8,402.7
			l-1.9-28.4h12.1C5487.7,383.9,5484.3,393.5,5480.8,402.7L5480.8,402.7z M5470.3,488.4l-3.7-28.2h15.2
			C5478.1,469.4,5474.2,478.8,5470.3,488.4L5470.3,488.4z M5468.4,509.4l7.6,26.6l-18.4-0.1C5461.2,526.8,5464.8,518,5468.4,509.4
			L5468.4,509.4z M5452.8,531.2l-3.9-29.3h15.9C5460.9,511.4,5456.9,521.2,5452.8,531.2L5452.8,531.2z M5446.7,487.4l-4.2-27.3h15.6
			c-2.7,6.6-5.5,13.2-8.2,19.8L5446.7,487.4z M5443.7,510.6l3.4,25.1l-13.5-0.1C5436.8,527.8,5440.1,519.7,5443.7,510.6
			L5443.7,510.6z M5429.9,528.5l-5.1-26.6h15.9C5436.7,511.8,5433.2,520.4,5429.9,528.5L5429.9,528.5z M5432.2,578.9h-14.9
			c3.3-9.1,6.7-18.2,10.4-27.8L5432.2,578.9z M5431.4,585.1c-3.8,9.9-7.4,19-10.6,27.6l-4.3-27.6H5431.4z M5418.5,637l4.4,27h-14
			C5412.1,654.8,5415.4,645.7,5418.5,637L5418.5,637z M5423.7,670.1c-3.7,9.5-7.1,18.8-10.4,27.5l-5.3-27.5H5423.7z M5419.5,747.4
			h-16.6c2.7-8.8,5.8-18,9.2-27.6L5419.5,747.4z M5419.2,753.5c-3.5,9.5-6.7,18.9-9.7,27.9l-6.6-27.9H5419.2z M5419.5,833.2h-18.7
			c2.5-9.7,5.3-19.9,8.4-30.4L5419.5,833.2z M5419.5,839.4c-3.1,9.7-5.9,19.2-8.6,28.5l-9.8-28.5H5419.5z M5411.3,890.3l7.5,27.5
			h-13.9C5407,908.4,5409.1,899.2,5411.3,890.3L5411.3,890.3z M5418.7,923.9c-2.7,9.1-5.3,18.3-7.6,27.3l-6.2-27.3H5418.7z
			 M5423.1,931.2l10.4,30.3H5415C5417.4,951.6,5420.1,941.4,5423.1,931.2L5423.1,931.2z M5433.5,967.6c-3.4,9.7-6.3,19.1-8.7,27.8
			l-9.5-27.9L5433.5,967.6z M5425.7,1017.9l4.2,13.2h-6.5C5424,1027,5424.9,1022.6,5425.7,1017.9L5425.7,1017.9z M5438.1,973
			l13.5,29.9h-22.4C5431.7,993.5,5434.7,983.4,5438.1,973L5438.1,973z M5474.9,971.4l17.1,31.5h-31
			C5465,993.4,5469.6,982.8,5474.9,971.4L5474.9,971.4z M5479.9,967.6h33.7c-3.4,6.2-9.6,17.9-16.5,31.7L5479.9,967.6z M5497,1013.2
			l8.1,17.9h-16.5C5491.2,1025.6,5494,1019.6,5497,1013.2L5497,1013.2z M5501.9,1009.1h34.4l-10.1,22.1h-14.3L5501.9,1009.1z
			 M5541.2,1013.2c3.1,6.3,5.8,12.4,8.4,17.9h-16.5L5541.2,1013.2z M5524.7,967.6h33.8l-17.2,31.7
			C5534.2,985.3,5527.8,973.3,5524.7,967.6L5524.7,967.6z M5524.5,961.4l17.4-33.7c6,11.7,11.6,23,16.7,33.7H5524.5z M5524.3,881.4
			h34.7l-17.1,33C5534,899,5527.5,887,5524.3,881.4L5524.3,881.4z M5524.4,875.2l18.5-32.4c5.6,10.8,11,21.6,16.2,32.4H5524.4z
			 M5524.4,795.9h34.9l-16.4,33.8C5534.7,814,5528,802,5524.4,795.9L5524.4,795.9z M5577.5,747.4h-30.1l15.4-33
			C5567.9,725.3,5572.9,736.4,5577.5,747.4L5577.5,747.4z M5562.5,699c-4.7-9.9-9.5-19.6-14.3-29h25.7L5562.5,699z M5576.1,664
			h-30.5l14.9-34.3C5566,641.1,5571.2,652.7,5576.1,664L5576.1,664z M5560.2,614.4c-4.6-9.8-9.3-19.6-14.1-29.4h26.3L5560.2,614.4z
			 M5570.5,578.9h-26.1l13-30.2C5561.7,558.4,5566.1,568.4,5570.5,578.9L5570.5,578.9z M5557,532.2c-4.9-11-9.4-21.2-13.6-30.4h22.3
			L5557,532.2z M5564.4,495.7h-20.5l8.9-28.7C5556.6,476.6,5560.4,486.1,5564.4,495.7L5564.4,495.7z M5544.6,379.8
			c3.7,10.2,7.5,20.7,11.7,31.4h-16.7L5544.6,379.8z M5540.2,367.5l-0.1,0.7h-16.7l7.2-29.1C5533.5,348.1,5536.7,357.6,5540.2,367.5
			z M5527.6,290.6l-0.4,15.8c-1.5-5.8-2.8-11-4-15.8L5527.6,290.6L5527.6,290.6z M5519.1,299.9c2,7.9,4.5,16.9,7.5,26.7h-14.2
			C5515,317.2,5517.2,308.5,5519.1,299.9L5519.1,299.9z M5513.5,278.9l1.4,5.6h-3.7L5513.5,278.9z M5515,290.6
			c-1.1,5.4-2.5,10.8-4,16.9l-0.4-16.9H5515z M5514.8,368.2h-15.2c3.1-9.2,5.9-18.1,8.5-26.9L5514.8,368.2z M5502,281
			c1.5-1.9,2.9-3.6,4.3-5.2l-1.1,7.2l-0.7,1.5h-4.1L5502,281z M5499.3,290.6h2.6l-4.6,11.4L5499.3,290.6z M5504.7,300.5l0.7,26.1
			h-11.2L5504.7,300.5z M5504.2,332.7c-2.5,8.9-5.1,17.2-7.5,25l-3.6-25H5504.2z M5490.1,308.1l-3.2,18.6h-5L5490.1,308.1z
			 M5480.2,332.7h4.8l-5.2,12.9L5480.2,332.7z M5479.1,363.6l9-22.2l3.8,26.8h-12.9L5479.1,363.6z M5481.6,451.2h-13.2
			c3.2-7.7,6.3-15.6,9.3-23.2L5481.6,451.2z M5465.2,442.8l-2-25.6h12.2C5472.2,425.3,5468.8,433.6,5465.2,442.8L5465.2,442.8z
			 M5462.9,411.2l-0.1-7l10.4-25.7l2.2,32.6H5462.9L5462.9,411.2z M5465.9,347c2.2-5.2,4.3-10.1,6.3-14.3h0.4l-7,15.8L5465.9,347z
			 M5473.7,345.7l-0.6,16.6l-2.4,5.9h-7L5473.7,345.7z M5468.3,374.3l-5.8,14.1l-0.3-14.1H5468.3z M5465.2,495.7h-15.1l5.3-12.7
			l6.2-14.9L5465.2,495.7z M5459.7,451.2h-15.8l13.4-33L5459.7,451.2z M5456.3,385.3l0.4,17.6l-3.3,8.1h-8.4L5456.3,385.3z
			 M5442.2,417.2h8.6l-10.4,25.7l-2-17.1L5442.2,417.2z M5441.9,495.7h-16.1l11.7-28.8L5441.9,495.7z M5433.9,440.3l1.2,10.8h-4.3
			C5432,447.5,5432.9,443.9,5433.9,440.3L5433.9,440.3z M5424.7,474.9c1.2-5.2,2.5-10.1,3.7-14.7h5.1l-8.9,22L5424.7,474.9z
			 M5415.3,521.5l4.8-11.8l5,25.9l-12.1-0.1C5413.7,530.6,5414.5,525.9,5415.3,521.5L5415.3,521.5z M5412,541.7l12.7,0.1
			c-3.9,9.9-7.5,19.2-10.8,28.5l-3.4-18.7C5411,548.1,5411.5,544.9,5412,541.7L5412,541.7z M5407.8,571.3l1.4,7.7h-2.3
			C5407.2,576.4,5407.5,573.7,5407.8,571.3L5407.8,571.3z M5406.1,585.1h2.5c-1.2,3.6-2.5,7.2-3.7,10.8
			C5405.4,592.2,5405.8,588.5,5406.1,585.1L5406.1,585.1z M5411.8,594.8l4.2,27h-12.9C5405.7,613,5408.6,604.1,5411.8,594.8
			L5411.8,594.8z M5415.3,627.9c-3,8.1-6,16.8-9.3,26l-3.5-26H5415.3z M5399.7,654l1.2,10h-2C5399.2,660.5,5399.4,657.2,5399.7,654
			L5399.7,654z M5398.6,670.1h1.6c-0.7,2-1.3,3.9-2,5.8C5398.4,674,5398.5,672,5398.6,670.1L5398.6,670.1z M5396.8,704.7
			c0-1.8,0.1-3.6,0.2-5.4c2.2-6.7,4.4-13.4,6.6-20l5.2,27.2h-12.1L5396.8,704.7z M5396.4,713.4v-0.9h11.7c-3.1,8.9-6,17.5-8.6,25.4
			l-3.5-16.3C5396.3,718.8,5396.4,716.1,5396.4,713.4L5396.4,713.4z M5395,774.2c1-4,2.2-8.1,3.5-12.5l6.6,27.9h-10.2
			C5394.9,784.5,5395,779.4,5395,774.2L5395,774.2z M5394.9,795.8h10c-2.9,9.2-5.5,18.4-7.8,27.1l-2.1-9.2
			C5395,807.5,5395,801.6,5394.9,795.8L5394.9,795.8z M5395.8,854.9c0.5-2.5,1-5,1.6-7.5l9.5,27.6h-10.5
			C5396.3,868.2,5396.1,861.5,5395.8,854.9L5395.8,854.9z M5396.7,881.2h10.6c-2.3,9-4.6,18.2-6.8,27.7l-3-9.6
			C5397.2,893.2,5397,887.2,5396.7,881.2L5396.7,881.2z M5399.9,943.9c0.5-2.6,0.9-5.4,1.4-8l5.8,25.5h-6
			C5400.6,955.5,5400.3,949.7,5399.9,943.9L5399.9,943.9z M5401.4,967.4h5.7c-1.5,6.6-2.9,13.3-4.2,20.1
			C5402.4,980.8,5402,974.1,5401.4,967.4L5401.4,967.4z M5411.5,975.9l9.2,27h-14.3C5407.9,994.2,5409.5,985.2,5411.5,975.9
			L5411.5,975.9z M5408.1,1046.2c-0.2-2-0.4-3.9-0.6-5.8l-0.3-3.3h1.1c1,3.3,2.1,6.2,3,9.2H5408.1z M5416,1040.6l-1.1-3.4h1.6
			L5416,1040.6z M5417.2,1031.1h-4.3c-2.1-6.9-4.2-14.3-6.2-22.1h14.7C5419.5,1016.7,5418.2,1024.2,5417.2,1031.1L5417.2,1031.1z
			 M5421.6,1046.2l1.1-9.1h9.2l2.7,9.1H5421.6z M5440.4,1043.3l-2-6.2h3.8L5440.4,1043.3z M5436.5,1031l-7-22.1h22.5
			c-3.2,8.2-5.8,15.7-7.8,22.1H5436.5z M5445.9,1046.2l2.6-9.2h17.4l3.8,9.2H5445.9z M5476,1045.1l-3.3-7.9h6.6
			C5478.1,1039.9,5477,1042.6,5476,1045.1L5476,1045.1z M5470.2,1031l-9.2-22.1h31.2c-3.8,7.8-7.3,15.3-10.3,22.1H5470.2z
			 M5482.1,1046.2c1.1-2.8,2.5-5.9,3.8-9.2h22l4.2,9.2H5482.1z M5519.3,1046.2h-0.5l-4.2-9.2h8.8L5519.3,1046.2z M5526.1,1046.2
			l4.2-9.2h22c1.4,3.3,2.6,6.3,3.8,9.2H5526.1z M5562.2,1045.1c-1-2.5-2.2-5.3-3.3-7.9h6.6L5562.2,1045.1z M5568.1,1031h-11.8
			c-3-6.8-6.5-14.2-10.3-22.1h31.2L5568.1,1031z M5577.3,1002.7h-31l17.1-31.5C5568.6,982.6,5573.5,993,5577.3,1002.7L5577.3,1002.7
			z M5563.4,957c-5.1-10.6-10.7-21.7-16.5-33.3h31.7L5563.4,957z M5578.6,917.7H5547l16.9-32.6
			C5569.2,896.3,5574.2,907.2,5578.6,917.7L5578.6,917.7z M5563.9,871c-5.1-10.5-10.5-21.2-15.9-31.9h31.2L5563.9,871z
			 M5547.9,833.1l16.3-33.1c5.3,11,10.3,22.2,15.2,33.3L5547.9,833.1z"/>
		<path id="Vector_8" class="st6" d="M5624.7,453.7c-51.3-188.5-97.6-203.1-102.7-204.1l-1.2-0.3l-0.8,0.1l-0.8-0.1l-1.3,0.3
			c-1.5,0.4-3,0.9-4.3,1.6c2.5,5.7,4.9,11.7,7.3,17.9h0.1l-0.1,0.2c1.2,3.2,2.5,6.5,3.7,9.9l0.3-1.1l2.5,6.3v0.1h-1
			c2.5,7.1,5,14.5,7.3,22.2l0.2-6.6l10.8,26.5h-5.1c0.6,2.1,1.1,4.1,1.7,6.1h4.4l-1.6,10.8c1.3,5.1,2.6,10.3,4,15.7l2.7-17.9l11,27
			h-11.6c0.5,2.1,0.9,4.1,1.4,6.1h11.1l-3.8,25.8c-1.5-3.9-2.9-7.7-4.3-11.5c2.5,11.6,4.9,23.7,7.1,36c4.7,12,8.6,21.4,10.7,26.6h-6
			c0.5,2.9,0.9,5.9,1.4,8.9h5.8l-3.1,17.7c1.1,7.8,2.3,15.8,3.4,23.9h15.8l-3.9,29.3c-4-9.8-7.9-19.4-11.8-29c1,7.7,2.1,15.7,3,23.6
			l4.2,10.5h-3c0.3,2.1,0.5,4.1,0.7,6.1h4.8l0.1,0.3l-3.5,13.8c0.7,6,1.2,12.2,1.8,18.3l5.6-22.4c3.5,8.7,7,17.5,10.5,26.4h-15.7
			c0.2,2.1,0.4,4.1,0.6,6.1h15.9l-5.5,32.1c-3.1-7.5-6.3-15.2-9.6-23c0.6,6.6,1.1,13.2,1.6,19.9c1.1,2.6,2.2,5.3,3.3,7.9h-2.6
			c0.2,2.1,0.3,4.1,0.5,6.1h4.2l-3.6,9.1c0.3,4.8,0.7,9.6,0.9,14.4l6.3-16c4,9.8,7.8,19.3,11.3,28.6h-16.9c0.1,2.1,0.2,4.2,0.3,6.1
			h18.5l-10.3,27.2c-2.5-6-5.1-12.3-7.8-18.5c0.3,5.8,0.6,11.8,0.8,17.7c1.2,3.1,2.5,6.2,3.8,9.2l-0.3,0.6h-3.2
			c0.1,2.1,0.2,4.1,0.2,6.1h0.7l-0.6,1.4c0.2,5.3,0.4,10.6,0.5,15.9l6-15.7c4.5,11.4,8.9,22.5,12.9,33.3h-18.5
			c0,2.1,0.1,4.1,0.1,6.1h18.5l-11.2,30.5c-2.4-5.9-4.6-12-7.1-18c0.1,5.8,0.2,11.6,0.2,17.5c0.8,2.1,1.6,4.2,2.5,6.3h-2.4v6.1h2.6
			l-2.5,7.5c0,6.4,0,12.8-0.1,19.1l7.1-20.5c3.8,10.3,7.5,20.8,10.8,31.2h-18.1c0,2.1,0,4.2-0.1,6.1h18.2l-9.6,29.7
			c-2.7-7.3-5.7-14.6-8.8-22c-0.1,5.3-0.2,10.5-0.3,15.7c1.7,4.2,3.3,8.3,4.8,12.4h-5.1c-0.1,2.1-0.1,4.2-0.2,6.1h5.3l-5.8,14
			c-0.2,6-0.5,12.1-0.8,18l10.8-26.4c3.8,10.6,7.4,20.9,10.5,30.8h-21.5c-0.1,2.1-0.2,4.2-0.3,6.1h21.8l-10.8,31.3
			c-3.4-9.1-7.1-18.6-11.1-28.5c-0.3,4.9-0.5,9.7-0.8,14.5c2.7,6.8,5.3,13.5,7.5,20h-8.9c-0.1,2.1-0.3,4.2-0.4,6.1h8.9l-10.6,23.5
			c-0.7,8.9-1.4,17.5-2.2,26.2c1.9,5,3.5,9.5,4.8,13.8h-6c-0.2,2.1-0.4,4.2-0.6,6.1h8.6l2.7,9.1h-12.2c-0.5,4.9-1,9.7-1.5,14.4h66.1
			l0.7-6.5C5680.9,697.8,5638.5,504.5,5624.7,453.7z M5533.1,282.7l-1.4-8.7c1,1.1,2.1,2.3,3.1,3.5l3.1,7h-4.1L5533.1,282.7z
			 M5536.4,290.6h2.5l2,11L5536.4,290.6z M5548.2,307.5l8.5,19.1h-5.1L5548.2,307.5z M5553.6,332.7h5.1l1.9,17L5553.6,332.7z
			 M5644.3,755.2c-0.2-0.6-0.4-1.1-0.6-1.8h0.5C5644.3,754,5644.3,754.7,5644.3,755.2L5644.3,755.2z M5644.1,747.2h-1l0.9-4.3
			C5644,744.4,5644.1,745.8,5644.1,747.2L5644.1,747.2z M5643.3,716.4l-4.4,21.3c-2.6-7.9-5.5-16.5-8.7-25.4h12.9L5643.3,716.4z
			 M5619.5,923.8h13.9l-6.1,27.3C5624.9,942.1,5622.3,932.9,5619.5,923.8z M5631.8,1002.8h-14.4l9.2-27
			C5628.7,985.2,5630.4,994.1,5631.8,1002.8L5631.8,1002.8z M5619.5,917.7l7.5-27.5c2.3,9,4.4,18.2,6.4,27.5H5619.5z M5618.7,839.2
			h18.4l-9.8,28.5C5624.7,858.4,5621.8,848.8,5618.7,839.2z M5618.7,833.1l10.3-30.4c3.2,10.5,6,20.7,8.4,30.4H5618.7z
			 M5628.7,781.3c-3-9.1-6.2-18.5-9.7-27.9h16.3L5628.7,781.3z M5594.8,508.2c3.4,8.8,7,18.2,10.7,27.9H5591L5594.8,508.2z
			 M5582.4,459.9h13.7l-4,24.4C5588,473.6,5584.6,465.2,5582.4,459.9L5582.4,459.9z M5598.8,501.6h15l-5.1,25.7
			C5605.3,518.3,5601.9,509.7,5598.8,501.6L5598.8,501.6z M5610.7,550.4c3.7,10,7.2,19.5,10.3,28.3h-14.9L5610.7,550.4z
			 M5621.8,584.8l-4.3,27.6c-3.3-8.9-6.8-18-10.6-27.6H5621.8z M5619.9,636.7c3.5,9.4,6.6,18.4,9.6,27.1h-14L5619.9,636.7z
			 M5630.1,670l-5.3,27.5c-3.2-8.8-6.7-18.1-10.4-27.5H5630.1z M5626.2,719.7c3.3,9.6,6.4,18.9,9.2,27.6h-16.6L5626.2,719.7z
			 M5642.8,706.2h-13.3l5.2-27.2c2.8,8.3,5.5,16.3,8,24.2L5642.8,706.2z M5641.6,680.1c-1.1-3.4-2.3-6.8-3.5-10.1h2.8
			C5641.2,673.3,5641.4,676.7,5641.6,680.1L5641.6,680.1z M5639.5,648c0.4,5.3,0.8,10.7,1.1,15.9h-3.2L5639.5,648z M5632.4,653.7
			c-3-8.5-6.1-17.3-9.3-25.9h12.7L5632.4,653.7z M5622.3,621.7l4.2-26.9c3.5,10.1,6.3,19.1,8.7,26.9H5622.3z M5635.3,601.5
			c-1.7-5.2-3.6-10.7-5.7-16.5h3.8C5634.1,590.3,5634.8,595.9,5635.3,601.5L5635.3,601.5z M5631.5,568.7c0.5,3.3,0.8,6.7,1.2,10.1
			h-3.5L5631.5,568.7z M5629,551l-4.3,19.8c-3.2-8.9-6.7-18.5-10.4-28.5h13.4C5628.2,545.1,5628.6,548.1,5629,551L5629,551z
			 M5624.5,522.6c0.8,4.3,1.5,9,2.3,13.7h-13.6l5.6-27.8L5624.5,522.6z M5614.5,473.2v8.6l-8.9-21.6h5.6
			C5612.2,463.8,5613.4,468.2,5614.5,473.2L5614.5,473.2z M5608.7,451.2h-5.7l-0.6-21.5C5604.7,436.6,5606.8,443.7,5608.7,451.2
			L5608.7,451.2z M5613.5,495.6h-16.9l4.8-29.6L5613.5,495.6z M5596.6,438.1l-8.5-20.8h7.9L5596.6,438.1z M5594.3,411.1h-8
			l-1.7-21.7L5594.3,411.1z M5584.9,425.7l10.4,25.5h-14.2L5584.9,425.7z M5578.9,394.8l-8.4-20.5h6.8L5578.9,394.8z M5568.7,368.2
			l-2.2-19.3l8.6,19.3H5568.7z M5567.5,332.7l0.4,0.8l1.8,7l-3.5-7.7L5567.5,332.7z M5564.6,326.6h-0.8l-1.1-4.2L5564.6,326.6z
			 M5567.4,382.9l11.6,28.2h-15.7L5567.4,382.9z M5565.3,417.2h14.6l-4.1,26.9C5573.5,437.6,5569.7,428.4,5565.3,417.2L5565.3,417.2
			z M5573.5,495.7l5.1-28.9c2.7,6.8,6.7,16.9,11.3,28.9H5573.5z M5590.1,542.5h15.8l-4.6,27.9c-3.7-9.5-7.4-18.9-10.9-27.9
			L5590.1,542.5z M5603.5,593.4c3.8,9.9,7.4,19.2,10.8,28.2h-15.7L5603.5,593.4z M5597.7,627.9h17.4l-5.1,30.9
			C5606.2,648.7,5602,638.4,5597.7,627.9L5597.7,627.9z M5600.5,705.6l10.4-27.5c3.8,9.8,7.3,19.2,10.5,28.2h-20.7L5600.5,705.6z
			 M5603.3,712.5h18.5l-7.5,28.1C5610.9,731.4,5607.2,721.9,5603.3,712.5L5603.3,712.5z M5614.7,759.7c3.7,10.3,7.1,20.4,10.3,30.2
			h-21.1L5614.7,759.7z M5603.7,795.9h21.3l-10.4,30.8C5611.1,816.4,5607.5,806.1,5603.7,795.9L5603.7,795.9z M5614.5,846.5
			c3,9.7,5.9,19.3,8.5,28.7h-17.7L5614.5,846.5z M5605.2,881.4h17.7l-7.7,28.9C5612.1,900.7,5608.8,891,5605.2,881.4L5605.2,881.4z
			 M5615.2,931.3c3,10.3,5.8,20.5,8.1,30.3h-18.5L5615.2,931.3z M5623.1,967.6l-9.5,27.8c-2.5-8.7-5.3-18-8.7-27.8H5623.1z
			 M5615,1031.2h-6.5l4.2-13.3C5613.5,1022.6,5614.3,1027,5615,1031.2L5615,1031.2z M5600.2,973c3.5,10.5,6.5,20.6,9,29.9h-22.4
			L5600.2,973z M5598.1,1043.5l-1.8-6.2h3.8L5598.1,1043.5z M5594.4,1031.2c-2-6.5-4.6-14-7.8-22.1h22.5l-7,22.1H5594.4z
			 M5603.6,1046.3l2.9-9.2h9.2l1.1,9.2H5603.6z M5622.4,1040.7l-0.4-3.4h1.5C5623.1,1038.5,5622.7,1039.6,5622.4,1040.7
			L5622.4,1040.7z M5621.3,1031.1c-0.9-6.8-2.3-14.3-4.2-22.1h14.6c-2,7.8-4.2,15.3-6.2,22.1H5621.3z M5632.2,1040
			c-0.2,2.1-0.4,4.2-0.6,6.3h-4.6c0.9-2.8,2-5.8,3-9.2h2.4L5632.2,1040z M5633.3,1028.2l-0.3,2.8h-1c0.5-1.7,1-3.4,1.5-5.2
			C5633.4,1026.7,5633.3,1027.5,5633.3,1028.2L5633.3,1028.2z M5636.7,988.5c-0.2,0.8-0.4,1.6-0.6,2.5c-1.4-7.9-3-15.8-4.8-23.5h7
			C5637.7,974.6,5637.1,981.5,5636.7,988.5L5636.7,988.5z M5638.7,959.7l-0.1,1.6h-7.4l5.8-25.4c0.8,4.5,1.6,9.1,2.3,13.8
			C5639.1,953.1,5638.9,956.4,5638.7,959.7L5638.7,959.7z M5642.8,883.9c-0.1,3.7-0.3,7.3-0.4,11l-4.5,14.1
			c-2.2-9.5-4.3-18.8-6.8-27.7h11.8L5642.8,883.9z M5643.2,875.1h-11.7l9.5-27.6c1,4.5,1.9,8.9,2.6,13.1
			C5643.5,865.4,5643.3,870.3,5643.2,875.1L5643.2,875.1z M5644.7,807.6l-3.3,15.3c-2.3-8.8-4.9-17.8-7.8-27.1h11.2
			C5644.7,799.8,5644.6,803.6,5644.7,807.6L5644.7,807.6z M5633.3,789.7l6.6-27.9c1.7,6,3.3,11.9,4.7,17.5v10.5H5633.3L5633.3,789.7
			z"/>
	</g>
</g>
<polygon class="st5" points="1245.4,1034.9 1104.2,8.8 1100.8,53.8 1093,8.5 1088.5,29.5 1084.7,8.4 1075.1,54.4 1063.5,8.4 
	926.7,1034.9 "/>
<path class="st4" d="M1206.3,751.1l-7.4-53.6H971.7l-7.1,53.6H1206.3z M1125.4,162.5H1043l-0.6,4.5h83.6L1125.4,162.5z
	 M1123.8,151.4l-0.6-4.5h-78.1l-0.6,4.5H1123.8z M1121.6,135.7l-0.6-4.4h-73.9l-0.6,4.4H1121.6z M1119.5,120l-0.6-4.4h-69.7
	l-0.6,4.4H1119.5z M1117.3,104.4l-0.6-4.5h-65.4l-0.6,4.5H1117.3z M1115.3,88.7l-0.6-4.5h-61.2l-0.6,4.5H1115.3z M1113.1,73
	l-0.6-4.5h-57l-0.6,4.5H1113.1z M1130,196h-91.6l-1.2,8.9h93.9L1130,196z M1148.2,328.8h-127.4l-2.4,17.9h132.3L1148.2,328.8z"/>
<polygon class="st7" points="926.7,1034.9 1063.5,8.4 1075.1,54.4 1051.6,1034.9 "/>
<path class="st2" d="M964.5,751.1l7.1-53.6h88l-1.2,53.6H964.5z M1072.6,162.5H1043l-0.6,4.5h30.1L1072.6,162.5z M1044.5,151.4
	l0.6-4.5h27.9l-0.1,4.5H1044.5z M1046.6,135.7l0.6-4.4h26.2l-0.1,4.4H1046.6z M1048.6,120l0.6-4.4h24.5l-0.1,4.4H1048.6z
	 M1050.7,104.4l0.6-4.5h22.8l-0.1,4.5H1050.7z M1052.8,88.7l0.6-4.5h21l-0.1,4.5H1052.8z M1054.8,73l0.6-4.5h19.3l-0.1,4.5H1054.8z
	 M1071.7,196.1h-33.2l-1.2,8.9h34.2L1071.7,196.1z M1068.6,329h-47.7l-2.4,17.9h49.7L1068.6,329z"/>
<polygon class="st6" points="1100.8,53.8 1188.9,1034.9 1245.4,1034.9 1104.2,8.8 "/>
<path class="st3" d="M1158.7,697.5l4.8,53.6h42.9l-7.4-53.6H1158.7z M1125.4,162.5h-14.8l0.4,4.5h14.8L1125.4,162.5z M1102.3,68.7
	l0.4,4.5h10.4l-0.6-4.5H1102.3z M1103.7,84.4l0.4,4.5h11.2l-0.6-4.5H1103.7z M1105,100.1l0.4,4.5h11.9l-0.6-4.5H1105z M1106.5,115.7
	l0.4,4.4h12.7l-0.6-4.4H1106.5z M1107.9,131.4l0.4,4.4h13.4l-0.6-4.4H1107.9z M1109.3,147l0.4,4.5h14.3l-0.6-4.5H1109.3z
	 M1130.1,196.3h-16.4l0.8,8.9h16.8L1130.1,196.3z M1148.3,329.1h-22.7l1.6,17.9h23.5L1148.3,329.1z"/>
<path class="st1" d="M5311.2,1067.1v-63.3h-3.5v-8.2H5297v8.2h-4.2v-8.2H5282v8.2h-4.2v-8.2H5267v8.2h-4.2v-8.2H5252v8.2h-4.2v-8.2
	H5237v8.2h-4.2v-8.2h-7.1v-38.9h1.6v-4.1h-1.6v-23.3h1.6v-4.1h-1.6v-23.4h1.6v-4.1h-1.6v-23.5h1.6V870h-1.6v-23.4h1.6v-4.1h-1.6
	v-37.2h3.4v-3.9h1.4v-3.4h-8.7v-7.6h1.8v-3.6h1.3v-3.1h-7.8v-40.1h2.4v-3.5h1.1v-3.1h-3.6V714h2.4v-3.5h1.2v-3.1h-3.6v-59.3h2.4
	v-3.5h1.2v-3.1h-3.6v-52.8h2.4v-3.5h1.2v-3.1h-3.1V571h1.9v-2.6h-0.8c0-1.5,0.3-3.4-1-4.6c-0.8-0.8-2.2-1.3-3-2.1
	c1-0.4,2-1.2,1.7-2.4c-0.1-0.8-0.6-1.4-1.2-1.7c-0.5-0.2-1.3-0.2-1.7-0.6h1.8v-6.8h-1.3l-4.2-28.5h0.7v-1.4h-1l-0.5-3.4h1v-1.4h-1.2
	l-0.2-1.5h1v-1.4h-1.2l-0.5-3.2c0.7-0.1,1.1-0.8,1-1.6c-0.1-0.7-0.8-1.2-1.5-1c-0.7,0.1-1.1,0.8-1,1.6c0.1,0.5,0.5,0.9,1,1l-0.5,3.2
	h-1.1v1.4h1l-0.2,1.5h-1.1v1.4h1l-0.5,3.4h-0.9v1.4h0.7l-4.2,28.5h-1.3v6.8h1.8c-0.4,0.4-1.3,0.4-1.7,0.6c-0.7,0.3-1.2,1-1.3,1.8
	c-0.2,1.2,0.7,2,1.7,2.4c-0.8,0.8-2.2,1.3-3,2.1c-0.1,0.1-0.2,0.2-0.3,0.4l-3.5-3.7l-3.8,4v4h-3.1v-4l-3.8-4l-3.8,4v4h-3.1v-4
	l-3.8-4l-3.8,4v4h-3.1v-4l-3.8-4l-3.8,4v4h-3.1v-4l-3.8-4l-3.5,3.7c-0.1-0.1-0.2-0.3-0.3-0.4c-0.8-0.8-2.2-1.3-3-2.1
	c1-0.4,2-1.2,1.8-2.4c-0.1-0.8-0.6-1.4-1.3-1.8c-0.5-0.2-1.3-0.2-1.8-0.6h2v-6.8h-1.3l-4.2-28.5h0.7v-1.4h-1l-0.5-3.4h1v-1.4h-1.2
	l-0.2-1.5h1v-1.4h-1.2l-0.5-3.2c0.7-0.1,1.1-0.8,1-1.5c0,0,0,0,0,0l0,0c-0.2-0.7-0.8-1.2-1.5-1c-0.7,0.1-1.1,0.8-1,1.5
	c0.1,0.5,0.5,1,1,1.1l-0.5,3.2h-1.2v1.4h1l-0.2,1.5h-1.2v1.4h1l-0.5,3.4h-1v1.4h0.7l-4.2,28.5h-1.3v6.8h1.8
	c-0.4,0.4-1.3,0.4-1.7,0.6c-0.7,0.3-1.1,1-1.2,1.8c-0.3,1.2,0.7,2,1.7,2.4c-0.8,0.8-2.2,1.3-3,2.1c-1.2,1.2-1,3-0.9,4.6h-0.9v2.6
	h1.9v11.1h-3.1v3.1h1.2v3.5h2.4v52.8h-3.6v3.1h1.2v3.5h2.4v59.3h-3.6v3.1h1.2v3.5h2.4v23.3h-3.6v3.1h1.2v3.5h2.4v26h-7.3l-27.3-47.1
	c1-0.4,1.5-1.5,1.2-2.6c0,0,0,0,0,0l0,0c-0.3-0.8-1.1-1.4-2-1.3h-0.8v-3.3c1.4-0.5,2.2-2.1,1.8-3.6c-0.3-0.9-0.9-1.6-1.8-1.8v-3.3
	h1.8c0.6,0,1-0.5,1-1.1c0-0.6-0.4-1.1-1-1.1h-1.8v-2.6c0-0.5-0.5-0.9-1-0.8c-0.4,0-0.8,0.4-0.8,0.8v2.5h-1.8c-0.6,0-1,0.5-1,1.1
	c0,0.6,0.4,1.1,1,1.1c0,0,0,0,0,0h1.8v3.3c-1.4,0.5-2.2,2.1-1.8,3.6c0.3,0.9,0.9,1.6,1.8,1.8v3.3h-0.8c-1.1-0.1-2,0.8-2.1,1.9
	c-0.1,0.9,0.5,1.7,1.3,2l-27.3,47.1h-6.7v-26h2.4v-3.5h1.1v-3.1h-3.6V714h2.4v-3.5h1.2v-3.1h-3.6v-59.3h2.4v-3.5h1.2v-3.1h-3.6
	v-52.8h2.4v-3.5h1.2v-3.1h-3.2v-11.1h1.9v-2.6h-0.8c0-1.5,0.3-3.4-1-4.6c-0.8-0.8-2.2-1.3-3-2.1c1-0.4,2-1.2,1.8-2.4
	c-0.1-0.8-0.6-1.4-1.3-1.8c-0.5-0.2-1.3-0.2-1.7-0.6h1.8v-6.8h-1.2l-4.2-28.5h0.7v-1.4h-1l-0.5-3.4h1v-1.4h-1.2l-0.2-1.5h1v-1.4
	h-1.2l-0.5-3.2c0.7-0.1,1.1-0.8,1-1.5c-0.1-0.7-0.6-1.1-1.3-1.1c-0.7,0-1.3,0.6-1.3,1.3c0,0,0,0,0,0l0,0c0,0.6,0.4,1.2,1,1.3
	l-0.5,3.2h-1.2v1.4h1l-0.2,1.5h-1.2v1.4h1l-0.5,3.4h-1v1.4h0.8l-4.1,28.5h-1.3v6.8h1.8c-0.4,0.4-1.3,0.4-1.7,0.6
	c-0.7,0.3-1.2,1-1.3,1.8c-0.3,1.2,0.7,2,1.7,2.4c-0.8,0.8-2.1,1.3-3,2.1c-0.1,0.1-0.2,0.2-0.3,0.4l-3.5-3.7l-3.8,4v4h-3.1v-4l-3.8-4
	l-3.8,4v4h-3.1v-4l-3.8-4l-3.8,4v4h-3.1v-4l-3.8-4l-3.8,4v4h-3.1v-4l-3.8-4l-3.5,3.7c-0.1-0.1-0.2-0.3-0.3-0.4
	c-0.8-0.8-2.2-1.3-3-2.1c1-0.4,2-1.2,1.7-2.4c-0.1-0.8-0.6-1.4-1.3-1.8c-0.5-0.2-1.3-0.2-1.7-0.6h1.9v-6.8h-1.3l-4.1-28.5h0.7v-1.4
	h-1l-0.5-3.4h1v-1.4h-1.2l-0.2-1.5h1v-1.4h-1.2l-0.5-3.2c0.7-0.1,1.1-0.9,1-1.6c-0.1-0.7-0.8-1.2-1.5-1c-0.7,0.1-1.1,0.9-1,1.6
	c0.1,0.5,0.5,0.9,1,1l-0.5,3.2h-1.2v1.4h1l-0.2,1.5h-1.2v1.4h1l-0.5,3.4h-1v1.4h0.7l-4.1,28.5h-1.3v6.8h1.8
	c-0.4,0.4-1.3,0.4-1.7,0.6c-0.7,0.3-1.2,1-1.2,1.8c-0.3,1.2,0.7,2,1.8,2.4c-0.8,0.8-2.2,1.3-3,2.1c-1.2,1.2-1,3-1,4.6h-0.8v2.6h1.9
	v11.1h-3.1v3.1h1.2v3.5h2.4v52.8h-3.6v3.1h1.2v3.5h2.4v59.3h-3.6v3.1h1.2v3.5h2.4v23.3h-3.6v3.1h1.2v3.5h2.4v40.1h-7.8v3.1h1.3v3.5
	h1.8v7.6h-8.7v3.4h1.4v3.9h3.4v61.8h-32.4l-2.5-17.9l-2.5,18.5l-5.4-31.9l-5.6,33.6l-1.8-10.1l-5.9,32.8h-2.6v16.7h-4.5v60.1h-3.6
	v98.3L5311.2,1067.1z"/>
</svg>
