<svg xmlns="http://www.w3.org/2000/svg" viewBox="0 0 1180.82 897.88"><defs><style>.cls-1,.cls-9{fill:#00b0ff;}.cls-1,.cls-8{opacity:0.1;}.cls-1,.cls-5{isolation:isolate;}.cls-2{fill:#ced7e7;}.cls-3{fill:#fed253;}.cls-4{fill:#ffa2a2;}.cls-5{opacity:0.05;}.cls-6{fill:#63667e;}.cls-7{fill:#896363;}.cls-10{fill:#d0cde1;}.cls-11{fill:#fff;}</style></defs><title>manager</title><g id="Layer_2" data-name="Layer 2"><g id="ad467010-4b2c-4db1-84f0-cd2022f75deb"><path class="cls-1" d="M221.84,741.06c24.16,54.81,73.25,91.46,124.1,115.63a425.76,425.76,0,0,0,127.77,37.48q12.65,1.65,25.38,2.56a447.78,447.78,0,0,0,65.11-.08q19.56-1.42,39-4.57a458.3,458.3,0,0,0,130.34-41.72q18-8.9,35.19-19.41a448.27,448.27,0,0,0,55-39.54q5.79-4.86,11.43-9.93l1.54-1.39c3-2.68,5.89-5.42,8.86-8.08a130.67,130.67,0,0,1,15.71-12.38c.37-.24.74-.48,1.12-.71,1-.65,2.06-1.26,3.11-1.84a72,72,0,0,1,6.68-3.24c10.51-4.4,21.76-6,33.17-5.73,1.89,0,3.79.14,5.69.28h0c2.65.2,5.32.5,8,.88l1,.15a167.06,167.06,0,0,1,25,5.91c12.68,4,25.14,9,37.68,13.51h0c5.32,1.93,10.65,3.77,16,5.42l1.19.36a160.1,160.1,0,0,0,23.3,5.36,118.58,118.58,0,0,0,53.32-4.72l.6-.19,1.11-.36,1.52-.52c2.54-.88,5.07-1.84,7.57-2.89l1.52-.64c2.43-1,4.8-2.13,7.13-3.31l1.52-.76c2.42-1.24,4.8-2.55,7.12-3.93.84-.48,1.66-1,2.48-1.49q3.72-2.28,7.28-4.78,3.78-2.65,7.41-5.53,1.67-1.32,3.31-2.71a152.93,152.93,0,0,0,17.62-17.47c.3-.33.58-.67.86-1,1.45-1.72,2.87-3.47,4.24-5.26.51-.66,1-1.32,1.52-2,1.63-2.19,3.21-4.42,4.72-6.71.23-.33.45-.67.67-1a149.22,149.22,0,0,0,15.34-30.5c.13-.33.25-.67.36-1q1.82-5.15,3.32-10.47c.41-1.48.8-3,1.15-4.48.11-.44.22-.89.32-1.33,5-21.73,5.6-44.32,5.6-66.78V592.3c-.15-36.33-.66-73.28-5.53-109.11a6,6,0,0,0-.1-.74q-2.46-18.09-6.65-35.82a282.81,282.81,0,0,0-11.2-36.3c-11.22-29-27.53-55.39-45.64-79.85-21.84-29.43-46.86-56.59-74.72-79q-6-4.83-12.17-9.38l-1.9-1.37c-.67-.49-1.33-1-2-1.43h0c-1.36-1-2.73-1.94-4.11-2.89l-1.55-1.06-2.94-2-.91-.57-1.58-1-1.55-1q-2.73-1.77-5.52-3.46Q990.81,220,978.33,214q-3.69-1.78-7.42-3.45A246.18,246.18,0,0,0,936.21,198q-6.56-1.81-13.18-3.2-7.83-1.67-15.73-2.75A227.89,227.89,0,0,0,882,190c-59.42-1.59-119.45,19.67-166,60.42-18.56,16.24-35.24,35.47-56.08,47.92-18.2,10.84-39.49,15.33-59,6.8-16.1-7.05-26.58-10.55-44.67-9.48A345.57,345.57,0,0,0,446.83,320.8c-1.42.57-2.84,1.16-4.25,1.75C351,361.1,272.19,437.65,231.27,536q-1.62,3.9-3.16,7.86C203.7,606.53,194.9,680,221.84,741.06Z"/><path class="cls-2" d="M766.84,750.34s-47.2-17.47-37.43-79.37l60-17.11,13.91,50.79Z"/><path class="cls-3" d="M1001.61,247.35s-6.37,11.39-15.08,5.7-.35-21.41-.35-21.41S1002.85,229.13,1001.61,247.35Z"/><path class="cls-4" d="M762.2,668.06,729.45,671l-61,.55,48,65s15.24.91,18.38,3.27,47.21,1.1,47.21,1.1l7.11-33.32Z"/><path class="cls-5" d="M762.2,668.06,729.45,671l-61,.55,48,65s15.24.91,18.38,3.27,47.21,1.1,47.21,1.1l7.11-33.32Z"/><path class="cls-2" d="M795.32,493.3l-7.61,14.2-1.66,24.76s-5.3,21.11-9.28,27.3-5.63,22.58-5.63,22.58-1.65,15.29-3.64,18.56-4.64,27-4.64,27S745.31,666.29,729.41,671c0,0,78.83,28.4,37.43,79.37,0,0,29.48,8,36.44-1.09s25.17-143.81,25.17-143.81l-5.63-113.6Z"/><path class="cls-5" d="M795.32,493.3l-7.61,14.2-1.66,24.76s-5.3,21.11-9.28,27.3-5.63,22.58-5.63,22.58-1.65,15.29-3.64,18.56-4.64,27-4.64,27S745.31,666.29,729.41,671c0,0,78.83,28.4,37.43,79.37,0,0,29.48,8,36.44-1.09s25.17-143.81,25.17-143.81l-5.63-113.6Z"/><path class="cls-4" d="M891,354.91a85.43,85.43,0,0,1-1.92,37.9l12.27,38.59s93.4-57.16,85.45-71c-4.5-7.85-5.08-28.62-4.71-45.12.26-12.54,1.07-22.6,1.07-22.6s-114.63,12.39-99.37,41.15A72.36,72.36,0,0,1,891,354.91Z"/><path class="cls-4" d="M844.09,282c14.44,55.26,59.15,91.45,99.86,80.83s62-64,47.58-119.29c-5.43-20.75-15.47-39.75-28.74-54.37-1.56-1.71-3.17-3.37-4.81-5-9.41-9.11-19.89-15.81-30.78-19.66h0a63.34,63.34,0,0,0-17.8-3.64c-43-2.37-74.09,41.37-69.39,97.7.2,2.38.46,4.75.79,7.13A139.77,139.77,0,0,0,844.09,282Z"/><path class="cls-2" d="M806.92,620.74c1.16,6.78-.29,19.17-2.48,31.78-.09.55-.19,1.1-.29,1.65s-.25,1.4-.37,2.09c-1,5.42-2.11,10.79-3.19,15.67s-2,9.06-2.85,12.5c-1.24,5.15-2.09,8.39-2.09,8.39s-.11,3.18-.25,8.24c-.08,2.92-.18,6.48-.27,10.41,0,1.14-.06,2.3-.09,3.5,0,2.09-.09,4.26-.13,6.48,0,.72,0,1.44,0,2.17,0,2.39-.08,4.83-.12,7.26,0,3.34-.08,6.68-.1,9.92v12.46c.1,7.75.38,13.6,1,15.29.21.58.4,1.21.59,1.87a68.56,68.56,0,0,1,1.71,9.47l1.54-1.39c3-2.68,5.89-5.42,8.86-8.08A130.67,130.67,0,0,1,824,758c.37-.24.74-.48,1.12-.71,1-.65,2.06-1.26,3.12-1.84a66.09,66.09,0,0,1,6.67-3.24c10.51-4.4,21.76-6,33.17-5.73,4.55,1.91,7.51,3.28,7.51,3.28l5.78,1.92,1,.32c6.27,2.1,15.08,5.08,18.26,6.32,5.13,2,49.68,12.19,49.68,12.19a67.85,67.85,0,0,0,12.42,2.5,163.38,163.38,0,0,0,23.3,5.36,118.7,118.7,0,0,0,53.32-4.72,8,8,0,0,0,1.55-.05,4.33,4.33,0,0,1-.91-.14l1.11-.36,1.52-.52c2.55-.88,5.07-1.84,7.58-2.89l1.52-.64c2.42-1,4.8-2.13,7.12-3.31l1.52-.76c2.42-1.24,4.8-2.55,7.12-3.93.84-.48,1.67-1,2.49-1.49q3.71-2.28,7.27-4.78c.4-3.77.61-6.29.61-6.29l3.55-19.42.18-1,2.55-14,.18-1,5.54-30.46.18-1,2.55-14,.18-1,5.62-30.44.18-1,2.55-14,.18-1,5.57-30.5.18-1,2.54-14,.19-1,1-5.5,1.52-8.33s4.84-7.62,10.3-16.63l.61-1c1.56-2.53,3.16-5.16,4.71-7.74.52-.85,1-1.69,1.52-2.52.76-1.26,1.5-2.49,2.21-3.69l.49-.83.1-.17c7.84-13.34,2.59-19.14,2.59-19.14s-3.29-4.9-7.54-11.38c-.21-.33-.43-.66-.66-1-1.82-2.8-3.82-5.86-5.78-8.92l-1.52-2.38c-.58-.89-1.14-1.78-1.69-2.66l-.62-1c-4.2-6.66-7.65-12.47-8.36-14.53-1.11-3.25-8.19-12.86-15.24-21.29-5.56-6.66-11.09-12.58-13.57-14-5.64-3.27-8-13.84-8-13.84s-12.25-4.72-13.91-8.36-24.84-20-24.84-20-9.38-6.64-13.17-10.64a8.46,8.46,0,0,1-1.4-1.79c-1.31-2.6-9.93-4.74-13.43-5.51l-1.48-.31a32.34,32.34,0,0,0-5.3-7.65c-1.43-1.39-3.21-6.18-4.71-10.82-1.63-5.06-2.9-9.93-2.9-9.93-2.65-9.83-8-6.92-8-6.92a22.35,22.35,0,0,1-.34,4h0c-2.21,12-14.22,17-20.53,22.61-7,6.18-17.88,22.21-26.5,25.48-7.13,2.71-15.4,12.93-18,16.34l-.2.26c-.44.56-.65.88-.65.88s-4.89-.28-7.86-.34h-1.09a3.07,3.07,0,0,1-1.65-.74c-3-2.21-7.36-8.69-9.28-10.18-2.31-1.83-4.64-31.32-4.64-31.32l-.12-.06c-8.25-4.25-17.1,38.29-17.1,38.29s-15.57,5.1-16.9,8.74a12.44,12.44,0,0,1-3.19,3.55,174.47,174.47,0,0,1-25.56,17.85c-.2.11-.39.22-.59.31s-.37.2-.56.29l-1,.49c-.49.24-.95.44-1.37.6l-.54.21a12.55,12.55,0,0,0-3.64,2.07c-.33.26-.66.53-1,.82a27.75,27.75,0,0,0-3.4,3.76l-.44.61h0a31.77,31.77,0,0,0-1.82,2.76,42.2,42.2,0,0,0-2.29,4.18S799,472.23,794.69,475.13s-7,32.41-7,32.41h0l14.55,59.31s.69,15,2,30.3C805,605.73,805.85,614.46,806.92,620.74Z"/><path class="cls-6" d="M916.56,406.65s9.76,5.82,17.38,6.37a13,13,0,0,0,3-.19c8-1.33,19.7-8.55,19.7-8.55l-13.75-16.57-16.72,9.11L920,403.11Z"/><path class="cls-7" d="M836.82,252.45a11.25,11.25,0,0,0,2.73,5.2c4.78,5,13.28,2.92,19.8,1.76a66.49,66.49,0,0,0,16.5-5.2c4.6-2.15,10.12-4.79,14.26-1.69,1.59,1.18,2.68,3.07,4.34,4.11s3.77,1.11,5.72,1.13c6.37.05,12.74.09,19-1.49,9.27-2.39,18.86-8.37,27.68-4.43,6.89,3.08,10.63,11.34,12.5,19.27.91,3.89,1.58,8,3.63,11.29s6,5.65,9.42,4.1c5-2.29,5.73-11.61,11.75-12.08,6.62-.51,6.54,7,4.61,12.43-3.39,9.47-8,18.89-6.48,28.93,1.5,0,4-.06,5.46-.1-1.15-2.15,1-4.71,3.21-5.44s4.71-.72,6.37-2.46,1.66-4.43,1.49-6.84A51,51,0,0,0,995.37,286c-1.19-3-2.73-6.25-1.82-9.39a27.45,27.45,0,0,1,2-4.09c1.89-4,1.45-9-.17-13.13-.69-1.76-1.19-3.42-1.77-5a22.84,22.84,0,0,0-3.1-6.23c-2.08-2.85-4.12-7.14-1.82-9.79.59-.67-.58-1.13-.21-2a1.59,1.59,0,0,0,.14-.47,4.87,4.87,0,0,0-.65-3,7.12,7.12,0,0,0-.36-.67,5.19,5.19,0,0,0-.35-.66,31,31,0,0,0-7.87-9.43c-2-1.57-4.29-3.08-5.07-5.62-.91-3,.69-6.19.83-9.36.32-7.13-6.71-12.1-13.15-13s-13.12.59-19.39-1.24c-8.91-2.58-15.17-11.22-23.26-16.07a30.28,30.28,0,0,0-28.93-1.14c-9.44,4.74-16.56,14.32-26.42,17.92-3.5,1.28-7.28,1.79-10.43,3.91-3.64,2.46-5.85,6.76-7.74,11-2.89,6.43-3.47,12.89-5.46,19.7-1.58,5.4-3.78,12.46-4,18.68A20.52,20.52,0,0,0,836.82,252.45Z"/><g class="cls-8"><path d="M987.47,239.92a4.85,4.85,0,0,1,.68-3.74c-.23.78.79,1.23.23,1.88A4.17,4.17,0,0,0,987.47,239.92Z"/><path d="M988.18,233.89h0a4.37,4.37,0,0,1,.19,1.08C988.2,234.65,988,234.32,988.18,233.89Z"/><path d="M839.29,255.21c4.8,5,13.28,2.93,19.83,1.76a65.94,65.94,0,0,0,16.47-5.23c4.61-2.16,10.13-4.8,14.27-1.7,1.59,1.18,2.68,3.07,4.34,4.11s3.77,1.11,5.73,1.13c6.36,0,12.73.09,19-1.5,9.26-2.38,18.84-8.35,27.66-4.42,6.9,3.09,10.64,11.34,12.5,19.27.91,3.89,1.57,8,3.64,11.3s6,5.64,9.41,4.1c5-2.3,5.74-11.61,11.76-12.08,4.7-.37,6,3.33,5.69,7.44-.27-3.14-1.82-5.56-5.69-5.26-6,.47-6.76,9.79-11.76,12.08-3.37,1.55-7.35-.78-9.41-4.1s-2.73-7.41-3.64-11.29c-1.86-7.93-5.6-16.19-12.5-19.27-8.82-3.94-18.4,2-27.66,4.42-6.19,1.59-12.61,1.54-19,1.49a10.64,10.64,0,0,1-5.73-1.12c-1.7-1.06-2.73-2.93-4.34-4.12-4.14-3.09-9.66-.45-14.27,1.7a66.38,66.38,0,0,1-16.47,5.24c-6.55,1.16-15,3.25-19.83-1.77-2.6-2.73-3.38-6.68-3.21-11C836.23,249.82,837.14,252.93,839.29,255.21Z"/><path d="M974.79,205.35a10.75,10.75,0,0,1,.05,1.5c-.09,2.08-.81,4.16-1,6.19C973.47,210.55,974.52,208,974.79,205.35Z"/><path d="M993.27,276.3a9.12,9.12,0,0,0-.17.91,7.84,7.84,0,0,1,.17-3.09,27.14,27.14,0,0,1,2-4.1,13.35,13.35,0,0,0,1.19-4.75,14.3,14.3,0,0,1-1.19,6.94A25.69,25.69,0,0,0,993.27,276.3Z"/><path d="M982,313.28l5.33-.09a2.76,2.76,0,0,0,.16,2.18c-1.5,0-4,.06-5.46.1a27.19,27.19,0,0,1-.26-5.18A27.16,27.16,0,0,0,982,313.28Z"/><path d="M990.69,307.75c2.18-.72,4.7-.73,6.32-2.48a6.67,6.67,0,0,0,1.51-4.19c.14,2.3,0,4.78-1.51,6.38-1.62,1.75-4.14,1.76-6.32,2.48a5.56,5.56,0,0,0-3.3,3C986.47,310.87,988.58,308.44,990.69,307.75Z"/></g><path class="cls-6" d="M824.05,758l1.13-.71c1-.65,2.06-1.26,3.11-1.84a67.3,67.3,0,0,1,6.68-3.24c10.51-4.4,21.76-6,33.17-5.73,4.55,1.91,7.51,3.28,7.51,3.28l5.78,1.92.21-2.11c.07-.71.13-1.28.18-1.92,2-21.16,3.64-42.85,3.64-42.85V683.65l.11-55.31.91-17.46.18-3.62.13-2.45.16-3.24.17-3.29.12-2.37v-.52a.21.21,0,0,1,.06-.17c.17-.54.38-1.36.61-2.4l.11-.5c0-.23.1-.48.14-.73h0c1.71-8.53,4.22-26.92,4.36-30.37.16-4.2,3.48-29.32,3.48-29.32.33-13.83,10.91-39.87,13.58-44.78s5.63-34.41,4.64-36c-.57-1-.91-7.07-1.13-12.08v-1.16c-.12-3.09-.16-5.5-.16-5.5l-9.68-2.1-2.46-.53-.38-.08-.91-.2s-1.19,2.42-2.62,5.75l-.18.42c-2.09,4.94-4.55,11.66-4.48,15.48.16,6.56-6.63,22.4-6.63,22.4-.66,3.64-15.07,39.86-15.07,39.86s-11.76,35.5-11.1,41.33-5.63,44.42-5.63,44.42l-6.46,39.69c-3.13,7.82-7.27,25.84-7.27,25.84l-1.47,9.52-.3,1.93L835,697.63l-3,19.83s-.91,7.07-2.16,15c-.12.72-.24,1.44-.37,2.17A118.48,118.48,0,0,1,826,750.05,67.38,67.38,0,0,0,824.05,758Z"/><path class="cls-3" d="M832.26,244.45s3.48,4.92,6.61,4.92,15.36-.55,21.73-2.73,37.59-3.83,37.59-3.83,44.21.18,45.7-1.46S971.39,231,974,231.52c.56.12,1.91.38,3.72.71l2.08.37c3.14.55,7.06,1.19,10.64,1.66,4.43.57,8.33.86,9.56.36v-4.19s-5.13-8.2-5.45-10.55-4.64-36.42-15.91-48.61a46.39,46.39,0,0,0-21.36-22c-15.24-7.29-30.47-13.47-30.47-13.47l-2.67-.42-8.6-1.4a6.17,6.17,0,0,0-.84-.78c-2.39-2-9.61-6.35-19,3L894,139.12s-29,7.46-42.38,33.49-14.09,51.52-15.08,63.17c0,0,.67,3.28-.66,4.55-.48.47-.94,1-1.38,1.48-.12.13-.23.26-.34.4-.38.42-.74.86-1,1.22a.28.28,0,0,0-.09.1l-.23.27Z"/><path class="cls-5" d="M832.26,244.45s3.48,4.92,6.61,4.92,15.36-.55,21.73-2.73,37.59-3.83,37.59-3.83,44.21.18,45.7-1.46S971.39,231,974,231.52c.56.12,1.91.38,3.72.71l.48-3.2.12-.79s-50.19-11.83-83.64-5.63-58.13,13.1-58.13,13.1.67,3.28-.66,4.55c-.48.47-.94,1-1.38,1.48-.12.13-.23.26-.34.4-.38.42-.74.86-1,1.22a.28.28,0,0,0-.09.1l-.23.27Z"/><path class="cls-3" d="M1000.35,248.82s11.1-9.29-3.31-15.48c0,0-25.17-8.55-44.22,2,0,0-10.26,5.27-17.22,5.27s-63.59.55-76.85,4.74a53.34,53.34,0,0,1-8,1.86,31.64,31.64,0,0,1-20.44-4.27c-.91-.55-1.73-.83-2-.51-.82,1.1-.17,7.47,7.12,8.74,5.68,1,18.6-.89,24-1.76,1.41-.23,2.81-.52,4.21-.85,5.36-1.28,21.83-4.87,31.88-3.21,12.08,2,46.21-1.64,46.21-1.64s21-4.73,29.47-8.56S1003.5,234.62,1000.35,248.82Z"/><path class="cls-4" d="M1038.77,766.73s-29.48,6-44.88,4.91c0,0-28.32,1.64-43.56-3.27,0,0-44.57-10.2-49.68-12.2s-25-8.56-25-8.56S836.89,729.77,826,732.68c0,0-85.78-24.39-79.65-57.34s60.28-25.48,77.33-13.11,14.55,13.66,23,15.66c0,0,17.56,4.73,25.67,4.55s44.39,6.19,44.39,6.19,28.48,1.46,46-4.55,21-.73,21-.73Z"/><path class="cls-2" d="M976.84,681.21h0a7.2,7.2,0,0,0,.51,2.2c3.48,9.43,23.33,34.9,23.33,34.9a75.09,75.09,0,0,0,3.27,8.82,129.44,129.44,0,0,0,7.43,14.27,235,235,0,0,0,18.9,26.9l.21.25s.8.67,2.08,1.53a22.49,22.49,0,0,0,7.41,3.42l1.11-.36,1.52-.52c2.55-.88,5.07-1.84,7.58-2.89l1.52-.64c2.42-1,4.8-2.13,7.12-3.31l1.52-.76q3.64-1.86,7.12-3.93c.84-.48,1.67-1,2.49-1.49q3.7-2.28,7.27-4.78,3.8-2.66,7.41-5.53,1.68-1.32,3.31-2.71c1.23-2.56,2.21-4.72,2.82-6.06,1.49-3.29,1.62-8,1.44-11.41a5.43,5.43,0,0,0-.06-1c-.15-2.14-.39-3.61-.39-3.61s.74-1.09,1.63-2.57c.5-.82,1-1.77,1.52-2.71.91-1.76,1.62-3.54,1.48-4.55a2.26,2.26,0,0,1,0-.52,5.6,5.6,0,0,1,.14-1c.7-3.16,3.72-8.59,6.5-12,2.08-2.51,2.21-11.89,2-18.54v-1c-.12-3.45-.31-5.94-.31-5.94,1-.49,1.82-4.12,2.33-8l.13-1c.58-4.59.85-9.2.85-9.2,6.73-5.39,9.93-13.8,11.42-21.3a67,67,0,0,0,1.18-16v-.25s-.78-21.78-3.28-30.25c-.1-.36-.21-.69-.32-1a7.16,7.16,0,0,0-.81-1.46c-1.38-2.12-2.3-7.22-2.9-12.44l-.11-1c-.75-7-1-13.87-1-13.87l1.69-9.12q.69-3.75,1.07-7.51c0-.33.07-.67.1-1a91.51,91.51,0,0,0,.23-13.95,5.54,5.54,0,0,0-.06-1,91.28,91.28,0,0,0-7.42-30.5c-.15-.34-.3-.67-.46-1a81.59,81.59,0,0,0-3.89-7.56c-.49-.85-1-1.69-1.52-2.52-.83-1.32-1.69-2.62-2.6-3.88l-.72-1a78.1,78.1,0,0,0-9.35-10.65c-10-9.43-19.1-13.07-27.29-12.74-32.25,1.27-50.35,64-53.33,75.23-.29,1.1-.43,1.7-.43,1.7s-13.59,14.93-9.61,21.48a12,12,0,0,1,1.37,4.72c1.1,8.81-2,23.32-2,23.32s-1.11,4-4.35,13.58c-.29.89-.61,1.82-.91,2.8-2,6-2.5,16.07-1.34,25.09,1.12,8.65,3.74,16.28,8,18.24,8.61,4,6.3,8,4.3,11.29a47.68,47.68,0,0,0-2.94,7.38c-1.57,4.71-3,9.73-3,9.73a16.39,16.39,0,0,0-1.82-.65,8.48,8.48,0,0,0-3.93-.45,1.78,1.78,0,0,0-1.55,1.46c-.25,1.2-2.13,2.69-4.41,4.1A82.61,82.61,0,0,1,976.84,681.21Z"/><path class="cls-2" d="M917.4,403.69l1.42,2.23s11.32-8.71,15.95-13.11,15.56,15.65,24.18,21.11,23.18,6.93,23.18,6.93,11.26-12.39,10.92-16,5.29-4.73,5.63-7.29,2.32-9.83,5-13.47c1.4-1.92,1.6-7.93,1.47-13.16l-1.47-.3a32.67,32.67,0,0,0-5.31-7.65c-3-2.92-7.61-20.75-7.61-20.75-2.65-9.83-7.94-6.93-7.94-6.93,0,14.93-13.92,20.4-20.87,26.59s-17.89,22.2-26.5,25.48C928.3,390.06,920,400.27,917.4,403.69Z"/><path class="cls-6" d="M936.93,412.83s-14.75-9.73-21.84-8.91c-7.43.85-21.83,1.45-21.83,1.45s5,12.38,4.3,14.93-.83,14.93-.83,14.93,14.9-6.37,17.39,5.46c0,0,8.11-13.29,13.58-17.3A39.6,39.6,0,0,0,936.93,412.83Z"/><path class="cls-2" d="M853.62,421.94c4.3,0,19.54-10.56,22.85-17.47s7.95.72,12.26,3.27c2.73,1.64,11.4-1.53,17.23-4-3-2.2-7.36-8.68-9.28-10.18-2.31-1.82-4.64-31.31-4.64-31.31-8.28-4.73-17.22,38.23-17.22,38.23s-15.58,5.1-16.9,8.74a12.44,12.44,0,0,1-3.19,3.55C852.91,417.78,851.91,421.94,853.62,421.94Z"/><path class="cls-9" d="M794.77,740.91l-144-132a7.26,7.26,0,0,0-5.15-2l-53.73,1.55s-3.72,3,1.74,9.56L729.47,740.57a8.2,8.2,0,0,0,5.18,2.14l58.75,2.14a2.13,2.13,0,0,0,2.1-2.16A2.32,2.32,0,0,0,794.77,740.91Z"/><path class="cls-4" d="M725.1,724.67s-31.46,49.52-66.41,3.46-24.84-70.26-14.25-71.54S714.68,705.74,725.1,724.67Z"/><path class="cls-10" d="M279.65,522.16c-2.5,0-5,0-7.51-.11l.07-2.5c2.46.08,5,.11,7.44.12s5,0,7.51-.12l.08,2.49C284.71,522.12,282.16,522.16,279.65,522.16Zm-22.59-1c-5-.47-10-1.11-15-1.9l.4-2.46c4.9.77,9.88,1.41,14.82,1.87Zm45.25,0-.24-2.48c4.94-.47,9.92-1.11,14.82-1.9l.4,2.47c-5,.79-10,1.44-15,1.91Zm-75.06-4.72c-4.88-1.1-9.8-2.38-14.61-3.8l.71-2.39c4.76,1.4,9.62,2.66,14.46,3.75Zm104.86-.06-.55-2.43c4.84-1.11,9.71-2.38,14.45-3.78l.71,2.4c-4.79,1.41-9.71,2.7-14.61,3.81ZM198.3,507.84c-4.71-1.73-9.43-3.63-14-5.66l1-2.28c4.54,2,9.21,3.88,13.88,5.59Zm162.76-.1-.87-2.35c4.64-1.7,9.29-3.58,13.82-5.58l1,2.28C370.44,504.12,365.74,506,361.06,507.74ZM170.65,495.65c-4.43-2.31-8.86-4.8-13.17-7.4l1.3-2.14c4.26,2.58,8.64,5,13,7.32Zm218-.1-1.16-2.21c4.38-2.28,8.75-4.74,13-7.31l1.31,2.13C397.47,490.76,393.05,493.25,388.62,495.55ZM144.82,480c-4.11-2.86-8.18-5.89-12.11-9l1.56-1.95c3.89,3.08,7.92,6.08,12,8.91Zm269.58-.09L413,477.89c4.07-2.83,8.09-5.83,12-8.91l1.56,1.95C422.58,474.05,418.51,477.08,414.4,479.94ZM121.21,461.26c-3.72-3.36-7.37-6.88-10.86-10.46l1.8-1.74c3.45,3.54,7.06,7,10.74,10.35ZM438,461.18l-1.69-1.85C440,456,443.58,452.52,447,449l1.8,1.73C445.34,454.3,441.69,457.82,438,461.18Zm-337.8-21.51c-3.26-3.81-6.43-7.76-9.43-11.76l2-1.49c3,3.95,6.1,7.86,9.32,11.62Zm358.8-.11-1.9-1.62c3.22-3.76,6.35-7.68,9.33-11.64l2,1.5c-3,4-6.17,8-9.43,11.76Zm-376.89-24c-2.74-4.19-5.38-8.51-7.84-12.85l2.18-1.23c2.44,4.29,5,8.57,7.76,12.71Zm395-.14-2.1-1.36c2.72-4.15,5.33-8.43,7.76-12.74l2.19,1.23c-2.46,4.35-5.11,8.68-7.85,12.87Zm-409.82-26c-2.19-4.49-4.25-9.12-6.13-13.73l2.32-.94c1.87,4.56,3.91,9.14,6.06,13.58Zm424.67-.19-2.26-1.09c2.16-4.45,4.2-9,6.07-13.63l2.32.94C496.18,380.09,494.11,384.72,491.93,389.23Zm-436-27.66c-1.59-4.75-3-9.6-4.31-14.43l2.43-.63c1.25,4.77,2.69,9.57,4.26,14.27Zm447.38-.27-2.38-.78c1.56-4.69,3-9.49,4.25-14.28l2.42.63C506.3,351.71,504.86,356.57,503.28,361.3Zm-455-28.83c-1-4.9-1.77-9.9-2.41-14.86l2.48-.32c.64,4.91,1.44,9.85,2.39,14.7Zm462.69-.28-2.46-.47c.94-4.85,1.74-9.79,2.36-14.7l2.49.32c-.63,5-1.44,10-2.39,14.85ZM44.37,302.64c-.32-5-.49-10.05-.49-15.05h2.5c0,5,.17,10,.49,14.88Zm470.37-.28-2.5-.16c.31-4.93.47-9.93.47-14.88v-.55h2.51v.54c0,5-.16,10.07-.48,15.05ZM46.84,272.71l-2.51-.16c.31-5,.79-10,1.42-15l2.49.31C47.61,262.78,47.14,267.77,46.84,272.71Zm465.37-.82c-.33-4.94-.82-9.93-1.45-14.82l2.48-.32c.65,4.94,1.14,10,1.47,15ZM50.58,243.18l-2.46-.47c1-4.91,2.07-9.85,3.33-14.68l2.43.63C52.63,233.44,51.52,238.33,50.58,243.18Zm457.77-.81c-1-4.85-2.08-9.73-3.34-14.51l2.42-.64c1.28,4.83,2.42,9.77,3.38,14.67Zm-450.25-28-2.38-.78c1.58-4.75,3.33-9.51,5.21-14.15l2.32.93C61.39,205,59.66,209.68,58.1,214.37Zm442.63-.78c-1.57-4.68-3.32-9.38-5.19-14l2.32-.94c1.89,4.62,3.66,9.37,5.25,14.11ZM69.3,186.73,67,185.65c2.18-4.5,4.53-9,7-13.36l2.19,1.23C73.78,177.83,71.45,182.28,69.3,186.73Zm420.16-.68c-2.16-4.43-4.49-8.86-6.94-13.17l2.18-1.23c2.48,4.35,4.84,8.83,7,13.31ZM84,160.77l-2.1-1.36c2.74-4.19,5.65-8.35,8.65-12.36l2,1.5C89.55,152.51,86.67,156.63,84,160.77Zm390.78-.59c-2.71-4.13-5.59-8.23-8.57-12.18l2-1.5c3,4,5.93,8.14,8.67,12.31ZM101.83,136.9l-1.91-1.62c3.25-3.81,6.66-7.56,10.15-11.16l1.8,1.74C108.42,129.42,105,133.13,101.83,136.9Zm355-.52c-3.22-3.76-6.61-7.46-10.07-11l1.8-1.74c3.5,3.58,6.92,7.32,10.18,11.12ZM122.59,115.49l-1.69-1.85c3.71-3.37,7.58-6.66,11.49-9.77l1.56,1.95C130.09,108.9,126.26,112.16,122.59,115.49ZM436,115c-3.68-3.31-7.51-6.56-11.39-9.64l1.56-2c3.92,3.11,7.8,6.39,11.51,9.74ZM145.91,96.89l-1.44-2c4.1-2.87,8.35-5.64,12.63-8.24l1.31,2.14C154.17,91.32,150,94.06,145.91,96.89Zm266.71-.4c-4.09-2.83-8.3-5.56-12.54-8.11l1.29-2.14c4.29,2.58,8.55,5.34,12.68,8.2ZM171.4,81.42l-1.17-2.22c4.44-2.31,9-4.52,13.58-6.55l1,2.28C180.3,76.94,175.78,79.12,171.4,81.42ZM387,81.07c-4.41-2.28-8.94-4.45-13.49-6.45l1-2.28c4.6,2,9.18,4.21,13.64,6.52ZM198.65,69.33,197.78,67c4.7-1.74,9.52-3.34,14.33-4.77l.71,2.4C208.07,66,203.3,67.62,198.65,69.33Zm161-.28c-4.66-1.7-9.43-3.27-14.19-4.67l.71-2.39c4.81,1.41,9.63,3,14.34,4.71Zm-132.4-8.22-.56-2.44c4.88-1.11,9.87-2.08,14.82-2.88l.4,2.46C237,58.77,232.1,59.73,227.27,60.83ZM331,60.65c-4.84-1.09-9.77-2-14.68-2.81l.4-2.47c4.95.79,9.94,1.74,14.83,2.84Zm-74.27-4.59-.24-2.49c5-.48,10.05-.81,15.07-1l.08,2.49c-5,.17-10,.49-14.91,1ZM301.52,56c-4.93-.46-9.95-.76-14.91-.91l.07-2.5c5,.15,10.09.46,15.07.93Z"/><ellipse class="cls-9" cx="270.77" cy="58.71" rx="58.92" ry="58.71"/><ellipse class="cls-9" cx="498.92" cy="218.61" rx="58.92" ry="58.71"/><ellipse class="cls-9" cx="427.47" cy="463.45" rx="58.92" ry="58.71"/><ellipse class="cls-9" cx="144.16" cy="473.45" rx="58.92" ry="58.71"/><ellipse class="cls-9" cx="58.92" cy="218.61" rx="58.92" ry="58.71"/><path class="cls-11" d="M296,54H275.47a7,7,0,0,1-7.05-7V26.53a.58.58,0,0,0-.58-.58H254.33a9.37,9.37,0,0,0-9.39,9.36V82.12a9.37,9.37,0,0,0,9.39,9.36h32.88a9.38,9.38,0,0,0,9.4-9.36h0V54.62A.59.59,0,0,0,296,54Zm-13.5,23.41H259a2.34,2.34,0,1,1,0-4.68h23.49a2.34,2.34,0,1,1,0,4.68Zm0-11.71H259a2.34,2.34,0,1,1,0-4.68h23.49a2.34,2.34,0,1,1,0,4.68Z"/><path class="cls-11" d="M294.73,48.85l-21.11-21a.28.28,0,0,0-.41,0,.25.25,0,0,0-.09.2V47a2.35,2.35,0,0,0,2.35,2.34h19a.29.29,0,0,0,.3-.29.29.29,0,0,0-.09-.21Z"/><path class="cls-11" d="M436,451.89a3.11,3.11,0,1,0,2.21.91A3.12,3.12,0,0,0,436,451.89Z"/><path class="cls-11" d="M453.37,439.44h0a2.36,2.36,0,0,0-1.77-1.78c-3.48-.85-9,.06-15,2.48a48.25,48.25,0,0,0-15.75,9.94,38.1,38.1,0,0,0-3.46,3.94,15.31,15.31,0,0,0-6.85,1.1c-6.75,3-8.68,10.54-9.2,13.65a2.91,2.91,0,0,0,3.19,3.38h0l7.53-.82c0,.1,0,.19,0,.27a4,4,0,0,0,1.16,2.41l3.67,3.67a4,4,0,0,0,2.43,1.15l.25,0-.82,7.49h0a2.92,2.92,0,0,0,2.61,3.2h0l.27,0a3.88,3.88,0,0,0,.48,0c3.15-.51,10.75-2.41,13.71-9.17a15.4,15.4,0,0,0,1.11-6.81,37.08,37.08,0,0,0,4-3.44,47.75,47.75,0,0,0,10-15.57C453.29,448.56,454.2,443.05,453.37,439.44Zm-12.52,20.39a6.86,6.86,0,1,1,0-9.69h0a6.78,6.78,0,0,1,.07,9.61h0Z"/><path class="cls-11" d="M416.46,478.66a1.81,1.81,0,0,0-1.28.31c-.75.51-1.5,1-2.26,1.5a1.74,1.74,0,0,1-2.46-2.33l1.42-2.45a1.85,1.85,0,0,0-.49-2.59,1.87,1.87,0,0,0-1.28-.31,7.15,7.15,0,0,0-4.17,2c-.43.42-1.73,1.72-2.43,6.67-.2,1.42-.32,2.85-.38,4.29A1.87,1.87,0,0,0,405,487.7h.09c1.44-.05,2.88-.18,4.31-.37,5-.7,6.27-2,6.7-2.43a7,7,0,0,0,2-4.16A1.86,1.86,0,0,0,416.46,478.66Z"/><path class="cls-11" d="M123.88,505.35h-4.26a3.2,3.2,0,0,1-3.21-3.19h0V483a3.2,3.2,0,0,1,3.21-3.19h4.26a3.2,3.2,0,0,1,3.21,3.19h0v19.14a3.2,3.2,0,0,1-3.21,3.19Z"/><path class="cls-11" d="M153.77,505.35H149.5a3.19,3.19,0,0,1-3.2-3.19h0v-31.9a3.2,3.2,0,0,1,3.2-3.2h4.27a3.2,3.2,0,0,1,3.2,3.2h0v31.9a3.2,3.2,0,0,1-3.2,3.19Z"/><path class="cls-11" d="M168.71,505.35h-4.27a3.19,3.19,0,0,1-3.2-3.19h0V455.37a3.19,3.19,0,0,1,3.2-3.19h4.27a3.19,3.19,0,0,1,3.2,3.19v46.79a3.2,3.2,0,0,1-3.2,3.19Z"/><path class="cls-11" d="M138.82,505.35h-4.26a3.2,3.2,0,0,1-3.21-3.19h0V444.73a3.2,3.2,0,0,1,3.21-3.19h4.27a3.2,3.2,0,0,1,3.2,3.19v57.43a3.2,3.2,0,0,1-3.2,3.19Z"/><path class="cls-11" d="M501.74,217.07l-3.05-3a3.75,3.75,0,0,0-5.27,0l-21.2,19.5a3.92,3.92,0,0,0-1.33,2.68A3.77,3.77,0,0,0,472,239l4.55,4.59h0a3.77,3.77,0,0,0,2.65,1.09h.14a3.93,3.93,0,0,0,2.71-1.3l19.7-21a3.71,3.71,0,0,0,0-5.27Z"/><path class="cls-11" d="M526.26,210.93l0,0-4-3.95a2.55,2.55,0,0,0-1.79-.73,2.51,2.51,0,0,0-1.49.49.76.76,0,0,1,0-.15,4.25,4.25,0,0,0-.61-2.93,29.77,29.77,0,0,0-2.9-3.35h0a31.75,31.75,0,0,0-10.13-6.51,16.23,16.23,0,0,0-6.2-1.21,11.77,11.77,0,0,0-7.56,2.64,13.39,13.39,0,0,0-1.65,1.88,1.86,1.86,0,0,0,.41,2.6,1.88,1.88,0,0,0,1.76.24,9,9,0,0,1,1-.31,7.37,7.37,0,0,1,2.15-.13,9,9,0,0,1,4.17,1.52,6,6,0,0,1,2.13,4.78,12.45,12.45,0,0,1-2.33,4,1.84,1.84,0,0,0,.17,2.44l4,4a1.87,1.87,0,0,0,2.57.07,43,43,0,0,1,3.47-2.91,4.3,4.3,0,0,1,1.71-.68,2.32,2.32,0,0,1,1.32.28.14.14,0,0,1,0,.11l-.22.2,0,0a2.5,2.5,0,0,0,0,3.54h0l4,4a2.56,2.56,0,0,0,3.56,0l6.48-6.38.07-.07A2.53,2.53,0,0,0,526.26,210.93Z"/><path class="cls-11" d="M68.27,215.11a2.33,2.33,0,0,1-2.34-2.33,2.31,2.31,0,0,1,.69-1.64L72,205.79l-5.36-5.34a2.33,2.33,0,0,1,0-3.3,2.35,2.35,0,0,1,3.3,0l7,7a2.32,2.32,0,0,1,0,3.3h0l-7,7A2.35,2.35,0,0,1,68.27,215.11Z"/><path class="cls-11" d="M30.85,222.11a2.33,2.33,0,0,1-2.33-2.34h0v-2.33a14.07,14.07,0,0,1,14-14H73a2.33,2.33,0,1,1,0,4.66H42.55a9.4,9.4,0,0,0-9.36,9.33v2.32a2.34,2.34,0,0,1-2.34,2.34Z"/><path class="cls-11" d="M49.56,240.75a2.36,2.36,0,0,1-1.65-.68l-7-7a2.32,2.32,0,0,1,0-3.29h0l7-7a2.33,2.33,0,0,1,3.31,3.29l-5.37,5.35,5.37,5.34a2.34,2.34,0,0,1,0,3.3,2.39,2.39,0,0,1-1.66.68Z"/><path class="cls-11" d="M44.89,233.76a2.33,2.33,0,1,1,0-4.66h30.4a9.39,9.39,0,0,0,9.35-9.33v-2.33a2.34,2.34,0,0,1,4.68,0v2.33a14.08,14.08,0,0,1-14,14Z"/></g></g></svg>