<svg xmlns="http://www.w3.org/2000/svg" viewBox="0 0 4938.66 2398"><defs><style>.cls-1{fill:none;}.cls-2{fill:#686868;}.cls-3{fill:#39bae2;}</style></defs><title>sk1</title><g id="Layer_2" data-name="Layer 2"><g id="box"><rect class="cls-1" width="4938.66" height="2398"/></g><g id="sk1"><path class="cls-2" d="M1947.72,1667.66v-31.85h2.79v-5h-2.79v-3.89h2.79v-5h-2.79v-49.26h2.79v-5h-2.79v-3.89h2.79v-5h-2.79v-49.26h2.79v-5h-2.79v-4.08h2.79v-5h-2.79v-49.25h2.79v-5h-2.79v-3.89h2.79v-5h-2.79V1377h2.16v-21.64h.78a.87.87,0,0,0,.79-.94v-.94a.87.87,0,0,0-.79-.94h-1.3v-3.06h.13c.46,0,.81-.33.78-.69h0v-7h.36c.46,0,.81-.34.78-.7v-.71c0-.35-.31-.67-.78-.7h-1.79v-1.29h1.92c.47,0,.82-.35.78-.71v-.36c0-.35-.32-.66-.78-.7h-1.92v-21h1.53c.46,0,.81-.34.78-.7v-.82c0-.36-.31-.67-.78-.71h-1.53v-20h1.76c.45,0,.77-.33.74-.67s-.3-.63-.74-.66h-1.7v-1.57h1.53c.47,0,.82-.34.78-.71v-.31c0-.36-.31-.67-.78-.71h-1.53v-.82H1950c.47,0,.82-.34.78-.71v-.11c0-.36-.31-.67-.78-.71h-1.09v-.55H1950c.47,0,.82-.33.78-.69h0v-.28c0-.36-.31-.67-.78-.71h-1.09V1282H1952c.48,0,.83-.34.8-.7h0v-.47c0-.36-.33-.67-.8-.7h-1.39a1,1,0,0,0,.41-.78,2.42,2.42,0,0,0-2-2v-.87h.42a.14.14,0,0,0,.15-.12h0c0-.07-.06-.13-.15-.14H1949v-.79c0-.07,0-.15-.13-.17a.2.2,0,0,0-.22.1.09.09,0,0,0,0,.07v.79h-.42c-.09,0-.16.07-.15.14h0c0,.07,0,.13.14.13h.43v.87a2.42,2.42,0,0,0-2,2,1.08,1.08,0,0,0,.41.78h-.16c-.46,0-.81.35-.78.7v.1h-1.4a1,1,0,0,0,0-.24v-2.88h.61c.48,0,.83-.38.77-.75a.82.82,0,0,0-.77-.6h-.61v-10h.1c.47,0,.82-.34.78-.71v-.3c0-.35-.31-.67-.77-.7h-.11v-.93a.59.59,0,0,0,0-1.13v-2a.72.72,0,0,0-.59-.68.25.25,0,0,0,0-.17v-.65c0-.16-.14-.3-.35-.32s-.37.16-.36.32v.65a.25.25,0,0,0,0,.17.72.72,0,0,0-.59.68v2a.58.58,0,0,0-.31.89.69.69,0,0,0,.31.24v.93h0c-.46,0-.81.35-.78.7v.3c0,.37.31.68.78.71h.09v4.09l-2.3-1.52a.88.88,0,0,0-.58-.12V1265h1c.47,0,.82-.34.78-.71v-.35c0-.36-.31-.67-.78-.71h-1v-2.7h1c.47,0,.82-.34.78-.71v-.35c0-.35-.31-.67-.77-.7H1940v-.29h.43V1247h-1.39v4.62l-1.11-.62v-1.72h-.34v-3.33h.55v-1.41h-.55V1241l1.85,1.66.09-.08v-4l-.09-.08-1.85,1.66v-2.91h.68v-1.46h-.68v-1.21h-.74v1.21h-.68v1.46h.68v2.91l-1.86-1.7-.09.08v4l.09.08,1.85-1.66v3.56h-.55v1.41h.55v3.33h-.43V1251l-1.3.76a.51.51,0,0,0-.53,0l-1-1.36a.37.37,0,0,0,.13-.56.49.49,0,0,0-.56-.14l-.06,0-1-1.35a.37.37,0,0,0,.13-.56.47.47,0,0,0-.55-.15l-.07,0-1-1.35a.38.38,0,0,0,.13-.56.49.49,0,0,0-.56-.15l-.07,0-1-1.35a.38.38,0,0,0,.13-.56.49.49,0,0,0-.56-.15l-.07,0-1-1.35a.37.37,0,0,0,.13-.56.49.49,0,0,0-.56-.14l-.06,0-1-1.35a.38.38,0,0,0,.13-.56.48.48,0,0,0-.54-.15l-.09,0-1-1.36a.38.38,0,0,0,.13-.56.49.49,0,0,0-.56-.15l-.07,0-1-1.35a.39.39,0,0,0,.14-.56.49.49,0,0,0-.56-.14l-.06,0-.47-.65h1.64v-4.52h-1.3v-3.47h1v-.59h-1v-2.17h-.65v2.17h-.63V1212a.84.84,0,0,0,.47-.76v-.42a.81.81,0,0,0-.78-.84h-.48v-.83H1920V1200h-.78v1.61h-.66v-4.42a4.54,4.54,0,0,0,.72-.13,2.37,2.37,0,0,0,.83-.4.83.83,0,0,0,.31-.39.62.62,0,0,0,0-.27.42.42,0,0,0,0-.27,1,1,0,0,0-.14-.24,1.53,1.53,0,0,0-.52-.37,3.6,3.6,0,0,0-1.43-.32v-2.12h.4a1.29,1.29,0,0,0,.44-.16.46.46,0,0,0,.2-.19.38.38,0,0,0,0-.15.43.43,0,0,0,0-.16.6.6,0,0,0-.11-.12,1.08,1.08,0,0,0-.28-.16,2.41,2.41,0,0,0-.65-.12v-1.31h-.37v1.31h-.39a2.32,2.32,0,0,0-.44.16.55.55,0,0,0-.19.18.22.22,0,0,0,0,.16.2.2,0,0,0,0,.15.29.29,0,0,0,.1.12.9.9,0,0,0,.29.16,1.75,1.75,0,0,0,.65.12v2.12a4.84,4.84,0,0,0-.94.14,2.82,2.82,0,0,0-.84.39,1,1,0,0,0-.32.4.62.62,0,0,0,0,.27,1.22,1.22,0,0,0,0,.27,1,1,0,0,0,.15.24,1.71,1.71,0,0,0,.52.38,3.6,3.6,0,0,0,1.19.31v5h0l-2.38,1.65-.23-.35h0a.4.4,0,0,0,.16-.56.48.48,0,0,0-.56-.18l-.07,0h0c-.28-.47-.57-1-.86-1.46h0a.38.38,0,0,0,.21-.55.44.44,0,0,0-.52-.21l-.08,0h0c-.26-.49-.52-1-.76-1.51h0a.39.39,0,0,0,.23-.54.46.46,0,0,0-.52-.24l-.08,0h0c-.23-.5-.47-1-.69-1.54h0a.39.39,0,0,0,.26-.53.46.46,0,0,0-.53-.25h0c-.22-.51-.43-1-.64-1.55h0a.39.39,0,0,0,.27-.53.45.45,0,0,0-.51-.27h-.07l-.59-1.57h0a.4.4,0,0,0,.29-.52.45.45,0,0,0-.51-.28h-.06l-.55-1.59h0c.26-.08.4-.3.31-.51a.45.45,0,0,0-.52-.29h-.05l-.51-1.59h0c.27-.08.41-.3.32-.51a.45.45,0,0,0-.52-.29h0c-.16-.53-.33-1.07-.47-1.61h0c.26-.08.4-.29.32-.5a.46.46,0,0,0-.53-.3h0c-.16-.54-.3-1.07-.46-1.61h0a.4.4,0,0,0,.33-.5.44.44,0,0,0-.5-.31h0l-.43-1.62h0c.27-.07.42-.29.34-.5a.44.44,0,0,0-.5-.31h-.05c-.13-.55-.27-1.09-.4-1.62h0c.26-.07.41-.28.34-.49a.47.47,0,0,0-.52-.32h0c-.13-.55-.26-1.1-.39-1.62h0a.43.43,0,0,0,.37-.49.43.43,0,0,0-.49-.32h-.06c-.13-.56-.24-1.1-.36-1.63h0a.41.41,0,0,0,.36-.48.44.44,0,0,0-.5-.33h0c-.12-.57-.24-1.11-.34-1.63h0a.4.4,0,0,0,.36-.48.46.46,0,0,0-.52-.33h0c-.13-.59-.22-1.14-.32-1.63h0c.27-.06.43-.27.36-.48a.43.43,0,0,0-.49-.34h0c-.21-1.14-.32-1.84-.35-2h2.29V1160h-2a.55.55,0,0,0,.25-.45.6.6,0,0,0-.52-.56v-4.08a.9.9,0,0,1,.4-.09,1.86,1.86,0,0,1,.48.09,4,4,0,0,1,.51.25,5,5,0,0,1,.87.77h0a.57.57,0,0,0,0,.26.82.82,0,0,0,1,.51c.44-.06.74-.38.66-.73a.79.79,0,0,0-.81-.52.82.82,0,0,0-.53.19l-.22-.25a3.86,3.86,0,0,0-1.07-.75,2,2,0,0,0-.82-.19,1.32,1.32,0,0,0-.44.08v-.65l.08-.08a1.17,1.17,0,0,1,.27-.15,2.48,2.48,0,0,1,.77-.12,4.45,4.45,0,0,1,.81.08l.35.09h0a.82.82,0,0,0,.94.53c.44-.06.75-.38.68-.73a.87.87,0,0,0-1.53-.14h-.09a5.67,5.67,0,0,0-1.16-.15,3.26,3.26,0,0,0-.7.07,1.92,1.92,0,0,0-.44.17v-.67a2.35,2.35,0,0,1,.37-.33,6.12,6.12,0,0,1,.69-.43.59.59,0,0,0,.39.15c.36,0,.59-.32.52-.6a.6.6,0,0,0-.52-.4.54.54,0,0,0-.56.5h0l-.23.12a3.93,3.93,0,0,0-.7.48v-3.08a1.29,1.29,0,0,0,.92-1.23,1.31,1.31,0,0,0-.69-1.13.33.33,0,0,0,0-.14v-.59a.62.62,0,0,0,0-.27h0c.29,0,.5-.2.48-.42h0c0-.22-.19-.41-.48-.43h-.41v-.28c0-.15-.16-.27-.36-.27a.32.32,0,0,0-.35.27v.24h-.41a.51.51,0,0,0-.56.44c0,.23.25.42.56.42h0a.61.61,0,0,0,0,.27v.59a.33.33,0,0,0,0,.14,1.27,1.27,0,0,0,.23,2.36v3.08a6.14,6.14,0,0,0-.7-.48l-.23-.12h0c0-.25-.22-.47-.55-.5h0c-.34,0-.59.25-.56.5s.21.48.54.5h0a.59.59,0,0,0,.39-.15,6.12,6.12,0,0,1,.69.43,4,4,0,0,1,.37.33v.67a1.92,1.92,0,0,0-.44-.17,3.26,3.26,0,0,0-.7-.07,5.68,5.68,0,0,0-1.17.15h-.08a.87.87,0,0,0-.72-.39c-.52.07-.87.45-.79.85a.87.87,0,0,0,.79.61c.49,0,.85-.35.81-.73h0l.35-.09a4.45,4.45,0,0,1,.81-.08,2.54,2.54,0,0,1,.78.12,1.17,1.17,0,0,1,.27.15l.09.08v.65a1.38,1.38,0,0,0-.45-.08,2.24,2.24,0,0,0-.82.19,4.18,4.18,0,0,0-1.07.75c-.09.08-.15.17-.23.25a.88.88,0,0,0-.54-.19c-.52,0-.9.42-.84.82a.87.87,0,0,0,.84.65c.49,0,.85-.35.81-.73a.57.57,0,0,0,0-.26h0a3.61,3.61,0,0,1,.87-.77,3,3,0,0,1,.51-.25,1.86,1.86,0,0,1,.48-.09.86.86,0,0,1,.39.09v-.07l-.06,4.15a.6.6,0,0,0-.53.56.55.55,0,0,0,.25.45h-2V1165h2.32c0,.12-.15.82-.35,2a.47.47,0,0,0-.52.34h0a.41.41,0,0,0,.36.48c-.09.49-.2,1-.31,1.63a.47.47,0,0,0-.52.3v0a.42.42,0,0,0,.35.48c-.11.52-.21,1.06-.34,1.63a.48.48,0,0,0-.53.33h0a.4.4,0,0,0,.35.48c-.12.52-.22,1.07-.37,1.63a.45.45,0,0,0-.52.31v0c-.07.21.09.42.35.48-.13.53-.24,1.07-.37,1.63a.47.47,0,0,0-.54.31h0a.41.41,0,0,0,.33.49l-.39,1.62a.49.49,0,0,0-.55.31.42.42,0,0,0,.34.5c-.13.53-.29,1.07-.43,1.61a.48.48,0,0,0-.54.29v0a.41.41,0,0,0,.33.5c-.14.53-.3,1.07-.44,1.61a.46.46,0,0,0-.54.27v0a.41.41,0,0,0,.33.5l-.48,1.6a.49.49,0,0,0-.56.28h0a.4.4,0,0,0,.31.51c-.17.53-.33,1.06-.51,1.59a.48.48,0,0,0-.55.26v0a.4.4,0,0,0,.3.51c-.17.53-.36,1.06-.55,1.59a.48.48,0,0,0-.56.26h0a.41.41,0,0,0,.3.52l-.58,1.57a.47.47,0,0,0-.56.22l0,0a.41.41,0,0,0,.28.53c-.21.52-.42,1-.64,1.56a.48.48,0,0,0-.55.19l0,0a.39.39,0,0,0,.26.53c-.24.52-.46,1-.7,1.54a.5.5,0,0,0-.58.18l0,0a.4.4,0,0,0,.23.54l-.76,1.51a.51.51,0,0,0-.58.15l0,0a.4.4,0,0,0,.19.55c-.27.5-.57,1-.86,1.46a.51.51,0,0,0-.58.12l0,0a.38.38,0,0,0,.16.56,3.15,3.15,0,0,0-.22.33l-2.38-1.64h0v-5h0a3.49,3.49,0,0,0,1.2-.31,1.52,1.52,0,0,0,.52-.38.75.75,0,0,0,.15-.24.72.72,0,0,0,0-.54,1.44,1.44,0,0,0-.31-.4,2.55,2.55,0,0,0-.85-.39,4.18,4.18,0,0,0-.94-.14v-2.12a1.82,1.82,0,0,0,.65-.12,1,1,0,0,0,.28-.16l.09-.12a.2.2,0,0,0,0-.15.22.22,0,0,0,0-.16.55.55,0,0,0-.19-.18,1.72,1.72,0,0,0-.45-.16h-.4v-1.31h-.36v1.31a3.29,3.29,0,0,0-.64.12.9.9,0,0,0-.29.16.47.47,0,0,0-.09.12.43.43,0,0,0,0,.16.19.19,0,0,0,0,.15.52.52,0,0,0,.2.19,1.34,1.34,0,0,0,.45.16h.39v2.12a4,4,0,0,0-1.43.32,1.81,1.81,0,0,0-.52.37,1.05,1.05,0,0,0-.15.24.61.61,0,0,0,0,.27.61.61,0,0,0,0,.27,1,1,0,0,0,.32.39,2.37,2.37,0,0,0,.83.4,4.54,4.54,0,0,0,.72.13v4.42h-.65V1200h-.78v9.11h-.72v.83h-.45a.81.81,0,0,0-.78.84v.42a.83.83,0,0,0,.45.76v14.3h-.62v-2.17h-.65v2.17h-1v.59h1v3.47h-1.3v4.52h1.64l-.47.65a.51.51,0,0,0-.58.06l0,0a.36.36,0,0,0,.14.56l-1,1.35a.51.51,0,0,0-.58.07l0,0a.37.37,0,0,0,.14.56l-1,1.36a.53.53,0,0,0-.59.06.1.1,0,0,1,0,0,.38.38,0,0,0,.13.56l-1,1.35a.51.51,0,0,0-.58.06l-.05.05a.4.4,0,0,0,.13.56l-1,1.35a.51.51,0,0,0-.58.07l0,.05a.39.39,0,0,0,.13.56l-1,1.35a.51.51,0,0,0-.58.07l0,0a.39.39,0,0,0,.14.56l-1,1.35a.51.51,0,0,0-.58.07l0,0a.39.39,0,0,0,.13.56l-1,1.35a.51.51,0,0,0-.58.06l0,0a.38.38,0,0,0,.15.56l-1,1.36a.51.51,0,0,0-.53,0l-1.3-.76v-1.72h-.68v-3.33h.55v-1.41h-.55v-3.56l1.85,1.66.09-.08v-4l-.09-.08-1.85,1.66v-2.91h.68v-1.46h-.68v-1.21h-.74v1.21H1866v1.46h.67v2.91l-1.86-1.62-.07.08v4l.07.08,1.85-1.66v3.56h-.55v1.41h.55v3.33h-.43V1251l-1.12.62V1247h-1.39v11.48h.43v.08h-1c-.47,0-.82.34-.79.7v.35c0,.37.32.68.79.71h1v2.7h-1c-.47,0-.82.35-.79.71v.35c0,.37.32.68.79.71h1v3.92a.88.88,0,0,0-.58.12l-2.31,1.52v-4.09h.09c.48,0,.83-.34.8-.7h0v-.3c0-.36-.33-.67-.8-.7h-.09v-.93a.6.6,0,0,0,.43-.57.58.58,0,0,0-.43-.56v-2a.71.71,0,0,0-.58-.68.25.25,0,0,0,0-.17v-.65a.35.35,0,0,0-.36-.32h0c-.21,0-.37.16-.36.32v.65a.25.25,0,0,0,0,.17.71.71,0,0,0-.58.68v2a.62.62,0,0,0-.43.56.59.59,0,0,0,.43.57v.93h-.11c-.46,0-.81.35-.78.7v.3a.75.75,0,0,0,.78.71h.11v10h-.62c-.48,0-.82.39-.77.76a.8.8,0,0,0,.77.59h.62v2.88a.49.49,0,0,0,0,.24h-1.41v-.1c0-.35-.31-.67-.77-.7H1857a1.07,1.07,0,0,0,.4-.78,2.42,2.42,0,0,0-2-2v-.87h.41a.14.14,0,0,0,.15-.12h0c0-.07-.06-.13-.15-.14h-.41v-.79c0-.07,0-.15-.12-.17a.2.2,0,0,0-.23.1.09.09,0,0,0,0,.07v.79h-.41c-.1,0-.17.07-.16.14h0a.13.13,0,0,0,.14.13h.43v.87a2.41,2.41,0,0,0-2,2,1,1,0,0,0,.4.78H1852c-.46,0-.81.35-.78.7v.47c0,.36.31.68.78.71h3.11V1284H1854c-.47,0-.83.35-.8.71h0v.28a.74.74,0,0,0,.79.7h1.09v.55H1854c-.47,0-.83.35-.8.71h0v.11c0,.37.31.68.78.71h1.1v.82h-1.53c-.47,0-.82.35-.78.71v.31c0,.36.31.68.78.71h1.53v1.57h-1.7c-.48.05-.82.38-.76.75a.79.79,0,0,0,.76.58h1.7v20h-1.53c-.47,0-.82.35-.78.71v.82c0,.36.31.67.77.7h1.54v21h-1.92c-.47,0-.81.35-.78.7v.36c0,.36.31.68.78.71h1.92v1.29h-1.79c-.47,0-.82.34-.78.7h0v.71c0,.36.31.67.78.7h.36v7c0,.36.31.67.78.7h.13v2.94a.24.24,0,0,0,0,.12h-1.3a.87.87,0,0,0-.78.94v.94a.87.87,0,0,0,.78.94h.78v21.64h2.16v55.29h-2.8v5h2.8V1441h-2.8v5h2.8v49.46h-2.8v5h2.8v3.89h-2.8v5h2.8v7.59h-39.86V1503.2h1.84v-3.34h-1.84V1497h2.86v-3.34h-1.3v-42h-2.6v-6.94h1.13v-2.16h1.14v-2.73h1.14v-2h-1.3v-1.71h-1.07v-2h-1.51v-2.16h-.78V1430h-1v-12.63h-3.29V1430h-1v1.94h-1.08v2.16h-1.51v2h-1.08v1.71h-1.3v2H1805v2.73h1.13v2.16h1.13v6.94h-2.6v9.79h-21.45v-1.29h-1.86v-8.5h-3v8.5h-1.89v1.29h-21.45v-9.71h-2.6v-6.94h1.14v-2.16h1.13v-2.73h1.14v-2h-1.3v-1.71h-1.08v-2h-1.51V1432h-1.08v-1.94h-1v-12.63h-3.29v12.63h-1V1432h-1.08v2.16h-1.51v2h-1.08v1.71h-1.3v2h1.13v2.73h1.15v2.16h1.14v6.94h-2.6v42H1740v3.34h2.86v2.88H1741v3.34h1.85v11.07H1710v-3.76H1685.2v3.76h-29.9v-11.07h1.84v-3.34h-1.84v-2.88h2.77v-3.34h-1.3v-42h-2.6v-6.94h1.13v-2.16h1.13v-2.73h1.14v-2h-1.3v-1.71h-1.08v-2h-1.52V1432h-1.08v-1.94h-1v-12.63h-3.28v12.63h-1V1432h-1.08v2.16h-1.52v2h-1.08v1.71h-1.3v2h1.14v2.73h1.13v2.16h1.13v6.94h-2.6v9.71h-21.44v-1.29h-1.84v-8.5h-3v8.5h-1.85v1.29h-21.46v-9.71h-2.6v-6.94H1592v-2.16h1.14v-2.73h1.14v-2H1593v-1.71h-1.08v-2h-1.52V1432h-1.08v-1.94h-1v-12.63H1585v12.63h-1V1432h-1.08v2.16h-1.52v2h-1.08v1.71H1579v2h1.13v2.73h1.14v2.16h1.14v6.94h-2.6v42h-1.3v3.34h2.86v2.88h-1.85v3.34h1.85v38.88h-12.62v-2h-1.15v-2h-1.3v-2.73h-1.16v-2.51h-.9v-2.49h-1.06v-10.56h-2.06v10.56H1560V1533h-.89v2.45H1558v2.68h-1.3v2h-1.16v2H1538v-23h3.29v-3.87h-1v-12.43h-1.15v12.43h-.78v-16.61h-4.17v-28.2h-2.52v-2.5h-2.36V1453.6h-1.9v-10.69h-2.78v-8.48h-1.82v8.42h-2.78v10.69h-1.9v14.33h-2.4v2.5h-2.6v28.22H1509v16.61h-.78v-12.43h-1.13v12.43h-1v3.87h3.29v23h-15.13v-2h-1.16v-2h-1.3v-2.64h-1.16v-2.51h-.89v-2.49h-1.08v-10.56h-2.07v10.56h-1.08V1533h-.88v2.45h-1.16v2.68h-1.3v2H1481v2h-24v-2h-1.16v-2h-1.3v-2.68h-1.16v-2.51h-.73v-2.49h-1.08v-10.56h-2.06v10.56h-1.08V1533h-.89v2.45h-1.15v2.68h-1.3v2h-1.16v2h-24v-2h-1.05v-2h-1.3v-2.68h-1.15v-2.51h-.89v-2.49h-1.08v-10.56h-2.08v10.56h-1.08V1533h-.9v2.45h-1.16v2.68h-1.3v2h-1.15v2h-24v-2h-1.16v-2h-1.3v-2.68h-1.15v-2.51h-.9v-2.49h-1v-10.56h-2v10.56h-1.09V1533h-.89v2.45H1372v2.68h-1.3v2h-1.15v2h-24v-2h-1.16v-2h-1.3v-2.68h-1.16v-2.51h-.88v-2.49H1340v-10.56h-2.07v10.56h-1V1533h-.9v2.45h-1.16v2.68h-1.3v2h-1.15v2h-24v-2h-1.16v-2h-1.3v-2.68h-1.15v-2.51h-.89v-2.49h-1.08v-10.56h-2.06v10.56h-1.07V1533h-.9v2.45h-1.15v2.68h-1.3v2h-1v2h-24.09v-2h-1.16v-2h-1.3v-2.68h-1.15v-2.51h-.9v-2.49h-1.08v-10.56h-2.05v10.56h-1.08V1533h-.9v2.45h-1.16v2.68h-1.3v2H1258v2h-23.94v-2h-1.14v-2h-1.3v-2.68h-1.16v-2.51h-.9v-2.49h-1.08v-10.56h-2.06v10.56h-1.08V1533h-.89v2.45h-1.15v2.68H1222v2h-1.16v2h-23.95v-2h-1.17v-2h-1.3v-2.68h-1.16v-2.51h-.9v-2.49h-1v-10.56h-2v10.56h-1.08V1533h-.89v2.45h-1.18v2.68h-1.3v2h-1.16v2h-16.72v-31.6h1.86v-3.33h-1.86v-2.88h2.86V1501h-1.3v-42h-2.6V1452H1167v-2.16h1.13v-2.73h1v-2h-1.3v-1.71h-1.07v-2h-1.52v-2.16h-1.08v-1.94h-1V1424.7h-3.29v12.63h-1v1.94h-1.06v2.16h-1.52v2h-1.08v1.71H1154v2h1.14v2.73h1.13V1452h1.28V1459h-2.6v9.72h-21.52v-1.25h-1.89v-8.49h-3v8.49h-1.85v1.3H1105.2V1459h-2.6v-6.93h1.15v-2.16h1.13v-2.73H1106v-2h-1.3v-1.76h-1.08v-2h-1.52v-2.16h-1.07v-1.94h-1V1424.7h-3.29v12.63h-1v1.94h-1.08v2.16h-1.52v2h-1.08v1.71h-1.3v2h1.13v2.73H1093V1452h1.13V1459h-2.6v42h-1.3v3.34h2.88v2.88h-1.94v3.33h1.86v11.08h-4.77v-1.08h-1.16v-2.08h-1.3v-2.68h-1.13v-2.5h-.9v-2.55h-1.08v-10.57h-2v10.57h-1.08v2.55h-.89v2.5h-1.15v2.68h-1.3v2.06h-1.16v1.08h-1.59v-13.14h-3.42v-6.36h-2.6V1421.6h-3.58V1446l-2.37-1.94v-12H1060v-24.37h-3.36v24.37h-1.81v-59.63h-3.43v18h-2.6l-1.17-4.1-11.32-50.55v-5.44h-1.09l-2.71-37.12h-3l-2.7,37.12h-1.09v5.44l-11.33,50.55-1.17,4.1h-2.6v-18h-3.42v59.63h-1.81v-24.37H1002v24.37h-1.57v12L998,1446V1421.6h-3.69v80.47h-2.6v6.36h-3.42v13.17H975.91v-1.08h-1.15v-2.09h-1.3v-2.68H972.3v-2.5h-.88v-2.55h-1.14v-10.57h-2v10.57h-1.08v2.55h-.9v2.5h-1.17v2.68h-1.3v2.06h-1.15v1.08H938.37v-1.08h-1.16v-2.06h-1.3v-2.68h-1.16v-2.5h-.87v-2.55H932.8v-10.57h-2v10.57h-1.08v2.55h-.9v2.5h-1.15v2.68h-1.3v2.06h-1.16v1.08h-24.3v-1.08h-1.16v-2.06h-1.3v-2.68h-1.16v-2.5h-.89v-2.55h-1.08v-10.57h-2.07v10.57h-1.08v2.55h-.88v2.5h-1.16v2.68h-1.3v2.06h-1.16v1.08h-7.45v-7.87H878V1510h-1.7v-46.58h-2.38v14.14l-5.88-4.33V1434.9h-2.22v10.43h-1.72l-.75-2.37-.5-17.74L856,1413.67v-3.15h-1.79v-19.16h-3.07v19.16h-1.88v3.15l-6.84,11.55-.5,17.74-.75,2.37h-1.72V1434.9h-2.21v38.34l-5.87,4.33v-14.14h-2.4v46.63h-1.67v3.69H825v6.79h-.37v-2.11h-1.3v-2.68h-1.16v-2.5h-.9v-2.55h-1.08v-10.57h-2.05v10.57h-1V1504H817v-20.42h3.77l-3.74-2.75v-12.41h-2.22v10.78l-1.87-1.38v-10.63h-2.21v9l-1.87-1.38v-8.54h-2.21v6.91l-4.57-3.36V1448.2h-2v-1.85h-1.3v-3.07h-2.13v-2.61H795.3v-13.8h-2.73v13.8H791.2v2.61h-2.13v3.07h-1.3v1.85h-2.06v21.66l-4.55,3.36v-6.91h-2.22v8.54l-1.87,1.38v-9h-2.23v10.63l-1.87,1.38v-10.78h-2.21v12.41l-3.74,2.75h3.74V1504h-.22v9.39h-2.73v8.18H751.08v-1.08h-1.16v-2.1h-1.3v-2.68h-1.16v-2.5h-.8v-2.55h-1.09v-10.57h-2.06v10.57h-1.08v2.55h-1v2.5H740.3v2.68H739v2.06h-1.16v1.08h-4.77v-11.08H735v-3.33H733.1v-2.88H736v-3.34h-1.3v-42h-2.6V1452h1.14v-2.16h1.13v-2.73h1.15v-2h-1.3v-1.69h-1.08v-2h-1.52v-2.16h-1.07v-1.94h-1V1424.7h-3.27v12.63h-1v1.94h-1.08v2.16h-1.52v2h-1.08v1.71h-1.3v2h1.15v2.73h1.14V1452h1.13V1459h-2.6v9.72H699.63v-1.25h-1.86v-8.49h-3.12v8.49h-1.86v1.3H671.34V1459h-2.6v-6.93H670v-2.16h1.14v-2.73h1.13v-2h-1.3v-1.76h-1.08v-2h-1.52v-2.16h-1.08v-1.94h-1V1424.7h-3.29v12.63h-1v1.94h-1.08v2.16h-1.56v2h-1v1.71H657v2h1.14v2.73h1.13V1452h1.15V1459h-2.6v42h-1.3v3.34h2.86v2.88h-1.85v3.33h1.85v31.58h-14.9v-2h-1.16v-2H642v-2.66h-1.16v-2.51h-.9v-2.55h-1.07v-10.56h-2.06v10.56H635.7v2.55h-.86v2.51h-1.15v2.68h-1.3v2h-1.16v2h-24v-2h-1.15v-2h-1.3v-2.68h-1.14v-2.51h-.9v-2.55h-1.08v-10.56h-2v10.56h-1.08v2.55h-.9v2.51h-1.15v2.68h-1.3v2H594v2h-24v-2H568.9v-2h-1.3v-2.68h-1.16v-2.51h-.88v-2.55h-1.08v-10.56h-2.07v10.56h-1.06v2.55h-.9v2.51h-1.16v2.68H558v2h-1.16v2H532.89v-2h-1.16v-2h-1.3v-2.68h-1.16v-2.51h-.88v-2.55h-1.08v-10.56h-2.07v10.56h-1.08v2.55h-.9v2.51h-1.15v2.68h-1.3v2h-1.16v2H495.73v-2h-1.16v-2h-1.3v-2.68h-1.16v-2.51h-.89v-2.55h-1.08v-10.56h-2.06v10.56H487v2.55h-.88v2.51H485v2.68h-1.3v2h-1.16v2h-24v-2h-1.16v-2h-1.3v-2.68H454.9v-2.51H454v-2.55h-1.07v-10.56h-2.07v10.56h-1.08v2.55h-.86v2.51h-1.16v2.68h-1.3v2h-1.15v2h-24v-2h-1.16v-2h-1.3v-2.68h-1.15v-2.51h-.89v-2.55h-1.08v-10.56H413.7v10.56h-1.08v2.55h-.9v2.51h-1.15v2.68h-1.3v2h-1.16v2H384.17v-2H383v-2h-1.3v-2.68h-1.16v-2.51h-.9v-2.55h-.87v-23.63H383v-5.26h-4.2v-1.75H383v-5.3h-4.2v-15.25H383v-5.25h-4.2v-1.76H383v-5.26h-4.2v-69.18H383v-5.3h-4.2v-1.76H383v-5.24h-4.2v-17.94H383v-5.26h-4.2v-1.76H383v-5.26h-4.2v-30.56h-1v-12.72h1.3v-5h-1.3V1293h-3v-16.6h1.65V1270h-1.65v-2.78h-1.44a19.27,19.27,0,0,0-4.17-8v-1.32h-.62v-3.51h-1.83v-9.71h2.08v-7.12h-2.08v-7h-4.64v7H360v7.12h2.07v9.71h-1.77v3.44h-.61v1.32a19.27,19.27,0,0,0-4.17,8h-1.43V1270h-1.65v6.46h1.65v16.63H351v13.88h-1.3v5H351v.09H343.4v-4.6h-2.48v-21h-1.21v-3.51H338.1l-16.59-21.49a4,4,0,0,0-.82-7.09v-99.91a4,4,0,0,0,2.6-3.76,4,4,0,0,0-4.12-4,4.09,4.09,0,0,0-4.14,4,4,4,0,0,0,2.6,3.76v99.88a4,4,0,0,0-2.6,3.76,4,4,0,0,0,1.78,3.32l-16.55,21.5h-1.61v3.54h-1.3v21h-2.48V1312h-7.62v-.09h1.3v-5h-1.3v-13.88h-3.12v-16.62h1.65V1270h-1.65v-2.78H282.7a19.18,19.18,0,0,0-4.18-8v-1.32h-.61v-3.51h-1.77v-9.71h2.08v-7.12h-2.08v-7h-4.56v7H269.5v7.12h2.07v9.71H269.8v3.44h-.61v1.32a19.41,19.41,0,0,0-4.18,8h-1.44V1270h-1.65v6.46h1.65v16.63h-3.11v13.88h-1.3v5h1.3v12.72h-1v30.56h-4.2v5.26h4.2v1.76h-4.2v5.26h4.2v17.93h-4.2v5.26h4.2v1.74h-4.2v5.26h4.2v69.22h-4.2v5.26h4.2v1.76h-4.2v5.25h4.2v15.25h-4.2v5.26h4.2v1.74h-4.2v5.26h4.2v33.43h0v2H246.9v-38.89h1.8v-3.34h-1.86V1497h2.86v-3.34h-1.3v-42h-2.6v-6.94h1.13v-2.16h1.14v-2.73h1.13v-2h-1.3v-1.71h-1.06v-2h-1.52V1432h-1.08V1430h-1V1417.4h-3.29V1430h-1V1432h-1.07v2.16h-1.52v2h-1.08v1.71H234v2h1.15v2.73h1.13v2.16h1.14v6.94h-2.6v9.76H213.32v-1.29h-1.85v-8.5h-3.08v8.5h-1.86v1.29H185.15v-9.71h-2.67v-6.94h1.21v-2.16h1.13v-2.73H186v-2h-1.3v-1.71H183.6v-2h-1.52V1432H181v-1.94h-1v-12.63h-3.27v12.63h-1V1432h-1.1v2.16h-1.52v2H172v1.71h-1.3v2h1.13v2.73H173v2.16h1.15v6.94h-2.6v42h-1.3v3.34h2.86v2.88h-1.86v3.34h1.86v11.07H140.9v-3.77H116.08v3.77H85.4v-11.12h1.86v-3.34H85.4V1497h2.86v-3.34H87v-42h-2.6v-6.94H85.5v-2.16h1.13v-2.73h1.15v-2h-1.3v-1.71H85.4v-2H83.85V1432H82.78V1430h-1V1417.4H78.48V1430h-1V1432H76.39v2.16H74.87v2H73.8v1.71H72.5v2h1.13v2.73h1.14v2.16h1.14v6.94h-2.6v9.76H51.85v-1.29H50v-8.5H47v8.5H45.12v1.29H23.67v-9.71h-2.6v-6.94h1.14v-2.16h1.14v-2.73h1.13v-2h-1.3v-1.71h-1.1v-2H20.56V1432H19.48v-1.94h-1v-12.63H15.19v12.63h-1V1432H13.11v2.16H11.59v2H10.51v1.71H9.21v2h1.17v2.73h1.14v2.16h1.13v6.94h-2.6v42H8.75v3.34h2.81v2.88H9.7v3.34h1.86v38.88h-4v18.41H3.5v4.76H7.56v3.89H3.5V1574H7.56v40.3H3.5V1619H7.56v3.89H3.5v4.75H7.56V1668H3.5v4.75H7.56v3.9H3.5v4.76H7.56v7.4h1946V1667.7h-5.85Zm-29.41-475.79h.28a1.15,1.15,0,0,1,.33.1.22.22,0,0,1,.09.07h0a.56.56,0,0,1-.17.09,1.71,1.71,0,0,1-.51.1v-.46Zm-32,0a2.1,2.1,0,0,1,.51.1.56.56,0,0,1,.17.09h0l-.1.07a.8.8,0,0,1-.32.1h-.29v-.45ZM273.52,1315.43h-3.18v-15h3.18Zm0-21.87h-3.18v-15h3.18Zm3.9,21.87h-3.17v-15h3.17Zm0-21.87h-3.17v-15h3.17Zm86.67,21.87h-3.18v-15h3.18Zm0-21.87h-3.18v-15h3.18Zm3.9,21.87h-3.18v-15H368Zm0-21.87h-3.18v-15H368ZM775.07,1504h-1.88V1483.6h1.88Zm3.36,0h-1.15V1483.6h1.15Zm32.51,0h-1.15V1483.6h1.15Zm4.09,0h-1.87V1483.6H815Zm18.78-.77h-2.3v-24.11h2.26Zm40.3,0h-2.3v-24.11h2.26Zm127.59-12.82h-3.55v-41.6h3.55Zm27.3-79.17h-4.92v-24.58H1029Zm8.94,0H1033v-24.58h4.92Zm26,79.17h-3.56v-41.6H1064ZM1867.72,1252l1.3.73-.73,1a.51.51,0,0,0-.57,0V1252Zm0,2.33.1.08-.1.14Zm-2.6-1.63.48-.27v4.93h0l-.55.77Zm-3.9,19.27,2.87-1.91v5.69l-2.87-2.46Zm1.83,5.62h.75a.71.71,0,0,0,.29,0v3.16h-1a.54.54,0,0,0,0-.18v-2.7a.5.5,0,0,0,.09-.24Zm-1.83-3.34,2.31,2h-2.31Zm0,6.22v-2.88h.92a.4.4,0,0,0-.08.23v2.7a.54.54,0,0,0,0,.18h-.93a.91.91,0,0,0,.2-.24Zm21.48-50.18h-.63v-3.47h.63Zm3.16-34.19a.45.45,0,0,0-.23.72,3.06,3.06,0,0,1-1-.26h0a.46.46,0,0,0,.3-.42c0-.23-.2-.43-.5-.46h-.22a1.1,1.1,0,0,1,.15-.16,2.24,2.24,0,0,1,.7-.32,4.6,4.6,0,0,1,.84-.13v1Zm0-3.8a1.45,1.45,0,0,1-.51-.1.46.46,0,0,1-.17-.09h0l.09-.07a1.15,1.15,0,0,1,.33-.1h.28v.46Zm.37,3.8v-1a3.47,3.47,0,0,1,1.3.28,1.74,1.74,0,0,1,.41.28h-.21c-.31,0-.54.23-.52.46a.46.46,0,0,0,.3.42,2.18,2.18,0,0,1-.45.16,3,3,0,0,1-.61.11.4.4,0,0,0,.12-.29.42.42,0,0,0-.22-.43Zm1.87,8.71a.5.5,0,0,0-.58.06l0,0a.38.38,0,0,0,.09.57c-.3.35-.6.66-.9,1h-.2v-3.62l2.06,1.43a1.19,1.19,0,0,1-.33.51Zm29.49,1.63h-.21a11.06,11.06,0,0,1-.89-1h0a.38.38,0,0,0,.09-.57.5.5,0,0,0-.56-.14l-.08,0h0l-.41-.55,2.06-1.43Zm.24-10.34a.47.47,0,0,0-.33.43.44.44,0,0,0,.11.29,3.22,3.22,0,0,1-.62-.11,2.32,2.32,0,0,1-.44-.16.46.46,0,0,0,.3-.42c0-.23-.2-.44-.51-.46h-.2a1.19,1.19,0,0,1,.4-.28,3.52,3.52,0,0,1,1.3-.28Zm0-3.8h-.29a1.19,1.19,0,0,1-.32-.1l-.1-.07h0l.19-.09a1.71,1.71,0,0,1,.5-.1v.44Zm.36,3.8v-1a4.63,4.63,0,0,1,.83.13,2.41,2.41,0,0,1,.71.32l.15.16h-.21c-.3,0-.53.23-.5.46a.47.47,0,0,0,.29.42h0a2.7,2.7,0,0,1-1,.26.38.38,0,0,0,.1-.29.45.45,0,0,0-.23-.47Zm3.78,34.19h-.62v-3.47h.62Zm14.45,24.26-.1-.14a.39.39,0,0,0,.1-.08Zm0-.75a.48.48,0,0,0-.56-.08h0l-.72-1,1.3-.73Zm2.6,4.32-.55-.77h.08v-4.94l.48.27v5.43Zm1,11.94,2.89,1.91v1.32l-2.89,2.46Zm2.89,4.19v2h-2.33Zm-2.89,6.45v-3.16a.71.71,0,0,0,.29,0h.71v2.81a.5.5,0,0,0,.12.29H1940Zm1.91,0a.4.4,0,0,0,.12-.29v-2.7a.2.2,0,0,0,0-.11h.87v2.88a.49.49,0,0,0,0,.24h-1Z"/><path class="cls-2" d="M3329.6,1614.73h7.77v59h-7.77V1681h447.68v-7.26h-7.78v-59h7.78v-6.13h4.21v-4.84h-3.81v-3.23H3668.42v3.23h-3.84v3.55h-28.64v-2.58h-8l-68.07-32.9H3562V1567h-7.23v-68.68c.17,0,2.24-2.55,11,4.33,4.52,3.55,18.34,8.93,18.48,8.54.48-.29.15-5.68,1.24-8.73.76-2,4.35-5.19,1.88-5.8-14.62-3.62-23.2-13.91-32.66-13v-1.19H3552V1567h-7.24v4.84h2.12l-68.06,32.9h-7.95v2.59h-28.64v-3.57h-3.83v-3.23H3329.23v3.23h-3.81v4.84h4.18Zm426,0h6.08v59h-6Zm-410.42,0h6v59h-6Z"/><path class="cls-3" d="M1935.25,1315.92v-27.36h-3.45v-7.69h-4.66v-11h.67v-1.62h-.67v-2h-1.84v2h-.78v1.62h.78v8.72c-12.63-16.26-13.71-27.33-13.72-27.45h-.11v-.7h-1.24v-22.31h0v-4.29l.93-3a11.15,11.15,0,0,1-2.57-2.43V1207.7h.68v-1.62h-.68v-2h-1.84v2H1906v1.62h.77V1216c-4.58-6.79-11.65-22.42-16-56.89h.62v-3.23h-.83V1135h-3.68v20.87h-.88v3.23h.66c-4.42,35.43-11.82,51-16.4,57.44v-8.81h.68v-1.62h-.68v-2h-1.84v2h-.77v1.62h.77v11.14a10.16,10.16,0,0,1-2.18,2l.88,3v4.29h0v22.31H1866v.7h-.11c0,.12-1.14,12.08-15.2,29.37v-10.65h.68v-1.62h-.68v-2h-1.84v2h-.77v1.62h.77v11h-3.18v7.69h-3.46v27.36h-3.45v53h.49v1.62h3v19.8h2.42v38.52h-1.43v3.23h1.43V1441h-1.43v3.23h1.43v38.2h-1.43v3.23h1.43v8.86h-1.43v3.23h1.43v37.4h-1.43v3.22h1.43v8.87h-1.43v3.22h1.43v38.65h-1.44v3.22h1.44v8.86h-1.44v3.23h1.44v77.79h.5v3.22h87.22v-3.22h.51v-77.79h1.32v-3.23h-1.32v-8.86h1.32v-3.22h-1.32v-38.65h1.32v-3.22h-1.32v-8.87h1.32v-3.22h-1.32v-37.4h1.53v-3.23h-1.53v-8.86h1.53v-3.23h-1.53v-38.2h1.53V1441h-1.53v-8.86h1.53v-3.23h-1.53v-38.52h2.41v-19.8h3v-1.62h.48v-53Zm-30,29.17v-3.22h4v3.22Zm-18.3-2.4-1.54,0,0,1.61,1.53,0,0,2.16,3.68,0,0-2.17,11.64-.09c-.42,6.22-6.32,11.18-13.52,11.18-7.48,0-13.57-5.33-13.57-11.88s6.09-11.88,13.57-11.88c7.12,0,13,4.84,13.5,11l-11.63.1-.06-7.54h-3.68Zm0,15.65h3.68v3.14h-3.68Zm3.68-29.71h-3.68v-3.15h3.68Zm-18.6,13.24v3.22h-4v-3.22Zm14.92,30.07h3.68v13.81h-3.68Zm-3.89,0v13.81h-3.68v-13.81Zm-7.55,0v13.81h-3.68v-13.81Zm-11.24,0h3.68v13.81h-3.68Zm15.33,229.22v-8.86h8.27v8.86Zm8.27,3.23v39.44h-8.27v-39.44Zm-8.27-15.31v-38.65h8.27v38.65Zm0-41.87v-8.87h8.27v8.87Zm0-12.09v-37.4h8.27v37.4Zm0-40.63v-8.86h8.27v8.86Zm0-12.09v-38.2h8.27v38.2Zm0-41.43v-8.86h8.27V1441Zm0-12.09v-32.55a32.48,32.48,0,0,1,2.24-2.54,3.47,3.47,0,0,1,1.89-.6h0a3.21,3.21,0,0,1,1.85.57c.39.33,1.53,1.67,2.28,2.57v32.55Zm-10.11,172.28v-8.86h8.27v8.86Zm8.27,3.23v39.44h-8.27v-39.44Zm-8.27-15.31v-38.65h8.27v38.65Zm0-41.87v-8.87h8.27v8.87Zm0-12.09v-37.4h8.27v37.4Zm0-40.63v-8.86h8.27v8.86Zm0-12.09v-38.2h8.27v38.2Zm0-41.43v-8.86h8.27V1441Zm0-12.09v-32.55a32.21,32.21,0,0,1,2.25-2.54,3.42,3.42,0,0,1,1.89-.6h0a3.21,3.21,0,0,1,1.84.57c.39.33,1.53,1.67,2.28,2.57v32.55Zm-9.19,172.28v-8.86h7.35v8.86Zm7.35,3.23v39.44h-7.35v-39.44Zm-7.35-15.31v-38.65h7.35v38.65Zm0-41.87v-8.87h7.35v8.87Zm0-12.09v-37.4h7.35v37.4Zm0-40.63v-8.86h7.35v8.86Zm0-12.09v-38.2h7.35v38.2Zm0-41.43v-8.86h7.35V1441Zm0-12.09v-33.64a16.24,16.24,0,0,1,1.33-1.45,3.42,3.42,0,0,1,1.89-.6,3.36,3.36,0,0,1,1.85.57c.39.33,1.53,1.67,2.28,2.57v32.55Zm31.72-35.09a3.42,3.42,0,0,1,1.89-.6h0a3.21,3.21,0,0,1,1.84.57,31.21,31.21,0,0,1,2.21,2.49v32.63h-8.26v-32.47A34.38,34.38,0,0,1,1892,1393.79Zm6,38.32V1441h-8.26v-8.86Zm0,12.09v38.2h-8.26v-38.2Zm0,41.43v8.86h-8.26v-8.86Zm0,12.09v37.4h-8.26v-37.4Zm0,40.62v8.87h-8.26v-8.87Zm0,12.09v38.65h-8.26v-38.65Zm0,41.87v8.86h-8.26v-8.86Zm0,12.09v39.44h-8.26v-39.44Zm4-210.6a3.42,3.42,0,0,1,1.89-.6h0a3.21,3.21,0,0,1,1.84.57,34.34,34.34,0,0,1,2.32,2.62v32.5h-8.27v-32.6A31,31,0,0,1,1902,1393.79Zm6.06,38.32V1441h-8.27v-8.86Zm0,12.09v38.2h-8.27v-38.2Zm0,41.43v8.86h-8.27v-8.86Zm0,12.09v37.4h-8.27v-37.4Zm0,40.62v8.87h-8.27v-8.87Zm0,12.09v38.65h-8.27v-38.65Zm0,41.87v8.86h-8.27v-8.86Zm0,12.09v39.44h-8.27v-39.44Zm4.09-210.6a3.42,3.42,0,0,1,1.89-.6,3.21,3.21,0,0,1,1.85.57,15.56,15.56,0,0,1,1.36,1.48v33.64h-7.35v-32.55C1910.6,1395.44,1911.72,1394.12,1912.11,1393.79Zm5.1,38.32V1441h-7.35v-8.86Zm0,12.09v38.2h-7.35v-38.2Zm0,41.43v8.86h-7.35v-8.86Zm0,12.09v37.4h-7.35v-37.4Zm0,40.62v8.87h-7.35v-8.87Zm0,12.09v38.65h-7.35v-38.65Zm0,41.87v8.86h-7.35v-8.86Zm0,12.09v39.44h-7.35v-39.44Zm-22.77-218.64v-13.81h3.68v13.81Zm7.56,0v-13.81h3.68v13.81Zm11.24,0h-3.68v-13.81h3.68Zm.47-91.91v13.87H1910v-13.87Zm-7.72,0v13.87h-3.68v-13.87Zm-7.71,0v13.87h-3.68v-13.87ZM1872,1269.32v-6.18h3.68v6.18Zm29.87,0v-6.18h3.68v6.18Zm-11.25,0h-3.68v-6.18h3.68Zm0,24.52v13.87h-3.68v-13.87Zm-7.72,0v13.87h-3.68v-13.87Zm-7.71,0v13.87h-3.68v-13.87Zm-11.4,0h3.68v13.87h-3.68Z"/></g></g></svg>