<svg xmlns="http://www.w3.org/2000/svg" viewBox="0 0 4938.66 2398"><defs><style>.cls-1{fill:none;}.cls-2{fill:#8e8e8e;}.cls-3{fill:#91e5f9;}.cls-4{fill:#39bae2;}.cls-5{fill:#59a1ad;}.cls-6{fill:#1d7c9b;}.cls-7{fill:#989898;}.cls-8{fill:#8c8c8c;}.cls-9{fill:#c8c8c8;}.cls-10{fill:#b6b6b6;}.cls-11{fill:#636363;}.cls-12{fill:#555;}</style></defs><title>Asset 6</title><g id="Layer_2" data-name="Layer 2"><g id="box"><rect class="cls-1" width="4938.66" height="2398"/></g><g id="s2"><g id="skyline2_1" data-name="skyline2 1"><g id="skyline2"><path id="Vector_3" data-name="Vector 3" class="cls-2" d="M4838.64,1461.16h-299l-56-11.14v233.26h411V1450Z"/><path id="Vector_6" data-name="Vector 6" class="cls-2" d="M1380.28,1704.5h-2.13v-10h-2.9V1472.66h1.22v-1.26h.46l2.14-5.26h-3.82v-49.5l1-2.54h.19v-.46l.92-2.25H1376v-2.55h-.77v-2.72l2-4.89h2.14v-2.9h-6.07v-5.26h-1.21v-5.23h-2.45v-7.25h-3.12v-13.42h2.52v-2.72h1.1v-2.18h-5.1v-3.09h-3.74v-5.07h1.45v-3.63h-1.52v-3.27h-1.83v-28.1h.84v-2.72h1.22v-1.63H1360v-2.54h-1.68v-5.38h-.24v-.06l-1.81-2.16v-1.35h0a.69.69,0,0,0,.64-.75.71.71,0,0,0-.64-.58h0v-.72c0-.44-.25-.8-.55-.8s-.56.36-.56.8v.72h0a.66.66,0,0,0-.66.66h0a.67.67,0,0,0,.66.67h0v1.35l-1.81,2.16.06.06h-1.11v-1h-1.17v-9.43h.31v-1.81h-1v-6.44a.58.58,0,0,0,.35-.57.57.57,0,0,0-.51-.61h-.57a.51.51,0,0,0,.07-.24.46.46,0,0,0-.41-.49h-1l-1-6.53h.68v-1.21h-.69a5.62,5.62,0,0,0-3.37-4.92c.85-.26,1.42-.74,1.42-1.3s-.8-1.21-1.93-1.42v-.39c1.1-.11,1.83-.39,1.83-.74s-.76-.63-1.83-.73v-3.58a2.67,2.67,0,0,0,1.21-2.33,2.24,2.24,0,1,0-4.41,0,2.64,2.64,0,0,0,1.22,2.33V1269c-1.1.11-1.83.4-1.83.73s.76.63,1.83.74v.39c-1.1.2-1.93.76-1.93,1.42s.57,1,1.42,1.3a5.67,5.67,0,0,0-3.31,4.92h-.7v1.33h.69l-1,6.53h-1a.46.46,0,0,0-.41.49.49.49,0,0,0,0,.24h-.56a.57.57,0,0,0-.51.61.58.58,0,0,0,.35.57v6.44h-1v1.81h.3V1306h-1.17v1h-1.11v-.06l-1.81-2.16v-1.35h0a.66.66,0,0,0,.66-.67.65.65,0,0,0-.66-.66h0v-.72c0-.44-.25-.8-.56-.8s-.56.36-.56.8v.72h0a.66.66,0,0,0-.66.66h0a.67.67,0,0,0,.66.67h0v1.35l-1.81,2.16v.06h-.24v5.32H1325v2.54h-1.45v1.63h1.22v2.72h.84v28.1h-1.82v3.27h-1.53v3.63h1.45v5.07H1320v3.09h-5.1v2.18H1316v2.72h2.51v13.42h-2.94v7.19h-2.45v5.26h-1.21v5.26h-1.3v3.75h-3.38v-17.54h-11.91c.39-1.6,0-3.6-.07-5.12s-.39-3.25-.4-4.91c0-1.1.83-2.32,1.11-3.4a2.43,2.43,0,0,0-.68-2.43,1.5,1.5,0,0,0,.57-1.57,3.8,3.8,0,0,0-1-2.23c-.74-.67-3-.67-3.11-2-.16-1.66-.61-2.61-1.53-3.08.37-2-.26-4.14-2.21-3.75-1.84-.42-2.29,1.37-2.21,3.54,0,.57-1.86,1.25-2.21,1.79a2.87,2.87,0,0,0-.44,1.68c-1.7,0-4,.19-3.81,2.51.12,2.07,1.57,2.51,3,2.59a7.12,7.12,0,0,0,1,3.85l.06.08a3.47,3.47,0,0,0,.15.78c.15,2.44.39,4.84.39,6.94a27,27,0,0,0,0,4.76h-5.52v4.82l-17.67-10.89V1364h1.91v-2.53h-2v-46.85c1.86-.27,2.87-.55,2.87-.84s-1.23-.63-3.47-.92h.5v-13.61h-11.92v-19.79c1.52-.4,2.34-.83,2.34-1.27s-.74-.82-2.1-1.2c-1.69-24.54-16.33-48.49-35.76-55.75v-2.53c.93-.33,1.46-.72,1.46-1.12s-.35-.64-1-.93v-1.55h-.7v-4.37h-2.61V1208h.83v-2.72h-.9v-16.4h.7v-3h-.79a.89.89,0,0,0-.11-1.22.71.71,0,0,0,.07-.32.63.63,0,0,0-.53-.67v-3.22a.26.26,0,0,0-.2-.33.3.3,0,0,0-.37.18.38.38,0,0,0,0,.15v3.22a.62.62,0,0,0-.53.67.72.72,0,0,0,.08.32.82.82,0,0,0-.3.66.79.79,0,0,0,.2.56H1207v-9.71h.53V1174h-1v-.67h.64V1172h-.53v-.51h.69a7.57,7.57,0,0,0-3.91-6.44v-1.2c.77-.19,1.28-.48,1.28-.8s-.61-.66-1.54-.85a1.52,1.52,0,0,0,.16-.65,1.64,1.64,0,0,0-.27-.85c.42-.18.69-.42.69-.7,0-.47-.79-.86-1.88-1v-2.65c.75-.12,1.28-.38,1.28-.69s-.53-.58-1.28-.7v-.11a3.5,3.5,0,0,0,1.28-5.1,4,4,0,0,0-1.28-1.16v-4.74a2.43,2.43,0,0,0,1.19-1.47h1.18a.84.84,0,0,0,.74-.92.83.83,0,0,0-.74-.91h-1.18a2.42,2.42,0,0,0-1.19-1.48v-1.88c0-.75-.39-1.35-.85-1.35s-.85.6-.85,1.35v1.88a2.37,2.37,0,0,0-1.18,1.48h-1.19a.85.85,0,0,0-.74.91.86.86,0,0,0,.74.92H1199a2.41,2.41,0,0,0,1.18,1.47v4.72a3.5,3.5,0,0,0-1.28,5.1,4,4,0,0,0,1.28,1.16v.14c-.75.12-1.28.39-1.28.7s.53.58,1.28.69V1159c-1.11.14-1.88.53-1.88,1,0,.27.25.51.68.7a1.62,1.62,0,0,0-.25.85,1.65,1.65,0,0,0,.14.65c-.92.19-1.52.5-1.52.85s.5.61,1.27.8v1.25a7.53,7.53,0,0,0-3.91,6.44h.68v.51h-.53v1.35h.64v.67h-1v2.19h.53V1186h-1.49a.86.86,0,0,0,0-1.28.72.72,0,0,0,.08-.32.61.61,0,0,0-.53-.66v-3.22a.27.27,0,0,0-.21-.33.29.29,0,0,0-.36.18.19.19,0,0,0,0,.15v3.22a.63.63,0,0,0-.53.67.6.6,0,0,0,.07.32.82.82,0,0,0-.3.66.87.87,0,0,0,.26.62h-.86v3h.7v16.4h-.9v2.72h.83v2.73h-2.61v4.37h-.75v1.55c-.63.29-1,.6-1,.93s.53.79,1.45,1.12v2.53c-19.43,7.25-34,31.2-35.75,55.75-1.36.38-2.1.79-2.1,1.2s.81.86,2.34,1.27v19.79h-11.91v13.61h.5c-2.21.29-3.47.59-3.47.92s1,.57,2.87.84v46.78h-2V1364h1.92v14.51l-17.67,10.89v-4.82h-5.53a25.23,25.23,0,0,0,0-4.76c0-2.1.25-4.5.4-6.94,0-.26.1-.52.13-.78l.07-.08a7,7,0,0,0,1-3.85c1.47-.08,2.93-.53,3-2.59.14-2.32-2.1-2.51-3.81-2.51a2.79,2.79,0,0,0-.43-1.68c-.37-.54-2.21-1.22-2.21-1.79,0-2.17-.39-4-2.21-3.54-1.94-.4-2.57,1.72-2.21,3.75-.94.47-1.38,1.43-1.53,3.08-.14,1.37-2.37,1.38-3.11,2a3.8,3.8,0,0,0-1,2.23,1.53,1.53,0,0,0,.56,1.57,2.43,2.43,0,0,0-.68,2.43c.25,1.08,1.1,2.3,1.1,3.4,0,1.66-.33,3.27-.39,4.91s-.47,3.52-.07,5.12H1094.9v17.54h-5.17v-3.75h-1.3v-5.26h-1.22v-5.21h-2.44v-7.25h-3.13v-13.42h2.52v-2.72h1.11v-2.18h-5.11v-3.09h-3.73v-5.07h1.45v-3.63h-1.53v-3.27h-1.83v-28.1h.84v-2.72h1.23v-1.63h-1.45v-2.54h-1.68v-5.32h-.24v-.06l-1.82-2.16v-1.35h0a.67.67,0,0,0,.67-.67.66.66,0,0,0-.66-.66h0v-.72c0-.44-.25-.8-.55-.8s-.56.36-.56.8v.72h0a.66.66,0,0,0-.66.66h0a.66.66,0,0,0,.66.67h0v1.35l-1.81,2.16,0,.06h-1.1v-1h-1.17v-9.43h.31v-1.81h-1v-6.44a.6.6,0,0,0,.35-.57.57.57,0,0,0-.51-.61h-.57a.53.53,0,0,0,.06-.24.47.47,0,0,0-.41-.49h-1l-1-6.47h.68v-1.21h-.68a5.65,5.65,0,0,0-3.37-4.92c.85-.26,1.42-.74,1.42-1.3s-.8-1.21-1.93-1.42v-.39c1.1-.11,1.82-.39,1.82-.74s-.76-.63-1.82-.73v-3.58a2.67,2.67,0,0,0,1.21-2.33,2.24,2.24,0,1,0-4.41,0,2.67,2.67,0,0,0,1.21,2.33v3.58c-1.1.11-1.83.4-1.83.73s.76.63,1.83.74v.39c-1.1.2-1.93.76-1.93,1.42s.57,1,1.42,1.3a5.67,5.67,0,0,0-3.31,4.92h-.7v1.21h.69l-1,6.53h-1a.46.46,0,0,0-.41.49.53.53,0,0,0,.06.24h-.57a.57.57,0,0,0-.51.61.61.61,0,0,0,.36.57v6.44h-1v1.81h.3V1306H1048v1h-1.11v-.06l-1.81-2.16v-1.35h0a.66.66,0,0,0,.66-.67.65.65,0,0,0-.66-.66h0v-.72c0-.44-.24-.8-.55-.8s-.56.36-.56.8v.72h0a.66.66,0,0,0-.67.66h0a.67.67,0,0,0,.67.67h0v1.35l-1.82,2.16v.06h-.24v5.32h-1.68v2.54h-1.45v1.63H1040v2.72h.84v28.1H1039v3.27h-1.55v3.63h1.45v5.07h-3.74v3.09h-5.1v2.18h1.1v2.72h2.52v13.42h-3.08v7.19h-2.44v5.26H1027v5.26h-6.06v2.9H1023l2,4.89v2.69h-.76v2.54h-1.37l.92,2.25v.46h.18l1,2.54v49.5h-3.81l2.13,5.26h.45v1.26h1.2v221.89h-2.87v10h-5.87v17.4H1384v-17.4h-3.73Zm-336.07-357.3h-1.37v-28.1h1.37Zm28.33,0h-1.37v-28.1h1.33Zm16.33,54.42.15-.39h.49Zm58-40.18h-2v-46.39c.63.06,1.31.11,2,.16Zm47.43-156.08h-.72V1189h.72Zm14.18,0h-.71V1189h.71Zm48.73,156.08h-2v-46.23l2-.16Zm53.57,39.79h.48l.17.39Zm18.33-54h-1.37v-28.1h1.37Zm28.33,0h-1.37v-28.1h1.42Z"/><path id="Vector_4" data-name="Vector 4" class="cls-3" d="M4072,1045.82v6.8h7c-.44,1.6-.92,3.22-1.33,4.85h-8.67v6.81h6.84c-22.38,84.69-40.82,203.15-40.82,324.2V1681.1h-36.48V1379.38c0-104.09,18.45-206,40.82-278.75h-6.84v-5.84h8.67c.44-1.41.92-2.8,1.33-4.18h-7v-5.85h8.91c18.61-55.53,39.11-90.54,53.74-90.69-5.79,14.74-11.61,32.15-17.26,51.72H4072Z"/><path id="Vector_5" data-name="Vector 5" class="cls-4" d="M4197.93,1379.38V1681.1h-163V1388.48c0-121,18.44-239.52,40.81-324.2h-6.84v-6.81h8.67c.44-1.63.92-3.25,1.33-4.85H4072v-6.8h8.91c5.65-19.61,11.48-37,17.26-51.72h.09c14.67,0,35.18,35.05,53.83,90.68H4161v5.78h-7l1.34,4.19H4164v5.84h-6.85C4179.5,1173.45,4197.93,1275.29,4197.93,1379.38Z"/><path id="Vector_7" data-name="Vector 7" class="cls-5" d="M4155.52,1464.87l-6.76,21.71c-3.76-9.54-7.67-19-11.65-28.29h18.39v-5.37h-18.65l9.87-29.67c3,8,5.93,16,8.75,24.14,0-5.14-.09-10.25-.15-15.34q-2-5.44-4-11h3.88c0-1.82,0-3.58-.09-5.38h-5.77l5.43-15.53q-.18-7-.38-14l-7.84,22.43c-3.12-8-6.33-16-9.55-23.68h17.34c-.06-1.82-.11-3.63-.17-5.38H4135l10.62-30.06c2.85,7.25,5.61,14.42,8.25,21.41-.19-5.22-.4-10.39-.63-15.55-1-2.52-1.95-5.06-2.95-7.61h2.61c-.08-1.81-.16-3.62-.26-5.37h-4.47l3.91-11q-.36-6.39-.74-12.7l-5.95,16.81c-3.29-8.16-6.69-16.48-10.17-24.8h15.61c-.12-1.82-.24-3.63-.35-5.37h-17.3l9.62-26c2.46,6.43,4.87,12.84,7.21,19.12q-.6-8.79-1.28-17.46c-1-2.6-2-5.2-3-7.83H4148c-.16-1.82-.29-3.63-.45-5.37h-1.11l.8-3.63q-.69-8.11-1.45-16.1l-3.6,16.18c-3.57-9.24-7.33-18.79-11.15-28.5h13.56c-.17-1.81-.37-3.63-.55-5.37h-12.43l6.12-23.71c1.77,4.78,3.54,9.62,5.36,14.52q-1.14-10.49-2.37-20.71c0-.14-.11-.28-.15-.43h.11q-1.3-10.66-2.66-21l-1.57,9.9q-4.77-12.93-9.37-25.53h8.78q-.56-3.94-1.14-7.83h-7.45l3.59-23.93c.07.19.13.38.2.56q-2.68-16.32-5.64-31.65c-1.42-4.26-2.8-8.43-4.11-12.5H4123c-.37-1.82-.74-3.63-1.11-5.37h-2.27l-.37-1.12.92-6.9q-1.55-7-3.11-13.75l-1.28,9.59c-2.05-6.63-3.94-13-5.66-19h4.69c-.44-1.82-.91-3.63-1.33-5.37h-4.86l-.11-.37.36-17.12q-2.8-10.1-5.77-19.48h-2.62l1.15-4.64c-.91-3-1.93-5.88-2.91-8.72l-1.32,5.32-1.21-5.45,2.47,0c-1.83-5.45-3.8-10.72-5.75-15.72-10.79,6-42.88,35.22-77.91,178-10.95,44.6-44.51,214.49-16.5,527.74l.51,5.74h145.67q.64-6.35,1.24-12.7h-9.28l3-8h7c.16-1.82.32-3.61.48-5.38h-5.5l5.56-14.88c.32.9.63,1.81.91,2.72q.91-11.43,1.75-23.08l-2.53,6.21c-3.09-8.16-6.71-17.24-10.81-26.9h14.66c.1-1.81.21-3.57.31-5.37h-15l11.94-28.79c1.42,3.79,2.8,7.53,4.11,11.22q.3-6.35.6-12.75l-1-2.61h1.09c.08-1.81.15-3.6.22-5.37h-1.29l1.45-4q.32-7.89.58-15.84l-5.76,15.57c-3.55-9.07-7.38-18.41-11.44-27.9h17.57c.05-1.82.1-3.61.15-5.38H4137l11.82-27.39q3.16,8.34,6.09,16.57c.09-4.53.19-9.16.26-13.79-.85-2.28-1.71-4.54-2.58-6.82h2.67c0-1.82,0-3.58.05-5.37h-2.86l3-9.5C4155.49,1476.09,4155.52,1470.5,4155.52,1464.87Zm-22.53-16c-4.15-9.4-8.45-18.7-12.78-27.76h22Zm-85.24,187.23-10.87-26.9h21.68c-4.08,9.74-7.69,18.76-10.79,26.9Zm.15,14.11,5.57,14.89h-10.29c1.28-4.48,2.87-9.47,4.74-14.89Zm49.72-557.63c2.64,8.4,5.57,17.34,9.11,27.7h-18.28C4092,1109.92,4094.94,1101,4097.62,1092.57Zm0-17.37-5.34-23.84H4103Zm-4.29,160.41c-2.32,4.91-6.72,14.3-12.4,27l-10.54-27.15Zm-21.66-5.56c3.67-9.18,7.1-17.73,10.25-25.51l11.49,25.71Zm-19.25,112.38c3.94-9.89,8.08-20,12.31-30.15l11.84,30.15Zm22.15,5.37c-3.82,8.26-7.63,16.77-11.35,25.41l-9-25.41Zm-24.75-12.34-8.79-24.82h19c-3.48,8.28-6.88,16.6-10.18,24.82Zm10.39,44.15h-21.74l-.16-.52c3.51-9.5,7.33-19.43,11.26-29.55Zm-2,5.37c-3.23,7.74-6.42,15.69-9.55,23.69l-8.3-23.69Zm.09,67.93h-20.54c3.4-9.89,7-19.86,10.69-29.67Zm-.28,5.37c-4,9.28-7.89,18.77-11.64,28.28l-8.79-28.28Zm.08,69.73H4036.4c3-8.88,6.34-18.08,9.86-27.4Zm-8.17-31.46h24.75c-4.38,9.37-8.63,18.77-12.66,28Zm0-5.38c3.81-9.72,7.81-19.53,12-29.22l12.83,29.22Zm3-70.08h22c-4.35,9.07-8.63,18.39-12.77,27.75Zm-1.64-5.38c3.74-9.72,7.65-19.47,11.63-29l12.18,29Zm16.3-30.73h25.62c-2.67,5-7.7,14.42-14.1,27.47Zm-1.69-5.38c4.45-10.47,9-20.69,13.49-30.43l14.17,30.43Zm3.47-68.95H4093c-2.75,4.94-7.39,13.86-13.3,26.22Zm-1.75-5.36c4.26-10,8.62-20.12,13-30l13.07,30Zm9.88-37.62h-20.66c3.54-9.18,7-18.07,10.37-26.55Zm-1.34,5.38c-3.8,8.59-7.56,17.24-11.21,25.85l-9.51-25.86Zm-14.13,32.24h-19.42c3.18-8.58,6.47-17.33,9.79-26Zm-23.09-4.24-4.4-28h15C4045.81,1282.65,4042.27,1292.05,4039,1301.05Zm8.17,41.36h-17.89c2.84-8.08,5.86-16.5,9-25.12Zm-2.12,5.39q-4.77,12.24-9.17,23.88l-8.14-23.88Zm.91,67.91h-20.45c3.19-9.53,6.62-19.36,10.21-29.27Zm-2,5.37c-3.38,9-6.63,17.94-9.69,26.76l-8.87-26.76Zm-1.22,70.08h-17.18c2.75-9.14,5.61-18.36,8.63-27.45Zm-.16,5.38c-3.33,8.74-6.51,17.51-9.49,26.13l-7.61-26.13Zm.5,69h-18.34c2.5-8.79,5.28-17.9,8.3-27.14Zm-6.58-32.12h21.73c-4.07,9.53-7.92,18.88-11.45,27.89Zm25.66,3.48,13.34,28.65h-25.05c3.57-9.21,7.49-18.82,11.68-28.64Zm3.88-3.48h27.49c-2.48,5-7.68,15.66-13.94,29Zm0-5.39c4.13-9.48,8.45-19,12.83-28.44l14.61,28.44Zm12.83-40.09-13-29.63h27.66c-2.85,5.4-8.1,15.83-14.69,29.68Zm-12.94-35c4.27-9.71,8.7-19.37,13.21-28.79l14.42,28.79Zm17.26-31.83h29l-14.54,29Zm0-5.37c6.61-13.5,11.78-23.25,14.49-28.23,2.7,5,7.86,14.73,14.47,28.23Zm1.19-67.91h26.58l-13.32,28.57Zm-1.71-5.37c6.42-13.55,11.69-23.91,14.61-29.16l.4.91.41-.91c2.93,5.27,8.25,15.62,14.61,29.16Zm15-40.72L4085.19,1273h24.93Zm-13.54-34c6.21-13.87,11-24.1,13.54-29.5,2.54,5.38,7.34,15.61,13.55,29.5Zm1.2-67.73H4110l-12.36,27.55Zm.67-5.37c2.58-6.35,4.92-12.09,6.88-16.88l.46-1.13c2-4.93,3.39-8.27,4.33-10.6.91,2.29,2.2,5.44,4,9.93l.27.65c2.07,5,4.59,11.12,7.34,18Zm11.63-41.38-9.79-27.53h19.57Zm-8.77,21.19c-1.9,4.62-4.16,10.16-6.71,16.4l-7.63-27.49h18.86c-1.15,2.72-2.71,6.55-4.57,11.09Zm-17.75-5,7,25.17h-16.25q4.61-12.72,9.19-25.17Zm-2.75-43.75h13.1c-2.91,8.44-6,17.16-9.16,26Zm10.09,74.3c-3.28,8-6.9,17-10.75,26.72l-6.91-26.72ZM4053,1264.13l-6.31-28.27.24-.66,17.33.17c-3.69,9.12-7.46,18.76-11.32,28.76Zm-4.23,3.53h-13.49c2.75-7.87,5.55-15.64,8.25-23.22Zm-16.22-7.44-3.73-25.18,12.57.12,0,.31Q4037.13,1247.51,4032.54,1260.22Zm-1.83,20.26,3.91,24.8h-12.4C4024.82,1297.57,4027.56,1289.55,4030.71,1280.48Zm4.66,30.16c-3.44,9.34-6.72,18.46-9.8,27.17l-4-27.17Zm-2.29,68.38-.2.58h-16.3c2.55-7.85,5.32-16.14,8.25-24.75Zm-2.15,6c-3,8.36-5.93,16.64-8.66,24.67l-6-24.67Zm-.23,67.93h-16.91c2.49-8.6,5.22-17.49,8.13-26.5Zm0,5.37c-3,9-5.9,18.09-8.61,27l-8.25-27Zm-8.54,44.52,7.33,25.21h-14c2-8.26,4.27-16.7,6.68-25.21Zm7.33,30.6c-2.81,8.5-5.5,17-7.91,25.4l-6.17-25.4Zm13.6,37.49c-3.6,9.52-6.89,18.77-9.81,27.55l-8.52-27.55Zm3.73,4.13,11.85,28.8h-22c3-9.16,6.35-18.79,10.09-28.77Zm3.67-4.13h25.11c-4.71,10.2-9.11,20-13.09,29.23Zm29.06,3.34,13.8,29.59h-27c4-9.36,8.46-19.3,13.2-29.59Zm3.95-3.34h28.24l-14.11,30.31Zm27.61,69.38h-27c5.69-12.65,10.91-23.44,13.49-28.68,2.54,5.2,7.74,16,13.45,28.68Zm-27.5-74.75c6.17-13.19,11.29-23.67,14-29.2,2.75,5.53,7.84,16,14,29.2Zm-.72-69h29.39l-14.66,28.67Zm-.1-5.38c6.69-14.08,12-24.67,14.85-30.13,2.6,5.09,8,15.89,14.85,30.13Zm33.4-67c4.52,9.46,9,19.12,13.2,28.79h-27.62Zm-.12-11.68c-6.42-13.08-11.44-22.53-14.11-27.47h25.62Zm-14.44-32.85,14.17-30.44c4.53,9.8,9.06,20,13.49,30.44Zm13.89-42.74c-5.93-12.36-10.57-21.29-13.31-26.22h23.59Zm-14-31.6,13-30c4.42,10,8.79,20,13,30Zm12.84-42.7c-5.73-12.7-10.09-22-12.4-26.91h22.83Zm-12.56-32.29,11.5-25.75c3.18,7.84,6.67,16.48,10.34,25.75Zm11.29-39.48c-2.56-6.26-4.82-11.8-6.73-16.46l-4.51-11h18.85Zm6-35.38h-17l8.51-24.05c2.84,8.19,5.69,16.24,8.53,24.07Zm-5.29-29.81h13.07l-3.9,26c-3.15-8.73-6.23-17.46-9.17-26Zm-4-11.7c-3.4-10-6.08-18.28-8.49-26h12.16Zm-24.34,0-3.67-26h12.17c-2.41,7.66-5.15,16-8.5,26Zm-.81,17.54,8.54,24h-17c2.8-7.8,5.66-15.85,8.5-24ZM4070,1120.29c2.63-7.64,5.26-15.58,8-24.13l3.45,24.13Zm-2.75-7.43-1.46-24.93h9.55c-2.6,8.49-5.31,16.84-8,24.92Zm-8.38,75.25L4056,1163.3h12q-4.44,12.26-9.06,24.8Zm-1.54,18.49,6,23.38-14.59-.12q4.35-11.86,8.58-23.28ZM4045,1225.74l-3.11-25.8h12.65q-4.65,12.61-9.5,25.81Zm-4.81-38.46-3.33-24h12.31q-3.24,8.71-6.51,17.38Zm-2.31,20.38,2.67,22.12-10.71-.09c2.49-6.85,5.1-14,8.08-22.09Zm-11,15.69-4-23.4h12.64c-3.28,8.78-6.06,16.36-8.6,23.38Zm1.83,44.33h-11.83c2.58-8,5.28-16,8.25-24.49Zm-.66,5.38c-3,8.67-5.79,16.68-8.37,24.31l-3.44-24.31Zm-10.24,45.65,3.49,23.74h-11.1c2.56-8.15,5.11-16.1,7.61-23.76Zm4.24,29.11c-2.9,8.35-5.65,16.48-8.25,24.25l-4.16-24.25Zm-3.37,67.91h-13.16c2.19-7.7,4.59-15.84,7.27-24.28Zm-.22,5.37c-2.75,8.35-5.31,16.58-7.68,24.58l-5.27-24.58Zm.22,70.09h-14.82c1.91-8.52,4.15-17.46,6.66-26.69Zm0,5.38c-2.46,8.52-4.74,16.9-6.81,25l-7.8-25Zm-6.51,44.74,5.89,24.22h-11c1.65-8.23,3.37-16.34,5.16-24.24Zm5.87,29.6c-2.19,8-4.21,16-6.06,24l-4.9-24Zm3.41,6.35,8.25,26.59H4015c1.92-8.62,4.06-17.54,6.5-26.61Zm8.25,32c-2.66,8.57-5,16.76-6.87,24.43l-7.58-24.43Zm-6.14,44.26,3.31,11.64h-5.13c.52-3.69,1.13-7.6,1.88-11.66Zm9.84-39.52,10.65,26.31H4026.3c2-8.28,4.41-17.12,7.16-26.33Zm29.12-1.38,13.49,27.72h-24.56c3.19-8.42,6.9-17.73,11.12-27.74Zm3.92-3.36h26.7c-2.66,5.44-7.63,15.71-13.12,27.88Zm13.59,40.13,6.46,15.77H4073.4c2-4.94,4.26-10.22,6.69-15.79Zm3.86-3.68h27.29l-8,19.44h-11.37Zm31.16,3.68c2.44,5.58,4.65,10.89,6.63,15.77h-13.06Zm-13.1-40.13h26.7l-13.59,27.88c-5.53-12.35-10.61-22.85-13.08-27.9Zm-.12-5.37,13.74-29.6c4.76,10.31,9.17,20.25,13.24,29.6Zm-.16-70.42h27.5l-13.52,29c-6.28-13.46-11.46-24-13.94-29Zm.07-5.39,14.61-28.45c4.4,9.45,8.72,19,12.84,28.45Zm0-69.73h27.66l-13,29.65c-6.54-13.76-11.83-24.24-14.62-29.67Zm42.06-42.57H4120l12.16-29c4.08,9.62,8,19.33,11.71,29Zm-11.92-42.51c-3.74-8.68-7.54-17.24-11.35-25.41h20.33Zm10.82-30.77h-24.15l11.84-30.17c4.28,10.08,8.42,20.2,12.37,30.15Zm-12.57-43.55c-3.67-8.59-7.42-17.24-11.23-25.85h20.88Zm8.1-31.22h-20.66l10.3-26.56c3.41,8.46,6.89,17.37,10.43,26.54Zm-10.69-41c-3.85-9.68-7.47-18.68-10.74-26.73h17.64Zm5.83-32.1h-16.22l7-25.17q4.53,12.45,9.24,25.17Zm-15.65-101.91c2.9,8.92,6,18.15,9.28,27.61h-13.19Zm-3.46-10.72-.07.6H4101l5.7-25.51c2.28,7.84,4.83,16.2,7.59,24.91Zm-10-67.58-.27,13.94q-1.85-7.57-3.13-13.94Zm-6.69,8.17c1.59,7,3.58,14.88,5.94,23.47h-11.31c2-8.2,3.8-15.94,5.39-23.47Zm-4.52-18.43,1.11,4.93h-2.9Zm1.21,10.3c-.91,4.7-1.94,9.55-3.11,14.82l-.33-14.82Zm-.1,68.15h-12c2.45-8.16,4.68-15.87,6.73-23.59Zm-10.18-76.6c1.15-1.62,2.29-3.16,3.43-4.54l-.92,6.28-.5,1.36h-3.2Zm-2.07,8.45h2.1l-3.66,10Zm4.22,8.65.5,23h-8.88Zm-.35,28.32c-2,7.83-4,15.09-6,22l-2.82-22Zm-11.2-21.67-2.52,16.33h-3.93Zm-7.85,21.67h3.78l-4.14,11.33Zm-.84,27.1L4073,1059l3,23.53H4065.8Zm1.91,77h-10.46c2.52-6.83,5-13.67,7.4-20.39Zm-13-7.36-1.54-22.43h9.6c-2.45,7-5.1,14.35-8.06,22.43Zm-1.78-27.81-.11-6.16,8.25-22.53,1.68,28.7H4053Zm2.37-56.32c1.74-4.53,3.41-8.83,5-12.59h.33l-5.5,13.81Zm6.14-1.21-.46,14.59-1.91,5.22h-5.5Zm-4.33,25.17-4.58,12.43-.22-12.43Zm-2.48,106.65h-11.91l4.19-11.2,4.9-13.12Zm-4.32-39.12h-12.58l10.59-29Zm-2.68-57.83.28,15.51-2.62,7.16h-6.62Zm-11.09,28h6.8l-8.25,22.54-1.54-15Zm-.35,68.95h-12.76l9.24-25.32ZM4030,1146l1,9.53h-3.4c.81-3.29,1.61-6.45,2.42-9.57Zm-7.33,30.28c1-4.54,1.94-8.86,2.91-12.93h4l-7.06,19.31Zm-7.46,41,3.78-10.38,3.93,22.82-9.55-.08c.65-4.32,1.26-8.47,1.88-12.38Zm-2.61,17.73,10.08.09c-3.06,8.67-5.89,16.91-8.55,25l-2.69-16.46c.42-3,.82-5.86,1.2-8.68Zm-3.31,26,1.11,6.77h-1.84c.27-2.31.52-4.56.77-6.79Zm-1.34,12.15h1.95q-1.48,4.74-2.93,9.53c.35-3.27.69-6.45,1-9.56Zm4.47,8.49,3.37,23.74h-10.25c2.12-7.7,4.4-15.53,6.93-23.76Zm2.75,29.11c-2.36,7.16-4.81,14.72-7.39,22.9l-2.75-22.9Zm-12.33,23,1.05,8.8h-1.58c.21-3.06.39-6,.57-8.83Zm-.84,14.18h1.29c-.53,1.71-1,3.4-1.57,5.14.13-1.76.23-3.48.32-5.17Zm-1.42,30.31c0-1.6.11-3.2.17-4.75q2.61-8.9,5.26-17.6l4.09,23.84h-9.57Zm-.28,7.69V1385h9.3c-2.48,7.83-4.78,15.32-6.84,22.34L4000,1393c.16-2.46.24-4.88.32-7.23Zm-1.08,53.53c.83-3.49,1.75-7.17,2.75-11l5.26,24.5h-8.08c.05-4.53.08-9,.11-13.49Zm-.05,18.91h7.89c-2.28,8.16-4.36,16.13-6.21,23.82l-1.62-8.16c0-5.31,0-10.47,0-15.65Zm.71,52c.39-2.17.82-4.36,1.25-6.57l7.56,24.27h-8.26q-.28-8.94-.51-17.68Zm.69,23.08H4009c-1.83,7.87-3.67,16-5.35,24.4l-2.42-8.43c-.19-5.38-.38-10.67-.56-15.95Zm2.49,55.13c.37-2.36.76-4.71,1.15-7.07l4.58,22.36H4004q-.45-7.69-.88-15.28Zm1.25,20.66h4.48c-1.19,5.81-2.29,11.72-3.31,17.68q-.57-8.89-1.13-17.66Zm8,7.39,7.33,23.69h-11.39c1.15-7.6,2.48-15.41,4.09-23.67Zm-2.76,61.92c-.16-1.72-.29-3.43-.42-5.13l-.25-2.87h.92c.82,2.87,1.62,5.51,2.41,8Zm6.29-5-.92-3h1.25Zm1-8.42h-3.4c-1.69-6.06-3.35-12.58-4.94-19.44h11.62c-1.49,6.86-2.58,13.39-3.32,19.42Zm3.42,13.38.91-8h7.34l2.15,8Zm14.87-2.53-1.56-5.44h3Zm-3.1-10.89-5.49-19.44h17.75c-2.56,7.2-4.64,13.73-6.22,19.44Zm7.54,13.39,2.12-8h13.72l3,8Zm23.83-1-2.64-7H4066q-1.42,3.66-2.62,7.06Zm-4.65-12.42-7.26-19.44h24.75c-3,6.91-5.76,13.45-8.14,19.44Zm9.49,13.42c.92-2.5,1.91-5.19,3-8h17.42l3.27,8Zm29.45,0h-.39l-3.28-8h7Zm5.38,0,3.27-8h17.42c1.11,2.88,2.11,5.53,3,8Zm28.6-1c-.81-2.26-1.68-4.62-2.6-7h5.23Zm4.63-12.42H4127c-2.37-6-5.11-12.53-8.14-19.44h24.75Zm7.28-24.81h-24.55l13.49-27.72c4.25,10,8,19.27,11.1,27.7Zm-10.95-40.14c-4-9.28-8.42-19.06-13.11-29.24h25.12Zm12-34.62h-25l13.35-28.65c4.19,9.83,8.12,19.45,11.71,28.64Zm-11.63-41c-4.05-9.24-8.3-18.63-12.66-28h24.75Zm-12.72-33.35,12.83-29.23c4.15,9.69,8.17,19.51,12,29.23Z"/><path id="Vector_8" data-name="Vector 8" class="cls-6" d="M4181.15,1157.7c-40.65-165.6-77.35-178.48-81.4-179.4l-1-.24-.63.12-.63-.12-1,.24a12.89,12.89,0,0,0-3.47,1.45q2.92,7.51,5.75,15.71h.11l0,.18q1.48,4.27,2.91,8.72l.24-1,2,5.53v.09h-.82q3,9.38,5.76,19.48l.12-5.77,8.57,23.26h-4.06c.46,1.81.92,3.56,1.34,5.37h3.52l-1.27,9.42q1.56,6.74,3.1,13.75l2.17-15.71,8.73,23.7h-9.16c.36,1.81.74,3.56,1.1,5.37h8.83l-2.95,22.61q-1.76-5.1-3.4-10.11,2.94,15.34,5.64,31.66c3.72,10.52,6.76,18.82,8.42,23.36h-4.77c.39,2.59.76,5.2,1.15,7.83h4.58l-2.47,15.62q1.36,10.37,2.65,21h12.5l-3.11,25.78q-4.72-12.95-9.34-25.41,1.23,10.23,2.37,20.72l3.36,9.2h-2.41c.19,1.81.38,3.6.55,5.37h3.82l.07.21-2.75,12.12q.77,8,1.45,16.09l4.38-19.62q4.13,11.4,8.31,23.22h-12.38c.16,1.82.3,3.58.45,5.38h12.62l-4.33,28.11c-2.45-6.58-5-13.33-7.62-20.22q.67,8.68,1.29,17.46c.91,2.33,1.74,4.63,2.58,6.94h-2.12c.13,1.81.24,3.6.35,5.37h3.32l-2.82,8q.36,6.35.73,12.7l5-14.07c3.14,8.6,6.17,17,9,25.14h-13.38c.09,1.82.18,3.61.26,5.37h14.66l-8.13,23.87q-3-8-6.18-16.26.36,7.73.63,15.55,1.56,4.11,3,8.16l-.19.53h-2.54c.08,1.81.12,3.57.18,5.37h.48l-.44,1.24c.14,4.65.28,9.29.39,14l4.8-13.73c3.61,10,7,19.77,10.21,29.27h-14.66c0,1.81.07,3.57.09,5.37h14.66l-8.87,26.76c-1.83-5.22-3.67-10.5-5.63-15.81q.12,7.65.16,15.34c.65,1.82,1.28,3.69,1.91,5.54h-1.89v5.37h2.06l-2.05,6.58q0,8.45-.05,16.81l5.59-18c3,9.07,5.9,18.31,8.63,27.45h-14.36c0,1.81,0,3.63,0,5.37h14.42l-7.59,26.13c-2.2-6.35-4.52-12.84-6.92-19.31q-.12,6.93-.26,13.79,2,5.44,3.78,10.89h-4c0,1.81-.09,3.63-.15,5.38h4.18l-4.59,12.32q-.26,8-.57,15.84l8.55-23.18c3,9.27,5.81,18.38,8.3,27.14h-17c-.08,1.81-.14,3.63-.22,5.37h17.24l-8.51,27.56c-2.66-8-5.63-16.33-8.83-25q-.3,6.42-.6,12.76,3.24,9,6,17.57h-7c-.11,1.82-.21,3.63-.3,5.37h7l-8.37,20.68q-.83,11.66-1.74,23.08,2.22,6.54,3.81,12.13h-4.81c-.16,1.82-.32,3.63-.49,5.37h6.78l2.12,8H4146q-.61,6.42-1.24,12.71h52.35l.51-5.75C4225.65,1372.21,4192.1,1202.31,4181.15,1157.7Zm-72.53-150.31-1.15-7.64c.83,1,1.65,2,2.49,3.1l2.48,6.16h-3.23Zm2.58,7h2l1.54,9.69Zm9.35,14.84,6.75,16.76h-4Zm4.26,22.13h4l1.46,14.94Zm71.86,371.27-.42-1.58h.4C4196.66,1421.61,4196.67,1422.14,4196.67,1422.63Zm-.11-7h-.8l.72-3.82c0,1.31.06,2.6.13,3.85Zm-.68-27.11-3.53,18.72c-2.07-7-4.36-14.52-6.84-22.34h10.25Zm-18.81,182.28h11l-4.9,24c-1.88-7.91-3.91-15.95-6.1-24Zm9.72,69.38H4175.4l7.33-23.71c1.62,8.31,3,16.13,4.06,23.75Zm-9.73-74.75,5.89-24.22c1.83,7.88,3.51,16,5.09,24.22Zm-.62-69H4191l-7.79,25c-2.08-8.09-4.36-16.49-6.81-25Zm0-5.38,8.17-26.7c2.52,9.22,4.76,18.15,6.67,26.7Zm7.91-45.49c-2.37-8-5-16.26-7.68-24.59h12.95Zm-26.9-240c2.69,7.71,5.5,16,8.43,24.57h-11.4Zm-9.78-42.43h10.82l-3.13,21.49c-3.31-9.39-6-16.9-7.65-21.47Zm13,36.66h11.85l-4.06,22.54c-2.66-7.87-5.3-15.47-7.75-22.51Zm9.41,42.87c2.93,8.8,5.66,17.14,8.12,24.86h-11.78Zm8.79,30.24-3.44,24.28c-2.64-7.82-5.38-15.83-8.35-24.28Zm-1.56,45.62c2.75,8.31,5.26,16.14,7.64,23.76h-11.08Zm8.12,29.14-4.15,24.24c-2.56-7.75-5.31-15.89-8.25-24.24Zm-3.1,43.63c2.64,8.43,5.07,16.57,7.26,24.28h-13.15Zm13.18-11.8H4185l4.08-23.86c2.23,7.26,4.32,14.33,6.36,21.31Zm-1-22.91q-1.37-4.48-2.75-8.89H4194c.24,2.92.39,5.86.54,8.88Zm-1.67-28.31q.48,7,.92,14h-2.56Zm-5.55,5.09c-2.37-7.48-4.85-15.13-7.41-22.83H4190Zm-8-28.21,3.33-23.59c2.75,8.86,5,16.76,6.91,23.59Zm10.27-17.72c-1.37-4.53-2.86-9.4-4.45-14.51h3q.8,7.14,1.5,14.5Zm-3-28.73c.34,2.9.67,5.86,1,8.85h-2.75Zm-2-15.63-3.4,17.44c-2.53-7.83-5.27-16.21-8.25-25h10.61c.4,2.45.75,5,1.08,7.52Zm-3.55-25c.59,3.83,1.19,7.87,1.79,12H4172l4.39-24.43Zm-7.93-43.4v7.55l-7-19.05h4.41c.82,3.21,1.71,7.06,2.67,11.49Zm-4.58-19.39H4164l-.42-18.91c1.68,6.09,3.33,12.44,4.94,18.9Zm3.77,39.12h-13.41l3.82-26.06Zm-13.38-50.64-6.73-18.28h6.32Zm-1.78-23.65h-6.31l-1.34-19.06Zm-7.48,12.82,8.24,22.36h-11.23Zm-4.72-27.16-6.64-18h5.35Zm-8.08-23.39-1.69-17,6.81,17Zm-1-31.18.29.72,1.44,6.1-2.75-6.82Zm-2.26-5.37h-.65l-.92-3.63Zm2.22,49.48,9.16,24.8h-12.37Zm-1.68,30.17h11.61l-3.18,23.59c-2-5.66-5-13.81-8.37-23.6Zm6.42,68.95,4-25.4c2.16,6,5.31,14.86,9,25.4Zm13.2,41.08h12.45l-3.66,24.55q-4.36-12.54-8.7-24.58Zm10.68,44.81c3,8.71,5.82,16.89,8.49,24.81h-12.37Zm-4.66,30.19h13.75l-4,27.22c-3-8.85-6.26-18-9.68-27.26Zm2.28,68.38,8.25-24.19c3,8.61,5.74,16.92,8.29,24.77h-16.29Zm2.15,6h14.67l-6,24.68c-2.66-8.08-5.55-16.34-8.6-24.71Zm9,41.45c2.92,9.07,5.65,17.94,8.12,26.5h-16.75Zm-8.63,31.82h16.87l-8.25,27C4170.41,1476.38,4167.53,1467.32,4164.53,1458.28Zm8.54,44.53c2.41,8.53,4.68,17,6.72,25.2h-14.05Zm-7.33,30.59h14.07l-6.15,25.4c-2.46-8.37-5.11-16.88-7.93-25.4Zm7.94,43.84c2.4,9.07,4.58,18,6.46,26.59h-14.67Zm6.19,32-7.56,24.42c-1.91-7.64-4.22-15.83-6.88-24.42Zm-6.49,55.89h-5.13l3.32-11.65c.73,4.08,1.34,8,1.8,11.65Zm-11.66-51.15c2.81,9.22,5.18,18,7.1,26.31h-17.75Zm-1.69,62-1.45-5.44h3Zm-2.91-10.89c-1.57-5.71-3.66-12.23-6.22-19.44h17.75l-5.5,19.44Zm7.33,13.39,2.29-8h7.33l.87,8Zm14.85-5-.33-3h1.24c-.33,1.07-.63,2.08-.93,3.07Zm-.91-8.42c-.75-6-1.84-12.57-3.28-19.44h11.61c-1.61,6.89-3.27,13.41-4.93,19.44Zm8.69,7.83c-.16,1.81-.31,3.69-.46,5.55H4183c.78-2.5,1.58-5.14,2.4-8h1.91Zm.86-10.34-.21,2.51h-.84c.41-1.48.81-3,1.21-4.53-.1.73-.16,1.39-.22,2.06Zm2.66-34.87c-.13.7-.29,1.42-.44,2.15-1.13-7-2.41-13.89-3.81-20.65h5.5c-.46,6.16-.86,12.3-1.3,18.51Zm1.65-25.29-.08,1.42h-5.79l4.58-22.31c.65,4,1.26,8,1.83,12.13-.22,2.94-.4,5.87-.59,8.8Zm3.24-66.72c-.11,3.21-.21,6.41-.34,9.68l-3.57,12.44c-1.69-8.35-3.48-16.53-5.36-24.41h9.34Zm.25-7.68h-9.28l7.55-24.27c.79,4,1.5,7.81,2.11,11.49-.16,4.25-.29,8.54-.43,12.82Zm1.18-59.35-2.61,13.45c-1.84-7.69-3.92-15.67-6.21-23.82H4197c-.05,3.46-.08,6.92-.1,10.4Zm-9-15.74,5.25-24.5c1.37,5.28,2.65,10.42,3.77,15.34v9.18h-9.07Z"/></g></g><polygon class="cls-7" points="746.36 1668.17 647.33 948.5 645 980.01 639.49 948.26 636.37 963.03 633.68 948.19 626.97 980.46 618.78 948.19 522.87 1668.17 746.36 1668.17"/><path class="cls-8" d="M719,1469.07l-5.2-37.56H554.41l-5,37.56Zm-56.8-412.77H604.4l-.43,3.16h58.65Zm-1.08-7.81-.43-3.15h-54.8l-.43,3.15Zm-1.52-11-.43-3.12H607.3l-.39,3.12Zm-1.51-11-.43-3.11H608.78l-.43,3.11Zm-1.52-10.95-.43-3.15h-45.9l-.43,3.15Zm-1.44-11-.43-3.15H611.73l-.43,3.15Zm-1.52-11-.43-3.15h-40l-.39,3.15Zm11.87,86.27H601.23l-.81,6.26H666.3ZM678.23,1173H588.85l-1.7,12.56H680Z"/><polygon class="cls-9" points="522.87 1668.17 618.78 948.19 626.97 980.46 610.46 1668.17 522.87 1668.17"/><path class="cls-10" d="M549.38,1469.07l5-37.56h61.72l-.87,37.56Zm75.78-412.77H604.4l-.43,3.16h21.09Zm-19.71-7.81.43-3.15h19.54l-.09,3.15Zm1.48-11,.39-3.12h18.36l-.08,3.12Zm1.43-11,.43-3.11H626l-.08,3.11Zm1.47-10.95.43-3.15h16l-.09,3.15Zm1.46-11,.43-3.15h14.73l-.09,3.15Zm1.43-11,.39-3.15h13.56l-.08,3.17Zm11.83,86.26H601.23l-.81,6.26h24ZM622.33,1173H588.84l-1.69,12.56H622Z"/><polygon class="cls-11" points="645 980.01 706.76 1668.17 746.36 1668.17 647.33 948.5 645 980.01"/><path class="cls-12" d="M685.54,1431.51l3.38,37.56H719l-5.2-37.56ZM662.18,1056.3H651.84l.3,3.16h10.48ZM646,990.49l.3,3.15h7.32l-.43-3.15Zm1,11,.26,3.15h7.89l-.43-3.15Zm.95,11,.3,3.15h8.36l-.43-3.15Zm1,11,.3,3.12h8.88l-.43-3.12Zm1,11,.26,3.11h9.42l-.43-3.11Zm1,10.95.26,3.15h10l-.43-3.15Zm14.55,34.58H654l.56,6.25H666.3Zm12.8,93.12H662.31l1.13,12.56h16.49Z"/></g></g></svg>