<?xml version="1.0" encoding="utf-8"?>
<!-- Generator: Adobe Illustrator 22.0.0, SVG Export Plug-In . SVG Version: 6.00 Build 0)  -->
<svg version="1.1" id="Layer_1" xmlns="http://www.w3.org/2000/svg" xmlns:xlink="http://www.w3.org/1999/xlink" x="0px" y="0px"
	 viewBox="0 0 701.7 686.7" style="enable-background:new 0 0 701.7 686.7;" xml:space="preserve">
<style type="text/css">
	.st0{fill:#1F1E1D;}
	.st1{fill:#35302A;}
	.st2{fill:#B5AFAA;}
	.st3{fill:#E9DED7;}
	.st4{fill:#B3A7A2;}
	.st5{fill:#E0D1BD;}
	.st6{fill:#FAEBCF;}
	.st7{fill:#888481;}
	.st8{fill:#888381;}
	.st9{fill:#B3A8A2;}
	.st10{fill:#929394;}
	.st11{fill:#6F7071;}
	.st12{fill:#4F4D4D;}
	.st13{fill:#737070;}
	.st14{fill:#F4E8D7;}
	.st15{fill:#C1B1A0;}
	.st16{fill:#BCB3AB;}
	.st17{fill:#E7D8C1;}
	.st18{fill:#FFFFFF;}
	.st19{fill:#B47E6D;}
	.st20{fill:#8E6A5E;}
	.st21{fill:#805C4D;}
	.st22{fill:#000E17;}
	.st23{fill:#F5FFDE;}
	.st24{fill:#F9D3C7;}
	.st25{fill:#CDBBBD;}
	.st26{fill:#82664F;}
	.st27{fill:#A07761;}
	.st28{fill:#715947;}
	.st29{fill:#F99A86;}
	.st30{fill:#A67B65;}
	.st31{fill:#DEAE84;}
	.st32{fill:#947E75;}
	.st33{fill:#836049;}
	.st34{fill:#D5B397;}
	.st35{fill:#9E7660;}
	.st36{fill:#E2B58E;}
	.st37{fill:#C9A689;}
	.st38{fill:#DEBD9F;}
	.st39{fill:#D7BDA1;}
	.st40{fill:#E5A48C;}
	.st41{fill:#A87665;}
	.st42{fill:#A77663;}
	.st43{fill:#805642;}
	.st44{fill:#FEC098;}
	.st45{fill:#C2776B;}
	.st46{fill:#964C43;}
	.st47{fill:#DFA088;}
	.st48{fill:#A4907B;}
	.st49{fill:#B4A18A;}
	.st50{fill:#B38770;}
	.st51{fill:#765A45;}
	.st52{fill:#E8AE98;}
	.st53{fill:#B48871;}
	.st54{fill:#845E47;}
	.st55{fill:#866348;}
	.st56{fill:#EECDB0;}
	.st57{fill:#F9A492;}
	.st58{fill:#DD7662;}
	.st59{fill:#EB7564;}
	.st60{fill:#EC7D6B;}
	.st61{fill:#B77A69;}
	.st62{fill:#FEFEFE;}
	.st63{fill:#C47D6C;}
	.st64{fill:#B07868;}
	.st65{fill:#CF8873;}
	.st66{fill:#F3C6A7;}
	.st67{fill:#FBC39D;}
	.st68{fill:#D08775;}
	.st69{fill:#FABEA2;}
	.st70{fill:#C08574;}
	.st71{fill:#DE988D;}
	.st72{fill:#80594D;}
	.st73{fill:#BA8D76;}
	.st74{fill:#EBB8A5;}
	.st75{fill:#7E4A3C;}
	.st76{fill:#FCBBAD;}
	.st77{fill:#FAD5CC;}
	.st78{fill:#C29780;}
	.st79{fill:url(#SVGID_1_);}
	.st80{fill:#FFFFFF;stroke:#000000;stroke-miterlimit:10;}
</style>
<title>myAva_icon</title>
<g id="Layer_4_Image">
	<path class="st0" d="M278,641c3.6-0.1,5.3-0.3,6.3,0.7c0.9,0.9,1.1,2.7,1.5,6.3v0c3.6,9.4,3.4,19.4,5.3,29.1
		c0.5,2.7-0.6,5.2-1.8,7.6l-1,2H340c0-0.3,0-0.6,0-0.9c-0.1-3.7-0.1-7.4,3.6-9.7c0-0.1,0-0.1,0-0.1c0-0.1,0-0.2,0.1-0.3
		c2.9-14.5,9.5-27.7,14.1-41.5c1.5-4.6,3.5-9.1,4.1-13.9c0-0.1,0-0.2,0-0.3l-0.1-0.1l-6.8-11.3c-6.6-5.4-11.6-12.5-19.3-16.6
		c0,0,0,0,0,0c-10-0.5-19.4-4.2-29.1-6.4c-5.4-1.2-8.2-1.9-10.4-1.1c-2.3,0.8-4,3.1-7.4,7.9c-6.4,8.9-12.9,17.7-19.4,26.5
		c-1.1,1.2-2.3,2.3-3.7,3.3c-3.5,6.2-8.6,11.6-10.5,19.3v0C263.1,643,270.5,641.3,278,641z"/>
	<path class="st1" d="M345.5,686.7h-5.6c0-0.3,0-0.7,0-1c-0.1-3.7-0.1-7.4,3.6-9.7c0,0,0-0.1,0-0.1c1.1-5.9,2.9-11.6,4.9-17.2
		c1.4-3.9,2.9-7.8,4.4-11.7c1.3-3.5,2.7-6.9,3.9-10.4c0.3-0.9,0.6-1.8,0.9-2.6c0.4-1.2,0.8-2.3,1.2-3.5c0.8-2.3,1.6-4.6,2.2-7
		c0.1-0.3,0.1-0.6,0.2-0.9c0.2-0.8,0.3-1.7,0.4-2.6c0-0.1,0-0.1,0-0.2l-6.8-11.4c-6.6-5.4-11.6-12.5-19.3-16.6c0,0,0,0,0,0
		c-10-0.5-19.4-4.2-29.1-6.4c-5.4-1.2-8.2-1.9-10.4-1.1c-2.3,0.8-4,3.1-7.4,7.9c-6.4,8.9-12.9,17.7-19.4,26.5
		c-1.1,1.2-2.3,2.3-3.7,3.3c-3.5,6.2-8.6,11.6-10.5,19.3v0c7.9,1.7,15.4,0,22.8-0.3c3.6-0.1,5.3-0.3,6.3,0.7
		c0.9,0.9,1.1,2.7,1.5,6.3v0c3.6,9.4,3.4,19.4,5.3,29.1c0.5,2.7-0.6,5.2-1.8,7.6l-1,2h-5.4c0.2-0.5,0.3-1,0.4-1.5
		c1.9-6.9,3.1-13.8,2.4-20.6c0-0.2,0-0.5-0.1-0.7c-0.4-3.2-1.2-6.3-2.5-9.2c0-0.1-0.1-0.1-0.1-0.2c-0.7-1.5-1.4-2.9-2.3-4.3
		c-4.3-5.5-10.4-3.1-15.8-3.7c-4.5-0.5-10,0.6-12.2-4.7c-0.3-0.8-0.5-1.6-0.6-2.5c0-0.1,0-0.2,0-0.3v-0.3c0-3.6,2.5-6.7,5-9.4
		c2.5-2.8,4-6.1,6-9.1c1.2-1.6,2.3-3.2,3.5-4.8l0.2-0.2l0.7-1l0,0l2.6-3.3c0-0.1,0.1-0.1,0.1-0.2c5.2-6.8,10.5-13.5,14.6-21.1
		c5.9-10.9,9.8-11.4,22.3-9.2c6.2,1.1,12,3.8,18,5.7c0.1,0,0.1,0,0.1,0l0,0c2.3,0.7,4.7,1.3,7.2,1.6h0c1.1,0.1,2.2,0.2,3.4,0.2
		c9.9,3.2,16,11.2,23.1,18c1.4,2.8,2.6,5.6,3.6,8.6c0,0,0,0,0,0.1c0.4,1.3,0.9,2.6,1.2,4c0,0.1,0,0.2,0.1,0.2
		c0.2,0.6,0.3,1.2,0.5,1.8c0,0.9-0.1,1.7-0.1,2.6v0.1c-0.1,1.8-0.4,3.5-0.7,5.3c0,0,0,0.1,0,0.1c-2.2,12.8-8.1,24.5-12.7,36.5
		c-0.5,1.3-1,2.6-1.5,3.9c0,0,0,0.1,0,0.1c-0.6,1.6-1.1,3.2-1.5,4.8c0,0,0,0.1,0,0.1c-0.5,1.7-0.9,3.5-1.1,5.2
		c-0.4,1.3,0-0.3-0.4,0.9C346.1,681.2,345.8,683.5,345.5,686.7z"/>
	<path class="st2" d="M698.5,643.6c-8.6,8.5-18,15.4-29.6,19.6c-15.5,5.6-15.3,6.1-7.8,20.8c0.5,0.9,0.9,1.8,1.2,2.7h39.4v-46
		C700.7,641.5,699.7,642.5,698.5,643.6z"/>
	<path class="st3" d="M271.4,599.3c-0.3,3.1-0.6,6.3-0.8,9.4c0,0.6-0.1,1.3-0.2,1.9c0,0.1,0,0.2,0,0.3c-0.2,1.1-0.5,2.2-1.1,3.2
		c-0.3,0.4-0.6,0.8-0.9,1.3c-0.7,1-1.4,2-2.1,2.9c-4.9,6.8-10.1,13.4-14.1,20.9c-1.3,2.4-2.5,5-3.5,7.7c-2.3,5.6-6.5,10.3-11.8,13.2
		c-9,5.1-12.7,14.2-15.9,23.4c-0.3,1-0.6,2-0.8,3.1H14.9c0-0.8,0-1.5-0.1-2.3c-0.4-5-0.6-10.4-2.2-15.7c-2.7-8.7,1.4-17,10-20.2
		c5.2-2,8-6.8,13-8.6c6.8-2.5,11.9-9.3,20.6-7.5c3.7,0.8,5.9-4.2,9.3-5.2c11.2-3.4,19.6-11.6,29.7-16.5c9.9-4.8,19.2-11.8,30.9-13
		c5.4-0.6,9.9-4.6,15.2-6.5c19.2-7.1,39.1-12.1,59.4-15.1c10.9-1.5,20.6-6.9,30.9-10.4c2.8-1,3.8-3.4,4.3-6.2
		c0.6-3.9,1.6-7.8,2.4-11.7c0,0,0,0,0.1,0c17.9-4,33.3,7.8,33.9,25.7C272.7,582.2,272.1,590.8,271.4,599.3z"/>
	<path class="st4" d="M285.8,664c0,0.2,0,0.4,0,0.6c-0.6,7.5-2,14.8-3.8,22h-66.5c0.3-4.1,1.2-7.8,2.6-10.4c3-5.5,6.3-11,9.5-16.4
		c1.5-2.6,2.8-5.3,6.8-4.5c3.3,0.6,4.4-2.5,5.9-4.6c7.7-10.8,15.4-21.8,23.1-32.6c1.1-1.6,2.6-3,3.9-4.5c0,0,0,0,0,0
		c0.2,0.2,0.3,0.4,0.5,0.5c0,0,0.1,0.1,0.1,0.1c0.3,0.3,0.5,0.7,0.6,1.1c0,0,0,0,0,0c0.1,0.3,0.1,0.6,0.1,0.9c0,2.1-2.2,3.7-2.9,5.6
		v0c-3.5,6.2-8.6,11.6-10.5,19.3c7.9,1.7,15.4,0,22.8-0.3c3.6-0.2,5.3-0.3,6.3,0.7c0.9,0.9,1.1,2.7,1.5,6.3v0c0,0,0,0.1,0,0.1
		C286.2,653.4,286.2,658.7,285.8,664z"/>
	<path class="st5" d="M474,686.7h-22.5l31.1-57c6.4-11.7,13.3-24,24.9-30.5c5.6-3.2,11.7-4.7,18-5.4c0.2,0,0.5-0.1,0.7-0.1
		c0,0,0,0,0,0c10.6-1,21.9,0.3,32.7,0.1c12.2-0.2,24.3-2.4,35.8-6.4c3.2-1.1,6.5-2.4,9.8-1.7c2.2,0.5,4.2,2.4,4.7,4.5
		c0,0.1,0.1,0.2,0.1,0.3c0.2,0.9,0.1,1.9-0.4,2.7c-0.9,1.6-2.8,2.4-4.5,3l-74.9,28.1l52.3-10.8c1.8-0.4,3.8-0.7,5.4,0.1
		c1.1,0.6,1.8,1.4,2,2.4v0c0,0.1,0,0.1,0,0.2c0.6,3.5-4.4,8.5-8.9,10.2l-64.1,22.9C497.5,655.9,475.2,667.1,474,686.7z"/>
	<path class="st5" d="M579.5,656.4c-17.1,9.4-33.7,19.6-49.9,30.3h-53.8c29.7-25.2,65-43,102.9-52.2c3.5-0.8,7.4-1.5,10.4,0.4
		c4,2.6,4.1,8.7,1.6,12.8C588.1,651.7,583.7,654.1,579.5,656.4z"/>
	<path class="st5" d="M701.7,614.8v33l-41.5,26.7c5.1,1.7,7.6,6.7,7.7,12.1H545.8l90.4-51.1c5.1-2.9,13.8-3.9,15.7,0.5
		c0,0,0,0.1,0.1,0.1c0.2,0.5,0.3,1.1,0.3,1.8c0,2.8-2.4,5-4.5,6.8l-26,21.4c14.6-2.7,28.6-7.7,41.7-14.8c2.9-1.6,6-3.5,7.1-6.7
		c1.3-3.6-0.3-7.6-0.1-11.4c0-0.4,0.1-0.8,0.1-1.2c0.1-0.5,0.2-1,0.4-1.5c3.1-9.1,17.8-8.2,26.9-13.2
		C699.3,616.7,700.6,615.8,701.7,614.8z"/>
	<path class="st2" d="M538.5,586.6C538.5,586.6,538.5,586.6,538.5,586.6c0-0.3,0-0.6-0.1-0.9c-2.4-4.9-6.7-6-11.7-5.9h-1.1
		c-7.4-0.1-14.7-1.3-21.8-3.5c-0.1,0-0.1,0-0.2-0.1h0c-2.4-0.7-4.7-1.5-7-2.4c-9.3-3.5-14.9-9.3-14.5-20.1c0.2-6,0-12-0.6-17.9
		c0,0,0,0,0,0c0-0.5-0.1-1-0.2-1.5v-0.2c-0.1-1.2-0.3-2.3-0.4-3.5c0-0.1,0-0.1,0-0.2c-0.1-0.5-0.1-1-0.2-1.4c0,0,0,0,0-0.1
		c-0.3-1.9-0.4-3.8-0.2-5.6v0c0-0.3,0-0.5,0.1-0.7v-0.1c0.3-2.7,1.3-5.3,2.9-7.5c0,0,0.1-0.1,0.1-0.1c1-1.3,2.2-2.5,3.5-3.5
		c2.5-4.3,3-9,3-13.8c0,0,0,0,0,0c-1.1-2-1.4-4.8-3.6-5.7c-4.3-1.7-4.5-1.5-4.5-4.1c-0.1-6.2-0.9-12.3-4.5-18.3
		c-3,2.9-3,7.5-6.9,8.8c-4.5,1.4-5.5,5.3-6.6,9.2c-2.1,7.7-6.6,14.5-13,19.5c0,0,0,0-0.1,0c-11.9,6.7-18.2,19-27.9,28
		c-12.3,11.4-24.4,21.6-43.2,21.4c-9.8-0.1-20.3,2.1-30.1,5.3c-4.8,2.1-9.3,4.7-13.6,7.6c-4.3,2.9-8.5,6-12.6,9c0,0,0,0.1,0,0.1
		c-1,3.9,0,6.3,1.8,7.8l0,0c2.8,2.4,7.5,3.1,10.1,5.6c0.1,0.1,0.1,0.1,0.2,0.2c7.7,4.1,12.8,11.2,19.3,16.6c0.1,0.1,0.1,0.1,0.2,0.2
		c2.9,3.3,5.9,6.6,8.7,10l0.2,0.2c8.8,10.3,17.4,20.9,25.3,31.9c2.7,3.7,6.1,6.4,10,4.4c8.9-4.6,18.8-6.7,25.7-15.9
		c4.6-6.2,8.8-12.7,13-19.1c-1.9,3.5-3.1,7.3-3.7,11.2c-1.7,13-8.4,20.9-20.5,25.4c-5.8,2.1-12.9,4.2-15.2,10.5
		c-2.4,6.3-4.3,12.8-5.5,19.4h64.9c12.2-20.3,22.2-41.8,31.5-63.6c2.1-5.2,5.9-9.6,10.7-12.5c8.5-5.2,17.8-9,25.1-16.1
		c0,0,0.1-0.1,0.1-0.1c0.1-0.1,0.3-0.3,0.5-0.4c0.1-0.1,0.1-0.1,0.2-0.2c0,0,0,0,0,0c0.9-0.6,1.9-0.8,2.9-0.9c1.1-0.1,2.3,0,3.4-0.1
		c3.5-0.3,5.7-1.7,6-4.7v-0.1C538.6,587.5,538.6,587,538.5,586.6z M455.8,597.8c-3.3,4.5-7.6,8.8-11.6,13.6
		C447.6,606.5,451.5,601.9,455.8,597.8z"/>
	<path class="st6" d="M701.7,579.7v39.8c-6.3,4.4-13.4,7.4-21.6,8.5c-2.2,0.3-4.4,1.4-6.6,2.2c0,0,0,0,0,0c-1,1.2-2,2.3-3,3.2
		c-5.4,5.1-10.2,5.7-18.5,2.8c-0.1,0-0.1,0-0.2-0.1h0c0,0,0,0,0,0c-4-0.3-8,0.6-11.4,2.7c-16.1,9.5-32.2,18.9-48.3,28.2
		c-9.8,5.6-20.1,10.5-30.1,15.6c-2.6,1.3-5.3,2.7-7.9,4.1h-32.7c8.6-6.1,17.2-12.3,25.7-18.5c9.7-7.1,21.4-10.7,32.4-15.5
		c5.7-2.5,7.8-6.9,8.9-12.3c0.5-2.5-0.8-3.9-3.3-3.5c-2.3,0.5-4.5,1.1-6.7,2c-19.9,7.7-40.1,14.4-59.7,23c-6.8,3-13,6.6-18.1,12.1
		c-4.7,5-10.1,8.9-15.6,12.6h-9.1c-0.6,0.5-1.2,1-1.8,1.6c0-0.5,0-1,0.1-1.6h-5.7c4-8,8.2-15.9,11.3-24.3c1.8-4.8,5.5-7.1,10.2-8.7
		c30.3-10.3,60.3-21.3,90.1-32.7c3.3-1.3,6.9-2,9.4-4.8c0.1-0.1,0.1-0.1,0.2-0.2c0.1-3.1,2.3-5.8,5.3-6.5c18-5.6,34.5-15,48.8-19.7
		c-5.5,1.1-15,2.2-24.3,3.8c-3.9,0.7-7.3,0.4-9.5-3.3c-0.1,0-0.3,0-0.4,0c-9.9,0.2-19.3,3.3-28.9,5.2c-8.5,1.7-16.8,3.7-25.2,5.7
		c-6.8,1.6-13.1,1.2-18.9-3.2c-3.2-2.4-6.7-3.9-10.8-3.6c-0.1,0-0.2,0-0.3,0c0.1-0.2,0.2-0.3,0.2-0.5c2.5-4.9,8.5-3,12.1-5.7
		c0,0,0,0,0,0c0.3-0.5,0.5-1,0.8-1.4v0c1.5-2.4,3.4-4.2,6.4-4.9c16.3-3.5,32-9.6,48.7-10.9c-1-0.1-2-0.2-3-0.2
		c-19.1-0.7-37.8,0.9-56.1,7.1c-2.9,1-5.8,1.7-8.7,2.2c-7.4,1.1-14.8,0.3-22.1-3.5h0c-0.1,0-0.1,0-0.1-0.1c-4.9-2.6-9.8-4.9-10-11.3
		c-0.2-6.7,5.2-8.7,9.9-11.2c4.7-2.5,10-3.4,16-5.4c-8.6-4.7-16.1-8-25.7-4.6c-7.3,2.6-10.8-0.2-12.1-7.9c0,0,0,0,0,0
		c0-0.1,0-0.3-0.1-0.4c-0.3-2.1-0.6-4.3-0.7-6.4c0,0,0,0,0-0.1c-0.2-1.9-0.3-3.8-0.2-5.6v0c0-5.1,0.8-10.2,3.1-15.2
		c1.9-3.7,2.4-8.2,6.4-10.6c0,0,0,0,0,0c3.3,1.1,2.7,4,3.1,6.5c1.5,9,4.5,16.5,15.2,18.3c4,0.7,7.6,3,10,6.3c3.8,5.4,9,7.3,14.9,8.5
		c1.3,0.3,2.8,0.4,3.7,1.3c10.6,9.5,24.5,9.1,37.1,12.6c17.3,4.8,34.3,10.3,51.9,13.7c12.4,2.4,24.5,5.9,35.6,12.1
		c4.7,2.6,10.5,2.4,15.6,2.1C685.6,578.5,693.7,578.4,701.7,579.7z"/>
	<path class="st7" d="M451.1,506.8c-9.1,14.7-19.4,28.3-33.3,39c-2.7,2-5.2,4.1-7.6,6.4c-3.9,4.1-9.3,6.7-15,7
		c-15.2,0.6-30.2,4.3-45.4,2.3c1.7-2.2,4.1-3.2,6.7-3.8c15.5-3.4,29.5-10.1,41-20.7c10.3-9.6,23-15.1,34.2-23.1
		C437.5,509.8,444.4,508.4,451.1,506.8z"/>
	<path class="st8" d="M335.7,591.8c-10-0.5-19.4-4.2-29.1-6.4c-11.1-2.5-11-2.7-17.8,6.8c-6.4,8.9-12.9,17.7-19.4,26.5
		c-1.1,1.2-2.3,2.3-3.7,3.3c0.2-1.2,0.5-2.4,0.7-3.7l0,0c0.2-1,0.4-1.9,0.5-2.9l0.4-1.9c0.2-0.5,0.5-1,0.8-1.5
		c1.5-4.1,2.6-8.3,3.4-12.5l0,0v-0.1c1.4-7.6,2-15.4,3.2-23.1c0.8-4.9,0.1-9.9-1.9-14.5c-1.5-3.4-2.5-6.9,1.2-9.8
		c9,3.5,15.4,11,23.8,15.5s16.9,8.2,26.1,10.4c2.5,3.7,6.1,6.3,9,9.6C333.8,589,334.8,590.3,335.7,591.8z"/>
	<path class="st9" d="M273.8,552.2c9.2,13.5,5.1,28.1,3.4,42.4c-0.8,6.8-5.1,12.2-9.2,17.4c-0.2-14.6-0.6-29.2-0.5-43.8
		c0-6.2-2-9.8-8-11.9c-7.2-2.4-14.1-5.7-21.1-8.6c1.7-3.5,2.2-7.5,6.1-11c6.8,7.4,16,10.1,25.4,12.6
		C271.3,549.8,272.5,551.3,273.8,552.2z"/>
	<path class="st10" d="M467.5,586.7c-6.2,7.8-12.3,15.8-19,23.1c-4.3,4.7-7.2,10.4-8.6,16.6c-1.5,6.5-3.1,13-4.2,19.5
		c-0.7,4.5-2.8,7-6.9,8.8c-6.4,2.7-12.5,6.4-18.9,9c-6.8,2.8-9.5,7.9-10.3,14.6c-0.3,2.8-0.6,5.5-1,8.3h-44.2
		c3.6-6.9,9.9-12,16.4-17c13.4-10,15-14.6,5-25.4c-0.1-0.1-0.2-0.2-0.3-0.3c-0.9-1-1.8-2-2.9-3c-2-2-4.2-3.7-6.1-5.8c0,0,0,0,0,0
		l-0.3-0.4c-1.5-1.8-2.4-4-2.8-6.2v0c-0.6-2.8-0.7-5.8-1.8-8.5c0,0,0-0.1,0-0.1c0,0,0,0,0,0c0,0,0-0.1,0-0.1l-6.8-11.4
		c0.1,0.1,0.1,0.1,0.2,0.2c2.6,1.8,5.1,3.8,7.5,5.9c0,0,0.1,0.1,0.1,0.1c8.2,7.2,15.2,15.7,22,24.3c1.8,2.4,3.6,4.8,5.6,7
		c2.1,2.1,2.9,5.8,6.1,6.2c3.4,0.4,4.6-3.3,6.8-5.2c1-0.8,2.4-1.9,3.4-1.7c7.2,1.6,9.9-3.8,13.4-8.1c13.3-16.2,26.6-32.4,40-48.5
		c1.8-2.2,3.6-4.9,6.8-5.3C468.8,584.3,468.3,585.6,467.5,586.7z"/>
	<path class="st11" d="M385,663.7c-7.3,6.3-14.3,13-21.8,19c-1.6,1.3-2.8,2.5-3.6,4h-19.7c0-0.3,0-0.7,0-1c-0.1-3.7-0.1-7.4,3.6-9.7
		c0,0,0-0.1,0.1-0.1c0,0,0,0,0,0c0-0.1,0.1-0.2,0.1-0.2c1.4-2.6,3.4-4.8,5.8-6.5c0,0,0,0,0.1,0c3.6-2.6,8-4.3,12.1-6.3
		c14.3-7,14.3-6.9,7.5-20.9c-1-2.2-2.3-4.4-2.4-6.5c0,0,0-0.1,0-0.1c0-2,1-3.8,2.6-5c0,0,0,0,0.1,0.1c6.3,6.9,11.1,14.8,16.6,22.3
		C389.3,656.9,389.2,660.2,385,663.7z"/>
	<path class="st12" d="M376.3,661.6c-8.7,4-17.6,7.7-26.4,11.5c-0.6,0.3-1.3,0.5-1.9,0.8c-1.5,0.7-3,1.3-4.5,2
		c2.8-14.7,9.5-28,14.2-42c1.6-4.7,3.5-9.2,4.1-14.2l2.6,3.5l5.1,6.9c0.2,5.5,4.2,9.2,6.4,13.8c0.1,0.2,0.2,0.3,0.2,0.5
		c1,2.1,2.5,3.9,3.7,5.9C383.5,657.2,383.3,658.4,376.3,661.6z"/>
	<path class="st13" d="M289.3,684.6l-1,2h-11.2c1.2-5.5,2.4-11.1,3.5-16.6c1-5.1,1.3-10.3,2.6-15.4c0,0,0-0.1,0-0.1
		c0.6-2.3,1.4-4.5,2.5-6.6c0,0,0,0.1,0,0.1c3.6,9.3,3.4,19.3,5.3,29C291.6,679.7,290.5,682.2,289.3,684.6z"/>
	<path class="st14" d="M652,683.8c-0.7,1-1.4,2-2.2,2.9H643c0.3-0.2,0.7-0.4,1-0.6C646,684.7,648.2,682.8,652,683.8z"/>
	<path class="st15" d="M609.8,590.2c16.9-3,33.8-5.5,51.6-6.4c-5.2,6.3-43.4,23.2-71.8,32.2c-4.8,1.1-10,1.5-14.5,3.5
		c-15.3,6.7-31.8,6.2-47.9,8.3c-2.7,0.3-5.8,1-9-1.4c9.5-6.5,20.2-9.3,29.9-14.2c17-8.4,35.1-14.5,53.7-18.3
		C604.7,593.4,607.4,592.1,609.8,590.2z"/>
	<path class="st16" d="M651.7,636.2c6.9-3.2,14.4-4.5,21.8-6c0.1,4.5,2.4,8.2,3.9,12.2c1.7,4.4,1,7.6-3.7,9.6
		c-15.5,6.8-30.8,13.8-46.3,20.6c-4.3,1.9-11.7-0.7-14-4.6c-1.9-3.3,0.8-4.8,2.9-6.3c9-6.2,18-12.5,27.1-18.5
		C646.5,641.1,649.7,639.3,651.7,636.2z"/>
	<path class="st17" d="M483.7,508.1c-0.4,9.3,0.2,18.6,1.8,27.8c0.9,4.6,3,6.1,6.7,3.6c7.1-4.6,13.8-2.8,20.9,0.2
		c6.6,2.8,13.5,5.1,21.2,8c-4.1,5.3-9.5,5-14,5.9c-6.9,1.2-13.5,3.6-19.6,7c-4.8,2.7-5,4.8-0.7,8.1c3.1,2.5,6.6,4.4,9.9,6.7
		c3.3,2.3,6.6,2.5,10.4,1.3c6-1.8,12.3-2.9,18.3-5.1c20-7.2,40.4-7,61-4c4.2,0.6,8.5,0.5,12.7,0.7l0.3,2l-74.9,17.7
		c-3.1-2.9-7-3.4-11-4c-9.2-1.4-18.3-3.1-27.4-4.3c-7.7-1.1-13.2-5.7-18.8-10.4c-2.5-2.1-2.9-5.1-2.9-8.2c0-12.9-0.1-25.8,0-38.7
		C477.7,516.8,480,512.2,483.7,508.1z"/>
</g>
<g id="eyes">
	
		<ellipse transform="matrix(0.9996 -2.998649e-02 2.998649e-02 0.9996 -7.0331 9.7104)" class="st18" cx="320.2" cy="239.3" rx="111.6" ry="45.9"/>
	
		<ellipse transform="matrix(0.9997 -2.582800e-02 2.582800e-02 0.9997 -6.0195 6.8386)" class="st19" cx="261.7" cy="236.4" rx="11.6" ry="15.5"/>
	
		<ellipse transform="matrix(0.9997 -2.582860e-02 2.582860e-02 0.9997 -6.0305 6.8391)" class="st20" cx="261.7" cy="236.9" rx="11" ry="14.6"/>
	
		<ellipse transform="matrix(0.9997 -2.582692e-02 2.582692e-02 0.9997 -6.0202 6.8125)" class="st21" cx="260.7" cy="236.5" rx="6" ry="8.1"/>
	
		<ellipse transform="matrix(0.9997 -2.582800e-02 2.582800e-02 0.9997 -6.0205 6.8128)" class="st22" cx="260.7" cy="236.5" rx="2.2" ry="2.9"/>
	
		<ellipse transform="matrix(0.3211 -0.947 0.947 0.3211 -47.9563 396.9013)" class="st23" cx="252.9" cy="231.9" rx="4.3" ry="1.8"/>
	
		<ellipse transform="matrix(0.9997 -2.582800e-02 2.582800e-02 0.9997 -5.838 9.8216)" class="st19" cx="377.3" cy="230.9" rx="13.1" ry="16.1"/>
	
		<ellipse transform="matrix(0.9996 -2.998651e-02 2.998651e-02 0.9996 -6.722 11.45)" class="st20" cx="378.4" cy="229.8" rx="12.3" ry="15.1"/>
	
		<ellipse transform="matrix(0.9997 -2.582800e-02 2.582800e-02 0.9997 -5.838 9.8216)" class="st21" cx="377.3" cy="230.9" rx="6.8" ry="8.3"/>
	
		<ellipse transform="matrix(0.9997 -2.582800e-02 2.582800e-02 0.9997 -5.838 9.8216)" class="st22" cx="377.3" cy="230.9" rx="2.5" ry="3"/>
	
		<ellipse transform="matrix(0.548 -0.8365 0.8365 0.548 -20.3006 410.8995)" class="st23" cx="370.1" cy="224.2" rx="4.7" ry="2.4"/>
</g>
<g id="Layer_3_Image">
	<path class="st24" d="M238.8,227.4l1.6-0.5c-0.3,0.3-0.6,0.5-0.9,0.8c0,0-0.1,0-0.1,0.1L238.8,227.4z"/>
	<path class="st24" d="M430,186.7c-5.4-9.7-11.9-18.2-21.6-24.2c-6-3.7-12.7-5.2-19.8-7.7c7.9,2.2,14.9,4.5,21.5,8.2
		c1.8,1,4.4,2.8,6.2,1l0,0c0.2-0.2,0.3-0.4,0.5-0.6c1.5-2.4-1.1-4.5-2.9-6.3c-0.6-0.6-1.3-1.1-2-1.5c-6-3.6-11.9-7.3-18.9-8.7
		c-4-0.6-7.9-1.8-11.5-3.5c9.4,2.4,18.6,4.9,27.7,8c2.1,0.7,4.6,1.4,5.8-1c1.4-2.7-0.9-4.2-2.9-5.6c-0.7-0.5-1.5-0.8-2.2-1.2
		c-6.3-3.9-13.1-6.9-20.1-9c5.3,1.2,10.7,1.7,15.5,4.8c2,1.3,4.4,2.4,6.3,0c2.2-2.6,0.1-4.6-1.6-6.5c-1.5-1.7-3.9-3.2-3.8-5.7
		c0.4-5.9-1.8-11-4.1-16.2c-0.5-1.1-1.4-2.7,0.1-3.6s2.8,0.5,3.7,1.7c1.6,2,2,4.5,3.2,6.8c0.9,1.7,1.7,3.8,4.5,2.5
		c5.2-2.4,7.5-8.6,5.1-13.9c-0.2-0.5-0.5-1-0.8-1.4c-0.6-0.9-1.3-1.7-2.1-2.5c-0.4-0.4-0.7-0.8-1.1-1.1l-0.5-0.5
		c-1.4-1.4-3.2-2.4-4.7-3.8c-7.1-6.6-14.9-8.3-23.6-3.3c-0.4,0.3-0.9,0.6-1.3,0.9c-0.9,0.5-1.8,0.8-2.8,1l0,0
		c-1.6,0.3-3.2,0.1-4.8-0.5c-1.4-0.6-2.9-0.8-4.4-0.5c-7.5,1.9-15-0.2-22.5-0.3c-2,0-4-0.4-5.9-1.1c-9.4-3.7-18.7-8.4-29-3.3
		c-0.5,0.2-1,0.2-1.5,0.1c-4.4-1.7-9.1-2.3-13.8-1.6l0,0c-2.8,0.4-5.6,1.2-8.3,2.3c-1.1,0.4-2.2,0.9-3.2,1.5l-0.2,0.1
		c0,0-0.1,0-0.3,0c-13.4,3.1-23.3,11.7-33.1,20.6c-7.5,6.9-12.7,15.7-18.2,24.1l-0.6,0.9l-0.3,0.5c-4.1,9.1-7.1,18.7-11.3,27.8
		c-0.1,0.1-0.1,0.3-0.2,0.4s-0.2,0.5-0.3,0.7s-0.3,0.6-0.4,1c-7.9,17.7-12,36.3-11.3,55.8c0.2,4.2-1.5,8.2-0.6,12.4
		c0.8,3.7,0.3,7.2-0.4,10.9c-1,4.9-2.6,9.6-3.1,14.6c-0.1,0.7-0.3,1.4-0.6,2.1c-0.6,1.1-1.6,2-2.9,2.4c-2.2,6.6-0.9,13.5-1,20.2
		c-0.1,3.9-1,6-5.2,5.9c-3.3-0.1-5.5,1.6-7.2,4.4c-1,1.6-1.6,3.7-3.7,4.5v7c0.7,0.5,1.1,1.4,1,2.2c-1.2,9.4,2.5,18.4,1.6,27.7
		c-0.2,2.6,3.7,4.3,1.3,7.3c-0.2,0.2,0.4,0.9,0.8,1.2c1.9,1.5,1.9,3.8,2.3,5.9c1.3,6.7,1.6,13.5,4.9,19.7c2.1,4,5.3,5.7,9.1,4.5
		c0.3-0.1,0.5-0.2,0.8-0.3c-0.1-7.9-1.7-15.6-3.8-23.2c-0.3-0.7-0.6-1.5-0.9-2.2s-0.7-1.4-1.1-2.1c-0.1-0.2-0.2-0.4-0.4-0.6
		c-3.5-6.8-6.4-13.5-6.7-21.5c-0.1-2-0.1-3.9-0.2-5.9c0.5,2.7,1.4,5.4,2.7,7.9c2.8,5.1,5.7,10.3,7.1,16c0.1,0.4,0.2,0.7,0.2,1.1
		c0.1,0.5,0.2,1.1,0.3,1.7c0.9,3.4,1.3,6.8,1.9,10.2c0.9,5.1,0,10.7,3.4,15.3c0.2,0.1,0.3,0.2,0.5,0.3l0.4,0.2c3.1,1.8,6.6,2,10,2.9
		c3.1,0.9,5.4-0.3,6.5-3.1c2.7-8,8.1-14.8,15.3-19.3c6.8-4.1,10.5-12,18-15.5c5-2.3,8.8-5.9,12.5-9.8c5.2-5.4,5.3-5.6,1.4-11.8
		c-1.3-2.1-2.7-4.2-4-6.3c-1.6-2.5-2-5.5-1.3-8.3c1.6,2.5,1.5,4.9,2.4,7c1.4,3.1,5.1,5.4,7.6,4.4c1.2-0.3,2.2-1.4,2.3-2.7l0,0
		c0-0.6,0-1.1-0.1-1.7c-0.1-0.7-0.2-1.3-0.3-2c-0.2-1.8-0.7-3.7,1.9-4.2h0.1h0.7c1.2,0,2.4,0.3,3.4,1c0.2,0.1,0.4,0.3,0.6,0.5l0,0
		c0.4,0.4,0.8,0.8,1.2,1.1l0.2,0.2l0.7,0.7c1.6,1.6,3.3,3.1,3.4,5.5c0,0.3,0,0.7,0,1c0,0.1,0,0.2,0,0.3c0.2,2.3,0.4,4.7,3.6,4.5
		c3-0.2,4-2.5,3.8-5c-0.7-6.8,4-11.3,6.8-16.6c2.1-4.1,2.5-7.3-0.7-10.7c-0.6-0.5-1.2-1.1-1.8-1.7c-2.1-2.9-3.7-6.3-3.1-9.7
		c0.5-3.2,4.3-2.4,6.7-3.1s5-1.6,5.4-4c0.8-5.6,4.1-10.7,3.8-16.4c-0.3-4.6,0.5-9.8-2.3-13.6c-5.8-8-6.5-16.5-4.4-25.6
		c0.4-1.8,0.8-3.8-0.5-5.3c-2.2-2.7-4.2-5.6-6-8.6v1.9c-0.6-1.6-1.4-2.9-3.1-3c-3.2-0.2-6.6,1.7-9.9,2.8c-1,0.3-2.2,1.6-1.7,2.1
		c3.5,3.4,0.1,9.1,5.4,12.4c5.7,3.6,6.7,12.7,3.6,19c-3.6,7.4-6.4,15.3-8.2,23.4c-0.7,3-2.6,5.9-5.8,3.8c-5.3-3.6-8.9-0.8-12.4,2.2
		c-5,4.3-9.9,6.3-17.1,5.5c-5.7-0.6-10.4-1.1-14.5-5.3c-1.8-1.5-3.9-2.6-6.2-3c-8.2-2-7-4.2-6.9-11.3c0.2-8.5,3.3-15.5,10.3-21.2
		c2.7-2.2,5.3-7.1,3.2-11.2c-2.4-4.6-0.6-7.7,1.5-11.4c0.7-1.2,4.2-1.6,1.6-4.1c-2.2-2-4.3-0.6-5.7,0.8c-3.9,3.8-7.9,7.5-10.9,12.2
		c-1.8,2.8-3.6,5.5-4.2,8.9c-0.3,1.4-1.2,3.6-3.1,3.3c-1.4-0.3-1.7-2.3-1.7-3.8c0-4.6-0.4-9.3,1.8-13.6c0.1,1.1,0.1,2.3,0.2,3.4
		c0.2-0.9,0.4-1.7,0.7-2.5c0-0.2,0.1-0.3,0.1-0.5c1.2-9.9,7.3-16.8,14.6-22.7s14.6-11.5,24.8-10.7l0.7-0.1c1.5-0.3,3.1-0.6,4.6-0.8
		c4.9-0.8,9.9-1.2,14.9-1c1.6,0.1,3.2,0.6,4.5,1.6c3.6,2.4,3.3,5.6,3,9.3c-0.2,3.4-0.6,7.5,4.2,8.3c4,0.6,7.7,2.4,11.7,2.9
		c0.9,0.1,1.9,0.2,2.9,0.1c3.5-0.2,6.7,1.1,7.9,5.9c1,3.9-0.4,8,2,11.6c1.3,1.9,2.4,4.1,5,3c3.5-1.6,6.5-4.1,8.7-7.3
		c0.9-1.3,0.6-3.1-0.6-4.1c-3.1-2.9-1.9-6.1-0.9-9.3c0.4-1.4,1.7-2.9,1.1-4.3c-1.9-4.5,0-8.8,0.3-13.2c0-3.1,1.9-5.8,4.8-6.9
		c7.1-3.1,14.1-5.3,22.1-5.8c9.8-0.6,19.2,0.8,28.6,2.1c2.3,0.4,4.4,1.1,6.4,2.3c0.8,0.4,1.5,0.9,2.3,1.4l0,0c2.9,1,5.6,2.4,8.2,4.1
		c0.3,0.2,0.7,0.3,1,0.5c0.9,0.4,1.7,0.9,2.5,1.4s1.6,1,2.3,1.6h0.1c0.8,0.6,1.6,1.2,2.4,1.9l0.8,0.6c3.7,2.2,7.1,5,9.9,8.3l0,0
		l0.1,0.2c0.4,0.4,0.8,0.8,1.2,1.2l0.2,0.2c1.1,1.1,2,3.3,3.8,2.2S430.9,188.3,430,186.7z M386.5,133.9c0,0.7-0.4-0.4,0.2-0.1
		l0.3,0.1C386.7,133.8,386.5,133.8,386.5,133.9z"/>
	<path class="st25" d="M318.6,577.9l-3.1-2.8c0.6-0.9,1.8-0.8,3.1-1.5c-4.7-1.9-7-6.3-11.3-8.3c-1.5-0.5-2.3-2.1-2-3.6
		c0.5-1.8,2.3-2,3.7-1.6c3.3,0.9,8.1-0.8,8.4,5.3c0,1.4,2.2,0.8,3.5,0.5c7.9-1.7,16.2-1.3,23.5-5.3c0.8-0.4,1.7-0.2,2.3,0.5
		c-6.1,5.4-14.1,7.9-20.2,13.3c-1.3,1.2-3.2,1.7-3.9,3.6H318.6z"/>
	<path class="st26" d="M277.6,552.9c-7.1-5-15.5-7.1-23.4-10.2c-9-3.5-14-11.1-17.6-19.7c-3.4-2.3-7.2-3.9-10-7.1l-6-15
		c-0.8-2,1.7-2.6,1.9-4.3c-0.8-1.5-2.9-0.4-3.7-1.9c0.5-6.2-4.4-10.5-5.8-16c-1.8-6.8-2.7-13.4,0.8-20c1.9-1.3,4.3-1.2,6.3-2.5
		c3.3-2,5.6,0.3,8.7,7.8c1.3,3.2,0.3,5.1-3.2,5.8l-0.7,0.3c4.8,0.4,5.4,5,8.6,8.1c1.7-5.3,1.6-10.3,1.5-15c-0.1-4,0.1-8.3-3.4-11.6
		c-1.4-1.4-1.1-3.5,0.1-5.1c2.3-2.9,3-5.4,0.6-8.9c-1.8-2.5,1.5-13.8,4.3-15.6c3.1-2.1,2.5-4.1,1-6.7c-3.5-6-2-8.8,5-9.3
		c1.5-0.2,3-0.5,4.4-0.9c3-0.8,5.6-0.5,7,2.8c0.4,0.9,1,1.8,1.7,2.5c5.4,4.7,11.4,8.5,16.4,13.8c3.5,3.6,8,3.1,12.6,2.3
		c6.2-1.2,7.1-0.3,6.3,6c4.4-1,8.4-1.6,10.8-6.6c2.6-5.3,12.9-8.3,18.8-6.7c1,0.2,1.9,0.8,2.4,1.7c2.1,3.9,5.8,3.6,8,1.4
		c4.6-4.6,10.7-5.1,16.2-7c8.9-3,14.8-8.7,18.5-17c1.3-2.8,2.9-5.2,5.7-6.6c3.2-1.6,2.3-3.7,0.3-5.5c-1.6-1.4-4-2-4.4-4.7
		c-5.1,6-12.8,7.4-21.9,2.9c-1.8-0.8-3.8-1.3-5.8-1.5c-2.2-0.4-3.8-1.4-3.9-3.8s1.2-3.7,3.1-4.6c1.5-0.7,3.2-1,4.9-0.9
		c4,0.2,8-0.5,12-0.9c1.1-0.1,2.6,0.5,2.7-1.3c0.1-1.4-0.8-2.7-2.1-3.2c-1.5-0.7-3.3-0.5-4.8-1.3s-2.7-2-2.8-3.8s1-3.1,2.5-3.9
		c1.6-0.9,3.4-1.5,5.2-1.9c3.8-0.8,7.3-1.5,9.9-5c1.7-2.3,4.5-2,6.6,0.1c2.2,2.3,4.3,4.6,7.7,5c1,0.2,1.9,0.9,2.3,1.9
		c2.3,6,8,8.6,12.3,12.8c5.2,5.5,5.5,7.2,2.1,11.9c5.7,2.8,8.1,7.5,8.8,13.7c0.7,5.5,3.6,10.6,4.7,16.1c2.3,6.4,5.3,12.6,8.8,18.4
		c3.3,5.3,6.8,6.1,12.2,3.1c6.8-3.7,14.4-6,20.3-11.5c2.4-2.3,6-2.5,9.5-1.8c5.3,1.1,7.4,3,6.1,8.3c-2.4,9.1-1.1,18.1-0.6,27.2
		c0.1,0.8,0,1.7-0.4,2.4c0.9,7.2-1.9,13.5-4.2,20c-2.9,8.3-4.3,17.4-11.5,23.6c-1,0.9-1.7,1.9-3.2,2.2c-10.4,2.3-19.3,7.4-27.8,13.7
		c-3.2,2.2-6.7,4.1-10.3,5.7c-3.1,1.3-5.8,3.3-7.8,5.9c-3.7,5.1-9.7,7.3-14.3,11.3c-1.5,1.3-4,1.6-6,2.3
		c-10.3,4.5-21.5,6.6-31.1,12.9c-2.1,1.6-5,1.5-7-0.2c-2.2-1.8-4.6-1.5-7.1-0.8c-10.5,3.4-21.2,2.7-31.9,2.1
		c-1.3-0.1-2.8-0.8-3.9,0.1c-5.1,3.9-9.7,1.9-14.2-1l0,0C283.9,555.6,280.5,554.8,277.6,552.9z"/>
	<path class="st27" d="M225.5,164.9c-2.7,7.3-5.7,14.5-7.9,21.9c-3.4,11.1-3.4,22.7-4.1,34.3c-0.5,9.9,1.1,19.8-1.7,29.6
		c-1.1,4.1-2.8,8.1-2.7,12.5c0,0.9-1.2,5.6-4.4,1.7c-3.8-13.6-2-27.7-4.1-41.5c-1.9-12.2,0.9-23.4,5.8-34.4c3.6-8,4.1-16.5,4.2-25.1
		c0-2.4-1-5,0.9-7.2c1.1,0.8,1.7,2.2,1.4,3.5c-0.8,9.7,2.4,19.4-0.2,28.9c6.2-9.1,4.8-19.2,3.3-29.2c-0.7-4.5-0.9-8.9,0.6-13.3
		c0.7-2,0.5-3.6-1.2-4.8c2-8.9,6.1-16.3,15-19.9c4.9-2,9.4-4.3,12.1-9.1c1.5-1.5,3.2-2.8,5.1-3.8c1.6-0.9,3.2-1.9,2.2-4.2l-1.3-6.8
		c-0.3-1.7,1.1-1.8,2.1-2.2c5.8-2.4,7.3-6,4.7-11.6c-0.7-1.5-1.8-2.8-1.5-4.6c0.8-2.8,2.2-5.5,2.3-8.5c-0.4-1.4-2.2-1.7-2.5-3.1
		c2.8-6,8.5-8.8,13.5-12.3c6.9-4.9,14.3-9.1,21.4-13.6c8.4-5.4,16.4-12.2,27-13.7c3.1-0.5,6.2-0.5,9.3,0c6.6,1.3,12.9,0.8,19-2.9
		c7.7-4.7,16.8-6.4,25.7-4.7c2.3,0.3,4.7,0.4,7,0.2c3.8-0.4,7.6,0.4,11,2.2c1.4,1.8,2.8,0.9,4.3,0c5.6,3,11.2,6,16.7,9.1
		c5.6,2.9,11.4,5.5,17.3,7.6c6.8,5.5,14.4,9.1,22.5,12.3c9.4,3.7,18.6,8,27.8,12.2c1.7,0.8,3.5,1.9,2.9,4.1
		c-0.6,2.4-2.8,2.8-4.8,2.6c-4.5-0.3-8.9-1.1-13.2-2.4c-8.3-2.7-16.7-5.6-25.9-4.2c0.6,1.8,2.2,1.8,3.3,2
		c11.2,1.8,19.8,8.3,28.2,15.2c5.2,4.4,10.6,8.5,16.3,12.2c4.6,3,9,6.4,11.9,11.1c1.5,2.4,3.7,4.5,2.1,7.7c-1.1,2.1-3.6,2.5-7.9,1.5
		c3,2.6,5.2,6,6.5,9.7c0.6,7.4,6.7,11.7,10.2,17.4c0.9,1.5,2.7,2.5,2.9,4.4c4.1,4.1,4,9.8,5.5,15.8c1.9-2.4,1.3-5.8,4.5-5.8
		c2.3,5.3,4.7,10.6,7,15.9c0.5,1.2,0.6,2.7,1.4,3.6c3.3,4.4,2.6,8.4-0.5,12.5c-1.6,2.1-2.4,4.7-3.9,7c-0.2,0.2-0.5,0.3-0.8,0.3
		c-0.8-0.6-1.3-1.5-1.3-2.6c-0.1-3.6-3-6.4-6.5-6.4c-6.3-0.3-8.5-3.8-9.9-9.2c-0.9-3.4-2.7-6.8-6.6-8.3c-1.9-0.7-3.4-2.3,0-3.5
		c1.1-0.4,2.4-0.6,2.3-2.1c0-1.4-1-2.6-2.3-3c-6.3-1.8-10.1-6-12.6-11.8c-0.2-0.6-0.8-1.1-1.5-1.2c-4.9-0.1-8.1-3-11.5-6.2
		s-12.8-0.9-15,3.3c-0.4,0.8-0.8,1.7-0.4,2.4c2.5,3.8,1,7.6,0.5,11.5c-0.4,3,0.4,6.1,2.3,8.5c1.9,2.5,3,5.2,1.8,8.4
		c-0.3,0.6-0.4,1.3-0.2,1.9c4.6,8.4,5.2,19.1,13.8,25.3c2.4,1.7,4.5,3.9,8,3.3c2.9-0.5,3.4,2,3.2,3.9c-0.9,7.4,3.1,11.8,8.8,15.5
		c1.4,0.9,2.9,1.9,3.1,3.8c1,8.5,4.6,16.3,6.7,24.4c1.2,4.8-1.8,8.7-3.7,12.6s-1.8,8.1-2.4,12.1c-0.4,2.4,1.1,3.7,3.6,3.7
		c2.5-0.1,5-0.7,7.2-1.9c1.4-0.6,2.8-2.1,4.6-0.8l-1.1,3c-1.5,3.9-4.7,6.4-8.2,8.3c-5.1,2.7-10.2,5.2-14.7,8.9
		c-3.2,0.6-3-1.9-3.2-3.8c-0.4-6.2,0.8-12.4,3.3-18c2.7-6.2,2.5-12.1,0.4-18.4c-3.5-10.2-7.8-20.2-12.9-29.7
		c-2.3-4.3-5.2-8.1-10-9.9c-1.3-0.1-2.5-0.9-3.2-2c-0.4-5.2-1.4-10.7-4.4-14.5c-3.2-4.1-4.4-8.8-6.9-13c-6.4-10.9-9-22.9-12.5-34.8
		c-2-6.9,0.3-13.4-0.6-20.1c-0.5-4.2-1.8-8.3-0.2-13.1c1.1-3.3-2.9-6.8-5.8-9.3c-4.2-3.5-9-6.3-13-10.1c-2-1.9-4.8-1.1-7-2.3
		c-3.3-2.4-6.5-5-9.8-7.3c-5.7-4.1-11.4-1.9-17.1,0.3c-4.6,2-8.9,0.8-13.4-1c-6.4-2.4-12.5-5.8-19.7-6.1c-6.2-0.3-12.1-3.1-18.6-2.9
		c-7.5,0.2-14.8,1.7-22.3,1.6c-9.2-0.2-16.9,4.3-25,7.4c-0.7,0.4-1.5,0.8-2.3,1.2c-20.6,7-34.3,21.9-45.2,39.8
		c-1,1.5-2.1,2.9-3.3,4.3c-2-1.5-0.1-3.3-0.4-5.2c-6.7,4.1-9.9,10.6-12.2,17.5c-0.9,2.5-1.7,5-2.6,7.5
		C219.9,161.4,221.3,164,225.5,164.9z"/>
	<path class="st28" d="M513.5,278.9c-4.1,1.6-7.7,4.4-12.5,4.1c-2.4-0.2-4.2-1-4.1-3.3c0.1-4.3-0.1-9,1.7-12.6
		c1.6-3.2,2.2-6.9,4.4-9.9c0.9-1.3,1-2.9,0.2-4.3c-2.8-5.5-4.7-11.5-5.5-17.7c-0.9-7.5-5.4-10.8-10.6-14.6c-3-2.2-2.4-6.2-2.5-9.6
		c-0.1-2.2,1.9-6.1-4-3.9c-2.8,1.1-6-3-8.3-5.5c-4.8-5.2-8.8-10.8-9.9-18.4c-0.6-4-4.5-7.4-2-12.2c0.4-0.8-1.3-2.9-2.3-4.2
		c-3.3-4.3-3.3-8.9-1.3-13.6c0.6-1.2,0.5-2.6-0.2-3.7c-1.3-2-3.2-4.4-1.3-6.2c2.8-2.5,5.1-5.6,10-5.6s8.3,1.4,11,5.3
		c1.7,2.4,4.5,2.8,7.1,2.3c2-0.4,2.9,0.1,3.2,1.9c1,5.9,4.7,9.1,10.2,10.8c2.8,0.8,5.4,2.4,4.8,6c-0.5,3-2.9,2.5-5.2,2.5
		c7.1,2,8.5,8,10.3,13.8c0.9,2.9,2.4,4.7,5.7,3.8c1.5-0.4,2.5,0.4,3.8,0.9c4.5,1.9,6.7,5.1,5.8,10c-0.1,1.6-0.2,3.2-0.2,4.8
		c-1.1,5.1-2.3,9.8,1.5,14.9c2.7,3.6,0.9,9.1,0.8,13.6c-0.2,9.6,0,19.2-2.2,28.6C520.7,265,518.8,272.6,513.5,278.9z"/>
	<path class="st29" d="M489.7,298c3.2-3.3,7.2-5.8,11.5-7.4c4.6-1.6,7.7-5.6,11.3-8.7c0.3,2.2,1.6,3.1,3.8,3c2.8-0.1,5.7,0,8.5,0
		c4.8,0.1,8.3,2.1,10.8,6.5c5.1,9,6.3,18.9,7.2,28.9c0.5,6.2-2.2,10.9-6.1,15.1c-6.2,6.6-11.6,14-15.9,22c-3.6,6.5-8,12.5-13.2,17.8
		c-3.8,4-5.7,9.3-9.7,13.1c-4.8,4.5-7.2,4.8-12.5,0.9c-2.6-1.9-4.1-1.6-6.1,1c-1.4,1.8-1.1,4.1-2.6,5.7c-1.4-1.1-1.8-2.9-1.2-4.5
		c2.4-6.9,1.2-14.2,2.5-21.3c1-5.4,1.2-10.9,6-14.8c2.2-1.8-0.9-3.1-0.9-4.8c5.5-6.3,8.1-14.1,11-21.7c3.5,0.3,2,3.1,2.5,4.9
		c0.3,1.1-0.1,2.6,1.3,2.9c1.7,0.4,2.3-1.2,2.6-2.4c1-3.7,1.5-7.4,1.5-11.2c0.1-3.6-2.1-6.2-6.4-5.7c-3.3-2-4.8-5.4-6.4-8.6
		c-0.8-1.7-2-1.8-3.4-2.1C485,302.8,487.7,300.5,489.7,298z"/>
	<path class="st30" d="M483.6,349.9c0.5,1.6,2.4,1.8,3.2,3s1.4,3.5-0.3,3.7c-5.4,0.6-5.4,4.9-5.9,8.3c-1.6,10.3-2.6,20.8-3.8,31.2
		c-2.9,15.3-2.8,30.9-5.4,46.2c-1.1,6.1-2.7,12.1-4.6,18c-0.6-3.9-1.2-7.8-1.8-11.7c-0.7-4.6-0.5-9.3,0.6-13.8c0.9-3.4,3-7.9-0.6-10
		c-3.9-2.4-9.7-2.7-13,0.9c-6,6.6-14.9,7.6-21.8,12.5c-3.1,2.1-7.3,1.3-9.5-1.7c-5.1-6.7-8.8-14.3-11.1-22.4
		c1.5-0.5,2.6,0.5,3.5,1.4c2,2.1,5.2,2.7,7.8,1.5c3.3-1.4,5.7,0,8,2.3c7.5,7.1,10.1,7.3,18.4,0.9s14.8-14,20.7-22.3
		c2.4-3.5,3.5-7.6,3.3-11.8c-0.4-7.6,0.1-14.9,4.1-21.8c1.6-2.9,1.5-6.5,2.4-9.7c0.7-2.4,1.3-5,4.5-5.2
		C482.7,349.3,483.2,349.5,483.6,349.9z"/>
	<path class="st31" d="M495.4,124c-3.6-3.2-5.1-8.1-10.1-10.9c2.7-0.6,4.4,0.2,6.2,0.7c1.7,0.5,3.5-0.1,4.5-1.5
		c1-1.4,0.3-2.8-0.7-4.1c-2.8-3.7-5.1-7.7-9.2-10.3c-9.5-6-18.2-13.2-27-20.2c-6.2-5-13.6-8.5-21.4-10c-2-0.4-5.8-0.5-5.6-3
		c0.3-3,3.8-1.6,5.9-1.7c8.1-0.7,15.8,2,23.2,4.6c4.2,1.4,8.4,1.5,12.6,2.3c1.5,0.3,3.7,0.5,4.1-1.7c0.4-1.9-1.7-2.4-2.9-2.9
		c-12.6-5-24.5-11.5-37.4-15.9c-5-1.7-9.2-5.1-12-9.6c2.3-0.1,4.1,1.2,6,2.2c15.7,7.9,31.2,16.3,48.4,21.1c6,1.7,9.2,6.7,9.5,13
		c0.2,4.4,1.3,8.8,3.1,12.9c3.5,8,6.9,15.9,9.9,24.1c0.9,2.3,1.2,3.5-1.9,4C497.1,117.7,494.9,119.9,495.4,124z"/>
	<path class="st32" d="M286.5,558c1.4-0.3,2.6,0.5,3.7,1.2c1.9,1,4.9,1.5,5.7,0.6c4.4-5,9.8-1,14.6-2.1c3.6-0.9,7.6,0.4,11.6,0.1
		c4.4-0.4,8.7-1.1,13-2c3.7-0.7,7.1-2.6,10.3,1.6c1.2,1.6,3.8,0.4,5.5-0.7c4.1-2.5,8.6-4.3,12.8-6.5c5.7-3,12-3.5,17.9-5.3
		c-5.1,3.1-9.9,6.5-16.3,7.3c-6.9,0.9-12.7,5.2-18.7,8.8c-8.3,4.7-17.8,4-26.6,6.7c-1.6,0.5-3.4,0.1-4.7-1c-2.1-1.6,1.1-2.7,0.6-4.3
		c-2.5-0.5-4.9-1-7.3-1.4c-0.9-0.1-2.1-0.5-2.6,0.7c-0.3,1,0.3,2,1.3,2.3c0,0,0,0,0.1,0c5,1,6.5,6.9,11.5,8.1c1,0.2,2.6,0.7,2.2,2.2
		s-1.8,1.8-3.3,1.2c-0.8-0.2-1.6-0.4-2.4-0.5C306.1,568.9,295.2,565.3,286.5,558z"/>
	<path class="st33" d="M215.3,141.8c1.2-0.1,2.4-1.5,3.7-0.3c0.9,0.9,0.3,1.9-0.1,2.8c-3.8,6.8-1.8,14-1,20.9
		c0.8,7.2,1.9,14.2-2.3,20.7c-0.8,1.5-1.1,3.1-1,4.8c0.1,1-0.6,1.9-1.6,2c-0.2,0-0.4,0-0.6,0c-1,0-1.8-0.8-1.8-1.8
		c0-0.3,0.1-0.5,0.2-0.8c3.6-11.1-0.4-22.4,0.7-33.6C211.8,151.5,213.6,146.6,215.3,141.8z"/>
	<path class="st34" d="M253.5,67.9c1.2,1,3.1,0.5,4,2.1c-2.6,4-5.1,7.9-5.4,12.8c0.8-1.3-0.2-3.9,2.7-3.8c-0.6,3.6,3.5,5.6,3,9.5
		c-0.7,6.1-1.1,7.3-7.2,8.4c-0.8,0-1.6,0.4-2.1,1.1c-5-3.2-2.9-8.2-2.7-12.3C246.1,79,247.7,72.4,253.5,67.9z"/>
	<path class="st35" d="M521.7,257.1c1.8-12.3-0.1-24.8,1.7-37.1c0.3-1.8,0-3.9-1-4.7c-6.8-4.9-4.1-10.1-0.9-15.4
		c2.3,7.9,3.9,16,3.7,24.2C524.8,235.2,525.9,246.4,521.7,257.1z"/>
	<path class="st36" d="M518.6,155.9c-2.1,1.4-2.1,3.5-2.1,5.7c0,0.8,0,1.7-1,2.1c-1.2,0.4-1.8-0.4-2.3-1.4c-0.6-1.2-1.7-2.5-1.5-3.6
		c0.6-4.7-2-8.6-3.2-12.8L518.6,155.9z"/>
	<path class="st37" d="M522.5,194.8c-0.4-3.3,0.4-5.9,3.9-7c0,1.1,0,2.3,0.2,3.4C527.3,194.8,525.8,195.8,522.5,194.8z"/>
	<path class="st38" d="M249.7,104.8c1.6,2.3,1,4-1.4,5.2c-1.9,0.9-3.9,1.8-5.8,2.8c0.5-2.5,2.4-3.8,4.4-5
		C248.1,107.1,249.6,106.7,249.7,104.8z"/>
	<path class="st39" d="M391.7,23.1c-1.1,0.9-0.5,3.4-2.3,3.4c-1.9,0-1.8-2-2-3.4L391.7,23.1z"/>
	<path class="st40" d="M465.6,259.4c-3.2-11.2-3.1-23-7.1-34.1c-1.9-5.3,0.3-7.7,5.5-8.3l0.7-0.1c1.5-5.8-1.6-11-4-15.4
		c-1.6-3.1-4.6-5.9-5.9-9.6c-0.5-1.3-0.2-2.7-1.3-4.1c-2.5-3.2-4.4-6.9-5.5-10.7c-3.2-11.5-8.8-22.7-6.7-35.4c1-6.4-3.5-13,0.2-19.6
		c0.1-0.7,0-1.3-0.4-1.9c-2.8-3.6-4.5-8-9-10.4c-3.3-1.8-6.3-4.2-8.9-6.9c-2.6-2.6-5.1-4.2-8.5-3.2c-0.4,0.1-0.7,0.2-1.1,0.4
		c7.3,8.5,7,11.4-1.5,18.3c-2.9-2.9-3-7.2-5.2-10.5c-1.7-2.8-4.3-2.3-6-1.9c-2.2,0.5-0.8,2.9-0.6,4.7c0.5,4,4.6,6.7,4.2,10.9
		c-0.5,5.6,0.7,10.1,5.4,13.5c1.2,0.9,2.2,2.3,1.1,3.9c-1.3,1.9-3.1,1.2-4.4,0.2c-3.9-2.8-8.6-4.5-13.4-4.8
		c-3.2-0.4-6.4-0.4-9.4-2.2c1.6,2.1,3.9,3.6,6.5,4.2c7.6,2.2,14.2,6.3,21.1,9.9c1.6,0.8,3.7,2,2.6,4.1c-0.9,1.8-2.9,1-4.5,0.4
		c-8.9-3.6-18.3-5.6-27.5-8.1c-1.4-0.4-2.9-0.9-4.5,1c3.6,1.4,6.6,3.1,10.2,3.7c8.7,1.5,16.9,5,24.1,10.1c2.1,1.5,4.1,3.2,4.4,6.8
		l0,0l0,0c-10.5-3.6-20-9.3-31-9.9c9.5,3.4,20.1,5.3,27.3,12.7c15.3,15.8,17.7,20.3,16.1,24.5c-1.4-1.4-1.9-3.6-4-4.4
		c-0.2,0.3-0.4,0.6-0.5,0.9l0,0c-0.6,1.7,0.6,3.1,1.5,4.5c1.8,3,3.8,5.9,5.5,8.9c2.6,5,5.3,10,5.1,15.9c0,1,0.2,2.1-0.9,2.6
		s-2-0.4-2.5-1.1c-3.5-5.1-8.3-8.9-11.3-14.5c-7.9-15.1-26-21.8-41.8-15.4c-6.8,3-14.3,4.3-21.7,3.9c-2.5-0.1-5,0-7.5,0.4
		c-3.3,0.6-6.5,0.2-8.5-2.8c-2.1-3.2,0-5.9,1.4-8.7c1.8-3.5,6-4.2,7.9-7.4c2.6-4.7,7-6.6,11.8-5.6c11.1,2.4,22.2-2,33.2,1
		c0.2,0,0.5,0,0.6-0.1c0.2-0.1,0.5-0.3,0.6-0.5c-0.7-1.7-2.4-2.3-3.9-2.9c-8.8-3.7-18.4-4-27.6-4c-6.2,0-13.3-2-19.1,2.8
		c-0.2,0.2-0.7,0.1-1,0.1c-4.7-0.8-7.6,3.1-11.4,4.6c-2.5,1-3.3,3.3-3.1,6.1c0.2,4.7-3.4,9.4-0.1,14.3c0.7,1.1-1.5,2.4-1.5,3.4
		c0,3.1-3.6,6.7,0.2,9.3s2.4,4.4-0.4,6.3c-0.9,0.7-1.8,1.4-2.7,2.1c-1.5,1.2-2.8,4-4.8,2.4c-2.2-1.8-4.3-6.1-3.1-7.5
		c3.5-4.2-2.1-5.9-1.5-9.4c0.7-4.8-6.1-4.1-7.2-3.9c-1.3,0.2-2.5,0.2-3.8,0c-2.9-0.4-5.6-1.6-8.4-2.3c-6.4-1.4-7.6-3.4-6.3-9.6
		c1-4.4-1.7-8.7-6.1-9.7c-1.1-0.2-2.1-0.3-3.2-0.1c-0.8,0-1.6,0-2.5-0.2c-6-0.6-11.8,0.5-17.5,2.3c0.3,0.3,0.6,0.6,0.9,0.8
		c1.3,0.7,2.8,0.5,4.2,0.6c2.7,0.1,5.3-0.1,8,0.2c3.3,0.4,6.3,1.5,7.5,4.9c1.1,3.3-0.3,5.8-2.1,8.7c-2.7,4.1-7.4,3.3-10.6,5.7
		c-2.3,1.8-5.4,2.1-8,0.8c-14-6-31.9,2.8-38.2,16.7c-0.5-1.1-0.2-2.5-0.8-3.5c-0.2-0.4-0.5-0.6-0.9-0.9c0.1,1.1,0.1,2.3,0.2,3.4
		c0.1,1.3,0.1,2.6,0.2,3.9c3-5,6.8-9.5,11.4-13.2c7.9-6.6,16.7-8.8,26.6-5.4c2.3,0.8,5.4,2.8,7,1c3.8-4.1,10.3-1.8,13.9-7.2
		c2.5-3.7,3.8-6.7,2.7-10.6c-1.1-4.2-4.9-5.3-8.5-5.6c-2.6-0.2-5.3-0.3-7.9-0.2c4.9-0.8,9.9-1.2,14.9-1c1.6,0.1,3.2,0.6,4.5,1.6
		c3.6,2.4,3.3,5.6,3,9.3c-0.2,3.4-0.6,7.5,4.2,8.3c4,0.6,7.7,2.4,11.7,2.9v4.6c0.4,1.4,1,2.7,1.8,4c0.2,0.3,0.3,0.7,0.5,0.8
		c4.8,2.3,3.2,6,2.3,9.8c-1.7,7.2-1,14.6,2.9,20.6c5,7.8,5.6,15.4,2.5,23.7c-0.4,1.1-0.7,2.2-0.9,3.3c-0.7,7.2-0.8,7.2-8.1,8.5
		c-2.2,0.4-6.2,0.5-5.6,3.5c0.9,4.3,0.8,9.4,5.3,12.2c3.1,1.9,4.1,6.3,2.7,7.5c-3.5,3-3.2,7.8-6,10.5c-2.6,2.5-3,4.8-2.4,8.1
		c0.4,2,0.6,4.9-2.5,5c-3.8,0.1-1.7-3.1-2.4-4.9c-0.4-0.1-0.8-0.1-1.2,0c-0.9,0.2-1.5,0.9-2.4,1.2c-5.5,1.9-8.8-0.8-7.9-6.5
		c0.2-1.2,1-2.4,0.9-3.6c0-0.4-0.1-0.8-0.3-1.1c-0.3-0.6-1.1-0.9-1.8-0.5c-0.1,0.1-0.2,0.2-0.3,0.3c-2.2,1.7-2.2,3.9-1.5,6.3
		c0.5,1.7,1.5,3.8-0.8,4.8c-2,0.9-4-0.5-5.3-2c-2-2.2-1.7-5.3-2.6-7.9c-0.4-1.2-0.1-3.6-2.2-3.3c-1.8,0.2-1.4,2.3-1.6,3.7
		c-1,6.8,4,11.1,7.1,15.9c2.1,3.2,1.4,4.5-0.7,7.1c-7.9,9.9-20.9,13.2-28.4,23.6c-4.5,6.2-13.5,8-16.7,16.1c-0.9,2.4-1.4,5-2.9,7.3
		c-1.3,1.9-2.2,3-4.8,2.1c-3.4-1.1-7.1-1.7-10.6-2.5c-0.1,0.1-0.2,0.3-0.3,0.4c-1.7,2.5-0.1,4.4,1.7,6c2.9,2.6,6.4,4.9,10.4,2.8
		c5.7-2.9,12.1-5,14.2-12.3c0.6-2,1.7-3.9,2.5-6c1.6-4.8,4.8-8.9,9-11.6c9.5-5.8,18.2-12.6,27.8-18.3c3.1-1.7,5.7-4.1,7.5-7.1
		c1.9-3.4,4.6-4,8-3.6s6.6,1.2,9.3,3.3c2.9,2.2,5.2,1.8,8-0.4c3.3-2.5,6.9-5.2,11.1-5.1c5.2,0.3,10.3-1,14.8-3.6
		c10.3-6.4,12.3-8.2,6.4-18.7c-2.4-4.1-4.5-8.4-6.3-12.9c2-0.2,3.9,0.8,4.8,2.5c2.5,4.1,5.5,8,7,12.6c1.8,5.6,1.8,11-2.3,15.9
		c-1.8,2.2-4.1,4.5-3.3,8c1.3,5.8,4.2,10.5,9.8,12.4c6.4,2.1,12,5.8,18.1,8.3c8.1,3.3,14.4,8.9,20.3,15.1c1.7,1.8,1.7,4.8,4.5,5.6
		h0.1h0.1c0.3,0,0.6,0,0.8-0.1c0.1,0,0.3-0.1,0.4-0.1l0.1-0.1c0.7-0.4,1.5-1.1,2.3-0.9c7.1,2.2,14.2-0.6,21.3,0.2
		c5.2,0.6,9.1-1.3,11.6-6c1.3-2.5,3-4.8,5-6.9c7-7.3,11-15.6,10.8-26c-0.1-5,1.7-9.7,6.6-12.1c8.3-4.1,10-11.2,8.9-19.3
		c-0.8-5.4-0.3-11,1.7-16.2C467.4,272,467.5,265.4,465.6,259.4z M373.6,244.8c-0.5-0.6-1.3-0.9-2-0.6c-1.6-0.3-3.2-0.8-4.8-1.4
		c-2.2-1.2-6.1,0.1-6.3-4.2c-0.1-4.1-1.2-8.4,3.9-10.6c1.3-0.5,2.4-1.3,3.1-2.4c5.2-9.4,13.3-5.6,20.6-4.4c2.5,0.4,5,2.1,5.5,4.6
		c0.7,3.1,3.2,4.2,4.9,6.3c1.9,2.4,5.9,4.9,2,8.8c-5,1.4-9.7,4.1-15.1,4.3L373.6,244.8z M237,245.1c-0.2,1.2,0.6,2.4,1.8,2.6
		c7.5,1.4,15,4.2,22.6,0.3c-2.5-0.1-5-0.3-7.4-0.4c-10.6-0.5-11.6-5-8.2-14.7c0.5-1.4,1.3-2.7,2.3-3.8c3.1-3.2,7.9-4.4,12.3-5.9
		c2.1-0.8,4.5-0.8,6.6-0.2c2.8,1,5.4,2.7,7.5,4.9c3.8-1.3,7.3-1,10.6,1.7c1.1,0.9,2.8,1.1,4.1,1.6c1.6,0.6,3.4,1.3,4.7-0.1
		s0.1-3.1-0.5-4.6c-2.9-6.2-12-10.6-18.6-9.4c-4.7,0.9-9.4,1.9-14.1,2.4c-5.5,0.6-9.9,3.1-14.2,5.9l0,0c-0.5,0-1,0.1-1.6,0.1
		l-4.5,1.3l-1.6,0.5l0.7,0.3c0.8,0.4,1.5,0.7,2.3,0.9C236.9,233.1,238.6,239.6,237,245.1z"/>
	<path class="st27" d="M212.6,371.9c0.4,7.2,7.3,10.9,13.3,7.1c0.9-0.7,1.9-1.3,3-1.8c7-2.2,8.8-8.5,10.4-14.3
		c1.4-4.6,4.3-8.6,8.3-11.4c4.4-3.2,9.2-6.3,13.9-9.4c7.5-5,15.9-8.9,22-15.6c2-2.2,2.5-5.6,6.5-5.6c5.1-0.1,10.1,0.8,14,4.2
		c2.3,2,3.5,1.4,5.3-0.4c3.1-2.8,6.8-4.8,10.9-5.8c2.8-0.8,6-0.3,9-0.8c6.2-1.1,10.9-4.6,15.1-8.8c2.5-2.5,0.4-5.7-1.1-8.1
		c-3-5-4.4-10.7-8.1-15.3c-0.6-0.6-0.7-1.6-0.3-2.3c0.7-0.8,1.8-1,2.8-0.5c2,0.5,3.7,1.7,4.8,3.4c3.1,5.4,7.6,10.5,8.4,16.7
		c0.7,5.3-0.2,10.6-4.4,15.1c-3.6,3.9-2.6,9.5,1.3,13.3c1.5,1.5,3.3,3.4,5.2,3.8c7.4,1.3,13.3,6,19.9,8.9
		c9.7,4.3,17.8,10.8,22.6,20.7c2,2.9,1.3,5.5-1,7.9c-4.1-3.7-10.2-5.5-11.9-11.7c-0.4-1.3-1.5-3-2.5-2.8c-4.5,0.6-5.8-2.8-8.1-5.3
		s-4.7-1.4-5.8,1c-1.5,3.3-3.8,3.9-7.1,4c-2.1,0.1-4.1,1.2-6.2,1.9c-1.8,0.6-3.8,1.1-3.3,3.6c0.3,2,2.2,3.4,4.2,3.1
		c0.1,0,0.1,0,0.2,0c4-1.3,4.5,1.5,5.6,3.8c0.6,1.2,1.2,2.5,0.3,3.8s-2.1,0-3.2,0c-5.6,0.2-11.2,0.5-16.8,1.1
		c-2,0.2-3.8,1.5-3.4,4.1c0.4,2.5,2.3,2.5,4.2,2.5c1.5,0,3.3-0.2,4.3,0.9c3.7,4.6,8.9,2.4,13.3,2.8s6.8-3.9,9.4-8.1
		c0.7,3.4,1.1,5.8,4.4,7.2c4.5,1.9,3.7,5.9-0.9,8.3c-4.4,2.3-5,7.2-7.3,11c-3.2,5.4-7.5,9.2-13.3,11.1c-4.2,1.4-7.9,4.4-12.7,3.8
		c-1.4-0.2-2.4,1.1-3.1,2.2c-2.3,3.5-6.2,3.4-9.7,4.3c-0.6,0.3-1.4,0-1.6-0.7c0,0,0,0,0,0c-2.6-8.5-9.1-3.5-13.5-3.2
		c-4.5,0.2-8.2,3.8-8.6,8.4c-0.2,2.2-1.9,1.8-3.3,2.1c-3.2,0.6-6.1,2.7-9.6,1.7c-0.5-1.7,1.4-2.1,1.7-3.4c0.6-2.3,0.1-3.7-2.6-3.3
		c-1.6,0.2-3.3,0.5-4.9,0.9c-7,2.2-11.4-1.5-15.2-6.5c-2.5-3.3-6.6-4.4-9.4-7.3c-2.1-2.2-5.2-3.3-5.9-7c-0.4-2.1-3.6-1.8-4.2-1.1
		c-3.1,3.5-9.6-1.9-11.4,4.4c-0.5,1.6,0.9,2.7,1.8,3.9c3.1,4.2,2.7,5.8-1.5,8.8c-2.5,1.8-2,5-2.8,7.6c-0.9,3.3-3.2,6.9,1.6,9.5
		c1.5,0.8,0.5,2.4-0.5,3.4c-3.4,3.5-4.3,6.2-0.3,10.8c2.4,2.7,2,8.3,1.5,12.6c-0.3,2.6-1.1,5-0.2,7.8c0.8,2.5-2.2,3.4-3,5.3
		c-4.1-2.5-3.6-9.5-10.2-9.5c6-2.9,6-2.9,2.7-8.5c-1.6-2.8-1.7-8.9-7.3-3.4c-0.7,0.7-1.6,0.2-2.3,0.1s-1.7,0-2.5,0
		c2.2-5.9,3.7-11.7,2-18.1c-0.8-3.1-0.8-6.3,0-9.4c1.9-7.5-0.1-14.7-1-22c-0.7-5.4,0.6-10.9-1.2-16.2c-1.9-5.7-3.4-11.5-5-17.3
		l-4-24c-0.7-1.7-1.1-3.5-1.1-5.3c0-1.3,0.4-2.8,2-3s1.4,1.5,2.1,2.3c2.3,5.4,2.1,11.3,3,16.9C211,365.9,211.3,369,212.6,371.9z"/>
	<path class="st41" d="M424.6,186.9c1.3,5.1,5.2,8.8,7.5,13.3c2.9,5.6,6,11.1,5.4,17.7c-0.1,1.6,0.9,4-0.9,4.4
		c-2,0.5-3.8-1.1-5.3-2.9c-5.5-6.4-10.2-13.4-14.9-20.3c-5.5-8-13.8-10.2-22.7-11.2c-7-0.7-14,1-19.9,4.9c-1.8,1.1-3.8,1-5.8,1.1
		c-6.4,0.3-12.9-0.6-19.4,0.8c-3.4,0.7-6.9-0.9-8.5-4c-1.5-2.7-1-6.1,1.1-8.3c2.3-2.4,2.7-7,7.4-6.9c0.4,0,0.9-0.9,1.2-1.5
		c3.6-6,8.3-8.3,15.3-6.9c5.9,1.2,11.9,1.2,17.7,0c5-1,9.9,0.2,14.6,1.8c3,0.6,5.9,1.6,8,4c2.7,2.4,5.7,4.5,9,6
		C418.8,180.4,421.8,183.6,424.6,186.9z"/>
	<path class="st42" d="M281.8,189.2c-3.6,5.5-10.1,3.2-13.9,7.2c-1.7,1.8-4.7-0.2-7-1c-9.9-3.4-18.8-1.2-26.6,5.4
		c-4.6,3.6-8.4,8.1-11.4,13.1c-0.1-1.3-0.2-2.6-0.2-3.9c-0.1-1.1-0.1-2.3-0.2-3.4c0.9-11.7,8.9-18.5,17.1-25.3
		c4.6-3.8,10.2-5.8,15.3-8.9c2.4-1.4,5.1,1.2,7.7,0.2c1.8,0,3.7,0,5.5-0.1c2.6-0.1,5.3,0,7.9,0.2c3.6,0.3,7.4,1.4,8.5,5.6
		C285.6,182.6,284.3,185.5,281.8,189.2z"/>
	<path class="st40" d="M287.5,91.9c5.1-3.7,10.9-6.4,17-8c4.9-1.4,10.6-1.3,15.9-1.7c7.2-0.4,14.4-1.5,21.6-0.4
		c6.5,1,13,2.5,19.3,3.8c4,0.8,9.3,2.4,13.3,5.5c3.5,2.7,7.9,1.7,12,1.8c-2.6,2.4-5.5,3.5-9,2c-2.7-1.1-5.4-1.4-8.1,0.4
		c-0.5,0.4-1.2,0.6-1.9,0.5c-9.2-2.9-19,0-28.3-4.6c-7-3.4-15.3-6.6-23.6-1.5c-2.9,1.7-6.7-0.3-9.4-1.3c-4.2-1.7-7.3-0.6-10.8,1.1
		C293,90.7,290.6,92.5,287.5,91.9z"/>
	<path class="st43" d="M225.5,164.9c-1.5,0.5-3.5,2.7-4.3,1.2c-1.6-2.8-2.8-6.4-1.2-9.5c2.6-5.3,3.6-11.1,6.4-16.2
		c2.4-4.5,6.6-7.4,10.2-10.8c0.5-0.5,1.3-0.6,1.7,0.1c0.3,0.6,0.4,1.2,0.3,1.9c-0.4,1.9-2.4,3.3-1.7,5.5L225.5,164.9z"/>
	<path class="st40" d="M207.5,346c-1.3-1.1-2.8-3.3-2.9,0.7c-0.1,1.8-0.1,3.5-0.1,5.3c-7.1-9.7-10.1-20.7-9.9-32.5
		c0.1-4.2-1.3-8.3-1-12.9c2.5,1.8,2.6,4.4,2.6,6.2c0.2,8.5,4.6,15.3,8,22.5C205.9,338.6,207.4,342.1,207.5,346z"/>
	<path class="st44" d="M353,126.1c14.4-5.5,19.5-5.3,25.2,0.9c-4.3,1.2-8.1,3-9.8,7.4c-0.4,0.5-1,0.8-1.6,0.7
		c-0.4-0.1-1.1-1.1-0.9-1.4c2.1-5.3-1.1-5.8-5.1-6C358.6,127.6,356.4,126.8,353,126.1z"/>
	<path class="st45" d="M296.6,310.9c-2.9,3.8-7,3.9-10.8,2.3c-3.1-1.3-2.9-6.7-0.2-12.3c1.9,0.1,4-0.3,5.1,2c-3.3,2.7-3.3,2.8,1,6
		c1-1.7-1.9-3.3,0-5C293.9,305.7,296.9,307.2,296.6,310.9z"/>
	<path class="st46" d="M291.7,303.8c-0.2,1.5,0.8,2.4,1.7,3.4s1.5,1.8,0.3,2.9c-0.8,0.8-2.1,1.2-2.7,0.6c-1.9-1.9-4.6-3.9-4.9-6.2
		c-0.4-2.8,3-1,4.6-1.7L291.7,303.8z"/>
	<path class="st47" d="M414.6,178.9c-4.4,0.1-7.2-2.2-9-6C409.2,173.8,412.4,175.9,414.6,178.9z"/>
	<path class="st48" d="M218.7,494.9c0.8,0.1,1.7,0.1,2.5,0c1.3-0.2,2.7-1,3.2,1c0.3,1.2-0.3,2.4-1.4,2.9c-1.1,0.5-1.9,1.3-2.5,2.3
		C219.7,499,218.2,497.2,218.7,494.9z"/>
	<path class="st49" d="M226.5,516c3.8,1.7,7.1,4.1,10,7.1C232.6,521.4,228.1,520.8,226.5,516z"/>
	<path class="st32" d="M277.6,552.9c3.4,1,7.2,1.2,8.9,5.1C283.1,557.3,279.9,555.5,277.6,552.9z"/>
	<path class="st50" d="M394.6,372.9c0-2.7,1.6-5.2,1-7.9l1-0.1c1.7,0.7,3,2.1,4.4,3.2c5,3.8,9.4,8.4,16.2,9c1.3,0.2,2.5,1,3.2,2.2
		c1,1.5,1.5,3.1,0.6,4.7c-3.3,6-0.2,11.2,1.9,16.5c0.1,0.3,0.3,0.6,0.5,0.9c11.2,19.1,18.5,15.4,35,2.9c1-0.8,1.8-2,2.8-2.8
		c5.6-5.9,8.1-14.1,6.7-22.1c-0.7-4.3-0.2-8.6,1.3-12.7c2.1-5.7,3.7-11.7,4.7-17.7c0.4-2.6,1.2-5.2,2.5-7.6c1-1.9,1.9-4.2,4.6-3.8
		c2.4,0.4,2.7,2.6,2.9,4.7c0,2.6,0.5,5.3-1.3,7.6c-3.7,0.4-3.5,3.6-4,6c-0.8,4.6-1.8,9-4.1,13.2c-1.7,2.7-2.4,5.9-2,9.1
		c2,12.3-3.1,22-11.3,30.4c-5,5.3-10,10.7-16.3,14.6s-10,3.8-15-1.4c-3.1-3.2-5.6-6.1-10.9-3.2c-4.3,2.3-6.5-2.9-9.6-4.7
		c-1.4-6.6-4.8-12.5-5.4-19.5c-0.3-3.8-2.5-8-7.6-8.7c-0.9-0.1-1.6-1-3-2c2.3-1.1,5.4-1.2,4.8-4.6C398,376.5,395.9,375,394.6,372.9z
		"/>
	<path class="st51" d="M296.1,77c-1.1,0.4-1.7,0.6-2.3,0.9c-2,0.8-4.6,2.3-5.6-0.5c-0.9-2.5,2.1-3,3.9-3.3c2.7-0.5,2.8-2,2-3.9
		c-1.6-3.9,0.4-7.1,2-10.4c1.2-2.4,3.3-1.8,5.2-1.8c2.1,0,2.2,1.5,2.3,3.1c0,1-0.2,2.3,1.2,2.3c1.1,0,1.4-1,1.5-2.2
		c0.3-5.8,4.3-10.2,9.9-9.8c3.4,0.2,4.7-1.3,5.4-3.6c0.7-2.7,3.1-3.8,4.3-6c0.5-0.9,1.7-1.3,2.6-0.8c6,3.7,10-2.2,14.9-3.3
		c5.8-1.3,11.5-3.9,15.4-9c1.7-2.2,14.1-5.5,16.8-4.7c3.4,1.1,4.1,5.8,1.4,9.8c-1.4,1.7-2.9,3.4-4.5,4.9c0.4,0.8,1.3,1.4,2,1
		c7.5-3.7,12.4,2.7,17.8,5.3c5.2,2.5,10.3,3.1,15.7,3.8c3.3,0.4,6.6,0.9,9.5,2.5c1,0.5,2.4,0.9,1.9,2.5c-0.4,1.2-1.5,1.1-2.5,1.1
		c-4-0.1-7.8,0.4-11.7-1.6c-4.6-2.3-9.3-0.2-11.6,4.5c-0.9,1.8-3.1,2.9-3.9,1.6c-3.1-4.8-3.5,1.8-5.5,1c-1,2.8,1.8,2.6,2.9,3.7
		c0.1,0.1,0.3,0.2,0.4,0.3c1.8,1.3,1.6,4.8,3.8,4.9c2.6,0,0.5-3.5,2.3-4.8c2.1-1.5,3.9-1.6,5.9-0.1c1.5,1.3,3,2.6,4.7,3.7
		c2.6,1.4,6.3,6.8,7.3-1.4c0.3-2.1,2.4-2,4.1-1.2c3.8,1.7,7,4.4,11.4,4.8c0.5,0.1,0.9,0.4,1.1,0.9c1.9,6.9,8,8.1,13.4,10.3
		c4,1.6,7.5,3.2,7.8,8.9c0.2,3.5-1.5,4.6-3.7,7c3.6,1,6.8,3.1,9,6.1c1.6,1.9,1.5,3-1.4,3.6c-9.2,2.1-15.6-0.6-21.8-8.3
		c-4.3-5.4-10.1-9-17.5-8.8c-2.5,0.2-5-0.5-7.1-1.8c-0.4-0.3-1-0.9-1.1-0.8c-6.5,3.1-9.7-3.8-14.9-4.8c-3-0.6-5.8-1.7-5.2-5.8
		c0.2-1-0.4-1.9-1.4-2.1c-0.1,0-0.1,0-0.2,0c-1.4,0-1.1,1.3-1.3,2.2s0.4,2.7-1.2,2.8c-1.2,0-2.3-0.6-3-1.5c-1.1-2.8-4.5-3.8-5.3-6.9
		c-0.6-2.1-3.1-1.5-4.2-0.7c-3.5,2.5-8.5,3.4-11.5,2.6c-8.9-2.5-17.1,4-25.8,1c-1.5-0.4-3.1,0-4.2,1.1c-2,1.6-3.8,2.3-6.2,0.3
		c-1.2-1-2.8-0.4-4.2,0.3c-5.7,3.1-12,4.5-18.3,5.7c-1.3,0.2-2.6,1-3.6-0.3S296.2,79,296.1,77z"/>
	<path class="st52" d="M419.6,379.9c-0.8-1.1-2-1.8-3.4-1.9c-8.4-0.4-12.9-7.2-19-11.3c-0.4-0.3-0.4-1.2-0.6-1.8
		c0.4-2.6,1.7-3.6,4.1-2.4c3.7,1.9,7.3,1.4,11.1,0.6c3.1-0.5,6.3-0.6,9.4-0.1c4.5,0.6,7.8-0.8,9.7-5c2-4.5,5.5-7.9,8.7-11.5
		c5.2-5.9,6.8-12.6,7-20.1c0.1-6.6,2.1-12.2,9-15.3c5.5-2.4,8.5-9.3,6.8-16.7c-1.3-5.7-0.7-11.6,1.5-17c2.5-6.4,2.1-12.6,0.1-19
		c-1.6-4.9-2.4-10-2.4-15.1c0.1-5.2-2.4-9.6-3.9-14.3c-1-2.8-1.4-5.8-1.1-8.8c0.8-4.9,3.7-6.1,7.9-3.5c0.7,1.1,1.9,0.9,2.9,1.1
		c3.8,11.3,8.5,22.3,8.6,34.5c0.1,10.5-0.4,20.9,0.8,31.4c0.7,6.1-0.8,12.2-1.4,18.3c-2,2.8-1.4,6.1-2,9.2c-0.8,2.9-3.6,4.9-3.7,8.2
		c-1.5,4.7-1,9.8-3.3,14.4c-3.5-2-5.6-0.7-6.5,3c-0.2,0.5-0.4,0.9-0.5,1.4c-0.8,8.8-5.5,14.5-13.5,18.1c-3.7,1.7-5.8,5.4-7.9,8.7
		c-3.2,5-7.1,9.2-12.9,11.2c-1.9,0.7-2.8,2.2-3.7,3.8C421,380.5,420.1,380.4,419.6,379.9z"/>
	<path class="st53" d="M474.6,302.9c1.4-18-0.2-36-0.1-54c0-7.7-2.5-15.3-5.8-22.3c-1.4-3-0.7-5.8-1.1-8.7c4.7,1.2,7.7,5,9.7,8.7
		c6.5,11.4,11.6,23.5,15.4,36c1.4,4.8,0.7,9.1-1.1,13.5c-2.8,6.2-4.1,13-3.9,19.8c0.1,1.5,0,2.8,2.1,2c-0.3,3.2-3.5,5.5-3,8.9
		c1,1,1.4,2.4,1.1,3.7c-1.9,9.3-2.8,18.7-2.9,28.1c0,1.4-0.2,3.1-2.2,3.3c-0.1-1.5,0.1-3.3-1.8-3.6s-2.3,1.6-2.9,2.9
		c-0.8,1.4-1.4,3-1.8,4.6c-1.3,9.2-4.9,17.8-7,26.8c-0.4,1.9-0.4,3.9,0,5.8c1.4,9.3-0.6,17.7-7.6,24.5c-1.3-1.8,0-3.2,0.7-4.6
		c3.5-6.5,4.7-14,3.3-21.3c-0.7-3.5-0.4-7.1,0.9-10.3c2.2-5.7,3.8-11.7,4.6-17.8c0.7-5.5,2.4-10.8,5-15.7c1.4-2.5,2.2-5.3,2.1-8.1
		c-0.1-1.5,0-3.4-1.6-3.9c-1.8-0.5-2.4,1.4-3,2.7s-1,2.5-1.7,3.6c-0.4,0.7-0.8,1.6-1.9,1.3s-1.1-1.2-1.3-2c-0.5-2.6,1.2-5.2,0.1-7.8
		c-0.5-3.3,2.5-4.7,3.9-7c1.3-1.2,0.7-2.7,0.6-4.2C473.1,306,472.6,304,474.6,302.9z"/>
	<path class="st54" d="M444.6,152.9c-1.4-4.8,2-8.6,2.3-13.1c0.2-1,1.1-1.8,2.1-1.7c1.2-0.1,2.3,0.8,2.4,2c0,0,0,0,0,0
		c0.2,1.6,0.8,3.7,0,4.9c-3.1,5.4-0.6,11-0.9,16.5c-0.2,2.7,1.4,4.6,2.5,6.9c0.8,1.5,1.4,3.9-0.4,4.9c-1.5,0.9-3.1-0.7-4.2-2
		C444,165.9,445.6,159.1,444.6,152.9z"/>
	<path class="st55" d="M502.6,150.5c0,1.2-0.2,2.5-1.5,2.9s-1.5-1-2.1-1.6c-2.1-2.1-4.4-4-6.5-6.1c-0.8-0.8-1.2-1.8,0-2.4
		C496.4,141.4,502.7,145.9,502.6,150.5z"/>
	<path class="st56" d="M254.8,79c-2.3,1.9-0.4,5.6-3.1,7.4c-2.1-5.1,0.6-12.7,5.8-16.4C257.3,73.2,256.8,76.3,254.8,79z"/>
	<path class="st57" d="M482.6,342c0.3-0.7,1-1.5,0.9-2.2c-1-7,1.4-13.9,1.1-20.9c-0.2-4.2,3-7.7,2.1-12c1.2-1.7,2.6-1.7,3.3,0.2
		c1.3,3.6,4.2,6.4,5.6,9.9c-1.4,3.8-1.7,8-1,12c-0.7,7.3-3.9,13.6-8,19.5c-0.7,1-1.8,1.6-3,1.5c-0.3,0-0.6,0-0.9-0.1L482.6,342z"/>
	<path class="st58" d="M494.6,328.9c-2.8-4.3-2.9-8.3,1-12c5.1-1.7,10.4,2.1,8.4,7.2c-1.6,4,0.2,8.3-2.3,12
		c-1.2,1.8-2.3,2.8-4.2,2.7c-2.6-0.1-1.7-2.3-2-3.8C495.3,333,496.4,330.7,494.6,328.9z"/>
	<path class="st59" d="M503.4,355.8c-1.9-0.1-3.7-1.4-2.4-3c2.2-2.8,4.3-5.8,7.7-7.4c1.4-0.8,3.1-0.4,4,0.9c1.2,1.6-0.5,2.2-1.6,2.8
		c-1.3,1-2.4,2.3-3.2,3.7C506.9,354.3,505.3,355.4,503.4,355.8z"/>
	<path class="st60" d="M512.9,364.8c-1.3,2-3.5,3.1-5.9,3c-1.3-0.1-2.6-1-2-2.2c1-2.2,3.2-2.7,5.5-2.7
		C511.6,363,512.9,363.1,512.9,364.8z"/>
	<path class="st61" d="M414.7,241.9c-1.2,2.9-2.3,4.6-5.7,3.4c-1.3-0.5-3-0.2-4.4-0.4c-2.4-0.3-4.2-1.2-4-4c3.9-4-0.1-6.4-2-8.8
		c-1.7-2.1-4.2-3.2-4.9-6.3c-0.5-2.4-3-4.2-5.5-4.6c-7.4-1.2-15.4-4.9-20.6,4.4c-0.8,1.1-1.9,1.9-3.1,2.4c-5.1,2.2-4,6.5-3.9,10.6
		c0.2,4.3,4.1,3.1,6.3,4.2c1.5,0.6,3.1,1.1,4.8,1.4c-6.3,4.8-11.1-0.3-16.3-2.4c-4.5-1.9-5.9-5.8-5.5-10.1
		c0.7-8.1,9.6-13.7,16.9-16.5c9.8-3.8,16.9-0.5,24.6,3.8c0.6,0.4,1.2,0.6,1.9,0.7c1.7,0.1,3.6,2.3,5,0.5c1.2-1.6,0.9-3.8-0.4-5.6
		c-0.6-0.9-1.1-1.7-0.3-2.6c0.8-0.9,2.1-1.3,3.2-0.8c2.2,1.1,5,2,6.3,3.8C412.5,222.9,419.4,230.7,414.7,241.9z"/>
	<path class="st62" d="M385.5,245.1c-4,1.5-8,0.6-11.9-0.4L385.5,245.1z"/>
	<path class="st62" d="M245.8,233c-3.3,9.6-2.4,14.2,8.2,14.7c2.5,0.1,5,0.2,7.4,0.4c-3.4,0.6-6.9,1.2-10.4,0.7
		c-5.6-0.8-7.8-3.3-7.9-8.9c-0.2-11.1,15.8-21.8,26.1-17.4c2.5,1.1,4.7,2.6,5.3,5.5c-4-3.8-8.3-6.7-14.1-4.7S248,226.7,245.8,233z"
		/>
	<path class="st63" d="M294,231.2c-1.3,1.3-3.1,0.7-4.7,0.1c-1.4-0.6-3-0.8-4.1-1.6c-3.3-2.6-6.8-2.9-10.6-1.7
		c-2.1-2.2-4.7-3.9-7.5-4.9c-2.2-0.6-4.5-0.6-6.6,0.2c-4.3,1.5-9.2,2.7-12.3,5.9c-1,1.1-1.8,2.4-2.3,3.8c-3.3,9.6-2.4,14.2,8.2,14.7
		c2.5,0.1,5,0.2,7.4,0.4c-7.6,3.9-15.1,1.1-22.6-0.3c-1.2-0.2-2.1-1.4-1.8-2.6c1.6-5.5-0.1-12,4.8-16.4c0.5-0.4,1-0.8,1.5-1.1
		l3.2-2.1l0,0c4.3-2.8,8.6-5.3,14.2-5.9c4.7-0.5,9.4-1.5,14.1-2.4c6.6-1.3,15.8,3.2,18.6,9.4C294.1,228.1,295.4,229.8,294,231.2z"/>
	<path class="st64" d="M327.6,303.9c3.6,1.7,5.4,5.5,3.8,8.7c-1.5,2.9-4.2,2.6-6.9,1.8c-4.6-1.4-9.4-1.8-13.8-3.9
		c-1.9-0.9-3.4-2-3.1-4.5s1.6-3.4,3.7-4.1C317.1,299.9,322.8,298.4,327.6,303.9c-1.8,1.5-3.4-0.1-5.1-0.4c-2.4-0.4-4.8-0.8-7.9,0.9
		c2.6,1.7,5.3,3.2,8,4.6c1.5,0.7,3.1,1.7,4.6,0.5s0.4-2.8,0.1-4.2C327.2,304.8,327.3,304.3,327.6,303.9z"/>
	<path class="st65" d="M379.7,199c3.4,1,6.8,1.8,10,3c1.9,0.6,2.9,2.5,2.4,4.4c-0.7,2.1-2.6,0.9-4.2,0.9c-4-0.1-8-1.8-12.2-0.4
		c-1.2,0.4-2.9,0.3-3.5-1.2c-0.8-1.9,1.2-2.2,2.2-2.6C376.7,202.3,377,199.1,379.7,199z"/>
	<path class="st66" d="M427.6,280.4c0-2.2,4.5-7.6,6-7.1c2.8,1.1,5.2,4.5,4.5,6.4c-1.1,3.2-5.7,2.3-8.7,3.5
		C427,284.3,428,281.5,427.6,280.4z"/>
	<path class="st67" d="M421.6,116.3c1.1,3,1.2,5.2,3.2,6.8c1.7,1.3,0.1,3-1.1,4.1c-0.9,0.7-2.1,2.8-2.8,1.5
		c-0.9-1.6-3.9-2.1-2.9-4.7C419,121.7,420.2,119.5,421.6,116.3z"/>
	<path class="st68" d="M345,234.8c-2.7,0.1-3.7-0.9-3.2-2.4c0.9-2.7,1.2-6.1,4.4-7c1.5-0.4,2.9,1.5,2.4,3.4
		C347.9,231.5,347.5,234.5,345,234.8z"/>
	<path class="st69" d="M372.5,260.4c0,1.8-0.8,2.8-2.1,2.2c-2.2-1-5.7-0.3-5.8-4.1c0-1.2,0.8-2.6,2-2.2
		C369.1,257.1,372,257.5,372.5,260.4z"/>
	<path class="st70" d="M385.5,245.1c-4.1,3.7-8,1.4-11.9-0.4L385.5,245.1z"/>
	<path class="st71" d="M337,361.3c-5.2-2.4-8.7,2.5-13.3,2.7c-1.8,0.1-3,1.2-4.6-0.9c-2.3-3-5.1-3.4-8.9-1.4
		c-2.1,1.1-4.3,4.5-7.7,2.5c-0.4-0.2-1.8,0.7-2.3,1.5s0.4,1.5,1,2.1c2.5,2.6,5.1,4.6,9.1,3.4c3.8-1.1,7.6-0.2,11.3,0.8
		c1.9,0.5,3.4,1.4,3.1,3.8s-1.5,3.8-3.7,4c-2.7,0.2-5.3,0.2-8,0.1c-1.9,0-3.3,0.3-3.3,2.6c0,2.6,1.7,1.3,2.9,1.7
		c5.3,1.6,10.4,3.6,15.4,6c7.7,3.8,16.3,3.4,24.4,5.5c4.4,1.1,4.8,2.5,3.2,6.1c-3.9,8.8-7.9,10.5-17.2,7c-1.4-0.5-2.3-0.1-3.6,0.2
		c-8.4,2.1-16.9,3.9-24.8-1.8c-2.7-1.9-10.1-0.9-12.6,1.5c-1.4,1.5-3.1,2.6-5,3.2c-3.4,1.1-7.5,0.8-9.8,4.5
		c-0.1,0.1-0.3,0.2-0.4,0.2c-4.3,1.5-8.1-1.2-12.1-1.5c-5.4-0.5-6.5-4.2-7.8-8.2c-1.8-5.8-3.7-11.6-5.5-17.4c-0.3-1-0.6-2.1,0.2-2.8
		c0.8-0.6,2-0.4,2.6,0.4c0,0,0,0,0,0.1c3.3,5.4,8.5,5.3,13.6,4.7c5.3-0.6,9.3-4.1,13.1-7.5c1.7-1.5,3-3,5.4-1
		c0.9,0.7,2.5,0.6,3.9,0.5c1.9-0.1,4.8,0.9,5.1-1.6c0.3-2.2-2.8-1.5-4.3-2.2c-4.6-2-5.4-4.7-2-8.8c0.8-1,2.3-1.9,1.6-3.3
		c-0.9-1.9-2.3,0-3.5-0.1c-6.5-0.7-13,0.7-18.6,3.9c-2.6,1.4-5.5,2.1-7.2,5c-0.8,1.3-2.7,2.6-4.3,1.8c-2.2-1.2-0.3-3,0.3-4.3
		c5.8-12.3,14.9-20.8,28-24.9c1.4-0.5,2.9-0.6,4.4-0.4c6.9,1.9,13.3-0.7,19.9-1.8c2.9-0.6,5.8,0.8,7.1,3.4c2.5,4.3,5,8.1,10.9,7.8
		C334.6,358.3,336.2,359.5,337,361.3z"/>
	<path class="st72" d="M389.5,184.1c-2-0.8-4.5-1.3-6.5-2.6c-3-1.8-5.8-3.6-9.1-4.7c-1.4-0.3-2.3-1.6-2.1-2.9c0.1-1.9,1.5-2,2.8-1.9
		c5.1,0.3,11.1-2,14.2,4.8c0.8,1.8,3.1,1.6,4.3,0.6c1.6-1.3,2.5-1.1,3.7,0.2c1,1.1,2.1,2.2,1.7,3.9c-0.5,2.1-2.4,1.3-3.7,1.6
		C393.1,183.3,391.5,183.6,389.5,184.1z"/>
	<path class="st73" d="M468.7,318.9c2,2.7,0.3,5.8,1.3,9.2c1.9-2.8,2-6.3,4.4-8.5c2-1.8,3.2-2,4.3,0.8c1.5,3.7,1.3,8-0.6,11.5
		c-3.9,7.3-5.6,15.1-6.6,23.3c-0.5,3.9-2.3,7.6-3.6,11.3c-0.9,2.5-1.8,5.2-1.2,7.8c2.5,10.3,0,19.6-5,28.5c-5.3,7.8-14,9.9-22,13.2
		c-2.2,1.1-4.8,0.6-6.4-1.1c-6.7-5.9-12.1-12.7-14.3-21.6c-0.8-3.3-1.5-6.4,1-9.3c1.2-1.4,0.3-2.8-0.3-4.1l2,0.1
		c6.5,2.3,12.1,0.7,16.8-4.1c2.4-2.4,6.2-2.2,8.7-4.7c4-4,7.2-8.8,9.4-14c1.7-3.8,3-7.8,6.5-10.5c1.6-1.3,1.2-3.3,1.4-5.1
		c0.2-2.6-0.8-5.4,1.3-7.6L468.7,318.9z"/>
	<path class="st74" d="M465.6,334c0,2.5-0.1,5,0,7.5c0.1,3.1,0.3,5.8-3.4,7.8c-1.9,1-2.6,4.3-3.7,6.7c-2.7,5.9-4.9,12.6-10.6,15.8
		c-6.1,3.4-11.1,9-18.5,10.5c-3.3,0.7-5.7,0.3-7.9-2.2c-1.1-2-0.9-3.4,1.6-4.1c6.8-1.7,11.2-6.3,14.5-12.1
		c2.6-4.7,6.6-8.5,11.5-10.6c5.2-2.2,7.6-6.2,8.4-11.5c0.5-3,1.4-5.8,2.9-8.4c0.7-1.3,1.4-3,3.1-2.9S465.3,332.5,465.6,334z"/>
	<path class="st73" d="M474.6,302.9c-1.1,1.7-1.3,3.7-0.6,5.6c0.7,1.7,0.2,2.8-1.4,3.5C473.5,309,470.6,305.1,474.6,302.9z"/>
	<path class="st75" d="M327.6,303.9c1.3,2,3.4,4.2,1.3,6.6s-4.5,0.9-6.7-0.4l-6.9-3.9c-1-0.6-3-0.3-2.4-2.4c0.4-1.4,1.9-1.7,3.2-1.9
		C320.1,301.2,323.9,302.5,327.6,303.9z"/>
	<path class="st76" d="M294.1,397.8c-3,1.1-6.1,1.2-8.3,4.3c-1.2,1.7-4,0.9-6.2,0.7c-0.9-0.1-1.8-1-2.8,0s-1.7,3.1-3.3,0.8
		c-1.2-1.7-3.2-3.1-2.4-5.7c0.7-2.1,2.4-1.3,4-1.5C281.5,395.3,287.6,398.2,294.1,397.8z"/>
	<path class="st77" d="M301.8,371.8c4.4,1.8,9.6,2.3,14.7,3.1c1.6,0.3,1.4,1.1,0.5,1.9c-0.6,0.5-1.7,1.2-2.1,1
		c-4.8-2.2-9,1.9-13.5,1.1c-1.1,0-2.3-0.2-3.4-0.4c-1.7-0.6-3.5-1.4-3.4-3.7s2.3-2,3.7-2.6C299.1,371.8,300.3,371.9,301.8,371.8z"/>
	<path class="st78" d="M442.1,387.8c5.2,0.6,10.2,1.9,15,3.9c3.4,1.3,2.9,4.2,2.2,6.7c-1.2,4.6-4.9,8.2-9.6,9.3
		c-3.8,1.1-7.7,1.7-11.6,2c-4.5,0.2-7.1-3.4-9.2-6.7c-1.9-3-3.4-6.6-1.1-10.3c0.7-1.1,1.5-2.3,2.9-2.6
		C434.6,389.2,438.6,388.5,442.1,387.8z"/>
	<g id="Layer_9">
		
			<linearGradient id="SVGID_1_" gradientUnits="userSpaceOnUse" x1="276.2888" y1="459.4421" x2="276.6288" y2="459.6321" gradientTransform="matrix(1 0 0 -1 0 686)">
			<stop  offset="0" style="stop-color:#000000;stop-opacity:0.4"/>
			<stop  offset="0" style="stop-color:#000000;stop-opacity:0.6"/>
			<stop  offset="1" style="stop-color:#000000;stop-opacity:0.2"/>
		</linearGradient>
		<path class="st79" d="M276.8,226.7c-0.2-0.1-0.5-0.2-0.7-0.4C276.4,226.4,276.6,226.5,276.8,226.7z"/>
		<path class="st40" d="M294.8,190.9c-4.9-0.7-4.5-4.8-4.2-8.3c0.3-3.6,0.6-6.9-3-9.3c-1.3-0.9-2.9-1.5-4.5-1.6
			c-5-0.2-10,0.2-14.9,1c2.6-0.1,5.3,0,7.9,0.2c3.6,0.3,7.4,1.4,8.5,5.6c1.1,3.9-0.3,6.9-2.7,10.6c-3.6,5.5-10.1,3.2-13.9,7.2
			c-1.7,1.8-4.7-0.2-7-1c-9.9-3.4-18.8-1.2-26.6,5.4c-4.6,3.6-8.4,8.1-11.4,13.1c-0.1-1.3-0.2-2.6-0.2-3.9c-0.1-1.1-0.1-2.3-0.2-3.4
			c-2.2,4.3-1.8,9-1.8,13.6c0,1.5,0.3,3.6,1.7,3.8c1.9,0.4,2.8-1.9,3.1-3.3c0.6-3.4,2.4-6.1,4.2-8.9c2.9-4.7,7-8.4,10.9-12.2
			c1.5-1.4,3.5-2.9,5.7-0.8c2.7,2.5-0.9,2.9-1.6,4.1c-2.1,3.7-3.9,6.8-1.5,11.4c2.1,4.1-0.4,9-3.2,11.2c-7,5.6-10,12.6-10.3,21.2
			c-0.2,7.2-1.4,9.4,6.9,11.3c2.3,0.4,4.4,1.5,6.2,3c4.1,4.1,8.8,4.6,14.5,5.3c7.2,0.8,12.1-1.3,17.1-5.5c3.5-3,7.2-5.8,12.4-2.2
			c3.2,2.2,5.1-0.7,5.8-3.8c1.8-8.1,4.5-15.9,8.2-23.4c3.1-6.3,2.1-15.4-3.6-19c-5.2-3.3-1.8-9-5.4-12.4c-0.5-0.5,0.7-1.8,1.7-2.1
			c3.3-1,6.7-3,9.9-2.8c1.7,0.1,2.5,1.4,3.1,3v-4.6C302.5,193.2,298.8,191.5,294.8,190.9z M240.4,226.9l4.5-1.3
			c0.6,0,1.1-0.1,1.6-0.1l0,0c4.3-2.8,8.6-5.3,14.2-5.9c4.7-0.5,9.4-1.5,14.1-2.4c6.6-1.3,15.8,3.2,18.6,9.4
			c0.7,1.5,1.9,3.1,0.5,4.6s-3.1,0.7-4.7,0.1c-1.4-0.6-3-0.8-4.1-1.6c-3.3-2.6-6.8-2.9-10.6-1.7c3.9,2,8.4,3.4,8.2,9.2
			c-0.1,2.2-0.6,3.9-2.6,5c-5.9,3.1-11.6,6.7-18.6,5.9c-7.6,3.9-15.1,1.1-22.6-0.3c-1.2-0.2-2.1-1.4-1.8-2.7c0,0,0,0,0,0
			c1.6-5.5-0.1-12,4.8-16.4c-0.8-0.3-1.6-0.6-2.3-0.9l-0.7-0.3L240.4,226.9z"/>
	</g>
</g>
<path class="st80" d="M475.7,686.7c-0.6,0.5-1.2,1-1.8,1.6c0-0.5,0-1,0.1-1.6H475.7z"/>
</svg>
