<svg xmlns="http://www.w3.org/2000/svg" viewBox="0 0 1080.69 722.76"><defs><style>.cls-1{fill:#ced7e7;}.cls-2{fill:#fed253;}.cls-3{fill:#ffa2a2;}.cls-4{opacity:0.05;}.cls-11,.cls-4{isolation:isolate;}.cls-5{fill:#63667e;}.cls-6{fill:#896363;}.cls-11,.cls-7{fill:#00b0ff;}.cls-8{fill:#3f3d56;}.cls-9{fill:#fff;}.cls-10{fill:#f5f5f5;}.cls-11{opacity:0.3;}</style></defs><title>manager_2</title><g id="Layer_2" data-name="Layer 2"><g id="ad467010-4b2c-4db1-84f0-cd2022f75deb"><path class="cls-1" d="M358.82,693.21s45.81-17.47,36.32-79.37L337,596.73l-13.51,50.79Z"/><path class="cls-2" d="M131,178.66s6.18,11.39,14.63,5.7.34-21.41.34-21.41S129.76,160.44,131,178.66Z"/><path class="cls-3" d="M363.32,610.93l31.79,2.91,59.16.55-46.61,65s-14.79.91-17.84,3.27-45.82,1.1-45.82,1.1l-6.9-33.32Z"/><path class="cls-4" d="M363.32,610.93l31.79,2.91,59.16.55-46.61,65s-14.79.91-17.84,3.27-45.82,1.1-45.82,1.1l-6.9-33.32Z"/><path class="cls-1" d="M331.17,436.17l7.39,14.2,1.61,24.76s5.15,21.11,9,27.3S354.64,525,354.64,525s1.61,15.29,3.54,18.56,4.5,27,4.5,27,17,38.59,32.46,43.32c0,0-76.5,28.4-36.32,79.37,0,0-28.61,8-35.36-1.09S299,548.36,299,548.36l5.46-113.6Z"/><path class="cls-4" d="M331.17,436.17l7.39,14.2,1.61,24.76s5.15,21.11,9,27.3S354.64,525,354.64,525s1.61,15.29,3.54,18.56,4.5,27,4.5,27,17,38.59,32.46,43.32c0,0-76.5,28.4-36.32,79.37,0,0-28.61,8-35.36-1.09S299,548.36,299,548.36l5.46-113.6Z"/><path class="cls-3" d="M238.35,297.78a87.83,87.83,0,0,0,1.86,37.9L228.3,374.27s-90.65-57.16-82.93-71c4.37-7.85,4.93-28.62,4.57-45.12-.25-12.54-1-22.6-1-22.6s111.25,12.39,96.44,41.15A73.65,73.65,0,0,0,238.35,297.78Z"/><path class="cls-3" d="M285.09,219.41c-9.82,56.16-50.38,95.51-90.58,87.88s-64.82-59.32-55-115.48c3.69-21.09,12-40.77,23.73-56.31q2.07-2.73,4.29-5.3c8.41-9.77,18.06-17.22,28.3-21.85h0a60.09,60.09,0,0,1,17-4.92c41.46-5.5,74.81,35.85,74.49,92.36,0,2.38-.09,4.77-.22,7.16A144.91,144.91,0,0,1,285.09,219.41Z"/><path class="cls-1" d="M319.92,563.61c-1.12,6.78.28,19.17,2.41,31.78.09.55.18,1.1.28,1.65s.24,1.4.36,2.09c1,5.42,2,10.79,3.09,15.67s2,9.06,2.77,12.5c1.21,5.15,2,8.39,2,8.39s.1,3.18.24,8.24c.08,2.92.17,6.48.26,10.41,0,1.14.06,2.3.09,3.5,0,2.09.09,4.26.13,6.48,0,.72,0,1.44,0,2.17,0,2.39.08,4.83.12,7.26,0,3.34.08,6.68.1,9.92v12.46c-.1,7.75-.37,13.6-1,15.29-.2.58-.39,1.21-.56,1.87a70,70,0,0,0-1.66,9.47l-1.5-1.39c-2.87-2.68-5.72-5.42-8.6-8.08a126.7,126.7,0,0,0-15.24-12.38l-1.1-.71c-1-.65-2-1.26-3-1.84a63.15,63.15,0,0,0-6.48-3.24c-10.2-4.4-21.12-6-32.19-5.73-4.41,1.91-7.28,3.28-7.28,3.28l-5.62,1.92-.94.32c-6.08,2.1-14.63,5.08-17.72,6.32-5,2-48.21,12.19-48.21,12.19a65.11,65.11,0,0,1-12.06,2.5,154.52,154.52,0,0,1-22.62,5.36,112,112,0,0,1-51.75-4.72,8.36,8.36,0,0,1-1.5,0,4.24,4.24,0,0,0,.89-.14L92.64,716l-1.48-.52c-2.47-.88-4.92-1.85-7.35-2.89L82.33,712q-3.52-1.55-6.91-3.31L74,707.89c-2.36-1.24-4.66-2.55-6.92-3.93-.81-.48-1.61-1-2.41-1.49-2.4-1.52-4.75-3.12-7.06-4.78-.39-3.77-.59-6.29-.59-6.29L53.52,672l-.17-1-2.47-14-.18-1-5.38-30.46-.17-1-2.48-14-.17-1-5.45-30.44-.18-1-2.47-14-.18-1-5.4-30.5-.18-1-2.47-14-.18-1-1-5.5-1.47-8.33s-4.71-7.62-10-16.63l-.6-1c-1.51-2.53-3.06-5.16-4.57-7.74L6.9,474.91c-.74-1.26-1.45-2.49-2.14-3.69l-.48-.83-.09-.17c-7.62-13.34-2.52-19.14-2.52-19.14s3.2-4.9,7.32-11.38c.2-.33.41-.66.63-1,1.77-2.8,3.71-5.86,5.62-8.92l1.47-2.38c.56-.89,1.11-1.78,1.64-2.66.21-.33.41-.67.61-1,4.07-6.66,7.42-12.47,8.11-14.53,1.08-3.25,8-12.86,14.79-21.29,5.4-6.66,10.76-12.58,13.17-14,5.47-3.27,7.72-13.84,7.72-13.84s11.89-4.72,13.5-8.36,24.11-20,24.11-20,9.11-6.64,12.79-10.64a8.5,8.5,0,0,0,1.35-1.79c1.28-2.6,9.64-4.74,13-5.51l1.43-.31a32.19,32.19,0,0,1,5.15-7.65c1.39-1.39,3.12-6.18,4.57-10.82,1.58-5.06,2.81-9.93,2.81-9.93,2.58-9.83,7.72-6.92,7.72-6.92a22.34,22.34,0,0,0,.33,4h0c2.15,12,13.8,17,19.92,22.61,6.76,6.18,17.36,22.21,25.72,25.48,6.92,2.71,14.95,12.93,17.49,16.34l.2.26c.42.56.63.88.63.88s4.75-.28,7.63-.34h1.05a3,3,0,0,0,1.61-.74c2.87-2.21,7.14-8.69,9-10.18,2.24-1.83,4.5-31.32,4.5-31.32l.11-.06c8-4.25,16.6,38.29,16.6,38.29s15.11,5.1,16.4,8.74a12.64,12.64,0,0,0,3.1,3.55,169,169,0,0,0,24.81,17.85c.19.11.38.22.57.31l.54.29.95.49q.71.36,1.32.6l.53.21a11.91,11.91,0,0,1,3.53,2.07c.32.26.64.53,1,.82a26.45,26.45,0,0,1,3.3,3.76c.15.2.29.41.43.61h0c.67.95,1.27,1.89,1.77,2.76a40.53,40.53,0,0,1,2.21,4.18S327.61,415.1,331.79,418s6.76,32.41,6.76,32.41h0l-14.13,59.31s-.66,15-1.9,30.3C321.83,548.6,321,557.33,319.92,563.61Z"/><path class="cls-5" d="M213.51,349.52s-9.47,5.82-16.87,6.37a12.83,12.83,0,0,1-2.9-.19c-7.75-1.33-19.12-8.55-19.12-8.55L188,330.58l16.23,9.11,6,6.29Z"/><path class="cls-6" d="M292.35,182.68a11.41,11.41,0,0,1-2.65,5.2c-4.64,5-12.89,2.92-19.22,1.76a63.13,63.13,0,0,1-16-5.2c-4.47-2.15-9.82-4.79-13.84-1.69-1.55,1.18-2.61,3.07-4.21,4.11s-3.66,1.11-5.56,1.13c-6.18,0-12.36.09-18.39-1.49-9-2.39-18.3-8.37-26.86-4.43-6.69,3.08-10.32,11.34-12.13,19.27-.88,3.89-1.54,8-3.53,11.29s-5.86,5.65-9.14,4.1c-4.85-2.29-5.56-11.61-11.41-12.08-6.42-.51-6.34,7-4.47,12.43,3.29,9.47,7.76,18.89,6.29,28.93-1.46,0-3.87-.06-5.3-.1,1.12-2.15-1-4.71-3.11-5.44s-4.58-.72-6.18-2.46-1.62-4.43-1.45-6.84a52.14,52.14,0,0,1,3.29-14.94c1.16-3,2.65-6.25,1.77-9.39a27.74,27.74,0,0,0-1.91-4.09c-1.84-4-1.4-9,.17-13.13.67-1.76,1.15-3.42,1.71-5a23.18,23.18,0,0,1,3-6.23c2-2.85,4-7.14,1.77-9.79-.57-.67.56-1.13.2-2a1.93,1.93,0,0,1-.13-.47,5,5,0,0,1,.63-3,7.06,7.06,0,0,1,.35-.67,5.13,5.13,0,0,1,.34-.66,30.74,30.74,0,0,1,7.64-9.43c1.92-1.57,4.16-3.08,4.92-5.62.88-3-.67-6.19-.81-9.36-.3-7.13,6.51-12.1,12.76-13s12.74.59,18.83-1.24c8.64-2.58,14.72-11.22,22.57-16.07a28.62,28.62,0,0,1,28.07-1.14c9.17,4.74,16.08,14.32,25.65,17.92,3.39,1.28,7.07,1.79,10.12,3.91,3.53,2.46,5.68,6.76,7.51,11,2.8,6.43,3.37,12.89,5.3,19.7,1.54,5.4,3.67,12.46,3.84,18.68A21,21,0,0,1,292.35,182.68Z"/><path class="cls-5" d="M303.29,700.91c-.36-.24-.72-.48-1.09-.71-1-.65-2-1.26-3-1.84a64.19,64.19,0,0,0-6.48-3.24c-10.2-4.4-21.12-6-32.2-5.73-4.41,1.91-7.28,3.28-7.28,3.28l-5.62,1.92c-.07-.7-.13-1.4-.2-2.11s-.12-1.28-.18-1.92c-2-21.16-3.53-42.85-3.53-42.85V626.52l-.1-55.31-.89-17.46-.17-3.62-.13-2.45-.16-3.24-.15-3.29-.12-2.37v-.52a.21.21,0,0,0-.06-.17c-.17-.54-.37-1.36-.59-2.4l-.11-.5c0-.23-.1-.48-.14-.73h0c-1.66-8.53-4.1-26.92-4.23-30.37-.16-4.2-3.37-29.32-3.37-29.32-.33-13.83-10.6-39.87-13.18-44.78s-5.47-34.41-4.51-36c.56-1,.89-7.07,1.1-12.08v-1.16c.11-3.09.16-5.5.16-5.5l9.39-2.1,2.39-.53.37-.08.88-.2s1.16,2.42,2.54,5.75l.18.42c2,4.94,4.41,11.66,4.34,15.48-.16,6.56,6.44,22.4,6.44,22.4.63,3.64,14.62,39.86,14.62,39.86s11.42,35.5,10.77,41.33S274.43,542,274.43,542l6.27,39.69c3,7.82,7.06,25.84,7.06,25.84l1.42,9.52.29,1.93,3.21,21.52,3,19.83s.88,7.07,2.1,15c.11.72.23,1.44.35,2.17a123.71,123.71,0,0,0,3.33,15.42A67.19,67.19,0,0,1,303.29,700.91Z"/><path class="cls-2" d="M305.22,178s-3.38,4.92-6.42,4.92-14.91-.55-21.09-2.73-36.48-3.83-36.48-3.83-42.91.18-44.36-1.46-26.68-10.38-29.25-9.83c-.54.12-1.86.38-3.61.71l-2,.37c-3,.55-6.85,1.19-10.33,1.66-4.3.57-8.08.86-9.28.36V164s5-8.2,5.3-10.55,4.5-36.42,15.44-48.61a45.77,45.77,0,0,1,20.73-22c14.79-7.29,29.58-13.47,29.58-13.47L216,69l8.35-1.4a5.49,5.49,0,0,1,.82-.78c2.31-2,9.32-6.35,18.46,3l1.62,2.92s28.12,7.46,41.13,33.49S300.06,157.7,301,169.35c0,0-.64,3.28.65,4.55a18.9,18.9,0,0,1,1.33,1.48c.11.13.23.26.34.4.37.42.71.86,1,1.22a.28.28,0,0,1,.09.1l.22.27Z"/><path class="cls-4" d="M295.33,187.32s-3.38,4.92-6.42,4.92-14.91-.55-21.09-2.73-36.48-3.83-36.48-3.83-42.91.18-44.36-1.46-26.68-10.38-29.25-9.83c-.54.12-1.85.38-3.61.71l-.46-3.2-.12-.79s48.71-11.83,81.17-5.63,56.42,13.1,56.42,13.1-.64,3.28.65,4.55a18.9,18.9,0,0,1,1.33,1.48c.12.13.23.26.34.4.37.42.71.86,1,1.22a.28.28,0,0,1,.09.1l.22.27Z"/><path class="cls-2" d="M142.15,182.45s-10.78-9.29,3.21-15.48c0,0,24.43-8.55,42.92,2,0,0,10,5.27,16.71,5.27s61.72.55,74.59,4.74a50.38,50.38,0,0,0,7.81,1.86,30,30,0,0,0,19.84-4.27c.88-.55,1.68-.83,1.92-.51.8,1.1.16,7.47-6.91,8.74-5.52,1-18.06-.89-23.33-1.76-1.37-.23-2.72-.52-4.08-.85-5.2-1.28-21.19-4.87-30.94-3.21-11.73,2-44.85-1.64-44.85-1.64s-20.4-4.73-28.6-8.56S139.09,168.25,142.15,182.45Z"/><path class="cls-3" d="M94.9,709.6s28.61,6,43.55,4.91c0,0,27.49,1.64,42.28-3.27,0,0,43.26-10.2,48.22-12.2s24.27-8.56,24.27-8.56,37.61-17.84,48.22-14.93c0,0,83.26-24.39,77.31-57.34s-58.51-25.48-75.05-13.11-14.13,13.66-22.34,15.66c0,0-17,4.73-24.92,4.55s-43.08,6.19-43.08,6.19S185.72,633,168.69,627s-20.42-.73-20.42-.73Z"/><path class="cls-1" d="M155,624.08h0a7.19,7.19,0,0,1-.5,2.2c-3.38,9.43-22.64,34.9-22.64,34.9A77.1,77.1,0,0,1,128.7,670a132.45,132.45,0,0,1-7.22,14.27,234.6,234.6,0,0,1-18.34,26.9l-.21.25s-.77.67-2,1.53a21.77,21.77,0,0,1-7.2,3.42L92.65,716l-1.48-.52c-2.47-.88-4.92-1.85-7.35-2.89L82.34,712c-2.35-1-4.66-2.13-6.91-3.31L74,707.89C71.6,706.65,69.3,705.34,67,704c-.81-.48-1.61-1-2.41-1.49-2.4-1.52-4.75-3.12-7.06-4.78s-4.85-3.61-7.19-5.53c-1.08-.88-2.15-1.79-3.21-2.71-1.19-2.56-2.15-4.72-2.74-6.06C43,680.1,42.86,675.39,43,672a6.5,6.5,0,0,1,.05-1c.15-2.14.38-3.61.38-3.61s-.72-1.09-1.58-2.57c-.49-.82-1-1.77-1.48-2.71-.88-1.76-1.57-3.54-1.44-4.55a2.26,2.26,0,0,0,0-.52,4.72,4.72,0,0,0-.13-1c-.68-3.16-3.61-8.59-6.31-12-2-2.51-2.14-11.89-2-18.54v-1c.12-3.45.31-5.94.31-5.94-1-.49-1.77-4.12-2.26-8l-.14-1c-.56-4.59-.82-9.2-.82-9.2C21.14,595,18,586.54,16.59,579a69.18,69.18,0,0,1-1.15-16v-.25s.76-21.78,3.18-30.25c.1-.36.2-.69.31-1a7.6,7.6,0,0,1,.79-1.46c1.34-2.12,2.23-7.22,2.81-12.44l.11-1c.73-7,.94-13.87.94-13.87l-1.65-9.12c-.44-2.5-.79-5-1-7.51,0-.33-.07-.67-.11-1a97,97,0,0,1-.22-13.95,5.54,5.54,0,0,1,.06-1,93.25,93.25,0,0,1,7.21-30.5c.14-.34.28-.67.44-1a83.26,83.26,0,0,1,3.78-7.56c.48-.85,1-1.69,1.47-2.52.81-1.32,1.65-2.62,2.52-3.88l.71-1a76.89,76.89,0,0,1,9.07-10.65c9.71-9.43,18.54-13.07,26.48-12.74,31.3,1.27,48.87,64.05,51.76,75.23l.43,1.7s13.18,14.93,9.32,21.48a12.28,12.28,0,0,0-1.33,4.72c-1.07,8.81,2,23.32,2,23.32s1.08,4,4.22,13.58c.29.89.6,1.82.89,2.8,2,6,2.43,16.07,1.3,25.09-1.09,8.65-3.63,16.28-7.73,18.24-8.35,4-6.11,8-4.18,11.29a48.38,48.38,0,0,1,2.86,7.38c1.52,4.71,2.93,9.73,2.93,9.73a13.75,13.75,0,0,1,1.76-.65,8,8,0,0,1,3.82-.45,1.76,1.76,0,0,1,1.51,1.46c.23,1.2,2.06,2.69,4.28,4.1A78.92,78.92,0,0,0,155,624.08Z"/><path class="cls-1" d="M212.69,346.56l-1.37,2.23s-11-8.71-15.48-13.11-15.11,15.65-23.47,21.11-22.5,6.93-22.5,6.93-10.93-12.39-10.59-16-5.14-4.73-5.47-7.29S131.56,330.6,129,327c-1.36-1.92-1.55-7.93-1.43-13.16l1.43-.3a32.19,32.19,0,0,1,5.15-7.65c2.89-2.92,7.39-20.75,7.39-20.75,2.57-9.83,7.71-6.93,7.71-6.93,0,14.93,13.5,20.4,20.25,26.59s17.36,22.2,25.72,25.48C202.11,332.93,210.14,343.14,212.69,346.56Z"/><path class="cls-5" d="M193.74,355.7s14.32-9.73,21.2-8.91c7.21.85,21.19,1.45,21.19,1.45s-4.82,12.38-4.18,14.93.8,14.93.8,14.93-14.46-6.37-16.87,5.46c0,0-7.88-13.29-13.18-17.3A39.21,39.21,0,0,1,193.74,355.7Z"/><path class="cls-1" d="M274.6,364.81c-4.18,0-19-10.56-22.18-17.47s-7.72.72-11.9,3.27c-2.65,1.64-11.06-1.53-16.72-4,2.87-2.2,7.14-8.68,9-10.18,2.24-1.82,4.5-31.31,4.5-31.31,8-4.73,16.71,38.23,16.71,38.23s15.12,5.1,16.4,8.74a12.64,12.64,0,0,0,3.1,3.55C275.28,360.65,276.26,364.81,274.6,364.81Z"/><path class="cls-7" d="M331.71,683.78l139.78-132a6.94,6.94,0,0,1,5-2l52.15,1.55s3.61,3-1.69,9.56L395.09,683.44a7.82,7.82,0,0,1-5,2.14l-57,2.14a2.09,2.09,0,0,1-2-2.16A2.37,2.37,0,0,1,331.71,683.78Z"/><path class="cls-3" d="M399.33,667.54s30.53,49.52,64.45,3.46,24.12-70.26,13.83-71.54S409.45,648.61,399.33,667.54Z"/><rect class="cls-8" x="389.57" y="20.63" width="207.97" height="302.01" rx="13.44" ry="13.44" transform="translate(-28.68 153.59) rotate(-17.2)"/><circle class="cls-9" cx="372.98" cy="96" r="6"/><circle class="cls-9" cx="380.67" cy="117.47" r="6"/><circle class="cls-9" cx="432.03" cy="274.96" r="6"/><circle class="cls-9" cx="439.71" cy="296.43" r="6"/><rect class="cls-10" x="424.31" y="129.92" width="124.88" height="20.81" transform="translate(-19.73 150.18) rotate(-17.2)"/><rect class="cls-7" x="545.09" y="114.39" width="207.97" height="302.01" transform="translate(-49.45 203.77) rotate(-17.2)"/><rect class="cls-8" x="754.6" y="49.54" width="207.97" height="302.01" transform="translate(-20.91 262.81) rotate(-17.2)"/><rect class="cls-10" x="550.49" y="153.22" width="124.88" height="20.81" transform="translate(-20.97 188.53) rotate(-17.2)"/><rect class="cls-10" x="542.24" y="201.61" width="166.5" height="5.2" transform="translate(-32.41 194.06) rotate(-17.2)"/><rect class="cls-10" x="545.83" y="213.21" width="166.5" height="5.2" transform="translate(-35.68 195.64) rotate(-17.2)"/><rect class="cls-10" x="549.42" y="224.81" width="166.5" height="5.2" transform="translate(-38.95 197.22) rotate(-17.2)"/><rect class="cls-10" x="554.95" y="249.23" width="79.78" height="5.2" transform="translate(-47.86 187.13) rotate(-17.2)"/><rect class="cls-10" x="558.27" y="259.03" width="91.92" height="5.2" transform="translate(-50.34 190.34) rotate(-17.2)"/><rect class="cls-10" x="560.19" y="259.6" width="166.5" height="5.2" transform="translate(-48.76 201.96) rotate(-17.2)"/><rect class="cls-10" x="563.78" y="271.2" width="166.5" height="5.2" transform="matrix(0.96, -0.3, 0.3, 0.96, -52.03, 203.54)"/><rect class="cls-10" x="567.64" y="284.59" width="154.36" height="5.2" transform="translate(-56.08 203.48) rotate(-17.2)"/><rect class="cls-10" x="570.96" y="294.4" width="166.5" height="5.2" transform="translate(-58.56 206.7) rotate(-17.2)"/><rect class="cls-10" x="576.33" y="317.79" width="86.72" height="5.2" transform="translate(-67.02 197.54) rotate(-17.2)"/><rect class="cls-11" x="795.71" y="263.61" width="91.92" height="5.2" transform="translate(-41.08 260.74) rotate(-17.2)"/><rect class="cls-11" x="797.63" y="264.19" width="166.5" height="5.2" transform="translate(-39.5 272.36) rotate(-17.2)"/><rect class="cls-11" x="801.22" y="275.78" width="166.5" height="5.2" transform="translate(-42.77 273.94) rotate(-17.2)"/><rect class="cls-11" x="805.08" y="289.18" width="154.36" height="5.2" transform="translate(-46.82 273.89) rotate(-17.2)"/><rect class="cls-11" x="808.4" y="298.98" width="166.5" height="5.2" transform="translate(-49.3 277.1) rotate(-17.2)"/><rect class="cls-10" x="651.31" y="315.73" width="100.59" height="69.38" transform="translate(-72.24 223.1) rotate(-17.2)"/><rect class="cls-11" x="749.62" y="81.96" width="100.59" height="69.38" transform="translate(1.27 241.71) rotate(-17.2)"/><rect class="cls-11" x="850.84" y="145.04" width="100.59" height="69.38" transform="translate(-12.85 274.46) rotate(-17.2)"/><rect class="cls-7" x="836.09" y="113.3" width="207.97" height="302.01" rx="13.44" ry="13.44" transform="translate(-36.12 289.75) rotate(-17.2)"/><circle class="cls-9" cx="819.51" cy="188.67" r="6"/><circle class="cls-9" cx="827.19" cy="210.14" r="6"/><circle class="cls-9" cx="878.55" cy="367.64" r="6"/><circle class="cls-9" cx="886.24" cy="389.1" r="6"/><rect class="cls-10" x="870.83" y="222.6" width="124.88" height="20.81" transform="translate(-27.17 286.34) rotate(-17.2)"/><path class="cls-6" d="M161.13,296.54s-7.37,24.2,20.91,31.07c0,0,27.67,34.41,70,3.54,0,0,29.45-16.52,25.11-49.75s5.21-40.82,5.21-40.82S269,258.46,266.48,271.46s-34.37,20-48.43,9.2-44.86-4.7-44.86-4.7l-3.89-46s-6.84,28.36-11,28.9S154.92,297.36,161.13,296.54Z"/></g></g></svg>