<svg xmlns="http://www.w3.org/2000/svg" xmlns:xlink="http://www.w3.org/1999/xlink" viewBox="0 0 935.19 554.03"><defs><style>.cls-1,.cls-6{fill:#00b0ff;}.cls-1,.cls-11,.cls-5{opacity:0.1;}.cls-1,.cls-4,.cls-5{isolation:isolate;}.cls-2{fill:#3f3d56;}.cls-3{fill:#65617d;}.cls-4{opacity:0.2;}.cls-7{fill:#d4dfec;}.cls-8{fill:#fbbebe;}.cls-9{fill:url(#linear-gradient);}.cls-10{fill:#4f3838;}.cls-12{fill:none;stroke:#00b0ff;stroke-miterlimit:10;stroke-width:2px;}</style><linearGradient id="linear-gradient" x1="491.68" y1="-171.47" x2="491.68" y2="205.98" gradientTransform="matrix(1, 0, 0, -1, -79.34, 381.02)" gradientUnits="userSpaceOnUse"><stop offset="0" stop-color="gray" stop-opacity="0.25"/><stop offset="0.54" stop-color="gray" stop-opacity="0.12"/><stop offset="1" stop-color="gray" stop-opacity="0.1"/></linearGradient></defs><title>onlineStudy</title><g id="Layer_2" data-name="Layer 2"><g id="_59725d3d-bdd8-4af0-9b66-49b8d09410bc" data-name="59725d3d-bdd8-4af0-9b66-49b8d09410bc"><path class="cls-1" d="M879.45,438.18c-.81,2.5-1.62,5-2.43,7.4q-1.89,5.67-3.72,11.12c-.55,1.61-1.09,3.19-1.62,4.77-6,17.57-11.62,33.11-16.38,45.89-8.8,23.58-25.89,38.42-44.57,38.7l-105.92,1.65h-1.12l-9.08.14-7.76.12-23.82.37h-1l-12.12.19h-.37l-74.74,1.16-66.71,1-7.76.12-48.19.75h-.05l-31.26.48h-.34l-98.83,1.53-29.56.46a44.66,44.66,0,0,1-18.63-3.82c-10.5-4.55-19.94-13.1-27.3-24.75-12.7-20-22-43.4-28.17-68.76q-1.35-5.49-2.52-11.12C194,341.43,220.23,207.06,267.44,117.14q3-5.64,6-11l0-.08c14.52-25.52,30.8-46.84,48.14-62,30.73-26.91,64.78-34.49,98.27-11.9,28.34,19.12,54.8,28.11,80.45,30.55q3.89.36,7.76.53C567,65.89,622.11,35.54,686.86,16c2.58-.78,5.16-1.55,7.77-2.28C740.82.51,792.05-6.43,853,8.16a99.5,99.5,0,0,1,18.69,6.4c2.69,1.24,5.27,2.57,7.77,4C908.53,35.5,924.39,66.8,931.13,106q1,5.46,1.66,11.11C944.74,211.47,909.74,345.29,879.45,438.18Z"/><rect class="cls-2" x="105.5" y="265.8" width="19" height="57.66"/><rect class="cls-2" x="616.83" y="262.8" width="19" height="61"/><polygon class="cls-3" points="757 533.62 757 546.62 605.08 548.01 603.46 548.04 545.72 548.58 544.34 548.6 526.79 548.75 526.27 548.75 419.29 549.74 243.68 551.37 243.53 551.37 198.88 551.78 198.4 551.79 0 553.62 0 538.62 46.65 510.62 140.25 509.83 142.25 509.82 142.91 509.81 144.91 509.79 189.85 509.42 191.86 509.4 192.5 509.39 194.5 509.38 208.91 509.26 209.29 509.25 244.84 508.95 245.13 508.95 522.53 506.62 529.32 506.56 530 506.56 535.18 506.51 572.83 506.2 574.83 506.18 576.68 506.15 577.64 506.15 589.35 506.06 591.67 506.04 594.78 506.01 604.53 505.93 620 505.8 622 505.77 625.48 505.75 626.13 505.75 700.84 505.12 757 533.62"/><polygon class="cls-4" points="757 533.62 757 546.62 605.08 548.01 603.46 548.04 545.72 548.58 544.34 548.6 526.79 548.75 526.27 548.75 419.29 549.74 243.68 551.37 243.53 551.37 198.88 551.78 198.4 551.79 0 553.62 0 538.62 46.65 510.62 140.25 509.83 142.25 509.82 142.91 509.81 144.91 509.79 189.85 509.42 191.86 509.4 192.5 509.39 194.5 509.38 208.91 509.26 209.29 509.25 244.84 508.95 245.13 508.95 522.53 506.62 529.32 506.56 530 506.56 535.18 506.51 572.83 506.2 574.83 506.18 576.68 506.15 577.64 506.15 589.35 506.06 591.67 506.04 594.78 506.01 604.53 505.93 620 505.8 622 505.77 625.48 505.75 626.13 505.75 700.84 505.12 757 533.62"/><path class="cls-2" d="M190,483.63v24.49a6.15,6.15,0,0,1-6,6.14l-34.9.74a6.16,6.16,0,0,1-6.27-6.14V483.63Z"/><path class="cls-5" d="M190,483.63v24.49a6.15,6.15,0,0,1-6,6.14l-34.9.74a6.16,6.16,0,0,1-6.27-6.14V483.63Z"/><path class="cls-2" d="M192,483.63v24.49a6.15,6.15,0,0,1-6,6.14l-34.9.74a6.16,6.16,0,0,1-6.27-6.14V483.63Z"/><rect class="cls-2" x="574.83" y="483.63" width="47.17" height="31.5"/><rect class="cls-5" x="574.83" y="483.63" width="47.17" height="31.5"/><rect class="cls-2" x="572.83" y="483.63" width="47.17" height="31.5"/><polygon class="cls-5" points="124.5 265.79 124.5 271.51 105.5 271.02 105.5 265.79 124.5 265.79"/><path class="cls-3" d="M249.56,104.37l-22.83,164a4.31,4.31,0,0,1-4.37,3.71l-182.8-4.74-3.47-.09a4.32,4.32,0,0,1-4.2-4.41c0-.15,0-.31,0-.46L57.56,90.7a4.28,4.28,0,0,1,4.54-3.63L245.56,99.49a4.27,4.27,0,0,1,4,4.53A2.16,2.16,0,0,1,249.56,104.37Z"/><polygon class="cls-6" points="69.83 99.13 50.5 250.46 218.5 255.78 239.16 109.78 69.83 99.13"/><rect class="cls-3" x="278.5" y="96.79" width="204.67" height="173.33" rx="5.33" ry="5.33"/><rect class="cls-6" x="288.16" y="108.46" width="186" height="144.33"/><polygon class="cls-5" points="635.83 262.79 635.83 266.57 616.83 266.96 616.83 262.79 635.83 262.79"/><path class="cls-3" d="M721.56,259.59a3.08,3.08,0,0,1-2.87,3.27h-.13l-187.2,3.87a3.09,3.09,0,0,1-3.13-2.79L512.14,96.67a3.08,3.08,0,0,1,2.77-3.36h.15l185.78-9.24,2-.1a3.07,3.07,0,0,1,3.22,2.8Z"/><polygon class="cls-6" points="522.83 103.13 692.5 94.78 706.83 246.78 538.5 250.78 522.83 103.13"/><path class="cls-5" d="M721.56,259.59a3.08,3.08,0,0,1-2.87,3.27h-.13L700.84,84.06l2-.1a3.07,3.07,0,0,1,3.22,2.8Z"/><path class="cls-5" d="M62.13,87.06,39.56,267.34l-3.47-.09a4.32,4.32,0,0,1-4.2-4.41c0-.15,0-.31,0-.46L57.56,90.7A4.29,4.29,0,0,1,62.13,87.06Z"/><rect class="cls-5" x="105.5" y="306.38" width="19" height="17.08"/><polygon class="cls-5" points="192 483.62 192 488.58 144.83 489.85 144.83 483.62 192 483.62"/><path class="cls-3" d="M275.25,312.33v168.2a4,4,0,0,1-3.85,4l-191.65,5.1h0a4,4,0,0,1-4-3.95V312.33a4,4,0,0,1,4-3.95H271.3A4,4,0,0,1,275.25,312.33Z"/><path class="cls-5" d="M79.75,308.38v181.2h0a4,4,0,0,1-4-3.95V312.33a4,4,0,0,1,4-3.95Z"/><polygon class="cls-7" points="88.5 319.12 266 319.12 266 467.37 88.5 471.37 88.5 319.12"/><rect class="cls-5" x="616.83" y="306.38" width="19" height="17.42"/><polygon class="cls-5" points="620 483.62 620 490.02 572.83 488.76 572.83 483.62 620 483.62"/><path class="cls-3" d="M682.25,312.33v173.3a4,4,0,0,1-4,3.95h0l-191.69-5.1a4,4,0,0,1-3.85-4V312.33a4,4,0,0,1,4-3.95h191.6A4,4,0,0,1,682.25,312.33Z"/><path class="cls-5" d="M682.25,312.33v173.3a4,4,0,0,1-4,3.95h0V308.38h0A4,4,0,0,1,682.25,312.33Z"/><polygon class="cls-7" points="669.5 319.12 492 319.12 492 467.37 669.5 471.37 669.5 319.12"/><path class="cls-3" d="M477.75,312.33v168.2a4,4,0,0,1-3.85,4l-191.65,5.1h0a4,4,0,0,1-4-3.95V312.33a4,4,0,0,1,3.95-3.95H473.8A4,4,0,0,1,477.75,312.33Z"/><polygon class="cls-7" points="291 319.12 468.5 319.12 468.5 467.37 291 471.37 291 319.12"/><polygon class="cls-5" points="757 533.62 757 546.62 605.08 548.01 603.46 548.04 545.72 548.58 544.34 548.6 526.79 548.75 526.27 548.75 419.29 549.74 243.68 551.37 243.53 551.37 198.88 551.78 198.4 551.79 0 553.62 0 538.62 202.51 537.28 202.99 537.28 243.98 537 244.17 537 527.25 535.13 527.54 535.13 527.71 535.13 528.18 535.13 532.97 535.1 534.43 535.1 608.92 534.6 613.32 534.58 614.3 534.57 757 533.62"/><circle class="cls-8" cx="381.16" cy="272.13" r="51.33"/><path class="cls-9" d="M198.3,552.15a1.24,1.24,0,0,1,.1-.35c1-3.59,2.78-9.66,4.11-14.51.17-.6.33-1.19.48-1.75,1.47-5.47,4.33-18.28,5.92-26.27.56-2.81,1-5,1.09-6.1.2-1.69,3.21-8.92,6.62-17.23,2.39-5.84,5-12.22,6.91-17.6a61.87,61.87,0,0,0,2.93-9.85,5.1,5.1,0,0,0,0-2.13,14.83,14.83,0,0,1-.48-3.5h0c-.23-6.2,1.62-16,4.48-20.11,3.5-5,6-23.66,6-23.66s5.18.75,6-3.53a6,6,0,0,0,.1-1.4,6.74,6.74,0,0,0-.09-1.11c-.89-6.24,14.72-12.88,23.5-14.31a18.81,18.81,0,0,1,3-.28,27.94,27.94,0,0,0,6.25-1.44c.93-.29,1.93-.62,3-1,3.68-1.24,8.08-2.88,12.75-4.68,17.56-6.81,38.82-16,38.82-16,.15-.71.32-1.39.51-2.06a27.69,27.69,0,0,1,16.35-18.93h0v-2c0-3.45-.15-7-.3-10.54,0-.69-.06-1.38-.1-2.07v-1.13c0-.7-.07-1.4-.11-2.09l-.18-.14a16.57,16.57,0,0,1-3.9-4.2,15.52,15.52,0,0,1-1.42-3c-1.25-3.39-1.54-7.17-2.38-10.75l-.18-.74a82.72,82.72,0,0,0-4-10.58c-2.21-5.42-3.91-11-5.6-16.65q-1.55-5.13-3.11-10.28l-1.58-5.24c-.3-1-.6-2-.83-3h0a13.76,13.76,0,0,1-.26-1.4h0a10,10,0,0,1,.24-4.61,31,31,0,0,1,1.32-3,7.87,7.87,0,0,0,.5-1.38h0c0-.11.06-.22.08-.32a5.65,5.65,0,0,0,.11-1.08,18.12,18.12,0,0,0-.52-3.89,0,0,0,0,1,0,0,1.86,1.86,0,0,0-.05-.27,25.56,25.56,0,0,1-.36-3,28.43,28.43,0,0,1,3.47-15.57l.19-.36a24.77,24.77,0,0,1,1.84-2.78h0a14,14,0,0,1,1-1.22c-1.4,1.34-3.7.75-5-.69a4,4,0,0,1-.55-.75,4.78,4.78,0,0,1-.23-.45c-.05-.12-.09-.25-.13-.38-.7-2.45.52-5.06,2.12-7.05a18.49,18.49,0,0,1,5.74-4.7h0a3,3,0,0,1,.4-.21,15.82,15.82,0,0,1,2.64-1.06h0a13.07,13.07,0,0,1,1.63-.44l-3.71-.34-1.5-.14a14.49,14.49,0,0,1,13-10.91H346a10.29,10.29,0,0,1,1.57.13,4.45,4.45,0,0,1-2.65-4.33,14.43,14.43,0,0,0,9.19,3.06h.38a30.21,30.21,0,0,1-.34-3.27h0a33.19,33.19,0,0,1,0-4.46,8.47,8.47,0,0,0,6.78,2.26l-2.08-2.9a9.52,9.52,0,0,0,6.56,2.05l.48-.05a8.06,8.06,0,0,0,1.19-.23h.09c-.19-.24-.36-.49-.53-.75l-.06-.12a9.78,9.78,0,0,1-1-2.09,7,7,0,0,1-.24-.87h0a8.71,8.71,0,0,1,.45-5.45c3.23,2.7,6.77,6.39,11,3.6s4.37-7.91,11-7.39a10.18,10.18,0,0,1,8.41,6.12,6.73,6.73,0,0,1,7.67-1.75,6.84,6.84,0,0,1,3.88,6.89c2.75-.69,5.71-1.37,8.35-.33s4.34,4.41,2.84,6.66a2.43,2.43,0,0,1-.14.2c-1.23,1.59-3.95,2.46-3.66,4.46l.42.3,1.3.94h0q7.65,5.52,14.9,11.6c2.48,2.08,5.12,4.58,5.29,7.83a8.64,8.64,0,0,1-.24,2.37h0c-.16.78-.38,1.56-.55,2.34a19.49,19.49,0,0,0-.34,6h0c.07.59.16,1.17.27,1.76,1.53,7.73,7.71,14.11,8.32,22v.56a17.86,17.86,0,0,1-.07,2.53c-.46,4.8-2.68,9.41-4.48,14-.11.28-.22.56-.32.84-3.47,9-5.47,18.59-7,28.16a99.42,99.42,0,0,1-2,10.09,26.8,26.8,0,0,1-5.09,10.43,16.53,16.53,0,0,1-3.36,3,18.67,18.67,0,0,1-2.65,1.41v.06c.11.61.2,1.22.31,1.83.06.32.11.64.17,1h0v.06c.84,4.73,1.8,9.36,2.81,13.76l.51,2.19c12.6,4.55,14.09,13.87,14.18,17.44a8.54,8.54,0,0,1,0,1.43s19,.5,26.5,6a20.62,20.62,0,0,0,4.51,2.3,84.71,84.71,0,0,0,9.25,2.89c1.61.42,3.29.83,5,1.23,3,.69,6.18,1.36,9.25,2,8.19,1.65,15.9,3,19.81,4,9.33,2.36,30.67,22.82,30.67,22.82s2.5,20.64,5,23.65,7,13.59,7,13.59l16.54,29.41,7,12.37h4.5c.62,0,1.84.88,3.21,2.1,1.19,1.06,2.51,2.38,3.67,3.58l1.92,2.05,1.2,1.33s7.27.18,9.24,5.93c5.92-.17,13.19.22,18.28,2.5a13.34,13.34,0,0,1,2,1.08,8.57,8.57,0,0,1,4.31,7.1v1.7c-.36,7.57-5.29,13.87-9.82,18.11l.32.57s-.15.36-.44,1c-.08.19-.18.4-.29.64h0c-.59,1.26-1.53,3.15-2.76,5.36a63.54,63.54,0,0,1-9.57,13.17l-.29.3-57.74.53-.17-.2-11.2-13.36-5.57-6.64-.17-.21-.16,1.59-.54,5.3-1.3,12.81-.07.64v.17l-.15,1.48.11-1.48h-.29l-107,1-175.62,1.94v.84h-.14v-.84l-44.75.48Z"/><path class="cls-8" d="M432.5,377.13s-99.5,12-90,0c3.44-4.34,4.39-17.2,4.2-31.85-.06-4.45-.22-9.06-.45-13.65-1.1-22-3.75-43.5-3.75-43.5s87-41,77-8.5c-4,13.13-2.69,31.57.35,48.88.89,5.05,1.92,10,3,14.7A347.52,347.52,0,0,0,432.5,377.13Z"/><path class="cls-5" d="M432.5,377.13s-99.5,12-90,0c3.44-4.34,4.39-17.2,4.2-31.85,15.17-6.48,34.47-1.65,34.47-1.65,20.32-4.05,33.35-3.26,41.68-.42A347.52,347.52,0,0,0,432.5,377.13Z"/><path class="cls-6" d="M243.64,552.5v-.84l175.62-1.91,107-1h.3l-.11,1.48.15-1.48h.19v-.17l1.37-13.45.52-5.09.16-1.59.14-1.33,6.18-20.61,6.18-20.58,5.2-17.34,7.94-26.47s-4.5-10.5-7-13.5-5-23.5-5-23.5-21.34-20.34-30.67-22.67c-3.91-1-11.63-2.33-19.83-4-3.07-.62-6.22-1.28-9.25-2-1.71-.39-3.39-.8-5-1.21a90.69,90.69,0,0,1-9.25-2.86,21,21,0,0,1-4.5-2.29c-7.35-5.39-25.77-6-26.48-6h0v-.16a8.83,8.83,0,0,0,0-1.26,8.13,8.13,0,0,0-.09-1.41,1.29,1.29,0,0,0-.07-.5c0-.36-.11-.74-.2-1.14,0-.17-.07-.35-.12-.53a17.51,17.51,0,0,0-1.25-3.49c-.07-.16-.16-.33-.24-.49a18.73,18.73,0,0,0-1.7-2.63c-.13-.17-.27-.35-.42-.52a20,20,0,0,0-2.72-2.64c-.27-.21-.55-.43-.84-.63a4.67,4.67,0,0,0-.51-.36l-.89-.58-.83-.48c-.73-.4-1.5-.79-2.34-1.16-.26-.12-.54-.23-.82-.34l-1.09-.42h-.06l-.75-.29c-.57-.19-1.15-.36-1.76-.53l-.93-.24-1-.23-1-.21c-1-.2-2.07-.38-3.19-.52l-1.14-.14-1.17-.12-1.21-.1-1.72-.1-2-.07a123.77,123.77,0,0,0-26.24,2.79,71.85,71.85,0,0,0-18.26-1.68h-.87l-1,.06h-.64l-1.29.12a9.59,9.59,0,0,0-1.3.15c-.43.06-.88.11-1.31.18l-.66.11c-.65.11-1.31.23-2,.37l-.66.15c-.87.19-1.74.42-2.6.68-.43.12-.86.26-1.29.41-.22.06-.43.14-.64.22l-.64.22-.63.25-.75.3c-.38.16-.75.33-1.12.51-.21.1-.42.19-.62.3s-.41.2-.6.31a28.1,28.1,0,0,0-6.21,4.38l-.51.49-.5.51c-.17.17-.33.35-.49.54a23.23,23.23,0,0,0-1.82,2.25c-.16.21-.31.41-.46.64a26.61,26.61,0,0,0-1.72,2.92c-.13.23-.25.48-.37.72a32.05,32.05,0,0,0-2,5.25c-.19.67-.36,1.34-.51,2-.23,1-21.17,9.35-38.73,16.11-4.67,1.8-9.07,3.43-12.75,4.66l-3,1a27.4,27.4,0,0,1-6.25,1.44,18.81,18.81,0,0,0-3,.28c-8.07,1.31-21.9,7-23.41,12.71a3.66,3.66,0,0,0-.1,1.4v.11c1,7-6,6-6,6s-2.5,18.5-6,23.5c-2.53,3.6-4.26,11.63-4.48,17.69h0a19.41,19.41,0,0,0,.44,5.63v.14c.4,1.34-.56,5-2.19,9.69-1.77,5.15-4.35,11.55-6.83,17.59-3.74,9.12-7.26,17.4-7.48,19.22-.09.81-.35,2.26-.71,4.13-1.46,7.62-4.7,22.13-6.3,28-1.19,4.38-2.92,10.38-4.11,14.5a1.4,1.4,0,0,1-.1.35l44.83-.44v.84h.08Z"/><path class="cls-5" d="M260,434.63s57,29.5,77.5,26Z"/><path class="cls-5" d="M376,422.63s55.5,18,74,20.5S376,422.63,376,422.63Z"/><path class="cls-5" d="M437.56,364.71c-29,5.34-83.6,4.19-107.2,3.38,8.65-31,50.83-20.46,50.83-20.46C433.4,337.21,437.4,358.83,437.56,364.71Z"/><path class="cls-6" d="M437.56,362.71c-29,5.34-83.6,4.19-107.2,3.38,8.65-31,50.83-20.46,50.83-20.46C433.4,335.21,437.4,356.83,437.56,362.71Z"/><path class="cls-8" d="M591.5,499.38s34.16-5.25,34.83,9.75-17.42,25.48-17.42,25.48Z"/><path class="cls-5" d="M419.85,328.51q-2.21,1-4.5,1.74c-10.78,3.72-21.65,7.47-33,8.83s-23.26.16-33.16-5.5a29.62,29.62,0,0,1-3-1.95c-1.1-22-3.75-43.5-3.75-43.5s87-41,77-8.5C415.46,292.76,416.81,311.2,419.85,328.51Z"/><path class="cls-10" d="M367.08,191.9a9.5,9.5,0,0,1-8.32-1.75l2.08,2.89a8.51,8.51,0,0,1-6.78-2.25,34.11,34.11,0,0,0,.32,7.75,14.57,14.57,0,0,1-9.56-3,4.43,4.43,0,0,0,2.64,4.31,14.33,14.33,0,0,0-15.6,10.71l5.22.48a18.44,18.44,0,0,0-10.44,6.37c-1.6,2-2.82,4.56-2.12,7s4.08,4,5.92,2.26a27.93,27.93,0,0,0-6.1,22.79,14.58,14.58,0,0,1,.46,5.26c-.33,1.65-1.37,3.08-1.89,4.69-1,2.92-.05,6.09.84,9l4.69,15.42c1.7,5.57,3.39,11.15,5.61,16.54a81.2,81.2,0,0,1,4,10.51c1.26,4.84,1.31,10.14,4,14.37a20,20,0,0,0,7.18,6.33c9.89,5.66,21.84,6.86,33.16,5.5s22.18-5.11,32.95-8.83a31.58,31.58,0,0,0,6.84-3c7.45-4.88,9.11-14.86,10.5-23.65,1.55-9.8,3.62-19.58,7.29-28.8,2.18-5.49,5-11.06,4.52-16.94-.61-7.81-6.79-14.14-8.32-21.82a19,19,0,0,1,.07-7.77,17.93,17.93,0,0,0,.79-4.7c-.17-3.22-2.81-5.7-5.29-7.77q-8.07-6.75-16.66-12.74c-.29-2,2.43-2.86,3.66-4.44,1.74-2.23-.06-5.77-2.7-6.81s-5.6-.36-8.35.33A6.59,6.59,0,0,0,396.14,185a10.16,10.16,0,0,0-8.42-6.08c-6.63-.52-6.76,4.55-11,7.34s-7.74-.89-11-3.57A9.28,9.28,0,0,0,367.08,191.9Z"/><path class="cls-6" d="M616.83,529.38s-.89,2.12-2.53,5.19a69.11,69.11,0,0,1-9,13.17L605,548h-1.62l-57.74.53h-1.38l-.17-.2-11.2-13.29-4.22-5-.17-.21-.36-.42-.2-.24-.26-.31-8.21-9.74,3-12.5,5.11-21.06.13-.51,1-4,.71-3,2.38-9.78L540,434.64l14.5,7.5,15.29,27,8.21,14.5h4.5c.85,0,2.8,1.64,4.76,3.53.7.67,1.4,1.38,2,2,1.78,1.84,3.19,3.42,3.19,3.42s7.29.16,9.25,5.9a7.61,7.61,0,0,1,.25.85,40.77,40.77,0,0,0,2.53,6.56c1.29,2.81,2.91,6,4.55,9.19,3.05,5.85,6.15,11.42,7.29,13.44l.14.25Z"/><path class="cls-5" d="M530.93,484.23l-.1,1.43v.1l-.17,2.3-1.33,18.51-1.61,22.3-.46,6.28-1,13.44v.17l-107,1-175.59,1.9v.84h-.14v-1.12L244,537l.86-28.06.74-23.79.07-2.37a10.53,10.53,0,0,1,10.85-10.21l.57,0c4.72.4,10.85.89,18.18,1.41l3,.22c42.33,2.94,120.56,6.74,199.5,2,1.66-.09,3.33-.19,5-.31,12.24-.77,24.47-1.76,36.58-3a10.53,10.53,0,0,1,11.57,9.37,11.56,11.56,0,0,1,0,1.86Z"/><path class="cls-2" d="M243.64,552.5v-.84l175.62-1.91,107-1h.3v-.17l1-13.44.43-6,1.64-22.61,1.29-17.9v-.44a10.72,10.72,0,0,0-.11-2.47.17.17,0,0,0,0-.1,10.27,10.27,0,0,0-2-4.64,10.5,10.5,0,0,0-9.42-4c-12.11,1.24-24.34,2.23-36.58,3-1.67.12-3.34.22-5,.31-78.94,4.69-157.17.89-199.5-2l-3-.22c-7.33-.52-13.46-1-18.18-1.41a10.53,10.53,0,0,0-11.24,8.53,11.12,11.12,0,0,0-.18,1.64L245,509l-.93,28.07-.44,14.36v1.12Z"/><path class="cls-5" d="M531.23,491.24,530,506.57l-1.83,22.85-.46,5.72-1,12.81-.06.64v.17h0l-.15,1.48.11-1.48h-.29l-107,1-175.65,1.9v-.28l.49-14.36,1-28.06.64-18.65a6.34,6.34,0,0,1,3.06-5.25,6.21,6.21,0,0,1,3.78-.9c2.1.17,4.68.37,7.69.59,4.89.36,10.92.78,17.94,1.22,13,.82,29.31,1.7,48,2.42,52,2,122.2,2.67,188.88-3.17,3-.26,6.1-.55,9.13-.84a6.25,6.25,0,0,1,3.48.65,6.91,6.91,0,0,1,.86.54,6.22,6.22,0,0,1,2,2.46,3.56,3.56,0,0,1,.25.61A6.39,6.39,0,0,1,531.23,491.24Z"/><path class="cls-5" d="M192,504.93v3.19a6.14,6.14,0,0,1-3.5,5.54l-40.1.77a6.13,6.13,0,0,1-3.57-5.57v-3Z"/><polygon class="cls-2" points="192.5 515.53 140.25 516.53 140.25 507.87 192.5 506.87 192.5 515.53"/><polygon class="cls-5" points="192.5 515.53 140.25 516.53 140.25 507.87 192.5 506.87 192.5 515.53"/><polygon class="cls-2" points="194.5 515.53 142.25 516.53 142.25 507.87 194.5 506.87 194.5 515.53"/><g class="cls-11"><path d="M367.49,188.62a9.68,9.68,0,0,1-1.89-4.34,9.47,9.47,0,0,0,.42,4.6A10.27,10.27,0,0,0,367.49,188.62Z"/><path d="M354.79,195.26a35.65,35.65,0,0,1-.37-3.7v3.71Z"/><path d="M436.29,228.63a19.41,19.41,0,0,1,.36-2.65,18.29,18.29,0,0,0,.8-4.69,6.16,6.16,0,0,0-.16-1.06c-.17.92-.44,1.84-.64,2.75A19.11,19.11,0,0,0,436.29,228.63Z"/><path d="M415.49,197.73l1.09.79a20.17,20.17,0,0,0,2.57-2.22,3.66,3.66,0,0,0,.38-3.64,3.48,3.48,0,0,1-.38.64C417.92,194.88,415.2,195.75,415.49,197.73Z"/><path d="M333.32,207.35a12.05,12.05,0,0,0-.87,2.28,17.6,17.6,0,0,1,5-1.89Z"/><path d="M347.11,196.47a16,16,0,0,1-1.88-1.23,4.28,4.28,0,0,0,.09,1.18A10.68,10.68,0,0,1,347.11,196.47Z"/><path d="M444.88,255.39c-.41,4.85-2.67,9.52-4.5,14.12-3.67,9.22-5.74,19-7.29,28.81-1.39,8.79-3,18.77-10.5,23.64a30.36,30.36,0,0,1-6.83,3c-10.78,3.73-21.65,7.47-33,8.83s-23.26.17-33.16-5.49a20.06,20.06,0,0,1-7.18-6.33c-2.67-4.23-2.72-9.53-4-14.37a81.9,81.9,0,0,0-4-10.52c-2.21-5.38-3.91-11-5.6-16.53q-2.35-7.71-4.69-15.43a28.81,28.81,0,0,1-1.14-4.75c-.39,2.56.37,5.24,1.14,7.75q2.34,7.72,4.69,15.43c1.69,5.57,3.39,11.15,5.6,16.53a81.9,81.9,0,0,1,4,10.52c1.26,4.84,1.31,10.14,4,14.37a20.06,20.06,0,0,0,7.18,6.33c9.9,5.66,21.84,6.85,33.16,5.49s22.18-5.1,33-8.83a30.36,30.36,0,0,0,6.83-3c7.45-4.87,9.11-14.85,10.5-23.64,1.55-9.81,3.62-19.59,7.29-28.81,2.18-5.48,5-11.05,4.52-16.94C444.9,255.51,444.88,255.45,444.88,255.39Z"/><path d="M325.19,251.52v-.11a14.08,14.08,0,0,0-.46-5.25,26.59,26.59,0,0,1-.39-3.32,27.35,27.35,0,0,0,.39,6.32C324.89,249.94,325.07,250.73,325.19,251.52Z"/><path d="M328.24,227.06a27.1,27.1,0,0,1,2.61-3.67c-1.83,1.75-5.21.19-5.92-2.24a5.87,5.87,0,0,0,0,3A4.4,4.4,0,0,0,328.24,227.06Z"/></g><path class="cls-5" d="M578,483.63s3.17,11.5,0,21.5S578,483.63,578,483.63Z"/><path class="cls-5" d="M591.5,495.36s1.33,14.6-1.67,17.19S591.5,495.36,591.5,495.36Z"/><line class="cls-12" x1="92.89" y1="342.83" x2="194.5" y2="341.83"/><line class="cls-12" x1="92.89" y1="355.3" x2="194.5" y2="354.31"/><line class="cls-12" x1="92.89" y1="367.78" x2="194.5" y2="366.78"/></g></g></svg>