<svg xmlns="http://www.w3.org/2000/svg" viewBox="0 0 727 455.17"><defs><style>.cls-1{fill:#e6e6e6;}.cls-2{fill:#ccc;}.cls-3{fill:#00b0ff;}.cls-4{opacity:0.2;isolation:isolate;}.cls-5{fill:#ffa2a2;}.cls-6{fill:#2f2e41;}.cls-7{fill:#575a89;}.cls-8{fill:#3f3d56;}.cls-9{fill:#fff;}.cls-10{fill:#b3b3b3;}.cls-11{fill:#d0cde1;}.cls-12{fill:#ffcebd;}.cls-13{fill:#896363;}</style></defs><title>selfStudying</title><g id="Layer_2" data-name="Layer 2"><g id="b3df86d2-2022-47c6-a781-bb5144daf06b"><rect class="cls-1" y="83.06" width="305.58" height="9.89"/><rect class="cls-1" x="87.19" y="0.35" width="19.56" height="85.4"/><rect class="cls-2" x="87.19" y="13.84" width="19.56" height="9.89"/><rect class="cls-2" x="87.19" y="56.99" width="19.56" height="9.89"/><rect class="cls-1" x="117.34" y="0.35" width="19.56" height="85.4"/><rect class="cls-1" x="136.9" y="0.35" width="19.56" height="85.4"/><rect class="cls-2" x="117.34" y="15.19" width="19.56" height="9.89"/><rect class="cls-2" x="136.9" y="38.11" width="19.56" height="9.89"/><rect class="cls-2" x="117.34" y="56.99" width="19.56" height="9.89"/><rect class="cls-1" x="158.9" y="0.35" width="19.56" height="85.4"/><rect class="cls-1" x="178.46" y="0.35" width="19.56" height="85.4"/><rect class="cls-2" x="158.9" y="15.19" width="19.56" height="9.89"/><rect class="cls-2" x="178.46" y="38.11" width="19.56" height="9.89"/><rect class="cls-2" x="158.9" y="56.99" width="19.56" height="9.89"/><polygon class="cls-1" points="87.87 9.57 70.34 0 35.99 76.54 53.52 86.11 87.87 9.57"/><polygon class="cls-2" points="82.45 21.66 64.92 12.09 60.94 20.95 78.47 30.52 82.45 21.66"/><polygon class="cls-2" points="65.09 60.33 47.56 50.76 43.59 59.62 61.11 69.19 65.09 60.33"/><rect class="cls-1" y="218.81" width="305.58" height="9.89"/><rect class="cls-1" x="25.26" y="136.1" width="77.41" height="85.4"/><rect class="cls-2" x="40.74" y="153.18" width="46.45" height="51.24"/><rect class="cls-1" x="198.83" y="136.1" width="19.56" height="85.4"/><rect class="cls-2" x="198.83" y="149.59" width="19.56" height="9.89"/><rect class="cls-2" x="198.83" y="192.74" width="19.56" height="9.89"/><rect class="cls-1" x="168.68" y="136.1" width="19.56" height="85.4"/><rect class="cls-2" x="168.68" y="149.59" width="19.56" height="9.89"/><rect class="cls-2" x="168.68" y="192.74" width="19.56" height="9.89"/><polygon class="cls-1" points="252.06 221.86 269.59 212.28 235.24 135.75 217.72 145.32 252.06 221.86"/><polygon class="cls-2" points="227.12 166.27 244.64 156.69 240.67 147.83 223.14 157.41 227.12 166.27"/><polygon class="cls-2" points="244.47 204.94 262 195.37 258.02 186.5 240.49 196.08 244.47 204.94"/><polygon class="cls-1" points="54.19 170.38 64.04 189.2 73.89 208.02 54.19 208.02 34.49 208.02 44.34 189.2 54.19 170.38"/><polygon class="cls-1" points="71.3 173.98 81.15 192.8 91 211.62 71.3 211.62 51.6 211.62 61.45 192.8 71.3 173.98"/><ellipse class="cls-1" cx="78.23" cy="162.17" rx="5.7" ry="6.29"/><ellipse class="cls-1" cx="367.02" cy="426.96" rx="359.98" ry="28.21"/><path class="cls-3" d="M85.79,442.76c58.69-11.53,122.88-9.61,190.21,0-30.69-28.58-57.17-57.16-26.48-85.75-59.86,13.63-68.25,12.25-134.84,0C130.13,385.6,101.23,414.18,85.79,442.76Z"/><path class="cls-4" d="M85.79,442.76c58.69-11.53,122.88-9.61,190.21,0-30.69-28.58-57.17-57.16-26.48-85.75-59.86,13.63-68.25,12.25-134.84,0C130.13,385.6,101.23,414.18,85.79,442.76Z"/><path class="cls-3" d="M100.1,430.56c49.87-9.2,104.39-7.67,161.59,0-26.07-22.81-48.57-45.62-22.5-68.44-50.85,10.88-58,9.78-114.54,0C137.77,384.94,113.22,407.75,100.1,430.56Z"/><polygon class="cls-5" points="239.7 330.5 221.29 333.89 212.09 363.22 238.68 381.27 269.36 330.5 240.72 330.5 239.7 330.5"/><ellipse class="cls-5" cx="187.54" cy="328.25" rx="42.95" ry="47.38"/><path class="cls-6" d="M424.8,155.63S529.11,168,547.52,165.78s26.59-4.51,26.59-4.51,12.27,18,6.14,25.95A45.77,45.77,0,0,1,568,198.5s-11.25-3.38-19.44,0-91,18.05-105.33,4.51S424.8,155.63,424.8,155.63Z"/><path class="cls-6" d="M417.64,407.22S486.16,385.78,498.43,291v-9s13.56,26.24,18.41,31.59c5.63,6.2,25.57,62.05,24.55,67.69s0,7.9,0,7.9L571,385.78V375.63s-15.85-52.46-16.87-64.87S514.8,212,514.8,212s-14.32-32.72-38.87,0-26.58,55.28-26.58,55.28L417.64,335Z"/><path class="cls-6" d="M571,157.89l32.73-12.41s30.68-24.83,23.52,0-39.88,79-49.09,73.33-20.27-19.64-17.8-21.67S579.22,180.45,571,157.89Z"/><path class="cls-6" d="M567.09,369,593.5,383.2s32,5.42,14.14,15.59-67,21-69.43,11.52-1.48-25.23,1.1-24.82S559.72,388,567.09,369Z"/><path class="cls-7" d="M430.94,332.76s13.29,63.18-9.21,76.72-180,15.79-192.26-9-6.13-24.82-6.13-24.82L256.06,335l-26.59-2.25s0-9,9.21-10.16,37.83-12.41,62.38-4.51,38.86-15.79,38.86-15.79Z"/><polygon class="cls-8" points="448.32 135.32 465.71 240.25 346.06 224.45 324.58 129.68 448.32 135.32"/><polygon class="cls-9" points="444.74 139.27 459.06 232.91 350.15 218.81 329.18 133.63 444.74 139.27"/><polygon class="cls-10" points="461.62 241.37 465.71 240.25 467.75 244.76 435.03 345.17 431.95 343.87 430.94 337.27 461.62 241.37"/><polygon class="cls-11" points="465.71 239.12 432.98 344.04 309.24 323.73 346.06 224.45 465.71 239.12"/><polygon class="cls-8" points="449.35 235.73 449.35 241.37 358.33 230.09 359.35 224.45 449.35 235.73"/><polygon class="cls-8" points="447.3 247.01 432.98 291.01 339.92 278.6 356.28 236.86 447.3 247.01"/><path class="cls-12" d="M330.72,309.07l3.06-9s23.53-45.13,35.8-36.1S344,317,344,317H331.74Z"/><path class="cls-12" d="M408.44,315.83l3.07-13.53s8.18-41.75-6.14-39.49S387,304.55,387,304.55l1,9Z"/><path class="cls-7" d="M383.89,310.19s26.59-4.51,27.62,2.26,6.13,108.31-19.43,111.69S239.7,442.19,253,407.22s33.75-30.46,33.75-30.46l86.93,10.15Z"/><polygon class="cls-7" points="303.62 323.17 330.72 302.3 348.61 317.53 326.11 344.6 303.62 323.17"/><polygon class="cls-4" points="376.22 343.48 372.13 386.35 301.57 381.83 362.93 380.71 376.22 343.48"/><polygon class="cls-3" points="429.4 171.99 366 169.55 359.86 143.78 425.31 145.96 429.4 171.99"/><polygon class="cls-1" points="445.77 186.66 349.63 183.27 348.61 178.76 444.74 182.49 445.77 186.66"/><polygon class="cls-1" points="447.81 197.94 351.68 194.55 350.66 190.04 446.79 193.77 447.81 197.94"/><polygon class="cls-1" points="448.83 206.96 352.7 203.58 351.68 199.06 447.81 202.8 448.83 206.96"/><path class="cls-13" d="M185.55,271.51a6.18,6.18,0,0,1,3.55.93c3.42,2.34,2.06,8.31,1.31,12.83a52.58,52.58,0,0,1-3.43,11.8c-1.43,3.41-3.19,7.51-1.06,9.73.81.86,2.1,1.26,2.82,2.19a6.2,6.2,0,0,1,.8,3.6,50.3,50.3,0,0,1-.9,12.8c-1.56,6.54-5.56,13.9-2.84,19.08,2.14,4,7.77,5.14,13.16,5,2.64-.05,5.44-.29,7.68.52s3.87,3,2.84,5.54c-1.52,3.7-7.84,5.75-8.12,9.82-.31,4.47,4.79,3.15,8.46,1,6.41-3.83,12.77-8.46,19.59-9.15,0,1,0,2.65,0,3.64-1.47-.4-3.19,1.47-3.67,3s-.46,3.24-1.63,4.63a7.49,7.49,0,0,1-4.64,2.13,32.9,32.9,0,0,1-10.16.27c-2-.29-4.26-.76-6.38.37a25.5,25.5,0,0,0-2.77,2,12.78,12.78,0,0,1-8.91,2.09c-1.2-.17-2.33-.22-3.4-.33a13,13,0,0,1-4.25-1c-1.95-.91-4.87-1.53-6.65.43-.46.5-.77-.19-1.36.2a1.41,1.41,0,0,1-.32.17,3.19,3.19,0,0,1-2,.07,3.45,3.45,0,0,1-.46-.12,2.54,2.54,0,0,1-.45-.13,15,15,0,0,1-6.45-3.63c-1.07-1-2.11-2.32-3.84-2.41-2-.1-4.2,1.5-6.35,2.12-4.84,1.41-8.25-2.41-8.9-6.52s.32-8.79-1-12.64c-1.8-5.47-7.71-8.17-11-12.71-3.63-5.05-4-12.06-1-19s9.62-13.38,12-20.52c.84-2.53,1.17-5.12,2.59-7.56,1.64-2.82,4.55-5,7.41-7,4.35-3,8.73-4.46,13.34-6.92,3.66-1.95,8.44-4.59,12.66-5.76A14.65,14.65,0,0,1,185.55,271.51Z"/><rect class="cls-2" x="353.93" y="153.84" width="19.56" height="9.89"/><path class="cls-13" d="M234.67,351.93s13.36,6.27,14.43-9a11.41,11.41,0,0,0,4.05-6.78c.77-4.91-2.19-10.7-7.64-12.09a64,64,0,0,1-8.18-6.8c-7.63-7.46-11.57-14.83-12.51-13.9-1.5,1.49,9.39,20,4.55,30.34-1.72,3.69-6.78,9.17-6.78,9.17L193,340.21a56.77,56.77,0,0,0,19.22,10.17A52.25,52.25,0,0,0,234.67,351.93Z"/></g></g></svg>