<svg xmlns="http://www.w3.org/2000/svg" viewBox="0 0 817.13 578.97"><defs><style>.cls-1{fill:#3f3d56;}.cls-2{opacity:0.1;}.cls-11,.cls-2{isolation:isolate;}.cls-3{fill:#00b0ff;}.cls-4{fill:#323444;}.cls-5{fill:#fbb3b2;}.cls-6{fill:#5b5583;}.cls-7{fill:#3c354c;}.cls-8{fill:#896363;}.cls-9{fill:#46455b;}.cls-10{fill:#a8a8a8;}.cls-11{opacity:0.2;}</style></defs><title>teacher_1</title><g id="Layer_2" data-name="Layer 2"><g id="b6c6e6a1-7972-47e7-be8d-743e88a832d8"><path class="cls-1" d="M809.24,0H105.31a7.16,7.16,0,0,0-7.1,7.21V357.79a7.16,7.16,0,0,0,7.1,7.21H809.24a7.16,7.16,0,0,0,7.1-7.21V7.21A7.16,7.16,0,0,0,809.24,0Z"/><path class="cls-2" d="M817.13,339H99v14.79A7.16,7.16,0,0,0,106.1,361H810a7.16,7.16,0,0,0,7.1-7.21V339Z"/><path class="cls-3" d="M744.72,312H696.46a2.48,2.48,0,0,0-2.47,2.5v22a2.48,2.48,0,0,0,2.47,2.5h48.26a2.48,2.48,0,0,0,2.47-2.5v-22A2.48,2.48,0,0,0,744.72,312Z"/><path class="cls-3" d="M677.25,335H644.74a2,2,0,0,0-2,2h0a2,2,0,0,0,2,2h32.51a2,2,0,0,0,2-2h0A2,2,0,0,0,677.25,335Z"/><path class="cls-3" d="M711.58,67.37c-26,4.87-52.52,0-78.41-3.3l-78.68-10c-3.18-.41-7.81-2.34-9.68,1.61-1.06,2.21-.35,7-.42,9.54-.21,7-.19,14,0,21,.35,13.38,1.32,26.73,2.55,40.05,2.39,26.07,5.78,52,7.47,78.17.87,13.32,1.3,26.68.92,40q-.14,4.77-.4,9.53c-.21,3.55-1.78,8.82,2,11.19,2.17,1.36,6.46,1.29,8.95,1.69,3.94.63,7.88,1.13,11.9,1.54,26.49,2.69,53.32,1.57,79.91,1.41l80.29-.42,19.58-.11c1.77,0,8.17,1.08,9.26-1.06.46-.91-.77-5.17-1-6.31q-.46-2.82-1-5.63c-2.29-13.15-5-26.22-7.7-39.28-5.85-28-11.82-56.14-14.23-84.74-1.19-14.35-.4-28.83-1.86-43.15-.68-6.65-1.49-21.49-10.21-22.08-7.38-.5-15,0-22.4,0a1.5,1.5,0,0,1,0-3c7,0,14-.19,21,0,4.65.09,7.88,1.21,10.09,5.55,5.67,11.14,5.09,26,5.26,38.16.43,29.11,4.83,57.6,10.56,86.07,2.89,14.33,6,28.61,8.87,42.95,1.35,6.85,2.64,13.72,3.82,20.61.55,3.28,3.34,10.51.89,13.52s-10,1.39-13.38,1.41l-23.5.14-45,.26c-29.1.17-58.3,1-87.39.13-13.89-.42-28.57-1-42.09-4.37-4-1-6-2.88-6.13-7.24-.24-6.76.85-13.73,1-20.52,1-58.1-12.46-115.39-11.08-173.51.09-3.95-1.38-13.91,2.88-16.3,1.91-1.08,4.39-.49,6.4-.25,3.84.45,7.67,1,11.52,1.46L612,58.36c16,2,31.89,4.16,47.87,6,16.91,2,34,3.19,50.85,0,1.86-.35,2.66,2.54.79,2.89Z"/><path class="cls-3" d="M595.32,107.41c6.6-.34,13.73,2.08,18.07,9.31,3.4,5.65,5.34,15.34,1.74,21.71-3.87,6.82-12.36,5.62-17.49,2.71-5.41-3.1-11.34-9.5-13-17.5-2-10,4.56-17.55,11.42-17.66.88,0,.88,1.86,0,1.86-3.91.06-7.75,2.35-9.57,7.3-1.91,5.23-.27,10.71,2.28,14.89,4.07,6.65,10.45,11.67,16.94,11.53,3.9-.08,8.21-1.9,9.42-7.49a22.74,22.74,0,0,0-1.49-13.51c-3.75-8.69-11.38-11.63-18.38-11.25-.88,0-.88-1.82,0-1.86Z"/><path class="cls-3" d="M538.27,189.19c-11.82-7.34-21.22-18.29-31.66-27.45-11.33-9.93-23.22-19.18-35.47-27.94-23.78-17-48.75-32.21-73.7-47.38a1.51,1.51,0,0,1-.46-2.07,1.47,1.47,0,0,1,1.95-.52c24.95,15.17,49.93,30.35,73.71,47.38,11.22,8,22.18,16.48,32.68,25.48,11.42,9.8,21.6,22,34.47,29.91,1.63,1,.14,3.6-1.48,2.59Z"/><path class="cls-3" d="M359.29,39.84c12.8,1.32,26.59,4.63,34.47,16,6.81,9.78,6.66,26.84.27,36.88-7.26,11.41-22.1,11.82-33.62,8.13S337,90.69,337.06,76.71c.06-7.5,2.73-15.31,5.68-22.11,2.54-5.87,7-11,13.86-10.35,1.88.18,1.9,3.18,0,3-9.14-.86-12.07,10.15-14.24,17.1-2,6.49-3.79,14.17-.7,20.62s10.55,9.74,16.93,12.1c6.89,2.54,14.47,4.09,21.67,2,14.26-4,18.2-22.4,14.09-35.42-4.72-15-21.47-19.41-35.11-20.81-1.88-.19-1.9-3.19,0-3Z"/><path class="cls-3" d="M339.58,155.84c12.81,1.32,26.6,4.63,34.48,16,6.81,9.78,6.66,26.84.27,36.88-7.26,11.41-22.1,11.82-33.62,8.13s-23.46-10.16-23.35-24.14c.06-7.5,2.73-15.31,5.67-22.11,2.55-5.87,7.05-11,13.86-10.35,1.89.18,1.91,3.18,0,3-9.13-.86-12.06,10.15-14.23,17.1-2,6.49-3.79,14.17-.7,20.62s10.55,9.74,16.92,12.1c6.9,2.54,14.47,4.09,21.68,2,14.26-4,18.2-22.4,14.09-35.42-4.73-15-21.47-19.41-35.12-20.81-1.87-.19-1.89-3.19,0-3Z"/><path class="cls-3" d="M378.6,69.05l-9.33,10.8a1.47,1.47,0,0,1-2.1,0,1.53,1.53,0,0,1-.36-.63c-2-5.26-1.59-10.71-2.06-16.24a54.14,54.14,0,0,0-4.18-16.57,55.7,55.7,0,0,0-22.05-25.65c-1.63-1-.14-3.6,1.49-2.59a58.79,58.79,0,0,1,27.22,40.73c1,6.49.08,13.29,2.45,19.52l-2.47-.67,9.28-10.78c1.26-1.45,3.33.68,2.08,2.12Z"/><path class="cls-3" d="M533.51,200.88q-76.22-2.35-152.47-1a1.5,1.5,0,0,1,0-3q76.23-1.38,152.47,1C535.41,197.94,535.42,200.94,533.51,200.88Z"/><path class="cls-3" d="M370.42,171.3a303.46,303.46,0,0,0-49.92,25.46c-1.61,1-3.1-1.57-1.49-2.59a307.38,307.38,0,0,1,50.58-25.76c1.76-.71,2.53,2.19.78,2.89Z"/><path class="cls-3" d="M338.87,157.71a123.53,123.53,0,0,1,29,74.53c.07,1.93-2.88,1.93-3,0a120.2,120.2,0,0,0-28.1-72.41c-1.24-1.46.84-3.59,2.08-2.12Z"/><g id="b30eccf6-7cfe-48df-9caa-415a128bd568"><path class="cls-4" d="M288,557.49c2.49,1.58,5.32,2.47,7.88,3.86s5.06,3.48,5.79,6.36a4.1,4.1,0,0,1-.13,2.72,5.22,5.22,0,0,1-2.76,2.22,41.28,41.28,0,0,1-33.11.38,43.94,43.94,0,0,0-5.71-2.3,36.75,36.75,0,0,0-7.32-.76,55.36,55.36,0,0,1-7.7-1,6.64,6.64,0,0,1-3.48-1.47,6.57,6.57,0,0,1-1.57-3.82,31.83,31.83,0,0,1,4.93-22.28,7.39,7.39,0,0,1,2.14-2.31,8.2,8.2,0,0,1,3.42-.93c4.93-.61,10.09-1.73,15.06-1.85,3.57-.08,5.36,1.64,7.89,4.13C278.55,545.73,281.59,553.42,288,557.49Z"/><path class="cls-4" d="M215.42,556.75c0,4.9-.58,10.09-3.51,14a18.13,18.13,0,0,1-4.78,4.25c-6.19,4-14.39,5.47-20.91,2.08a6.28,6.28,0,0,1-2.6-2.22c-1-1.74-.46-3.91.09-5.83l9.44-33.2c6.1.95,15.06,1.62,20.48,4.76C217.56,542.86,215.42,552.37,215.42,556.75Z"/><path class="cls-5" d="M293.55,352.32c.57,1.83,2.64,2.68,3.77,4.22,1.33,1.81,1.19,4.32.71,6.52a17.34,17.34,0,0,1-4.32,8.65,10.12,10.12,0,0,1-8.87,3.06,7.46,7.46,0,0,1-6-6.73,12.87,12.87,0,0,1,.93-4.33L286.47,344a.73.73,0,0,1,1.21-.54c1.58.76,4.77,1.56,5.69,3.23S292.88,350.51,293.55,352.32Z"/><path class="cls-4" d="M296.69,351.33c-2.45-.39-4.6-1.85-6.89-2.81s-5.18-1.33-7.11.27c-.55.46-1.08,1.09-1.8,1.08a72.94,72.94,0,0,1,4.41-14.24,1.14,1.14,0,0,1,.39-.55,1.11,1.11,0,0,1,.84,0l6.63,1.76c2.45.65,2.73.45,2.55,2.9C295.66,340.83,295.11,351.33,296.69,351.33Z"/><path class="cls-6" d="M297.42,208.93c1,1.54,1,3.46,1,5.27,0,8.85-.09,17.75-1.38,26.51-.31,2.1-.69,4.2-.89,6.32a75,75,0,0,0-.14,8.87l1,38.5c.12,4.71.35,9.77,3.22,13.47a6.47,6.47,0,0,1,1.15,4.27c-.75,9.66-2.32,19.24-3.89,28.79a17.29,17.29,0,0,0-15.9.77,180.2,180.2,0,0,1-8.17-49c-.22-8.19.12-16.43-1.12-24.52-2.08-13.62-1.23-27.59.3-41.29.48-4.34,1.5-8.81,4.24-12.17a18.15,18.15,0,0,1,9.85-5.76C290.32,208,293.58,209,297.42,208.93Z"/><path class="cls-2" d="M297.42,208.93c1,1.54,1,3.46,1,5.27,0,8.85-.09,17.75-1.38,26.51-.31,2.1-.69,4.2-.89,6.32a75,75,0,0,0-.14,8.87l1,38.5c.12,4.71.35,9.77,3.22,13.47a6.47,6.47,0,0,1,1.15,4.27c-.75,9.66-2.32,19.24-3.89,28.79a17.29,17.29,0,0,0-15.9.77,180.2,180.2,0,0,1-8.17-49c-.22-8.19.12-16.43-1.12-24.52-2.08-13.62-1.23-27.59.3-41.29.48-4.34,1.5-8.81,4.24-12.17a18.15,18.15,0,0,1,9.85-5.76C290.32,208,293.58,209,297.42,208.93Z"/><path class="cls-7" d="M285.38,320.58A179.08,179.08,0,0,1,275,422.82a28.24,28.24,0,0,0-2.4,7.56c-.55,4.9,1.68,9.61,2.95,14.35,3,10.78,1.25,22.26-.64,33.29q-1.19,6.9-2.43,13.79c-.82,4.48-1.61,9.35.44,13.41-1.76,7.46-2.81,14.85-4.57,22.31a4.35,4.35,0,0,0-.17,1.83,5.34,5.34,0,0,0,1.81,2.45,11.06,11.06,0,0,1,2.74,10.47c-4.5-3.28-10.77-2.13-15.91,0s-10.21,5-15.77,5c.81-6.62,1.59-13.57-.81-19.78-1.4-3.6-3.87-7-3.8-10.85.07-3.45,2.15-6.53,2.65-9.94a25.55,25.55,0,0,0-.23-6.36c-1.32-12.24.17-24.6,1.67-36.82a22.17,22.17,0,0,1,1.66-7c.7-1.44,1.74-2.82,1.72-4.43,0-1.87-1.49-3.39-2-5.17-1-3.28.83-7.74-1.9-9.77-7.19-5.36-4.43-18.16-4.28-27.21q.19-11.71,1-23.4a101,101,0,0,0-5.44,40.34c.32,4.48.9,9.19-.83,13.33-1.32,3.18-3.94,5.8-4.65,9.17-.44,2.08-.12,4.23-.22,6.35s-.81,4.43-2.61,5.5c-.14,9.64-1,19.95-1.14,29.59a73.91,73.91,0,0,1-1.18,14.7,19.43,19.43,0,0,0-.73,4.74,20.29,20.29,0,0,0,1.56,5.83A33.82,33.82,0,0,1,216.53,547c-2.32-4.19-7.17-6.41-11.9-6.76s-9.39.86-14,2.08a28.19,28.19,0,0,0-3.27-16.9,14.1,14.1,0,0,1-1.73-3.76c-.53-2.54.71-5.07,1.38-7.58,1.09-4,.71-8.31.45-12.49a200.65,200.65,0,0,1,1.83-41.92,36,36,0,0,1,1.88-8c.35-.92.79-1.8,1.08-2.73a21.67,21.67,0,0,0,.79-5.12l1.13-16c.8-11.21-2.82-22.28-5.36-33.22-1.13-4.9-2.36-9.79-3.12-14.77-1-6.78-1.2-13.71-2.72-20.4-1.36-6-3.81-11.85-4.32-18-.79-9.53,3.11-18.74,6.89-27.48,1.58-3.6,7.54-3.24,11.37-3.88,27.18-4.53,55.81-4.56,81.44,5.65A20.15,20.15,0,0,1,285.38,320.58Z"/><path class="cls-5" d="M265.79,143.09l-3,11.9a32,32,0,0,0-1.35,8.41,6.13,6.13,0,0,0,.66,3,7,7,0,0,0,1.87,1.94c2.06,1.59,3.48,5.3,5.84,6.4-1.21,2.14-2.89.75-5.07,1.82-3.86,1.9-7.38,4.63-11.56,5.57-3.94.88-8.08.05-12-1-5.54-1.53-11.06-3.64-15.52-7.33s-7-7-7-12.78c4.93.59,9.31-4.46,11.49-9a24.87,24.87,0,0,0,1.65-5.39l2.64-11.79c2.88.64,5.22,2.73,8,3.82s6,1.19,9.06,1.33a96.06,96.06,0,0,1,16.11,2.12c.73.15,1.65.62,1.47,1.34"/><path class="cls-2" d="M265.79,143.09l-3,11.9a32,32,0,0,0-1.35,8.41,6.13,6.13,0,0,0,.66,3,7,7,0,0,0,1.87,1.94c2.06,1.59,3.48,5.3,5.84,6.4-1.21,2.14-2.89.75-5.07,1.82-3.86,1.9-7.38,4.63-11.56,5.57-3.94.88-8.08.05-12-1-5.54-1.53-11.06-3.64-15.52-7.33s-7-7-7-12.78c4.93.59,9.31-4.46,11.49-9a24.87,24.87,0,0,0,1.65-5.39l2.64-11.79c2.88.64,5.22,2.73,8,3.82s6,1.19,9.06,1.33a96.06,96.06,0,0,1,16.11,2.12c.73.15,1.65.62,1.47,1.34"/><ellipse class="cls-5" cx="252.85" cy="123.17" rx="26.09" ry="26.48"/><path class="cls-4" d="M245.66,166.82a23.82,23.82,0,0,0-5.91-8c-3.67-3.27-8.7-5.92-9.56-10.8l-8,9.41a4.47,4.47,0,0,0-1,1.54,3.93,3.93,0,0,0,.75,3.11c2,3.19,5.08,5.47,8,7.78a244.84,244.84,0,0,1,19.3,17.28,2,2,0,0,0,1,.64,1.89,1.89,0,0,0,1.08-.31,45.1,45.1,0,0,0,13.76-11.36c.28-.35.64-.75,1.1-.72a1.4,1.4,0,0,1,.74.39c2.65,2.2,5.55,4.83,8.95,4.49-4.41-3.21-6.9-8.57-7.83-14A26.83,26.83,0,0,0,267,160.8a5.65,5.65,0,0,0-3.84-3.7c2.15,3.33.68,8.05-2.21,10.74a21.55,21.55,0,0,1-9.77,4.81C247.84,173.29,246.86,169.44,245.66,166.82Z"/><path class="cls-4" d="M279.6,323.3c-3.71.93-7.23,2.51-10.84,3.68a51,51,0,0,1-20.34,2.17,10.9,10.9,0,0,1-5.91-1.91c-.46-.38-.88-.83-1.38-1.18a9.37,9.37,0,0,0-2.65-1.11c-9-2.87-16.6-9.06-23.94-15.12-.23-.2-.5-.45-.48-.77a1,1,0,0,1,.3-.57l3.86-4.5c10.13,1.75,20.5,1.09,30.77.83a43.15,43.15,0,0,1,6.33.17c2,.24,4,.76,6,1.2,7.59,1.68,15.35,2.32,23,3.42a3.48,3.48,0,0,1,1.53.48,3.4,3.4,0,0,1,.81.92l2.7,3.85a12.19,12.19,0,0,1,2.27,4.41c.63,3-.69,4-3.2,3.61A23.06,23.06,0,0,0,279.6,323.3Z"/><path class="cls-6" d="M249.41,182.56a48,48,0,0,1,10.15-8.05,14.32,14.32,0,0,1,4.93-2,6,6,0,0,1,5,1.26c.88.79,1.43,1.89,2.28,2.72a11.26,11.26,0,0,0,3.6,2.07,63,63,0,0,1,12.67,7.33,29,29,0,0,1,5.75,5.38c4.46,5.8,5.13,13.69,5,21-.09,5.12-4.93,8.92-8.26,12.75a94.89,94.89,0,0,0-8.45,12c-1.79,2.88-3.66,6-3.44,9.43.19,2.81,1.81,5.45,1.55,8.25-.09,1-.4,1.92-.49,2.89-.18,2,.6,4,.8,6,.26,2.83-.64,5.64-.69,8.49a26.92,26.92,0,0,0,.73,5.79c1.89,9.14,4.26,18.33,3.78,27.66l5.46,1a4.73,4.73,0,0,0-.07,6.62,4.87,4.87,0,0,0,1.12.85c-8.52,2.89-17.73,1.43-26.77,1.42-7.47,0-14.92,1-22.39.86s-15.17-1.51-21.32-5.8c-1.68-1.16-3.22-2.52-5-3.53a24.29,24.29,0,0,0-7.53-2.5,74,74,0,0,0-14.78-1.34c-2.42,0-5.06.1-7-1.38-2.12-1.64-2.66-4.61-3-7.3q-.43-4.26-.51-8.54a36.87,36.87,0,0,1,.34-6.64,45.2,45.2,0,0,1,1.15-4.76l3.72-13.28c1.54-5.48-.6-11.49-1.06-17.17-.1-1.34-.12-2.9.89-3.76.37-.31.87-.52,1-1a1.75,1.75,0,0,0-.24-1.34c-2-4-4.93-7.53-7.63-11.14a227.08,227.08,0,0,1-12.6-19.67,63.76,63.76,0,0,1,16.68-37.88,18.08,18.08,0,0,1,7-5.23,20.14,20.14,0,0,1,5.55-.91c7.73-.53,15.77-1,22.49-4.94a4.19,4.19,0,0,1,1.61-.69c1.49-.17,2.57,1.32,3.54,2.5,2.48,3,6.13,4.72,9.34,6.93C240.4,171.09,245.08,176.77,249.41,182.56Z"/><path class="cls-6" d="M167.54,211.27c-1.54,4.94-1.39,10.22-1.9,15.37a59.74,59.74,0,0,1-1.6,9.21,14.92,14.92,0,0,1-1.87,4.69c-.89,1.32-2.16,2.39-2.72,3.88a9.4,9.4,0,0,0-.41,3.12l-.11,6.9a25,25,0,0,0,1.6,10.74l4.25,13.11c2.29,7.1,4.65,14.31,8.78,20.49a5.85,5.85,0,0,0,2.54,2.41,12.2,12.2,0,0,0,2.55.4,6.63,6.63,0,0,1,5.41,6.47,15,15,0,0,1,3.63-3.77l8.64-7c3-2.44,6-4.92,9.62-6.33a26.39,26.39,0,0,1-18.14-22.26,10,10,0,0,0-1-4.38c-.71-1.18-2-2.08-2.14-3.47-.12-1.75,1.83-3.07,1.83-4.82,0-1.16-.85-2.12-1.22-3.21a8.18,8.18,0,0,1,0-4.11l1.19-6.72a5.17,5.17,0,0,1,.59-1.92,12.3,12.3,0,0,1,1.48-1.58c2-2.33,1.14-6,0-8.87a85.57,85.57,0,0,0-10.07-17.93,61.28,61.28,0,0,1-4-5.82c-1-1.84-1.28-4.39-2.38-6C170.67,203.65,168.75,207.38,167.54,211.27Z"/><path class="cls-4" d="M206.26,291.37a4.74,4.74,0,0,1,1.12,1.2,9.94,9.94,0,0,0,4.47,3.23c-1,.72-1.89,1.43-2.81,2.16a123.7,123.7,0,0,0-18.72,18.17c-.62-2.25-4.33-2.09-5.24-4.24a4.32,4.32,0,0,1-.2-1.92,60.22,60.22,0,0,1,1.42-10,11.43,11.43,0,0,1,2-4.68c1.38-1.69,3.53-2.5,5.58-3.2C197,291,203.11,289.44,206.26,291.37Z"/><path class="cls-5" d="M218.57,299.23c3,2.22,5.55,5,8.87,6.52,2.34,1.08,5,1.55,7.06,3.16-1.11,2.49-4,3.78-6.7,3.68a15.77,15.77,0,0,1-7.49-2.79c-1.77-1.1-3.83-2.38-5.76-1.61-.29,1.52,1,2.95,1,4.49s-1.26,2.66-2.5,3.47c-5.91,3.87-13.52,3.55-20.56,3.1a1.39,1.39,0,0,1-1.56-1.66c-.09-1.58-.13-3.15-.14-4.73a6.83,6.83,0,0,1,2.86-6.68A80.27,80.27,0,0,1,206,297.33C210.29,294.78,214.68,296.29,218.57,299.23Z"/><path class="cls-7" d="M243.68,112.1c4.38.53,7.56,4,7.12,7.77s-4.35,6.37-8.72,5.83-7.56-4-7.11-7.76S239.31,111.57,243.68,112.1Zm-1.48,12.56c3.7.45,7-1.76,7.38-4.94s-2.32-6.12-6-6.57-7,1.76-7.39,4.94,2.32,6.12,6,6.57Z"/><path class="cls-7" d="M265,114.7c4.38.53,7.56,4,7.11,7.76s-4.34,6.37-8.71,5.84-7.56-4-7.12-7.77S260.63,114.17,265,114.7Zm-1.49,12.55c3.71.45,7-1.76,7.38-4.93s-2.31-6.12-6-6.58-7,1.76-7.37,4.94,2.32,6.12,6,6.57Z"/><polygon class="cls-7" points="280.83 116.63 271.33 118.69 272.26 121.23 281.23 118.56 280.83 116.63"/><polygon class="cls-7" points="227.84 110.17 236.61 114.46 235.1 116.7 227.02 111.95 227.84 110.17"/><polygon class="cls-7" points="257.16 118.05 250.49 117.24 250.84 118.92 256.56 119.31 257.16 118.05"/><path class="cls-8" d="M270.09,115.78a11,11,0,0,1-1-4.37,9.63,9.63,0,0,0-.45-2.66,7.46,7.46,0,0,0-2.15-2.79c-3.07-2.64-7.48-4-11.82-4.19a27,27,0,0,0-13.68,3,10.48,10.48,0,0,0-3.39,2.56c-1.38,1.71-1.68,3.92-3.07,5.61a8,8,0,0,1-7.54,2.4c-.49-1.74.14-3.58-.1-5.36a25.73,25.73,0,0,0-1.57-4.44c-1.53-4.57.7-9.87,5.29-12.6,1.61-1,3.51-1.65,4.71-3s1.49-2.75,2.32-4.1c2.19-3.57,7.88-5.24,12.2-3.59,1.36.52,2.56,1.31,3.94,1.87,2.56,1.07,5.48,1.26,8.3,1.62a25,25,0,0,1,8,2.14c2.44,1.22,4.48,3.18,5,5.52.26,1.08.2,2.2.47,3.27,1.36,5.43,10.14,8.07,10.63,13.61.18,2-.9,3.92-2.24,5.55-.92,1.11-3.14,4.08-4.71,4.51s-2.75-1.08-4.25-1.6C272.7,118,271.28,117.83,270.09,115.78Z"/></g><path class="cls-9" d="M159,468c0,50.24-31,90.9-69.42,90.9"/><path class="cls-3" d="M89.55,558.9c0-50.81-34.66-91.92-77.48-91.92"/><path class="cls-3" d="M133.81,472.55c0,47.73-19.8,86.35-44.26,86.35"/><path class="cls-9" d="M89.55,558.9C89.55,494,49.49,441.44,0,441.44"/><path class="cls-10" d="M104.14,559.54s-9.85-.31-12.8-2.45-15.14-4.71-15.88-1.27S60.68,572.93,71.78,573s25.83-1.76,28.79-3.59S104.14,559.54,104.14,559.54Z"/><path class="cls-11" d="M71.58,571.82c11.11.09,25.82-1.76,28.78-3.59,2.26-1.39,3.15-6.4,3.46-8.7h.32s-.62,8.06-3.58,9.89S82.89,573.1,71.77,573c-3.21,0-4.31-1.19-4.25-2.9C68,571.15,69.13,571.8,71.58,571.82Z"/><path class="cls-3" d="M675.57,114.54c8.39.7,17.44,2.45,22.6,8.49,4.47,5.19,4.37,14.25.18,19.57-4.76,6.06-14.49,6.28-22.05,4.32s-15.38-5.39-15.31-12.81c0-4,1.79-8.13,3.72-11.74,1.67-3.11,4.62-5.84,9.09-5.49,1.24.09,1.25,1.69,0,1.59-6-.46-7.91,5.39-9.33,9.08-1.29,3.44-2.49,7.52-.46,10.94s6.92,5.17,11.1,6.42c4.52,1.35,9.49,2.17,14.21,1.06,9.35-2.14,11.94-11.88,9.24-18.8-3.1-8-14.08-10.3-23-11-1.22-.1-1.24-1.69,0-1.59Z"/><path class="cls-3" d="M702,196.38c7.41.91,15.39,3.21,20,11.08,3.94,6.78,3.86,18.6.16,25.55-4.2,7.91-12.79,8.19-19.46,5.63s-13.57-7-13.51-16.72c0-5.19,1.58-10.61,3.28-15.32,1.47-4.06,4.08-7.62,8-7.17,1.09.13,1.11,2.21,0,2.08-5.28-.59-7,7-8.23,11.85-1.14,4.49-2.2,9.81-.41,14.28s6.11,6.75,9.8,8.39c4,1.75,8.37,2.83,12.54,1.38,8.25-2.81,10.53-15.52,8.16-24.54-2.74-10.39-12.43-13.44-20.33-14.41-1.08-.13-1.09-2.21,0-2.08Z"/><path class="cls-3" d="M606.35,194c8.4.7,17.44,2.45,22.61,8.49,4.46,5.19,4.37,14.25.17,19.57-4.76,6.06-14.49,6.28-22,4.32s-15.38-5.39-15.31-12.81c0-4,1.79-8.13,3.72-11.74,1.66-3.11,4.62-5.84,9.09-5.49,1.23.09,1.24,1.69,0,1.59-6-.46-7.92,5.39-9.34,9.08-1.29,3.44-2.48,7.52-.46,10.94s6.92,5.17,11.1,6.42c4.52,1.35,9.49,2.17,14.21,1.06,9.36-2.14,11.94-11.88,9.25-18.8-3.1-8-14.09-10.3-23-11-1.23-.1-1.24-1.69,0-1.59Z"/><path class="cls-8" d="M270.55,156s.76,10.86-10.19,12.39c0,0-12.94,13.49-26-2a22.64,22.64,0,0,1-5.21-22.83c4.28-14.18,1.38-18,1.38-18s3.47,8.43,3.34,14.19,11,10.43,17.06,6.46,16.86.25,16.86.25l5.14-19.71s.22,12.63,1.7,13.08S272.77,156.63,270.55,156Z"/></g></g></svg>