<?xml version="1.0" encoding="utf-8"?>
<!-- Generator: Adobe Illustrator 24.2.3, SVG Export Plug-In . SVG Version: 6.00 Build 0)  -->
<svg version="1.1" id="Layer_1" xmlns="http://www.w3.org/2000/svg" xmlns:xlink="http://www.w3.org/1999/xlink" x="0px" y="0px"
	 viewBox="0 0 1324.6 3259" style="enable-background:new 0 0 1324.6 3259;" xml:space="preserve">
<style type="text/css">
	.st0{fill:#E5A48C;}
	.st1{fill:#836049;}
	.st2{fill:#B57D6C;}
	.st3{fill:#C47D6C;}
	.st4{fill:#E8AE9C;}
	.st5{fill:#896D5A;}
	.st6{fill:#886B58;}
	.st7{fill:#A37463;}
	.st8{fill:#614C35;}
	.st9{fill:none;}
</style>
<g id="eyelash">
	<path class="st0" d="M458.8,239.5L458.8,239.5l-2,1.1c-1.7-3.9-1.4-8.3,0.9-11.9c5.5-9.3,14.8-11.6,28-11.1
		c5.3,3.2,7.9,6.1,7.7,8.8C492.9,231.9,481.3,236.2,458.8,239.5z"/>
	<path class="st1" d="M505.2,239.1c-0.2,1-1.5,1.6-12.3,4.6c-2.6,0.7-3.9,1.1-4.1,1.1c-12.9,2.8-22.1-3.9-31.1-1.8
		c-0.3,0.1-0.9,0.2-1,0c-0.2-0.4,1.3-1.6,3.8-3.4h0.1l6.2-3.6l9.7,3l23.2-5.3C505,236.7,505.4,238.3,505.2,239.1z"/>
	<path class="st2" d="M476.7,229.2c-1.8,2.4-4.3,4.2-7.1,5.1c-0.9,0.3-1.9,0.5-2.9,0.7L476.7,229.2z"/>
	<path class="st3" d="M358.5,223.2c4.9-1.8,9.3-1.7,13,2.6c1.3,1.6,3.3,2.2,5.1,3c5.3,2.5,6.5,5.9,4.2,11.6
		c-0.5-0.2-0.9-0.5-1.2-0.9c-2-2.4-4.5-1.7-6.8-0.9c-5.8,2.1-11.9,2.3-17.9,3.1c-4-0.5-8.3,1.1-12.1-1.4c-0.3-0.8,0-1.7,0.7-2.1
		c1.3-0.8,2.7-1.3,4.1-1.6C354.2,234.6,356.8,229.2,358.5,223.2z"/>
	<path class="st2" d="M456.9,238.6c0-1.4,1.2-2.5,2.6-2.5c0.1,0,0.2,0,0.4,0c10.8,0.2,16.3-6.2,18.5-16.6c6.7,0,12.9,0.5,15.1,9.2
		c0.5,2,3.5,3.4,5.4,5c-10.4,3.9-20.7,8.6-32.2,6.4c-3.2-0.4-6.4,0.6-9.6-0.5C456.8,239.3,456.8,238.9,456.9,238.6z"/>
	<path class="st1" d="M380.6,240.2l0.1,1.1c-4,7.6-11.5,8.4-18.6,8.8c-6.5,0.4-13.2,0.8-19.7-0.9c-1.2-0.3-2.9,0.6-3.5-1.1
		s0.9-2.7,2.1-3.5c0.8-0.6,1.4-1.4,1.6-2.4c3.1-0.8,6.2-0.2,9.1,0.4c3.2,0.8,6.5,0.7,9.6-0.2c4.7-0.2,9.4-0.4,14-1.9
		C377,239.9,378.8,239.3,380.6,240.2z"/>
	<path class="st4" d="M358.5,223.2c0.2,9.1-6,15.3-15.2,15.1C342.9,230.5,349.3,225.2,358.5,223.2z"/>
	<path class="st5" d="M499.6,233.1c-0.1,1-0.2,2.2-1.2,2.6c-8.8,3.1-17.7,6-27.3,3.3c-1.3-0.4-2.5-1-2.6-2.6
		c6,1.9,11.7,0.2,17.4-1.4c4.3-1.2,8.3-3.1,12.9-2.9L499.6,233.1z"/>
	<path class="st6" d="M361.6,242.3c-5.5,3.5-10.7-0.5-16-0.6c-1-0.1-1.9-0.2-2.9-0.4c0-0.3,0-0.7,0-1h13c1.2,0.9,2.5,0.5,3.7,0.4
		S361.7,240.6,361.6,242.3z"/>
	<path class="st7" d="M361.6,242.3c-1.5-2.1-4.5,0.1-6-2c6-0.8,12.1-1.2,17.9-3.4c2.6-1,6-2.3,7.1,2.4
		C374.4,241.3,368.3,243.5,361.6,242.3z"/>
	<path class="st2" d="M471.1,226.8"/>
	<path class="st8" d="M779.4,3076.3c-3.4-5.6-5.2-11.8-0.3-16.9C780.1,3065,780.2,3070.7,779.4,3076.3z"/>
</g>
<rect y="0.1" class="st9" width="1324.6" height="3259"/>
</svg>
