<?xml version="1.0" encoding="utf-8"?>
<!-- Generator: Adobe Illustrator 24.2.3, SVG Export Plug-In . SVG Version: 6.00 Build 0)  -->
<svg version="1.1" id="Layer_1" xmlns="http://www.w3.org/2000/svg" xmlns:xlink="http://www.w3.org/1999/xlink" x="0px" y="0px"
	 viewBox="0 0 1324.6 3259" style="enable-background:new 0 0 1324.6 3259;" xml:space="preserve">
<style type="text/css">
	.st0{fill:#FFFFFF;}
	.st1{fill:#B47E6D;}
	.st2{fill:#8E6A5E;}
	.st3{fill:#805C4D;}
	.st4{fill:#000E17;}
	.st5{fill:#F5FFDE;}
	.st6{fill:none;}
</style>
<g id="eyes">
	
		<ellipse transform="matrix(0.9994 -3.350405e-02 3.350405e-02 0.9994 -7.8257 14.1221)" class="st0" cx="417.5" cy="240.6" rx="97.6" ry="54.5"/>
	
		<ellipse transform="matrix(0.9998 -2.233835e-02 2.233835e-02 0.9998 -5.1744 8.1034)" class="st1" cx="360.1" cy="235.7" rx="13.2" ry="18.4"/>
	
		<ellipse transform="matrix(0.9998 -2.233835e-02 2.233835e-02 0.9998 -5.1853 8.1037)" class="st2" cx="360.1" cy="236.1" rx="12.4" ry="17.3"/>
	
		<ellipse transform="matrix(0.9998 -2.233835e-02 2.233835e-02 0.9998 -5.1752 8.0779)" class="st3" cx="359" cy="235.7" rx="6.9" ry="9.6"/>
	
		<ellipse transform="matrix(0.9998 -2.233835e-02 2.233835e-02 0.9998 -5.1752 8.0779)" class="st4" cx="359" cy="235.7" rx="2.5" ry="3.5"/>
	
		<ellipse transform="matrix(0.3011 -0.9536 0.9536 0.3011 23.7062 493.1853)" class="st5" cx="348.3" cy="230.4" rx="5.1" ry="2.1"/>
	
		<ellipse transform="matrix(0.9997 -2.338528e-02 2.338528e-02 0.9997 -5.227 11.1858)" class="st1" cx="475.6" cy="229.1" rx="15.2" ry="19.1"/>
	
		<ellipse transform="matrix(0.9997 -2.338528e-02 2.338528e-02 0.9997 -5.239 11.1862)" class="st2" cx="475.7" cy="229.6" rx="14.3" ry="17.9"/>
	
		<ellipse transform="matrix(0.9997 -2.338528e-02 2.338528e-02 0.9997 -5.227 11.1858)" class="st3" cx="475.6" cy="229.1" rx="7.9" ry="9.9"/>
	
		<ellipse transform="matrix(0.9997 -2.338528e-02 2.338528e-02 0.9997 -5.227 11.1858)" class="st4" cx="475.6" cy="229.1" rx="2.9" ry="3.6"/>
	
		<ellipse transform="matrix(0.5342 -0.8454 0.8454 0.5342 30.6413 498.0169)" class="st5" cx="467.2" cy="221.2" rx="5.6" ry="2.8"/>
</g>
<rect class="st6" width="1324.6" height="3259"/>
</svg>
