<svg id="Layer_1" data-name="Layer 1" xmlns="http://www.w3.org/2000/svg" xmlns:xlink="http://www.w3.org/1999/xlink" viewBox="0 0 3844.71 2398"><defs><style>.cls-1,.cls-10{fill:none;}.cls-2{clip-path:url(#clip-path);}.cls-3{fill:#777;}.cls-4{fill:#91e5f9;}.cls-5{fill:#39bae2;}.cls-6{fill:#59a1ad;}.cls-7{fill:#1d7c9b;}.cls-8{fill:#fff;}.cls-9{fill:#c4c4c4;}.cls-10{stroke:#000;stroke-miterlimit:10;opacity:0;}</style><clipPath id="clip-path" transform="translate(2.35 0.5)"><rect class="cls-1" width="3840" height="2397"/></clipPath></defs><g class="cls-2"><g id="skyline2_1" data-name="skyline2 1"><g id="skyline2"><path id="Vector" class="cls-3" d="M824.41,1184.84v-51.45H637.52v51.45h11.57v10.8H637.52v11.62h11.57v9.65H637.52v11.63h11.57v9.65H637.52v11.62h11.57v9.66H637.52v11.62h11.57v9.66H637.52v11.62h11.57V1302H637.52v11.62h11.57v9.65H637.52v11.62h11.57v9.67H637.52v11.61h11.57v9.66H637.52v11.62h11.57v9.66H637.52v11.62h11.57v9.65H637.52V1420h11.57v9.66H637.52v11.62h11.57V1451H637.52v11.61h11.57v9.66H637.52v11.62h11.57v9.66H637.52v11.62h11.57v9.64H637.52v11.63h11.57v9.66H637.52v11.63h11.57v9.65H637.52V1569h11.57v9.66H637.52v11.61h11.57v9.66H637.52v11.63h11.57v9.65H637.52v11.63h11.57v9.66H637.52v11.61h11.57v9.66H637.52v11.62h11.57v17.43H812.82v-17.43h11.59v-11.62H812.82v-9.66h11.59v-11.61H812.82v-9.66h11.59v-11.63H812.82v-9.65h11.59v-11.63H812.82v-9.66h11.59v-11.61H812.82V1569h11.59v-11.62H812.82v-9.65h11.59v-11.63H812.82v-9.66h11.59v-11.63H812.82v-9.64h11.59v-11.62H812.82v-9.66h11.59v-11.62H812.82v-9.66h11.59V1451H812.82v-9.67h11.59v-11.62H812.82V1420h11.59v-11.62H812.82v-9.65h11.59v-11.62H812.82v-9.66h11.59v-11.62H812.82v-9.66h11.59v-11.61H812.82v-9.67h11.59V1323.3H812.82v-9.65h11.59V1302H812.82v-9.66h11.59v-11.62H812.82v-9.66h11.59v-11.62H812.82v-9.66h11.59v-11.62H812.82v-9.65h11.59v-11.63H812.82v-9.65h11.59v-11.62H812.82v-10.8Z" transform="translate(2.35 0.5)"/><path id="Vector_2" data-name="Vector 2" class="cls-3" d="M616.57,1207.26v-73.87H600v-28.22H581v17.42H557.87v10.8H544.63l-111.63,50v23.89h8.26v9.65H433v11.63h8.26v9.65H433v11.62h8.26v9.66H433v11.62h8.26v9.66H433v11.62h8.26V1302H433v11.62h8.26v9.65H433v11.62h8.26v9.67H433v11.61h8.26v9.66H433V1692.8H605v-17.43h11.57v-11.62H605v-9.66h11.57v-11.61H605v-9.66h11.57v-11.63H605v-9.65h11.57v-11.63H605v-9.66h11.57v-11.61H605V1569h11.57v-11.62H605v-9.65h11.57v-11.63H605v-9.66h11.57v-11.63H605v-9.64h11.57v-11.62H605v-9.66h11.57v-11.62H605v-9.66h11.57V1451H605v-9.67h11.57v-11.62H605V1420h11.57v-11.62H605v-9.65h11.57v-11.62H605v-9.66h11.57v-11.62H605v-9.66h11.57v-11.61H605v-9.67h11.57V1323.3H605v-9.65h11.57V1302H605v-9.66h11.57v-11.62H605v-9.66h11.57v-11.62H605v-9.66h11.57v-11.62H605v-9.65h11.57v-11.63H605v-9.65Z" transform="translate(2.35 0.5)"/><path id="Vector_3" data-name="Vector 3" class="cls-3" d="M3329.9,1440.09H3191L3165,1427v274h190.93V1427Z" transform="translate(2.35 0.5)"/><path id="Vector_4" data-name="Vector 4" class="cls-4" d="M3598,984.68v7.5h7.61c-.48,1.76-1,3.55-1.45,5.35h-9.46v7.5h7.46c-24.42,93.35-44.53,223.91-44.53,357.33,0,.26,0,212.62,0,322.53h-39.8c0-.3,0-332.26,0-332.56,0-114.72,20.12-227,44.53-307.23h-7.46v-6.44h9.46c.48-1.55,1-3.09,1.45-4.61h-7.61v-6.45h9.73c20.3-61.2,42.67-99.79,58.63-99.95-6.32,16.24-12.67,35.43-18.83,57H3598Z" transform="translate(2.35 0.5)"/><path id="Vector_5" data-name="Vector 5" class="cls-5" d="M3735.44,1352.33v332.56H3557.6c0-109.91,0-322.26,0-322.53,0-133.42,20.12-264,44.53-357.33h-7.46v-7.5h9.46c.48-1.8,1-3.59,1.45-5.35H3598v-7.5h9.73c6.16-21.61,12.52-40.8,18.83-57h.1c16,0,38.38,38.63,58.73,99.95h9.72V1034h-7.61q.73,2.28,1.46,4.61h9.46v6.44h-7.47C3715.34,1125.36,3735.44,1237.61,3735.44,1352.33Z" transform="translate(2.35 0.5)"/><path id="Vector_6" data-name="Vector 6" class="cls-3" d="M1299.62,1664.66h-1.93v-10h-2.62V1432.82h1.1v-1.26h.42l1.93-5.26h-3.45v-49.5l.93-2.54h.17v-.46l.83-2.25h-1.24V1369h-.69v-2.72l1.8-4.89h1.93v-2.9h-5.49v-5.26h-1.1V1348H1290v-7.25h-2.83v-13.42h2.28v-2.72h1v-2.18h-4.62v-3.09h-3.38v-5.07h1.31v-3.63h-1.38v-3.27h-1.65v-28.1h.76v-2.72h1.1v-1.63h-1.31v-2.54h-1.52V1267h-.22l0-.06-1.64-2.16v-1.35h0a.67.67,0,0,0,0-1.33h0v-.72c0-.44-.22-.8-.5-.8s-.5.36-.5.8v.72h0a.63.63,0,0,0-.6.66.64.64,0,0,0,.6.67h0v1.35l-1.64,2.16.05.06h-1v-1h-1.06v-9.43h.28v-1.81h-.87v-6.44a.61.61,0,0,0,.32-.57c0-.33-.21-.61-.46-.61h-.52a.48.48,0,0,0,.06-.24c0-.26-.16-.49-.37-.49h-.9l-.92-6.53h.62v-1.21h-.63a5.65,5.65,0,0,0-3.05-4.92c.77-.26,1.29-.74,1.29-1.3s-.73-1.21-1.75-1.42v-.39c1-.11,1.66-.39,1.66-.74s-.69-.63-1.66-.73v-3.58a2.77,2.77,0,0,0,1.1-2.33c0-1.43-.88-2.6-2-2.6s-2,1.17-2,2.6a2.75,2.75,0,0,0,1.11,2.33v3.58c-1,.11-1.66.4-1.66.73s.69.63,1.66.74v.39c-1,.2-1.75.76-1.75,1.42s.52,1,1.29,1.3a5.7,5.7,0,0,0-3,4.92h-.63V1240h.62l-.92,6.53h-.9c-.2,0-.37.22-.37.49a.6.6,0,0,0,0,.24h-.51c-.26,0-.46.28-.46.61a.61.61,0,0,0,.32.57v6.44h-.87v1.81h.27v9.43h-1.06v1h-1l0-.06-1.64-2.16v-1.35h0a.64.64,0,0,0,.6-.67.63.63,0,0,0-.6-.66h0v-.72c0-.44-.23-.8-.51-.8s-.5.36-.5.8v.72h0a.63.63,0,0,0-.6.66.64.64,0,0,0,.6.67h0v1.35l-1.64,2.16,0,.06h-.22v5.32h-1.52v2.54h-1.31v1.63h1.1v2.72h.76v28.1h-1.65v3.27h-1.38v3.63h1.31v5.07h-3.38v3.09h-4.62v2.18h1v2.72h2.28v13.42H1241V1348h-2.21v5.26h-1.1v5.26h-1.18v3.75h-3.06v-17.54h-10.78c.36-1.6,0-3.6-.06-5.12s-.35-3.25-.36-4.91c0-1.1.75-2.32,1-3.4a2.59,2.59,0,0,0-.61-2.43,1.57,1.57,0,0,0,.51-1.57,4,4,0,0,0-.87-2.23c-.67-.67-2.69-.67-2.81-2-.15-1.66-.55-2.61-1.39-3.08.34-2-.23-4.14-2-3.75-1.66-.42-2.07,1.37-2,3.54,0,.57-1.68,1.25-2,1.79a3.14,3.14,0,0,0-.4,1.68c-1.54,0-3.58.19-3.45,2.51.11,2.07,1.43,2.51,2.76,2.59a7.67,7.67,0,0,0,.88,3.85l.06.08c0,.26.08.53.13.78.14,2.44.36,4.84.36,6.94a28.18,28.18,0,0,0,0,4.76h-5v4.82l-16-10.89v-14.51h1.73v-2.53h-1.83V1274.8c1.69-.27,2.6-.55,2.6-.84s-1.11-.63-3.14-.92h.45v-13.61h-10.79v-19.79c1.38-.4,2.12-.83,2.12-1.27s-.67-.82-1.9-1.2c-1.53-24.54-14.78-48.49-32.37-55.75v-2.53c.84-.33,1.32-.72,1.32-1.12s-.32-.64-.89-.93v-1.55h-.63v-4.37h-2.36v-2.73h.75v-2.72h-.82v-16.4h.64v-3h-.72a.91.91,0,0,0,.17-.56.89.89,0,0,0-.27-.66.79.79,0,0,0,.07-.32.62.62,0,0,0-.48-.67v-3.22a.27.27,0,1,0-.52,0v3.22a.61.61,0,0,0-.48.67.83.83,0,0,0,.07.32.89.89,0,0,0-.27.66.91.91,0,0,0,.18.56h-1.29v-9.71h.48v-2.19h-.87v-.67h.58v-1.35h-.48v-.51h.62a7.7,7.7,0,0,0-3.54-6.44V1124c.7-.19,1.16-.48,1.16-.8s-.55-.66-1.39-.85a1.58,1.58,0,0,0,.14-.65,1.7,1.7,0,0,0-.24-.85c.38-.18.62-.42.62-.7,0-.47-.71-.86-1.7-1v-2.65c.68-.12,1.16-.38,1.16-.69s-.48-.58-1.16-.7V1115a3.7,3.7,0,0,0,0-6.26V1104a2.39,2.39,0,0,0,1.08-1.47h1.07c.37,0,.67-.41.67-.92s-.3-.91-.67-.91h-1.07a2.41,2.41,0,0,0-1.08-1.48v-1.88c0-.75-.35-1.35-.77-1.35s-.77.6-.77,1.35v1.88a2.4,2.4,0,0,0-1.07,1.48h-1.07c-.37,0-.67.41-.67.91s.31.92.67.92h1.07a2.42,2.42,0,0,0,1.07,1.47v4.72a3.7,3.7,0,0,0,0,6.26v.14c-.68.12-1.16.39-1.16.7s.48.58,1.16.69v2.65c-1,.14-1.7.53-1.7,1,0,.27.23.51.62.7a1.64,1.64,0,0,0-.23.85,1.79,1.79,0,0,0,.13.65c-.84.19-1.38.5-1.38.85s.45.61,1.15.8v1.25a7.68,7.68,0,0,0-3.54,6.44h.62v.51h-.48v1.35h.58v.67h-.87v2.19h.48v9.71h-1.35a.92.92,0,0,0,0-1.28.79.79,0,0,0,.07-.32.6.6,0,0,0-.48-.66v-3.22a.27.27,0,1,0-.52,0v3.22a.62.62,0,0,0-.48.67.76.76,0,0,0,.07.32.84.84,0,0,0-.27.66.89.89,0,0,0,.23.62h-.78v2.95h.64v16.4h-.82v2.72h.75v2.73h-2.36v4.37H1126v1.55c-.57.29-.89.6-.89.93s.48.79,1.32,1.12v2.53c-17.59,7.25-30.83,31.2-32.37,55.75-1.23.38-1.9.79-1.9,1.2s.74.86,2.12,1.27v19.79H1083.5v13.61h.45c-2,.29-3.14.59-3.14.92s.91.57,2.6.84v46.78h-1.83v2.53h1.74v14.51l-16,10.89v-4.82h-5a29.27,29.27,0,0,0,0-4.76c0-2.1.22-4.5.36-6.94q.07-.39.12-.78l.06-.08a7.64,7.64,0,0,0,.88-3.85c1.33-.08,2.65-.53,2.76-2.59.13-2.32-1.9-2.51-3.45-2.51a3,3,0,0,0-.39-1.68c-.33-.54-2-1.22-2-1.79,0-2.17-.35-4-2-3.54-1.76-.4-2.33,1.72-2,3.75-.85.47-1.25,1.43-1.39,3.08-.12,1.37-2.14,1.38-2.81,2a4,4,0,0,0-.87,2.23,1.62,1.62,0,0,0,.51,1.57,2.59,2.59,0,0,0-.62,2.43c.23,1.08,1,2.3,1,3.4,0,1.66-.3,3.27-.36,4.91s-.42,3.52-.06,5.12h-10.78v17.54h-4.68v-3.75h-1.18v-5.26h-1.1V1348h-2.21v-7.25h-2.83v-13.42h2.28v-2.72h1v-2.18h-4.62v-3.09h-3.38v-5.07h1.31v-3.63h-1.38v-3.27h-1.66v-28.1h.76v-2.72h1.11v-1.63h-1.31v-2.54h-1.52v-5.32h-.22l0-.06-1.64-2.16v-1.35h0a.64.64,0,0,0,.6-.67.63.63,0,0,0-.6-.66h0v-.72c0-.44-.23-.8-.5-.8s-.51.36-.51.8v.72h0a.63.63,0,0,0-.6.66.64.64,0,0,0,.6.67h0v1.35l-1.64,2.16.05.06h-1v-1h-1.06v-9.43h.28v-1.81h-.87v-6.44a.61.61,0,0,0,.32-.57c0-.33-.2-.61-.46-.61h-.52a.61.61,0,0,0,.06-.24c0-.26-.17-.49-.37-.49h-.9L1012,1240h.62v-1.21H1012a5.67,5.67,0,0,0-3.05-4.92c.77-.26,1.29-.74,1.29-1.3s-.73-1.21-1.75-1.42v-.39c1-.11,1.65-.39,1.65-.74s-.69-.63-1.65-.73v-3.58a2.77,2.77,0,0,0,1.1-2.33c0-1.43-.88-2.6-2-2.6s-2,1.17-2,2.6a2.77,2.77,0,0,0,1.1,2.33v3.58c-1,.11-1.66.4-1.66.73s.69.63,1.66.74v.39c-1,.2-1.75.76-1.75,1.42s.52,1,1.29,1.3a5.7,5.7,0,0,0-3,4.92h-.63V1240h.62l-.92,6.53h-.9c-.2,0-.37.22-.37.49a.61.61,0,0,0,.06.24h-.52c-.25,0-.46.28-.46.61a.61.61,0,0,0,.32.57v6.44h-.87v1.81h.27v9.43h-1v1h-1l0-.06-1.64-2.16v-1.35h0a.64.64,0,0,0,.6-.67.63.63,0,0,0-.6-.66h0v-.72c0-.44-.22-.8-.5-.8s-.51.36-.51.8v.72h0a.63.63,0,0,0-.6.66.64.64,0,0,0,.6.67h0v1.35l-1.64,2.16,0,.06h-.22v5.32h-1.52v2.54h-1.31v1.63h1.1v2.72h.76v28.1h-1.65v3.27H989.3v3.63h1.31v5.07h-3.38v3.09h-4.62v2.18h1v2.72h2.28v13.42H983.1V1348h-2.21v5.26h-1.1v5.26H974.3v2.9h1.93l1.8,4.89V1369h-.69v2.54H976.1l.83,2.25v.46h.17l.93,2.54v49.5h-3.45l1.93,5.26h.41v1.26H978V1654.7H975.4v10h-5.31v17.4H1303v-17.4h-3.38Zm-304.23-357.3h-1.24v-28.1h1.24Zm25.65,0h-1.24v-28.1H1021Zm14.78,54.42.14-.39h.44Zm52.51-40.18h-1.83v-46.39c.57.06,1.18.11,1.83.16Zm42.94-156.08h-.65v-16.4h.65Zm12.84,0h-.65v-16.4h.65Zm44.11,156.08h-1.83v-46.23l1.83-.16Zm48.49,39.79h.44l.15.39Zm16.6-54h-1.24v-28.1h1.24Zm25.64,0h-1.24v-28.1H1279Z" transform="translate(2.35 0.5)"/><path id="Vector_7" data-name="Vector 7" class="cls-6" d="M3689.17,1446.56l-7.37,23.93c-4.11-10.52-8.37-21-12.71-31.18h20.06c0-2,0-4,0-5.92h-20.35l10.77-32.71c3.27,8.79,6.47,17.7,9.55,26.61q-.06-8.49-.17-16.91-2.16-6-4.42-12.07h4.24c0-2-.06-3.94-.1-5.92h-6.3l5.93-17.12q-.2-7.71-.42-15.38l-8.55,24.73c-3.4-8.82-6.91-17.58-10.42-26.11h18.92c-.06-2-.12-4-.19-5.92h-20.91l11.59-33.14c3.11,8,6.12,15.9,9,23.6-.21-5.75-.44-11.45-.69-17.14-1.05-2.78-2.13-5.58-3.22-8.38h2.85c-.09-2-.18-4-.28-5.92h-4.88v0l4.26-12.17c-.26-4.7-.53-9.37-.8-14l-6.5,18.53c-3.58-9-7.29-18.17-11.09-27.34H3684c-.13-2-.26-4-.38-5.92h-18.88l10.5-28.71c2.68,7.09,5.31,14.15,7.87,21.08q-.66-9.69-1.4-19.25c-1.08-2.86-2.16-5.73-3.26-8.63H3681c-.17-2-.32-4-.49-5.92h-1.21l.87-4q-.75-8.94-1.58-17.74l-3.93,17.83c-3.89-10.18-8-20.71-12.16-31.41h14.79c-.19-2-.4-4-.6-5.92h-13.56l6.68-26.13c1.93,5.27,3.86,10.6,5.84,16q-1.24-11.55-2.58-22.83c-.05-.15-.12-.31-.17-.47h.12q-1.41-11.76-2.9-23.18l-1.71,10.91q-5.2-14.24-10.22-28.14h9.58c-.41-2.9-.82-5.77-1.25-8.63h-8.13l3.92-26.37c.08.21.14.42.22.62q-2.93-18-6.15-34.89c-1.55-4.69-3.06-9.29-4.49-13.78h1.8c-.4-2-.81-4-1.21-5.92H3650l-.4-1.23,1-7.6q-1.68-7.73-3.39-15.16l-1.4,10.57c-2.23-7.31-4.3-14.33-6.17-21h5.12c-.49-2-1-4-1.46-5.92H3638l-.12-.4.39-18.87q-3.06-11.13-6.29-21.47h-2.86l1.26-5.12c-1-3.28-2.11-6.48-3.18-9.61l-1.44,5.86-1.32-6,2.7-.06c-2-6-4.15-11.81-6.28-17.32-11.77,6.55-46.78,38.82-85,196.14-11.95,49.16-48.56,236.41-18,581.67l.56,6.33h158.93q.69-7,1.35-14h-10.13l3.26-8.82h7.65q.27-3,.53-5.92h-6l6.06-16.41c.35,1,.69,2,1,3q1-12.59,1.9-25.44l-2.75,6.85c-3.38-9-7.33-19-11.8-29.65h16c.1-2,.22-3.94.33-5.92h-16.37L3681.4,1568c1.55,4.17,3.06,8.3,4.49,12.37q.33-7,.65-14.06l-1.08-2.87h1.19q.13-3,.24-5.92h-1.41l1.59-4.36q.34-8.7.63-17.46l-6.28,17.17c-3.88-10-8.06-20.3-12.49-30.76h19.17q.09-3,.17-5.93H3669L3681.9,1486q3.45,9.18,6.64,18.26c.1-5,.21-10.1.28-15.2-.92-2.51-1.86-5-2.81-7.52h2.91c0-2,0-3.94.06-5.92h-3.13l3.24-10.47C3689.14,1458.93,3689.17,1452.76,3689.17,1446.56Zm-24.58-17.65c-4.53-10.36-9.22-20.61-13.94-30.6h24Zm-93,206.37-11.86-29.65h23.66C3578.93,1616.36,3575,1626.3,3571.61,1635.28Zm.17,15.55,6.07,16.41H3566.6C3568,1662.3,3569.74,1656.8,3571.78,1650.83ZM3626,1036.21c2.88,9.26,6.08,19.11,9.94,30.53H3616C3619.87,1055.33,3623.08,1045.47,3626,1036.21Zm0-19.14-5.83-26.28h11.66Zm-4.68,176.8c-2.53,5.41-7.33,15.76-13.53,29.7l-11.5-29.92Zm-23.63-6.13c4-10.12,7.74-19.54,11.18-28.12l12.54,28.34Zm-21,123.87c4.29-10.91,8.81-22.07,13.43-33.24l12.91,33.24Zm24.16,5.92c-4.17,9.1-8.32,18.48-12.38,28l-9.81-28Zm-27-13.61-9.59-27.35H3585C3581.2,1285.69,3577.49,1294.86,3573.89,1303.92Zm11.33,48.66h-23.71l-.18-.57c3.83-10.47,8-21.41,12.29-32.57Zm-2.19,5.92c-3.52,8.54-7,17.3-10.42,26.11l-9.05-26.11Zm.1,74.88h-22.41c3.71-10.91,7.63-21.89,11.66-32.71Zm-.3,5.92c-4.35,10.22-8.61,20.68-12.7,31.17l-9.6-31.17Zm.08,76.85h-23.66c3.3-9.79,6.91-19.93,10.76-30.2Zm-8.91-34.67h27c-4.78,10.32-9.41,20.68-13.81,30.83Zm0-5.93c4.15-10.72,8.52-21.53,13.06-32.21l14,32.21Zm3.3-77.25h24c-4.75,10-9.42,20.27-13.94,30.59Zm-1.78-5.92c4.08-10.72,8.34-21.47,12.68-32l13.29,32Zm17.78-33.88h27.95c-2.91,5.46-8.4,15.9-15.38,30.28Zm-1.84-5.92c4.85-11.54,9.79-22.81,14.71-33.55l15.46,33.55Zm3.78-76H3621c-3,5.44-8.06,15.28-14.51,28.9Zm-1.91-5.91c4.65-11.06,9.41-22.18,14.19-33.09l14.25,33.1Zm10.78-41.46h-22.54c3.86-10.12,7.65-19.92,11.31-29.27Zm-1.46,5.93c-4.15,9.46-8.25,19-12.23,28.49L3580,1235.13Zm-15.42,35.53H3566c3.48-9.46,7.06-19.1,10.69-28.71ZM3562,1266l-4.8-30.88h16.34C3569.47,1245.72,3565.61,1256.08,3562,1266Zm8.91,45.58h-19.51c3.09-8.9,6.39-18.18,9.82-27.68Zm-2.31,5.94c-3.47,9-6.82,17.78-10,26.32l-8.88-26.32Zm1,74.85h-22.32c3.48-10.5,7.23-21.33,11.14-32.26Zm-2.17,5.92c-3.68,9.89-7.23,19.78-10.57,29.5l-9.68-29.5Zm-1.33,77.25h-18.74c3-10.08,6.12-20.24,9.41-30.26Zm-.17,5.93c-3.63,9.63-7.1,19.29-10.35,28.79l-8.31-28.79Zm.54,76h-20c2.72-9.69,5.76-19.73,9.05-29.91Zm-7.18-35.4H3583c-4.44,10.5-8.64,20.81-12.49,30.74Zm28,3.83,14.56,31.58h-27.33C3578.41,1547.33,3582.69,1536.74,3587.26,1525.92Zm4.23-3.83h30c-2.71,5.54-8.38,17.26-15.21,32Zm0-5.94c4.51-10.45,9.22-21,14-31.35l15.94,31.35Zm14-44.19-14.24-32.66h30.18C3618.35,1445.24,3612.62,1456.73,3605.43,1472Zm-14.12-38.58c4.66-10.7,9.5-21.34,14.42-31.73l15.73,31.73Zm18.84-35.08h31.63L3626,1430.19Zm0-5.92c7.21-14.88,12.85-25.62,15.8-31.11,2.95,5.49,8.58,16.23,15.79,31.11Zm1.29-74.85h29L3626,1349Zm-1.86-5.92c7-14.93,12.75-26.35,15.94-32.13l.44,1,.44-1c3.2,5.8,9,17.21,15.94,32.13Zm16.38-44.88-13.61-31.6h27.2Zm-14.78-37.53c6.78-15.28,12-26.56,14.78-32.51,2.77,5.93,8,17.2,14.78,32.51Zm1.31-74.65h26.91L3626,1184.9Zm.73-5.92c2.82-7,5.37-13.32,7.51-18.6l.5-1.25c2.21-5.43,3.7-9.11,4.72-11.68,1,2.52,2.41,6,4.4,10.94l.3.72c2.25,5.53,5,12.26,8,19.87ZM3626,1103l-10.68-30.34h21.35Zm-9.57,23.36c-2.07,5.09-4.54,11.2-7.32,18.08l-8.32-30.3h20.57C3620.11,1117.13,3618.41,1121.36,3616.38,1126.36Zm-19.36-5.48,7.63,27.74h-17.72Q3592,1134.6,3597,1120.88Zm-3-48.22h14.29c-3.18,9.3-6.55,18.91-10,28.66Zm11,81.89c-3.57,8.88-7.52,18.79-11.72,29.45l-7.54-29.45Zm-27.76,70.75-6.89-31.15.27-.73,18.9.18C3585.57,1203.66,3581.45,1214.28,3577.24,1225.3Zm-4.62,3.9h-14.71c3-8.68,6.05-17.24,9-25.6ZM3555,1221l-4.07-27.76,13.71.13.06.34Q3560,1207,3555,1221Zm-2,22.33,4.27,27.33h-13.53C3546.57,1262.16,3549.56,1253.32,3553,1243.33Zm5.08,33.24c-3.75,10.29-7.33,20.34-10.69,29.94l-4.34-29.94Zm-2.49,75.37-.22.64h-17.79c2.79-8.66,5.81-17.8,9-27.28Zm-2.35,6.56c-3.31,9.22-6.47,18.35-9.45,27.19l-6.52-27.19Zm-.25,74.88h-18.45c2.72-9.48,5.7-19.28,8.87-29.21Zm0,5.92c-3.29,9.94-6.44,19.93-9.4,29.79l-9-29.79Zm-9.32,49.07,8,27.78h-15.33C3538.56,1507.05,3541,1497.74,3543.63,1488.37Zm8,33.72c-3.07,9.37-6,18.75-8.63,28l-6.73-28Zm14.84,41.32c-3.93,10.5-7.52,20.69-10.71,30.37l-9.29-30.37Zm4.07,4.56,12.93,31.74h-24C3562.74,1589.61,3566.44,1579,3570.52,1568Zm4-4.56h27.4c-5.14,11.25-9.94,22.06-14.29,32.22Zm31.71,3.68,15.05,32.62h-29.49C3596.22,1589.39,3601.08,1578.44,3606.25,1567.09Zm4.31-3.68h30.81l-15.4,33.41Zm30.12,76.47h-29.44c6.21-13.94,11.91-25.83,14.72-31.61C3628.77,1614,3634.45,1625.91,3640.68,1639.88Zm-30-82.39c6.73-14.53,12.31-26.08,15.3-32.18,3,6.1,8.56,17.65,15.3,32.18Zm-.79-76H3642L3626,1513.09Zm-.11-5.93c7.3-15.52,13.13-27.19,16.2-33.21,2.84,5.61,8.79,17.51,16.2,33.21Zm36.44-73.89c4.93,10.42,9.77,21.07,14.4,31.73h-30.13Zm-.13-12.88c-7-14.41-12.48-24.83-15.39-30.28h27.95Zm-15.75-36.2,15.46-33.55c4.94,10.8,9.88,22.06,14.71,33.55Zm15.15-47.11c-6.47-13.63-11.53-23.47-14.52-28.9h25.74Zm-15.28-34.83,14.22-33.06c4.83,11,9.59,22.1,14.17,33.06Zm14-47.06c-6.25-14-11-24.31-13.52-29.67h24.9ZM3630.55,1188l12.55-28.39c3.47,8.64,7.27,18.17,11.28,28.39Zm12.32-43.52c-2.79-6.9-5.26-13-7.34-18.14s-3.72-9.2-4.92-12.18h20.56Zm6.53-39h-18.59l9.29-26.5C3643.2,1088,3646.31,1096.88,3649.4,1105.51Zm-5.77-32.85h14.26l-4.25,28.68C3650.2,1091.68,3646.84,1082.06,3643.63,1072.66Zm-4.38-12.9c-3.71-11-6.64-20.15-9.27-28.68h13.27Zm-26.56,0-4-28.63h13.27C3619.33,1039.54,3616.35,1048.79,3612.69,1059.71Zm-.88,19.34,9.31,26.46h-18.59C3605.59,1096.93,3608.71,1088.06,3611.81,1079.05Zm-15.95-12.31c2.86-8.42,5.73-17.17,8.68-26.59l3.76,26.59Zm-3-8.18-1.6-27.48h10.42C3598.84,1040.45,3595.89,1049.66,3592.91,1058.56Zm-9.15,82.94-3.15-27.35h13.08Q3588.8,1127.67,3583.76,1141.5Zm-1.68,20.37,6.6,25.78-15.92-.14Q3577.47,1174.45,3582.08,1161.87Zm-13.44,21.1-3.39-28.43H3579Q3573.92,1168.45,3568.64,1183Zm-5.25-42.39-3.63-26.43h13.43q-3.54,9.61-7.1,19.16Zm-2.52,22.46,2.91,24.38-11.68-.1C3554.77,1179.8,3557.61,1171.94,3560.87,1163Zm-12,17.3-4.4-25.79h13.79C3554.64,1164.24,3551.6,1172.6,3548.83,1180.34Zm2,48.86h-12.91c2.81-8.77,5.76-17.64,9-27Zm-.72,5.93c-3.3,9.55-6.32,18.38-9.14,26.79l-3.75-26.79Zm-11.18,50.31,3.81,26.17h-12.11C3533.42,1302.65,3536.2,1293.88,3538.93,1285.44Zm4.63,32.09c-3.16,9.2-6.16,18.16-9,26.72l-4.54-26.72Zm-3.68,74.85h-14.35c2.39-8.49,5-17.46,7.93-26.76Zm-.24,5.92c-3,9.2-5.79,18.27-8.38,27.09l-5.74-27.09Zm.24,77.25h-16.17c2.09-9.39,4.53-19.25,7.27-29.42Zm0,5.93c-2.68,9.39-5.17,18.62-7.43,27.56l-8.51-27.56Zm-7.1,49.31,6.43,26.7h-12C3529,1548.43,3530.87,1539.49,3532.83,1530.79Zm6.41,32.62c-2.39,8.83-4.6,17.69-6.61,26.46l-5.35-26.46Zm3.72,7,9,29.31h-16C3538,1590.24,3540.33,1580.41,3543,1570.41Zm9,35.22c-2.9,9.45-5.42,18.47-7.5,26.93l-8.27-26.93Zm-6.7,48.78,3.61,12.83h-5.6C3543.78,1663.19,3544.45,1658.89,3545.26,1654.41Zm10.73-43.56,11.62,29h-19.36C3550.34,1630.75,3553,1621,3556,1610.85Zm31.77-1.52,14.72,30.55h-26.79C3579.11,1630.62,3583.16,1620.36,3587.76,1609.33Zm4.28-3.7h29.13c-2.9,6-8.32,17.31-14.31,30.73Zm14.83,44.23,7.05,17.38h-14.28C3601.79,1661.82,3604.22,1656,3606.87,1649.86Zm4.21-4.06h29.77l-8.68,21.43h-12.4Zm34,4.06c2.66,6.15,5.07,12,7.23,17.38H3638Zm-14.3-44.23h29.14l-14.83,30.73C3639,1622.77,3633.45,1611.19,3630.76,1605.63Zm-.13-5.92,15-32.62c5.19,11.36,10,22.31,14.44,32.62Zm-.17-77.62h30l-14.75,32C3638.82,1539.28,3633.17,1527.6,3630.46,1522.09Zm.08-5.94,15.94-31.35c4.8,10.41,9.51,20.93,14,31.35Zm0-76.85h30.17L3646.5,1472C3639.37,1456.83,3633.59,1445.28,3630.55,1439.3Zm45.88-46.92h-26l13.27-32C3668.1,1371,3672.36,1381.7,3676.43,1392.38Zm-13-46.86c-4.08-9.56-8.23-19-12.38-28h22.18Zm11.8-33.91h-26.34l12.91-33.25C3666.42,1289.48,3670.94,1300.64,3675.25,1311.61Zm-13.71-48c-4-9.47-8.1-19-12.25-28.49H3672Zm8.84-34.41h-22.54l11.23-29.28C3662.72,1209.27,3666.52,1219.09,3670.38,1229.2ZM3658.65,1184c-4.21-10.66-8.15-20.58-11.72-29.46h19.24Zm6.36-35.38h-17.7l7.6-27.74Q3659.86,1134.6,3665,1148.63Zm-17.08-112.32c3.17,9.83,6.57,20,10.13,30.43h-14.4Zm-3.77-11.82-.08.67h-14.42l6.21-28.12C3638.36,1005.67,3641.14,1014.88,3644.16,1024.49ZM3633.28,950l-.3,15.36q-2-8.34-3.41-15.36Zm-7.3,9c1.73,7.74,3.9,16.4,6.48,25.87h-12.34C3622.35,975.83,3624.27,967.3,3626,959Zm-4.93-20.31,1.21,5.43h-3.17Zm1.32,11.35c-1,5.18-2.12,10.53-3.4,16.34l-.35-16.34Zm-.11,75.12h-13.08c2.67-9,5.1-17.5,7.34-26Zm-11.11-84.43c1.26-1.79,2.5-3.48,3.74-5l-1,6.92-.54,1.5h-3.5Zm-2.26,9.31h2.3l-4,11Zm4.61,9.54.54,25.29h-9.68Zm-.38,31.21c-2.21,8.63-4.36,16.63-6.55,24.23l-3.08-24.23Zm-12.22-23.88-2.75,18h-4.29Zm-8.57,23.88h4.13l-4.52,12.49Zm-.91,29.87,7.74-21.44,3.31,25.94h-11.19Zm2.08,84.85h-11.41c2.75-7.53,5.46-15.07,8.07-22.48Zm-14.22-8.11-1.68-24.73h10.48C3585.4,1080.34,3582.51,1088.49,3579.28,1097.4Zm-1.94-30.66-.12-6.79,9-24.83,1.84,31.63h-10.69Zm2.59-62.07c1.9-5,3.72-9.73,5.42-13.88h.36l-6,15.22Zm6.69-1.34-.5,16.09-2.08,5.75h-6Zm-4.72,27.75-5,13.7-.24-13.7Zm-2.7,117.55h-13l4.57-12.35q2.67-7.21,5.35-14.46Zm-4.72-43.12h-13.72l11.55-32Zm-2.92-63.74.3,17.09-2.85,7.89h-7.23Zm-12.1,30.89h7.42l-9,24.85-1.68-16.57Zm-.38,76h-13.92l10.08-27.91Zm-6.82-53.61,1.07,10.5h-3.71C3550.5,1101.93,3551.38,1098.44,3552.26,1095Zm-8,33.37c1.05-5,2.12-9.76,3.18-14.25h4.39l-7.7,21.28Zm-8.14,45.15,4.12-11.44,4.29,25.15-10.42-.09C3534.82,1182.43,3535.49,1177.86,3536.17,1173.54Zm-2.85,19.54,11,.1c-3.34,9.55-6.42,18.64-9.33,27.57l-2.93-18.14C3532.47,1199.35,3532.9,1196.18,3533.32,1193.08Zm-3.61,28.66,1.21,7.46h-2C3529.16,1226.68,3529.43,1224.2,3529.71,1221.74Zm-1.46,13.39h2.13q-1.62,5.22-3.2,10.5Q3527.71,1240.26,3528.25,1235.13Zm4.88,9.36,3.67,26.16h-11.18C3527.89,1262.2,3530.37,1253.57,3533.13,1244.49Zm3,32.08c-2.58,7.89-5.25,16.22-8.07,25.24l-3-25.24Zm-13.45,25.33,1.14,9.7h-1.72C3522.28,1308.25,3522.47,1305,3522.67,1301.9Zm-.92,15.63h1.41c-.58,1.88-1.14,3.75-1.72,5.66C3521.55,1321.28,3521.65,1319.39,3521.75,1317.53Zm-1.55,33.4c.05-1.76.12-3.52.18-5.23q2.86-9.81,5.74-19.4l4.47,26.28h-10.45Zm-.31,8.48,0-.91H3530c-2.71,8.63-5.21,16.88-7.46,24.62l-3-15.77C3519.71,1364.66,3519.8,1362,3519.89,1359.41Zm-1.17,59c.9-3.84,1.91-7.9,3-12.11l5.74,27h-8.82C3518.65,1428.34,3518.69,1423.4,3518.72,1418.46Zm-.06,20.84h8.61c-2.49,9-4.76,17.78-6.78,26.26l-1.76-9C3518.69,1450.69,3518.67,1445,3518.66,1439.3Zm.78,57.35c.42-2.39.89-4.8,1.36-7.24l8.25,26.75H3520Q3519.69,1506.28,3519.44,1496.65Zm.75,25.44h9.13c-2,8.67-4,17.69-5.84,26.89l-2.64-9.29C3520.6,1533.74,3520.39,1527.91,3520.19,1522.09Zm2.72,60.76c.4-2.6.82-5.19,1.25-7.79l5,24.65h-5.25Q3523.38,1591.21,3522.91,1582.85Zm1.36,22.78h4.89c-1.3,6.4-2.5,12.91-3.61,19.48Q3524.88,1615.29,3524.27,1605.63Zm8.78,8.14,8,26.11h-12.43C3529.84,1631.48,3531.29,1622.88,3533.05,1613.77ZM3530,1682c-.17-1.9-.31-3.78-.46-5.66l-.27-3.16h1c.9,3.16,1.77,6.07,2.63,8.82Zm6.86-5.47-1-3.35h1.36Zm1.06-9.28h-3.71c-1.84-6.68-3.65-13.87-5.39-21.43h12.68C3539.88,1653.39,3538.69,1660.58,3537.88,1667.23Zm3.73,14.75,1-8.82h8L3553,1682Zm16.23-2.79-1.71-6h3.3Zm-3.38-12-6-21.43h19.37c-2.79,7.94-5.06,15.13-6.79,21.43Zm8.22,14.75,2.31-8.82H3580l3.26,8.82Zm26-1.06-2.88-7.76h5.71C3590.51,1675.83,3589.56,1678.42,3588.69,1680.92Zm-5.07-13.69-7.92-21.43h27c-3.3,7.62-6.28,14.82-8.88,21.43ZM3594,1682c1-2.76,2.09-5.72,3.29-8.82h19l3.57,8.82Zm32.13,0h-.42l-3.58-8.82h7.59Zm5.87,0,3.57-8.82h19c1.22,3.18,2.31,6.09,3.29,8.82Zm31.21-1.06c-.89-2.49-1.84-5.09-2.84-7.76h5.71Zm5.05-13.69h-10.19c-2.59-6.61-5.58-13.81-8.88-21.43h27Zm7.94-27.35h-26.79l14.72-30.55C3668.77,1620.35,3672.81,1630.59,3676.24,1639.88Zm-11.95-44.24c-4.39-10.22-9.18-21-14.3-32.23h27.41Zm13.15-38.15H3650.1l14.57-31.58C3669.24,1536.76,3673.53,1547.36,3677.44,1557.49Zm-12.69-45.18c-4.42-10.19-9.05-20.54-13.81-30.83h27Zm-13.88-36.76,14-32.22c4.53,10.68,8.92,21.5,13.07,32.22Z" transform="translate(2.35 0.5)"/><path id="Vector_8" data-name="Vector 8" class="cls-7" d="M3717.13,1108c-44.35-182.53-84.39-196.72-88.8-197.74l-1.14-.26-.69.13-.68-.13-1.14.26a14.41,14.41,0,0,0-3.79,1.6q3.2,8.28,6.28,17.32h.12l-.05.2q1.62,4.71,3.18,9.61l.26-1.07,2.22,6.09v.1H3632q3.24,10.33,6.29,21.47l.13-6.36,9.35,25.64h-4.43c.5,2,1,3.93,1.46,5.92h3.84l-1.39,10.38q1.71,7.43,3.39,15.16L3653,999l9.53,26.12h-10c.4,2,.81,3.93,1.21,5.92h9.63l-3.22,24.92q-1.91-5.62-3.71-11.14,3.21,16.92,6.15,34.89c4.06,11.6,7.38,20.75,9.19,25.75h-5.2c.42,2.86.83,5.73,1.25,8.63h5l-2.7,17.22q1.5,11.43,2.9,23.18h13.63l-3.39,28.41q-5.16-14.26-10.19-28,1.34,11.27,2.58,22.83l3.67,10.14h-2.63q.32,3,.6,5.92h4.17l.08.23-3,13.36q.83,8.8,1.58,17.74l4.78-21.63q4.5,12.56,9.06,25.6h-13.5c.17,2,.32,3.94.49,5.92h13.76L3690,1266c-2.67-7.26-5.46-14.7-8.31-22.29q.73,9.57,1.4,19.25c1,2.56,1.9,5.1,2.82,7.64h-2.31q.2,3,.38,5.92h3.62l-3.08,8.81q.4,7,.8,14l5.42-15.51c3.43,9.48,6.73,18.76,9.85,27.71H3686q.15,3,.28,5.92h16l-8.87,26.31q-3.26-8.82-6.75-17.93.39,8.52.69,17.14,1.7,4.53,3.31,9l-.21.58h-2.77c.08,2,.13,3.94.19,5.92h.53l-.48,1.37c.15,5.12.3,10.24.42,15.38l5.24-15.13c3.94,11,7.68,21.79,11.14,32.26h-16c0,2,.08,3.94.1,5.92h16l-9.68,29.5c-2-5.76-4-11.58-6.14-17.43q.12,8.43.17,16.91c.71,2,1.4,4.07,2.09,6.1h-2.07c0,2,0,3.94,0,5.92h2.25l-2.23,7.26q0,9.3-.06,18.52l6.1-19.78c3.29,10,6.44,20.18,9.41,30.25H3689c0,2,0,4-.06,5.92h15.74l-8.29,28.8c-2.4-7-4.93-14.15-7.55-21.28q-.12,7.63-.28,15.2,2.14,6,4.13,12h-4.4c-.05,2-.1,4-.17,5.93h4.56l-5,13.58q-.28,8.77-.63,17.46l9.33-25.55c3.3,10.22,6.34,20.26,9.06,29.91H3686.9c-.08,2-.15,4-.24,5.92h18.81l-9.28,30.38c-2.9-8.82-6.14-18-9.64-27.51q-.33,7.07-.65,14.06,3.53,9.95,6.56,19.37h-7.6c-.12,2-.23,4-.33,5.92h7.66l-9.13,22.79q-.89,12.84-1.9,25.44c1.62,4.8,3,9.27,4.16,13.37h-5.25c-.17,2-.35,4-.53,5.92h7.39l2.32,8.82h-10.5q-.66,7.07-1.35,14h57.11l.56-6.33C3765.69,1344.43,3729.08,1157.17,3717.13,1108ZM3638,942.33l-1.25-8.42c.9,1.07,1.8,2.2,2.71,3.41l2.71,6.79h-3.52Zm2.82,7.71h2.21l1.68,10.68Zm10.2,16.36,7.36,18.47H3654Zm4.65,24.39h4.4l1.6,16.47ZM3734.07,1400c-.15-.58-.31-1.16-.46-1.74h.44C3734.06,1398.88,3734.07,1399.46,3734.07,1400Zm-.12-7.66h-.87l.78-4.21C3733.89,1389.57,3733.93,1391,3734,1392.38Zm-.74-29.88-3.85,20.63c-2.26-7.76-4.76-16-7.47-24.62h11.18Zm-20.53,200.91h12l-5.34,26.47C3717.29,1581.13,3715.07,1572.26,3712.68,1563.41Zm10.61,76.47h-12.43l8-26.13C3720.63,1622.87,3722.09,1631.48,3723.29,1639.88Zm-10.62-82.39,6.43-26.7c2,8.69,3.83,17.64,5.55,26.7Zm-.67-76h15.93l-8.5,27.57C3717.16,1500.1,3714.67,1490.85,3712,1481.48Zm0-5.93,8.91-29.42c2.75,10.16,5.19,20,7.28,29.42Zm8.63-50.14c-2.59-8.82-5.4-17.92-8.38-27.1h14.13Zm-29.35-264.5c2.93,8.5,6,17.64,9.2,27.08h-12.44Zm-10.67-46.77h11.8L3689,1137.8C3685.39,1127.45,3682.45,1119.17,3680.65,1114.14Zm14.19,40.41h12.93l-4.43,24.85C3700.4,1170.69,3697.52,1162.31,3694.84,1154.55Zm10.27,47.25c3.2,9.7,6.17,18.89,8.86,27.4h-12.86Zm9.59,33.33-3.75,26.76c-2.88-8.62-5.88-17.44-9.11-26.76Zm-1.7,50.28c3,9.16,5.73,17.79,8.33,26.19H3709.2Zm8.86,32.12-4.53,26.72c-2.8-8.54-5.8-17.51-9-26.72Zm-3.39,48.09c2.88,9.29,5.53,18.27,7.92,26.76h-14.34Zm14.38-13h-11.5l4.45-26.3c2.44,8,4.72,15.79,6.94,23.49Zm-1.09-25.26q-1.49-4.93-3-9.79h2.45C3731.43,1320.75,3731.59,1324,3731.76,1327.32Zm-1.82-31.2q.53,7.7,1,15.49h-2.79Zm-6.05,5.61c-2.59-8.24-5.3-16.67-8.09-25.16h11Zm-8.75-31.09,3.63-26c3,9.76,5.49,18.47,7.54,26Zm11.2-19.53c-1.49-5-3.12-10.36-4.86-16h3.27C3725.29,1240.37,3725.83,1245.71,3726.34,1251.11Zm-3.32-31.67c.37,3.2.73,6.46,1.09,9.76h-3Zm-2.13-17.23-3.72,19.23c-2.75-8.63-5.75-17.87-9-27.53h11.58C3720.15,1196.62,3720.53,1199.39,3720.89,1202.21Zm-3.88-27.49c.64,4.22,1.3,8.67,1.95,13.27h-11.72l4.79-26.93Zm-8.65-47.84v8.32l-7.68-21h4.81C3706.35,1117.75,3707.32,1122,3708.36,1126.88Zm-5-21.37h-4.87l-.46-20.84C3699.82,1091.39,3701.62,1098.39,3703.38,1105.51Zm4.12,43.12h-14.63l4.16-28.73Zm-14.6-55.82-7.34-20.15h6.89Zm-1.94-26.07h-6.89l-1.46-21Zm-8.17,14.13,9,24.65h-12.26Zm-5.15-29.93-7.24-19.86h5.84Zm-8.81-25.78-1.84-18.69,7.43,18.69Zm-1.13-34.37.32.79,1.57,6.73-3-7.52Zm-2.46-5.92h-.71l-1-4Zm2.42,54.54,10,27.33h-13.5Zm-1.83,33.25h12.67l-3.47,26C3672.78,1092.44,3669.56,1083.45,3665.83,1072.66Zm7,76,4.38-28c2.36,6.67,5.79,16.38,9.81,28Zm14.4,45.28h13.59l-4,27.06Q3692,1207.19,3687.27,1193.91Zm11.66,49.39c3.3,9.6,6.35,18.61,9.26,27.34h-13.5Zm-5.09,33.27h15l-4.34,30C3701.16,1296.86,3697.57,1286.81,3693.84,1276.57Zm2.49,75.37,9-26.66c3.23,9.49,6.26,18.65,9.05,27.3h-17.78Zm2.35,6.56h16l-6.52,27.2C3705.16,1376.83,3702,1367.73,3698.68,1358.5Zm9.84,45.68c3.18,10,6.16,19.78,8.86,29.21H3699ZM3699,1439.3h18.41l-9,29.79C3705.42,1459.24,3702.27,1449.26,3699,1439.3Zm9.32,49.08c2.63,9.4,5.1,18.71,7.33,27.77h-15.33Zm-8,33.71h15.35l-6.71,28C3706.28,1540.86,3703.39,1531.48,3700.31,1522.09Zm8.66,48.32c2.62,10,5,19.82,7.05,29.31h-16Zm6.76,35.22-8.25,26.91c-2.08-8.42-4.6-17.44-7.51-26.91Zm-7.08,61.6h-5.6l3.62-12.84C3707.48,1658.89,3708.15,1663.18,3708.65,1667.23Zm-12.72-56.38c3.06,10.16,5.65,19.9,7.74,29h-19.36Zm-1.85,68.34-1.58-6h3.29Zm-3.17-12c-1.72-6.3-4-13.49-6.79-21.43h19.37l-6,21.43Zm8,14.75,2.49-8.82h8l.95,8.82Zm16.2-5.47-.36-3.35h1.35C3715.75,1674.3,3715.42,1675.42,3715.1,1676.51Zm-1-9.28c-.81-6.67-2-13.86-3.58-21.43h12.67c-1.75,7.59-3.56,14.78-5.38,21.43Zm9.48,8.62c-.17,2-.33,4.07-.5,6.12h-4c.85-2.75,1.72-5.66,2.62-8.82h2.08Zm.94-11.39-.23,2.77h-.91q.67-2.46,1.32-5C3724.61,1663,3724.54,1663.72,3724.48,1664.46Zm2.91-38.43c-.15.77-.32,1.56-.48,2.36-1.24-7.67-2.63-15.3-4.16-22.76h6C3728.31,1612.38,3727.87,1619.15,3727.39,1626Zm1.8-27.88-.09,1.56h-6.32l5-24.58c.71,4.36,1.37,8.83,2,13.37C3729.59,1591.69,3729.4,1594.92,3729.19,1598.15Zm3.53-73.54c-.12,3.54-.23,7.07-.37,10.67l-3.9,13.71c-1.84-9.2-3.79-18.22-5.84-26.9h10.19Zm.27-8.46h-10.12l8.24-26.75c.86,4.36,1.63,8.61,2.3,12.66C3733.29,1506.71,3733.15,1511.43,3733,1516.15Zm1.29-65.42-2.85,14.83c-2-8.48-4.27-17.27-6.77-26.26h9.67C3734.33,1443.08,3734.3,1446.89,3734.28,1450.73Zm-9.81-17.35,5.73-27c1.5,5.82,2.89,11.48,4.11,16.91v2.56c0,2.51,0,5,0,7.55h-9.89Z" transform="translate(2.35 0.5)"/></g>		
<style>
		#whieelstand{
			
			transform-origin:center;
			transform-box: fill-box;
			transform:rotateY(50deg) ;

		}
		#londonWheel{
			transform-origin:center;
			  transform-box: fill-box;

			animation: spin 100s infinite linear;
		}
		@keyframes spin{
			from{
				transform:rotateY(40deg) rotateZ(0);
			}
			to{
				transform:rotateY(40deg) rotateZ(1turn);

			}
		}
	</style>
    <path id="londonWheel" class="cls-8" d="M2432.69,1381.36a12.71,12.71,0,0,0,7.11-2.68q0,1.48.12,3l-.21.1.24.4c0,.4,0,.8.07,1.21l-.18.46.24.1a297.72,297.72,0,0,0,3.52,31.14l-.19.13.28.38c.06.4.12.8.19,1.2h0a12.62,12.62,0,0,0-7.46-1.07,12.34,12.34,0,1,0,5,24.16,12.92,12.92,0,0,0,6.46-4c1,4,2,8,3.16,12l-.18.14.31.33c.11.39.24.8.35,1.18l-.09.46.24,0q3.39,11.41,7.64,22.43a12.75,12.75,0,0,0-7.58.41,12.34,12.34,0,1,0,9.64,22.72,12.91,12.91,0,0,0,5.56-5.22q4.61,9.93,9.95,19.44l-.12.17.35.24c.23.39.42.77.65,1.14v.42l.19,0c2.34,4.13,4.8,8.22,7.35,12.23a12.82,12.82,0,0,0-7.38,1.89,12.33,12.33,0,1,0,13.9,20.37,12.89,12.89,0,0,0,4.44-6.22,294.82,294.82,0,0,0,19.76,24.23l-.08.16.33.11c.33.34.64.68,1,1l.1.36.18-.06c1.1,1.2,2.21,2.38,3.31,3.55a12.76,12.76,0,0,0-6.84,3.28,12.32,12.32,0,1,0,17.59,17.25,12.82,12.82,0,0,0,3.15-6.92c1.72,1.59,3.48,3.16,5.24,4.72l0,.15.31.07c.39.33.76.66,1.12,1l.1.29.15-.08q11,9.49,22.89,17.88a12.78,12.78,0,0,0-6.07,4.56,12.32,12.32,0,1,0,20.6,13.52,12.85,12.85,0,0,0,1.75-7.38q7,4.27,14.29,8.16v.12h.25l1.43.75.14.2.1-.07q8.68,4.56,17.68,8.55a13,13,0,0,0-5.08,5.66,12.32,12.32,0,1,0,22.85,9.22,12.77,12.77,0,0,0,.26-7.6q12.12,4.42,24.73,7.79l0,.07.13,0,1.77.47.09.07,0,0c3.28.85,6.61,1.64,9.93,2.38a12.87,12.87,0,0,0-3.89,6.57,12.32,12.32,0,1,0,24.2,4.56,12.86,12.86,0,0,0-1.26-7.53c.62.1,1.23.17,1.85.26l0,0,.09,0c.61.1,1.23.17,1.85.26l.09.06,0,0a294.06,294.06,0,0,0,31.33,2.7l0,0,0,0,2,.08h0c.25,0,.54,0,.79,0a12.87,12.87,0,0,0-2.52,7.19,12.31,12.31,0,1,0,24.61-.27,12.77,12.77,0,0,0-2.68-7.12c4.46-.19,8.89-.49,13.28-.87h0q12.52-1.1,24.73-3.22a12.85,12.85,0,0,0-1.07,7.51,12.32,12.32,0,1,0,24.12-5,12.87,12.87,0,0,0-4-6.45,291.41,291.41,0,0,0,36.46-11.48,12.85,12.85,0,0,0,.41,7.61,12.31,12.31,0,1,0,22.64-9.67,12.89,12.89,0,0,0-5.2-5.57,292.11,292.11,0,0,0,33.54-18.43,12.86,12.86,0,0,0,1.9,7.39,12.33,12.33,0,1,0,20.33-13.93,12.68,12.68,0,0,0-6.2-4.45,297.41,297.41,0,0,0,29.34-24.61,13,13,0,0,0,3.28,6.87,12.33,12.33,0,1,0,17.22-17.64,12.62,12.62,0,0,0-6.92-3.14,293.91,293.91,0,0,0,24-29.84,12.77,12.77,0,0,0,4.55,6.07,12.33,12.33,0,1,0,13.49-20.64,13,13,0,0,0-7.36-1.75,292.6,292.6,0,0,0,17.68-33.94,12.76,12.76,0,0,0,5.65,5.07,12.33,12.33,0,1,0,9.23-22.87,12.63,12.63,0,0,0-7.58-.26,293.94,293.94,0,0,0,10.71-36.78,12.72,12.72,0,0,0,6.56,3.9,12.34,12.34,0,1,0,4.55-24.25,12.53,12.53,0,0,0-7.52,1.25,297.81,297.81,0,0,0,3.33-38.19,12.66,12.66,0,0,0,7.18,2.52,12,12,0,0,0,12.08-9.32H3021v0h-3.5a.13.13,0,0,0,.1,0q-12.93,5.63-26,10.22c.12-3.39.22-6.8.22-10.22h.23v0c0-.31,0-.64,0-1l.55,1q14.24-5.64,28.17-12.53c.17,4.15.28,8.32.28,12.51v0h25.4v0h.2a13,13,0,0,0,.37-3.21,12.13,12.13,0,0,0-12.69-12.2,12.68,12.68,0,0,0-7.11,2.68c0-1-.07-2-.12-3l.21-.1-.24-.4c0-.4,0-.79-.07-1.21l.18-.44-.24-.1a298,298,0,0,0-3.52-31.14l.19-.13-.28-.38c-.06-.4-.12-.8-.19-1.2h0a12.62,12.62,0,0,0,7.46,1.07,12.34,12.34,0,1,0-5-24.16,13,13,0,0,0-6.46,4c-1-4-2-8-3.16-12l.18-.14-.31-.33-.35-1.18.09-.46-.24,0q-3.39-11.42-7.64-22.43a12.75,12.75,0,0,0,7.58-.41,12.34,12.34,0,1,0-9.64-22.72,12.91,12.91,0,0,0-5.56,5.22q-4.61-9.92-9.95-19.44l.12-.17-.35-.24c-.23-.39-.42-.77-.65-1.14v-.42l-.19,0c-2.35-4.13-4.8-8.22-7.35-12.23a12.82,12.82,0,0,0,7.38-1.89,12.32,12.32,0,1,0-13.9-20.35,12.86,12.86,0,0,0-4.44,6.21,296.37,296.37,0,0,0-19.76-24.22l.08-.16-.33-.11-1-1-.1-.35-.18.06c-1.1-1.2-2.21-2.38-3.31-3.55a12.76,12.76,0,0,0,6.84-3.28,12.32,12.32,0,1,0-17.59-17.26,12.84,12.84,0,0,0-3.15,6.94c-1.72-1.59-3.48-3.16-5.24-4.72l0-.15-.31-.07c-.39-.33-.76-.66-1.12-1l-.1-.29-.15.08q-11-9.49-22.89-17.88a12.78,12.78,0,0,0,6.07-4.56,12.32,12.32,0,1,0-20.6-13.52,12.85,12.85,0,0,0-1.75,7.38q-7-4.27-14.29-8.16V1106h-.25l-1.43-.75-.14-.2-.1.07q-8.68-4.56-17.68-8.55a13,13,0,0,0,5.08-5.66,12.32,12.32,0,1,0-22.85-9.22,12.77,12.77,0,0,0-.26,7.6q-12.12-4.42-24.73-7.79l0-.07-.13,0-1.77-.47-.09-.07,0,0c-3.28-.85-6.61-1.64-9.93-2.38a12.87,12.87,0,0,0,3.89-6.57,12.32,12.32,0,1,0-24.2-4.56,12.86,12.86,0,0,0,1.26,7.53c-.62-.1-1.23-.17-1.84-.26v0l-.09,0c-.61-.1-1.24-.17-1.85-.26l-.09-.06,0,0a294.25,294.25,0,0,0-31.34-2.7v0l-.05,0-2-.08h0c-.25,0-.53,0-.79,0a12.87,12.87,0,0,0,2.52-7.19,12.31,12.31,0,1,0-24.61.27,12.85,12.85,0,0,0,2.68,7.12c-4.45.19-8.88.49-13.28.87h0q-12.53,1.1-24.74,3.22a12.93,12.93,0,0,0,1.08-7.51,12.33,12.33,0,1,0-24.13,5,12.82,12.82,0,0,0,4,6.45,292.08,292.08,0,0,0-36.47,11.48,12.84,12.84,0,0,0-.4-7.61,12.32,12.32,0,1,0-22.65,9.67,12.89,12.89,0,0,0,5.2,5.57,292.11,292.11,0,0,0-33.54,18.43,12.9,12.9,0,0,0-1.89-7.4,12.33,12.33,0,1,0-20.34,13.94,12.73,12.73,0,0,0,6.2,4.45A296.13,296.13,0,0,0,2530.7,1153a13.06,13.06,0,0,0-3.28-6.87,12.33,12.33,0,1,0-17.22,17.64,12.59,12.59,0,0,0,6.91,3.14,296.68,296.68,0,0,0-24,29.84,12.65,12.65,0,0,0-4.55-6.07,12.33,12.33,0,1,0-13.49,20.64,13,13,0,0,0,7.37,1.75,291.06,291.06,0,0,0-17.68,33.94,12.76,12.76,0,0,0-5.65-5.07,12.33,12.33,0,1,0-9.23,22.87,12.6,12.6,0,0,0,7.57.26,293.9,293.9,0,0,0-10.7,36.78,12.65,12.65,0,0,0-6.56-3.9,12.34,12.34,0,1,0-4.57,24.25,12.53,12.53,0,0,0,7.52-1.25,297.81,297.81,0,0,0-3.33,38.19,12.66,12.66,0,0,0-7.18-2.52,12,12,0,0,0-12.08,9.32H2446v0h3.5a.13.13,0,0,0-.1,0q12.93-5.62,26-10.22c-.12,3.39-.22,6.8-.22,10.22H2475v0c0,.31,0,.64,0,1l-.55-1q-14.24,5.64-28.17,12.53c-.17-4.15-.28-8.32-.28-12.51v0h-25.4v0h-.2a13,13,0,0,0-.37,3.21A12.11,12.11,0,0,0,2432.69,1381.36Zm18.13,37.55c10.07,2.36,20.18,4.31,30.26,5.83l.33-1.06c.13.61.28,1.23.43,1.84l-.76-.8q-12.59,8.7-24.63,18.58Q2453.12,1431.33,2450.82,1418.91Zm29.84,1.39q-13.9-2.33-27.8-5.71,12-7.85,24.28-14.68C2478.05,1406.79,2479.25,1413.59,2480.66,1420.3Zm-4.77-73.76q-12.49-6-24.7-13.08,13.45-4.12,27-7.2Q2476.66,1336.28,2475.89,1346.54Zm22.47-77,224.74,93.27-238.58-47.54A251.49,251.49,0,0,1,2498.36,1269.49Zm-11.42,19q-10.8-8.73-21.1-18.37,14.05-1,28-.85Q2490,1278.75,2486.94,1288.52Zm34.75-63.14,202.23,135.38-224.76-93.27A253.37,253.37,0,0,1,2521.69,1225.38Zm-10.81,9.19q-8.53-11-16.38-22.73,13.9,2.28,27.43,5.56Q2516.07,1225.76,2510.88,1234.57Zm42.27-47.9,172,172.3-202.24-135.39A255.58,255.58,0,0,1,2553.15,1186.67ZM2527.3,1210q-7.25-11.9-13.7-24.46,13.56,3.87,26.65,8.64Q2533.47,1201.82,2527.3,1210Zm203.11,145.43-93.11-225.18a252.39,252.39,0,0,1,45.64-13.87ZM2685,1116a254.8,254.8,0,0,1,47.45-4.64l0,243.68Zm47.26,261v243.67a254.8,254.8,0,0,1-47.45-4.65Zm-3.88-20.67-135.13-202.63a253.5,253.5,0,0,1,42-22.55Zm-1.79,1.19-172-172.29a254.68,254.68,0,0,1,36.84-30.33Zm-227.67,107,224.72-93.27-202.2,135.38A253.72,253.72,0,0,1,2499,1464.45Zm14.58,37.68q-13.87,2.52-28.08,4,8.61-11.45,17.89-22C2506.51,1490.28,2509.93,1496.26,2513.54,1502.13Zm-29.22-85.39,238.57-47.56-224.72,93.28A251,251,0,0,1,2484.32,1416.74Zm4.14,32q-14.07-.71-28.27-2.47,11-9.16,22.47-17.38Q2485.17,1439,2488.46,1448.78Zm11,27.39q-14.05.91-28.36.8,9.87-10.4,20.32-19.86Q2495.09,1466.84,2499.48,1476.17ZM2724.91,1373l-172,172.3a257,257,0,0,1-30.28-36.9Zm1.5,1.51L2591.3,1577.12a255.93,255.93,0,0,1-36.84-30.32Zm-229.06-113.61q-9.75-9.91-18.88-20.67c9.38.44,18.67,1.25,27.86,2.36Q2501.5,1251.49,2497.35,1260.86Zm225.32,104-243.2,0a256.62,256.62,0,0,1,4.64-47.54Zm-242.9-47.64q-11.74-7.44-23.06-15.83c9.22-1.71,18.47-3.05,27.66-4.05Q2481.67,1307.13,2479.77,1317.21Zm242.68,49.87-238.57,47.55a257.56,257.56,0,0,1-4.63-47.54Zm-263.82,83.75c10.29,1.2,20.56,2,30.75,2.31l.21-1.09.63,1.79c-.28-.25-.55-.46-.84-.7-7.67,6.72-15.11,13.85-22.33,21.29Q2462.36,1462.88,2458.63,1450.83Zm11.48,30.81q15.54,0,30.8-1.23l.07-1.06c.27.55.55,1.11.84,1.66l-.91-.58q-10.29,11.37-19.77,23.74Q2475.14,1493.15,2470.11,1481.64Zm14.88,29.27c10.28-1.2,20.47-2.76,30.47-4.76l0-1,1,1.49-.93-.47q-8.91,12.48-16.93,25.85Q2491.3,1521.79,2485,1510.91Zm33.35-1.32q5.74,8.61,12.13,16.73-13.48,4.08-27.4,7.21Q2510.27,1521.19,2518.34,1509.59Zm.61,48.12q-8.34-9.36-15.88-19.41c10.09-2.36,20-5.09,29.77-8.19-.06-.34-.1-.67-.16-1,.37.44.71.91,1.09,1.35l-.93-.34Q2525.4,1543.54,2519,1557.71Zm17.14-24.52q6.66,7.88,13.94,15.23-12.93,5.58-26.39,10.26Q2529.42,1545.62,2536.09,1533.19Zm-6,36.44q-3-3-6-6.18,14.66-5.23,28.65-11.52l-.26-1,1.22,1.2-1-.24c-3.93,9.44-7.48,19.15-10.69,29Q2536,1575.46,2530.14,1569.63Zm26.26-15q7.51,7.06,15.56,13.55-12.18,7-25.06,13.2C2549.75,1572.28,2552.94,1563.37,2556.4,1554.65Zm11.43,46.77c-6.83-4.83-13.45-10-19.83-15.38q14-6.88,27.17-14.72l-.35-.88,1.32,1-1-.12Q2570.94,1586.1,2567.83,1601.42Zm11.17-27.78q8.25,6.16,17,11.66-11.31,8.34-23.37,16Q2575.32,1587.24,2579,1573.64Zm16.67,45.18q-11-6-21.49-13,13.13-8.43,25.36-17.72l-.42-.8,1.35.8-.91,0C2597.84,1598.17,2596.57,1608.43,2595.67,1618.82Zm7.94-28.89q8.88,5.17,18.19,9.65-10.26,9.59-21.41,18.5Q2601.53,1603.86,2603.61,1589.93Zm22.07,12q-.81,15.38-.35,31-11.68-4.74-22.85-10.47,12.09-9.9,23.2-20.55c-.18-.24-.33-.48-.51-.73l1.37.64Zm-32.59-23.59,135.11-202.62-93.09,225.18A252.72,252.72,0,0,1,2593.09,1578.3Zm36.86,53.32q-.55-14.26,0-28.32c6.27,2.74,12.66,5.26,19.16,7.5Q2640,1621.51,2630,1631.62Zm2.54,4.09q10.89-11.2,20.68-23.08l-.57-.64c.46.16.92.32,1.4.45l-.83.18q1,15.38,3.22,30.87Q2644.24,1640.13,2632.49,1635.71Zm4.62-34,93.07-225.17-47.45,239A251.37,251.37,0,0,1,2637.11,1601.68Zm20.48,11.91c6.52,2,13.15,3.75,19.88,5.23q-7.83,11.65-16.61,22.87Q2658.68,1627.61,2657.59,1613.59Zm6.24,31.86c6.35-8.26,12.36-16.7,17.92-25.32l-.57-.51c.43.1.88.17,1.31.24l-.74.26q2.72,15.17,6.75,30.32Q2676,1648.51,2663.83,1645.45Zm22.4-24.85q10,1.86,20.32,2.94-6.43,12.46-13.86,24.58Q2688.93,1634.38,2686.23,1620.6Zm9.84,31q8.07-13.4,14.94-27.23l-.61-.44,1.27.11-.67.32c2.95,9.83,6.35,19.63,10.13,29.37C2712.7,1653.34,2704.32,1652.62,2696.07,1651.55Zm29-.69q-5.27-13.2-9.54-26.58c5.91.4,11.87.62,17.86.62l2.69,0Q2731,1638,2725.05,1650.86ZM2968,1267.48l-224.73,93.27,202.2-135.39A252.34,252.34,0,0,1,2968,1267.48Zm-14.58-37.68q13.86-2.54,28.07-4-8.61,11.45-17.89,22C2960.44,1241.64,2957,1235.65,2953.42,1229.8Zm32.87,81.81c9.28,1.55,18.53,3.45,27.81,5.72q-12,7.85-24.29,14.67Q2988.45,1321.68,2986.29,1311.61Zm4.77,73.76c8.34,4,16.58,8.38,24.71,13.09q-13.47,4.13-27,7.19Q2990.32,1395.63,2991.06,1385.37Zm-3.37-20.52-243.2,0,238.57-47.56A255.68,255.68,0,0,1,2987.69,1364.85Zm-19.09,97.59-224.75-93.27,238.58,47.54A251.39,251.39,0,0,1,2968.6,1462.44Zm11.43-19q10.8,8.74,21.1,18.37c-9.37.65-18.7.92-28,.86Q2977,1453.17,2980,1443.4Zm-34.77,63.15L2743,1371.17l224.76,93.27A253.43,253.43,0,0,1,2945.26,1506.55Zm10.81-9.19q8.55,11,16.39,22.73-13.92-2.29-27.43-5.56Q2950.88,1506.18,2956.07,1497.36Zm-42.25,47.9-172-172.3,202.24,135.39A257.58,257.58,0,0,1,2913.82,1545.26Zm25.84-23.32q7.24,11.89,13.7,24.46-13.58-3.87-26.66-8.64C2931.24,1532.64,2935.56,1527.39,2939.66,1521.94Zm30-50.87q9.75,9.92,18.87,20.67c-9.37-.44-18.66-1.25-27.86-2.36C2963.84,1483.41,2966.84,1477.29,2969.61,1471.07Zm-225.32-104,243.19,0a256.7,256.7,0,0,1-4.63,47.54Zm242.9,47.62q11.73,7.44,23.06,15.84-13.85,2.57-27.67,4Q2985.28,1424.8,2987.19,1414.7Zm-8.68-131.55q14.07.7,28.27,2.47-11,9.17-22.47,17.38Q2981.77,1292.89,2978.51,1283.15Zm4.13,32-238.58,47.56,224.73-93.27A251.4,251.4,0,0,1,2982.64,1315.17Zm-15.16-59.42c9.36-.62,18.83-.89,28.35-.8q-9.85,10.4-20.32,19.85C2973.1,1268.33,2970.41,1262,2967.48,1255.75ZM2742.06,1359l172-172.29a256.86,256.86,0,0,1,30.28,36.89Zm-1.52-1.51,135.12-202.65a255.88,255.88,0,0,1,36.84,30.33Zm171.76,189.34a254.68,254.68,0,0,1-36.84,30.33l-135.14-202.64Zm-38.62,31.51a252.81,252.81,0,0,1-42,22.56l-93.1-225.19Zm-44,23.39a252.51,252.51,0,0,1-45.63,13.86l-47.47-239Zm-47.74,14.26a254.72,254.72,0,0,1-47.45,4.65V1376.91Zm-47.25-261,0-243.66a254.72,254.72,0,0,1,47.45,4.64Zm-1.27,299c-1.54,0-3.07,0-4.58,0q6.48-14.27,11.78-28.76l-.58-.32,1.16,0-.58.37q6.07,14.19,13.39,28.07C2747.16,1653.69,2740.31,1654,2733.39,1654Zm24.12-4c-4.49-8.32-8.63-16.78-12.45-25.29,6.89-.32,13.7-.87,20.44-1.71C2763.19,1631.94,2760.52,1641,2757.51,1649.94Zm4,2.64c3.24-9.95,6.1-19.92,8.48-29.94l-.61-.24,1.12-.16-.51.4q7.65,13.42,16.51,26.39Q2774.21,1651.34,2761.55,1652.58Zm12.9-30.94c6.78-1.08,13.47-2.45,20.08-4-1.27,9.23-2.9,18.5-4.86,27.75C2784.26,1637.59,2779.19,1629.66,2774.45,1621.64Zm19.53,25.9q3.15-15.37,5-30.74l-.56-.16c.33-.09.65-.19,1-.27-.13.14-.28.28-.42.44q9.15,12.48,19.44,24.36Q2806.42,1644.84,2794,1647.54Zm27.11-10.45c-6.24-7.08-12.18-14.37-17.81-21.78q9.9-2.77,19.45-6.31C2822.52,1618.31,2822,1627.68,2821.09,1637.09Zm4.52,1.71q1.35-15.67,1.45-31.17a4.86,4.86,0,0,1-.55-.1l.89-.34-.33.44q10.51,11.34,22.11,22C2841.5,1633,2833.63,1636.09,2825.61,1638.8Zm5.56-33.11q9.51-3.89,18.61-8.5,1.29,13.9,1.58,28.07Q2840.83,1615.81,2831.17,1605.69Zm24.9,20.78c-.3-10.47-1-20.88-2.13-31.12l-.54,0,.82-.43-.28.44q11.73,10.08,24.49,19.3Q2867.54,1621,2856.07,1626.47Zm1.74-33.52c6-3.29,11.81-6.84,17.5-10.58q2.86,13.65,4.76,27.7Q2868.55,1601.86,2857.81,1593Zm27.08,17.78q-2.23-15.59-5.67-30.7l-.46,0c.22-.16.45-.32.67-.46l-.19.44q12.83,8.68,26.55,16.39Q2895.65,1604,2884.89,1610.73Zm-2.06-33.51q8.34-5.94,16.16-12.51,4.38,13.23,7.87,27Q2894.5,1584.83,2882.83,1577.22Zm28.89,14.58q-4-15.24-9.11-29.87l-.4.07.54-.47-.14.4q13.74,7.15,28.25,13.27C2924.74,1581,2918.34,1586.54,2911.72,1591.8Zm-5.83-33.06q7.61-6.84,14.66-14.24c3.89,8.42,7.53,17,10.85,25.85C2922.69,1566.78,2914.2,1562.88,2905.89,1558.74Zm30.71,10.87-.35.36q-5.72-14.68-12.45-28.68l-.39.12.46-.5-.09.38q14.47,5.57,29.58,10C2948.05,1557.61,2942.46,1563.75,2936.6,1569.61Zm21.55-24.15q-7.32-13.95-15.61-27.1l-.36.16c.12-.17.25-.36.39-.53l0,.39q15,3.88,30.51,6.54Q2966.06,1535.53,2958.15,1545.46Zm19-26.84q-8.87-13-18.59-25.14l-.31.17.29-.52,0,.35c10.23,1.43,20.62,2.42,31.1,3C2985.79,1504.07,2981.6,1511.44,2977.11,1518.62Zm15.82-28.84q-10.29-12-21.35-22.86l-.26.18c.08-.17.14-.34.23-.51l0,.31q15.51.38,31.25-.57Q2998.39,1478.33,2992.93,1489.78Zm12.42-30.47c-7.74-7.13-15.69-13.91-23.84-20.25l-.24.23a4.64,4.64,0,0,1,.16-.53l.08.31c10.28-.94,20.63-2.35,31-4.16Q3009.42,1447.32,3005.35,1459.31Zm8.82-31.71q-12.75-9.28-26-17.39c-.06.09-.13.16-.19.25l.09-.52.1.29q15.21-3.2,30.32-7.7C3017.42,1411,3016,1419.36,3014.17,1427.6Zm6.56-57.89q-.15,12.86-1.4,25.4-13.73-7.77-27.83-14.32a2.07,2.07,0,0,1-.17.24,4.32,4.32,0,0,0,0-.5l.14.24Q3006.23,1375.9,3020.73,1369.71Zm-28.77-8.22q-.16-10.46-1.17-20.68,13.58,3.9,27,8.85Q3005,1356.1,2992,1361.49Zm28.31-15.89c-9.75-3.49-19.55-6.6-29.39-9.26l-.46,1c-.06-.64-.15-1.28-.22-1.92l.68.9q13.48-7.21,26.59-15.64C3018.75,1328.91,3019.69,1337.19,3020.27,1345.6Zm-4.13-32.59q-15.12-3.55-30.27-5.83l-.32,1c-.14-.61-.29-1.22-.44-1.83l.76.79q12.6-8.7,24.63-18.58Q3013.83,1300.58,3016.14,1313Zm-7.81-31.92q-15.43-1.8-30.76-2.31l-.21,1.08c-.21-.58-.42-1.18-.62-1.78.28.24.55.45.83.7,7.68-6.73,15.12-13.86,22.33-21.29Q3004.6,1269.06,3008.33,1281.09Zm-11.47-30.8q-15.54,0-30.8,1.22l-.07,1.07c-.27-.55-.55-1.11-.84-1.66l.91.58q10.29-11.37,19.77-23.74Q2991.8,1238.77,2996.86,1250.29ZM2982,1221c-10.28,1.2-20.47,2.77-30.47,4.75l0,1c-.33-.51-.66-1-1-1.49l.93.47q8.91-12.48,16.93-25.85Q2975.68,1210.13,2982,1221Zm-33.35,1.33q-5.74-8.61-12.13-16.73,13.48-4.08,27.4-7.21Q2956.67,1210.73,2948.63,1222.33Zm-.62-48.13c5.56,6.24,10.87,12.7,15.86,19.41-10.09,2.37-20,5.09-29.77,8.2.06.34.1.67.16,1-.37-.44-.71-.91-1.09-1.35l.93.34Q2941.59,1188.4,2948,1174.2Zm-17.13,24.53q-6.66-7.89-13.94-15.24,12.93-5.57,26.39-10.26Q2937.54,1186.3,2930.88,1198.73Zm5.93-36.43q3,3,6,6.17-14.64,5.25-28.65,11.53l.27,1-1.22-1.2.95.24c3.94-9.45,7.49-19.15,10.69-29C2928.93,1154.64,2932.92,1158.4,2936.81,1162.3Zm-26.25,15q-7.54-7.08-15.57-13.55,12.2-7,25.06-13.2C2917.21,1159.64,2914,1168.55,2910.56,1177.28Zm-11.44-46.78q10.24,7.24,19.83,15.37-14,6.89-27.16,14.72l.34.89c-.43-.35-.86-.66-1.31-1l.95.11Q2896.08,1145.83,2899.12,1130.5ZM2888,1158.27q-8.25-6.15-17-11.66,11.33-8.33,23.38-15.94Q2891.63,1144.68,2888,1158.27Zm-16.67-45.18q11,6.06,21.48,13c-8.75,5.63-17.22,11.51-25.36,17.73l.42.8-1.34-.8h.91C2869.11,1133.74,2870.38,1123.48,2871.29,1113.09Zm-7.95,28.89q-8.87-5.18-18.18-9.65,10.26-9.57,21.4-18.49Q2865.47,1128,2863.34,1142Zm-22.06-12q.81-15.36.34-31,11.7,4.74,22.86,10.47c-8.05,6.6-15.81,13.44-23.2,20.55.18.25.33.49.51.73l-1.38-.64Zm32.59,23.59-135.11,202.62,93.08-225.18A253.89,253.89,0,0,1,2873.87,1153.61ZM2837,1100.3q.55,14.25,0,28.31c-6.26-2.73-12.66-5.25-19.16-7.49Q2827,1110.43,2837,1100.3Zm-2.53-4.09q-10.89,11.19-20.68,23.07l.57.64c-.47-.16-.93-.31-1.41-.44l.84-.19q-1-15.36-3.22-30.86C2818.68,1090.66,2826.64,1093.29,2834.47,1096.21Zm-4.63,34-93.07,225.16,47.46-239A252.33,252.33,0,0,1,2829.84,1130.24Zm-20.46-11.9q-9.78-3-19.88-5.23,7.83-11.65,16.61-22.87Q2808.29,1104.34,2809.38,1118.34Zm-6.25-31.88c-6.35,8.27-12.36,16.7-17.92,25.32l.57.52c-.44-.1-.88-.17-1.32-.25l.75-.25q-2.73-15.16-6.75-30.33C2786.8,1082.77,2795,1084.45,2803.13,1086.46Zm-22.41,24.85q-10-1.86-20.32-2.93,6.45-12.47,13.87-24.59Q2778,1097.55,2780.72,1111.31Zm-9.84-30.94q-8.07,13.41-14.94,27.24l.62.44c-.44,0-.85-.09-1.27-.11l.67-.32q-4.42-14.74-10.14-29.37C2754.26,1078.59,2762.64,1079.29,2770.88,1080.37Zm-29,.7q5.29,13.2,9.54,26.58c-5.9-.4-11.86-.63-17.86-.63l-2.68,0Q2735.91,1094,2741.9,1081.07Zm-8.32-3.1c1.54,0,3.07,0,4.58,0q-6.48,14.26-11.78,28.76l.58.32-1.16,0,.58-.37q-6.08-14.19-13.39-28.07C2719.79,1078.22,2726.65,1078,2733.58,1078Zm-24.13,4c4.48,8.32,8.63,16.79,12.44,25.3q-10.32.46-20.44,1.71Q2704.93,1095.47,2709.45,1082Zm-4-2.64c-3.24,10-6.1,19.93-8.49,30l.61.24c-.37,0-.76.1-1.11.15l.5-.39q-7.65-13.42-16.5-26.4C2688.65,1081.36,2697,1080.16,2705.41,1079.33Zm-12.9,30.94q-10.17,1.63-20.08,4,1.91-13.86,4.86-27.75Q2685.41,1098.21,2692.51,1110.27ZM2673,1084.39q-3.15,15.38-5,30.74l.56.16c-.33.08-.65.18-1,.27.13-.14.28-.28.42-.44q-9.15-12.48-19.44-24.36Q2660.54,1087.07,2673,1084.39Zm-27.13,10.43q9.38,10.64,17.82,21.78-9.91,2.78-19.46,6.31C2644.43,1113.61,2645,1104.23,2645.86,1094.82Zm-4.52-1.71c-.89,10.45-1.4,20.84-1.44,31.16a5.3,5.3,0,0,1,.55.1l-.89.34.32-.44c-7-7.56-14.4-14.88-22.11-22Q2629.32,1097.23,2641.34,1093.11Zm-5.56,33.11q-9.48,3.88-18.6,8.51-1.3-13.92-1.58-28.08Q2626.13,1116.13,2635.78,1126.22Zm-24.88-20.76c.3,10.47,1,20.87,2.13,31.12l.54,0-.82.43.28-.45q-11.73-10.06-24.49-19.29Q2599.43,1110.91,2610.9,1105.46Zm-1.74,33.51q-9,5-17.51,10.59-2.85-13.65-4.75-27.7C2594.58,1127.32,2602,1133.05,2609.16,1139Zm-27.08-17.78q2.24,15.58,5.67,30.7a3.55,3.55,0,0,1,.46,0l-.67.45.19-.44q-12.83-8.67-26.55-16.39Q2571.32,1127.92,2582.08,1121.19Zm2.05,33.5q-8.34,6-16.16,12.52-4.39-13.24-7.88-27Q2572.47,1147.07,2584.13,1154.69Zm-28.9-14.58q4,15.26,9.11,29.87l.41-.07-.54.47.13-.4c-9.15-4.77-18.59-9.19-28.25-13.26Q2545.3,1148,2555.23,1140.11Zm5.85,33.07q-7.6,6.84-14.66,14.23c-3.89-8.42-7.53-17-10.85-25.85Q2548.61,1166.93,2561.08,1173.18Zm-30.73-10.88.36-.35q5.7,14.68,12.45,28.67a3.64,3.64,0,0,1,.39-.11c-.15.17-.32.32-.47.49l.09-.38c-9.64-3.71-19.53-7-29.57-10C2518.92,1174.32,2524.49,1168.17,2530.35,1162.3Zm-21.54,24.16q7.3,13.93,15.61,27.09l.36-.16-.39.53,0-.38c-10-2.6-20.19-4.76-30.52-6.55Q2500.91,1196.4,2508.81,1186.46Zm-19,26.85q8.85,13,18.59,25.14l.31-.17c-.1.17-.19.35-.3.52v-.35c-10.23-1.43-20.62-2.43-31.1-3C2481.17,1227.86,2485.36,1220.49,2489.85,1213.31ZM2474,1242.15q10.29,12,21.35,22.86l.25-.19a4.77,4.77,0,0,1-.22.52l0-.32q-15.52-.36-31.25.57Q2468.59,1253.59,2474,1242.15Zm-12.42,30.46c7.74,7.12,15.68,13.91,23.84,20.25l.24-.23c-.05.17-.11.35-.17.53l-.07-.32c-10.29.94-20.63,2.35-31,4.16Q2457.53,1284.61,2461.61,1272.61Zm-8.83,31.72q12.75,9.27,26,17.39c.06-.09.14-.16.2-.25l-.09.52-.11-.29q-15.2,3.18-30.32,7.7C2449.53,1320.92,2451,1312.55,2452.78,1304.33Zm-6.56,57.89q.17-12.85,1.41-25.4,13.73,7.76,27.83,14.32a1.25,1.25,0,0,1,.16-.24c0,.17,0,.34,0,.5l-.13-.24C2465.64,1354.39,2455.9,1358.1,2446.22,1362.22Zm28.79,8.2q.16,10.45,1.17,20.68-13.57-3.88-27-8.85Q2462,1375.85,2475,1370.42Zm1.06,25.16.46-1c.06.64.15,1.28.23,1.93l-.69-.9q-13.49,7.2-26.58,15.63c-1.28-8.18-2.22-16.49-2.82-24.88Q2461.3,1391.57,2476.07,1395.58Z" transform="translate(2.35 0.5)"/><polygon id="Rectangle_1" data-name="Rectangle 1" class="cls-9" points="2736.36 1374.05 2748.76 1371.5 2817.8 1683.77 2805.39 1686.32 2736.36 1374.05"/><polygon id="Rectangle_2" data-name="Rectangle 2" class="cls-9" points="2726.82 1372.46 2739.2 1375.17 2665.72 1686.5 2653.35 1683.78 2726.82 1372.46"/><polygon id="Rectangle_3" data-name="Rectangle 3" class="cls-9" points="2893.43 1677.79 2893.57 1690.44 2579.49 1686.15 2579.36 1673.5 2893.43 1677.79"/><polygon id="Rectangle_4" data-name="Rectangle 4" class="cls-9" points="2795.8 1690.12 2795.94 1702.77 2677.48 1701.15 2677.35 1688.5 2795.8 1690.12"/></g></g><rect class="cls-10" x="0.5" y="0.5" width="3843.71" height="2397"/></svg>