<svg version="1.1" id="s2" xmlns="http://www.w3.org/2000/svg" x="0" y="0" viewBox="0 0 6095.3 1774.1" style="enable-background:new 0 0 6095.3 1774.1" xml:space="preserve"><style>.st1{fill:#68564a}.st2{fill:#b6b6b6}.st3{fill:#555}.st4{fill:#8c8c8c}.st5{fill:#0a7c9b}.st6{fill:#035d84}</style><path d="M5391.2 665.8c2.8-66 4.5-100 15.2-144.4 9.6-39.7 24.4-83.6 24.4-83.6 7.7-23.3 12-32.8 21.6-60 12.8-36.1 11.3-54.1 26.6-82 15.2-27.8 25.8-31 30.3-31.8 16.5-2.9 31.7 12.5 36.6 17.4 47.7 48-41.9 236.3-47.4 451.2-3.6 141.6 30.7 240.6-14.4 263.7-24.2 12.4-76.8 5.6-87.3-16.8-.8-1.7-1.4-3.6-2.4-16.2-1.8-22.1-2.7-33.2-1.8-51.9 2.1-46.7-6.9-117.3-1.4-245.6z" style="fill:#f6ff83"/><g id="skyline2"><path id="Vector_6" class="st1" d="M1982.6 1072.1h-2.1v-10h-2.9V840.3h1.2V839h.5l2.1-5.3h-3.8v-49.5l1-2.5h.2v-.5l.9-2.3h-1.4v-2.5h-.7v-2.7l2-4.9h2.1v-2.9h-6.1v-5.3h-1.2v-5.2h-2.4v-7.3h-3.1v-13.4h2.5V732h1.1v-2.2h-5.1v-3.1h-3.7v-5.1h1.4V718h-1.5v-3.3h-1.8v-28.1h.8v-2.7h1.2v-1.5h-1.4v-2.5h-1.7v-5.4h-.3v-.1l-1.8-2.2v-1.3c.4 0 .7-.3.7-.7-.1-.3-.3-.6-.7-.6v-.7c0-.4-.2-.8-.6-.8s-.6.4-.6.8v.7c-.4 0-.7.3-.7.6 0 .4.3.7.6.7v1.3l-1.8 2.2v.1h-1.1v-1h-1.2v-9.4h.3v-1.8h-1v-6.4c.2-.1.4-.3.4-.6s-.2-.6-.5-.6h-.6c0-.1.1-.2.1-.2 0-.2-.2-.5-.4-.5h-1l-1-6.5h.7v-1.2h-.7c-.1-2.2-1.4-4.1-3.4-4.9.8-.3 1.4-.7 1.4-1.3s-.8-1.2-1.9-1.4v-.4c1.1-.1 1.8-.4 1.8-.7s-.8-.6-1.8-.7v-3.6c.8-.5 1.2-1.4 1.2-2.3.2-1.2-.6-2.4-1.8-2.6-1.2-.2-2.4.6-2.6 1.8v.7c0 .9.4 1.8 1.2 2.3v3.6c-1.1.1-1.8.4-1.8.7s.8.6 1.8.7v.4c-1.1.2-1.9.8-1.9 1.4s.6 1 1.4 1.3c-1.9.9-3.2 2.8-3.3 4.9h-.7v1.3h.7l-1 6.5h-1c-.2 0-.4.2-.4.5v.2h-.6c-.3 0-.5.3-.5.6 0 .2.1.5.4.6v6.5h-1v1.8h.3v9.4h-1.2v1h-1.1v-.1l-1.8-2.2V671c.4 0 .7-.3.7-.7s-.3-.7-.7-.7v-.7c0-.4-.3-.8-.6-.8s-.6.4-.6.8v.7c-.4 0-.7.3-.7.6 0 .4.3.7.6.7v1.3l-1.8 2.2v.1h-.2v5.3h-1.7v2.5h-1.4v1.6h1.2v2.7h.8v28.1h-1.8v3.3h-1.4v3.6h1.4v5.1h-3.7v3.1h-5.1v2.2h1.1v2.7h2.5v13.4h-3v7.2h-2.4v5.3h-1.2v5.3h-1.3v3.8h-3.4v-17.6h-11.6c.4-1.6 0-3.6-.1-5.1s-.4-3.3-.4-4.9c0-1.1.8-2.3 1.1-3.4.2-.9 0-1.8-.6-2.4.5-.4.7-1 .6-1.6-.1-.8-.4-1.6-1-2.2-.7-.7-3-.7-3.1-2-.2-1.7-.6-2.6-1.5-3.1.4-2-.3-4.1-2.2-3.8-1.8-.4-2.3 1.4-2.2 3.5 0 .6-1.8 1.3-2.2 1.8-.3.5-.5 1.1-.4 1.7-1.7 0-4 .2-3.8 2.5.1 2.1 1.6 2.5 3.1 2.6 0 1.4.3 2.7 1 3.8l.1.1c0 .3.1.5.1.8.2 2.4.4 4.8.4 6.9-.2 1.6-.2 3.2 0 4.8h-5.5v4.8l-17.7-10.9v-14.6h1.9v-2.5h-2v-46.8c1.9-.3 2.9-.5 2.9-.8s-1.2-.6-3.5-.9h.5v-13.6h-11.9V647c1.5-.4 2.3-.8 2.3-1.3s-.7-.8-2.1-1.2c-1.7-24.5-16.3-48.5-35.8-55.8v-2.3c.9-.3 1.4-.7 1.4-1.1s-.3-.6-1-.9v-1.5h-.7v-4.5h-2.6v-2.7h.8V573h-.8v-16.4h.7v-3h-.8c.3-.4.2-.9-.1-1.2.1-.1.1-.2.1-.3 0-.3-.2-.6-.5-.7v-3.2c0-.1-.1-.3-.2-.3s-.3 0-.4.2V551.5c-.3 0-.6.3-.5.7 0 .1 0 .2.1.3-.4.3-.4.9-.1 1.2h-1.4V544h.5v-2.2h-1v-.7h.6v-1.3h-.5v-.5h.7c-.1-2.7-1.5-5.1-3.9-6.4v-1.2c.8-.2 1.3-.5 1.3-.8s-.6-.7-1.5-.8c.1-.2.1-.4.2-.7 0-.3-.1-.6-.3-.8.4-.2.7-.4.7-.7 0-.5-.8-.9-1.9-1v-2.7c.8-.1 1.3-.4 1.3-.7s-.5-.6-1.3-.7v-.1c1.7-.9 2.4-3 1.5-4.7-.1-.1-.2-.3-.2-.4-.3-.5-.8-.9-1.3-1.2v-4.7c.6-.3 1-.8 1.2-1.5h1.2c.5-.1.8-.5.7-.9 0-.5-.3-.9-.7-.9h-1.2c-.2-.6-.6-1.2-1.2-1.5V505c0-.8-.4-1.4-.8-1.4s-.8.6-.8 1.4v1.9c-.6.3-1 .8-1.2 1.5h-1.2c-.5.1-.8.5-.7.9 0 .5.3.9.7.9h1.2c.2.6.6 1.2 1.2 1.5v4.7c-1.7.9-2.4 3-1.5 4.7.1.1.2.3.2.4.3.5.8.9 1.3 1.2v.1c-.8.1-1.3.4-1.3.7s.5.6 1.3.7v2.7c-1.1.1-1.9.5-1.9 1 0 .3.3.5.7.7-.2.3-.3.5-.3.8 0 .2 0 .4.1.7-.9.2-1.5.5-1.5.8s.5.6 1.3.8v1.3c-2.4 1.3-3.9 3.7-3.9 6.4h.7v.5h-.5v1.3h.6v.7h-1v2.2h.5v9.7h-1.5c.4-.3.4-.9.1-1.2l-.1-.1c0-.1.1-.2.1-.3 0-.3-.2-.6-.5-.7v-3.2c0-.1-.1-.3-.2-.3-.2 0-.3 0-.4.2v3.5c-.3.1-.6.3-.5.7 0 .1 0 .2.1.3-.4.3-.4.9-.1 1.2h-.8v3h.7v16.4h-.9v2.7h.8v2.7h-2.6v4.4h-.8v1.5c-.6.3-1 .6-1 .9s.5.8 1.5 1.1v2.5c-19.4 7.3-34.1 31.2-35.8 55.8-1.4.4-2.1.8-2.1 1.2s.8.9 2.3 1.3v19.8h-11.9v13.6h.5c-2.2.3-3.5.6-3.5.9s1 .6 2.9.8v46.8h-2v2.5h1.9v14.5l-17.7 10.9v-4.8h-5.5c.1-1.6.1-3.2 0-4.8 0-2.1.2-4.5.4-6.9 0-.3.1-.5.1-.8l.1-.1c.7-1.2 1-2.5 1-3.8 1.5-.1 2.9-.5 3-2.6.1-2.3-2.1-2.5-3.8-2.5 0-.6-.1-1.2-.4-1.7-.4-.5-2.2-1.2-2.2-1.8 0-2.2-.4-4-2.2-3.5-1.9-.4-2.6 1.7-2.2 3.8-.9.5-1.4 1.4-1.5 3.1-.1 1.4-2.4 1.4-3.1 2-.6.6-.9 1.4-1 2.2-.1.6.1 1.2.6 1.6-.7.6-.9 1.6-.7 2.4.3 1.1 1.1 2.3 1.1 3.4 0 1.7-.3 3.3-.4 4.9s-.5 3.5-.1 5.1h-11.9V770h-5.2v-3.8h-1.3v-5.3h-1.1v-5.2h-2.4v-7.3h-3.1V735h2.5v-2.7h1.1v-2.2h-5.1V727h-3.7v-5.1h1.4v-3.6h-1.5V715h-1.8v-28.1h.8v-2.7h1.2v-1.8h-1.4v-2.5h-1.7v-5.3h-.2v-.1l-1.8-2.2V671c.4 0 .7-.3.7-.7 0-.4-.3-.7-.6-.7v-.7c0-.4-.3-.8-.6-.8s-.6.4-.6.8v.7c-.4 0-.7.3-.7.6 0 .4.3.7.7.7v1.3l-1.8 2.2.1.1h-1.1v-1h-1.2v-9.4h.3v-1.8h-1v-6.4c.2-.1.4-.3.3-.6 0-.3-.2-.6-.5-.6h-.6c0-.1.1-.2.1-.2 0-.2-.2-.5-.4-.5h-1l-1-6.5h.7v-1.2h-.7c-.1-2.1-1.4-4.1-3.4-4.9.8-.3 1.4-.7 1.4-1.3s-.8-1.2-1.9-1.4v-.4c1.1-.1 1.8-.4 1.8-.7s-.8-.6-1.8-.7v-3.6c.8-.5 1.2-1.4 1.2-2.3.2-1.2-.6-2.4-1.8-2.6-1.2-.2-2.4.6-2.6 1.8v.7c0 .9.4 1.8 1.2 2.3v3.6c-1.1.1-1.8.4-1.8.7s.8.6 1.8.7v.4c-1.1.2-1.9.8-1.9 1.4s.6 1 1.4 1.3c-1.9.9-3.2 2.8-3.3 4.9h-.7v1.2h.7l-1 6.5h-1c-.2 0-.4.2-.4.5 0 .1 0 .2.1.2h-.6c-.3 0-.5.3-.5.6 0 .2.1.5.3.6v6.5h-1v1.8h.3v9.4h-1.1v1h-1.1v-.1l-1.8-2.2v-1.3c.4 0 .7-.3.7-.7s-.3-.7-.7-.7v-.7c0-.4-.3-.8-.6-.8s-.6.4-.6.8v.7c-.4 0-.7.3-.7.6 0 .4.3.7.6.7v1.3l-1.8 2.2v.1h-.2v5.3h-1.6v2.5h-1.4v1.6h1.2v2.7h.8v28.1h-1.8v3.3h-1.5v3.6h1.4v5.1h-3.7v3.1h-5.1v2.2h1.1v2.7h2.5V748h-3.1v7.2h-2.4v5.3h-1.2v5.3h-6.1v2.9h2.1l2 4.9v2.7h-.8v2.5h-1.4l.9 2.3v.5h.2l1 2.5v49.5h-3.7l2.1 5.3h.4v1.3h1.2v221.9h-2.9v10h-5.9v17.4h367.8v-17.4h-4zm-336-357.3h-1.4v-28.1h1.4v28.1zm28.3 0h-1.4v-28.1h1.3l.1 28.1zm16.4 54.5.2-.4h.5l-.7.4zm58-40.2h-2v-46.4c.6.1 1.3.1 2 .2v46.2zm47.4-156.1h-.7v-16.4h.7V573zm14.2 0h-.7v-16.4h.7V573zm48.7 156.1h-2v-46.2l2-.2v46.4zm53.6 39.8h.5l.2.4-.7-.4zm18.3-54h-1.4v-28.1h1.4v28.1zm28.3 0h-1.4v-28.1h1.4v28.1z"/><path id="Vector_4" class="st2" d="M5503.6 363.5v7.3h9.6c-.6 1.7-1.2 3.5-1.8 5.2h-11.8v7.3h9.3c-30.5 90.9-55.5 217.8-55.5 347.7v313.8h-49.6V721.3c0-111.7 25.1-220.9 55.5-298.9h-9.3V416h11.8c.6-1.5 1.2-3 1.8-4.4h-9.6v-6.2h12.1c25.3-59.6 53.2-97.1 73.1-97.3-7.9 15.8-15.9 34.5-23.5 55.5l-12.1-.1z"/><path id="Vector_5" class="st3" d="M5645.9 706v343.3h-174.2v-333c0-137.7 19.7-272.5 43.6-368.9h-7.3v-7.6h9.3c.5-1.9 1-3.7 1.4-5.6h-7.4v-7.7h9.5c6-22.4 12.3-42.1 18.4-58.9h.1c15.7 0 37.6 39.9 57.5 103.2h9.5v6.6h-7.5c.5 1.6 1 3.2 1.4 4.8h9.3v6.6h-7.3c24 82.9 43.7 198.7 43.7 317.2z"/><path class="st4" d="M5596 727.9v333h-129.2v-333c0-137.7 19.6-272.5 43.2-368.9h-7.3v-7.6h9.2c.5-1.9 1-3.7 1.4-5.6h-7.4v-7.7h9.4c5.2-19.8 10.7-37.4 16.2-52.9 5.4 15.4 10.8 33.1 16.1 52.9h9.4v7.7h-7.3c.5 1.9.9 3.7 1.4 5.6h9.1v7.6h-7.2c23.6 96.4 43 231.2 43 368.9z"/><path id="Vector_7" class="st5" d="m5592.3 803.2-8.5 24.7c-4.7-10.8-9.7-21.7-14.7-32.2h23.2v-6.1h-23.6l12.5-33.8c3.8 9.1 7.5 18.3 11 27.5-.1-5.8-.1-11.7-.2-17.5-1.7-4.2-3.4-8.3-5.1-12.5h4.9c0-2.1-.1-4.1-.1-6.1h-7.5l6.9-17.6c-.2-5.3-.3-10.6-.5-15.8l-9.9 25.6c-4-9.1-8-18.1-12.1-27h21.9c-.1-2.1-.1-4.2-.2-6.1h-24.1l13.4-34.2c3.6 8.2 7.1 16.4 10.4 24.3-.3-5.9-.5-11.8-.8-17.7-1.2-2.8-2.5-5.8-3.8-8.7h3.3c-.1-2.1-.2-4.2-.3-6.1h-5.7l4.9-12.5-.9-14.4-7.5 19.1c-4.2-9.2-8.4-18.8-12.8-28.2h19.7c-.2-2.1-.3-4.2-.5-6.1h-21.8l12.2-29.6c3.1 7.4 6.1 14.6 9.1 21.8-.5-6.7-1-13.3-1.6-19.9-1.2-2.9-2.5-5.9-3.8-8.9h2.9c-.2-2.1-.4-4.2-.6-6.1h-1.4l1-4.2c-.6-6.1-1.2-12.3-1.8-18.3l-4.3 18.4c-4.5-10.5-9.2-21.4-14.1-32.5h17.1c-.2-2.1-.5-4.2-.7-6.1h-15.7l7.7-27c2.3 5.5 4.4 10.9 6.8 16.5-.9-7.9-2-15.8-3-23.6l-.2-.5h.1c-1.1-8.1-2.2-16-3.4-23.9l-2 11.2c-4.1-9.8-7.9-19.5-11.8-29.1h11.1c-.5-3-.9-5.9-1.4-8.9h-9.4l4.5-27.3c.1.2.2.5.3.7-2.3-12.4-4.6-24.3-7.1-36-1.8-4.8-3.5-9.6-5.2-14.2h2.1c-.5-2.1-.9-4.2-1.4-6.1h-2.9l-.5-1.3 1.1-7.8c-1.3-5.3-2.6-10.6-4-15.7l-1.6 10.9c-2.5-7.5-5-14.8-7.2-21.7h5.9c-.6-2.1-1.1-4.2-1.7-6.1h-6.1l-.1-.4.5-19.5c-2.4-7.6-4.8-15.1-7.3-22.2h-3.3l1.5-5.3c-1.1-3.4-2.5-6.7-3.7-9.9l-1.7 6-1.5-6.2 3.1-.1c-2.3-6.2-4.8-12.2-7.3-17.9-13.6 6.8-54.1 40.1-98.4 202.5-13.9 50.8-56.2 244-20.8 600.5l.7 6.5h183.9c.6-4.8 1-9.6 1.6-14.4h-11.7l3.8-9.2h8.9c.2-2.1.4-4.2.7-6.1h-7l7-16.9c.4 1 .8 2.1 1.1 3.1.8-8.7 1.5-17.5 2.2-26.2l-3.2 7.1c-3.9-9.2-8.5-19.6-13.7-30.6h18.5c.1-2.1.3-4.1.4-6.1h-19l15.1-32.7c1.8 4.3 3.6 8.6 5.2 12.7.3-4.8.5-9.6.8-14.5l-1.2-2.9h1.4c.1-2.1.2-4.1.3-6.1h-1.6l1.9-4.5c.3-6 .5-12 .8-18l-7.3 17.7c-4.5-10.3-9.3-20.9-14.4-31.8h22.2c.1-2.1.1-4.2.2-6.1h-22.3l14.9-31.1c2.6 6.3 5.2 12.6 7.7 18.9.1-5.2.3-10.4.3-15.7-1-2.6-2.2-5.2-3.2-7.7h3.3c0-2.1 0-4.1.1-6.1h-3.6l3.8-10.8c-.1-6.5-.1-12.8-.1-19.3zm-28.5-18.2c-5.3-10.7-10.7-21.3-16.1-31.6h27.7l-11.6 31.6zm-107.6 213.1-13.7-30.6h27.4c-5.1 11.1-9.7 21.3-13.7 30.6zm.3 16.1 7 17h-13c1.5-5.2 3.6-10.9 6-17zm62.7-634.6c3.3 9.5 7.1 19.7 11.5 31.5h-23.1c4.5-11.8 8.2-21.9 11.6-31.5zm0-19.7-6.8-27.2h13.5l-6.7 27.2zm-5.5 182.5c-2.9 5.6-8.5 16.2-15.7 30.7l-13.3-30.8 29 .1zm-27.2-6.3c4.6-10.5 9-20.2 12.9-29.1l14.5 29.2-27.4-.1zm-24.4 127.8c5-11.2 10.2-22.7 15.6-34.3l14.9 34.3h-30.5zm28 6.1c-4.8 9.4-9.6 19.1-14.3 29l-11.3-29h25.6zm-31.3-14-11.1-28.2h24c-4.4 9.4-8.6 18.9-12.9 28.2zm13.2 50.3h-27.5l-.2-.6c4.4-10.8 9.2-22.1 14.2-33.6l13.5 34.2zm-2.5 6c-4.1 8.8-8.1 17.8-12.1 27l-10.5-27h22.6zm.1 77.4h-26c4.3-11.2 8.9-22.6 13.5-33.8l12.5 33.8zm-.3 6.1c-5.1 10.6-10 21.3-14.7 32.2l-11.1-32.2h25.8zm0 79.3H5442c3.8-10.1 8-20.6 12.5-31.2l14.8 31.2zm-10.3-35.8h31.2c-5.6 10.7-10.8 21.3-15.9 31.9l-15.3-31.9zm0-6.2c4.8-11 9.9-22.3 15.2-33.2l16.2 33.2H5459zm3.8-79.7h27.7c-5.5 10.3-10.9 20.9-16.1 31.6l-11.6-31.6zm-2-6.1c4.7-11 9.6-22.2 14.7-33l15.4 33h-30.1zm20.6-35h32.4c-3.4 5.7-9.7 16.4-17.8 31.2l-14.6-31.2zm-2.2-6c5.7-11.9 11.3-23.6 17-34.6l17.9 34.6h-34.9zm4.4-78.6h29.9c-3.5 5.7-9.3 15.8-16.8 29.8l-13.1-29.8zm-2.2-6c5.4-11.4 10.9-22.9 16.4-34.1l16.5 34.1h-32.9zm12.4-42.9h-26c4.4-10.5 8.9-20.6 13.1-30.2l12.9 30.2zm-1.7 6.2c-4.8 9.8-9.5 19.6-14.1 29.4l-12-29.4h26.1zm-17.8 36.7h-24.5c4.1-9.7 8.2-19.7 12.4-29.6l12.1 29.6zm-29.1-5-5.6-31.9h19c-4.9 11.1-9.3 21.8-13.4 31.9zm10.3 47.1h-22.6c3.6-9.2 7.4-18.8 11.3-28.6l11.3 28.6zm-2.7 6.2c-4.1 9.2-7.8 18.3-11.6 27.2l-10.3-27.2h21.9zm1.1 77.3h-25.8c4.1-10.8 8.4-22.1 12.9-33.3l12.9 33.3zm-2.4 6c-4.2 10.3-8.4 20.4-12.3 30.5l-11.2-30.5h23.5zm-1.6 79.8h-21.7c3.5-10.4 7.1-20.8 10.8-31.2l10.9 31.2zm-.2 6.2c-4.2 9.9-8.2 19.9-12 29.7l-9.6-29.7h21.6zm.7 78.5h-23.1c3.1-10 6.7-20.4 10.5-30.8l12.6 30.8zm-8.4-36.6h27.5c-5.1 10.8-10 21.5-14.4 31.7l-13.1-31.7zm32.4 3.9 16.9 32.6h-31.6c4.4-10.4 9.4-21.3 14.7-32.6zm4.9-3.9h34.7c-3.1 5.7-9.7 17.8-17.6 33l-17.1-33zm0-6.2c5.2-10.8 10.7-21.7 16.2-32.4L5514 875h-34.7zm16.2-45.5-16.5-33.7h34.9c-3.6 6.1-10.2 18-18.6 33.8l.2-.1zm-16.3-39.8c5.4-11 11-22.1 16.7-32.7l18.2 32.7h-34.9zm21.8-36.3h36.6l-18.4 33-18.2-33zm0-6.1c8.3-15.4 14.9-26.4 18.3-32.2 3.4 5.7 9.9 16.8 18.3 32.2H5501zm1.5-77.3h33.6l-16.8 32.5-16.8-32.5zm-2.2-6.1c8.1-15.4 14.7-27.2 18.5-33.2l.5 1 .5-1c3.7 6 10.4 17.7 18.5 33.2h-38zm19-46.3-15.8-32.6h31.5l-15.7 32.6zm-17.2-38.8c7.8-15.8 13.9-27.5 17.1-33.6 3.2 6.1 9.2 17.7 17.1 33.6h-34.2zm1.5-77h31.1l-15.7 31.3-15.4-31.3zm.9-6.2c3.3-7.3 6.2-13.8 8.7-19.2l.6-1.3c2.5-5.6 4.3-9.4 5.5-12.1 1.1 2.6 2.8 6.2 5.1 11.3l.4.8c2.6 5.7 5.8 12.6 9.2 20.5h-29.5zm14.7-47-12.4-31.3h24.7l-12.3 31.3zm-11 24.1-8.5 18.7-9.6-31.3h23.8c-1.5 3.1-3.5 7.4-5.7 12.6zm-22.5-5.7 8.9 28.7h-20.5c3.9-9.7 7.8-19.2 11.6-28.7zm-3.5-49.8h16.5c-3.7 9.6-7.5 19.5-11.6 29.6l-4.9-29.6zm12.8 84.6c-4.2 9.2-8.7 19.3-13.6 30.4l-8.7-30.4h22.3zm-32.1 73-8-32.2.3-.8 21.9.2c-4.7 10.4-9.4 21.5-14.2 32.8zm-5.4 4h-17.1c3.5-9 7-17.8 10.4-26.4l6.7 26.4zm-20.5-8.5-4.7-28.7 15.8.1.1.4c-3.5 9.3-7.3 18.6-11.2 28.2zm-2.2 23.1 4.9 28.2H5424c3.3-8.7 6.7-17.9 10.8-28.2zm5.8 34.3c-4.3 10.7-8.5 21-12.4 30.9l-5.1-30.9h17.5zm-2.9 77.8-.3.7h-20.6c3.2-9 6.7-18.4 10.4-28.2l10.5 27.5zm-2.6 6.9c-3.8 9.5-7.5 19-10.9 28l-7.5-28h18.4zm-.4 77.3h-21.3c3.1-9.8 6.6-19.9 10.3-30.2l11 30.2zm0 6.1c-3.8 10.3-7.5 20.6-10.8 30.8l-10.4-30.8h21.2zm-10.8 50.6 9.2 28.7h-17.7c2.6-9.4 5.4-19 8.5-28.7zm9.3 34.8c-3.6 9.7-7 19.3-10 28.9l-7.8-28.9h17.8zm17.2 42.6c-4.5 10.8-8.7 21.3-12.4 31.3l-10.8-31.3h23.2zm4.7 4.7 15 32.7h-27.8c3.7-10.3 8-21.3 12.8-32.7zm4.6-4.7h31.7c-5.9 11.6-11.5 22.7-16.5 33.3l-15.2-33.3zm36.7 3.9 17.5 33.7h-34.1c5-10.7 10.6-22 16.6-33.7zm5-3.9h35.7l-17.8 34.5-17.9-34.5zm34.9 79h-34.1c7.2-14.4 13.8-26.7 17.1-32.6 3.1 5.9 9.7 18.1 17 32.6zm-34.7-85c7.8-15 14.2-27 17.6-33.2 3.5 6.3 9.9 18.2 17.6 33.2h-35.2zm-1-78.6h37.1l-18.5 32.6-18.6-32.6zm-.2-6.1c8.5-16 15.2-28.1 18.8-34.2 3.3 5.8 10.2 18.1 18.8 34.2h-37.6zm42.2-76.3c5.7 10.8 11.3 21.8 16.7 32.7h-34.9l18.2-32.7zm-.1-13.3c-8.1-14.9-14.4-25.7-17.8-31.2h32.4l-14.6 31.2zm-18.2-37.3 17.9-34.6c5.8 11.1 11.3 22.7 17 34.6h-34.9zm17.5-48.6c-7.5-14.1-13.3-24.2-16.8-29.8h29.8l-13 29.8zm-17.7-36 16.4-34.1c5.6 11.4 11.1 22.8 16.4 34.1h-32.8zm16.2-48.6c-7.3-14.4-12.7-25-15.7-30.7h28.8l-13.1 30.7zm-15.8-36.7L5539 507c4.1 9 8.4 18.8 13 29.3h-27.5zm14.2-44.9c-3.2-7.2-6.1-13.4-8.5-18.8s-4.3-9.5-5.7-12.5h23.8l-9.6 31.3zm7.6-40.3h-21.5l10.8-27.3c3.6 9.3 7.2 18.4 10.7 27.3zm-6.7-34h16.5l-4.9 29.6c-4-9.8-7.8-19.8-11.6-29.6zm-5-13.3c-4.3-11.4-7.7-20.8-10.8-29.6h15.4l-4.6 29.6zm-30.8 0-4.6-29.6h15.4c-3 8.8-6.5 18.3-10.8 29.6zm-1 20 10.8 27.3H5492c3.7-8.9 7.3-18 10.8-27.3zm-18.4-12.7c3.3-8.7 6.6-17.7 10.1-27.5l4.3 27.5h-14.4zm-3.6-8.4-1.9-28.4h12.1c-3.3 9.6-6.7 19.2-10.2 28.4zm-10.5 85.7-3.7-28.2h15.2c-3.7 9.2-7.6 18.6-11.5 28.2zm-1.9 21 7.6 26.6-18.4-.1c3.6-9.1 7.2-17.9 10.8-26.5zm-15.6 21.8-3.9-29.3h15.9c-3.9 9.5-7.9 19.3-12 29.3zm-6.1-43.8-4.2-27.3h15.6c-2.7 6.6-5.5 13.2-8.2 19.8l-3.2 7.5zm-3 23.2 3.4 25.1-13.5-.1c3.2-7.8 6.5-15.9 10.1-25zm-13.8 17.9-5.1-26.6h15.9c-4 9.9-7.5 18.5-10.8 26.6zm2.3 50.4h-14.9c3.3-9.1 6.7-18.2 10.4-27.8l4.5 27.8zm-.8 6.2c-3.8 9.9-7.4 19-10.6 27.6l-4.3-27.6h14.9zm-12.9 51.9 4.4 27h-14c3.2-9.2 6.5-18.3 9.6-27zm5.2 33.1c-3.7 9.5-7.1 18.8-10.4 27.5l-5.3-27.5h15.7zm-4.2 77.3h-16.6c2.7-8.8 5.8-18 9.2-27.6l7.4 27.6zm-.3 6.1c-3.5 9.5-6.7 18.9-9.7 27.9l-6.6-27.9h16.3zm.3 79.7h-18.7c2.5-9.7 5.3-19.9 8.4-30.4l10.3 30.4zm0 6.2c-3.1 9.7-5.9 19.2-8.6 28.5l-9.8-28.5h18.4zm-8.2 50.9 7.5 27.5h-13.9c2.1-9.4 4.2-18.6 6.4-27.5zm7.4 33.6c-2.7 9.1-5.3 18.3-7.6 27.3l-6.2-27.3h13.8zm4.4 7.3 10.4 30.3H5415c2.4-9.9 5.1-20.1 8.1-30.3zm10.4 36.4c-3.4 9.7-6.3 19.1-8.7 27.8l-9.5-27.9 18.2.1zm-7.8 50.3 4.2 13.2h-6.5c.6-4.1 1.5-8.5 2.3-13.2zm12.4-44.9 13.5 29.9h-22.4c2.5-9.4 5.5-19.5 8.9-29.9zm36.8-1.6 17.1 31.5h-31c4-9.5 8.6-20.1 13.9-31.5zm5-3.8h33.7c-3.4 6.2-9.6 17.9-16.5 31.7l-17.2-31.7zm17.1 45.6 8.1 17.9h-16.5c2.6-5.5 5.4-11.5 8.4-17.9zm4.9-4.1h34.4l-10.1 22.1h-14.3l-10-22.1zm39.3 4.1c3.1 6.3 5.8 12.4 8.4 17.9h-16.5l8.1-17.9zm-16.5-45.6h33.8l-17.2 31.7c-7.1-14-13.5-26-16.6-31.7zm-.2-6.2 17.4-33.7c6 11.7 11.6 23 16.7 33.7h-34.1zm-.2-80h34.7l-17.1 33c-7.9-15.4-14.4-27.4-17.6-33zm.1-6.2 18.5-32.4c5.6 10.8 11 21.6 16.2 32.4h-34.7zm0-79.3h34.9l-16.4 33.8c-8.2-15.7-14.9-27.7-18.5-33.8zm53.1-48.5h-30.1l15.4-33c5.1 10.9 10.1 22 14.7 33zm-15-48.4c-4.7-9.9-9.5-19.6-14.3-29h25.7l-11.4 29zm13.6-35h-30.5l14.9-34.3c5.5 11.4 10.7 23 15.6 34.3zm-15.9-49.6c-4.6-9.8-9.3-19.6-14.1-29.4h26.3l-12.2 29.4zm10.3-35.5h-26.1l13-30.2c4.3 9.7 8.7 19.7 13.1 30.2zm-13.5-46.7c-4.9-11-9.4-21.2-13.6-30.4h22.3l-8.7 30.4zm7.4-36.5h-20.5l8.9-28.7c3.8 9.6 7.6 19.1 11.6 28.7zm-19.8-115.9c3.7 10.2 7.5 20.7 11.7 31.4h-16.7l5-31.4zm-4.4-12.3-.1.7h-16.7l7.2-29.1c2.9 9 6.1 18.5 9.6 28.4zm-12.6-76.9-.4 15.8c-1.5-5.8-2.8-11-4-15.8h4.4zm-8.5 9.3c2 7.9 4.5 16.9 7.5 26.7h-14.2c2.6-9.4 4.8-18.1 6.7-26.7zm-5.6-21 1.4 5.6h-3.7l2.3-5.6zm1.5 11.7c-1.1 5.4-2.5 10.8-4 16.9l-.4-16.9h4.4zm-.2 77.6h-15.2c3.1-9.2 5.9-18.1 8.5-26.9l6.7 26.9zM5502 281c1.5-1.9 2.9-3.6 4.3-5.2l-1.1 7.2-.7 1.5h-4.1l1.6-3.5zm-2.7 9.6h2.6l-4.6 11.4 2-11.4zm5.4 9.9.7 26.1h-11.2l10.5-26.1zm-.5 32.2c-2.5 8.9-5.1 17.2-7.5 25l-3.6-25h11.1zm-14.1-24.6-3.2 18.6h-5l8.2-18.6zm-9.9 24.6h4.8l-5.2 12.9.4-12.9zm-1.1 30.9 9-22.2 3.8 26.8H5479l.1-4.6zm2.5 87.6h-13.2c3.2-7.7 6.3-15.6 9.3-23.2l3.9 23.2zm-16.4-8.4-2-25.6h12.2c-3.2 8.1-6.6 16.4-10.2 25.6zm-2.3-31.6-.1-7 10.4-25.7 2.2 32.6h-12.5v.1zm3-64.2c2.2-5.2 4.3-10.1 6.3-14.3h.4l-7 15.8.3-1.5zm7.8-1.3-.6 16.6-2.4 5.9h-7l10-22.5zm-5.4 28.6-5.8 14.1-.3-14.1h6.1zm-3.1 121.4h-15.1l5.3-12.7 6.2-14.9 3.6 27.6zm-5.5-44.5h-15.8l13.4-33 2.4 33zm-3.4-65.9.4 17.6-3.3 8.1h-8.4l11.3-25.7zm-14.1 31.9h8.6l-10.4 25.7-2-17.1 3.8-8.6zm-.3 78.5h-16.1l11.7-28.8 4.4 28.8zm-8-55.4 1.2 10.8h-4.3c1.2-3.6 2.1-7.2 3.1-10.8zm-9.2 34.6c1.2-5.2 2.5-10.1 3.7-14.7h5.1l-8.9 22 .1-7.3zm-9.4 46.6 4.8-11.8 5 25.9-12.1-.1c.7-4.9 1.5-9.6 2.3-14zm-3.3 20.2 12.7.1c-3.9 9.9-7.5 19.2-10.8 28.5l-3.4-18.7c.5-3.5 1-6.7 1.5-9.9zm-4.2 29.6 1.4 7.7h-2.3c.3-2.6.6-5.3.9-7.7zm-1.7 13.8h2.5c-1.2 3.6-2.5 7.2-3.7 10.8.5-3.7.9-7.4 1.2-10.8zm5.7 9.7 4.2 27h-12.9c2.6-8.8 5.5-17.7 8.7-27zm3.5 33.1c-3 8.1-6 16.8-9.3 26l-3.5-26h12.8zm-15.6 26.1 1.2 10h-2c.3-3.5.5-6.8.8-10zm-1.1 16.1h1.6c-.7 2-1.3 3.9-2 5.8.2-1.9.3-3.9.4-5.8zm-1.8 34.6c0-1.8.1-3.6.2-5.4 2.2-6.7 4.4-13.4 6.6-20l5.2 27.2h-12.1l.1-1.8zm-.4 8.7v-.9h11.7c-3.1 8.9-6 17.5-8.6 25.4l-3.5-16.3c.3-2.8.4-5.5.4-8.2zm-1.4 60.8c1-4 2.2-8.1 3.5-12.5l6.6 27.9h-10.2c0-5.1.1-10.2.1-15.4zm-.1 21.6h10c-2.9 9.2-5.5 18.4-7.8 27.1l-2.1-9.2c0-6.2 0-12.1-.1-17.9zm.9 59.1c.5-2.5 1-5 1.6-7.5l9.5 27.6h-10.5c-.1-6.8-.3-13.5-.6-20.1zm.9 26.3h10.6c-2.3 9-4.6 18.2-6.8 27.7l-3-9.6c-.3-6.1-.5-12.1-.8-18.1zm3.2 62.7c.5-2.6.9-5.4 1.4-8l5.8 25.5h-6c-.5-5.9-.8-11.7-1.2-17.5zm1.5 23.5h5.7c-1.5 6.6-2.9 13.3-4.2 20.1-.5-6.7-.9-13.4-1.5-20.1zm10.1 8.5 9.2 27h-14.3c1.5-8.7 3.1-17.7 5.1-27zm-3.4 70.3c-.2-2-.4-3.9-.6-5.8l-.3-3.3h1.1c1 3.3 2.1 6.2 3 9.2h-3.2zm7.9-5.6-1.1-3.4h1.6l-.5 3.4zm1.2-9.5h-4.3c-2.1-6.9-4.2-14.3-6.2-22.1h14.7c-1.9 7.7-3.2 15.2-4.2 22.1zm4.4 15.1 1.1-9.1h9.2l2.7 9.1h-13zm18.8-2.9-2-6.2h3.8l-1.8 6.2zm-3.9-12.3-7-22.1h22.5c-3.2 8.2-5.8 15.7-7.8 22.1h-7.7zm9.4 15.2 2.6-9.2h17.4l3.8 9.2h-23.8zm30.1-1.1-3.3-7.9h6.6c-1.2 2.7-2.3 5.4-3.3 7.9zm-5.8-14.1-9.2-22.1h31.2c-3.8 7.8-7.3 15.3-10.3 22.1h-11.7zm11.9 15.2c1.1-2.8 2.5-5.9 3.8-9.2h22l4.2 9.2h-30zm37.2 0h-.5l-4.2-9.2h8.8l-4.1 9.2zm6.8 0 4.2-9.2h22c1.4 3.3 2.6 6.3 3.8 9.2h-30zm36.1-1.1c-1-2.5-2.2-5.3-3.3-7.9h6.6l-3.3 7.9zm5.9-14.1h-11.8c-3-6.8-6.5-14.2-10.3-22.1h31.2l-9.1 22.1zm9.2-28.3h-31l17.1-31.5c5.2 11.4 10.1 21.8 13.9 31.5zm-13.9-45.7c-5.1-10.6-10.7-21.7-16.5-33.3h31.7l-15.2 33.3zm15.2-39.3H5547l16.9-32.6c5.3 11.2 10.3 22.1 14.7 32.6zm-14.7-46.7c-5.1-10.5-10.5-21.2-15.9-31.9h31.2l-15.3 31.9zm-16-37.9 16.3-33.1c5.3 11 10.3 22.2 15.2 33.3l-31.5-.2z"/><path id="Vector_8" class="st6" d="M5624.7 453.7c-51.3-188.5-97.6-203.1-102.7-204.1l-1.2-.3-.8.1-.8-.1-1.3.3c-1.5.4-3 .9-4.3 1.6 2.5 5.7 4.9 11.7 7.3 17.9h.1l-.1.2c1.2 3.2 2.5 6.5 3.7 9.9l.3-1.1 2.5 6.3v.1h-1c2.5 7.1 5 14.5 7.3 22.2l.2-6.6 10.8 26.5h-5.1c.6 2.1 1.1 4.1 1.7 6.1h4.4l-1.6 10.8c1.3 5.1 2.6 10.3 4 15.7l2.7-17.9 11 27h-11.6c.5 2.1.9 4.1 1.4 6.1h11.1l-3.8 25.8c-1.5-3.9-2.9-7.7-4.3-11.5 2.5 11.6 4.9 23.7 7.1 36 4.7 12 8.6 21.4 10.7 26.6h-6c.5 2.9.9 5.9 1.4 8.9h5.8l-3.1 17.7c1.1 7.8 2.3 15.8 3.4 23.9h15.8l-3.9 29.3c-4-9.8-7.9-19.4-11.8-29 1 7.7 2.1 15.7 3 23.6l4.2 10.5h-3c.3 2.1.5 4.1.7 6.1h4.8l.1.3-3.5 13.8c.7 6 1.2 12.2 1.8 18.3l5.6-22.4c3.5 8.7 7 17.5 10.5 26.4h-15.7c.2 2.1.4 4.1.6 6.1h15.9l-5.5 32.1c-3.1-7.5-6.3-15.2-9.6-23 .6 6.6 1.1 13.2 1.6 19.9 1.1 2.6 2.2 5.3 3.3 7.9h-2.6c.2 2.1.3 4.1.5 6.1h4.2l-3.6 9.1c.3 4.8.7 9.6.9 14.4l6.3-16c4 9.8 7.8 19.3 11.3 28.6h-16.9c.1 2.1.2 4.2.3 6.1h18.5l-10.3 27.2c-2.5-6-5.1-12.3-7.8-18.5.3 5.8.6 11.8.8 17.7 1.2 3.1 2.5 6.2 3.8 9.2l-.3.6h-3.2c.1 2.1.2 4.1.2 6.1h.7l-.6 1.4c.2 5.3.4 10.6.5 15.9l6-15.7c4.5 11.4 8.9 22.5 12.9 33.3h-18.5c0 2.1.1 4.1.1 6.1h18.5l-11.2 30.5c-2.4-5.9-4.6-12-7.1-18 .1 5.8.2 11.6.2 17.5.8 2.1 1.6 4.2 2.5 6.3h-2.4v6.1h2.6l-2.5 7.5c0 6.4 0 12.8-.1 19.1l7.1-20.5c3.8 10.3 7.5 20.8 10.8 31.2h-18.1c0 2.1 0 4.2-.1 6.1h18.2l-9.6 29.7c-2.7-7.3-5.7-14.6-8.8-22-.1 5.3-.2 10.5-.3 15.7 1.7 4.2 3.3 8.3 4.8 12.4h-5.1c-.1 2.1-.1 4.2-.2 6.1h5.3l-5.8 14c-.2 6-.5 12.1-.8 18l10.8-26.4c3.8 10.6 7.4 20.9 10.5 30.8h-21.5c-.1 2.1-.2 4.2-.3 6.1h21.8l-10.8 31.3c-3.4-9.1-7.1-18.6-11.1-28.5-.3 4.9-.5 9.7-.8 14.5 2.7 6.8 5.3 13.5 7.5 20h-8.9c-.1 2.1-.3 4.2-.4 6.1h8.9l-10.6 23.5c-.7 8.9-1.4 17.5-2.2 26.2 1.9 5 3.5 9.5 4.8 13.8h-6c-.2 2.1-.4 4.2-.6 6.1h8.6l2.7 9.1h-12.2c-.5 4.9-1 9.7-1.5 14.4h66.1l.7-6.5c35.5-355.7-6.9-549-20.7-599.8zm-91.6-171-1.4-8.7c1 1.1 2.1 2.3 3.1 3.5l3.1 7h-4.1l-.7-1.8zm3.3 7.9h2.5l2 11-4.5-11zm11.8 16.9 8.5 19.1h-5.1l-3.4-19.1zm5.4 25.2h5.1l1.9 17-7-17zm90.7 422.5c-.2-.6-.4-1.1-.6-1.8h.5c.1.6.1 1.3.1 1.8zm-.2-8h-1l.9-4.3c0 1.5.1 2.9.1 4.3zm-.8-30.8-4.4 21.3c-2.6-7.9-5.5-16.5-8.7-25.4h12.9l.2 4.1zm-23.8 207.4h13.9l-6.1 27.3c-2.4-9-5-18.2-7.8-27.3zm12.3 79h-14.4l9.2-27c2.1 9.4 3.8 18.3 5.2 27zm-12.3-85.1 7.5-27.5c2.3 9 4.4 18.2 6.4 27.5h-13.9zm-.8-78.5h18.4l-9.8 28.5c-2.6-9.3-5.5-18.9-8.6-28.5zm0-6.1 10.3-30.4c3.2 10.5 6 20.7 8.4 30.4h-18.7zm10-51.8c-3-9.1-6.2-18.5-9.7-27.9h16.3l-6.6 27.9zm-33.9-273.1c3.4 8.8 7 18.2 10.7 27.9H5591l3.8-27.9zm-12.4-48.3h13.7l-4 24.4c-4.1-10.7-7.5-19.1-9.7-24.4zm16.4 41.7h15l-5.1 25.7c-3.4-9-6.8-17.6-9.9-25.7zm11.9 48.8c3.7 10 7.2 19.5 10.3 28.3h-14.9l4.6-28.3zm11.1 34.4-4.3 27.6c-3.3-8.9-6.8-18-10.6-27.6h14.9zm-1.9 51.9c3.5 9.4 6.6 18.4 9.6 27.1h-14l4.4-27.1zm10.2 33.3-5.3 27.5c-3.2-8.8-6.7-18.1-10.4-27.5h15.7zm-3.9 49.7c3.3 9.6 6.4 18.9 9.2 27.6h-16.6l7.4-27.6zm16.6-13.5h-13.3l5.2-27.2c2.8 8.3 5.5 16.3 8 24.2l.1 3zm-1.2-26.1c-1.1-3.4-2.3-6.8-3.5-10.1h2.8c.3 3.3.5 6.7.7 10.1zm-2.1-32.1c.4 5.3.8 10.7 1.1 15.9h-3.2l2.1-15.9zm-7.1 5.7c-3-8.5-6.1-17.3-9.3-25.9h12.7l-3.4 25.9zm-10.1-32 4.2-26.9c3.5 10.1 6.3 19.1 8.7 26.9h-12.9zm13-20.2c-1.7-5.2-3.6-10.7-5.7-16.5h3.8c.7 5.3 1.4 10.9 1.9 16.5zm-3.8-32.8c.5 3.3.8 6.7 1.2 10.1h-3.5l2.3-10.1zM5629 551l-4.3 19.8c-3.2-8.9-6.7-18.5-10.4-28.5h13.4c.5 2.8.9 5.8 1.3 8.7zm-4.5-28.4c.8 4.3 1.5 9 2.3 13.7h-13.6l5.6-27.8 5.7 14.1zm-10-49.4v8.6l-8.9-21.6h5.6c1 3.6 2.2 8 3.3 13zm-5.8-22h-5.7l-.6-21.5c2.3 6.9 4.4 14 6.3 21.5zm4.8 44.4h-16.9l4.8-29.6 12.1 29.6zm-16.9-57.5-8.5-20.8h7.9l.6 20.8zm-2.3-27h-8l-1.7-21.7 9.7 21.7zm-9.4 14.6 10.4 25.5h-14.2l3.8-25.5zm-6-30.9-8.4-20.5h6.8l1.6 20.5zm-10.2-26.6-2.2-19.3 8.6 19.3h-6.4zm-1.2-35.5.4.8 1.8 7-3.5-7.7 1.3-.1zm-2.9-6.1h-.8l-1.1-4.2 1.9 4.2zm2.8 56.3 11.6 28.2h-15.7l4.1-28.2zm-2.1 34.3h14.6l-4.1 26.9c-2.3-6.5-6.1-15.7-10.5-26.9zm8.2 78.5 5.1-28.9c2.7 6.8 6.7 16.9 11.3 28.9h-16.4zm16.6 46.8h15.8l-4.6 27.9c-3.7-9.5-7.4-18.9-10.9-27.9h-.3zm13.4 50.9c3.8 9.9 7.4 19.2 10.8 28.2h-15.7l4.9-28.2zm-5.8 34.5h17.4l-5.1 30.9c-3.8-10.1-8-20.4-12.3-30.9zm2.8 77.7 10.4-27.5c3.8 9.8 7.3 19.2 10.5 28.2h-20.7l-.2-.7zm2.8 6.9h18.5l-7.5 28.1c-3.4-9.2-7.1-18.7-11-28.1zm11.4 47.2c3.7 10.3 7.1 20.4 10.3 30.2h-21.1l10.8-30.2zm-11 36.2h21.3l-10.4 30.8c-3.5-10.3-7.1-20.6-10.9-30.8zm10.8 50.6c3 9.7 5.9 19.3 8.5 28.7h-17.7l9.2-28.7zm-9.3 34.9h17.7l-7.7 28.9c-3.1-9.6-6.4-19.3-10-28.9zm10 49.9c3 10.3 5.8 20.5 8.1 30.3h-18.5l10.4-30.3zm7.9 36.3-9.5 27.8c-2.5-8.7-5.3-18-8.7-27.8h18.2zm-8.1 63.6h-6.5l4.2-13.3c.8 4.7 1.6 9.1 2.3 13.3zm-14.8-58.2c3.5 10.5 6.5 20.6 9 29.9h-22.4l13.4-29.9zm-2.1 70.5-1.8-6.2h3.8l-2 6.2zm-3.7-12.3c-2-6.5-4.6-14-7.8-22.1h22.5l-7 22.1h-7.7zm9.2 15.1 2.9-9.2h9.2l1.1 9.2h-13.2zm18.8-5.6-.4-3.4h1.5c-.4 1.2-.8 2.3-1.1 3.4zm-1.1-9.6c-.9-6.8-2.3-14.3-4.2-22.1h14.6c-2 7.8-4.2 15.3-6.2 22.1h-4.2zm10.9 8.9-.6 6.3h-4.6c.9-2.8 2-5.8 3-9.2h2.4l-.2 2.9zm1.1-11.8-.3 2.8h-1c.5-1.7 1-3.4 1.5-5.2-.1.9-.2 1.7-.2 2.4zm3.4-39.7c-.2.8-.4 1.6-.6 2.5-1.4-7.9-3-15.8-4.8-23.5h7c-.6 7.1-1.2 14-1.6 21zm2-28.8-.1 1.6h-7.4l5.8-25.4c.8 4.5 1.6 9.1 2.3 13.8-.2 3.4-.4 6.7-.6 10zm4.1-75.8c-.1 3.7-.3 7.3-.4 11l-4.5 14.1c-2.2-9.5-4.3-18.8-6.8-27.7h11.8l-.1 2.6zm.4-8.8h-11.7l9.5-27.6c1 4.5 1.9 8.9 2.6 13.1-.1 4.8-.3 9.7-.4 14.5zm1.5-67.5-3.3 15.3c-2.3-8.8-4.9-17.8-7.8-27.1h11.2c-.1 4-.2 7.8-.1 11.8zm-11.4-17.9 6.6-27.9c1.7 6 3.3 11.9 4.7 17.5v10.5h-11.3v-.1z"/></g><path class="st5" d="M1245.4 1034.9 1104.2 8.8l-3.4 45-7.8-45.3-4.5 21-3.8-21.1-9.6 46-11.6-46-136.8 1026.5z"/><path class="st4" d="m1206.3 751.1-7.4-53.6H971.7l-7.1 53.6h241.7zm-80.9-588.6H1043l-.6 4.5h83.6l-.6-4.5zm-1.6-11.1-.6-4.5h-78.1l-.6 4.5h79.3zm-2.2-15.7-.6-4.4h-73.9l-.6 4.4h75.1zm-2.1-15.7-.6-4.4h-69.7l-.6 4.4h70.9zm-2.2-15.6-.6-4.5h-65.4l-.6 4.5h66.6zm-2-15.7-.6-4.5h-61.2l-.6 4.5h62.4zm-2.2-15.7-.6-4.5h-57l-.6 4.5h58.2zm16.9 123h-91.6l-1.2 8.9h93.9l-1.1-8.9zm18.2 132.8h-127.4l-2.4 17.9h132.3l-2.5-17.9z"/><path style="fill:#2f9ab2" d="M926.7 1034.9 1063.5 8.4l11.6 46-23.5 980.5z"/><path class="st2" d="m964.5 751.1 7.1-53.6h88l-1.2 53.6h-93.9zm108.1-588.6H1043l-.6 4.5h30.1l.1-4.5zm-28.1-11.1.6-4.5h27.9l-.1 4.5h-28.4zm2.1-15.7.6-4.4h26.2l-.1 4.4h-26.7zm2-15.7.6-4.4h24.5l-.1 4.4h-25zm2.1-15.6.6-4.5h22.8l-.1 4.5h-23.3zm2.1-15.7.6-4.5h21l-.1 4.5h-21.5zm2-15.7.6-4.5h19.3l-.1 4.5h-19.8zm16.9 123.1h-33.2l-1.2 8.9h34.2l.2-8.9zm-3.1 132.9h-47.7l-2.4 17.9h49.7l.4-17.9z"/><path class="st6" d="m1100.8 53.8 88.1 981.1h56.5L1104.2 8.8z"/><path class="st3" d="m1158.7 697.5 4.8 53.6h42.9l-7.4-53.6h-40.3zm-33.3-535h-14.8l.4 4.5h14.8l-.4-4.5zm-23.1-93.8.4 4.5h10.4l-.6-4.5h-10.2zm1.4 15.7.4 4.5h11.2l-.6-4.5h-11zm1.3 15.7.4 4.5h11.9l-.6-4.5H1105zm1.5 15.6.4 4.4h12.7l-.6-4.4h-12.5zm1.4 15.7.4 4.4h13.4l-.6-4.4h-13.2zm1.4 15.6.4 4.5h14.3l-.6-4.5h-14.1zm20.8 49.3h-16.4l.8 8.9h16.8l-1.2-8.9zm18.2 132.8h-22.7l1.6 17.9h23.5l-2.4-17.9z"/><path class="st1" d="M5311.2 1067.1v-63.3h-3.5v-8.2H5297v8.2h-4.2v-8.2H5282v8.2h-4.2v-8.2H5267v8.2h-4.2v-8.2H5252v8.2h-4.2v-8.2H5237v8.2h-4.2v-8.2h-7.1v-38.9h1.6v-4.1h-1.6v-23.3h1.6v-4.1h-1.6v-23.4h1.6v-4.1h-1.6v-23.5h1.6V870h-1.6v-23.4h1.6v-4.1h-1.6v-37.2h3.4v-3.9h1.4V798h-8.7v-7.6h1.8v-3.6h1.3v-3.1h-7.8v-40.1h2.4v-3.5h1.1V737h-3.6v-23h2.4v-3.5h1.2v-3.1h-3.6v-59.3h2.4v-3.5h1.2v-3.1h-3.6v-52.8h2.4v-3.5h1.2v-3.1h-3.1V571h1.9v-2.6h-.8c0-1.5.3-3.4-1-4.6-.8-.8-2.2-1.3-3-2.1 1-.4 2-1.2 1.7-2.4-.1-.8-.6-1.4-1.2-1.7-.5-.2-1.3-.2-1.7-.6h1.8v-6.8h-1.3l-4.2-28.5h.7v-1.4h-1l-.5-3.4h1v-1.4h-1.2l-.2-1.5h1v-1.4h-1.2l-.5-3.2c.7-.1 1.1-.8 1-1.6-.1-.7-.8-1.2-1.5-1-.7.1-1.1.8-1 1.6.1.5.5.9 1 1l-.5 3.2h-1.1v1.4h1l-.2 1.5h-1.1v1.4h1l-.5 3.4h-.9v1.4h.7l-4.2 28.5h-1.3v6.8h1.8c-.4.4-1.3.4-1.7.6-.7.3-1.2 1-1.3 1.8-.2 1.2.7 2 1.7 2.4-.8.8-2.2 1.3-3 2.1-.1.1-.2.2-.3.4l-3.5-3.7-3.8 4v4h-3.1v-4l-3.8-4-3.8 4v4h-3.1v-4l-3.8-4-3.8 4v4h-3.1v-4l-3.8-4-3.8 4v4h-3.1v-4l-3.8-4-3.5 3.7c-.1-.1-.2-.3-.3-.4-.8-.8-2.2-1.3-3-2.1 1-.4 2-1.2 1.8-2.4-.1-.8-.6-1.4-1.3-1.8-.5-.2-1.3-.2-1.8-.6h2v-6.8h-1.3l-4.2-28.5h.7v-1.4h-1l-.5-3.4h1v-1.4h-1.2l-.2-1.5h1v-1.4h-1.2l-.5-3.2c.7-.1 1.1-.8 1-1.5-.2-.7-.8-1.2-1.5-1-.7.1-1.1.8-1 1.5.1.5.5 1 1 1.1l-.5 3.2h-1.2v1.4h1l-.2 1.5h-1.2v1.4h1l-.5 3.4h-1v1.4h.7l-4.2 28.5h-1.3v6.8h1.8c-.4.4-1.3.4-1.7.6-.7.3-1.1 1-1.2 1.8-.3 1.2.7 2 1.7 2.4-.8.8-2.2 1.3-3 2.1-1.2 1.2-1 3-.9 4.6h-.9v2.6h1.9v11.1h-3.1v3.1h1.2v3.5h2.4v52.8h-3.6v3.1h1.2v3.5h2.4v59.3h-3.6v3.1h1.2v3.5h2.4v23.3h-3.6v3.1h1.2v3.5h2.4v26h-7.3l-27.3-47.1c1-.4 1.5-1.5 1.2-2.6-.3-.8-1.1-1.4-2-1.3h-.8v-3.3c1.4-.5 2.2-2.1 1.8-3.6-.3-.9-.9-1.6-1.8-1.8v-3.3h1.8c.6 0 1-.5 1-1.1 0-.6-.4-1.1-1-1.1h-1.8v-2.6c0-.5-.5-.9-1-.8-.4 0-.8.4-.8.8v2.5h-1.8c-.6 0-1 .5-1 1.1 0 .6.4 1.1 1 1.1h1.8v3.3c-1.4.5-2.2 2.1-1.8 3.6.3.9.9 1.6 1.8 1.8v3.3h-.8c-1.1-.1-2 .8-2.1 1.9-.1.9.5 1.7 1.3 2L5061 770h-6.7v-26h2.4v-3.5h1.1v-3.1h-3.6V714h2.4v-3.5h1.2v-3.1h-3.6v-59.3h2.4v-3.5h1.2v-3.1h-3.6v-52.8h2.4v-3.5h1.2v-3.1h-3.2V571h1.9v-2.6h-.8c0-1.5.3-3.4-1-4.6-.8-.8-2.2-1.3-3-2.1 1-.4 2-1.2 1.8-2.4-.1-.8-.6-1.4-1.3-1.8-.5-.2-1.3-.2-1.7-.6h1.8v-6.8h-1.2l-4.2-28.5h.7v-1.4h-1l-.5-3.4h1v-1.4h-1.2l-.2-1.5h1v-1.4h-1.2l-.5-3.2c.7-.1 1.1-.8 1-1.5-.1-.7-.6-1.1-1.3-1.1-.7 0-1.3.6-1.3 1.3 0 .6.4 1.2 1 1.3l-.5 3.2h-1.2v1.4h1l-.2 1.5h-1.2v1.4h1l-.5 3.4h-1v1.4h.8l-4.1 28.5h-1.3v6.8h1.8c-.4.4-1.3.4-1.7.6-.7.3-1.2 1-1.3 1.8-.3 1.2.7 2 1.7 2.4-.8.8-2.1 1.3-3 2.1-.1.1-.2.2-.3.4l-3.5-3.7-3.8 4v4h-3.1v-4l-3.8-4-3.8 4v4h-3.1v-4l-3.8-4-3.8 4v4h-3.1v-4l-3.8-4-3.8 4v4h-3.1v-4l-3.8-4-3.5 3.7c-.1-.1-.2-.3-.3-.4-.8-.8-2.2-1.3-3-2.1 1-.4 2-1.2 1.7-2.4-.1-.8-.6-1.4-1.3-1.8-.5-.2-1.3-.2-1.7-.6h1.9v-6.8h-1.3l-4.1-28.5h.7v-1.4h-1l-.5-3.4h1v-1.4h-1.2l-.2-1.5h1v-1.4h-1.2l-.5-3.2c.7-.1 1.1-.9 1-1.6-.1-.7-.8-1.2-1.5-1-.7.1-1.1.9-1 1.6.1.5.5.9 1 1l-.5 3.2h-1.2v1.4h1l-.2 1.5h-1.2v1.4h1l-.5 3.4h-1v1.4h.7l-4.1 28.5h-1.3v6.8h1.8c-.4.4-1.3.4-1.7.6-.7.3-1.2 1-1.2 1.8-.3 1.2.7 2 1.8 2.4-.8.8-2.2 1.3-3 2.1-1.2 1.2-1 3-1 4.6h-.8v2.6h1.9v11.1h-3.1v3.1h1.2v3.5h2.4v52.8h-3.6v3.1h1.2v3.5h2.4v59.3h-3.6v3.1h1.2v3.5h2.4v23.3h-3.6v3.1h1.2v3.5h2.4V784h-7.8v3.1h1.3v3.5h1.8v7.6h-8.7v3.4h1.4v3.9h3.4v61.8h-32.4l-2.5-17.9-2.5 18.5-5.4-31.9-5.6 33.6-1.8-10.1-5.9 32.8h-2.6V909h-4.5v60.1h-3.6v98.3l421.5-.3z"/></svg>