<svg id="Layer_1" data-name="Layer 1" xmlns="http://www.w3.org/2000/svg" viewBox="0 0 3860.5 2398"><defs><style>.cls-1{fill:#595959;}.cls-2{fill:#4d4d4d;}.cls-3{fill:none;stroke:#000;stroke-miterlimit:10;opacity:0;}</style></defs><g id="skyline1"><path class="cls-1" d="M3852.82,1663c-23.44-125.42-158.31-222.9-324.37-230.34l-.29-.11-.06.09-1.8-.08,0-.09-.3.08q-8.92-.35-18-.35c-175.34,0-320.41,100.28-344.83,230.81H3156v25.33h704V1663h-7.18Zm-669.8,0q-1.8-6-3.23-12.12c1.13-1.37,2.28-2.73,3.43-4.07l5.9,1c-1.69,6.29-3.21,12.61-3.83,15.22H3183Zm-3.88-15-.42-2,1.86.32Zm5.75-3.15q3.65-4.14,7.46-8.13c-.84,2.5-1.77,5.68-2.68,9Zm12.85-13.07V1663h-8.81A204.21,204.21,0,0,1,3197.74,1631.78Zm81.93-108.37c58.44-45.7,139.15-74,228.32-74s169.88,28.26,228.32,74c30.28,23.68,54.56,52,70.94,83.56h-4.53a22.72,22.72,0,0,0-5-6.84,60.63,60.63,0,0,0-14.78-9.83c-10.93-5.47-25.75-10.49-43.82-15-27.09-6.72-61.48-12.22-100.78-16s-83.53-6-130.29-6c-81.44,0-155.17,6.51-208.64,17.06-26.74,5.28-48.41,11.56-63.51,18.6-7.54,3.53-13.46,7.24-17.53,11.16a22.72,22.72,0,0,0-5.05,6.84h-4.54C3225.11,1575.44,3249.4,1547.09,3279.67,1523.41Zm-71.38,77.28q.12-3.95.41-7.92l3.42,1.26Q3210.16,1597.35,3208.29,1600.69Zm15-26c1.07-.65,2.13-1.31,3.21-2-.64.84-1.26,1.69-1.89,2.54Zm12.63-13.73q-2.49,2.93-4.88,5.91c.56-2.49,1.17-5,1.84-7.5Zm-2.42-3.89c.29-1,.58-2.06.89-3.08q7.1-3.69,14.32-7-5.85,6-11.24,12.2Zm67.64-52.51q-6.78,4.35-13.26,9,3.61-5.89,7.68-11.72l2.15-.55Zm-.56-4c3.75-.91,7.49-1.77,11.25-2.57-2.87,1.7-5.72,3.42-8.53,5.19Zm-16.44,14.57-9-7.44q8.43-2.67,16.91-5Q3287.81,1508.88,3284.12,1515.11Zm-18.35,15.77q-5.83,5-11.32,10.33,2.76-7,6.13-14Zm-4-5.82q9.84-3.75,19.78-6.91-2.2,1.66-4.37,3.34-4.86,3.81-9.52,7.77Zm76.56-46.32,2.87,3.8q-9.34,4.35-18.28,9.17l-.94-1.06q4.72-5.57,9.93-11C3334,1479.31,3336.19,1479,3338.32,1478.74Zm-4.19-1.43c.58-.6,1.17-1.19,1.77-1.79l1.07,1.41Zm7.17,1.06q6.13-.73,12.21-1.29c-3.34,1.41-6.64,2.85-9.9,4.35Zm21.93-9.2-2.72-4.32c2.84-.19,5.68-.35,8.5-.49C3367.05,1466,3365.12,1467.56,3363.23,1469.17Zm9.48-5q5.85-.23,11.64-.27l.77,1.51q-10.11,3.21-19.87,6.94l-.83-1.31C3367.11,1468.75,3369.88,1466.47,3372.71,1464.21Zm-10,9.13-1.65.65,1.32-1.17Zm24.64-9.42H3390l-2.29.7Zm21.15-11.66-.86-2.11,3.9.22C3410.53,1451,3409.52,1451.62,3408.52,1452.26Zm6.75-1.65q8.19.59,16.2,1.49l.47,1.61q-10.65,2-21,4.51l-1.6-4C3411.28,1453,3413.26,1451.81,3415.27,1450.61Zm-7,8.27q-4.93,1.24-9.81,2.6,4.18-2.89,8.55-5.71Zm26.21-6.44,2.68.33-2.45.43Zm23.6-7,2.41-1.07q8.7,1.58,17.13,3.5-9.42.68-18.69,1.77Zm49.94-4.33q9.28,2.84,18.14,6.06-9-.39-18.11-.39Zm26.6,6.51q8.42-2,17.13-3.71l3.41,1.48-.74,4Q3544.59,1448.2,3534.6,1447.58ZM3574,1452c1.67-.24,3.34-.46,5-.68l-.42,1.45Zm30.61.06c-1.57-1-3.15-1.92-4.75-2.86q3-.23,6-.41Zm1.56,3.5q3.84,2.42,7.53,4.9c-2.85-.76-5.71-1.5-8.59-2.2Zm15.56,7.15c1.52,0,3-.05,4.58-.06l-.62,1.24C3624.4,1463.45,3623.08,1463.05,3621.76,1462.67Zm27.3,7.53-.78,1.26q-9.8-3.66-20-6.81l1-2.05q5.22,0,10.49.15C3643,1465.2,3646.07,1467.68,3649.06,1470.2Zm-5.51-7.33c3.23.12,6.48.27,9.73.47l-3.05,5Q3647,1465.56,3643.55,1462.87Zm26.48,17.49q-6.18-2.77-12.53-5.34c5.11.38,10.26.86,15.41,1.44Zm5.86-3.55,4.18.53q6,6.11,11.44,12.39l-.67.76q-9-4.76-18.38-9Zm34.69,25q-5.05-3.13-10.28-6.13c4.5.9,9,1.89,13.52,3Zm6.11-2.47,1.06.26c3,4.13,5.76,8.28,8.36,12.46q-6.51-4.57-13.34-8.89Zm29.8,28.35c-2.51-2.1-5.07-4.18-7.68-6.21s-5-3.86-7.6-5.75l.42-.35q9.81,3,19.54,6.58l.87,1.71Zm6.64-1.83q3.13,6.4,5.76,12.81-5.1-4.79-10.49-9.37Zm30.23,39q-2.34-2.86-4.76-5.68l2.92-1.56Q3782.53,1561.25,3783.36,1564.86Zm-.6-12,1.34.7-1,.53Zm-5.74,4.48q-6-6.86-12.63-13.39,7.71,3.45,15.29,7.31.62,2,1.2,4Zm9.45,11.37c2,1.17,4,2.37,6,3.58l-2.43,1.1Q3788.3,1571.07,3786.47,1568.75Zm16.25,23.38,2.77-1.05c.17,2.14.31,4.28.4,6.41C3804.87,1595.7,3803.8,1593.9,3802.72,1592.13Zm6.68,11.69c1.28,1,2.56,2.06,3.83,3.1l-.18,0h-2C3810.5,1605.92,3810,1604.87,3809.4,1603.82Zm8.86,7.32c1.07.92,2.14,1.84,3.18,2.77q-.26,5.63-.84,11.16l-1.16.28c-.38-1-.78-1.91-1.19-2.86v-11.35Zm0-2.9v-.53l3.38-1c0,1.46,0,2.92-.08,4.38C3820.46,1610.1,3819.36,1609.17,3818.26,1608.24Zm-11.2-26.45q2.91,2,5.79,4.09l-5.12,1.93Q3807.45,1584.82,3807.06,1581.79Zm-18.13,16.56c-.39,1-.82,1.94-1.27,2.89-.71-.51-1.47-1-2.24-1.51Q3787.15,1599,3788.93,1598.35Zm-4.75.62c-1-.62-2.06-1.22-3.16-1.83.44-1.51.83-3,1.18-4.57h0a77.28,77.28,0,0,1,7.3,4.23h0C3787.7,1597.47,3785.92,1598.2,3784.18,1599Zm6.64-1.28a39.23,39.23,0,0,1,4.66,3.82c.55.52,1.05,1,1.51,1.57q-2.8.5-5.47,1.2c-.84-.74-1.74-1.47-2.71-2.2C3789.55,1600.65,3790.22,1599.18,3790.82,1597.69Zm5.52,6.76c-.62.86-1.29,1.71-2,2.52h-.11c-.53-.6-1.09-1.18-1.7-1.77C3793.79,1604.92,3795.05,1604.67,3796.34,1604.45Zm1.82,0a17.42,17.42,0,0,1,1.58,2.48h-3.59C3796.85,1606.17,3797.52,1605.34,3798.16,1604.5Zm-22.29-10c-1.1-.52-2.23-1-3.41-1.55.24-1.53.45-3.06.62-4.6,2,.81,3.83,1.63,5.61,2.46.73.33,1.42.67,2.11,1h0C3779.13,1592.73,3777.48,1593.62,3775.87,1594.53Zm4.59-1.08c-.23,1-.48,2-.74,3-.81-.42-1.64-.85-2.5-1.26C3778.29,1594.59,3779.36,1594,3780.46,1593.45Zm-13.44-2.72c-1.15-.45-2.34-.9-3.56-1.35.09-1.51.17-3,.22-4.54,2.77,1,5.42,1.94,7.9,2.94C3770,1588.74,3768.52,1589.73,3767,1590.73Zm4.44-1.38q-.18,1.51-.39,3c-.86-.37-1.73-.73-2.63-1.09C3769.44,1590.64,3770.44,1590,3771.46,1589.35Zm-9.31-3.53c0,1-.08,2-.14,3l-2.71-.95C3760.24,1587.21,3761.19,1586.51,3762.15,1585.82Zm-4.31,1.59-3.67-1.2c0-1.49,0-3-.08-4.47,2.77.83,5.44,1.68,8,2.55Q3759.94,1585.84,3757.84,1587.41Zm-5.2-4.69c0,1,0,2,.06,3l-2.77-.85Zm-4.2,1.74c-1.23-.36-2.47-.72-3.73-1.07-.09-1.46-.19-2.93-.31-4.4,2.76.74,5.44,1.48,8,2.25Q3750.41,1582.84,3748.44,1584.46ZM3743,1580c.09,1,.15,2,.22,3l-2.81-.76C3741.25,1581.46,3742.11,1580.7,3743,1580Zm-4.1,1.85-3.79-1c-.15-1.44-.32-2.88-.49-4.33q4.13,1,8,2C3741.38,1579.61,3740.12,1580.71,3738.88,1581.81Zm-5.66-4.34c.12,1,.24,2,.35,3l-2.84-.68Zm-4,2-3.82-.88c-.21-1.42-.42-2.84-.65-4.25q4.11.89,8,1.8Zm-5.82-4.21c.16,1,.31,2,.45,3l-2.86-.63C3721.79,1576.79,3722.58,1576,3723.39,1575.21Zm-3.95,2-3.85-.8c-.25-1.39-.51-2.79-.77-4.18l1.12.22c2.35.46,4.65.93,6.92,1.41Zm-6-4.08c.19,1,.38,2,.55,3-.95-.2-1.91-.38-2.87-.57C3711.94,1574.76,3712.71,1574,3713.49,1573.16Zm-3.87,2.1-3.9-.74c-.28-1.38-.57-2.75-.88-4.12,2.73.48,5.4,1,8,1.49C3711.79,1573,3710.69,1574.13,3709.62,1575.26Zm-6.08-4c.22,1,.43,2,.64,3l-2.89-.52Zm-3.8,2.16-3.91-.68c-.32-1.35-.65-2.71-1-4.07q4.07.66,8,1.35C3701.82,1571.17,3700.78,1572.31,3699.74,1573.44Zm-6.18-3.88c.24,1,.47,2,.71,2.94l-2.9-.48Q3692.45,1570.79,3693.56,1569.56Zm-3.76,2.21-3.93-.62c-.34-1.33-.7-2.67-1.06-4,2.7.4,5.38.81,8,1.23C3691.81,1569.5,3690.81,1570.64,3689.8,1571.77Zm-6.26-3.79.78,2.93-2.9-.44C3682.12,1569.64,3682.82,1568.81,3683.54,1568Zm-3.7,2.26-4-.57c-.37-1.32-.75-2.64-1.12-4,2.69.37,5.35.74,8,1.13Zm-6.36-3.7c.28,1,.55,1.94.82,2.92l-2.89-.4C3672.11,1568.22,3672.79,1567.37,3673.48,1566.54Zm-3.64,2.3-4-.53c-.39-1.3-.79-2.61-1.19-3.92q4,.51,8,1Q3671.23,1567.13,3669.84,1568.84Zm-6.43-3.64c.3,1,.59,1.94.88,2.91l-2.89-.37Zm-3.6,2.35-4-.48c-.41-1.3-.83-2.59-1.25-3.88,2.68.3,5.34.62,8,.94Q3661.16,1565.84,3659.81,1567.55Zm-6.49-3.56.93,2.89-2.9-.33C3652,1565.7,3652.65,1564.84,3653.32,1564Zm-3.55,2.38-4-.44q-.64-1.92-1.32-3.84l8,.85Q3651.1,1564.67,3649.77,1566.37Zm-6.56-3.49,1,2.88-2.9-.31Zm-3.51,2.42-4-.4-1.35-3.8,7.94.77C3641.41,1563,3640.55,1564.15,3639.7,1565.3Zm-6.62-3.43,1,2.87-2.91-.28Zm-3.47,2.45-4-.37c-.47-1.26-.93-2.51-1.41-3.77l7.93.7C3631.27,1562,3630.45,1563.17,3629.61,1564.32Zm-6.67-3.36,1.07,2.85-2.91-.25Zm-3.43,2.47-4-.33c-.49-1.25-1-2.49-1.45-3.74q4,.3,7.91.63C3621.12,1561.14,3620.32,1562.29,3619.51,1563.43Zm-6.72-3.29,1.1,2.84-2.91-.22Zm-3.39,2.5-4.05-.3-1.5-3.7,7.91.56C3611,1560.34,3610.18,1561.49,3609.4,1562.64Zm-6.78-3.24,1.15,2.83-2.92-.2Zm-3.34,2.52-4.05-.26-1.54-3.68,7.9.5Zm-6.83-3.17,1.18,2.82-2.91-.17Zm-3.31,2.55-4.06-.23-1.59-3.65c2.64.14,5.28.28,7.89.44Zm-158.73-3.77c2.63-.14,5.28-.28,7.93-.4l-1.6,3.64-4.11.21Zm.64,3.53-2.87.16,1.19-2.77Zm8.49-3.14,1.66,2.62-2.88.14Zm1.07-.91c2.63-.12,5.27-.24,7.92-.34l-1.64,3.62-4.1.18Zm9.12.46,1.63,2.64-2.88.12Zm1.09-.89,7.91-.29-1.69,3.6-4.1.15Zm9.1.51,1.6,2.65-2.89.1Zm1.1-.87c2.62-.09,5.26-.16,7.91-.23l-1.73,3.58-4.09.12Zm9.1.57,1.56,2.66-2.89.08Zm1.11-.86,7.9-.17-1.77,3.56-4.09.09Zm9.09.62,1.53,2.68-2.9.06Zm1.13-.83c2.62,0,5.25-.08,7.89-.12l-1.8,3.54-4.09.07Zm9.07.67,1.5,2.7-2.89,0Zm1.14-.82q3.93,0,7.89-.06l-1.84,3.53-4.09,0Zm9.05.73,1.48,2.71h-2.9Zm1.16-.8,6.13,0h1.75l-1.89,3.51h-4.09Zm9.05.79,1.44,2.72h-2.9Zm1.16-.8c2.64,0,5.27,0,7.89,0L3518,1559l-4.08,0Zm9,.85,1.41,2.73-2.9,0Zm1.19-.79c2.63,0,5.26.06,7.88.1l-2,3.49-4.08-.05Zm9,.91,1.38,2.75c-1,0-1.93,0-2.9,0Zm1.18-.78,7.88.15-2,3.48-4.08-.08Zm9,1,1.35,2.76-2.91-.06Zm1.19-.78,7.88.2-2.06,3.48-4.07-.11Zm9,1,1.32,2.77-2.91-.09Zm1.2-.76c2.63.08,5.26.16,7.88.26l-2.1,3.47-4.07-.14Zm9,1.11,1.28,2.78-2.91-.11Zm1.21-.77c2.64.1,5.27.2,7.89.32l-2.16,3.46-4.06-.16Zm9,1.19,1.25,2.79-2.91-.13Zm1.22-.77,7.89.37-2.2,3.46-4.07-.2Zm9,1.26,1.22,2.8-2.91-.15Zm-162.05-.07c2.63-.16,5.28-.32,7.94-.46l-1.56,3.66-4.1.25Zm.69,3.54-2.86.19,1.14-2.78Zm-10.89-2.87c2.64-.19,5.29-.36,8-.53l-1.52,3.69-4.1.27Zm.76,3.55-2.86.2,1.11-2.78Zm-10.94-2.8,8-.59c-.5,1.24-1,2.48-1.48,3.71l-4.1.32C3401.44,1561.82,3400.64,1560.68,3399.84,1559.53Zm.82,3.57-2.85.23,1.06-2.79Zm-11-2.73,8-.67c-.48,1.25-1,2.5-1.43,3.75l-4.1.35C3391.31,1562.66,3390.49,1561.51,3389.66,1560.37Zm.88,3.58-2.84.25,1-2.79Zm-11-2.65,8-.74c-.47,1.26-.92,2.52-1.38,3.78-1.37.13-2.74.25-4.1.39C3381.18,1563.59,3380.35,1562.44,3379.5,1561.3Zm.95,3.58-2.83.28,1-2.8Zm-11.11-2.56c2.65-.28,5.33-.56,8-.81-.45,1.27-.9,2.54-1.34,3.81l-4.09.43Zm1,3.6-2.82.31c.31-.93.61-1.87.93-2.8Zm-11.17-2.47q4-.46,8-.9c-.43,1.28-.86,2.57-1.28,3.86l-4.07.47C3361,1565.73,3360.1,1564.59,3359.19,1563.45Zm1.11,3.6-2.81.34.87-2.8Zm-11.23-2.37c2.66-.34,5.34-.67,8.06-1-.41,1.3-.82,2.6-1.22,3.89l-4.06.51Zm1.18,3.62-2.79.37c.28-.94.54-1.87.81-2.81C3349,1566.67,3349.6,1567.48,3350.25,1568.3ZM3339,1566c2.67-.37,5.36-.73,8.09-1.08-.39,1.31-.78,2.62-1.16,3.93l-4.06.56C3340.86,1568.3,3339.91,1567.16,3339,1566Zm1.29,3.64-2.78.39c.25-.94.51-1.87.76-2.81Zm-11.38-2.17q4-.6,8.11-1.19c-.37,1.33-.73,2.66-1.1,4l-4,.61C3330.84,1569.75,3329.85,1568.62,3328.86,1567.49Zm1.4,3.64-2.79.44c.23-.94.47-1.88.71-2.82Zm-11.47-2c2.67-.44,5.38-.88,8.13-1.3-.34,1.34-.68,2.69-1,4l-4,.67Q3320.33,1570.78,3318.79,1569.09Zm1.51,3.65-2.76.48c.21-.94.42-1.88.64-2.82Zm-11.56-1.91q4-.72,8.16-1.43c-.31,1.36-.62,2.73-.92,4.09l-4,.73Q3310.37,1572.53,3308.74,1570.83Zm1.65,3.67-2.75.51c.18-.94.37-1.88.56-2.82Q3309.31,1573.35,3310.39,1574.5Zm-11.65-1.76c2.67-.53,5.4-1.06,8.18-1.57-.29,1.38-.56,2.76-.83,4.15l-4,.79C3301,1575,3299.86,1573.86,3298.74,1572.74Zm1.79,3.68-2.72.56.48-2.82Zm-11.76-1.59q4-.88,8.2-1.74c-.25,1.41-.48,2.81-.71,4.21l-4,.87Zm2,3.69-2.69.61c.12-.94.25-1.88.38-2.82Zm-11.88-1.38c2.67-.66,5.41-1.3,8.22-1.94-.2,1.43-.39,2.86-.57,4.28-1.35.31-2.67.63-4,1Q3280.71,1578.79,3278.85,1577.14Zm2.15,3.68-2.66.67.27-2.82Zm-12-1.13c2.66-.73,5.41-1.45,8.23-2.16-.15,1.45-.28,2.9-.4,4.35-1.34.35-2.66.7-4,1.06C3271.6,1581.86,3270.31,1580.77,3269,1579.69Zm2.36,3.68-2.6.74c0-.93.08-1.87.14-2.8C3269.74,1582,3270.55,1582.68,3271.37,1583.37Zm-12-.75v-.09c2.61-.81,5.33-1.61,8.14-2.41h0c-.09,1.47-.15,2.94-.21,4.41l-3.91,1.18C3262,1584.68,3260.69,1583.65,3259.33,1582.62Zm2.56,3.57-2.54.82c0-.93,0-1.86,0-2.79Zm-12.09-.27v-.18q3.78-1.38,7.94-2.7l.09.07c0,1.47,0,2.93.06,4.39-1.32.44-2.6.89-3.86,1.34Q3252,1587.37,3249.8,1585.92Zm2.77,3.45c-.83.3-1.65.61-2.45.92-.08-.92-.16-1.84-.22-2.76C3250.8,1588.14,3251.69,1588.75,3252.57,1589.37Zm-12.09.35-.05-.29q3.62-1.58,7.69-3.09l.21.14c.09,1.46.22,2.91.37,4.36-1.29.51-2.54,1-3.76,1.53C3243.48,1591.48,3242,1590.59,3240.48,1589.72Zm3.07,3.26-2.33,1c-.17-.9-.34-1.8-.49-2.7C3241.68,1591.87,3242.61,1592.42,3243.55,1593Zm-12.06,1.23-.1-.38c1-.57,2.12-1.14,3.24-1.7q2-1,4.09-1.94l.32.18c.24,1.44.5,2.87.81,4.29q-1.87.9-3.6,1.8Q3233.93,1595.29,3231.49,1594.21Zm3.43,3c-.73.4-1.43.8-2.12,1.21-.3-.85-.59-1.72-.85-2.59C3233,1596.23,3234,1596.7,3234.92,1597.17Zm-11,4c1.07.3,2.12.62,3.15,1-.62.47-1.22.94-1.78,1.41C3224.8,1602.8,3224.34,1602,3223.91,1601.22Zm.31,3.28a30.11,30.11,0,0,0-2.46,2.47h-2.94c-.81-.07-1.64-.12-2.47-.15a21.41,21.41,0,0,1,4.17-5.33c.31-.31.64-.61,1-.9l.42.1A43.28,43.28,0,0,0,3224.22,1604.5Zm-1.08-4.79-.17-.36a55.5,55.5,0,0,1,6.74-4.56h0l.44.19c.43,1.4.9,2.78,1.41,4.15-1.18.72-2.28,1.45-3.32,2.19C3226.57,1600.73,3224.87,1600.2,3223.14,1599.71Zm-25.4,10.5q-2.22,1.9-4.41,3.85c-.08-1.8-.14-3.61-.17-5.42l4.58,1.37v.2Zm0,2.93v9.33q-1,2.43-2,4.89l-1.4-.33c-.37-3.34-.67-6.71-.87-10.1Q3195.59,1615,3197.74,1613.14Zm8.69-23.62-3.36-1.24c1.24-.91,2.48-1.81,3.74-2.7C3206.67,1586.9,3206.54,1588.21,3206.43,1589.52Zm-.2,2.34c-.3,4-.47,7.88-.53,11.79-1.38,1.09-2.73,2.2-4.09,3.32h-3.88v.71l-4.6-1.38c0-3.51.06-7,.24-10.58l0-.06q3.69-2.94,7.49-5.77Zm612,39.94a204.12,204.12,0,0,1,8.82,31.19h-8.82Zm28.9,30.58c-.06.2-.12.4-.19.6h-4.87Zm-13.1-.64q1.84-6.23,3.29-12.6,4.53,5.44,8.73,11.17Zm14.6-1.91q-5.13-7-10.69-13.54c.2-.91.38-1.82.55-2.74l5.82-1Q3846.86,1651.08,3848.66,1659.83Zm-4.95-19.43-4.75.85q.95-5.13,1.63-10.33C3841.7,1634.05,3842.74,1637.22,3843.71,1640.4Zm-4.08-12.12c-1.45-1.51-2.91-3-4.4-4.48l2.45-.59C3838.36,1624.89,3839,1626.59,3839.63,1628.28Zm-2.79-7.14-3.45.84q-4.6-4.49-9.39-8.77c.1-2.42.15-4.86.17-7.31l5-1.54Q3833.34,1612.61,3836.84,1621.14Zm-8.72-18.8-4,1.22c0-3-.11-6-.27-9Q3826.08,1598.4,3828.12,1602.34Zm-4.26,13.75q3.53,3.2,6.94,6.52l-7.6,1.84C3823.47,1621.68,3823.7,1618.89,3823.86,1616.09Zm-.92,10.69,9.71-2.35q2.79,2.76,5.5,5.59s-1.11,7.84-1.83,11.7l-2,.36q-5.67-6.42-11.73-12.42C3822.72,1628.7,3822.84,1627.74,3822.94,1626.78Zm8.74,15.78-5.8,1,.63,2.12,6.88-1.23c.65.75,1.3,1.49,1.93,2.25q-1.67,7.79-3.94,15.33l-.79.09s-4.74-19.49-8.45-29.75Q3827,1637.35,3831.68,1642.56Zm-10.47-50.42h0q.4,6.15.43,12.19l-5.88,1.81q-3.57-3-7.23-5.77-.15-5.08-.58-10.21l7.08-2.67q3.12,2.28,6.18,4.65Zm-.64-3.24c-1-.79-2.07-1.57-3.11-2.33l1.36-.51C3819.42,1587,3820,1587.94,3820.57,1588.9Zm-13.82-20.5q5.74,7.69,10.84,15.7l-2.3.87q-4.26-3.1-8.62-6c-.46-3.24-1-6.48-1.64-9.74Zm-1.46,20.34-3.78,1.43q-4.73-7.58-10.06-14.85l3.39-1.53q4.76,3,9.42,6.11Q3804.89,1584.32,3805.29,1588.74Zm-1.45-11.72c-2.2-1.46-4.43-2.89-6.66-4.29l5.5-2.49C3803.1,1572.5,3803.49,1574.77,3803.84,1577Zm-2.81-13.81.24.29c.33,1.48.65,3,.95,4.42l-7.39,3.34q-4.26-2.61-8.59-5.09-1.09-4.87-2.45-9.76l2.81-1.49q7.29,3.93,14.42,8.24S3801,1563.19,3801,1563.21Zm-.5-2.82q-5.82-3.45-11.72-6.65l4.2-2.24Q3796.87,1555.88,3800.53,1560.39Zm-22.86-25q7.17,6.94,13.74,14.27l-5.08,2.71c-1.47-.78-2.95-1.56-4.43-2.31q-2.22-7.08-5-14.18Zm1.12,13.09q-6.23-3.12-12.56-6l8.52-5.31Q3777,1542.89,3778.79,1548.53Zm-6.75-18.41.15.14-.29.07q1,2.34,2,4.69l-10.24,6.38-1.23-.53q-3.22-8.22-7.27-16.43l.89-.64q8,3.08,15.89,6.54Zm-4.19-3.77q-4.92-2.07-9.87-4l2.85-2.07Q3764.4,1523.29,3767.85,1526.35Zm-15.95-13.23q3.55,2.75,7,5.59l-3.62,2.62-2.14-.8q-2.9-5.6-6.2-11.15C3748.63,1510.62,3750.27,1511.86,3751.9,1513.12Zm-9.38-6.45.05-.1.07,0-.12.05q3.89,6.28,7.25,12.63-8.11-2.92-16.31-5.44l8.69-7.31Zm-11.87,6.34-1.45-.43q-3.72-6.06-7.94-12.06,9.07,2.34,18.11,5.15Zm7.85-9.72q-9.51-2.89-19-5.3l-.57-.78,4.15-4.06Q3731,1498.06,3738.5,1503.29Zm-17.65-11.5-3.46,3.38c-2.5-3.34-5.12-6.67-7.85-10C3713.36,1487.35,3717.14,1489.54,3720.85,1491.79Zm-17-9.68c4.21,4.84,8.15,9.76,11.83,14.71l-.2.2q-9.08-2.18-18.14-3.9c-.86-1.06-1.75-2.12-2.64-3.17l7.59-8.67ZM3693,1488q-4.46-5.13-9.31-10.15,7.94,1.13,15.93,2.58Zm-12.56-17.36q7.5,3.36,14.75,7-6.88-1.17-13.75-2.08c-.89-.89-1.77-1.78-2.67-2.66Zm-2.44-1.08-1.11,1.51q-1.9-1.83-3.87-3.65C3674.71,1468.11,3676.37,1468.83,3678,1469.55Zm-12.67-5.3,1.57.63q4.46,4,8.63,8l-1.3,1.76q-9.37-1.1-18.64-1.71c-1.1-1-2.21-1.94-3.35-2.91l4-6.49C3659.3,1463.73,3662.32,1464,3665.36,1464.25Zm-31.34-11q10.72,3.27,21.11,7.06l-.67,1.1q-6.81-.43-13.54-.62-3.81-2.92-7.78-5.78Zm3.18,7.44q-3.45-.06-6.86-.08l1.82-3.63C3633.86,1458.24,3635.53,1459.48,3637.2,1460.73Zm-5.8-8.23-.48,1-2.73-1.91Zm-22.48-3.91c2.37-.12,4.75-.23,7.14-.31,1.85.47,3.69,1,5.54,1.45q4.26,2.8,8.34,5.71l-2.62,5.22q-4.64,0-9.22.15-5.4-3.72-11.1-7.3Zm-1.94-2.53-.27.68q-4.93.29-9.8.69-4.87-2.81-9.94-5.5Q3597.1,1443.78,3607,1446.06Zm-22.64-3.14q4.51,2.37,8.88,4.84c-3.55.32-7.09.69-10.59,1.11Zm11.84,6.54q3.9,2.25,7.66,4.58l-1.39,3.55q-10.41-2.44-21.08-4.37l.66-2.3Q3589.05,1450.06,3596.18,1449.46Zm-36.8-11.62c3.06.36,6.11.74,9.14,1.16-3.24.48-6.46,1-9.66,1.55Zm-.9,4.78q8.4-1.47,17.05-2.61c1.54.24,3.08.48,4.62.74l1.68.86-2.19,7.61c-3,.37-5.89.78-8.81,1.21q-6.21-3.09-12.69-6Zm-.73,3.9q4.74,2.14,9.34,4.39c-3.3-.47-6.6-.91-9.92-1.3Zm-1.15-9-.66,3.53-3.85.72c-4.81-2.06-9.75-4-14.78-5.93Q3547,1436.5,3556.6,1437.53Zm-22.95-.86q7.56,2.77,14.82,5.82-7.95,1.6-15.66,3.48Zm-3.39-1.22.66.24-1,10.68q-10.18-3.8-20.94-7.09c4.82-1.46,9.74-2.82,14.71-4.11C3525.91,1435.25,3528.08,1435.34,3530.26,1435.45Zm-22.26-.55c2.9,0,5.8,0,8.68.09q-4.39,1.21-8.7,2.5v-2.59Zm-2.77,11.85q-10.08.07-20,.6,9.72-3.67,20-6.89Zm-.07-11.84v3.22q-5.37-1.58-10.89-3C3497.9,1435,3501.52,1434.93,3505.16,1434.91Zm-17.93.47q7.55,1.84,14.86,3.94-9.66,3.09-18.86,6.61l-1-10.3Zm-6.75,11.08q-8.27-1.93-16.78-3.55,7.71-3.32,15.77-6.36Zm-5.57-10.35q-7.59,2.94-14.85,6.13l-2.72-.48-.79-3.92Q3465.67,1436.81,3474.91,1436.11ZM3456.12,1450c-3.58.45-7.12.93-10.66,1.47q4.9-2.48,10-4.82Zm-2.33-11.77.61,3.09q-5.55-.91-11.19-1.67Q3448.46,1438.84,3453.79,1438.18Zm-22.34,3.32c1.56-.28,3.13-.54,4.7-.8q9.46,1.13,18.65,2.64l.23,1.16q-7.14,3.29-14,6.8-3.6-.49-7.23-.92l-2.62-8.76Zm-.59,8.55q-6.27-.69-12.67-1.19,5.16-3,10.54-5.92Zm-6.15-7.31c-3.47,1.9-6.87,3.86-10.2,5.84q-3.81-.25-7.66-.45l-.58-1.43Q3415.39,1444.54,3424.71,1442.74Zm-21.11,4.61.26.64-2.47-.1Zm-9,2.32c3.37.07,6.73.17,10.06.32l1.52,3.75q-6.32,4-12.26,8.27c-2.51,0-5-.06-7.55,0l-3-5.85q3.89-2.8,7.93-5.54Zm-9.82,2.78c-.81.57-1.62,1.14-2.42,1.72l-.44-.87Zm-1.42,9.54q-4,0-8,.17,2.86-2.23,5.85-4.43Zm-4.05-7.88.85,1.66q-4.39,3.23-8.56,6.52-6.1.24-12.27.68l-1-1.66Q3368.6,1457.44,3379.31,1454.11Zm-23.56,8.15.58.92-3.78.31Zm-9.63,3.82c3.81-.4,7.62-.74,11.4-1l3.69,5.86c-1.48,1.29-2.94,2.6-4.38,3.91q-8.41.68-16.9,1.72l-2.17-2.88q3.76-3.7,7.75-7.34Zm-6.68,2.82q-1.55,1.47-3.06,2.95l-.91-1.2Zm-6.39,2.85,1.47,2q-2.07,2.05-4.06,4.13-7.47,1.1-15,2.5Q3324.1,1475.84,3333.05,1471.75Zm-4.8,8.42c-2.71,2.89-5.31,5.81-7.83,8.75l-5.71-6.42Q3321.49,1481.21,3328.25,1480.17Zm-18.57,3.26v0l2.11-.42,7,7.82c-1.22,1.45-2.41,2.9-3.57,4.37q-8.16,1.63-16.33,3.65l-.74-.72q5.4-7.43,11.58-14.71l0,0S3309.67,1483.44,3309.68,1483.43Zm-5.51,3.07q-4.07,5-7.76,10l-3.5-3.37Q3298.45,1489.75,3304.17,1486.5Zm-13.45,8,4.21,4-1.13,1.6q-10.1,2.63-20.16,5.83Q3281.92,1500.07,3290.72,1494.54Zm-20.43,14.69,2.06-.68,9.08,7.52q-9.29,2.92-18.51,6.37,3.36-6.6,7.28-13.15Zm-6.2,3.89,2-1.51q-3.42,6-6.41,11.94l-4.53-3.22Q3259.53,1516.67,3264.09,1513.12Zm-10.87,8.82,3.85,2.75q-6.62,2.61-13.16,5.48Q3248.47,1526,3253.22,1521.94Zm-11.59,11.53.06-.06q8.22-3.72,16.56-7-4,8.41-7.21,16.85l-10.71-6.56C3240.74,1535.64,3241.18,1534.55,3241.63,1533.47Zm7.09,11.17q-6.81,3.1-13.5,6.54,1.91-6.11,4.23-12.22Zm-12.18-7.46.77.47q-2.91,7.57-5.18,15.13l-3.38,1.79-5.79-3Q3229.46,1544.18,3236.54,1537.18Zm-15.16,16.16,4.91,2.57q-6.81,3.75-13.48,7.82Q3217,1558.45,3221.38,1553.34Zm-9,13.15v0l0,0q7.95-4.93,16.12-9.41l2.07,1.08q-1.52,5.63-2.68,11.23-3.53,2.07-7,4.23l-9.12-4c.19-1,.41-2.06.62-3.09h0Zm-1,5.4,7.23,3.21q-4.35,2.76-8.64,5.67Q3210.54,1576.34,3211.35,1571.89Zm9.57,4.25,2.29,1q-5.27,7.32-9.9,14.92l-4.44-1.64q.28-3.37.69-6.78Q3215.17,1579.77,3220.92,1576.14Zm-13.1-5.82,1.17.52q-1.11,6-1.84,11.86-3.29,2.29-6.53,4.68l-3.49-1.29Q3202.16,1578.05,3207.82,1570.32Zm-11.88,17.74,2.52.93q-2.85,2.13-5.65,4.34Q3194.34,1590.68,3195.94,1588.06Zm-3.32,45.13q-5.35,5.43-10.38,11.2l-4-.69c-.64-3.32-1.21-6.67-1.69-10v0q3.27-3.52,6.66-6.92l8.79,2.06C3192.21,1630.24,3192.41,1631.72,3192.62,1633.19Zm-.87-6.77-6.67-1.56c2-1.94,4-3.86,6-5.75Q3191.36,1622.79,3191.75,1626.42Zm-1-29.51q-.2,4.33-.19,8.62l-3.78-1.14Q3188.73,1600.63,3190.79,1596.91Zm-5,9.52,4.82,1.45q.06,4.2.29,8.36-4.29,3.91-8.43,8l-4.19-1Q3181.7,1614.71,3185.8,1606.43Zm-8.32,18.91,3.17.75c-1.89,1.91-3.76,3.84-5.59,5.81C3175.84,1629.69,3176.64,1627.51,3177.48,1625.34Zm-3.33,9.23c.43,2.91.92,5.81,1.46,8.68l-4-.69Q3172.81,1638.54,3174.15,1634.57Zm-3.13,10.11,5.05.87c.33,1.64.69,3.28,1.06,4.9q-4.74,5.79-9.14,11.86l-1.11-.13Q3168.58,1653.34,3171,1644.68Zm-.35,17.94q3.47-4.75,7.12-9.33,1.2,4.89,2.62,9.69h-6.51Z" transform="translate(0.5 0.5)"/><path class="cls-1" d="M1496.78,1667.23v-31.85h2.15v-5h-2.15v-3.89h2.15v-5h-2.15v-49.26h2.15v-5h-2.15v-3.89h2.15v-5h-2.15v-49.26h2.15v-5h-2.15V1500h2.15v-5h-2.15v-49.25h2.15v-5h-2.15v-3.89h2.15v-5h-2.15v-55.29h1.66v-21.64h.6c.34,0,.61-.42.61-.94v-.94c0-.52-.27-.94-.61-.94h-1a.49.49,0,0,0,0-.12v-2.94h.1a.65.65,0,0,0,.6-.7v-7h.28a.66.66,0,0,0,.6-.7v-.71a.65.65,0,0,0-.6-.7h-1.38v-1.29h1.48a.66.66,0,0,0,.6-.71v-.36a.66.66,0,0,0-.6-.7h-1.48v-21h1.18a.66.66,0,0,0,.6-.7v-.82a.66.66,0,0,0-.6-.71h-1.18v-20H1499a.63.63,0,0,0,.57-.67.62.62,0,0,0-.57-.66h-1.31v-1.57h1.18a.66.66,0,0,0,.6-.71v-.31a.66.66,0,0,0-.6-.71h-1.18v-.82h.84a.66.66,0,0,0,.6-.71v-.11a.66.66,0,0,0-.6-.71h-.84v-.55h.84a.65.65,0,0,0,.6-.7v-.28a.66.66,0,0,0-.6-.71h-.84v-2.19h2.38a.66.66,0,0,0,.61-.71v-.47a.66.66,0,0,0-.61-.7H1499a1.2,1.2,0,0,0,.31-.78,2.21,2.21,0,0,0-1.55-2v-.87h.32a.12.12,0,0,0,.12-.13.13.13,0,0,0-.12-.14h-.32v-.79a.14.14,0,1,0-.27,0v.79h-.32a.13.13,0,0,0-.12.14.12.12,0,0,0,.12.13h.32v.87a2.21,2.21,0,0,0-1.55,2,1.2,1.2,0,0,0,.31.78h-.12a.66.66,0,0,0-.6.7v.1h-1.08a.86.86,0,0,0,0-.24v-2.88h.47a.68.68,0,0,0,0-1.35h-.47v-10h.08a.66.66,0,0,0,.6-.71v-.3a.65.65,0,0,0-.6-.7h-.08v-.93a.62.62,0,0,0,.32-.57.59.59,0,0,0-.32-.56v-2a.69.69,0,0,0-.45-.68.33.33,0,0,0,0-.17v-.65a.3.3,0,0,0-.27-.32.31.31,0,0,0-.28.32v.65a.31.31,0,0,0,0,.17.69.69,0,0,0-.45.68v2a.65.65,0,0,0,0,1.13v.93H1493a.66.66,0,0,0-.6.7v.3a.66.66,0,0,0,.6.71h.07v4.09l-1.77-1.52a.53.53,0,0,0-.45-.12v-3.92h.81a.66.66,0,0,0,.6-.71v-.35a.66.66,0,0,0-.6-.71h-.81v-2.7h.81a.66.66,0,0,0,.6-.71v-.35a.65.65,0,0,0-.6-.7h-.81V1258h.33v-11.44h-1.07v4.62l-.85-.62v-1.72H1489v-3.33h.42v-1.41H1489v-3.56l1.42,1.66.07-.08v-4l-.07-.08-1.42,1.66v-2.91h.52v-1.46H1489v-1.21h-.57v1.21h-.52v1.46h.52v2.91L1487,1238l-.07.08v4l.07.08,1.42-1.66v3.56H1488v1.41h.42v3.33h-.33v1.72l-1,.76a.31.31,0,0,0-.41,0l-.74-1.36a.44.44,0,0,0,.1-.56.32.32,0,0,0-.48-.11l-.75-1.35a.44.44,0,0,0,.1-.56.32.32,0,0,0-.48-.12l-.75-1.35a.44.44,0,0,0,.1-.56.32.32,0,0,0-.48-.12l-.74-1.35a.44.44,0,0,0,.1-.56.32.32,0,0,0-.48-.12l-.74-1.35a.44.44,0,0,0,.1-.56.32.32,0,0,0-.48-.11l-.74-1.35a.44.44,0,0,0,.1-.56.31.31,0,0,0-.48-.11l-.75-1.36a.44.44,0,0,0,.1-.56.32.32,0,0,0-.48-.12l-.75-1.35a.46.46,0,0,0,.11-.56.32.32,0,0,0-.48-.11l-.36-.65h1.26v-4.52h-1v-3.47h.81v-.59h-.81v-2.17h-.5v2.17h-.48v-14.3a.9.9,0,0,0,.36-.76v-.42c0-.47-.27-.84-.6-.84H1476v-.83h-.55v-9.11h-.6v1.61h-.51v-4.42a3.16,3.16,0,0,0,.55-.13,1.71,1.71,0,0,0,.64-.4.88.88,0,0,0,.24-.39.86.86,0,0,0,0-.27.65.65,0,0,0,0-.27.88.88,0,0,0-.11-.24,1.18,1.18,0,0,0-.4-.37,2.19,2.19,0,0,0-1.1-.32v-2.12a1.54,1.54,0,0,0,.31,0,1.07,1.07,0,0,0,.34-.16.47.47,0,0,0,.15-.19.37.37,0,0,0,0-.15.45.45,0,0,0,0-.16.42.42,0,0,0-.08-.12.69.69,0,0,0-.22-.16,1.47,1.47,0,0,0-.5-.12v-1.31h-.28v1.31l-.3,0a1.07,1.07,0,0,0-.34.16.52.52,0,0,0-.15.18.42.42,0,0,0,0,.16.24.24,0,0,0,0,.15.36.36,0,0,0,.08.12.73.73,0,0,0,.22.16,1.27,1.27,0,0,0,.5.12v2.12a2.71,2.71,0,0,0-.72.14,1.82,1.82,0,0,0-.65.39,1,1,0,0,0-.24.4.8.8,0,0,0,0,.27,1.17,1.17,0,0,0,0,.27,1.33,1.33,0,0,0,.11.24,1.46,1.46,0,0,0,.4.38,2.38,2.38,0,0,0,.92.31v5l0,0-1.83,1.65-.18-.35h0a.46.46,0,0,0,.12-.56.33.33,0,0,0-.48-.16h0c-.22-.47-.44-1-.66-1.46h0a.44.44,0,0,0,.16-.55.32.32,0,0,0-.46-.19h0c-.2-.49-.4-1-.59-1.51h0a.44.44,0,0,0,.18-.54.33.33,0,0,0-.46-.22h0c-.18-.5-.36-1-.53-1.54h0a.44.44,0,0,0,.2-.53.34.34,0,0,0-.45-.24h0c-.17-.51-.33-1-.49-1.55h0a.43.43,0,0,0,.21-.53.34.34,0,0,0-.45-.26h0l-.45-1.57h0a.43.43,0,0,0,.22-.52.34.34,0,0,0-.44-.27h0l-.42-1.59h0a.42.42,0,0,0,.24-.51.35.35,0,0,0-.44-.28h0l-.39-1.59h0a.41.41,0,0,0,.24-.51.35.35,0,0,0-.43-.29h0c-.12-.53-.25-1.07-.36-1.61h0a.42.42,0,0,0,.25-.5.36.36,0,0,0-.43-.3h0c-.12-.54-.23-1.07-.35-1.61h0a.41.41,0,0,0,.25-.5.35.35,0,0,0-.42-.31h0l-.33-1.62h0a.41.41,0,0,0,.26-.5.35.35,0,0,0-.42-.31h0c-.1-.55-.21-1.09-.31-1.62h0a.41.41,0,0,0,.26-.49.36.36,0,0,0-.41-.32h0c-.1-.55-.2-1.1-.3-1.62h0a.43.43,0,0,0,.28-.49.35.35,0,0,0-.42-.32h0c-.1-.56-.19-1.1-.28-1.63h0a.41.41,0,0,0,.28-.48.36.36,0,0,0-.41-.33h0c-.09-.57-.18-1.11-.26-1.63h0a.41.41,0,0,0,.28-.48.37.37,0,0,0-.41-.33h0c-.1-.59-.17-1.14-.25-1.63h0a.4.4,0,0,0,.28-.48.36.36,0,0,0-.4-.34h0c-.16-1.14-.25-1.84-.27-2H1464v-5.06h-1.53a.62.62,0,0,0,.19-.45.55.55,0,0,0-.4-.56l0-4.15,0,.07a.56.56,0,0,1,.31-.09.91.91,0,0,1,.37.09,2.13,2.13,0,0,1,.39.25,3.74,3.74,0,0,1,.67.77s0,0,0,0a.71.71,0,0,0,0,.26.63.63,0,1,0,.62-.74.55.55,0,0,0-.41.19l-.17-.25a3.06,3.06,0,0,0-.82-.75,1.22,1.22,0,0,0-.63-.19.68.68,0,0,0-.34.08v-.65l.06-.08a.8.8,0,0,1,.21-.15,1.35,1.35,0,0,1,.59-.12,2.57,2.57,0,0,1,.62.08l.27.09v0a.63.63,0,1,0,.62-.73.61.61,0,0,0-.55.39l-.07,0a3,3,0,0,0-.89-.15,1.9,1.9,0,0,0-.54.07,1.35,1.35,0,0,0-.34.17v-.67a2.14,2.14,0,0,1,.29-.33,3.85,3.85,0,0,1,.53-.43.42.42,0,0,0,.3.15.51.51,0,0,0,0-1,.47.47,0,0,0-.43.5v0l-.18.12a3.44,3.44,0,0,0-.54.48l0-3.08a1.32,1.32,0,0,0,.71-1.23,1.4,1.4,0,0,0-.53-1.13.61.61,0,0,0,0-.14v-.59a.8.8,0,0,0,0-.27h0a.4.4,0,0,0,.37-.43.4.4,0,0,0-.37-.43h-.32v-.28a.27.27,0,1,0-.54,0v.24a.06.06,0,0,0,0,0h-.32a.43.43,0,0,0,0,.86h0a.84.84,0,0,0,0,.27v.59a.61.61,0,0,0,0,.14,1.4,1.4,0,0,0-.54,1.13,1.33,1.33,0,0,0,.72,1.23l0,3.08a4,4,0,0,0-.54-.48l-.18-.12v0a.46.46,0,0,0-.43-.5.47.47,0,0,0-.43.5.46.46,0,0,0,.43.5.4.4,0,0,0,.3-.15,3.85,3.85,0,0,1,.53.43,2.74,2.74,0,0,1,.29.33v.67a1.35,1.35,0,0,0-.34-.17,1.9,1.9,0,0,0-.54-.07,3,3,0,0,0-.9.15l-.06,0a.63.63,0,0,0-.55-.39.74.74,0,0,0,0,1.46.68.68,0,0,0,.62-.73v0l.27-.09a2.64,2.64,0,0,1,.62-.08,1.43,1.43,0,0,1,.6.12.8.8,0,0,1,.21.15l.07.08v.65a.85.85,0,0,0-.35-.08,1.39,1.39,0,0,0-.63.19,3.23,3.23,0,0,0-.82.75c-.07.08-.12.17-.18.25a.56.56,0,0,0-.41-.19.74.74,0,0,0,0,1.47.68.68,0,0,0,.62-.73.75.75,0,0,0,0-.26l0,0a3,3,0,0,1,.67-.77,1.7,1.7,0,0,1,.39-.25.87.87,0,0,1,.37-.09.53.53,0,0,1,.3.09l0-.07-.05,4.15a.55.55,0,0,0-.4.56.59.59,0,0,0,.19.45h-1.53v5.06h1.78c0,.12-.11.82-.27,2a.37.37,0,0,0-.4.34.42.42,0,0,0,.28.48c-.07.49-.15,1-.24,1.63a.35.35,0,0,0-.4.34.43.43,0,0,0,.27.48c-.08.52-.16,1.06-.26,1.63a.37.37,0,0,0-.41.33.41.41,0,0,0,.27.48c-.09.52-.17,1.07-.28,1.63a.36.36,0,0,0-.41.33.4.4,0,0,0,.27.48c-.1.53-.19,1.07-.29,1.63a.36.36,0,0,0-.41.32.42.42,0,0,0,.25.49l-.3,1.62a.37.37,0,0,0-.42.31.44.44,0,0,0,.26.5c-.1.53-.22,1.07-.33,1.61a.36.36,0,0,0-.42.31.42.42,0,0,0,.25.5c-.11.53-.23,1.07-.34,1.61a.35.35,0,0,0-.42.3.43.43,0,0,0,.25.5c-.12.54-.24,1.07-.37,1.6a.36.36,0,0,0-.43.29.43.43,0,0,0,.24.51c-.13.53-.25,1.06-.39,1.59a.35.35,0,0,0-.43.28.42.42,0,0,0,.23.51c-.13.53-.28,1.06-.42,1.59a.36.36,0,0,0-.44.27.43.43,0,0,0,.23.52l-.45,1.57a.34.34,0,0,0-.44.26.45.45,0,0,0,.21.53c-.16.52-.32,1-.49,1.56a.33.33,0,0,0-.44.24.43.43,0,0,0,.2.53c-.18.52-.35,1-.54,1.54a.34.34,0,0,0-.46.22.45.45,0,0,0,.18.54c-.2.51-.39,1-.59,1.51a.33.33,0,0,0-.46.19.47.47,0,0,0,.15.55c-.21.5-.44,1-.66,1.46a.33.33,0,0,0-.47.16.44.44,0,0,0,.12.56c-.06.11-.12.22-.17.33l-1.83-1.64,0,0v-5h0a2.18,2.18,0,0,0,.92-.31,1.22,1.22,0,0,0,.4-.38.9.9,0,0,0,.12-.24.93.93,0,0,0,0-.54,1.25,1.25,0,0,0-.24-.4,1.69,1.69,0,0,0-.65-.39,2.37,2.37,0,0,0-.73-.14v-2.12a1.27,1.27,0,0,0,.5-.12.73.73,0,0,0,.22-.16,1.27,1.27,0,0,0,.07-.12.37.37,0,0,0,0-.15.32.32,0,0,0,0-.16.44.44,0,0,0-.15-.18,1,1,0,0,0-.34-.16l-.31,0v-1.31h-.28v1.31a1.68,1.68,0,0,0-.49.12.6.6,0,0,0-.22.16.35.35,0,0,0-.07.12.42.42,0,0,0,0,.16.24.24,0,0,0,0,.15.47.47,0,0,0,.15.19.94.94,0,0,0,.35.16,1.34,1.34,0,0,0,.3,0v2.12a2.37,2.37,0,0,0-1.1.32,1.42,1.42,0,0,0-.4.37.9.9,0,0,0-.12.24.8.8,0,0,0,0,.27,1.17,1.17,0,0,0,0,.27,1,1,0,0,0,.25.39,1.79,1.79,0,0,0,.64.4,3,3,0,0,0,.55.13v4.42h-.5v-1.61h-.6v9.11h-.55v.83h-.35c-.33,0-.6.37-.6.84v.42a.88.88,0,0,0,.35.76v14.3h-.48v-2.17h-.5v2.17h-.8v.59h.8v3.47h-1v4.52h1.26l-.36.65a.32.32,0,0,0-.48.11.43.43,0,0,0,.11.56l-.75,1.35a.32.32,0,0,0-.48.12.44.44,0,0,0,.11.56l-.75,1.36a.32.32,0,0,0-.48.11.44.44,0,0,0,.1.56l-.75,1.35a.32.32,0,0,0-.48.11.47.47,0,0,0,.1.56l-.75,1.35a.32.32,0,0,0-.48.12.46.46,0,0,0,.1.56l-.74,1.35a.32.32,0,0,0-.48.12.46.46,0,0,0,.11.56l-.75,1.35a.32.32,0,0,0-.48.12.45.45,0,0,0,.1.56l-.75,1.35a.32.32,0,0,0-.48.11.44.44,0,0,0,.11.56l-.75,1.36a.31.31,0,0,0-.41,0l-1-.76v-1.72H1435v-3.33h.42v-1.41H1435v-3.56l1.42,1.66.07-.08v-4l-.07-.08-1.42,1.66v-2.91h.52v-1.46H1435v-1.21h-.57v1.21h-.52v1.46h.52v2.91L1433,1238l-.06.08v4l.06.08,1.42-1.66v3.56H1434v1.41h.42v3.33h-.33v1.72l-.86.62v-4.62h-1.07V1258h.33v.08h-.8a.67.67,0,0,0-.61.7v.35a.67.67,0,0,0,.61.71h.8v2.7h-.8a.67.67,0,0,0-.61.71v.35a.67.67,0,0,0,.61.71h.8v3.92a.55.55,0,0,0-.45.12l-1.77,1.52v-4.09h.07a.66.66,0,0,0,.61-.71v-.3a.66.66,0,0,0-.61-.7h-.07v-.93a.62.62,0,0,0,.33-.57.58.58,0,0,0-.33-.56v-2a.69.69,0,0,0-.45-.68.33.33,0,0,0,0-.17v-.65a.3.3,0,0,0-.28-.32.31.31,0,0,0-.28.32v.65a.31.31,0,0,0,0,.17.69.69,0,0,0-.45.68v2a.62.62,0,0,0-.33.56.61.61,0,0,0,.33.57v.93h-.08a.66.66,0,0,0-.6.7v.3a.67.67,0,0,0,.6.71h.08v10h-.47a.68.68,0,0,0,0,1.35h.47v2.88a.67.67,0,0,0,0,.24h-1.08v-.1a.65.65,0,0,0-.6-.7h-.12a1.2,1.2,0,0,0,.31-.78,2.21,2.21,0,0,0-1.55-2v-.87h.31a.12.12,0,0,0,.12-.13.13.13,0,0,0-.12-.14h-.31v-.79a.14.14,0,1,0-.27,0v.79h-.32a.13.13,0,0,0-.12.14.12.12,0,0,0,.12.13h.32v.87a2.21,2.21,0,0,0-1.55,2,1.15,1.15,0,0,0,.31.78h-1.09a.66.66,0,0,0-.6.7v.47a.66.66,0,0,0,.6.71h2.39v2.19h-.84a.66.66,0,0,0-.61.71v.28a.66.66,0,0,0,.61.7h.84v.55h-.84a.66.66,0,0,0-.61.71v.11a.66.66,0,0,0,.61.71h.84v.82h-1.18a.66.66,0,0,0-.6.71v.31a.66.66,0,0,0,.6.71h1.18v1.57h-1.31a.67.67,0,0,0,0,1.33h1.31v20h-1.18a.66.66,0,0,0-.6.71v.82a.65.65,0,0,0,.6.7h1.18v21h-1.48a.66.66,0,0,0-.6.7v.36a.66.66,0,0,0,.6.71h1.48v1.29h-1.38a.65.65,0,0,0-.6.7v.71a.66.66,0,0,0,.6.7h.28v7a.65.65,0,0,0,.6.7h.1v2.94a.49.49,0,0,0,0,.12h-1c-.33,0-.6.42-.6.94v.94c0,.52.27.94.6.94h.6v21.64h1.66v55.29h-2.15v5h2.15v3.89h-2.15v5h2.15V1495h-2.15v5h2.15v3.89h-2.15v5h2.15v7.59h-30.66v-13.71h1.42v-3.34h-1.42v-2.88h2.2v-3.34h-1v-42h-2v-6.94h.87v-2.16h.88v-2.73h.88v-2h-1v-1.71h-.83v-2h-1.16v-2.16H1394v-1.94h-.78v-12.63h-2.53v12.63h-.78v1.94h-.83v2.16h-1.16v2h-.83v1.71h-1v2h.88v2.73h.87v2.16h.87v6.94h-2V1461h-16.5v-1.29h-1.43v-8.5h-2.33v8.5H1365V1461h-16.5v-9.71h-2v-6.94h.88v-2.16h.87v-2.73h.87v-2h-1v-1.71h-.83v-2h-1.16v-2.16h-.83v-1.94h-.77v-12.63H1342v12.63h-.77v1.94h-.83v2.16h-1.16v2h-.83v1.71h-1v2h.87v2.73h.88v2.16h.88v6.94h-2v42h-1v3.34h2.2v2.88h-1.42v3.34h1.42v11.07h-25.31v-3.76h-19.06v3.76h-23v-11.07h1.42v-3.34h-1.42v-2.88H1274v-3.34h-1v-42h-2v-6.94h.87v-2.16h.87v-2.73h.88v-2h-1v-1.71h-.83v-2h-1.17v-2.16h-.83v-1.94H1269v-12.63h-2.52v12.63h-.78v1.94h-.83v2.16h-1.17v2h-.83v1.71h-1v2h.88v2.73h.87v2.16h.87v6.94h-2V1461H1246v-1.29h-1.42v-8.5h-2.34v8.5h-1.43V1461h-16.5v-9.71h-2v-6.94h.87v-2.16h.87v-2.73h.88v-2h-1v-1.71h-.83v-2h-1.17v-2.16h-.83v-1.94h-.78v-12.63h-2.53v12.63H1217v1.94h-.83v2.16H1215v2h-.83v1.71h-1v2h.87v2.73h.88v2.16h.87v6.94h-2v42h-1v3.34h2.2v2.88h-1.42v3.34h1.42v38.88h-9.7v-2h-.89v-2h-1V1535h-.89v-2.51h-.69V1530H1201v-10.56h-1.58V1530h-.83v2.55h-.69V1535H1197v2.68h-1v2h-.89v2h-13.44v-23h2.53v-3.87h-.76v-12.43h-.88v12.43h-.6v-16.61h-3.21V1470h-1.94v-2.5H1175v-14.33h-1.46v-10.69h-2.14V1434H1170v8.42h-2.14v10.69h-1.46v14.33h-1.85v2.5h-2v28.22h-3.21v16.61h-.6v-12.43h-.87v12.43h-.76v3.87h2.53v23H1148v-2h-.89v-2h-1V1535h-.89v-2.51h-.69V1530h-.83v-10.56h-1.59V1530h-.83v2.55h-.68V1535h-.89v2.68h-1v2h-.89v2h-18.48v-2h-.89v-2h-1V1535h-.89v-2.51H1116V1530h-.83v-10.56h-1.59V1530h-.83v2.55h-.68V1535h-.89v2.68h-1v2h-.89v2h-18.48v-2H1090v-2h-1V1535h-.88v-2.51h-.69V1530h-.83v-10.56H1085V1530h-.83v2.55h-.69V1535h-.89v2.68h-1v2h-.89v2h-18.48v-2h-.89v-2h-1V1535h-.89v-2.51h-.69V1530H1058v-10.56h-1.58V1530h-.84v2.55h-.68V1535H1054v2.68h-1v2h-.89v2h-18.48v-2h-.89v-2h-1V1535h-.89v-2.51h-.68V1530h-.83v-10.56h-1.59V1530H1027v2.55h-.69V1535h-.89v2.68h-1v2h-.89v2h-18.48v-2h-.89v-2h-1V1535h-.89v-2.51h-.68V1530h-.83v-10.56h-1.59V1530h-.82v2.55h-.69V1535h-.89v2.68h-1v2H995v2H976.47v-2h-.89v-2h-1V1535h-.89v-2.51H973V1530h-.83v-10.56h-1.58V1530h-.83v2.55h-.69V1535h-.89v2.68h-1v2h-.89v2H947.88v-2H947v-2h-1V1535h-.89v-2.51h-.69V1530h-.83v-10.56H942V1530h-.83v2.55h-.68V1535h-.89v2.68h-1v2h-.89v2H919.29v-2h-.9v-2h-1V1535h-.89v-2.51h-.69V1530H915v-10.56h-1.58V1530h-.83v2.55h-.68V1535H911v2.68h-1v2h-.89v2H896.25v-31.6h1.43v-3.33h-1.43v-2.88h2.2v-3.34h-1v-42h-2v-6.93h.88v-2.16h.87v-2.73H898v-2h-1V1443h-.82v-2h-1.17v-2.16h-.83v-1.94h-.78v-12.63h-2.53v12.63h-.78v1.94h-.82V1441h-1.17v2h-.83v1.71h-1v2h.88v2.73h.87v2.16H889v6.93h-2v9.72H870.45V1467H869v-8.49h-2.33V1467h-1.43v1.3H848.77v-9.72h-2v-6.93h.88v-2.16h.87v-2.73h.88v-2h-1V1443h-.83v-2h-1.17v-2.16h-.82v-1.94h-.78v-12.63h-2.53v12.63h-.78v1.94h-.83V1441h-1.17v2h-.83v1.71h-1v2h.87v2.73h.88v2.16h.87v6.93h-2v42h-1v3.34h2.21v2.88H838v3.33h1.43v11.08h-3.67v-1.08h-.89V1518h-1v-2.68H833v-2.5h-.69v-2.55h-.83v-10.57h-1.58v10.57h-.83v2.55h-.68v2.5h-.89V1518h-1v2.06h-.89v1.08h-1.22V1508h-2.63v-6.36h-2v-80.47H817v24.39l-1.82-1.94v-12h-1.21v-24.37h-2.58v24.37H810v-59.63h-2.64v18h-2l-.9-4.1-8.71-50.55v-5.44h-.84l-2.08-37.12H790.5l-2.08,37.12h-.84v5.44l-8.71,50.55-.9,4.1h-2v-18h-2.63v59.63h-1.39v-24.37h-2.58v24.37h-1.21v12l-1.81,1.94v-24.39h-2.84v80.47h-2V1508h-2.63v13.17h-9.55v-1.08h-.89V1518h-1v-2.68h-.89v-2.5h-.68v-2.55H745v-10.57h-1.58v10.57h-.83v2.55h-.69v2.5H741V1518h-1v2.06h-.89v1.08H720.45v-1.08h-.89V1518h-1v-2.68h-.89v-2.5H717v-2.55h-.83v-10.57H714.6v10.57h-.83v2.55h-.69v2.5h-.89V1518h-1v2.06h-.89v1.08H691.61v-1.08h-.89V1518h-1v-2.68h-.89v-2.5h-.69v-2.55h-.83v-10.57h-1.59v10.57h-.83v2.55h-.68v2.5h-.89V1518h-1v2.06h-.89v1.08h-5.73v-7.87h-1.71v-3.69h-1.31V1463h-1.83v14.14l-4.52-4.33v-38.34h-1.71v10.43h-1.32l-.58-2.37-.38-17.74-5.26-11.55v-3.15H655.7v-19.16h-2.36v19.16h-1.45v3.15l-5.26,11.55-.38,17.74-.58,2.37h-1.32v-10.43h-1.7v38.34l-4.52,4.33V1463h-1.84v46.63H635v3.69h-1.71v6.79H633V1518h-1v-2.68h-.89v-2.5h-.69v-2.55h-.83v-10.57h-1.58v10.57h-.75v-6.66h-.16v-20.42H630l-2.87-2.75v-12.41h-1.71v10.78l-1.44-1.38v-10.63h-1.7v9l-1.44-1.38v-8.54h-1.7v6.91l-3.51-3.36v-21.66H614.1v-1.85h-1v-3.07h-1.64v-2.61h-1.05v-13.8h-2.1v13.8h-1.05v2.61h-1.64v3.07h-1v1.85h-1.58v21.66l-3.5,3.36v-6.91h-1.71v8.54l-1.44,1.38v-9h-1.71v10.63l-1.44,1.38v-10.78h-1.7v12.41l-2.88,2.75h2.88v20.42h-.17V1513h-2.1v8.18H576.4v-1.08h-.89V1518h-1v-2.68h-.89v-2.5H573v-2.55h-.84v-10.57h-1.58v10.57h-.83v2.55H569v2.5h-.89V1518h-1v2.06h-.89v1.08h-3.67v-11.08H564v-3.33h-1.43v-2.88h2.21v-3.34h-1v-42h-2v-6.93h.88v-2.16h.87v-2.73h.88v-2h-1V1443h-.83v-2h-1.17v-2.16h-.82v-1.94h-.78v-12.63H557.3v12.63h-.77v1.94h-.83V1441h-1.17v2h-.83v1.71h-1v2h.88v2.73h.88v2.16h.87v6.93h-2v9.72h-16.5V1467h-1.43v-8.49H533V1467h-1.43v1.3h-16.5v-9.72h-2v-6.93H514v-2.16h.88v-2.73h.87v-2h-1V1443h-.83v-2h-1.17v-2.16h-.83v-1.94h-.78v-12.63h-2.53v12.63h-.78v1.94H507V1441H505.8v2H505v1.71h-1v2h.88v2.73h.87v2.16h.88v6.93h-2v42h-1v3.34h2.2v2.88h-1.42v3.33h1.42v31.58l-11.46,0v-2h-.89v-2h-1V1535h-.89v-2.51h-.69v-2.55h-.83v-10.56h-1.58v10.56h-.83v2.55H487V1535h-.89v2.68h-1v2h-.89v2H465.76v-2h-.88v-2h-1V1535H463v-2.51h-.69v-2.55h-.83v-10.56h-1.58v10.56h-.83v2.55h-.69V1535h-.89v2.68h-1v2h-.89v2H437.17v-2h-.89v-2h-1V1535h-.89v-2.51h-.68v-2.55h-.83v-10.56h-1.59v10.56h-.82v2.55h-.69V1535h-.89v2.68h-1v2h-.89v2H408.58v-2h-.89v-2h-1V1535h-.89v-2.51h-.68v-2.55h-.83v-10.56h-1.59v10.56h-.83v2.55h-.69V1535h-.89v2.68h-1v2h-.89v2H380v-2h-.89v-2h-1V1535h-.89v-2.51h-.69v-2.55h-.83v-10.56h-1.58v10.56h-.83v2.55h-.68V1535h-.9v2.68h-1v2h-.89v2H351.38v-2h-.89v-2h-1V1535h-.89v-2.51h-.69v-2.55h-.83v-10.56h-1.59v10.56h-.83v2.55H344V1535h-.89v2.68h-1v2h-.89v2H322.78v-2h-.89v-2h-1V1535H320v-2.51h-.68v-2.55h-.83v-10.56h-1.58v10.56h-.83v2.55h-.69V1535h-.89v2.68h-1v2h-.89v2H294.2v-2h-.89v-2h-1V1535h-.89v-2.51h-.69v-2.55h-.67v-23.63h3.23v-5.26h-3.23v-1.75h3.23V1494h-3.23v-15.25h3.23v-5.25h-3.23v-1.76h3.23v-5.26h-3.23V1397.3h3.23V1392h-3.23v-1.76h3.23V1385h-3.23v-17.94h3.23v-5.26h-3.23v-1.76h3.23v-5.26h-3.23v-30.56h-.75v-12.72h1v-5h-1V1292.6H287V1276h1.27v-6.39H287v-2.78h-1.11a21.66,21.66,0,0,0-3.21-8v-1.32h-.47V1254H280.8v-9.71h1.6v-7.12h-1.6v-7h-3.57v7h-1.59v7.12h1.59V1254h-1.36v3.44h-.47v1.32a21.73,21.73,0,0,0-3.21,8h-1.1v2.78h-1.27V1276h1.27v16.63H268.7v13.88h-1v5h1v.09h-5.86V1307h-1.91v-21H260v-3.51h-1.24L246,1261a4.44,4.44,0,0,0,1.37-3.33,4.14,4.14,0,0,0-2-3.76V1154a4.14,4.14,0,0,0,2-3.76c0-2.24-1.42-4-3.17-4s-3.18,1.81-3.18,4a4.14,4.14,0,0,0,2,3.76v99.88a4.14,4.14,0,0,0-2,3.76,4.4,4.4,0,0,0,1.37,3.32l-12.73,21.5h-1.24V1286h-1v21h-1.91v4.59h-5.86v-.09h1v-5h-1v-13.88h-2.4V1276h1.27v-6.39h-1.27v-2.78h-1.1a21.66,21.66,0,0,0-3.21-8v-1.32h-.47V1254h-1.36v-9.71h1.6v-7.12h-1.6v-7H207.6v7H206v7.12h1.59V1254h-1.36v3.44h-.47v1.32a21.73,21.73,0,0,0-3.21,8h-1.11v2.78h-1.27V1276h1.27v16.63h-2.39v13.88h-1v5h1v12.72h-.74v30.56h-3.23v5.26h3.23v1.76h-3.23v5.26h3.23V1385h-3.23v5.26h3.23V1392h-3.23v5.26h3.23v69.22h-3.23v5.26h3.23v1.76h-3.23v5.25h3.23V1494h-3.23v5.26h3.23V1501h-3.23v5.26h3.23v33.43h0v2h-9.69V1502.8H190v-3.34h-1.43v-2.88h2.2v-3.34h-1v-42h-2v-6.94h.87v-2.16h.88v-2.73h.87v-2h-1v-1.71h-.82v-2h-1.17v-2.16h-.83v-1.94h-.78v-12.63h-2.53v12.63h-.78v1.94h-.82v2.16h-1.17v2h-.83v1.71h-1v2h.88v2.73h.87v2.16h.88v6.94h-2V1461h-16.5v-1.29h-1.42v-8.5H159v8.5h-1.43V1461H141.12v-9.71h-2.05v-6.94H140v-2.16h.87v-2.73h.88v-2h-1v-1.71h-.82v-2h-1.17v-2.16h-.83v-1.94h-.78v-12.63h-2.52v12.63h-.78v1.94H133v2.16h-1.17v2H131v1.71h-1v2h.87v2.73h.88v2.16h.88v6.94h-2v42h-1v3.34h2.2v2.88h-1.43v3.34h1.43v11.07H107.09v-3.77H88v3.77H64.4V1502.8h1.43v-3.34H64.4v-2.88h2.2v-3.34h-1v-42h-2v-6.94h.88v-2.16h.87v-2.73h.88v-2h-1v-1.71h-.83v-2H63.21v-2.16h-.82v-1.94h-.78v-12.63H59.08v12.63H58.3v1.94h-.83v2.16H56.3v2h-.82v1.71h-1v2h.87v2.73h.88v2.16h.87v6.94h-2V1461H38.6v-1.29H37.18v-8.5H34.85v8.5H33.42V1461H16.92v-9.71h-2v-6.94h.88v-2.16h.88v-2.73h.87v-2h-1v-1.71H15.7v-2H14.53v-2.16H13.7v-1.94h-.78v-12.63H10.4v12.63H9.63v1.94H8.8v2.16H7.63v2H6.8v1.71h-1v2H6.7v2.73h.88v2.16h.87v6.94h-2v42h-1v3.34H7.61v2.88H6.18v3.34H7.61v38.88H4.53v18.41H1.41v4.76H4.53v3.89H1.41v4.75H4.53v40.3H1.41v4.76H4.53v3.89H1.41v4.75H4.53v40.3H1.41v4.75H4.53v3.9H1.41v4.76H4.53v7.4H1501.28v-21.08h-4.5Zm-22.62-475.79a.72.72,0,0,1,.22,0,.65.65,0,0,1,.25.1.15.15,0,0,1,.07.07v0h0l0,0a.36.36,0,0,1-.13.09,1.3,1.3,0,0,1-.39.1v-.46Zm-24.58,0a1.06,1.06,0,0,1,.39.1.36.36,0,0,1,.13.09l0,0h0v0l-.07.07a.65.65,0,0,1-.25.1l-.22,0v-.45ZM209.09,1315h-2.44v-15h2.44Zm0-21.87h-2.44v-15h2.44Zm3,21.87h-2.44v-15h2.44Zm0-21.87h-2.44v-15h2.44ZM278.75,1315h-2.44v-15h2.44Zm0-21.87h-2.44v-15h2.44Zm3,21.87h-2.44v-15h2.44Zm0-21.87h-2.44v-15h2.44Zm313.1,210.46h-1.44v-20.42h1.44Zm2.59,0h-.89v-20.42h.89Zm25,0h-.88v-20.42h.88Zm3.15,0h-1.44v-20.42h1.44Zm14.44-.77h-1.77v-24.11H640Zm31,0h-1.77v-24.11H671ZM769.16,1490h-2.73v-41.6h2.73Zm21-79.17h-3.78v-24.58h3.78Zm6.88,0h-3.79v-24.58h3.79Zm20,79.17h-2.74v-41.6h2.74Zm618.21-238.41,1,.73-.56,1a.31.31,0,0,0-.45.07Zm0,2.33.08.08-.08.14Zm-2-1.63.37-.27v4.93h0l-.42.77Zm-3,19.27,2.21-1.91v5.69l-2.21-2.46Zm1.41,5.62h.58a.51.51,0,0,0,.22-.05v3.16h-.78a.48.48,0,0,0,0-.18v-2.7A.59.59,0,0,0,1431.75,1277.17Zm-1.41-3.34,1.78,2h-1.78Zm0,6.22v-2.88h.71a.46.46,0,0,0-.06.23v2.7a.57.57,0,0,0,0,.18h-.72A.85.85,0,0,0,1430.34,1280.05Zm16.52-50.18h-.48v-3.47h.48Zm2.43-34.19a.48.48,0,0,0-.25.43.55.55,0,0,0,.08.29,2,2,0,0,1-.8-.26h0a.48.48,0,0,0,.23-.42.44.44,0,0,0-.39-.46.53.53,0,0,0-.17,0,.83.83,0,0,1,.12-.16,1.34,1.34,0,0,1,.54-.32,2.42,2.42,0,0,1,.64-.13v1Zm0-3.8a1,1,0,0,1-.39-.1.36.36,0,0,1-.13-.09l0,0h0v0a.43.43,0,0,1,.07-.07.72.72,0,0,1,.25-.1l.22,0v.46Zm.29,3.8v-1a2.05,2.05,0,0,1,1,.28,1.24,1.24,0,0,1,.31.28l0,0a.47.47,0,0,0-.16,0,.44.44,0,0,0-.4.46.48.48,0,0,0,.23.42,1.53,1.53,0,0,1-.34.16,2.16,2.16,0,0,1-.47.11.5.5,0,0,0,.09-.29A.46.46,0,0,0,1449.58,1195.68Zm1.44,8.71a.32.32,0,0,0-.48.1.45.45,0,0,0,.07.57c-.23.35-.46.66-.69,1h-.16v-3.62l1.59,1.43C1451.24,1204,1451.14,1204.21,1451,1204.39Zm22.68,1.63h-.16c-.24-.3-.46-.63-.69-1h0a.45.45,0,0,0,.07-.57.32.32,0,0,0-.49-.1h0l-.32-.55,1.59-1.43Zm.18-10.34a.46.46,0,0,0-.25.43.55.55,0,0,0,.08.29,2.16,2.16,0,0,1-.47-.11,1.53,1.53,0,0,1-.34-.16.48.48,0,0,0,.23-.42.43.43,0,0,0-.39-.46.42.42,0,0,0-.16,0l0,0a1,1,0,0,1,.31-.28,2.09,2.09,0,0,1,1-.28Zm0-3.8-.22,0a1,1,0,0,1-.25-.1l-.07-.07h0l0,0a.68.68,0,0,1,.14-.09,1,1,0,0,1,.39-.1v.44Zm.28,3.8v-1a2.42,2.42,0,0,1,.64.13,1.46,1.46,0,0,1,.54.32l.12.16a.42.42,0,0,0-.16,0,.43.43,0,0,0-.39.46.48.48,0,0,0,.23.42h0a1.84,1.84,0,0,1-.79.26.5.5,0,0,0,.08-.29A.49.49,0,0,0,1474.16,1195.68Zm2.91,34.19h-.48v-3.47h.48Zm11.11,24.26-.08-.14a.3.3,0,0,0,.08-.08Zm0-.75a.31.31,0,0,0-.45-.07l-.56-1,1-.73Zm2,4.32-.42-.77h.06V1252l.37.27v5.43Zm.74,11.94,2.22,1.91v1.32l-2.22,2.46Zm2.22,4.19v2h-1.79Zm-2.22,6.45v-3.16a.54.54,0,0,0,.22.05h.55a.37.37,0,0,0,0,.11v2.7a.55.55,0,0,0,.09.29h-.85Zm1.47,0a.48.48,0,0,0,.09-.29v-2.7a.37.37,0,0,0,0-.11h.67v2.88a.67.67,0,0,0,0,.24h-.79Z" transform="translate(0.5 0.5)"/><path class="cls-2" d="M2794,1622h6.24v59H2794v7.26h359.5v-7.26h-6.25v-59h6.25v-6.13h3.38v-4.84h-3.06v-3.23h-87.74v3.23H3063v3.55h-23V1612h-6.39l-54.66-32.9h1.7v-4.84h-5.81v-68.68c.14,0,1.8-2.55,8.84,4.33,3.63,3.55,14.73,8.93,14.84,8.54.39-.29.12-5.68,1-8.73.61-2,3.49-5.19,1.51-5.8-11.74-3.62-18.63-13.91-26.23-13v-1.19h-2.25v84.51h-5.81v4.84h1.7l-54.65,32.9h-6.39v2.59h-23V1611h-3.07v-3.23H2793.7V1611h-3.06v4.84H2794V1622Zm342.12,0H3141v59h-4.84Zm-329.58,0h4.84v59h-4.84Z" transform="translate(0.5 0.5)"/></g><rect class="cls-3" x="0.5" y="0.5" width="3843.71" height="2397"/></svg>