<svg id="Layer_1" data-name="Layer 1" xmlns="http://www.w3.org/2000/svg" xmlns:xlink="http://www.w3.org/1999/xlink" viewBox="0 0 3841 2398"><defs><style>.cls-1{opacity:0.3;fill:url(#linear-gradient);}.cls-1,.cls-2,.cls-3,.cls-4,.cls-5{isolation:isolate;}.cls-2{fill:#3482b2;opacity:0.14;}.cls-3,.cls-5{fill:#fff;}.cls-3{opacity:0.19;}.cls-4{fill:#4e669b;}.cls-4,.cls-5{opacity:0.16;}.cls-6{fill:#a6a8ab;}.cls-7{fill:#989898;}.cls-10,.cls-11,.cls-12,.cls-7,.cls-8,.cls-9{fill-rule:evenodd;}.cls-8{fill:#8c8c8c;}.cls-9{fill:#c8c8c8;}.cls-10{fill:#b6b6b6;}.cls-11{fill:#636363;}.cls-12{fill:#555;}.cls-13,.cls-14{fill:none;stroke-miterlimit:10;}.cls-13{stroke:#e2e2e2;opacity:0.15;}.cls-14{stroke:#898989;opacity:0.16;}</style><linearGradient id="linear-gradient" x1="3008.6" y1="1615.76" x2="5710.32" y2="1615.76" gradientTransform="translate(6584.26 1715.51) rotate(168.9)" gradientUnits="userSpaceOnUse"><stop offset="0" stop-color="#fff"/><stop offset="0.04" stop-color="#daf9fc"/><stop offset="0.11" stop-color="#a2f0f7"/><stop offset="0.18" stop-color="#74e8f2"/><stop offset="0.24" stop-color="#50e2ef"/><stop offset="0.3" stop-color="#36deed"/><stop offset="0.35" stop-color="#26dbeb"/><stop offset="0.4" stop-color="#21daeb"/></linearGradient></defs><g id="skyline3"><g id="skyline3-2" data-name="skyline3"><path class="cls-1" d="M3311.49,708.22A9,9,0,0,1,3322,715h0a8.64,8.64,0,0,1-7.09,10.12L666.88,1214.89Z" transform="translate(0.5 0.5)"/><polygon class="cls-2" points="2780.82 1682.24 2817.33 1687.31 2713.84 1687.31 2598.9 1696.01 2587.71 1687.31 1913.38 1687.31 1913.38 1694.37 1791.04 1694.37 1791.04 1687.31 0.5 1687.31 0.5 1050.96 346.1 951.7 560.95 957.51 570.96 957.78 576.63 957.94 602.22 958.63 891.12 966.44 1038.9 970.44 1165.02 973.85 1234.77 975.74 1256.41 991.05 1305.32 1025.65 1384.49 1081.66 1384.5 1081.66 1389.72 1085.36 1421.04 1107.52 2006.85 1521.98 2099.7 1587.67 2526.71 1646.96 2537.81 1648.5 2780.82 1682.24"/><polygon class="cls-3" points="3825.87 1511.04 3825.87 1686.45 3348.35 1686.45 3618.52 1587.21 3812.87 1515.82 3825.87 1511.04"/><polygon class="cls-4" points="2538.82 1649.57 2588.72 1688.38 1914.39 1688.38 1914.39 1695.44 1792.05 1695.44 1792.05 1688.38 1.51 1688.38 1.51 873.54 628.71 847.38 892.13 967.51 952.32 994.96 982.59 1008.77 1032.45 1031.51 1164.77 1091.85 1173.5 1092.42 1188.16 1093.37 1294.02 1100.26 1310.24 1101.32 1310.25 1101.32 1314.98 1101.62 1422.05 1108.59 1655.92 1123.81 2062.31 1278.97 2097.36 1306.23 2421.08 1558 2466.64 1593.43 2467.31 1593.95 2472.59 1598.06 2527.72 1640.94 2538.82 1649.57"/><polygon class="cls-5" points="3840.5 1310.95 3840.5 1686.45 2713.84 1686.45 2780.82 1681.38 3086.5 1658.25 3203.23 1649.41 3223.13 1647.91 3290.1 1642.84 3339.85 1612.84 3840.5 1310.95"/><path class="cls-6" d="M3481.83,1708.07v-63.92h-3.64v-8.28h-11.26v8.28h-4.44v-8.28h-11.26v8.28h-4.44v-8.28h-11.26v8.28h-4.44v-8.28h-11.26v8.28h-4.44v-8.28h-11.26v8.28h-4.43v-8.28h-7.44v-39.3h1.64v-4.19h-1.64v-23.62h1.64v-4.2h-1.64v-23.62h1.64v-4.19h-1.64v-23.63h1.64v-4.19h-1.64V1485.3h1.64v-4.19h-1.64v-37.54h3.58v-3.91h1.46v-3.42h-9.08v-7.68h1.91V1425h1.32v-3.09h-8.2v-40.52h2.54v-3.53H3387v-3.09h-3.76v-23.52h2.54v-3.53H3387v-3.1h-3.76v-59.94h2.54v-3.53H3387v-3.09h-3.76v-53.32h2.54v-3.53H3387v-3.09h-3.31v-11.3h2v-2.65h-.87c0-1.53.26-3.42-1-4.6-.88-.85-2.26-1.3-3.12-2.17,1.08-.38,2.09-1.19,1.82-2.44a2.24,2.24,0,0,0-1.32-1.77c-.52-.24-1.4-.17-1.82-.59h1.91v-6.85h-1.4l-4.35-28.76h.78v-1.43h-1l-.51-3.42h1.08v-1.44h-1.29l-.22-1.49h1v-1.43h-1.24l-.49-3.23a1.34,1.34,0,0,0,1.06-1.3,1.32,1.32,0,1,0-1.58,1.3l-.49,3.23h-1.24v1.43h1l-.23,1.49H3371v1.44h1.08l-.52,3.42h-1V1157h.78l-4.35,28.76h-1.4v6.85h1.91c-.42.43-1.31.36-1.82.59a2.25,2.25,0,0,0-1.32,1.77c-.26,1.25.74,2.07,1.82,2.44-.87.86-2.25,1.31-3.12,2.17-.12.12-.22.25-.32.37l-3.68-3.71-4,4v4h-3.22v-4l-4-4-3.95,4v4h-3.21v-4l-3.95-4-4,4v4h-3.22v-4l-4-4-3.95,4v4h-3.22v-4l-4-4-3.68,3.71a2.24,2.24,0,0,0-.32-.37c-.87-.85-2.25-1.3-3.12-2.17,1.08-.38,2.09-1.19,1.83-2.44a2.24,2.24,0,0,0-1.32-1.77c-.52-.24-1.4-.17-1.83-.59H3308v-6.85h-1.4l-4.35-28.76h.78v-1.43h-1l-.52-3.42h1.07v-1.44h-1.29l-.23-1.49h1v-1.43h-1.24l-.49-3.23a1.33,1.33,0,1,0-.53,0l-.49,3.23h-1.24v1.43h1l-.23,1.49h-1.29v1.44h1.08l-.52,3.42h-1V1157h.78l-4.35,28.76h-1.4v6.85h1.91c-.42.43-1.31.36-1.83.59A2.25,2.25,0,0,0,3291,1195c-.26,1.25.75,2.07,1.83,2.44-.87.86-2.25,1.31-3.12,2.17-1.22,1.19-1,3.08-.95,4.6h-.88v2.65h2v11.26h-3.31v3.09h1.21v3.53h2.54v53.32h-3.76v3.09h1.21v3.53h2.54v59.94h-3.76v3.1h1.21v3.53h2.54v23.52h-3.76v3.09h1.21v3.53h2.54v26.28h-7.67l-28.53-47.61a2.07,2.07,0,0,0-.87-4h-.83v-3.29a2.9,2.9,0,0,0,0-5.5V1344h1.91a1.07,1.07,0,1,0,0-2.14h-1.91v-2.57a.91.91,0,1,0-1.82,0v2.57h-1.9a1.08,1.08,0,0,0-1.08,1.07,1.07,1.07,0,0,0,1.08,1.07h1.9v3.3a2.9,2.9,0,0,0,0,5.5v3.29h-.82a2.07,2.07,0,0,0-.87,4l-28.53,47.61h-7v-26.28h2.54v-3.53H3217v-3.09h-3.75v-23.52h2.54v-3.53H3217v-3.1h-3.75v-59.94h2.54v-3.53H3217v-3.09h-3.75v-53.32h2.54v-3.53H3217v-3.09h-3.31v-11.26h2v-2.65h-.88c0-1.53.26-3.42-1-4.6-.87-.85-2.25-1.3-3.12-2.17,1.08-.38,2.09-1.19,1.83-2.44a2.24,2.24,0,0,0-1.32-1.77c-.52-.24-1.4-.17-1.82-.59h1.91v-6.85H3210L3205.6,1157h.78v-1.43h-1l-.52-3.42h1.07v-1.44h-1.29l-.23-1.49h1v-1.43h-1.23l-.49-3.23a1.32,1.32,0,0,0-.25-2.62,1.32,1.32,0,0,0-1.33,1.32,1.34,1.34,0,0,0,1.06,1.3l-.49,3.23h-1.24v1.43h1l-.23,1.49H3201v1.44H3202l-.52,3.42h-1V1157h.78l-4.35,28.76h-1.41v6.85h1.91c-.42.43-1.31.36-1.82.59a2.25,2.25,0,0,0-1.32,1.77c-.26,1.25.75,2.07,1.83,2.44-.88.86-2.25,1.31-3.12,2.17-.12.12-.22.25-.32.37l-3.68-3.71-3.95,4v4h-3.21v-4l-4-4-3.95,4v4h-3.22v-4l-3.95-4-3.95,4v4h-3.21v-4l-4-4-3.95,4v4h-3.22v-4l-4-4-3.68,3.71a2.76,2.76,0,0,0-.31-.37c-.88-.85-2.25-1.3-3.12-2.17,1.08-.38,2.09-1.19,1.83-2.44a2.24,2.24,0,0,0-1.32-1.77c-.52-.24-1.4-.17-1.83-.59H3138v-6.85h-1.4L3132.3,1157h.78v-1.43h-1l-.52-3.42h1.07v-1.44h-1.29l-.22-1.49h1v-1.43h-1.24l-.49-3.23a1.34,1.34,0,0,0,1.06-1.3,1.33,1.33,0,0,0-2.65,0,1.34,1.34,0,0,0,1.06,1.3l-.49,3.23h-1.24v1.43h1l-.22,1.49h-1.29v1.44h1.07l-.51,3.42h-1V1157h.78l-4.34,28.76h-1.4v6.85h1.9c-.42.43-1.31.36-1.82.59A2.25,2.25,0,0,0,3121,1195c-.26,1.25.76,2.07,1.83,2.44-.87.86-2.25,1.31-3.12,2.17-1.21,1.19-1,3.08-1,4.6h-.87v2.65h2v11.26h-3.31v3.09h1.21v3.53h2.54v53.32h-3.75v3.09h1.21v3.53h2.54v59.94h-3.75v3.1h1.21v3.53h2.54v23.52h-3.75v3.09h1.21v3.53h2.54v40.52h-8.2V1425h1.32v3.53h1.91v7.68h-9.08v3.42h1.46v3.91h3.58V1506h-33.9l-2.58-18.11-2.66,18.69-5.62-32.27-5.9,33.91-1.88-10.17-6.13,33.12h-2.76V1548h-4.74v60.72h-3.76v99.36Z" transform="translate(0.5 0.5)"/><polygon class="cls-7" points="456.5 1658.45 318.42 598.95 315.16 645.34 307.48 598.6 303.13 620.34 299.39 598.5 290.02 646 278.61 598.5 144.87 1658.45 456.5 1658.45"/><path class="cls-8" d="M417.82,1364.83l-7.25-55.29H188.35l-7,55.29ZM338.63,757.16H258.05l-.6,4.64h81.79Zm-1.51-11.5-.6-4.64H260.11l-.6,4.64ZM335,729.46l-.6-4.59H262.1l-.54,4.59Zm-2.11-16.14-.6-4.59H264.16l-.6,4.59Zm-2.12-16.13-.6-4.64h-64l-.6,4.64Zm-2-16.15-.6-4.64H268.27l-.6,4.64Zm-2.12-16.14-.6-4.64H270.25l-.54,4.64Zm16.55,127H253.64l-1.14,9.21h91.87ZM361,929H236.37L234,947.49H363.4Z" transform="translate(0.5 0.5)"/><polygon class="cls-9" points="144.87 1658.45 278.61 598.5 290.02 646 267.01 1658.45 144.87 1658.45"/><path class="cls-10" d="M181.33,1364.83l7-55.29h86.07l-1.21,55.29ZM287,757.16H258.05l-.6,4.64h29.42Zm-27.48-11.5.6-4.64h27.24l-.12,4.64Zm2.06-16.2.54-4.59h25.61l-.12,4.59Zm2-16.14.6-4.59h23.93l-.12,4.59Zm2.05-16.13.6-4.64h22.23l-.12,4.64ZM267.66,681l.6-4.64H288.8l-.12,4.64Zm2-16.14.54-4.64h18.91L289,664.9Zm16.49,127H253.64l-1.14,9.21H286ZM283.06,929h-46.7L234,947.49h48.62Z" transform="translate(0.5 0.5)"/><polygon class="cls-11" points="315.16 645.34 401.29 1658.45 456.5 1658.45 318.42 598.95 315.16 645.34"/><path class="cls-12" d="M371.2,1309.54l4.71,55.29h41.93l-7.25-55.29ZM338.63,757.16H324.2l.42,4.64h14.61ZM316,660.27l.42,4.64h10.21l-.6-4.64Zm1.4,16.13.36,4.64h11l-.6-4.64Zm1.32,16.15.42,4.64h11.66l-.6-4.64Zm1.38,16.19.42,4.59h12.38l-.6-4.59Zm1.4,16.14.36,4.59H335l-.6-4.59ZM322.87,741l.36,4.64h13.89l-.6-4.64Zm20.29,50.91h-16l.78,9.21h16.43ZM361,929H338.81l1.57,18.49h23Z" transform="translate(0.5 0.5)"/><rect class="cls-13" x="0.5" y="0.5" width="3840" height="2397"/></g></g><rect class="cls-14" x="0.5" y="0.5" width="3840" height="2397"/></svg>