<svg id="sk3" xmlns="http://www.w3.org/2000/svg" xmlns:xlink="http://www.w3.org/1999/xlink" viewBox="0 0 6095.27 1774.12"><defs><style>.cls-1,.cls-5{fill:#fff;}.cls-1{opacity:0.19;}.cls-1,.cls-2,.cls-3,.cls-4,.cls-5{isolation:isolate;}.cls-2{opacity:0.3;fill:url(#linear-gradient);}.cls-3{fill:#3482b2;opacity:0.14;}.cls-4{fill:#4e669b;}.cls-4,.cls-5{opacity:0.16;}.cls-6{fill:#c6c6c6;}</style><linearGradient id="linear-gradient" x1="3569.15" y1="-1263.71" x2="6859.16" y2="-1263.71" gradientTransform="matrix(-0.98, 0.19, 0.19, 0.98, 9597.58, 631.25)" gradientUnits="userSpaceOnUse"><stop offset="0" stop-color="#fff"/><stop offset="0.04" stop-color="#daf9fc"/><stop offset="0.11" stop-color="#a2f0f7"/><stop offset="0.18" stop-color="#74e8f2"/><stop offset="0.24" stop-color="#50e2ef"/><stop offset="0.3" stop-color="#36deed"/><stop offset="0.35" stop-color="#26dbeb"/><stop offset="0.4" stop-color="#21daeb"/></linearGradient></defs><title>skyline3</title><g id="skyline3"><g id="skyline3-2"><polygon class="cls-1" points="6062.46 703.5 6062.46 1040.34 4991.71 1040.34 5597.52 849.77 6033.31 712.68 6062.46 703.5"/><path class="cls-2" d="M5845.16,101.7c5.81-1.06,11.49,2.31,12.84,7.62h0c1.07,5.27-2.7,10.35-8.43,11.34l-.23,0L2615.54,671.4Z"/><polygon class="cls-3" points="3395.36 1036.31 3439.94 1042.01 3313.56 1042.01 3173.19 1051.8 3159.53 1042.01 2336.03 1042.01 2336.03 1049.95 2186.63 1049.95 2186.63 1042.01 0 1042.01 0 326.49 422.05 214.88 684.43 221.41 696.65 221.72 703.58 221.9 734.83 222.67 1087.63 231.46 1268.11 235.95 1422.12 239.79 1507.3 241.91 1533.73 259.13 1593.46 298.03 1690.14 361.01 1690.15 361.01 1696.53 365.17 1734.78 390.09 2450.18 856.11 2563.56 929.98 3085.03 996.64 3098.59 998.37 3395.36 1036.31"/><polygon class="cls-4" points="3099.82 999.58 3160.76 1043.22 2337.26 1043.22 2337.26 1051.15 2187.86 1051.15 2187.86 1043.22 1.23 1043.22 1.23 127 767.18 97.58 1088.87 232.66 1162.37 263.52 1199.34 279.05 1260.23 304.62 1421.82 372.47 1432.48 373.11 1450.38 374.18 1579.66 381.92 1599.47 383.12 1599.48 383.12 1605.26 383.45 1736.01 391.29 2021.62 408.4 2517.9 582.87 2560.71 613.52 2956.04 896.61 3011.68 936.45 3012.49 937.04 3018.94 941.66 3086.27 989.87 3099.82 999.58"/><polygon class="cls-5" points="6095.27 319.26 6095.27 1040.34 3568.94 1040.34 3719.13 1030.61 4404.56 986.19 4666.31 969.21 4710.93 966.33 4861.1 956.6 4972.65 898.99 6095.27 319.26"/><path class="cls-6" d="M5785.84,1066.84V990.26h-4.44v-9.92h-13.76v9.92h-5.42v-9.92h-13.75v9.92h-5.42v-9.92H5729.3v9.92h-5.42v-9.92h-13.75v9.92h-5.43v-9.92H5691v9.92h-5.41v-9.92h-9.08V933.26h2v-5h-2v-28.3h2v-5h-2v-28.3h2v-5h-2V833.28h2v-5h-2V800h2v-5h-2V750h4.37v-4.68h1.78v-4.1h-11.09V732h2.34V727.7h1.61V724h-10V675.46h3.11v-4.23H5670v-3.7h-4.59V639.35h3.1v-4.23H5670V631.4h-4.59V559.59h3.1v-4.23H5670v-3.7h-4.59V487.78h3.1v-4.23H5670v-3.7h-4V466.31h2.44v-3.18h-1.06c0-1.83.32-4.09-1.22-5.51-1.08-1-2.76-1.55-3.81-2.6,1.32-.45,2.55-1.42,2.22-2.92A2.68,2.68,0,0,0,5663,450c-.64-.29-1.71-.2-2.22-.71h2.33v-8.2h-1.71L5656,406.61h.95V404.9h-1.22l-.62-4.1h1.31v-1.73h-1.57l-.27-1.78h1.22v-1.72h-1.51l-.6-3.87a1.58,1.58,0,1,0-1.93-1.54,1.57,1.57,0,0,0,1.29,1.54l-.59,3.87H5651v1.72h1.22l-.28,1.78h-1.43v1.73h1.32l-.63,4.1H5650v1.72h.95l-5.31,34.46h-1.71v8.2h2.33c-.51.52-1.6.44-2.22.71a2.73,2.73,0,0,0-1.62,2.12c-.31,1.5.91,2.48,2.23,2.92-1.07,1-2.75,1.57-3.81,2.6a5.21,5.21,0,0,0-.39.45l-4.5-4.45-4.88,4.8v4.79h-3.93v-4.79l-4.89-4.8-4.82,4.8v4.79h-3.92v-4.79l-4.83-4.8-4.88,4.8v4.79h-3.93v-4.79l-4.89-4.8-4.82,4.8v4.79h-3.94v-4.79l-4.88-4.8-4.49,4.45a4.19,4.19,0,0,0-.39-.45c-1.07-1-2.75-1.55-3.82-2.6,1.32-.45,2.56-1.42,2.24-2.92a2.69,2.69,0,0,0-1.61-2.12c-.64-.29-1.71-.2-2.24-.71h2.57v-8.2h-1.71l-5.31-34.46h.95v-1.71h-1.22l-.64-4.1h1.31v-1.73h-1.58l-.28-1.78h1.22v-1.71h-1.51l-.6-3.87a1.6,1.6,0,0,0,1.27-1.88,1.64,1.64,0,0,0-1.92-1.25,1.59,1.59,0,0,0,0,3.13l-.59,3.87h-1.52v1.71h1.22l-.28,1.78h-1.57v1.73h1.31l-.63,4.1h-1.22v1.71h.95l-5.31,34.46h-1.71v8.2h2.33c-.51.52-1.6.44-2.23.71a2.69,2.69,0,0,0-1.49,2.16c-.32,1.49.91,2.48,2.23,2.92-1.06,1-2.75,1.57-3.81,2.6-1.49,1.43-1.22,3.69-1.16,5.51H5549v3.18h2.44v13.49h-4v3.7h1.47v4.23H5552v63.88h-4.6v3.7h1.48v4.23h3.1V631.4h-4.59v3.72h1.48v4.23h3.1v28.17h-4.59v3.71h1.48v4.23h3.1v31.48h-9.37l-34.84-57a2.46,2.46,0,0,0,1.46-3.2,2.51,2.51,0,0,0-2.52-1.59h-1v-3.94a3.46,3.46,0,0,0,0-6.59v-3.92H5508a1.28,1.28,0,1,0,0-2.56h-2.33V625a1.12,1.12,0,0,0-2.23,0v3.08h-2.32a1.31,1.31,0,0,0-1.32,1.28,1.3,1.3,0,0,0,1.31,1.28h2.33v4a3.46,3.46,0,0,0,0,6.59v3.94h-1a2.52,2.52,0,0,0-2.68,2.32,2.48,2.48,0,0,0,1.62,2.48l-34.84,57H5458V675.49h3.1v-4.23h1.36v-3.7h-4.58V639.38h3.1v-4.23h1.48v-3.71h-4.58V559.63h3.1V555.4h1.48v-3.7h-4.58V487.81h3.1v-4.23h1.48v-3.7h-4.05V466.39h2.45v-3.17h-1.08c0-1.84.32-4.1-1.22-5.51-1.06-1-2.75-1.56-3.81-2.6,1.32-.46,2.55-1.43,2.24-2.93a2.71,2.71,0,0,0-1.62-2.12c-.63-.28-1.71-.2-2.22-.7h2.33v-8.21h-1.57l-5.37-34.53h.95v-1.71h-1.22l-.64-4.1h1.31v-1.73h-1.58l-.28-1.78h1.22v-1.71h-1.5l-.6-3.87a1.58,1.58,0,0,0-.3-3.14,1.6,1.6,0,0,0-1.63,1.57h0a1.63,1.63,0,0,0,1.3,1.56l-.6,3.87h-1.51v1.71h1.22l-.28,1.78h-1.48v1.73h1.22l-.64,4.1h-1.22v1.71h1l-5.32,34.46h-1.72v8.2h2.33c-.51.52-1.6.44-2.22.71a2.69,2.69,0,0,0-1.61,2.12c-.32,1.5.91,2.48,2.23,2.92-1.07,1-2.74,1.57-3.81,2.6q-.21.22-.39.45l-4.49-4.45-4.83,4.8v4.79h-3.92v-4.79l-4.88-4.8-4.82,4.8v4.79h-3.94v-4.79l-4.82-4.8-4.82,4.8v4.79h-3.92v-4.79l-4.89-4.8-4.82,4.8v4.79h-3.93v-4.79l-4.89-4.8-4.49,4.45a4.11,4.11,0,0,0-.38-.45c-1.08-1-2.75-1.55-3.81-2.6,1.32-.45,2.55-1.42,2.23-2.92a2.69,2.69,0,0,0-1.61-2.12c-.63-.29-1.71-.2-2.23-.71H5366v-8.2h-1.71L5359,406.62h.95v-1.71h-1.22l-.63-4.1h1.3v-1.73h-1.57l-.27-1.78h1.22v-1.71h-1.51l-.6-3.87a1.62,1.62,0,1,0-.65,0l-.6,3.87h-1.51v1.71h1.22l-.27,1.78h-1.57v1.73h1.3l-.62,4.1h-1.22v1.71h.95l-5.3,34.46h-1.71v8.2H5349c-.51.52-1.6.44-2.22.71a2.71,2.71,0,0,0-1.59,2.16c-.32,1.49.93,2.48,2.24,2.92-1.07,1-2.75,1.57-3.81,2.6-1.48,1.43-1.23,3.69-1.23,5.51h-1.06v3.18h2.44v13.49h-4v3.7h1.48v4.23h3.1v63.88h-4.58v3.7h1.48v4.23h3.1V631.4h-4.58v3.72h1.48v4.23h3.1v28.17h-4.58v3.71h1.48v4.23h3.1V724h-10v3.7h1.61v4.23h2.33v9.2h-11.09v4.1h1.79v4.69h4.37v74.83h-41.4l-3.15-21.7-3.25,22.39-6.86-38.66-7.21,40.63-2.29-12.19-7.49,39.68h-3.37v20.17h-5.79v72.74h-4.59v119Z"/></g></g></svg>