<svg aria-hidden="true" style="position: absolute; width: 0; height: 0; overflow: hidden;" version="1.1" xmlns="http://www.w3.org/2000/svg" xmlns:xlink="http://www.w3.org/1999/xlink">
<defs>

<symbol id="icon-matrix" viewBox="0 0 32 32">
<path d="M0.843 0.733v30.533h2.197v0.733h-3.040v-32h3.040v0.733zM10.233 10.413v1.543h0.044c0.412-0.591 0.911-1.045 1.489-1.365 0.577-0.327 1.248-0.487 2-0.487 0.72 0 1.377 0.143 1.975 0.419 0.597 0.277 1.047 0.776 1.36 1.477 0.339-0.499 0.8-0.941 1.379-1.323 0.579-0.383 1.267-0.573 2.061-0.573 0.604 0 1.163 0.075 1.68 0.223 0.517 0.147 0.955 0.381 1.324 0.707 0.368 0.327 0.652 0.745 0.861 1.268 0.203 0.523 0.307 1.151 0.307 1.889v7.637h-3.132v-6.468c0-0.381-0.013-0.745-0.043-1.083-0.023-0.325-0.109-0.624-0.246-0.893l0.006 0.013c-0.136-0.253-0.335-0.456-0.577-0.594l-0.007-0.004c-0.259-0.147-0.609-0.221-1.047-0.221-0.443 0-0.8 0.085-1.071 0.252-0.267 0.166-0.483 0.39-0.635 0.656l-0.005 0.009c-0.153 0.268-0.261 0.581-0.306 0.915l-0.002 0.013c-0.049 0.313-0.078 0.676-0.080 1.044v6.36h-3.133v-6.4c0-0.339-0.005-0.671-0.024-1.003-0.012-0.333-0.081-0.647-0.197-0.936l0.007 0.019c-0.113-0.281-0.304-0.511-0.548-0.667l-0.006-0.003c-0.259-0.167-0.635-0.253-1.139-0.253-0.148 0-0.345 0.032-0.585 0.099-0.24 0.068-0.48 0.191-0.707 0.376-0.228 0.184-0.425 0.449-0.585 0.793-0.16 0.345-0.24 0.8-0.24 1.36v6.621h-3.132v-11.42zM31.157 31.267v-30.533h-2.197v-0.733h3.040v32h-3.040v-0.733z"></path>
</symbol>

<symbol id="graph" viewBox="0 0 32 32">
<path d="M4 28h28v4h-32v-32h4zM9 26c-1.657 0-3-1.343-3-3s1.343-3 3-3c0.088 0 0.176 0.005 0.262 0.012l3.225-5.375c-0.307-0.471-0.487-1.033-0.487-1.638 0-1.657 1.343-3 3-3s3 1.343 3 3c0 0.604-0.179 1.167-0.487 1.638l3.225 5.375c0.086-0.007 0.174-0.012 0.262-0.012 0.067 0 0.133 0.003 0.198 0.007l5.324-9.316c-0.329-0.482-0.522-1.064-0.522-1.691 0-1.657 1.343-3 3-3s3 1.343 3 3c0 1.657-1.343 3-3 3-0.067 0-0.133-0.003-0.198-0.007l-5.324 9.316c0.329 0.481 0.522 1.064 0.522 1.691 0 1.657-1.343 3-3 3s-3-1.343-3-3c0-0.604 0.179-1.167 0.487-1.638l-3.225-5.375c-0.086 0.007-0.174 0.012-0.262 0.012s-0.176-0.005-0.262-0.012l-3.225 5.375c0.307 0.471 0.487 1.033 0.487 1.637 0 1.657-1.343 3-3 3z"></path>
</symbol>

<symbol id="theme" viewBox="0 0 32 32">
<path d="M16 8c-4.418 0-8 3.582-8 8s3.582 8 8 8 8-3.582 8-8-3.582-8-8-8zM16 21v-10c2.757 0 5 2.243 5 5s-2.243 5-5 5zM16 26c1.105 0 2 0.895 2 2v2c0 1.105-0.895 2-2 2s-2-0.895-2-2v-2c0-1.105 0.895-2 2-2zM16 6c-1.105 0-2-0.895-2-2v-2c0-1.105 0.895-2 2-2s2 0.895 2 2v2c0 1.105-0.895 2-2 2zM30 14c1.105 0 2 0.895 2 2s-0.895 2-2 2h-2c-1.105 0-2-0.895-2-2s0.895-2 2-2h2zM6 16c0 1.105-0.895 2-2 2h-2c-1.105 0-2-0.895-2-2s0.895-2 2-2h2c1.105 0 2 0.895 2 2zM25.899 23.071l1.414 1.414c0.781 0.781 0.781 2.047 0 2.828s-2.047 0.781-2.828 0l-1.414-1.414c-0.781-0.781-0.781-2.047 0-2.828s2.047-0.781 2.828 0zM6.101 8.929l-1.414-1.414c-0.781-0.781-0.781-2.047 0-2.828s2.047-0.781 2.828 0l1.414 1.414c0.781 0.781 0.781 2.047 0 2.828s-2.047 0.781-2.828 0zM25.899 8.929c-0.781 0.781-2.047 0.781-2.828 0s-0.781-2.047 0-2.828l1.414-1.414c0.781-0.781 2.047-0.781 2.828 0s0.781 2.047 0 2.828l-1.414 1.414zM6.101 23.071c0.781-0.781 2.047-0.781 2.828 0s0.781 2.047 0 2.828l-1.414 1.414c-0.781 0.781-2.047 0.781-2.828 0s-0.781-2.047 0-2.828l1.414-1.414z"></path>
</symbol>

<symbol id="matrix" viewBox="0 0 32 32">
<path d="M.84.73V31.27H3V32H0V0H3V.73ZM31.16,31.27V.73H29V0h3V32H29v-.73Z"/>
<path d="M7.69,8.48a2.11,2.11,0,0,1,0-.32,3,3,0,0,0,0-.46c-.1.07-.2.16-.32.26a3.51,3.51,0,0,1-.36.29,2.41,2.41,0,0,1-.36.23.72.72,0,0,1-.35.1,1,1,0,0,1-.24,0,1,1,0,0,1-.2-.11A1.43,1.43,0,0,1,5.59,8a1,1,0,0,1-.1-.46,2.32,2.32,0,0,1,0-.24,2,2,0,0,1,.06-.28A4.07,4.07,0,0,1,7.12,4.64a1.34,1.34,0,0,1,.45-.22,2.49,2.49,0,0,1,.46,0l.22,0,.22,0,.16,0h.13a.67.67,0,0,1,.22,0,.5.5,0,0,1,.14.1.37.37,0,0,1,.07.14.5.5,0,0,1,0,.17.85.85,0,0,1,0,.23l-.07.22L8.54,7.71l0,.36a1.34,1.34,0,0,1,0,.31l0,.11a.34.34,0,0,1-.06.12.52.52,0,0,1-.11.1.29.29,0,0,1-.17,0l-.21,0a.32.32,0,0,1-.13-.05.22.22,0,0,1,0-.08A.49.49,0,0,1,7.69,8.48ZM6.26,7.08s0,.11,0,.19a1.94,1.94,0,0,0,0,.24.51.51,0,0,0,0,.22.14.14,0,0,0,.15.1.62.62,0,0,0,.33-.08A1.61,1.61,0,0,0,7,7.54l.38-.36.36-.42a4.53,4.53,0,0,0,.3-.46,1.79,1.79,0,0,0,.19-.46c0-.09,0-.2.06-.31s0-.23,0-.32a.5.5,0,0,0,0-.12s-.05,0-.1,0a1.12,1.12,0,0,0-.43.08,1.91,1.91,0,0,0-.41.24A2,2,0,0,0,7,5.71a3.5,3.5,0,0,0-.33.43,3,3,0,0,0-.25.47A2.38,2.38,0,0,0,6.26,7.08Z"/><path d="M7.69,18a2.23,2.23,0,0,1,0-.32,3,3,0,0,0,0-.46c-.1.07-.2.16-.32.26a3.51,3.51,0,0,1-.36.29,2.5,2.5,0,0,1-.36.24.83.83,0,0,1-.35.09.67.67,0,0,1-.24,0,.64.64,0,0,1-.2-.11,1.43,1.43,0,0,1-.33-.39.93.93,0,0,1-.1-.45,1.94,1.94,0,0,1,0-.24,1.88,1.88,0,0,1,.06-.29A4.15,4.15,0,0,1,7.12,14.2,1.34,1.34,0,0,1,7.57,14a2.45,2.45,0,0,1,.46,0h.22l.22,0,.16,0h.13A.69.69,0,0,1,9,14a.5.5,0,0,1,.14.1.35.35,0,0,1,.07.15.47.47,0,0,1,0,.17.78.78,0,0,1,0,.22c0,.08,0,.15-.07.22l-.57,2.44c0,.13,0,.26,0,.37a1.54,1.54,0,0,1,0,.31l0,.1a.34.34,0,0,1-.06.12.52.52,0,0,1-.11.1.29.29,0,0,1-.17,0,.62.62,0,0,1-.21,0,.32.32,0,0,1-.13-.05.22.22,0,0,1,0-.08A.41.41,0,0,1,7.69,18ZM6.26,16.65a1.27,1.27,0,0,0,0,.18,1.94,1.94,0,0,0,0,.24.56.56,0,0,0,0,.23.15.15,0,0,0,.15.1.63.63,0,0,0,.33-.09A1.25,1.25,0,0,0,7,17.1a4.12,4.12,0,0,0,.38-.36l.36-.42a4.53,4.53,0,0,0,.3-.46,1.79,1.79,0,0,0,.19-.46c0-.09,0-.19.06-.31s0-.22,0-.32a.36.36,0,0,0,0-.11.1.1,0,0,0-.1-.06,1.14,1.14,0,0,0-.43.09,1.53,1.53,0,0,0-.41.23,2.44,2.44,0,0,0-.37.35,4.46,4.46,0,0,0-.33.43,3,3,0,0,0-.25.47A2.26,2.26,0,0,0,6.26,16.65Z"/><path d="M7.69,27.73a2.11,2.11,0,0,1,0-.32,3,3,0,0,0,0-.46c-.1.07-.2.16-.32.26a3.51,3.51,0,0,1-.36.29,2.41,2.41,0,0,1-.36.23.72.72,0,0,1-.35.1.67.67,0,0,1-.24,0,1,1,0,0,1-.2-.11,1.43,1.43,0,0,1-.33-.39,1,1,0,0,1-.1-.46,2.32,2.32,0,0,1,0-.24,2,2,0,0,1,.06-.28A4.16,4.16,0,0,1,6.13,25a4,4,0,0,1,1-1.06,1.34,1.34,0,0,1,.45-.22A2.49,2.49,0,0,1,8,23.62l.22,0,.22,0,.16,0h.13a.67.67,0,0,1,.22,0,.5.5,0,0,1,.14.1.37.37,0,0,1,.07.14.5.5,0,0,1,0,.17.85.85,0,0,1,0,.23l-.07.22L8.54,27l0,.37a1.34,1.34,0,0,1,0,.3l0,.11a.34.34,0,0,1-.06.12.52.52,0,0,1-.11.1.29.29,0,0,1-.17,0l-.21,0a.32.32,0,0,1-.13-.05.19.19,0,0,1,0-.09A.37.37,0,0,1,7.69,27.73Zm-1.43-1.4c0,.05,0,.11,0,.19a1.94,1.94,0,0,0,0,.24.59.59,0,0,0,0,.23.14.14,0,0,0,.15.09A.62.62,0,0,0,6.72,27a1.61,1.61,0,0,0,.3-.21l.38-.36L7.76,26a4.53,4.53,0,0,0,.3-.46,1.79,1.79,0,0,0,.19-.46c0-.09,0-.2.06-.31s0-.23,0-.32a.5.5,0,0,0,0-.12s-.05-.05-.1-.05a1.35,1.35,0,0,0-.43.08,1.91,1.91,0,0,0-.41.24A2,2,0,0,0,7,25a3.5,3.5,0,0,0-.33.43,3,3,0,0,0-.25.47A2.38,2.38,0,0,0,6.26,26.33Z"/><path d="M16.25,8.48a2.11,2.11,0,0,1,0-.32,3,3,0,0,0,0-.46c-.1.07-.2.16-.32.26l-.35.29a3.13,3.13,0,0,1-.37.23.69.69,0,0,1-.34.1,1,1,0,0,1-.25,0,1,1,0,0,1-.2-.11A1.43,1.43,0,0,1,14.15,8a1.08,1.08,0,0,1-.1-.46,2.32,2.32,0,0,1,0-.24c0-.08,0-.17.06-.28a4.39,4.39,0,0,1,.56-1.36,4.34,4.34,0,0,1,1-1.06,1.3,1.3,0,0,1,.46-.22,2.3,2.3,0,0,1,.45,0l.22,0,.22,0,.16,0h.14a.65.65,0,0,1,.21,0,.5.5,0,0,1,.14.1.37.37,0,0,1,.07.14.51.51,0,0,1,0,.17.59.59,0,0,1,0,.23,1.87,1.87,0,0,1-.07.22l-.56,2.44a2.38,2.38,0,0,0,0,.36,1.31,1.31,0,0,1-.06.31.61.61,0,0,1,0,.11.34.34,0,0,1-.06.12.52.52,0,0,1-.11.1.29.29,0,0,1-.17,0l-.21,0a.33.33,0,0,1-.12-.05.16.16,0,0,1-.06-.08A.49.49,0,0,1,16.25,8.48Zm-1.43-1.4s0,.11,0,.19a1.94,1.94,0,0,0,0,.24.51.51,0,0,0,0,.22.14.14,0,0,0,.15.1.68.68,0,0,0,.34-.08,1.94,1.94,0,0,0,.29-.21L16,7.18a4.71,4.71,0,0,0,.36-.42,4.53,4.53,0,0,0,.3-.46,1.79,1.79,0,0,0,.19-.46,2.44,2.44,0,0,0,.06-.31,1.89,1.89,0,0,0,0-.32.25.25,0,0,0,0-.12s-.05,0-.1,0a1,1,0,0,0-.42.08,2,2,0,0,0-.42.24,2.41,2.41,0,0,0-.37.35,3.5,3.5,0,0,0-.33.43,4.23,4.23,0,0,0-.25.47A3.27,3.27,0,0,0,14.82,7.08Z"/><path d="M16.25,18a2.23,2.23,0,0,1,0-.32,3,3,0,0,0,0-.46c-.1.07-.2.16-.32.26l-.35.29a3.28,3.28,0,0,1-.37.24.79.79,0,0,1-.34.09.69.69,0,0,1-.25,0,.64.64,0,0,1-.2-.11,1.43,1.43,0,0,1-.33-.39,1.06,1.06,0,0,1-.1-.45,1.94,1.94,0,0,1,0-.24c0-.09,0-.18.06-.29a4.15,4.15,0,0,1,1.55-2.42,1.3,1.3,0,0,1,.46-.22,2.28,2.28,0,0,1,.45,0h.22L17,14l.16,0h.14a.66.66,0,0,1,.21,0,.5.5,0,0,1,.14.1.35.35,0,0,1,.07.15.47.47,0,0,1,0,.17.54.54,0,0,1,0,.22,1.42,1.42,0,0,1-.07.22l-.56,2.44a2.51,2.51,0,0,0,0,.37A1.55,1.55,0,0,1,17,18a.54.54,0,0,1,0,.1.34.34,0,0,1-.06.12.52.52,0,0,1-.11.1.29.29,0,0,1-.17,0,.62.62,0,0,1-.21,0,.33.33,0,0,1-.12-.05.16.16,0,0,1-.06-.08A.41.41,0,0,1,16.25,18Zm-1.43-1.39s0,.1,0,.18a1.94,1.94,0,0,0,0,.24.56.56,0,0,0,0,.23.15.15,0,0,0,.15.1.69.69,0,0,0,.34-.09,1.42,1.42,0,0,0,.29-.21,4.12,4.12,0,0,0,.38-.36,3.62,3.62,0,0,0,.36-.42,4.53,4.53,0,0,0,.3-.46,1.79,1.79,0,0,0,.19-.46,2.14,2.14,0,0,0,.06-.31,1.83,1.83,0,0,0,0-.32.2.2,0,0,0,0-.11.1.1,0,0,0-.1-.06,1.06,1.06,0,0,0-.42.09,1.58,1.58,0,0,0-.42.23,3,3,0,0,0-.37.35,4.46,4.46,0,0,0-.33.43,4.23,4.23,0,0,0-.25.47A3,3,0,0,0,14.82,16.65Z"/><path d="M16.25,27.73a2.11,2.11,0,0,1,0-.32,3,3,0,0,0,0-.46c-.1.07-.2.16-.32.26l-.35.29a3.13,3.13,0,0,1-.37.23.69.69,0,0,1-.59.06,1,1,0,0,1-.2-.11,1.43,1.43,0,0,1-.33-.39,1.08,1.08,0,0,1-.1-.46,2.32,2.32,0,0,1,0-.24c0-.08,0-.17.06-.28A4.39,4.39,0,0,1,14.69,25a4.17,4.17,0,0,1,1-1.06,1.3,1.3,0,0,1,.46-.22,2.3,2.3,0,0,1,.45-.05l.22,0,.22,0,.16,0h.14a.65.65,0,0,1,.21,0,.5.5,0,0,1,.14.1.37.37,0,0,1,.07.14.51.51,0,0,1,0,.17.59.59,0,0,1,0,.23,1.87,1.87,0,0,1-.07.22L17.11,27a2.4,2.4,0,0,0,0,.37,1.33,1.33,0,0,1-.06.3.61.61,0,0,1,0,.11.34.34,0,0,1-.06.12.52.52,0,0,1-.11.1.29.29,0,0,1-.17,0l-.21,0a.33.33,0,0,1-.12-.05.15.15,0,0,1-.06-.09A.37.37,0,0,1,16.25,27.73Zm-1.43-1.4c0,.05,0,.11,0,.19a1.94,1.94,0,0,0,0,.24.59.59,0,0,0,0,.23.14.14,0,0,0,.15.09.68.68,0,0,0,.34-.08,1.94,1.94,0,0,0,.29-.21l.38-.36a4.71,4.71,0,0,0,.36-.42,4.53,4.53,0,0,0,.3-.46,1.79,1.79,0,0,0,.19-.46,2.44,2.44,0,0,0,.06-.31,1.89,1.89,0,0,0,0-.32.25.25,0,0,0,0-.12s-.05-.05-.1-.05a1.25,1.25,0,0,0-.42.08,2,2,0,0,0-.42.24,2.41,2.41,0,0,0-.37.35,3.5,3.5,0,0,0-.33.43,4.23,4.23,0,0,0-.25.47A3.27,3.27,0,0,0,14.82,26.33Z"/><path d="M24.81,8.61a2,2,0,0,1,0-.32,3.09,3.09,0,0,0,0-.47l-.31.26c-.12.11-.24.2-.36.3a2.49,2.49,0,0,1-.37.23.75.75,0,0,1-.34.09.69.69,0,0,1-.25,0,.59.59,0,0,1-.19-.11,1.14,1.14,0,0,1-.33-.39.93.93,0,0,1-.1-.45,1.93,1.93,0,0,1,0-.24c0-.08,0-.18.06-.29a4.24,4.24,0,0,1,.56-1.35,4,4,0,0,1,1-1.06,1.08,1.08,0,0,1,.46-.22,2.3,2.3,0,0,1,.45,0h.22l.22,0,.17,0h.13a.46.46,0,0,1,.21,0,.24.24,0,0,1,.14.1.39.39,0,0,1,.08.14.88.88,0,0,1,0,.17.62.62,0,0,1,0,.23l-.06.22-.57,2.43c0,.14,0,.26,0,.37a2.87,2.87,0,0,1-.05.31.69.69,0,0,1,0,.1.23.23,0,0,1-.06.12.27.27,0,0,1-.11.1.25.25,0,0,1-.16.05l-.22,0a.34.34,0,0,1-.12-.06.16.16,0,0,1-.06-.08S24.81,8.65,24.81,8.61Zm-1.43-1.4a1.64,1.64,0,0,0,0,.18,1.1,1.1,0,0,0,0,.25.78.78,0,0,0,0,.22.14.14,0,0,0,.15.1.69.69,0,0,0,.34-.09,1.37,1.37,0,0,0,.29-.2,4.36,4.36,0,0,0,.38-.37,3.62,3.62,0,0,0,.36-.42,2.93,2.93,0,0,0,.3-.45,2.65,2.65,0,0,0,.2-.47,2.24,2.24,0,0,0,.05-.31,1.89,1.89,0,0,0,0-.31.27.27,0,0,0,0-.12.1.1,0,0,0-.1-.06,1.06,1.06,0,0,0-.42.09,2.38,2.38,0,0,0-.41.23,3.09,3.09,0,0,0-.38.35,4.46,4.46,0,0,0-.33.43,4.37,4.37,0,0,0-.25.48A3.27,3.27,0,0,0,23.38,7.21Z"/><path d="M24.81,18.17a2,2,0,0,1,0-.32,3.09,3.09,0,0,0,0-.47c-.09.08-.2.16-.31.27l-.36.29a2.49,2.49,0,0,1-.37.23.66.66,0,0,1-.34.1.7.7,0,0,1-.25-.05.45.45,0,0,1-.19-.11,1.22,1.22,0,0,1-.33-.38,1,1,0,0,1-.1-.46,1.93,1.93,0,0,1,0-.24c0-.08,0-.18.06-.29a4.44,4.44,0,0,1,.56-1.35,4.17,4.17,0,0,1,1-1.06,1.21,1.21,0,0,1,.46-.22,2.3,2.3,0,0,1,.45,0l.22,0,.22,0,.17,0h.13a.46.46,0,0,1,.21,0,.3.3,0,0,1,.14.1.39.39,0,0,1,.08.14,1,1,0,0,1,0,.17.59.59,0,0,1,0,.23l-.06.22-.57,2.44,0,.36a2.51,2.51,0,0,1-.05.31l0,.11a.34.34,0,0,1-.06.12.55.55,0,0,1-.11.1.34.34,0,0,1-.16,0l-.22,0a.33.33,0,0,1-.12-.05.18.18,0,0,1-.06-.09S24.81,18.21,24.81,18.17Zm-1.43-1.4c0,.05,0,.11,0,.19a1,1,0,0,0,0,.24.73.73,0,0,0,0,.22.14.14,0,0,0,.15.1.81.81,0,0,0,.34-.08,1.94,1.94,0,0,0,.29-.21c.13-.11.25-.23.38-.36a4.82,4.82,0,0,0,.36-.43,2.52,2.52,0,0,0,.3-.45,2.37,2.37,0,0,0,.2-.47,2.24,2.24,0,0,0,.05-.31,1.8,1.8,0,0,0,0-.31.27.27,0,0,0,0-.12.1.1,0,0,0-.1-.06,1.06,1.06,0,0,0-.42.09,1.91,1.91,0,0,0-.41.24,2.46,2.46,0,0,0-.38.35,2.88,2.88,0,0,0-.33.43,4.23,4.23,0,0,0-.25.47A3.27,3.27,0,0,0,23.38,16.77Z"/><path d="M24.81,27.86a2,2,0,0,1,0-.32,3.18,3.18,0,0,0,0-.47l-.31.26c-.12.11-.24.2-.36.3a2.49,2.49,0,0,1-.37.23.75.75,0,0,1-.34.09.69.69,0,0,1-.25,0,.59.59,0,0,1-.19-.11,1.14,1.14,0,0,1-.33-.39.93.93,0,0,1-.1-.45,1.93,1.93,0,0,1,0-.24c0-.08,0-.18.06-.29a4.24,4.24,0,0,1,.56-1.35,4,4,0,0,1,1-1.06,1.08,1.08,0,0,1,.46-.22,1.73,1.73,0,0,1,.45-.05h.22l.22,0,.17,0h.13a.46.46,0,0,1,.21,0,.24.24,0,0,1,.14.1.39.39,0,0,1,.08.14.88.88,0,0,1,0,.17.62.62,0,0,1,0,.23l-.06.22-.57,2.43c0,.14,0,.26,0,.37a2.87,2.87,0,0,1-.05.31l0,.1a.23.23,0,0,1-.06.12.27.27,0,0,1-.11.1.25.25,0,0,1-.16.05l-.22,0a.34.34,0,0,1-.12-.06.16.16,0,0,1-.06-.08S24.81,27.9,24.81,27.86Zm-1.43-1.4a1.64,1.64,0,0,0,0,.18,1.1,1.1,0,0,0,0,.25.78.78,0,0,0,0,.22.14.14,0,0,0,.15.1.69.69,0,0,0,.34-.09,1.37,1.37,0,0,0,.29-.2,4.36,4.36,0,0,0,.38-.37,3.62,3.62,0,0,0,.36-.42,2.93,2.93,0,0,0,.3-.45,2.65,2.65,0,0,0,.2-.47,2.24,2.24,0,0,0,.05-.31,1.89,1.89,0,0,0,0-.31.27.27,0,0,0,0-.12.1.1,0,0,0-.1-.06,1.06,1.06,0,0,0-.42.09,2.38,2.38,0,0,0-.41.23,3.09,3.09,0,0,0-.38.35,4.46,4.46,0,0,0-.33.43,4.37,4.37,0,0,0-.25.48A3.27,3.27,0,0,0,23.38,26.46Z"/>
</symbol>

<symbol id="exit" viewBox="0 0 24 24">
<path id='exity' d="M9 20h-4c-0.276 0-0.525-0.111-0.707-0.293s-0.293-0.431-0.293-0.707v-14c0-0.276 0.111-0.525 0.293-0.707s0.431-0.293 0.707-0.293h4c0.552 0 1-0.448 1-1s-0.448-1-1-1h-4c-0.828 0-1.58 0.337-2.121 0.879s-0.879 1.293-0.879 2.121v14c0 0.828 0.337 1.58 0.879 2.121s1.293 0.879 2.121 0.879h4c0.552 0 1-0.448 1-1s-0.448-1-1-1zM18.586 11h-9.586c-0.552 0-1 0.448-1 1s0.448 1 1 1h9.586l-3.293 3.293c-0.391 0.391-0.391 1.024 0 1.414s1.024 0.391 1.414 0l5-5c0.092-0.092 0.166-0.202 0.217-0.324 0.15-0.362 0.078-0.795-0.217-1.090l-5-5c-0.391-0.391-1.024-0.391-1.414 0s-0.391 1.024 0 1.414z"></path>
</symbol>


</defs>
</svg>
