<svg aria-hidden="true" style="position: absolute; width: 0; height: 0; overflow: hidden;" version="1.1" xmlns="http://www.w3.org/2000/svg" xmlns:xlink="http://www.w3.org/1999/xlink">
<defs>
<symbol id="icon-envelope" viewBox="0 0 32 32">
<path d="M24.09,8.88H8.41A1.73,1.73,0,0,0,6.7,10.81a2.48,2.48,0,0,0,.5,1.31,5,5,0,0,0,1.28,1.36l.06,0,1.53,1.07,1,.68L13.52,17c.68.48,1.87,1.46,2.73,1.46h0c.87,0,2.05-1,2.73-1.46s1.65-1.15,2.49-1.72l1-.69L24,13.48l.05,0a4.51,4.51,0,0,0,1.28-1.33,2.87,2.87,0,0,0,.5-1.53A1.71,1.71,0,0,0,24.09,8.88Zm.64,5.76-.35.24-1.75,1.18h0l-.37.25-.88.61c-.68.46-1.3.91-1.95,1.36a5.71,5.71,0,0,1-3.18,1.5h0a5.85,5.85,0,0,1-3.17-1.47c-.65-.47-1.3-.93-2-1.36l-.84-.59-.4-.27h0L8.13,14.9l-.34-.23a5.86,5.86,0,0,1-1.09-1v8.46a1.73,1.73,0,0,0,1.71,1.71H24.09a1.72,1.72,0,0,0,1.71-1.71V13.71A6.32,6.32,0,0,1,24.73,14.64Z"/><path d="M29,0H3A3,3,0,0,0,0,3V29a3,3,0,0,0,3,3H29a3,3,0,0,0,3-3V3A3,3,0,0,0,29,0Zm-.64,26A2.32,2.32,0,0,1,26,28.36H6A2.32,2.32,0,0,1,3.64,26V6A2.33,2.33,0,0,1,6,3.64H26A2.33,2.33,0,0,1,28.36,6Z"/>
</symbol>
<symbol id="icon-outgoing_mail" viewBox="0 0 24 24">
<path d="M18.516 11.016h0.469v-4.125q0-0.797-0.539-1.336t-1.336-0.539h-13.219q-0.797 0-1.336 0.539t-0.539 1.336v10.219q0 0.797 0.539 1.336t1.336 0.539h9.703q-0.281-0.563-0.445-1.195t-0.164-1.289q0-1.5 0.75-2.766t1.992-1.992 2.789-0.727zM10.406 12.984l-6.422-3.797v-2.203h0.234l6.188 3.703 6.328-3.703h0.281v2.156zM18.984 12.984l-1.406 1.406 1.594 1.594h-4.172v2.016h4.172l-1.594 1.594 1.406 1.406 4.031-3.984z"></path>
</symbol>
<symbol id="icon-facebook2" viewBox="0 0 32 32">
<path d="M29 0h-26c-1.65 0-3 1.35-3 3v26c0 1.65 1.35 3 3 3h13v-14h-4v-4h4v-2c0-3.306 2.694-6 6-6h4v4h-4c-1.1 0-2 0.9-2 2v2h6l-1 4h-5v14h9c1.65 0 3-1.35 3-3v-26c0-1.65-1.35-3-3-3z"></path>
</symbol>
<symbol id="icon-github-square" viewBox="0 0 32 32">
<path d="M29,0H3A3,3,0,0,0,0,3V29a3,3,0,0,0,3,3H29a3,3,0,0,0,3-3V3A3,3,0,0,0,29,0ZM19.37,26.12c-.53.11-.72-.22-.72-.51s0-1.51,0-2.92a2.56,2.56,0,0,0-.74-2c2.38-.27,4.88-1.17,4.88-5.27a4.13,4.13,0,0,0-1.1-2.86,3.9,3.9,0,0,0-.1-2.83c-.9-.27-2.94,1.11-2.94,1.11A9.16,9.16,0,0,0,16,10.5a9.16,9.16,0,0,0-2.67.36s-2-1.38-2.94-1.11a3.9,3.9,0,0,0-.1,2.83,4.15,4.15,0,0,0-1.1,2.86c0,4.08,2.5,5,4.88,5.27a2.33,2.33,0,0,0-.7,1.44,2.28,2.28,0,0,1-3.1-.9,2.2,2.2,0,0,0-1.62-1.1c-1.05,0-.09.66-.09.66.71.32,1.19,1.55,1.19,1.55.63,1.91,3.58,1.26,3.58,1.26,0,.9,0,1.73,0,2s-.19.62-.72.51a10.67,10.67,0,1,1,6.74,0ZM13.29,22.6h0a.23.23,0,0,1-.21.21.19.19,0,0,1-.24-.12c0-.09.05-.17.18-.19S13.27,22.52,13.29,22.6Zm-.81.15c0,.09-.1.17-.23.17s-.23-.08-.23-.17a.19.19,0,0,1,.21-.17C12.38,22.58,12.48,22.67,12.48,22.75Zm-.87-.06a.23.23,0,0,1-.28.08c-.12,0-.2-.14-.19-.22a.21.21,0,0,1,.28-.09A.25.25,0,0,1,11.61,22.69Zm-.8-.36c-.06.06-.18.05-.29,0a.23.23,0,0,1-.06-.27c.06-.06.19,0,.29.05A.21.21,0,0,1,10.81,22.33Zm-.53-.69a.13.13,0,0,1,0,.11c-.06,0-.16,0-.25-.11s-.06-.21,0-.24a.2.2,0,0,1,.25.08A.33.33,0,0,1,10.28,21.64Zm-.47-.51c-.06.06-.17,0-.22-.05s-.09-.16,0-.22.15,0,.21.06A.15.15,0,0,1,9.81,21.13Zm-.44-.48c0,.06-.1.06-.18,0s-.13-.1-.08-.16.1-.06.16,0S9.4,20.6,9.37,20.65Z"/>
</symbol>
<symbol id="icon-linkedin" viewBox="0 0 32 32">
<path d="M29 0h-26c-1.65 0-3 1.35-3 3v26c0 1.65 1.35 3 3 3h26c1.65 0 3-1.35 3-3v-26c0-1.65-1.35-3-3-3zM12 26h-4v-14h4v14zM10 10c-1.106 0-2-0.894-2-2s0.894-2 2-2c1.106 0 2 0.894 2 2s-0.894 2-2 2zM26 26h-4v-8c0-1.106-0.894-2-2-2s-2 0.894-2 2v8h-4v-14h4v2.481c0.825-1.131 2.087-2.481 3.5-2.481 2.488 0 4.5 2.238 4.5 5v9z"></path>
</symbol>
</defs>
</svg>
