<svg aria-hidden="true" style="position: absolute; width: 0; height: 0; overflow: hidden;" version="1.1" xmlns="http://www.w3.org/2000/svg" xmlns:xlink="http://www.w3.org/1999/xlink">
<defs>
<symbol id="icon-envelope" viewBox="0 0 28 28">
<path d="M28 11.094v12.406c0 1.375-1.125 2.5-2.5 2.5h-23c-1.375 0-2.5-1.125-2.5-2.5v-12.406c0.469 0.516 1 0.969 1.578 1.359 2.594 1.766 5.219 3.531 7.766 5.391 1.313 0.969 2.938 2.156 4.641 2.156h0.031c1.703 0 3.328-1.188 4.641-2.156 2.547-1.844 5.172-3.625 7.781-5.391 0.562-0.391 1.094-0.844 1.563-1.359zM28 6.5c0 1.75-1.297 3.328-2.672 4.281-2.438 1.687-4.891 3.375-7.313 5.078-1.016 0.703-2.734 2.141-4 2.141h-0.031c-1.266 0-2.984-1.437-4-2.141-2.422-1.703-4.875-3.391-7.297-5.078-1.109-0.75-2.688-2.516-2.688-3.938 0-1.531 0.828-2.844 2.5-2.844h23c1.359 0 2.5 1.125 2.5 2.5z"></path>
</symbol>
<symbol id="icon-github-square" viewBox="0 0 24 28">
<path d="M8.109 18.75v0c0.031-0.047 0.016-0.141-0.047-0.203-0.078-0.063-0.172-0.078-0.219-0.031-0.031 0.047-0.016 0.141 0.047 0.203 0.078 0.063 0.172 0.078 0.219 0.031zM7.672 18.109c-0.047-0.063-0.125-0.094-0.187-0.063-0.047 0.031-0.047 0.125 0 0.187 0.063 0.078 0.141 0.109 0.187 0.078v0c0.047-0.031 0.047-0.125 0-0.203zM7.031 17.484v0c0.016-0.031-0.016-0.094-0.078-0.125-0.047-0.016-0.109-0.016-0.125 0.031-0.031 0.047 0 0.094 0.063 0.125 0.063 0.016 0.125 0.016 0.141-0.031zM7.359 17.844v0c0.031-0.031 0.031-0.109-0.031-0.156-0.047-0.063-0.125-0.078-0.156-0.047-0.047 0.047-0.031 0.109 0.016 0.172 0.047 0.047 0.125 0.078 0.172 0.031zM8.703 19.016v0c0.016-0.063-0.047-0.141-0.141-0.172s-0.172 0-0.203 0.063c-0.016 0.063 0.047 0.141 0.141 0.172s0.172 0 0.203-0.063zM9.359 19.063v0c0-0.063-0.078-0.125-0.187-0.125-0.094 0-0.156 0.063-0.156 0.125s0.078 0.125 0.172 0.125 0.172-0.063 0.172-0.125zM9.969 18.953v0c-0.016-0.063-0.109-0.094-0.203-0.078s-0.156 0.078-0.141 0.141 0.094 0.109 0.187 0.094 0.156-0.094 0.156-0.156zM20 14c0-4.422-3.578-8-8-8s-8 3.578-8 8c0 3.531 2.297 6.531 5.469 7.594 0.406 0.078 0.547-0.172 0.547-0.391 0-0.187 0-0.812-0.016-1.484 0 0-2.219 0.484-2.688-0.953 0 0-0.359-0.922-0.891-1.156 0 0-0.719-0.5 0.063-0.5 0 0 0.781 0.063 1.219 0.828 0.703 1.234 1.875 0.875 2.328 0.672 0.078-0.516 0.281-0.875 0.516-1.078-1.781-0.203-3.656-0.891-3.656-3.953 0-0.875 0.313-1.578 0.828-2.141-0.078-0.203-0.359-1.016 0.078-2.125 0.672-0.203 2.203 0.828 2.203 0.828 0.641-0.187 1.313-0.266 2-0.266s1.359 0.078 2 0.266c0 0 1.531-1.031 2.203-0.828 0.438 1.109 0.156 1.922 0.078 2.125 0.516 0.562 0.828 1.266 0.828 2.141 0 3.078-1.875 3.75-3.656 3.953 0.281 0.25 0.547 0.734 0.547 1.484 0 1.062-0.016 1.922-0.016 2.188 0 0.219 0.141 0.469 0.547 0.391 3.172-1.062 5.469-4.062 5.469-7.594zM24 6.5v15c0 2.484-2.016 4.5-4.5 4.5h-15c-2.484 0-4.5-2.016-4.5-4.5v-15c0-2.484 2.016-4.5 4.5-4.5h15c2.484 0 4.5 2.016 4.5 4.5z"></path>
</symbol>
<symbol id="icon-outgoing_mail" viewBox="0 0 24 24">
<path d="M18.516 11.016h0.469v-4.125q0-0.797-0.539-1.336t-1.336-0.539h-13.219q-0.797 0-1.336 0.539t-0.539 1.336v10.219q0 0.797 0.539 1.336t1.336 0.539h9.703q-0.281-0.563-0.445-1.195t-0.164-1.289q0-1.5 0.75-2.766t1.992-1.992 2.789-0.727zM10.406 12.984l-6.422-3.797v-2.203h0.234l6.188 3.703 6.328-3.703h0.281v2.156zM18.984 12.984l-1.406 1.406 1.594 1.594h-4.172v2.016h4.172l-1.594 1.594 1.406 1.406 4.031-3.984z"></path>
</symbol>
<symbol id="icon-facebook2" viewBox="0 0 32 32">
<path d="M29 0h-26c-1.65 0-3 1.35-3 3v26c0 1.65 1.35 3 3 3h13v-14h-4v-4h4v-2c0-3.306 2.694-6 6-6h4v4h-4c-1.1 0-2 0.9-2 2v2h6l-1 4h-5v14h9c1.65 0 3-1.35 3-3v-26c0-1.65-1.35-3-3-3z"></path>
</symbol>
<symbol id="icon-github" viewBox="0 0 32 32">
<path d="M16 0.395c-8.836 0-16 7.163-16 16 0 7.069 4.585 13.067 10.942 15.182 0.8 0.148 1.094-0.347 1.094-0.77 0-0.381-0.015-1.642-0.022-2.979-4.452 0.968-5.391-1.888-5.391-1.888-0.728-1.849-1.776-2.341-1.776-2.341-1.452-0.993 0.11-0.973 0.11-0.973 1.606 0.113 2.452 1.649 2.452 1.649 1.427 2.446 3.743 1.739 4.656 1.33 0.143-1.034 0.558-1.74 1.016-2.14-3.554-0.404-7.29-1.777-7.29-7.907 0-1.747 0.625-3.174 1.649-4.295-0.166-0.403-0.714-2.030 0.155-4.234 0 0 1.344-0.43 4.401 1.64 1.276-0.355 2.645-0.532 4.005-0.539 1.359 0.006 2.729 0.184 4.008 0.539 3.054-2.070 4.395-1.64 4.395-1.64 0.871 2.204 0.323 3.831 0.157 4.234 1.026 1.12 1.647 2.548 1.647 4.295 0 6.145-3.743 7.498-7.306 7.895 0.574 0.497 1.085 1.47 1.085 2.963 0 2.141-0.019 3.864-0.019 4.391 0 0.426 0.288 0.925 1.099 0.768 6.354-2.118 10.933-8.113 10.933-15.18 0-8.837-7.164-16-16-16z"></path>
</symbol>
<symbol id="icon-linkedin" viewBox="0 0 32 32">
<path d="M29 0h-26c-1.65 0-3 1.35-3 3v26c0 1.65 1.35 3 3 3h26c1.65 0 3-1.35 3-3v-26c0-1.65-1.35-3-3-3zM12 26h-4v-14h4v14zM10 10c-1.106 0-2-0.894-2-2s0.894-2 2-2c1.106 0 2 0.894 2 2s-0.894 2-2 2zM26 26h-4v-8c0-1.106-0.894-2-2-2s-2 0.894-2 2v8h-4v-14h4v2.481c0.825-1.131 2.087-2.481 3.5-2.481 2.488 0 4.5 2.238 4.5 5v9z"></path>
</symbol>
</defs>
</svg>
