<svg id="sk1" xmlns="http://www.w3.org/2000/svg" viewBox="0 0 6095.27 1774.12"><defs><style>.cls-1{fill:#686868;}.cls-2{fill:#39bae2;}</style></defs><title>skyline1</title><path class="cls-1" d="M2171.46,1043v-33.06h3.12v-5.19h-3.12v-4h3.12V995.5h-3.12V944.36h3.12v-5.19h-3.12v-4h3.12v-5.19h-3.12V878.8h3.12v-5.19h-3.12v-4.24h3.12v-5.19h-3.12V813.05h3.12v-5.19h-3.12v-4h3.12v-5.19h-3.12v-57.4h2.41V718.77h.87a.93.93,0,0,0,.89-1v-1a.93.93,0,0,0-.89-1h-1.45a.24.24,0,0,0,0-.12v-3.06h.15c.52,0,.91-.35.87-.72h0v-7.27h.4c.52,0,.91-.35.88-.73v-.73c0-.37-.35-.7-.87-.73h-2v-1.34h2.15c.52,0,.91-.36.87-.74V700c0-.37-.35-.69-.87-.73h-2.15V677.5h1.71c.52,0,.91-.35.88-.72v-.86c0-.37-.35-.7-.88-.73h-1.71V654.42h2c.49,0,.86-.34.82-.69s-.33-.66-.82-.69h-1.91v-1.63h1.72c.52,0,.91-.36.87-.73v-.32c0-.38-.35-.71-.87-.74h-1.72v-.85H2174c.53,0,.92-.37.87-.74v-.11c.05-.38-.34-.71-.87-.74h-1.22v-.57H2174c.52,0,.91-.35.87-.73h0v-.29c.05-.37-.34-.7-.87-.74h-1.22v-2.27h3.46c.53,0,.92-.36.89-.73h0v-.49c0-.37-.36-.69-.88-.72h-1.55a1.09,1.09,0,0,0,.45-.81,2.61,2.61,0,0,0-2.26-2.08v-.9h.47c.1,0,.17-.06.17-.13h0c0-.07-.07-.14-.17-.14h-.47v-.82c0-.08,0-.16-.14-.18a.22.22,0,0,0-.25.1.11.11,0,0,0,0,.08v.82H2172a.16.16,0,0,0-.18.14h0a.16.16,0,0,0,.16.14h.48v.9a2.61,2.61,0,0,0-2.25,2.08,1.09,1.09,0,0,0,.45.81h-.17c-.52,0-.91.35-.87.72v.11h-1.57a1,1,0,0,0,0-.25v-3h.68c.54-.05.93-.4.86-.79a.88.88,0,0,0-.86-.61h-.68V626.44h.11c.53,0,.92-.37.88-.74v-.31c0-.37-.35-.7-.87-.73h-.12v-1a.63.63,0,0,0,.46-.6.61.61,0,0,0-.46-.58v-2.07c0-.32-.25-.6-.66-.71a.19.19,0,0,0,0-.18v-.67c0-.17-.15-.32-.39-.33s-.41.16-.4.33v.67a.19.19,0,0,0,0,.18c-.41.11-.68.39-.66.71v2.07c-.45.19-.61.6-.35.92a.85.85,0,0,0,.35.26v1h0c-.52,0-.9.36-.87.73v.31c0,.37.35.7.87.74h.1v4.24l-2.57-1.58a1,1,0,0,0-.65-.12v-4.07H2164c.52,0,.91-.36.87-.74v-.36c0-.38-.35-.7-.87-.74h-1.18v-2.8H2164c.52,0,.91-.36.87-.74v-.36c0-.37-.35-.7-.87-.73h-1.18v-.3h.48V606.26h-1.55v4.8l-1.24-.64v-1.79h-.38v-3.46h.61v-1.46h-.61V600l2.07,1.73.1-.08V597.5l-.1-.08-2.07,1.72v-3h.76v-1.51h-.76v-1.26h-.82v1.26h-.76v1.51h.76v3l-2.08-1.76-.1.08v4.15l.1.09,2.06-1.73v3.7h-.61v1.46h.61v3.46h-.48v1.79l-1.45.78a.62.62,0,0,0-.59,0l-1.08-1.41a.38.38,0,0,0,.15-.58.59.59,0,0,0-.63-.15l-.07,0-1.09-1.4a.38.38,0,0,0,.14-.59.55.55,0,0,0-.61-.15l-.08,0-1.09-1.4a.37.37,0,0,0,.14-.58.54.54,0,0,0-.61-.16l-.08,0-1.08-1.4a.38.38,0,0,0,.15-.58.55.55,0,0,0-.62-.16l-.08,0-1.07-1.4a.37.37,0,0,0,.14-.58.57.57,0,0,0-.62-.15l-.08,0-1.07-1.4a.38.38,0,0,0,.14-.59.52.52,0,0,0-.59-.15l-.1,0-1.09-1.41a.37.37,0,0,0,.14-.58.54.54,0,0,0-.61-.16l-.08,0-1.09-1.4a.39.39,0,0,0,.16-.58.59.59,0,0,0-.63-.15l-.07,0-.52-.68h1.83V589h-1.45v-3.6h1.17v-.62h-1.17v-2.25h-.73v2.25h-.7V569.9a.89.89,0,0,0,.53-.79v-.44a.87.87,0,0,0-.88-.87h-.53v-.86h-.8v-9.46h-.87v1.67h-.74v-4.59a5.21,5.21,0,0,0,.79-.13,2.73,2.73,0,0,0,.93-.42.88.88,0,0,0,.35-.4.66.66,0,0,0,0-.28.45.45,0,0,0,0-.28.76.76,0,0,0-.16-.25,1.58,1.58,0,0,0-.58-.38,4.2,4.2,0,0,0-1.6-.34v-2.2h.45a2,2,0,0,0,.5-.16.61.61,0,0,0,.22-.2.43.43,0,0,0,0-.16.43.43,0,0,0,0-.16.49.49,0,0,0-.12-.13,1.07,1.07,0,0,0-.32-.16,2.48,2.48,0,0,0-.73-.13v-1.36h-.4v1.36h-.44a2,2,0,0,0-.49.17.67.67,0,0,0-.22.18.48.48,0,0,0,0,.17.22.22,0,0,0,0,.16.46.46,0,0,0,.12.12,1.09,1.09,0,0,0,.32.17,2.41,2.41,0,0,0,.72.12v2.2a5.92,5.92,0,0,0-1,.15,2.9,2.9,0,0,0-.95.4,1.07,1.07,0,0,0-.35.42.66.66,0,0,0,0,.28,1.31,1.31,0,0,0,0,.28,2.13,2.13,0,0,0,.16.25,2.09,2.09,0,0,0,.59.39,4.39,4.39,0,0,0,1.33.32v5.2h0l-2.66,1.71-.26-.37h0a.39.39,0,0,0,.18-.58.57.57,0,0,0-.62-.19l-.08,0h0c-.32-.49-.64-1-1-1.52h0a.39.39,0,0,0,.23-.57.49.49,0,0,0-.57-.22l-.09,0h0c-.29-.51-.59-1-.86-1.56h0c.27-.12.38-.36.26-.56a.51.51,0,0,0-.58-.26l-.09,0h0c-.26-.52-.52-1-.77-1.6h0c.27-.11.4-.34.29-.55a.51.51,0,0,0-.59-.26h-.06c-.25-.53-.48-1-.71-1.61h0c.28-.1.41-.34.3-.55s-.3-.32-.57-.29l-.08,0h0l-.65-1.63h0c.28-.1.41-.33.32-.54a.51.51,0,0,0-.57-.29h-.07l-.61-1.65h0c.29-.09.44-.32.35-.53a.53.53,0,0,0-.59-.3h0l-.57-1.65h0c.29-.08.45-.32.35-.53a.51.51,0,0,0-.58-.31H2127c-.17-.55-.36-1.11-.52-1.67h0c.29-.09.45-.31.36-.52a.51.51,0,0,0-.59-.32h0c-.17-.57-.33-1.12-.51-1.68h0c.29-.07.45-.3.36-.52s-.27-.34-.55-.32h-.06l-.47-1.68h0c.29-.07.46-.3.37-.52s-.27-.34-.55-.33h-.06c-.14-.57-.3-1.13-.45-1.68h0c.29-.08.46-.3.38-.51a.49.49,0,0,0-.57-.33h0c-.15-.57-.29-1.14-.44-1.68h0c.29-.08.47-.29.41-.51s-.26-.35-.54-.34h-.07c-.15-.58-.28-1.14-.41-1.69h0c.3-.06.47-.28.41-.5s-.28-.36-.56-.34h0c-.13-.59-.26-1.15-.38-1.69h0c.3-.07.48-.28.41-.5s-.29-.36-.59-.34h0c-.14-.61-.24-1.18-.36-1.69h0c.3-.06.48-.28.41-.5a.49.49,0,0,0-.55-.36h0c-.24-1.19-.37-1.91-.39-2.08h2.55V516h-2.22a.55.55,0,0,0,.27-.47c0-.27-.22-.51-.58-.58v-4.24a1.13,1.13,0,0,1,.45-.09,1.61,1.61,0,0,1,.54.09,3.68,3.68,0,0,1,.57.26,4.5,4.5,0,0,1,1,.8h0a.61.61,0,0,0,0,.27.93.93,0,0,0,1.06.53c.5-.06.83-.4.74-.76a.88.88,0,0,0-.9-.54,1,1,0,0,0-.59.2l-.25-.26a4.38,4.38,0,0,0-1.19-.78,2.52,2.52,0,0,0-.92-.2,1.33,1.33,0,0,0-.49.09v-.68l.09-.08a1.43,1.43,0,0,1,.3-.16,2.71,2.71,0,0,1,.86-.12,5.47,5.47,0,0,1,.9.08l.39.1h0a.94.94,0,0,0,1,.54c.5-.06.84-.4.76-.75a.88.88,0,0,0-.91-.55,1,1,0,0,0-.8.4h-.1a5.55,5.55,0,0,0-1.29-.15,3.47,3.47,0,0,0-.79.07,2.05,2.05,0,0,0-.49.18v-.7a2.83,2.83,0,0,1,.42-.34,5.35,5.35,0,0,1,.77-.45.78.78,0,0,0,.44.16c.4-.06.66-.34.58-.63a.67.67,0,0,0-.58-.41c-.37,0-.65.25-.63.52h0l-.26.12a5.48,5.48,0,0,0-.78.5v-3.2a1.29,1.29,0,0,0,.26-2.45.33.33,0,0,0,0-.14v-.61a.66.66,0,0,0,0-.28h0c.32,0,.56-.22.54-.45h0c0-.23-.22-.43-.54-.45H2121v-.29c0-.15-.17-.28-.39-.28s-.39.13-.39.28v.25h-.47c-.34,0-.62.2-.62.45s.28.44.62.44h0a.66.66,0,0,0,0,.28v.76a1.36,1.36,0,0,0-.78,1.17,1.38,1.38,0,0,0,1,1.28v3.2a6.24,6.24,0,0,0-.79-.5l-.26-.12h0c0-.27-.24-.5-.61-.52h0c-.38,0-.65.25-.63.52s.24.49.61.51h0a.72.72,0,0,0,.43-.16,4.86,4.86,0,0,1,.77.45,2.83,2.83,0,0,1,.42.34v.69a2.58,2.58,0,0,0-.49-.17,3.47,3.47,0,0,0-.79-.07,5.64,5.64,0,0,0-1.3.15h-.09a.94.94,0,0,0-.8-.4c-.58.07-1,.46-.88.88a1,1,0,0,0,.88.63c.54,0,.94-.37.9-.76h0l.39-.09a5.47,5.47,0,0,1,.9-.08,2.88,2.88,0,0,1,.88.12,1.08,1.08,0,0,1,.3.16l.1.08v.68a1.44,1.44,0,0,0-.51-.09,2.52,2.52,0,0,0-.91.2,4.38,4.38,0,0,0-1.19.78,2.13,2.13,0,0,0-.26.26,1,1,0,0,0-.6-.2c-.59.05-1,.43-.94.85a1,1,0,0,0,.94.68c.54,0,.94-.37.9-.76a.61.61,0,0,0,0-.27h0a3.64,3.64,0,0,1,1-.8,3.68,3.68,0,0,1,.57-.26,1.61,1.61,0,0,1,.54-.09,1,1,0,0,1,.43.09v-.07l-.07,4.31c-.36.07-.6.31-.58.58a.52.52,0,0,0,.28.46h-2.23v5.26h2.59c0,.12-.16.85-.39,2.07-.3,0-.56.14-.58.35h0c-.06.21.11.43.4.49-.1.51-.21,1-.35,1.7a.51.51,0,0,0-.57.3s0,0,0,0c-.05.21.11.42.4.5-.12.54-.24,1.1-.38,1.69a.54.54,0,0,0-.6.34h0c-.07.22.1.43.4.5-.14.54-.25,1.11-.41,1.69a.52.52,0,0,0-.59.32v0c-.07.21.1.43.4.49-.15.55-.28,1.12-.43,1.7a.52.52,0,0,0-.59.31v0c-.07.21.08.43.36.51l-.43,1.68a.53.53,0,0,0-.61.32c-.07.22.09.44.37.52-.14.55-.32,1.11-.48,1.67a.54.54,0,0,0-.6.3v0c-.08.22.08.44.37.52-.16.55-.34,1.11-.5,1.67a.54.54,0,0,0-.6.28.08.08,0,0,1,0,0c-.07.21.08.43.37.51-.18.57-.35,1.12-.54,1.67a.54.54,0,0,0-.62.28v0c-.09.21.06.44.34.53-.19.55-.36,1.1-.56,1.65a.55.55,0,0,0-.62.26v0c-.09.21.05.44.34.53-.19.55-.41,1.1-.61,1.65a.57.57,0,0,0-.64.27h0c-.1.21,0,.44.33.54l-.65,1.63a.55.55,0,0,0-.62.22s0,0,0,0c-.1.21,0,.44.3.55-.23.54-.46,1-.71,1.62a.55.55,0,0,0-.62.2l0,0c-.11.21,0,.44.29.55l-.78,1.6a.58.58,0,0,0-.65.18s0,0,0,0a.41.41,0,0,0,.26.56l-.85,1.57a.6.6,0,0,0-.65.16s0,0,0,0a.4.4,0,0,0,.22.57c-.31.52-.64,1-1,1.52a.6.6,0,0,0-.66.12.08.08,0,0,0,0,0,.38.38,0,0,0,.17.58l-.25.35-2.65-1.71h0v-5.19h0a3.87,3.87,0,0,0,1.33-.32,1.64,1.64,0,0,0,.58-.39.83.83,0,0,0,.18-.25.77.77,0,0,0,0-.56,1.27,1.27,0,0,0-.35-.42,2.81,2.81,0,0,0-.95-.4,4.59,4.59,0,0,0-1.06-.15v-2.2a2.86,2.86,0,0,0,.73-.12,1.09,1.09,0,0,0,.32-.17.64.64,0,0,0,.1-.13.2.2,0,0,0,0-.15.25.25,0,0,0,0-.17.5.5,0,0,0-.22-.18,1.5,1.5,0,0,0-.49-.17h-.45v-1.36h-.41v1.36a4.21,4.21,0,0,0-.71.12,1.09,1.09,0,0,0-.32.17.41.41,0,0,0-.1.13.43.43,0,0,0,0,.16.22.22,0,0,0,0,.16.52.52,0,0,0,.22.19,1.61,1.61,0,0,0,.51.17h.43V552a4.6,4.6,0,0,0-1.59.33,1.9,1.9,0,0,0-.59.39.85.85,0,0,0-.17.25.66.66,0,0,0,0,.28,1.31,1.31,0,0,0,0,.28,1.13,1.13,0,0,0,.36.4,2.92,2.92,0,0,0,.93.42,5.34,5.34,0,0,0,.8.13v4.59h-.72v-1.67h-.88v9.46h-.79v.86h-.51a.86.86,0,0,0-.87.87v.44a.85.85,0,0,0,.5.79V584.7h-.69v-2.25h-.73v2.25h-1.16v.61h1.16v3.61h-1.45v4.69h1.83l-.52.67a.61.61,0,0,0-.66.07l0,0a.37.37,0,0,0,.16.58l-1.09,1.4a.59.59,0,0,0-.65.07l0,.06a.38.38,0,0,0,.16.58l-1.09,1.41a.59.59,0,0,0-.65.06l0,.05a.37.37,0,0,0,.14.58l-1.09,1.41a.57.57,0,0,0-.65.06.1.1,0,0,0,0,.05.39.39,0,0,0,.14.58l-1.09,1.4a.59.59,0,0,0-.65.07l-.05.06a.39.39,0,0,0,.15.58l-1.08,1.4a.59.59,0,0,0-.65.07l0,0a.4.4,0,0,0,.16.59l-1.09,1.4a.59.59,0,0,0-.65.07l-.05,0a.38.38,0,0,0,.15.58l-1.09,1.41a.57.57,0,0,0-.65.06.12.12,0,0,0-.05,0,.38.38,0,0,0,.16.58l-1.09,1.41a.62.62,0,0,0-.59,0l-1.46-.79v-1.78h-.75v-3.46h.61v-1.46h-.61v-3.7l2.06,1.72.1-.08v-4.15l-.1-.08-2.06,1.72v-3h.75v-1.52h-.75v-1.25h-.83v1.25h-.75V596h.75v3l-2.07-1.68-.09.08v4.15l.09.09,2.06-1.73v3.7h-.61v1.46h.61v3.46h-.48v1.79l-1.25.64v-4.8h-1.55v11.92h.47v.08h-1.16c-.52,0-.91.36-.88.73v.36c0,.38.36.71.88.74h1.16v2.8h-1.16c-.52,0-.92.36-.88.74V624c0,.38.36.71.88.74h1.16v4.07a1,1,0,0,0-.65.13l-2.57,1.57v-4.24h.1c.53,0,.93-.36.89-.74h0v-.31c0-.38-.36-.7-.89-.73h-.1v-1a.65.65,0,0,0,.48-.6.62.62,0,0,0-.48-.58v-2.07a.76.76,0,0,0-.65-.71.28.28,0,0,0,0-.18v-.67c0-.17-.17-.32-.41-.33h0a.38.38,0,0,0-.41.33v.67a.28.28,0,0,0,0,.18.76.76,0,0,0-.65.71v2.07a.67.67,0,0,0-.48.58.65.65,0,0,0,.48.6v1h-.12c-.51,0-.9.36-.87.73v.31c0,.37.35.7.87.74h.12V636.6h-.68c-.54,0-.93.4-.86.79a.88.88,0,0,0,.86.61h.68v3a.53.53,0,0,0,0,.25h-1.57v-.1c0-.38-.34-.7-.86-.73h-.18a1.09,1.09,0,0,0,.45-.81,2.61,2.61,0,0,0-2.25-2.08v-.9h.45c.09,0,.17-.06.17-.12v0c0-.07-.07-.13-.17-.14h-.45v-.82c0-.08,0-.16-.15-.18a.22.22,0,0,0-.25.1.11.11,0,0,0,0,.08v.82h-.46c-.1,0-.18.07-.17.14h0c0,.07.06.13.15.14h.48v.9a2.61,2.61,0,0,0-2.25,2.08,1.09,1.09,0,0,0,.45.81h-1.58c-.52,0-.9.35-.87.73v.48c0,.38.35.71.87.74H2068v2.27h-1.22c-.53,0-.92.36-.88.74h0v.29c0,.38.36.7.88.73H2068V647h-1.22c-.53,0-.92.36-.88.73h0v.11c-.05.38.35.71.88.74H2068v.85h-1.71c-.53,0-.91.36-.87.74v.32c0,.37.34.7.87.73H2068v1.63h-1.9c-.53,0-.91.4-.85.78a.89.89,0,0,0,.85.61h1.9V675h-1.71c-.53,0-.91.36-.87.74v.85c0,.37.34.69.86.72H2068v21.8h-2.15c-.52,0-.9.36-.87.73v.37c0,.38.35.71.87.74H2068v1.34h-2c-.52,0-.91.35-.87.72h0v.73c0,.38.35.7.87.73h.4v7.27c0,.37.35.7.87.72h.15v3a.24.24,0,0,0,0,.12H2066a.93.93,0,0,0-.87,1v1a.93.93,0,0,0,.87,1h.87V741h2.41v57.4h-3.12v5.19h3.12v4h-3.12v5.19h3.12v51.35h-3.12v5.19h3.12v4h-3.12v5.19h3.12v7.88h-44.52V872.25h2.06v-3.47h-2.06v-3H2028v-3.47h-1.45v-43.6h-2.9v-7.2h1.26v-2.25h1.28v-2.83h1.28v-2.08H2026v-1.77h-1.2v-2.08h-1.69v-2.24h-.87v-2h-1.13V783.14h-3.67v13.12h-1.14v2h-1.2v2.24h-1.69v2.08h-1.2v1.77h-1.45v2.08H2012v2.83h1.27v2.25h1.26v7.2h-2.9v10.17h-24v-1.34h-2.08v-8.83h-3.38v8.83h-2.11v1.34h-24V818.8h-2.9v-7.2h1.27v-2.24h1.27v-2.84H1957v-2.07h-1.45v-1.78h-1.21V800.6h-1.68v-2.25h-1.21v-2h-1.11V783.23h-3.68v13.11h-1.12v2h-1.2v2.25h-1.69v2.07h-1.2v1.78H1940v2.07h1.26v2.84h1.28v2.24h1.28v7.2H1941v43.61h-1.45v3.46h3.19v3h-2.06v3.47h2.06v11.49h-36.75v-3.9h-27.68v3.9h-33.4V872.33h2.07v-3.47h-2.07v-3h3.1v-3.46h-1.45V818.8h-2.91v-7.2h1.26v-2.24h1.27v-2.84h1.28v-2.07H1846v-1.78h-1.2V800.6h-1.7v-2.25h-1.21v-2h-1.14V783.23H1837v13.11h-1.14v2h-1.2v2.25H1833v2.07h-1.2v1.78h-1.46v2.07h1.28v2.84h1.26v2.24h1.27v7.2h-2.91v10.09H1807.3v-1.34h-2.06v-8.83h-3.4v8.83h-2.08v1.34h-24V818.8h-2.9v-7.2h1.26v-2.24h1.26v-2.84h1.28v-2.07h-1.45v-1.78H1774V800.6h-1.69v-2.25h-1.21v-2H1770V783.23h-3.68v13.11h-1.14v2H1764v2.25h-1.7v2.07h-1.2v1.78h-1.46v2.07h1.27v2.84h1.28v2.24h1.26v7.2h-2.9v43.61h-1.46v3.46h3.2v3h-2.06v3.47h2.06v40.36h-14.09v-2.07h-1.29v-2.08h-1.45v-2.83h-1.29V903.1h-1v-2.58H1742v-11h-2.29v11h-1.21v2.64h-1v2.55h-1.31v2.78h-1.45v2.08h-1.29v2.07h-19.52V888.77h3.68v-4h-1.11V871.84h-1.27v12.91h-.88V867.5h-4.66V838.23h-2.81v-2.6h-2.63V820.76h-2.12v-11.1H1699v-8.8h-2v8.74h-3.11v11.09h-2.12v14.88H1689v2.6h-2.9v29.29h-4.66v17.25h-.87V871.8h-1.27v12.91h-1.1v4h3.67V912.6H1665v-2.08h-1.29v-2.07h-1.45v-2.74H1661V903.1h-1v-2.58h-1.2v-11h-2.31v11h-1.21v2.64h-1v2.55H1653v2.78h-1.45v2.08h-1.29v2.07h-26.84v-2.07h-1.29v-2.08h-1.45v-2.78h-1.29V903.1h-.82v-2.58h-1.2v-11H1615v11h-1.21v2.64h-1v2.55h-1.3v2.78h-1.45v2.08h-1.29v2.07h-26.84v-2.07h-1.17v-2.08h-1.46v-2.78H1578V903.1h-1v-2.58h-1.2v-11h-2.32v11h-1.21v2.64h-1v2.55H1570v2.78h-1.46v2.08h-1.29v2.07h-26.83v-2.07h-1.3v-2.08h-1.45v-2.78h-1.29V903.1h-1v-2.58h-1.09v-11H1532v11h-1.22v2.64h-1v2.55h-1.31v2.78H1527v2.08h-1.29v2.07h-26.84v-2.07h-1.29v-2.08h-1.45v-2.78h-1.3V903.1h-1v-2.58h-1.21v-11h-2.31v11h-1.09v2.64h-1v2.55H1487v2.78h-1.45v2.08h-1.3v2.07h-26.83v-2.07h-1.29v-2.08h-1.46v-2.78h-1.29V903.1h-1v-2.58h-1.2v-11h-2.31v11h-1.19v2.64h-1v2.55h-1.29v2.78h-1.46v2.08h-1.11v2.07h-26.91v-2.07h-1.3v-2.08h-1.45v-2.78h-1.29V903.1h-1v-2.58h-1.21v-11h-2.29v11h-1.21v2.64h-1v2.55h-1.29v2.78h-1.45v2.08h-1.3v2.07h-26.73v-2.07h-1.28v-2.08h-1.45v-2.78h-1.29V903.1h-1v-2.58h-1.21v-11h-2.31v11h-1.2v2.64h-1v2.55h-1.29v2.78h-1.45v2.08h-1.3v2.07h-26.75v-2.07h-1.3v-2.08h-1.45v-2.78h-1.3V903.1h-1v-2.58h-1.17v-11h-2.3v11h-1.2v2.64h-1v2.55h-1.32v2.78h-1.46v2.08h-1.29v2.07h-18.67v-32.8h2.07v-3.46h-2.07v-3h3.19v-3.47h-1.45v-43.6h-2.9v-7.19h1.27v-2.25h1.27v-2.83H1302V812h-1.45V810.2h-1.19v-2.08h-1.7v-2.24h-1.21v-2h-1.13V790.75h-3.67v13.12h-1.14v2h-1.19v2.24h-1.7v2.08h-1.2V812h-1.45v2.08h1.27v2.83h1.27v2.25h1.42v7.19H1286v10.09h-24v-1.3h-2.1V826.3h-3.39v8.81h-2.07v1.35h-23.92V826.37h-2.9v-7.19h1.27v-2.24h1.27V814.1h1.28V812h-1.46V810.2h-1.2v-2.08H1227v-2.24h-1.19v-2h-1.13V790.75H1221v13.12h-1.13v2h-1.21v2.24H1217v2.08h-1.21V812h-1.45v2.08h1.26v2.83h1.28v2.25h1.26v7.19h-2.9v43.6h-1.45v3.47H1217v3h-2.17v3.46h2.08v11.5h-5.33v-1.12h-1.29v-2.16h-1.46v-2.78h-1.26v-2.6h-1V880h-1.21v-11h-2.29v11h-1.21v2.65h-1v2.6h-1.3v2.78h-1.45v2.14h-1.29v1.12h-1.77V877.68h-3.82v-6.6h-2.91V787.54h-4v25.32l-2.65-2V798.38h-1.75v-25.3h-3.75v25.3h-2v-61.9h-3.83v18.69h-2.91l-1.3-4.26-12.65-52.48v-5.65h-1.22l-3-38.53h-3.38l-3,38.53h-1.22v5.65L1129,750.91l-1.31,4.26h-2.9V736.48h-3.82v61.9h-2v-25.3h-3.75v25.3h-1.75v12.46l-2.63,2V787.54h-4.13v83.54h-2.9v6.6h-3.82v13.67h-13.87v-1.12h-1.29v-2.17h-1.45v-2.78H1082v-2.6h-1V880h-1.27v-11h-2.29v11h-1.21v2.65h-1v2.6H1074v2.78h-1.46v2.14h-1.29v1.12h-27.1V890.2h-1.29v-2.14h-1.45v-2.78h-1.29v-2.6h-1V880h-1.2v-11h-2.28v11h-1.21v2.65h-1v2.6h-1.29v2.78h-1.45v2.14h-1.29v1.12h-27.14V890.2H1001v-2.14h-1.45v-2.78h-1.29v-2.6h-1V880H996v-11H993.7v11h-1.2v2.65h-1v2.6h-1.29v2.78h-1.45v2.14h-1.3v1.12h-8.32v-8.17h-2.48v-3.83h-1.9V831h-2.66v14.68l-6.56-4.49V801.34h-2.49v10.83h-1.91l-.85-2.46-.55-18.42-7.64-12V776h-2V756.14h-3.43V776h-2.1v3.27l-7.64,12-.55,18.42-.85,2.46h-1.91V801.34h-2.47v39.81l-6.56,4.49V831h-2.68v48.41h-1.87v3.83h-2.48v7h-.42v-2.19h-1.46v-2.78H914.4v-2.6h-1V880h-1.21v-11H909.9v11h-1.09v-6.91h-.23v-21.2h4.21l-4.17-2.85V836.18h-2.48v11.19l-2.09-1.43v-11h-2.47v9.34l-2.09-1.43V834H897v7.17l-5.1-3.48V815.15H889.7v-1.92h-1.45V810h-2.38v-2.71h-1.53V793h-3.05v14.32h-1.52V810h-2.38v3.19h-1.45v1.92h-2.3v22.49l-5.08,3.48V834h-2.48v8.87l-2.1,1.43v-9.34H861.5v11l-2.09,1.43V836.18h-2.47v12.89l-4.18,2.85h4.18v21.2h-.25v9.75h-3v8.49H835v-1.12h-1.3v-2.18h-1.45v-2.78h-1.29v-2.6H830V880H828.8v-11h-2.3v11h-1.2v2.65h-1.09v2.6h-1.29v2.78h-1.45v2.14h-1.3v1.12h-5.33v-11.5H817v-3.46h-2.08v-3h3.21V869.9h-1.45V826.3h-2.9v-7.19H815v-2.25h1.27V814h1.28V812h-1.46V810.2h-1.2v-2.08h-1.7v-2.24H812v-2h-1.13V790.75h-3.65v13.12H806.1v2h-1.2v2.24h-1.7v2.08H802V812h-1.45v2.08h1.28v2.83h1.28v2.25h1.26v7.19h-2.9v10.09h-24v-1.3h-2.08V826.3h-3.49v8.81h-2.07v1.35h-24V826.37H743v-7.19h1.35v-2.24h1.28V814.1h1.27V812h-1.46V810.2h-1.2v-2.08h-1.7v-2.24h-1.21v-2h-1.13V790.75h-3.67v13.12h-1.14v2h-1.2v2.24h-1.74v2.08h-1.17V812h-1.45v2.08h1.28v2.83h1.26v2.25h1.28v7.19h-2.9v43.6h-1.45v3.47h3.19v3h-2.06v3.46h2.06v32.78H715.84v-2.07h-1.29v-2.08h-1.46v-2.76H711.8V903.1h-1v-2.65h-1.21v-11H707.3v11h-1.21v2.65h-1v2.61h-1.3v2.78h-1.45v2.08H701.1v2.07H674.29v-2.07H673v-2.08h-1.46v-2.78h-1.27V903.1h-1v-2.65h-1.2v-11h-2.3v11h-1.2v2.65h-1v2.61h-1.3v2.78h-1.45v2.08h-1.29v2.07H632.78v-2.07h-1.3v-2.08H630v-2.78h-1.29V903.1h-1v-2.65h-1.2v-11h-2.31v11h-1.19v2.65h-1v2.61h-1.3v2.78H619.3v2.08H618v2.07H591.26v-2.07H590v-2.08h-1.45v-2.78h-1.3V903.1h-1v-2.65H585v-11h-2.31v11h-1.2v2.65h-1v2.61h-1.3v2.78h-1.45v2.08h-1.29v2.07H549.76v-2.07h-1.29v-2.08H547v-2.78h-1.29V903.1h-1v-2.65h-1.2v-11h-2.3v11H540v2.65h-1v2.61h-1.31v2.78h-1.45v2.08H535v2.07H508.2v-2.07h-1.29v-2.08h-1.45v-2.78h-1.3V903.1h-1v-2.65H502v-11h-2.31v11h-1.21v2.65h-1v2.61h-1.29v2.78h-1.45v2.08h-1.29v2.07H466.67v-2.07h-1.29v-2.08h-1.46v-2.78h-1.29V903.1h-1v-2.65h-1.2v-11h-2.3v11h-1.2v2.65h-1v2.61h-1.29v2.78h-1.46v2.08H451.9v2.07H425.17v-2.07h-1.3v-2.08h-1.45v-2.78h-1.29V903.1h-1v-2.65h-1V875.92h4.69v-5.46h-4.69v-1.81h4.69v-5.51h-4.69V847.31h4.69v-5.45h-4.69V840h4.69v-5.46h-4.69V762.75h4.69v-5.5h-4.69v-1.82h4.69V750h-4.69V731.36h4.69V725.9h-4.69v-1.83h4.69v-5.46h-4.69V686.89h-1.09V673.68h1.45v-5.19h-1.45V654.06h-3.36V636.83h1.85v-6.64h-1.85v-2.88H413.1a19.42,19.42,0,0,0-4.66-8.31v-1.37h-.68V614h-2.05V603.91H408v-7.39h-2.32v-7.27h-5.19v7.27h-2.3v7.39h2.3V614h-2v3.57h-.68v1.37a19.45,19.45,0,0,0-4.66,8.3h-1.6v2.89h-1.85v6.71h1.85v17.26h-3.47V668.5h-1.45v5.19h1.45v.1h-8.51V669h-2.77v-21.8H375.5v-3.64h-1.8l-18.53-22.31a4.08,4.08,0,0,0,2-3.46c.12-1.59-1-3.09-2.9-3.91V510.17c1.9-.81,3-2.32,2.9-3.9a4.37,4.37,0,0,0-4.6-4.15,4.43,4.43,0,0,0-4.62,4.15c-.11,1.58,1,3.09,2.91,3.9V613.86c-1.9.82-3,2.32-2.91,3.91a4,4,0,0,0,2,3.44l-18.48,22.32h-1.8v3.68h-1.46V669h-2.77v4.77h-8.51v-.1h1.45v-5.19h-1.45V654.08h-3.48V636.83h1.84v-6.64h-1.84v-2.88h-1.6a19.53,19.53,0,0,0-4.66-8.31v-1.37h-.68V614h-2V603.91h2.32v-7.39h-2.32v-7.27h-5.1v7.27h-2.32v7.39h2.31V614h-2v3.57h-.68v1.37a19.55,19.55,0,0,0-4.66,8.3h-1.61v2.89h-1.85v6.71h1.85v17.26H287V668.5h-1.45v5.19H287V686.9h-1.08v31.72h-4.69v5.46h4.69v1.83h-4.69v5.46h4.69V750h-4.69v5.46h4.69v1.8h-4.69v5.46h4.69v71.86h-4.69V840h4.69v1.83h-4.69v5.45h4.69v15.83h-4.69v5.46h4.69v1.81h-4.69v5.46h4.69v34.71h0v2.07H271.85V872.28h2v-3.47h-2.08v-3H275v-3.46h-1.45V818.75h-2.9v-7.2h1.26v-2.24h1.28v-2.84h1.26V804.4H273v-1.78h-1.19v-2.08h-1.7V798.3h-1.2v-2h-1.14V783.18h-3.67v13.11h-1.13v2h-1.19v2.24h-1.7v2.08h-1.21v1.78h-1.45v2.07h1.28v2.84h1.26v2.24h1.28v7.2H258.3v10.14h-24v-1.34h-2.06v-8.83h-3.44v8.83h-2.08v1.34H202.88V818.8h-3v-7.2h1.35v-2.24h1.26v-2.84h1.28v-2.07h-1.45v-1.78h-1.19V800.6h-1.7v-2.25h-1.21v-2h-1.13V783.23h-3.66v13.11h-1.13v2h-1.24v2.25h-1.69v2.07h-1.21v1.78h-1.45v2.07H188v2.84h1.28v2.24h1.28v7.2h-2.91v43.61h-1.45v3.46h3.2v3h-2.08v3.47h2.08v11.49H153.46v-3.91H125.74v3.91H91.47V872.28h2.08v-3.47H91.47v-3h3.19v-3.46H93.21V818.75h-2.9v-7.2h1.28v-2.24h1.26v-2.84h1.28V804.4H92.67v-1.78h-1.2v-2.08H89.74V798.3H88.55v-2H87.42V783.18H83.74v13.11H82.61v2h-1.2v2.24h-1.7v2.08H78.52v1.78H77.06v2.07h1.27v2.84h1.28v2.24h1.26v7.2H78v10.14H54v-1.34H51.94v-8.83H48.56v8.83H46.48v1.34h-24V818.8h-2.9v-7.2H20.9v-2.24h1.27v-2.84h1.27v-2.07H22v-1.78H20.75V800.6h-1.7v-2.25h-1.2v-2H16.71V783.23H13.05v13.11H11.94v2H10.73v2.25H9v2.07H7.83v1.78H6.37v2.07H7.68v2.84H9v2.24h1.26v7.2H7.32v43.61H5.87v3.46H9v3H6.93v3.47H9v40.36H4.53v19.12H0v4.94H4.53v4H0v4.93H4.53v41.84H0v4.94H4.53v4H0v4.93H4.53v41.83H0v4.94H4.53v4H0v5H4.53v7.68H2178V1043h-6.54ZM2138.61,549h.32a1.14,1.14,0,0,1,.37.11.18.18,0,0,1,.1.07h0a.56.56,0,0,1-.19.09,2.62,2.62,0,0,1-.57.11v-.48Zm-35.69,0a2.13,2.13,0,0,1,.57.11.66.66,0,0,1,.19.09h0l-.1.07a1.45,1.45,0,0,1-.37.11h-.32V549ZM301.58,677.32H298V661.74h3.55Zm0-22.71H298V639h3.55Zm4.35,22.71h-3.54V661.74h3.54Zm0-22.71h-3.54V639h3.54Zm96.8,22.71h-3.54V661.74h3.54Zm0-22.71h-3.54V639h3.54Zm4.36,22.71h-3.54V661.74h3.54Zm0-22.71h-3.54V639h3.54ZM861.75,873.1h-2.09V851.9h2.09Zm3.76,0h-1.29V851.9h1.29Zm36.3,0h-1.28V851.9h1.28Zm4.58,0H904.3V851.9h2.09Zm21-.8h-2.57v-25h2.53Zm45,0H969.8v-25h2.53ZM1114.87,859h-4V815.8h4Zm30.49-82.19h-5.49V751.28h5.49Zm10,0h-5.5V751.28h5.5ZM1184.4,859h-4V815.8h4Zm897.71-247.5,1.45.75-.81,1a.59.59,0,0,0-.63.05l0,0Zm0,2.42.12.08-.12.14Zm-2.9-1.7.54-.28v5.12h0l-.61.8Zm-4.36,20,3.21-2v5.9l-3.21-2.55Zm2.05,5.83h.84a1.13,1.13,0,0,0,.32,0v3.28h-1.13a.6.6,0,0,0,0-.19v-2.8a.49.49,0,0,0,.1-.25Zm-2.05-3.46,2.59,2.07h-2.59Zm0,6.45v-3h1a.33.33,0,0,0-.08.24v2.8a.31.31,0,0,0,0,.19h-1.05a.77.77,0,0,0,.23-.25Zm24-52.09h-.7v-3.6h.7Zm3.53-35.5a.46.46,0,0,0-.25.75,3.71,3.71,0,0,1-1.16-.27h0a.48.48,0,0,0,.33-.43c0-.25-.23-.46-.56-.48h-.25a1,1,0,0,1,.18-.17,2.19,2.19,0,0,1,.78-.33,4.74,4.74,0,0,1,.93-.14v1.07Zm0-3.94a1.8,1.8,0,0,1-.57-.11.66.66,0,0,1-.19-.09h0a.41.41,0,0,1,.11-.07,1.07,1.07,0,0,1,.36-.1h.32v.47Zm.42,3.94v-1a3.68,3.68,0,0,1,1.45.29,1.39,1.39,0,0,1,.45.29h-.23c-.34,0-.6.23-.58.47a.48.48,0,0,0,.33.44,2.58,2.58,0,0,1-.49.17,5.07,5.07,0,0,1-.68.11.45.45,0,0,0,.13-.3.44.44,0,0,0-.25-.45Zm2.09,9a.59.59,0,0,0-.65,0l-.05.05a.38.38,0,0,0,.11.59l-1,1h-.23v-3.76l2.31,1.49a1.32,1.32,0,0,1-.38.53Zm32.94,1.69h-.24a14.3,14.3,0,0,1-1-1h0a.37.37,0,0,0,.1-.59.55.55,0,0,0-.62-.15l-.09,0h0l-.46-.57,2.31-1.48Zm.26-10.74a.49.49,0,0,0-.37.45.44.44,0,0,0,.12.3,5.07,5.07,0,0,1-.68-.11,2.67,2.67,0,0,1-.5-.17.49.49,0,0,0,.34-.44c0-.24-.23-.45-.57-.47h-.23a1.29,1.29,0,0,1,.45-.29,3.68,3.68,0,0,1,1.45-.29Zm0-3.94h-.32a1.37,1.37,0,0,1-.36-.11l-.11-.07h0a1.33,1.33,0,0,1,.21-.09,1.74,1.74,0,0,1,.56-.1v.45Zm.4,3.94v-1a4.74,4.74,0,0,1,.93.13,2.44,2.44,0,0,1,.79.33l.17.17h-.23c-.34,0-.59.23-.57.48a.5.5,0,0,0,.34.43h0a3.34,3.34,0,0,1-1.15.27.44.44,0,0,0,.12-.3.46.46,0,0,0-.27-.49Zm4.23,35.5h-.7v-3.6h.7Zm16.13,25.18-.11-.14.11-.08Zm0-.78a.58.58,0,0,0-.62-.08h0l-.81-1,1.45-.75Zm2.91,4.49-.61-.8h.08v-5.13l.54.28v5.64Zm1.07,12.4,3.23,2v1.37l-3.23,2.55Zm3.23,4.34v2.08h-2.6Zm-3.23,6.7V638a1.13,1.13,0,0,0,.32,0h.8a.24.24,0,0,0,0,.12V641a.45.45,0,0,0,.13.3h-1.25Zm2.14,0a.45.45,0,0,0,.13-.3v-2.92h1v3a.53.53,0,0,0,0,.25h-1.15Z"/><path class="cls-1" d="M4161.38,920.31H4176v126.28h-14.66v15.53h844.89v-15.53h-14.69V920.31h14.69V907.19h7.94V896.83H5007v-6.91h-206.2v6.91h-7.24v7.6h-54.06v-5.52h-15L4596.05,828.5h4V818.14h-13.65v-147c.32,0,4.23-5.46,20.77,9.26,8.53,7.6,34.62,19.12,34.88,18.28.91-.62.28-12.15,2.35-18.68,1.43-4.28,8.2-11.11,3.55-12.42-27.59-7.74-43.79-29.77-61.65-27.82v-2.54H4581V818.1h-13.65v10.35h4l-128.43,70.42h-15v5.54h-54.05v-7.64h-7.22v-6.91H4160.67v6.91h-7.19v10.36h7.9ZM4199.52,984h6.75v78h-6.7Zm-456.06,0h6.69v78h-6.69Z"/><path class="cls-2" d="M2143.72,660.13V632.77h-3.46v-7.69h-4.66v-11h.67v-1.62h-.67v-2h-1.84v2H2133v1.62h.78v8.72c-12.63-16.26-13.71-27.33-13.72-27.45h-.11v-.7h-1.24V572.35h0v-4.29l.93-3a11.15,11.15,0,0,1-2.57-2.42V551.91h.68v-1.62h-.68v-2h-1.84v2h-.77v1.62h.77v8.26c-4.58-6.79-11.65-22.42-16-56.89h.62v-3.23h-.83V479.18h-3.68v20.87h-.87v3.23h.65c-4.42,35.43-11.82,51-16.39,57.44v-8.81h.67v-1.62h-.67v-2H2077v2h-.78v1.62h.78v11.14a9.75,9.75,0,0,1-2.19,2l.88,3v4.29h.05v22.31h-1.25v.7h-.11c0,.12-1.13,12.07-15.2,29.37V614.08h.68v-1.62h-.68v-2h-1.84v2h-.77v1.62h.77v11h-3.18v7.69h-3.45v27.36h-3.45v53h.48v1.62h3v19.8h2.41v38.52h-1.43v3.23h1.43v8.86h-1.43v3.23h1.43v38.2h-1.43v3.23h1.43v8.86h-1.43v3.23h1.43v37.4h-1.43v3.22h1.43v8.87h-1.43v3.22h1.43v38.65h-1.43v3.22h1.43v8.86h-1.43v3.23h1.43v77.79h.5v3.22h87.22v-3.22h.51V948.6h1.32v-3.23h-1.32v-8.86h1.32v-3.22h-1.32V894.64h1.32v-3.22h-1.32v-8.87h1.32v-3.22h-1.32v-37.4h1.53V838.7h-1.53v-8.86h1.53v-3.23h-1.53v-38.2h1.53v-3.23h-1.53v-8.86h1.53v-3.23h-1.53V734.57h2.42v-19.8h2.94v-1.62h.49v-53Zm-30,29.17v-3.22h4v3.22Zm-18.29-2.4-1.54,0,0,1.61,1.53,0v2.16l3.68,0v-2.17l11.63-.09c-.42,6.22-6.31,11.18-13.52,11.18-7.48,0-13.57-5.33-13.57-11.88s6.09-11.88,13.57-11.88c7.12,0,13,4.84,13.51,11l-11.63.1-.06-7.55-3.68,0Zm0,15.65H2099v3.14h-3.68Zm3.68-29.71h-3.68v-3.15H2099Zm-18.6,13.24v3.22h-4v-3.22Zm14.92,30.07H2099V730h-3.68Zm-3.88,0V730h-3.68V716.15Zm-7.56,0V730h-3.68V716.15Zm-11.24,0h3.68V730h-3.68ZM2088,945.37v-8.86h8.27v8.86Zm8.27,3.23V988H2088V948.6ZM2088,933.29V894.64h8.27v38.65Zm0-41.87v-8.87h8.27v8.87Zm0-12.09v-37.4h8.27v37.4Zm0-40.63v-8.86h8.27v8.86Zm0-12.09v-38.2h8.27v38.2Zm0-41.43v-8.86h8.27v8.86Zm0-12.09V740.54c.73-.89,1.86-2.21,2.24-2.54a3.47,3.47,0,0,1,1.89-.6h0a3.21,3.21,0,0,1,1.84.57c.39.33,1.53,1.67,2.28,2.57v32.55Zm-10.11,172.28v-8.86h8.27v8.86Zm8.27,3.23V988h-8.27V948.6Zm-8.27-15.31V894.64h8.27v38.65Zm0-41.87v-8.87h8.27v8.87Zm0-12.09v-37.4h8.27v37.4Zm0-40.63v-8.86h8.27v8.86Zm0-12.09v-38.2h8.27v38.2Zm0-41.43v-8.86h8.27v8.86Zm0-12.09V740.54a32.21,32.21,0,0,1,2.25-2.54,3.34,3.34,0,0,1,1.89-.6h0a3.21,3.21,0,0,1,1.84.57c.39.33,1.53,1.67,2.28,2.57v32.55Zm-9.19,172.28v-8.86h7.35v8.86Zm7.35,3.23V988h-7.35V948.6Zm-7.35-15.31V894.64h7.35v38.65Zm0-41.87v-8.87h7.35v8.87Zm0-12.09v-37.4h7.35v37.4Zm0-40.63v-8.86h7.35v8.86Zm0-12.09v-38.2h7.35v38.2Zm0-41.43v-8.86h7.35v8.86Zm0-12.09V739.44A19.21,19.21,0,0,1,2070,738a3.28,3.28,0,0,1,3.74,0c.39.33,1.53,1.67,2.28,2.57v32.55ZM2100.42,738a3.42,3.42,0,0,1,1.89-.6h0a3.18,3.18,0,0,1,1.84.57,31.21,31.21,0,0,1,2.21,2.49v32.63h-8.26V740.61C2098.84,739.73,2100,738.34,2100.42,738Zm5.95,38.32v8.86h-8.26v-8.86Zm0,12.09v38.2h-8.26v-38.2Zm0,41.43v8.86h-8.26v-8.86Zm0,12.09v37.4h-8.26v-37.4Zm0,40.62v8.87h-8.26v-8.87Zm0,12.09v38.65h-8.26V894.64Zm0,41.87v8.86h-8.26v-8.86Zm0,12.09V988h-8.26V948.6Zm4.05-210.6a3.34,3.34,0,0,1,1.89-.6h0a3.21,3.21,0,0,1,1.84.57,32.48,32.48,0,0,1,2.32,2.62v32.5h-8.27V740.48C2109,739.6,2110,738.32,2110.42,738Zm6.06,38.32v8.86h-8.27v-8.86Zm0,12.09v38.2h-8.27v-38.2Zm0,41.43v8.86h-8.27v-8.86Zm0,12.09v37.4h-8.27v-37.4Zm0,40.62v8.87h-8.27v-8.87Zm0,12.09v38.65h-8.27V894.64Zm0,41.87v8.86h-8.27v-8.86Zm0,12.09V988h-8.27V948.6Zm4.09-210.6a3.34,3.34,0,0,1,1.89-.6,3.27,3.27,0,0,1,1.86.57,17.41,17.41,0,0,1,1.35,1.48v33.64h-7.35V740.54C2119.06,739.65,2120.18,738.33,2120.57,738Zm5.1,38.32v8.86h-7.35v-8.86Zm0,12.09v38.2h-7.35v-38.2Zm0,41.43v8.86h-7.35v-8.86Zm0,12.09v37.4h-7.35v-37.4Zm0,40.62v8.87h-7.35v-8.87Zm0,12.09v38.65h-7.35V894.64Zm0,41.87v8.86h-7.35v-8.86Zm0,12.09V988h-7.35V948.6ZM2102.91,730V716.15h3.68V730Zm7.55,0V716.15h3.69V730Zm11.24,0H2118V716.15h3.68Zm.47-91.91v13.87h-3.68V638.05Zm-7.72,0v13.87h-3.68V638.05Zm-7.71,0v13.87h-3.68V638.05Zm-26.33-24.53v-6.17h3.69v6.17Zm29.87,0v-6.17H2114v6.17Zm-11.25,0h-3.68v-6.17H2099Zm0,24.53v13.87h-3.68V638.05Zm-7.72,0v13.87h-3.68V638.05Zm-7.71,0v13.87h-3.68V638.05Zm-11.4,0h3.68v13.87h-3.68Z"/></svg>