<svg viewBox="0 0 4939 2398" fill="none" xmlns="http://www.w3.org/2000/svg">
<g id="wheel 1">
<g id="Layer 2">
<g id="wheel">
<path id="londonWheel" d="M3066.26 1406.73C3068.85 1406.59 3071.33 1405.65 3073.37 1404.05C3073.37 1405.04 3073.41 1406.04 3073.49 1407.05L3073.28 1407.15L3073.52 1407.55C3073.51 1407.95 3073.53 1408.36 3073.59 1408.76L3073.41 1409.22L3073.65 1409.32C3074.28 1419.75 3075.45 1430.15 3077.17 1440.46L3076.98 1440.59L3077.26 1440.97C3077.32 1441.37 3077.38 1441.77 3077.45 1442.17C3075.13 1441.06 3072.53 1440.69 3069.99 1441.1C3066.77 1441.68 3063.91 1443.52 3062.04 1446.21C3060.18 1448.89 3059.45 1452.21 3060.03 1455.44C3060.62 1458.66 3062.45 1461.51 3065.14 1463.38C3067.83 1465.25 3071.15 1465.97 3074.37 1465.39L3074.99 1465.26C3077.5 1464.61 3079.75 1463.21 3081.45 1461.26C3082.45 1465.26 3083.45 1469.26 3084.61 1473.26L3084.43 1473.4L3084.74 1473.73C3084.85 1474.12 3084.98 1474.53 3085.09 1474.91L3085 1475.37H3085.24C3087.5 1482.98 3090.05 1490.46 3092.88 1497.8C3090.37 1497.17 3087.73 1497.31 3085.3 1498.21C3083.81 1498.84 3082.46 1499.76 3081.32 1500.92C3080.18 1502.08 3079.29 1503.44 3078.68 1504.95C3077.45 1507.98 3077.48 1511.38 3078.76 1514.39C3080.04 1517.4 3082.46 1519.78 3085.5 1521.01C3088.53 1522.24 3091.93 1522.21 3094.94 1520.93C3097.28 1519.79 3099.21 1517.97 3100.5 1515.71C3103.57 1522.33 3106.89 1528.81 3110.45 1535.15L3110.33 1535.32L3110.68 1535.56C3110.91 1535.95 3111.1 1536.33 3111.33 1536.7V1537.12H3111.52C3113.86 1541.25 3116.32 1545.34 3118.87 1549.35C3116.28 1549.22 3113.7 1549.88 3111.49 1551.24C3108.79 1553.08 3106.93 1555.92 3106.32 1559.14C3105.72 1562.35 3106.41 1565.67 3108.25 1568.38C3110.1 1571.08 3112.94 1572.93 3116.15 1573.54C3119.37 1574.15 3122.69 1573.45 3125.39 1571.61C3127.47 1570.03 3129.01 1567.86 3129.83 1565.39C3135.98 1573.81 3142.58 1581.9 3149.59 1589.62L3149.51 1589.78L3149.84 1589.89C3150.17 1590.23 3150.48 1590.57 3150.84 1590.89L3150.94 1591.25L3151.12 1591.19C3152.22 1592.39 3153.33 1593.57 3154.43 1594.74C3151.87 1595.12 3149.49 1596.26 3147.59 1598.02C3145.26 1600.32 3143.95 1603.44 3143.92 1606.71C3143.9 1609.98 3145.18 1613.12 3147.48 1615.45C3149.77 1617.77 3152.9 1619.09 3156.16 1619.11C3159.43 1619.13 3162.57 1617.86 3164.9 1615.56L3165.18 1615.27C3166.91 1613.34 3168.01 1610.92 3168.33 1608.35C3170.05 1609.94 3171.81 1611.51 3173.57 1613.07V1613.22L3173.88 1613.29C3174.27 1613.62 3174.64 1613.95 3175 1614.29L3175.1 1614.58L3175.25 1614.5C3182.58 1620.83 3190.21 1626.79 3198.14 1632.38C3195.7 1633.25 3193.58 1634.84 3192.07 1636.94C3191.18 1638.29 3190.57 1639.81 3190.27 1641.4C3189.96 1642.99 3189.98 1644.62 3190.31 1646.2C3190.64 1647.79 3191.27 1649.29 3192.18 1650.63C3193.09 1651.97 3194.26 1653.11 3195.61 1654C3196.96 1654.89 3198.48 1655.5 3200.07 1655.8C3201.66 1656.11 3203.29 1656.09 3204.87 1655.76C3206.46 1655.43 3207.96 1654.8 3209.3 1653.89C3210.64 1652.98 3211.78 1651.81 3212.67 1650.46C3213.98 1648.23 3214.59 1645.66 3214.42 1643.08C3219.09 1645.93 3223.85 1648.65 3228.71 1651.24V1651.36H3228.96L3230.39 1652.11L3230.53 1652.31L3230.63 1652.24C3236.42 1655.28 3242.31 1658.13 3248.31 1660.79C3246.09 1662.13 3244.32 1664.1 3243.23 1666.45C3242.62 1667.95 3242.32 1669.56 3242.34 1671.17C3242.35 1672.79 3242.68 1674.39 3243.32 1675.88C3243.95 1677.37 3244.87 1678.72 3246.02 1679.85C3247.18 1680.98 3248.54 1681.88 3250.04 1682.49C3251.55 1683.09 3253.15 1683.39 3254.77 1683.38C3256.39 1683.36 3257.98 1683.03 3259.47 1682.4C3260.96 1681.77 3262.31 1680.85 3263.45 1679.69C3264.58 1678.54 3265.47 1677.17 3266.08 1675.67C3266.94 1673.22 3267.03 1670.57 3266.34 1668.07C3274.42 1671.02 3282.66 1673.61 3291.07 1675.86V1675.93H3291.2L3292.97 1676.4L3293.06 1676.47C3296.34 1677.32 3299.67 1678.11 3302.99 1678.85C3301.06 1680.6 3299.7 1682.89 3299.1 1685.42C3298.75 1687 3298.71 1688.63 3298.99 1690.23C3299.26 1691.82 3299.85 1693.34 3300.72 1694.71C3301.59 1696.08 3302.71 1697.26 3304.04 1698.19C3305.36 1699.12 3306.86 1699.78 3308.44 1700.14C3310.01 1700.49 3311.65 1700.53 3313.24 1700.25C3314.84 1699.97 3316.36 1699.38 3317.73 1698.52C3319.09 1697.65 3320.27 1696.52 3321.21 1695.2C3322.14 1693.87 3322.8 1692.38 3323.15 1690.8C3323.21 1690.53 3323.26 1690.26 3323.3 1689.98C3323.65 1687.4 3323.21 1684.78 3322.04 1682.45C3322.66 1682.55 3323.27 1682.62 3323.89 1682.71H3323.98C3324.59 1682.81 3325.21 1682.88 3325.83 1682.97L3325.92 1683.03C3336.31 1684.49 3346.77 1685.39 3357.25 1685.73L3359.25 1685.81H3360.04C3358.5 1687.9 3357.62 1690.4 3357.52 1693C3357.47 1696.26 3358.72 1699.42 3360.99 1701.76C3363.26 1704.1 3366.38 1705.45 3369.64 1705.5C3372.9 1705.55 3376.06 1704.3 3378.4 1702.03C3380.74 1699.76 3382.09 1696.64 3382.14 1693.38C3382.14 1693.16 3382.14 1692.95 3382.14 1692.73C3381.99 1690.14 3381.06 1687.66 3379.46 1685.61C3383.92 1685.42 3388.35 1685.12 3392.74 1684.74C3401.09 1684.01 3409.34 1682.93 3417.47 1681.52C3416.37 1683.86 3415.99 1686.48 3416.4 1689.03C3416.68 1690.63 3417.28 1692.15 3418.15 1693.52C3419.03 1694.89 3420.17 1696.07 3421.5 1697C3422.83 1697.92 3424.33 1698.58 3425.92 1698.92C3427.51 1699.27 3429.14 1699.29 3430.74 1699C3432.34 1698.71 3433.86 1698.11 3435.22 1697.22C3436.59 1696.34 3437.76 1695.2 3438.68 1693.86C3439.6 1692.53 3440.25 1691.02 3440.58 1689.43C3440.92 1687.84 3440.94 1686.21 3440.64 1684.61C3440.64 1684.42 3440.57 1684.23 3440.52 1684.03C3439.87 1681.53 3438.47 1679.28 3436.52 1677.58C3448.92 1674.56 3461.11 1670.72 3473 1666.1C3472.36 1668.62 3472.51 1671.27 3473.41 1673.71C3474 1675.24 3474.9 1676.63 3476.04 1677.81C3477.18 1678.99 3478.54 1679.93 3480.05 1680.57C3481.56 1681.22 3483.18 1681.55 3484.82 1681.56C3486.46 1681.57 3488.08 1681.25 3489.6 1680.63C3491.11 1680 3492.49 1679.07 3493.64 1677.91C3494.79 1676.74 3495.7 1675.36 3496.31 1673.84C3496.92 1672.32 3497.22 1670.69 3497.19 1669.05C3497.17 1667.41 3496.81 1665.79 3496.15 1664.29C3496.12 1664.21 3496.09 1664.12 3496.05 1664.04C3494.92 1661.7 3493.11 1659.76 3490.85 1658.47C3502.42 1653.07 3513.63 1646.91 3524.39 1640.04C3524.26 1642.64 3524.92 1645.22 3526.29 1647.43C3527.15 1648.82 3528.27 1650.03 3529.6 1650.99C3530.92 1651.94 3532.43 1652.63 3534.02 1652.99C3535.61 1653.36 3537.26 1653.41 3538.87 1653.14C3540.48 1652.86 3542.03 1652.27 3543.41 1651.39C3544.79 1650.52 3545.98 1649.38 3546.91 1648.04C3547.85 1646.69 3548.51 1645.18 3548.85 1643.58C3549.2 1641.98 3549.22 1640.33 3548.92 1638.73C3548.62 1637.12 3548.01 1635.59 3547.11 1634.22C3546.96 1633.98 3546.79 1633.74 3546.62 1633.5C3545.06 1631.41 3542.89 1629.86 3540.42 1629.05C3550.72 1621.49 3560.52 1613.27 3569.76 1604.44C3570.14 1607.01 3571.29 1609.4 3573.04 1611.31C3574.17 1612.49 3575.51 1613.43 3577 1614.08C3578.49 1614.73 3580.1 1615.08 3581.73 1615.11C3583.35 1615.14 3584.97 1614.85 3586.48 1614.25C3588 1613.65 3589.38 1612.76 3590.54 1611.62C3591.71 1610.49 3592.64 1609.14 3593.28 1607.64C3593.92 1606.14 3594.26 1604.54 3594.28 1602.91C3594.29 1601.28 3593.99 1599.67 3593.38 1598.16C3592.77 1596.65 3591.86 1595.28 3590.72 1594.12L3590.26 1593.67C3588.33 1591.94 3585.91 1590.84 3583.34 1590.53C3591.98 1581.12 3600 1571.15 3607.34 1560.69C3608.2 1563.13 3609.79 1565.25 3611.89 1566.76C3613.23 1567.7 3614.75 1568.36 3616.34 1568.7C3617.94 1569.05 3619.6 1569.07 3621.2 1568.77C3622.81 1568.47 3624.34 1567.86 3625.71 1566.96C3627.08 1566.06 3628.26 1564.9 3629.17 1563.55C3630.09 1562.19 3630.72 1560.67 3631.04 1559.06C3631.36 1557.46 3631.36 1555.81 3631.03 1554.2C3630.71 1552.6 3630.07 1551.08 3629.15 1549.72C3628.23 1548.37 3627.05 1547.21 3625.68 1546.32L3625.38 1546.12C3623.15 1544.82 3620.59 1544.21 3618.02 1544.37C3624.65 1533.46 3630.55 1522.12 3635.7 1510.43C3637.02 1512.66 3639 1514.42 3641.35 1515.5C3644.38 1516.72 3647.78 1516.69 3650.79 1515.41C3653.8 1514.14 3656.18 1511.71 3657.4 1508.68C3658.62 1505.65 3658.59 1502.25 3657.31 1499.24C3656.04 1496.23 3653.61 1493.85 3650.58 1492.63C3648.14 1491.77 3645.49 1491.68 3643 1492.37C3647.37 1480.36 3650.94 1468.07 3653.71 1455.59C3655.45 1457.53 3657.74 1458.89 3660.27 1459.49C3663.45 1460.11 3666.75 1459.46 3669.45 1457.67C3672.15 1455.89 3674.04 1453.11 3674.71 1449.94C3675.39 1446.77 3674.78 1443.47 3673.04 1440.74C3671.3 1438.01 3668.55 1436.07 3665.39 1435.35L3664.82 1435.24C3662.24 1434.87 3659.62 1435.31 3657.3 1436.49C3659.23 1423.84 3660.34 1411.09 3660.63 1398.3C3662.71 1399.86 3665.21 1400.74 3667.81 1400.82C3670.59 1400.91 3673.32 1400.03 3675.52 1398.33C3677.73 1396.63 3679.27 1394.21 3679.89 1391.5H3651.1C3651.11 1391.51 3651.13 1391.52 3651.15 1391.52C3651.17 1391.52 3651.19 1391.51 3651.2 1391.5C3642.58 1395.26 3633.91 1398.67 3625.2 1401.72C3625.32 1398.33 3625.42 1394.92 3625.42 1391.5H3625.65V1390.5L3626.2 1391.5C3635.69 1387.74 3645.08 1383.56 3654.37 1378.97C3654.54 1383.12 3654.65 1387.29 3654.65 1391.48H3680.25C3680.51 1390.43 3680.63 1389.35 3680.62 1388.27C3680.63 1386.68 3680.33 1385.1 3679.73 1383.62C3679.13 1382.15 3678.24 1380.8 3677.12 1379.67C3676 1378.54 3674.67 1377.63 3673.21 1377.01C3671.74 1376.39 3670.16 1376.07 3668.57 1376.06H3667.93C3665.34 1376.21 3662.86 1377.14 3660.82 1378.74C3660.82 1377.74 3660.75 1376.74 3660.7 1375.74L3660.91 1375.64L3660.67 1375.24C3660.68 1374.84 3660.66 1374.43 3660.6 1374.03L3660.78 1373.59L3660.54 1373.49C3659.91 1363.06 3658.74 1352.66 3657.02 1342.35L3657.21 1342.22L3656.93 1341.84C3656.87 1341.44 3656.81 1341.04 3656.74 1340.64C3659.06 1341.75 3661.66 1342.12 3664.2 1341.71C3667.35 1341.06 3670.12 1339.2 3671.92 1336.53C3673.73 1333.87 3674.41 1330.6 3673.84 1327.44C3673.27 1324.27 3671.49 1321.45 3668.87 1319.58C3666.25 1317.71 3663 1316.94 3659.82 1317.43C3659.61 1317.43 3659.4 1317.51 3659.2 1317.55C3656.7 1318.21 3654.45 1319.61 3652.74 1321.55C3651.74 1317.55 3650.74 1313.55 3649.58 1309.55L3649.76 1309.41L3649.45 1309.08L3649.1 1307.9L3649.19 1307.44H3648.95C3646.69 1299.83 3644.14 1292.35 3641.31 1285.01C3643.82 1285.65 3646.46 1285.51 3648.89 1284.6C3651.9 1283.32 3654.28 1280.9 3655.51 1277.86C3656.74 1274.83 3656.71 1271.43 3655.43 1268.42C3654.15 1265.41 3651.73 1263.03 3648.69 1261.8C3645.66 1260.57 3642.26 1260.6 3639.25 1261.88C3636.91 1263.02 3634.98 1264.84 3633.69 1267.1C3630.62 1260.49 3627.31 1254.01 3623.74 1247.66L3623.86 1247.49L3623.51 1247.25C3623.28 1246.86 3623.09 1246.48 3622.86 1246.11V1245.69H3622.67C3620.32 1241.56 3617.87 1237.47 3615.32 1233.46C3617.92 1233.6 3620.49 1232.94 3622.7 1231.57C3625.4 1229.73 3627.25 1226.89 3627.86 1223.68C3628.46 1220.46 3627.77 1217.14 3625.93 1214.44C3624.08 1211.75 3621.24 1209.89 3618.03 1209.29C3614.82 1208.68 3611.5 1209.38 3608.8 1211.22C3606.73 1212.8 3605.19 1214.96 3604.36 1217.43C3598.2 1209.02 3591.61 1200.93 3584.6 1193.21L3584.68 1193.05L3584.35 1192.94L3583.35 1191.94L3583.25 1191.59L3583.07 1191.65C3581.97 1190.45 3580.86 1189.27 3579.76 1188.1C3582.32 1187.73 3584.71 1186.58 3586.6 1184.82C3588.89 1182.49 3590.16 1179.34 3590.13 1176.07C3590.1 1172.81 3588.77 1169.68 3586.44 1167.4C3584.1 1165.11 3580.96 1163.84 3577.69 1163.87C3574.42 1163.9 3571.3 1165.23 3569.01 1167.56C3567.28 1169.5 3566.18 1171.92 3565.86 1174.5C3564.14 1172.91 3562.38 1171.34 3560.62 1169.78V1169.63L3560.31 1169.56C3559.92 1169.23 3559.55 1168.9 3559.19 1168.56L3559.09 1168.27L3558.94 1168.35C3551.61 1162.03 3543.98 1156.07 3536.05 1150.47C3538.49 1149.6 3540.61 1148.01 3542.12 1145.91C3543.01 1144.56 3543.62 1143.04 3543.92 1141.45C3544.23 1139.86 3544.21 1138.23 3543.88 1136.65C3543.55 1135.06 3542.92 1133.56 3542.01 1132.22C3541.1 1130.88 3539.93 1129.74 3538.58 1128.85C3537.23 1127.96 3535.71 1127.35 3534.12 1127.05C3532.53 1126.74 3530.9 1126.76 3529.32 1127.09C3527.73 1127.42 3526.23 1128.05 3524.89 1128.96C3523.55 1129.87 3522.41 1131.04 3521.52 1132.39C3520.21 1134.62 3519.6 1137.19 3519.77 1139.77C3515.1 1136.93 3510.34 1134.21 3505.48 1131.61V1131.36H3505.23L3503.8 1130.61L3503.66 1130.41L3503.56 1130.48C3497.77 1127.44 3491.87 1124.59 3485.88 1121.93C3488.1 1120.59 3489.87 1118.62 3490.96 1116.27C3492.18 1113.24 3492.15 1109.85 3490.87 1106.84C3489.6 1103.83 3487.18 1101.46 3484.15 1100.24C3481.11 1099.01 3477.72 1099.04 3474.72 1100.32C3471.71 1101.6 3469.33 1104.02 3468.11 1107.05C3467.25 1109.5 3467.16 1112.15 3467.85 1114.65C3459.77 1111.71 3451.53 1109.11 3443.12 1106.86V1106.79H3443L3441.23 1106.32L3441.14 1106.25C3437.86 1105.4 3434.53 1104.61 3431.21 1103.87C3433.14 1102.13 3434.5 1099.83 3435.1 1097.3C3435.6 1094.2 3434.9 1091.03 3433.14 1088.43C3431.38 1085.83 3428.7 1084 3425.63 1083.31C3422.57 1082.62 3419.36 1083.13 3416.66 1084.73C3413.96 1086.33 3411.97 1088.9 3411.1 1091.92C3411.04 1092.19 3410.99 1092.47 3410.95 1092.74C3410.6 1095.32 3411.04 1097.94 3412.21 1100.27C3411.59 1100.17 3410.98 1100.1 3410.37 1100.01H3410.28C3409.67 1099.91 3409.04 1099.84 3408.43 1099.75L3408.34 1099.69C3397.95 1098.23 3387.49 1097.33 3377 1096.99L3375 1096.91H3374.21C3375.76 1094.82 3376.64 1092.32 3376.73 1089.72C3376.75 1088.1 3376.46 1086.5 3375.86 1085C3375.27 1083.49 3374.38 1082.12 3373.26 1080.96C3372.13 1079.8 3370.79 1078.87 3369.3 1078.23C3367.82 1077.59 3366.22 1077.25 3364.61 1077.23C3362.99 1077.2 3361.38 1077.5 3359.88 1078.09C3358.38 1078.69 3357.01 1079.57 3355.85 1080.7C3354.69 1081.83 3353.76 1083.17 3353.12 1084.65C3352.48 1086.14 3352.13 1087.73 3352.11 1089.35C3352.11 1089.56 3352.11 1089.78 3352.11 1089.99C3352.26 1092.58 3353.2 1095.06 3354.79 1097.11C3350.34 1097.3 3345.91 1097.6 3341.51 1097.98C3333.16 1098.72 3324.92 1099.79 3316.77 1101.2C3317.87 1098.86 3318.25 1096.25 3317.85 1093.69C3317.31 1090.46 3315.51 1087.59 3312.84 1085.69C3310.18 1083.79 3306.87 1083.03 3303.65 1083.57C3300.42 1084.12 3297.54 1085.92 3295.65 1088.58C3293.75 1091.25 3292.99 1094.56 3293.53 1097.78C3293.53 1098.09 3293.65 1098.39 3293.72 1098.69C3294.37 1101.2 3295.76 1103.44 3297.72 1105.14C3285.33 1108.17 3273.14 1112 3261.25 1116.62C3261.89 1114.1 3261.75 1111.45 3260.85 1109.01C3260.26 1107.5 3259.38 1106.13 3258.25 1104.96C3257.13 1103.8 3255.79 1102.86 3254.31 1102.21C3252.82 1101.57 3251.23 1101.22 3249.61 1101.19C3247.99 1101.16 3246.38 1101.44 3244.88 1102.04C3243.37 1102.63 3241.99 1103.51 3240.83 1104.63C3239.66 1105.75 3238.73 1107.09 3238.08 1108.58C3237.43 1110.06 3237.08 1111.66 3237.05 1113.28C3237.02 1114.89 3237.31 1116.5 3237.9 1118.01C3237.99 1118.25 3238.09 1118.49 3238.2 1118.72C3239.33 1121.06 3241.14 1123 3243.4 1124.29C3231.83 1129.7 3220.63 1135.85 3209.86 1142.72C3209.99 1140.12 3209.33 1137.54 3207.97 1135.32C3207.08 1133.96 3205.92 1132.79 3204.57 1131.88C3203.22 1130.97 3201.71 1130.34 3200.11 1130.01C3198.52 1129.69 3196.87 1129.69 3195.28 1130C3193.68 1130.32 3192.16 1130.95 3190.81 1131.85C3189.46 1132.76 3188.3 1133.92 3187.4 1135.28C3186.5 1136.64 3185.88 1138.16 3185.57 1139.75C3185.26 1141.35 3185.27 1142.99 3185.6 1144.59C3185.92 1146.18 3186.56 1147.7 3187.48 1149.04L3187.63 1149.26C3189.19 1151.35 3191.35 1152.9 3193.83 1153.71C3183.5 1161.3 3173.67 1169.54 3164.4 1178.4C3164.01 1175.84 3162.87 1173.45 3161.12 1171.53C3158.83 1169.22 3155.73 1167.9 3152.47 1167.86C3149.22 1167.83 3146.08 1169.09 3143.75 1171.35C3141.42 1173.62 3140.08 1176.72 3140.02 1179.97C3139.96 1183.23 3141.19 1186.37 3143.44 1188.72C3143.59 1188.88 3143.74 1189.03 3143.9 1189.17C3145.82 1190.9 3148.24 1192 3150.81 1192.31C3142.18 1201.73 3134.16 1211.7 3126.81 1222.15C3125.95 1219.71 3124.36 1217.59 3122.26 1216.08C3119.55 1214.25 3116.22 1213.57 3113.01 1214.2C3109.8 1214.82 3106.97 1216.7 3105.14 1219.41C3103.31 1222.12 3102.63 1225.45 3103.26 1228.66C3103.88 1231.87 3105.76 1234.7 3108.47 1236.53L3108.77 1236.72C3111 1238.03 3113.56 1238.63 3116.14 1238.47C3109.51 1249.38 3103.6 1260.72 3098.46 1272.41C3097.13 1270.19 3095.16 1268.42 3092.81 1267.34C3089.78 1266.12 3086.38 1266.15 3083.37 1267.43C3080.36 1268.7 3077.98 1271.13 3076.76 1274.16C3075.54 1277.19 3075.57 1280.59 3076.85 1283.6C3078.13 1286.61 3080.55 1288.99 3083.58 1290.21C3086.02 1291.07 3088.66 1291.16 3091.15 1290.47C3086.79 1302.48 3083.21 1314.77 3080.45 1327.25C3078.72 1325.31 3076.43 1323.95 3073.89 1323.35C3072.3 1323.02 3070.67 1323.01 3069.07 1323.31C3067.48 1323.62 3065.96 1324.23 3064.61 1325.12C3063.25 1326.01 3062.09 1327.16 3061.18 1328.5C3060.27 1329.84 3059.63 1331.35 3059.3 1332.94C3058.97 1334.53 3058.96 1336.16 3059.26 1337.76C3059.57 1339.35 3060.18 1340.87 3061.07 1342.22C3061.96 1343.58 3063.11 1344.74 3064.45 1345.65C3065.79 1346.56 3067.3 1347.2 3068.89 1347.53L3069.28 1347.6C3071.86 1347.98 3074.49 1347.54 3076.8 1346.35C3074.87 1359 3073.76 1371.75 3073.47 1384.54C3071.39 1382.99 3068.88 1382.11 3066.29 1382.02C3063.51 1381.93 3060.78 1382.81 3058.58 1384.51C3056.37 1386.21 3054.83 1388.63 3054.21 1391.34H3083C3091.62 1387.6 3100.29 1384.19 3109 1381.12C3108.88 1384.51 3108.78 1387.92 3108.78 1391.34H3108.6V1392.34L3108.05 1391.34C3098.56 1395.1 3089.17 1399.28 3079.88 1403.87C3079.71 1399.72 3079.6 1395.55 3079.6 1391.36H3054C3053.74 1392.41 3053.62 1393.49 3053.63 1394.57C3053.61 1397.78 3054.86 1400.87 3057.11 1403.16C3059.36 1405.45 3062.42 1406.75 3065.63 1406.78L3066.26 1406.73ZM3084.39 1444.28C3094.46 1446.64 3104.57 1448.59 3114.65 1450.11L3114.98 1449.05C3115.11 1449.66 3115.26 1450.28 3115.41 1450.89L3114.65 1450.09C3106.26 1455.89 3098.05 1462.08 3090.02 1468.67C3087.8 1460.67 3085.92 1452.54 3084.39 1444.28ZM3114.23 1445.67C3104.96 1444.12 3095.69 1442.21 3086.43 1439.96C3094.43 1434.73 3102.52 1429.83 3110.71 1425.28C3111.62 1432.16 3112.82 1439 3114.23 1445.67ZM3109.46 1371.91C3101.13 1367.91 3092.9 1363.55 3084.76 1358.83C3093.73 1356.09 3102.73 1353.69 3111.76 1351.63C3110.74 1358.31 3109.97 1365.07 3109.46 1371.91ZM3131.93 1294.91L3356.67 1388.18L3118.09 1340.64C3121.24 1324.98 3125.87 1309.65 3131.93 1294.86V1294.91ZM3120.51 1313.91C3113.31 1308.09 3106.28 1301.97 3099.41 1295.54C3108.78 1294.87 3118.12 1294.59 3127.41 1294.69C3124.85 1300.98 3122.55 1307.38 3120.51 1313.89V1313.91ZM3155.26 1250.77L3357.49 1386.15L3132.73 1292.88C3138.9 1278.16 3146.44 1264.05 3155.26 1250.75V1250.77ZM3144.45 1259.96C3138.76 1252.63 3133.3 1245.05 3128.07 1237.23C3137.34 1238.75 3146.49 1240.6 3155.5 1242.79C3151.59 1248.35 3147.91 1254.07 3144.45 1259.94V1259.96ZM3186.72 1212.06L3358.72 1384.36L3156.48 1249C3165.39 1235.78 3175.51 1223.41 3186.72 1212.07V1212.06ZM3160.87 1235.37C3156.04 1227.44 3151.48 1219.29 3147.17 1210.91C3156.21 1213.49 3165.09 1216.37 3173.82 1219.55C3169.27 1224.65 3164.96 1229.92 3160.87 1235.37ZM3364 1380.8L3270.89 1155.62C3285.63 1149.57 3300.91 1144.93 3316.53 1141.75L3364 1380.8ZM3318.59 1141.37C3334.23 1138.35 3350.11 1136.79 3366.04 1136.73V1380.41L3318.59 1141.37ZM3365.85 1402.37V1646C3349.92 1645.94 3334.04 1644.38 3318.4 1641.35L3365.85 1402.37ZM3362 1381.7L3226.87 1179.07C3240.13 1170.25 3254.19 1162.7 3268.87 1156.52L3362 1381.7ZM3360.21 1382.89L3188.21 1210.6C3199.52 1199.36 3211.85 1189.21 3225.05 1180.27L3360.21 1382.89ZM3132.54 1489.89L3357.26 1396.62L3155 1532C3146.21 1518.68 3138.7 1504.55 3132.56 1489.82L3132.54 1489.89ZM3147.12 1527.57C3137.87 1529.25 3128.51 1530.58 3119.04 1531.57C3124.78 1523.94 3130.74 1516.61 3136.93 1509.57C3140.13 1515.65 3143.54 1521.63 3147.16 1527.5L3147.12 1527.57ZM3117.9 1442.18L3356.47 1394.62L3131.7 1487.9C3125.65 1473.11 3121.03 1457.78 3117.89 1442.11L3117.9 1442.18ZM3122.04 1474.18C3112.66 1473.71 3103.24 1472.88 3093.77 1471.71C3101.1 1465.61 3108.59 1459.82 3116.24 1454.33C3117.94 1461.03 3119.89 1467.64 3122.08 1474.15L3122.04 1474.18ZM3133.04 1501.57C3123.67 1502.18 3114.22 1502.45 3104.68 1502.37C3111.26 1495.44 3118.03 1488.82 3125 1482.51C3127.47 1488.98 3130.17 1495.32 3133.1 1501.51L3133.04 1501.57ZM3358.53 1398.37L3186.53 1570.67C3175.31 1559.34 3165.17 1546.99 3156.25 1533.77L3358.53 1398.37ZM3360.03 1399.88L3224.92 1602.49C3211.72 1593.55 3199.39 1583.4 3188.08 1572.17L3360.03 1399.88ZM3130.97 1286.27C3124.47 1279.67 3118.18 1272.78 3112.09 1265.6C3121.47 1266.04 3130.76 1266.85 3139.95 1267.96C3136.73 1273.9 3133.73 1279.99 3130.95 1286.23L3130.97 1286.27ZM3356.29 1390.27H3113C3113.07 1374.31 3114.62 1358.4 3117.64 1342.73L3356.29 1390.27ZM3113.39 1342.63C3105.56 1337.67 3097.88 1332.39 3090.33 1326.8C3099.55 1325.09 3108.8 1323.8 3117.99 1322.8C3116.19 1329.3 3114.66 1335.91 3113.39 1342.63ZM3356 1392.5L3117.43 1440.05C3114.42 1424.38 3112.87 1408.47 3112.8 1392.51L3356 1392.5ZM3092.18 1476.25C3102.47 1477.45 3112.74 1478.25 3122.93 1478.56L3123.14 1477.47L3123.77 1479.26C3123.49 1479.01 3123.22 1478.8 3122.93 1478.56C3115.26 1485.28 3107.82 1492.41 3100.6 1499.85C3097.47 1492.12 3094.66 1484.23 3092.18 1476.2V1476.25ZM3103.66 1507.06C3114.02 1507.06 3124.29 1506.65 3134.46 1505.83L3134.53 1504.77C3134.8 1505.32 3135.08 1505.88 3135.37 1506.43L3134.46 1505.85C3127.6 1513.43 3121.01 1521.34 3114.69 1529.59C3110.69 1522.21 3107.02 1514.68 3103.69 1507.01L3103.66 1507.06ZM3118.54 1536.33C3128.82 1535.13 3139.01 1533.57 3149.01 1531.57V1530.57L3150.01 1532.06L3149.08 1531.59C3143.14 1539.91 3137.5 1548.53 3132.15 1557.44C3127.28 1550.59 3122.75 1543.53 3118.55 1536.28L3118.54 1536.33ZM3151.89 1535.01C3155.72 1540.75 3159.76 1546.33 3164.02 1551.74C3155.03 1554.46 3145.9 1556.86 3136.62 1558.95C3141.42 1550.69 3146.51 1542.69 3151.89 1534.95V1535.01ZM3152.5 1583.13C3146.94 1576.89 3141.65 1570.42 3136.62 1563.72C3146.71 1561.36 3156.64 1558.63 3166.39 1555.53C3166.33 1555.19 3166.29 1554.86 3166.23 1554.53C3166.6 1554.97 3166.94 1555.44 3167.32 1555.88L3166.39 1555.54C3161.43 1564.46 3156.82 1573.64 3152.55 1583.08L3152.5 1583.13ZM3169.64 1558.61C3174.08 1563.87 3178.73 1568.95 3183.58 1573.84C3174.96 1577.56 3166.16 1580.98 3157.19 1584.1C3161.04 1575.36 3165.19 1566.85 3169.64 1558.56V1558.61ZM3163.64 1595.05C3161.64 1593.05 3159.64 1590.99 3157.64 1588.87C3167.41 1585.39 3176.96 1581.55 3186.29 1577.35L3186.03 1576.35L3187.25 1577.55L3186.25 1577.31C3182.32 1586.75 3178.77 1596.46 3175.56 1606.31C3171.56 1602.66 3167.6 1598.89 3163.69 1595L3163.64 1595.05ZM3189.9 1580.05C3194.91 1584.76 3200.09 1589.28 3205.46 1593.6C3197.34 1598.27 3188.99 1602.67 3180.4 1606.8C3183.3 1597.65 3186.48 1588.73 3189.95 1580.02L3189.9 1580.05ZM3201.33 1626.82C3194.5 1621.99 3187.88 1616.82 3181.5 1611.44C3190.83 1606.86 3199.89 1601.95 3208.67 1596.72L3208.32 1595.84L3209.64 1596.84L3208.64 1596.72C3205.87 1606.56 3203.45 1616.58 3201.38 1626.79L3201.33 1626.82ZM3212.5 1599.04C3218 1603.15 3223.67 1607.04 3229.5 1610.7C3221.96 1616.26 3214.17 1621.59 3206.13 1626.7C3207.96 1617.31 3210.1 1608.08 3212.55 1599.01L3212.5 1599.04ZM3229.17 1644.22C3221.84 1640.22 3214.67 1635.89 3207.68 1631.22C3216.43 1625.6 3224.89 1619.69 3233.04 1613.5L3232.62 1612.7L3233.97 1613.5H3233.06C3231.39 1623.5 3230.12 1633.8 3229.22 1644.19L3229.17 1644.22ZM3237.11 1615.33C3243.03 1618.78 3249.09 1622 3255.3 1624.98C3248.46 1631.38 3241.32 1637.55 3233.89 1643.48C3234.68 1633.98 3235.77 1624.59 3237.16 1615.3L3237.11 1615.33ZM3259.18 1627.33C3258.64 1637.59 3258.52 1647.92 3258.83 1658.33C3251.04 1655.17 3243.43 1651.68 3235.98 1647.86C3244.04 1641.26 3251.77 1634.41 3259.18 1627.31C3259 1627.07 3258.85 1626.83 3258.67 1626.58L3260.04 1627.22L3259.18 1627.33ZM3226.59 1603.74L3361.7 1401.12L3268.61 1626.3C3253.93 1620.1 3239.87 1612.52 3226.61 1603.67L3226.59 1603.74ZM3263.45 1657.06C3263.08 1647.56 3263.08 1638.12 3263.45 1628.74C3269.72 1631.48 3276.11 1634 3282.61 1636.24C3276.57 1643.34 3270.22 1650.26 3263.55 1656.99L3263.45 1657.06ZM3265.99 1661.15C3273.25 1653.69 3280.14 1646 3286.67 1638.07L3286.1 1637.43C3286.56 1637.59 3287.02 1637.75 3287.5 1637.88L3286.67 1638.06C3287.34 1648.32 3288.41 1658.61 3289.89 1668.93C3281.82 1666.65 3273.87 1664.03 3266.04 1661.08L3265.99 1661.15ZM3270.61 1627.15L3363.7 1402L3316.25 1641C3300.65 1637.81 3285.39 1633.15 3270.68 1627.07L3270.61 1627.15ZM3291.09 1639.06C3297.61 1641.06 3304.24 1642.8 3310.97 1644.29C3305.75 1652.06 3300.21 1659.68 3294.36 1667.16C3292.94 1657.71 3291.87 1648.31 3291.14 1638.96L3291.09 1639.06ZM3297.33 1670.92C3303.68 1662.66 3309.69 1654.22 3315.25 1645.6L3314.68 1645.09C3315.11 1645.19 3315.56 1645.26 3315.99 1645.33L3315.25 1645.59C3317.06 1655.71 3319.31 1665.82 3322 1675.91C3313.7 1674.58 3305.49 1672.88 3297.38 1670.82L3297.33 1670.92ZM3319.73 1646.07C3326.4 1647.31 3333.17 1648.29 3340.05 1649.01C3335.76 1657.32 3331.14 1665.51 3326.19 1673.59C3323.72 1664.37 3321.58 1655.16 3319.78 1645.97L3319.73 1646.07ZM3329.57 1677.07C3334.95 1668.14 3339.93 1659.07 3344.51 1649.84L3343.9 1649.4L3345.17 1649.51L3344.5 1649.83C3347.45 1659.66 3350.85 1669.46 3354.63 1679.2C3346.25 1678.71 3337.87 1677.99 3329.63 1676.92L3329.57 1677.07ZM3358.57 1676.38C3355.06 1667.58 3351.88 1658.72 3349.03 1649.8C3354.94 1650.2 3360.9 1650.42 3366.89 1650.42H3369.58C3366.25 1659.09 3362.58 1667.69 3358.58 1676.23L3358.57 1676.38ZM3601.57 1292.85L3376.84 1386.12L3579 1250.73C3587.84 1264.03 3595.39 1278.13 3601.57 1292.85ZM3587 1255.17C3596.24 1253.48 3605.6 1252.14 3615.07 1251.17C3609.33 1258.81 3603.37 1266.14 3597.18 1273.17C3594.02 1267.01 3590.58 1261.02 3587 1255.17ZM3619.87 1336.98C3629.15 1338.53 3638.4 1340.43 3647.68 1342.7C3639.68 1347.94 3631.58 1352.83 3623.39 1357.37C3622.48 1350.49 3621.3 1343.69 3619.87 1336.98ZM3624.64 1410.74C3632.98 1414.74 3641.22 1419.1 3649.35 1423.83C3640.37 1426.59 3631.37 1428.99 3622.35 1431.02C3623.38 1424.35 3624.14 1417.59 3624.64 1410.74ZM3621.27 1390.22H3378.07L3616.64 1342.66C3619.66 1358.33 3621.21 1374.26 3621.27 1390.22ZM3602.18 1487.81L3377.43 1394.54L3616 1442.08C3612.85 1457.73 3608.22 1473.04 3602.17 1487.81H3602.18ZM3613.61 1468.81C3620.81 1474.64 3627.84 1480.77 3634.71 1487.18C3625.34 1487.83 3616.01 1488.1 3606.71 1488.04C3609.29 1481.71 3611.58 1475.29 3613.58 1468.77L3613.61 1468.81ZM3578.83 1532L3376.57 1396.58L3601.33 1489.85C3595.17 1504.56 3587.64 1518.66 3578.83 1531.96V1532ZM3589.64 1522.81C3595.34 1530.14 3600.8 1537.72 3606.03 1545.54C3596.75 1544.02 3587.61 1542.17 3578.6 1539.98C3582.5 1534.39 3586.17 1528.65 3589.6 1522.77L3589.64 1522.81ZM3547.39 1570.71L3375.39 1398.41L3577.63 1533.8C3568.71 1547 3558.59 1559.34 3547.39 1570.67V1570.71ZM3573.23 1547.39C3578.06 1555.32 3582.62 1563.47 3586.93 1571.85C3577.88 1569.27 3569 1566.39 3560.27 1563.21C3564.81 1558.05 3569.13 1552.8 3573.27 1547.35L3573.23 1547.39ZM3603.23 1496.52C3609.73 1503.14 3616.02 1510.03 3622.1 1517.19C3612.73 1516.75 3603.44 1515.94 3594.24 1514.83C3597.41 1508.83 3600.41 1502.7 3603.18 1496.48L3603.23 1496.52ZM3377.91 1392.52H3621.1C3621.04 1408.48 3619.49 1424.39 3616.47 1440.06L3377.91 1392.52ZM3620.81 1440.14C3628.63 1445.1 3636.32 1450.38 3643.87 1455.98C3634.64 1457.7 3625.41 1459.03 3616.2 1459.98C3617.97 1453.47 3619.49 1446.85 3620.76 1440.11L3620.81 1440.14ZM3612.13 1308.59C3621.51 1309.06 3630.93 1309.89 3640.4 1311.06C3633.07 1317.18 3625.58 1322.97 3617.93 1328.44C3616.2 1321.68 3614.25 1315.05 3612.08 1308.56L3612.13 1308.59ZM3616.26 1340.59L3377.68 1388.15L3602.41 1294.88C3608.45 1309.64 3613.07 1324.94 3616.21 1340.58L3616.26 1340.59ZM3601.1 1281.17C3610.46 1280.55 3619.93 1280.28 3629.45 1280.37C3622.88 1287.31 3616.11 1293.93 3609.13 1300.22C3606.67 1293.74 3603.98 1287.41 3601.05 1281.16L3601.1 1281.17ZM3375.63 1384.41L3547.63 1212.12C3558.85 1223.45 3568.98 1235.8 3577.91 1249.01L3375.63 1384.41ZM3374.11 1382.9L3509.23 1180.25C3522.43 1189.19 3534.76 1199.35 3546.07 1210.58L3374.11 1382.9ZM3545.87 1572.24C3534.57 1583.48 3522.23 1593.64 3509.03 1602.57L3373.89 1399.93L3545.87 1572.24ZM3507.25 1603.75C3493.99 1612.58 3479.93 1620.13 3465.25 1626.31L3372.15 1401.12L3507.25 1603.75ZM3463.25 1627.14C3448.51 1633.19 3433.23 1637.83 3417.62 1641L3370.15 1402L3463.25 1627.14ZM3415.51 1641.4C3399.87 1644.43 3383.99 1645.99 3368.06 1646.05V1402.28L3415.51 1641.4ZM3368.26 1380.4V1136.7C3384.19 1136.76 3400.07 1138.32 3415.71 1141.34L3368.26 1380.4ZM3366.99 1679.4H3362.41C3366.73 1669.89 3370.66 1660.3 3374.19 1650.64L3373.61 1650.32H3374.77L3374.19 1650.69C3378.24 1660.15 3382.7 1669.51 3387.58 1678.76C3380.73 1679.1 3373.88 1679.41 3366.96 1679.41L3366.99 1679.4ZM3391.11 1675.4C3386.62 1667.08 3382.48 1658.62 3378.66 1650.11C3385.55 1649.79 3392.36 1649.24 3399.1 1648.4C3396.76 1657.4 3394.1 1666.4 3391.1 1675.4H3391.11ZM3395.11 1678.04C3398.35 1668.04 3401.21 1658.12 3403.59 1648.1L3402.98 1647.86L3404.1 1647.7L3403.59 1648.1C3408.69 1657.05 3414.19 1665.85 3420.1 1674.49C3411.89 1676 3403.55 1677.17 3395.1 1677.99L3395.11 1678.04ZM3408.01 1647.1C3414.79 1646.02 3421.48 1644.65 3428.09 1643.1C3426.82 1652.33 3425.19 1661.6 3423.23 1670.85C3417.83 1663 3412.76 1655.07 3408.02 1647.05L3408.01 1647.1ZM3427.54 1673C3429.64 1662.76 3431.31 1652.51 3432.54 1642.26L3431.98 1642.1C3432.31 1642.01 3432.63 1641.91 3432.98 1641.83C3432.85 1641.97 3432.7 1642.11 3432.56 1642.27C3438.66 1650.59 3445.14 1658.71 3452 1666.63C3444 1669.05 3435.86 1671.16 3427.57 1672.95L3427.54 1673ZM3454.65 1662.55C3448.41 1655.47 3442.47 1648.18 3436.84 1640.77C3443.44 1638.93 3449.92 1636.83 3456.29 1634.46C3456.09 1643.72 3455.57 1653.09 3454.66 1662.46L3454.65 1662.55ZM3459.17 1664.26C3460.07 1653.82 3460.55 1643.43 3460.62 1633.09C3460.43 1633.07 3460.25 1633.04 3460.07 1632.99L3460.96 1632.65L3460.63 1633.09C3467.64 1640.65 3475.01 1647.98 3482.74 1655.09C3475.07 1658.41 3467.2 1661.5 3459.18 1664.21L3459.17 1664.26ZM3464.73 1631.15C3471.07 1628.56 3477.27 1625.73 3483.34 1622.65C3484.2 1631.92 3484.73 1641.28 3484.92 1650.72C3477.91 1644.39 3471.18 1637.85 3464.74 1631.1L3464.73 1631.15ZM3489.63 1651.93C3489.33 1641.46 3488.63 1631.05 3487.5 1620.81H3487L3487.82 1620.38L3487.54 1620.82C3495.36 1627.54 3503.52 1633.97 3512.03 1640.12C3504.78 1644.32 3497.33 1648.24 3489.68 1651.88L3489.63 1651.93ZM3491.37 1618.41C3497.37 1615.12 3503.18 1611.57 3508.87 1607.83C3510.78 1616.93 3512.37 1626.16 3513.63 1635.53C3505.96 1630.03 3498.54 1624.32 3491.38 1618.41H3491.37ZM3518.45 1636.19C3516.96 1625.8 3515.07 1615.56 3512.78 1605.49H3512.32C3512.54 1605.33 3512.77 1605.17 3512.99 1605.03L3512.8 1605.47C3521.35 1611.26 3530.2 1616.72 3539.35 1621.86C3532.6 1626.9 3525.64 1631.66 3518.46 1636.14L3518.45 1636.19ZM3516.39 1602.68C3521.95 1598.72 3527.34 1594.55 3532.55 1590.17C3535.47 1598.99 3538.09 1607.99 3540.42 1617.17C3532.19 1612.55 3524.19 1607.7 3516.42 1602.63L3516.39 1602.68ZM3545.28 1617.26C3542.61 1607.1 3539.58 1597.14 3536.17 1587.39L3535.77 1587.46L3536.31 1586.99L3536.17 1587.39C3545.33 1592.16 3554.75 1596.58 3564.42 1600.66C3558.31 1606.41 3551.91 1611.95 3545.29 1617.21L3545.28 1617.26ZM3539.45 1584.2C3544.52 1579.64 3549.41 1574.89 3554.11 1569.96C3558 1578.38 3561.64 1586.96 3564.96 1595.81C3556.29 1592.19 3547.79 1588.3 3539.46 1584.15L3539.45 1584.2ZM3570.16 1595.07L3569.81 1595.43C3566 1585.65 3561.85 1576.09 3557.36 1566.75L3556.97 1566.87L3557.43 1566.37L3557.34 1566.75C3566.99 1570.47 3576.85 1573.8 3586.92 1576.75C3581.62 1583.02 3576.03 1589.16 3570.17 1595.02L3570.16 1595.07ZM3591.71 1570.92C3586.83 1561.59 3581.63 1552.55 3576.1 1543.82L3575.74 1543.98C3575.86 1543.81 3575.99 1543.62 3576.13 1543.45V1543.84C3586.13 1546.43 3596.3 1548.61 3606.64 1550.38C3601.97 1557.42 3597 1564.25 3591.72 1570.87L3591.71 1570.92ZM3610.71 1544.08C3604.8 1535.41 3598.61 1527.03 3592.12 1518.94L3591.81 1519.11L3592.1 1518.59V1518.94C3602.33 1520.37 3612.72 1521.36 3623.2 1521.94C3619.36 1529.48 3615.19 1536.84 3610.68 1544.03L3610.71 1544.08ZM3626.53 1515.24C3619.67 1507.24 3612.55 1499.62 3605.18 1492.38L3604.92 1492.56C3605 1492.39 3605.06 1492.22 3605.15 1492.05V1492.36C3615.49 1492.62 3625.91 1492.43 3636.4 1491.79C3633.44 1499.79 3630.14 1507.59 3626.5 1515.19L3626.53 1515.24ZM3638.95 1484.77C3631.21 1477.64 3623.26 1470.86 3615.11 1464.52L3614.87 1464.75C3614.91 1464.57 3614.97 1464.39 3615.03 1464.22L3615.11 1464.53C3625.39 1463.59 3635.74 1462.18 3646.11 1460.37C3644.03 1468.61 3641.63 1476.73 3638.92 1484.72L3638.95 1484.77ZM3647.77 1453.06C3639.27 1446.88 3630.6 1441.08 3621.77 1435.67C3621.71 1435.76 3621.64 1435.83 3621.58 1435.92L3621.67 1435.4L3621.77 1435.69C3631.91 1433.56 3642.02 1430.99 3652.09 1427.99C3650.99 1436.41 3649.57 1444.77 3647.74 1452.99L3647.77 1453.06ZM3654.33 1395.17C3654.23 1403.75 3653.76 1412.22 3652.93 1420.57C3643.78 1415.39 3634.51 1410.62 3625.1 1406.25C3625.05 1406.34 3624.99 1406.42 3624.93 1406.49C3624.94 1406.32 3624.94 1406.16 3624.93 1405.99L3625.07 1406.23C3634.89 1402.95 3644.63 1399.25 3654.3 1395.12L3654.33 1395.17ZM3625.56 1386.95C3625.45 1379.98 3625.06 1373.08 3624.39 1366.27C3633.44 1368.87 3642.44 1371.82 3651.39 1375.12C3642.84 1379.38 3634.24 1383.31 3625.57 1386.9L3625.56 1386.95ZM3653.87 1371.06C3644.12 1367.57 3634.32 1364.46 3624.48 1361.8L3624.02 1362.8C3623.96 1362.16 3623.87 1361.52 3623.8 1360.88L3624.48 1361.78C3633.47 1356.98 3642.33 1351.77 3651.07 1346.14C3652.32 1354.32 3653.26 1362.6 3653.84 1371.01L3653.87 1371.06ZM3649.74 1338.47C3639.66 1336.11 3629.57 1334.17 3619.47 1332.64L3619.15 1333.64C3619.01 1333.03 3618.86 1332.42 3618.71 1331.81L3619.47 1332.6C3627.87 1326.8 3636.08 1320.61 3644.1 1314.02C3646.3 1322.02 3648.17 1330.15 3649.71 1338.41L3649.74 1338.47ZM3641.93 1306.55C3631.64 1305.35 3621.39 1304.58 3611.17 1304.24L3610.96 1305.32C3610.75 1304.74 3610.54 1304.14 3610.34 1303.54C3610.62 1303.78 3610.89 1303.99 3611.17 1304.24C3618.85 1297.51 3626.29 1290.38 3633.5 1282.95C3636.61 1290.63 3639.41 1298.48 3641.9 1306.5L3641.93 1306.55ZM3630.46 1275.75C3620.1 1275.75 3609.83 1276.16 3599.66 1276.97L3599.59 1278.04C3599.32 1277.49 3599.04 1276.93 3598.75 1276.38L3599.66 1276.96C3606.52 1269.38 3613.11 1261.47 3619.43 1253.22C3623.39 1260.55 3627.06 1268.05 3630.43 1275.7L3630.46 1275.75ZM3615.57 1246.41C3605.29 1247.61 3595.1 1249.18 3585.1 1251.16V1252.16C3584.77 1251.65 3584.44 1251.16 3584.1 1250.67L3585.03 1251.14C3590.97 1242.82 3596.61 1234.2 3601.96 1225.29C3606.82 1232.1 3611.36 1239.13 3615.57 1246.37V1246.41ZM3582.22 1247.74C3578.39 1242 3574.35 1236.42 3570.09 1231.01C3579.08 1228.29 3588.21 1225.89 3597.49 1223.8C3592.66 1232.03 3587.57 1240.01 3582.2 1247.74H3582.22ZM3581.6 1199.61C3587.16 1205.85 3592.47 1212.31 3597.46 1219.02C3587.37 1221.39 3577.44 1224.12 3567.69 1227.22C3567.75 1227.56 3567.79 1227.89 3567.85 1228.22C3567.48 1227.78 3567.14 1227.31 3566.76 1226.87L3567.69 1227.21C3572.67 1218.28 3577.3 1209.08 3581.57 1199.61H3581.6ZM3564.47 1224.14C3560.03 1218.88 3555.38 1213.8 3550.53 1208.9C3559.15 1205.19 3567.95 1201.77 3576.92 1198.64C3573.05 1207.36 3568.9 1215.86 3564.45 1224.14H3564.47ZM3570.4 1187.71C3572.4 1189.71 3574.4 1191.77 3576.4 1193.88C3566.64 1197.38 3557.09 1201.22 3547.75 1205.41L3548.02 1206.41L3546.8 1205.21L3547.75 1205.45C3551.69 1196 3555.24 1186.3 3558.44 1176.45C3562.5 1180.05 3566.48 1183.8 3570.38 1187.71H3570.4ZM3544.15 1202.71C3539.12 1197.99 3533.93 1193.47 3528.58 1189.16C3536.71 1184.49 3545.07 1180.09 3553.64 1175.96C3550.78 1185.05 3547.57 1193.96 3544.13 1202.69L3544.15 1202.71ZM3532.71 1155.93C3539.54 1160.76 3546.15 1165.88 3552.54 1171.3C3543.21 1175.9 3534.15 1180.81 3525.38 1186.02L3525.72 1186.91C3525.29 1186.56 3524.86 1186.25 3524.41 1185.91L3525.41 1186.02C3528.27 1176.17 3530.71 1166.14 3532.74 1155.91L3532.71 1155.93ZM3521.57 1183.68C3516.07 1179.58 3510.4 1175.69 3504.57 1172.02C3512.12 1166.47 3519.91 1161.16 3527.95 1156.08C3526.12 1165.39 3524 1174.58 3521.57 1183.64V1183.68ZM3504.9 1138.5C3512.23 1142.54 3519.39 1146.87 3526.38 1151.5C3517.63 1157.13 3509.16 1163.01 3501.02 1169.23L3501.44 1170.03L3500.1 1169.23H3501.01C3502.68 1159.15 3503.96 1148.91 3504.86 1138.5H3504.9ZM3496.9 1167.39C3490.99 1163.94 3484.93 1160.73 3478.72 1157.74C3485.56 1151.36 3492.69 1145.2 3500.12 1139.25C3499.37 1148.69 3498.29 1158.08 3496.86 1167.41L3496.9 1167.39ZM3474.84 1155.39C3475.38 1145.15 3475.49 1134.82 3475.18 1124.39C3482.98 1127.55 3490.6 1131.04 3498.04 1134.86C3489.99 1141.46 3482.23 1148.3 3474.84 1155.41C3475.02 1155.66 3475.17 1155.9 3475.35 1156.14L3473.97 1155.5L3474.84 1155.39ZM3507.43 1178.98L3372.32 1381.6L3465.4 1156.42C3480.08 1162.62 3494.14 1170.19 3507.4 1179.02L3507.43 1178.98ZM3470.52 1125.71C3470.89 1135.21 3470.89 1144.65 3470.52 1154.02C3464.26 1151.29 3457.86 1148.77 3451.36 1146.53C3457.51 1139.38 3463.91 1132.43 3470.57 1125.67L3470.52 1125.71ZM3467.99 1121.62C3460.73 1129.08 3453.84 1136.77 3447.31 1144.69L3447.88 1145.33C3447.41 1145.17 3446.95 1145.02 3446.47 1144.89L3447.31 1144.7C3446.64 1134.46 3445.57 1124.17 3444.09 1113.84C3452.2 1116.07 3460.16 1118.7 3467.99 1121.62ZM3463.36 1155.62L3370.29 1380.78L3417.75 1141.78C3433.36 1144.96 3448.63 1149.6 3463.36 1155.65V1155.62ZM3442.9 1143.72C3436.38 1141.72 3429.75 1139.98 3423.02 1138.49C3428.24 1130.73 3433.78 1123.11 3439.63 1115.62C3441.08 1125.04 3442.17 1134.42 3442.9 1143.75V1143.72ZM3436.65 1111.84C3430.3 1120.11 3424.29 1128.54 3418.73 1137.16L3419.3 1137.68C3418.86 1137.58 3418.42 1137.51 3417.98 1137.43L3418.73 1137.18C3416.91 1127.08 3414.66 1116.97 3411.98 1106.85C3420.32 1108.18 3428.52 1109.85 3436.65 1111.85V1111.84ZM3414.24 1136.69C3407.57 1135.45 3400.8 1134.47 3393.92 1133.76C3398.22 1125.45 3402.84 1117.26 3407.79 1109.17C3410.28 1118.37 3412.43 1127.55 3414.24 1136.72V1136.69ZM3404.4 1105.75C3399.02 1114.69 3394.04 1123.77 3389.46 1132.99L3390.08 1133.43C3389.64 1133.43 3389.23 1133.34 3388.81 1133.32L3389.48 1133C3386.53 1123.18 3383.15 1113.39 3379.34 1103.63C3387.78 1104 3396.16 1104.7 3404.4 1105.78V1105.75ZM3375.4 1106.45C3378.93 1115.25 3382.11 1124.11 3384.94 1133.03C3379.04 1132.63 3373.08 1132.4 3367.08 1132.4H3364.4C3367.73 1123.73 3371.4 1115.09 3375.4 1106.48V1106.45ZM3367.08 1103.35H3371.66C3367.34 1112.86 3363.41 1122.44 3359.88 1132.11L3360.46 1132.43H3359.3L3359.88 1132.06C3355.83 1122.6 3351.37 1113.24 3346.49 1103.99C3353.31 1103.63 3360.17 1103.41 3367.1 1103.41L3367.08 1103.35ZM3342.95 1107.35C3347.43 1115.67 3351.58 1124.14 3355.39 1132.65C3348.51 1132.96 3341.7 1133.53 3334.95 1134.36C3337.28 1125.38 3339.94 1116.38 3342.95 1107.36V1107.35ZM3338.95 1104.71C3335.71 1114.71 3332.85 1124.64 3330.46 1134.71L3331.07 1134.95C3330.7 1134.97 3330.33 1135.02 3329.96 1135.1L3330.46 1134.71C3325.36 1125.77 3319.86 1116.97 3313.96 1108.31C3322.17 1106.77 3330.52 1105.57 3338.96 1104.74L3338.95 1104.71ZM3326.05 1135.65C3319.27 1136.74 3312.58 1138.08 3305.97 1139.65C3307.24 1130.41 3308.86 1121.16 3310.83 1111.9C3316.23 1119.72 3321.3 1127.65 3326.03 1135.68L3326.05 1135.65ZM3306.52 1109.8C3304.42 1120.06 3302.75 1130.31 3301.52 1140.54L3302.08 1140.7L3301.08 1140.97C3301.21 1140.83 3301.36 1140.69 3301.5 1140.53C3295.4 1132.21 3288.92 1124.09 3282.06 1116.17C3290.09 1113.68 3298.26 1111.55 3306.57 1109.76L3306.52 1109.8ZM3279.39 1120.23C3285.64 1127.33 3291.58 1134.59 3297.21 1142.01C3290.6 1143.87 3284.12 1145.97 3277.75 1148.32C3277.95 1139.02 3278.52 1129.64 3279.38 1120.23H3279.39ZM3274.87 1118.52C3273.98 1128.97 3273.47 1139.36 3273.43 1149.68L3273.98 1149.78L3273.09 1150.12L3273.41 1149.68C3266.41 1142.12 3259.01 1134.8 3251.3 1127.68C3258.99 1124.35 3266.85 1121.29 3274.86 1118.52H3274.87ZM3269.31 1151.63C3262.99 1154.22 3256.79 1157.06 3250.71 1160.14C3249.84 1150.86 3249.31 1141.5 3249.13 1132.06C3256.14 1138.38 3262.87 1144.9 3269.3 1151.63H3269.31ZM3244.43 1130.87C3244.73 1141.34 3245.43 1151.74 3246.56 1161.99H3247.1L3246.28 1162.42L3246.56 1161.97C3238.74 1155.3 3230.58 1148.87 3222.07 1142.68C3229.32 1138.44 3236.77 1134.5 3244.42 1130.87H3244.43ZM3242.69 1164.38C3236.69 1167.71 3230.85 1171.24 3225.18 1174.97C3223.28 1165.87 3221.7 1156.64 3220.43 1147.27C3228.1 1152.73 3235.52 1158.44 3242.68 1164.41L3242.69 1164.38ZM3215.61 1146.6C3217.1 1156.99 3218.99 1167.23 3221.28 1177.3H3221.74L3221.07 1177.75L3221.26 1177.31C3212.71 1171.53 3203.86 1166.07 3194.71 1160.92C3201.46 1155.86 3208.43 1151.09 3215.6 1146.6H3215.61ZM3217.66 1180.1C3212.1 1184.1 3206.71 1188.27 3201.5 1192.62C3198.57 1183.8 3195.94 1174.8 3193.62 1165.62C3201.87 1170.2 3209.87 1175.03 3217.62 1180.1H3217.66ZM3188.76 1165.52C3191.43 1175.7 3194.46 1185.66 3197.87 1195.39L3198.28 1195.32L3197.74 1195.79L3197.87 1195.39C3188.72 1190.62 3179.28 1186.2 3169.62 1182.13C3175.75 1176.32 3182.13 1170.79 3188.75 1165.52H3188.76ZM3194.61 1198.59C3189.54 1203.15 3184.66 1207.89 3179.95 1212.82C3176.06 1204.4 3172.42 1195.82 3169.1 1186.97C3177.77 1190.55 3186.27 1194.42 3194.6 1198.59H3194.61ZM3163.88 1187.71L3164.24 1187.36C3168.04 1197.15 3172.19 1206.7 3176.69 1216.03L3177.08 1215.92C3176.93 1216.09 3176.76 1216.24 3176.61 1216.41L3176.7 1216.03C3167.06 1212.32 3157.17 1209.03 3147.13 1206.03C3152.44 1199.73 3158.01 1193.58 3163.87 1187.71H3163.88ZM3142.34 1211.87C3147.21 1221.16 3152.42 1230.19 3157.95 1238.96L3158.31 1238.8L3157.92 1239.33V1238.95C3147.92 1236.35 3137.73 1234.19 3127.4 1232.4C3132.07 1225.34 3137.04 1218.5 3142.33 1211.87H3142.34ZM3123.34 1238.72C3129.24 1247.39 3135.44 1255.77 3141.93 1263.86L3142.24 1263.69C3142.14 1263.86 3142.05 1264.04 3141.94 1264.21V1263.86C3131.71 1262.43 3121.32 1261.43 3110.84 1260.86C3114.69 1253.27 3118.87 1245.89 3123.37 1238.72H3123.34ZM3107.52 1267.56C3114.38 1275.56 3121.5 1283.18 3128.87 1290.42L3129.12 1290.23C3129.06 1290.41 3128.98 1290.58 3128.9 1290.75V1290.43C3118.55 1290.19 3108.14 1290.38 3097.65 1291C3100.66 1283 3103.96 1275.17 3107.57 1267.52L3107.52 1267.56ZM3095.15 1298C3102.89 1305.12 3110.83 1311.91 3118.99 1318.25L3119.23 1318.02C3119.18 1318.19 3119.12 1318.37 3119.06 1318.55L3118.99 1318.23C3108.7 1319.17 3098.36 1320.58 3087.99 1322.39C3090.06 1314.13 3092.46 1306 3095.18 1298H3095.15ZM3086.32 1329.72C3094.82 1335.9 3103.49 1341.7 3112.32 1347.11C3112.38 1347.02 3112.46 1346.95 3112.52 1346.86L3112.43 1347.38L3112.32 1347.09C3102.19 1349.21 3092.08 1351.78 3082 1354.79C3083.1 1346.31 3084.57 1337.94 3086.35 1329.72H3086.32ZM3079.76 1387.61C3079.87 1379.05 3080.34 1370.58 3081.17 1362.21C3090.32 1367.39 3099.6 1372.16 3109 1376.53C3109.05 1376.45 3109.1 1376.37 3109.16 1376.29V1376.79L3109.03 1376.55C3099.21 1379.78 3089.47 1383.49 3079.79 1387.61H3079.76ZM3108.55 1395.81C3108.66 1402.78 3109.05 1409.67 3109.72 1416.49C3100.67 1413.91 3091.67 1410.96 3082.72 1407.64C3091.29 1403.38 3099.91 1399.44 3108.57 1395.81H3108.55ZM3109.61 1420.97L3110.07 1419.97C3110.13 1420.61 3110.22 1421.25 3110.3 1421.9L3109.61 1421C3100.62 1425.8 3091.76 1431.01 3083.03 1436.63C3081.75 1428.45 3080.81 1420.14 3080.21 1411.75C3089.98 1415.23 3099.79 1418.3 3109.64 1420.97H3109.61Z" fill="white"/>
<g id="group">
<path id="Rectangle1" class="Rectangle" d="M3367.58 1398.92L3379.98 1396.37L3449.02 1708.64L3436.61 1711.19L3367.58 1398.92Z" fill3="#C4C4C4"/>
<path id="Rectangle2" class="Rectangle" d="M3358.04 1397.33L3370.42 1400.04L3296.94 1711.37L3284.57 1708.65L3358.04 1397.33Z" fill3="#C4C4C4"/>
<path id="Rectangle3" class="Rectangle" d="M3524.65 1702.66L3524.79 1715.31L3210.71 1711.02L3210.58 1698.37L3524.65 1702.66Z" fill3="#C4C4C4"/>
<path id="Rectangle3" class="Rectangle" d="M3427.02 1714.99L3427.16 1727.64L3308.7 1726.02L3308.57 1713.37L3427.02 1714.99Z" fill3="#C4C4C4"/>
</g>
</g>
</g>
</g>
</svg>
